<svg xmlns="http://www.w3.org/2000/svg" width="1000" height="400" style="background-color: white; font-family: sans-serif;">
<line x1="50" y1="200" x2="950" y2="200" stroke="gray" stroke-width="1"/>
<path d="M 835.5804921707374 200 Q 442.7902460853687 180, 50.0 200" stroke="black" fill="none" marker-end="url(#arrowhead)"/>
<path d="M 930.391982547477 200 Q 490.1959912737385 180, 50.0 200" stroke="black" fill="none" marker-end="url(#arrowhead)"/>
<path d="M 930.391982547477 200 Q 882.9862373591072 180, 835.5804921707374 200" stroke="black" fill="none" marker-end="url(#arrowhead)"/>
<path d="M 944.5757534591396 200 Q 937.4838680033083 180, 930.391982547477 200" stroke="black" fill="none" marker-end="url(#arrowhead)"/>
<path d="M 956.5757534591396 200 Q 943.4838680033083 180, 930.391982547477 200" stroke="black" fill="none" marker-end="url(#arrowhead)"/>
<path d="M 956.5757534591396 200 Q 950.5757534591396 180, 944.5757534591396 200" stroke="black" fill="none" marker-end="url(#arrowhead)"/>

<defs>
  <marker id="arrowhead" markerWidth="5" markerHeight="5" 
          refX="2" refY="2" orient="auto" fill="black">
    <path d="M0,0 L0,4 L4,2 z" />
  </marker>
</defs>

<circle cx="50.0" cy="200" r="6" fill="none" stroke="red" stroke-width="2" />
<circle cx="50.0" cy="200" r="3" fill="red" />
<circle cx="835.5804921707374" cy="200" r="4" fill="blue" />
<circle cx="930.391982547477" cy="200" r="6" fill="none" stroke="black" stroke-width="2" />
<circle cx="930.391982547477" cy="200" r="3" fill="black" />
<circle cx="944.5757534591396" cy="200" r="4" fill="black" />
<circle cx="956.5757534591396" cy="200" r="6" fill="none" stroke="green" stroke-width="2" />
<circle cx="956.5757534591396" cy="200" r="3" fill="green" />
<text x="50" y="225" fill="gray" style="font-size:12px;">2024-12-03T08:13:24+00:00</text>
<text x="900" y="225" fill="gray" style="font-size:12px;">2025-01-07T02:29:12+00:00</text>
</svg>