<svg xmlns="http://www.w3.org/2000/svg" width="1000" height="200" style="background-color: white; font-family: sans-serif;">
<line x1="50" y1="100" x2="950" y2="100" stroke="gray" stroke-width="1"/>
<path d="M 62.0 100 Q 56.0 80, 50.0 100" stroke="black" fill="none" marker-end="url(#arrowhead)"/>
<path d="M 124.84452275184606 100 Q 99.42226137592303 80, 74.0 100" stroke="black" fill="none" marker-end="url(#arrowhead)"/>
<path d="M 186.77445657769965 100 Q 161.80948966477285 80, 136.84452275184606 100" stroke="black" fill="none" marker-end="url(#arrowhead)"/>
<path d="M 186.77445657769965 100 Q 180.77445657769965 80, 174.77445657769965 100" stroke="black" fill="none" marker-end="url(#arrowhead)"/>
<path d="M 788.5644250144051 100 Q 732.2757941167081 80, 675.9871632190111 100" stroke="black" fill="none" marker-end="url(#arrowhead)"/>
<path d="M 802.5175103240321 100 Q 795.5409676692186 80, 788.5644250144051 100" stroke="black" fill="none" marker-end="url(#arrowhead)"/>
<path d="M 802.5175103240321 100 Q 739.2523367715216 80, 675.9871632190111 100" stroke="black" fill="none" marker-end="url(#arrowhead)"/>
<path d="M 814.5175103240321 100 Q 808.5175103240321 80, 802.5175103240321 100" stroke="black" fill="none" marker-end="url(#arrowhead)"/>
<path d="M 826.5175103240321 100 Q 814.5175103240321 80, 802.5175103240321 100" stroke="black" fill="none" marker-end="url(#arrowhead)"/>
<path d="M 826.5175103240321 100 Q 820.5175103240321 80, 814.5175103240321 100" stroke="black" fill="none" marker-end="url(#arrowhead)"/>
<path d="M 901.7052983130078 100 Q 852.1114043185199 80, 802.5175103240321 100" stroke="black" fill="none" marker-end="url(#arrowhead)"/>
<path d="M 901.7052983130078 100 Q 858.1114043185199 80, 814.5175103240321 100" stroke="black" fill="none" marker-end="url(#arrowhead)"/>
<path d="M 901.7052983130078 100 Q 864.1114043185199 80, 826.5175103240321 100" stroke="black" fill="none" marker-end="url(#arrowhead)"/>
<path d="M 950.0 100 Q 888.2587551620161 80, 826.5175103240321 100" stroke="black" fill="none" marker-end="url(#arrowhead)"/>
<path d="M 950.0 100 Q 925.852649156504 80, 901.7052983130078 100" stroke="black" fill="none" marker-end="url(#arrowhead)"/>

<defs>
  <marker id="arrowhead" markerWidth="5" markerHeight="5" 
          refX="2" refY="2" orient="auto" fill="black">
    <path d="M0,0 L0,4 L4,2 z" />
  </marker>
</defs>

<circle cx="50.0" cy="100" r="6" fill="none" stroke="blue" stroke-width="2" />
<circle cx="50.0" cy="100" r="3" fill="blue" />
<circle cx="62.0" cy="100" r="4" fill="red" />
<circle cx="74.0" cy="100" r="4" fill="red" />
<circle cx="86.0" cy="100" r="4" fill="red" />
<circle cx="124.84452275184606" cy="100" r="6" fill="none" stroke="blue" stroke-width="2" />
<circle cx="124.84452275184606" cy="100" r="3" fill="blue" />
<circle cx="136.84452275184606" cy="100" r="4" fill="red" />
<circle cx="174.77445657769965" cy="100" r="4" fill="blue" />
<circle cx="186.77445657769965" cy="100" r="6" fill="none" stroke="red" stroke-width="2" />
<circle cx="186.77445657769965" cy="100" r="3" fill="red" />
<circle cx="198.77445657769965" cy="100" r="4" fill="blue" />
<circle cx="520.9128974971745" cy="100" r="4" fill="blue" />
<circle cx="555.0117044165255" cy="100" r="6" fill="none" stroke="red" stroke-width="2" />
<circle cx="555.0117044165255" cy="100" r="3" fill="red" />
<circle cx="649.766105165188" cy="100" r="4" fill="black" />
<circle cx="661.766105165188" cy="100" r="4" fill="black" />
<circle cx="675.9871632190111" cy="100" r="4" fill="red" />
<circle cx="788.5644250144051" cy="100" r="4" fill="blue" />
<circle cx="802.5175103240321" cy="100" r="4" fill="red" />
<circle cx="814.5175103240321" cy="100" r="4" fill="black" />
<circle cx="826.5175103240321" cy="100" r="4" fill="black" />
<circle cx="901.7052983130078" cy="100" r="4" fill="red" />
<circle cx="950.0" cy="100" r="4" fill="blue" />
<text x="50" y="125" fill="gray" style="font-size:12px;">2024-11-27T15:43:27+00:00</text>
<text x="900" y="125" fill="gray" style="font-size:12px;">2025-02-19T09:31:50+00:00</text>
</svg>