<svg xmlns="http://www.w3.org/2000/svg" width="1000" height="200" style="background-color: white; font-family: sans-serif;">
<line x1="50" y1="100" x2="950" y2="100" stroke="gray" stroke-width="1"/>
<path d="M 62.0 100 Q 56.0 80, 50.0 100" stroke="black" fill="none" marker-end="url(#arrowhead)"/>
<path d="M 74.0 100 Q 68.0 80, 62.0 100" stroke="black" fill="none" marker-end="url(#arrowhead)"/>
<path d="M 86.0 100 Q 80.0 80, 74.0 100" stroke="black" fill="none" marker-end="url(#arrowhead)"/>
<path d="M 98.0 100 Q 80.0 80, 62.0 100" stroke="black" fill="none" marker-end="url(#arrowhead)"/>
<path d="M 110.0 100 Q 80.0 80, 50.0 100" stroke="black" fill="none" marker-end="url(#arrowhead)"/>
<path d="M 110.0 100 Q 86.0 80, 62.0 100" stroke="black" fill="none" marker-end="url(#arrowhead)"/>
<path d="M 110.0 100 Q 92.0 80, 74.0 100" stroke="black" fill="none" marker-end="url(#arrowhead)"/>
<path d="M 122.0 100 Q 98.0 80, 74.0 100" stroke="black" fill="none" marker-end="url(#arrowhead)"/>
<path d="M 122.0 100 Q 104.0 80, 86.0 100" stroke="black" fill="none" marker-end="url(#arrowhead)"/>
<path d="M 134.0 100 Q 116.0 80, 98.0 100" stroke="black" fill="none" marker-end="url(#arrowhead)"/>
<path d="M 287.09434880063804 100 Q 210.54717440031902 80, 134.0 100" stroke="black" fill="none" marker-end="url(#arrowhead)"/>
<path d="M 645.6011913631113 100 Q 383.80059568155565 80, 122.0 100" stroke="black" fill="none" marker-end="url(#arrowhead)"/>
<path d="M 834.2394188691331 100 Q 739.9203051161222 80, 645.6011913631113 100" stroke="black" fill="none" marker-end="url(#arrowhead)"/>
<path d="M 846.2394188691331 100 Q 840.2394188691331 80, 834.2394188691331 100" stroke="black" fill="none" marker-end="url(#arrowhead)"/>
<path d="M 858.2394188691331 100 Q 852.2394188691331 80, 846.2394188691331 100" stroke="black" fill="none" marker-end="url(#arrowhead)"/>
<path d="M 858.2394188691331 100 Q 490.1197094345666 80, 122.0 100" stroke="black" fill="none" marker-end="url(#arrowhead)"/>
<path d="M 858.2394188691331 100 Q 751.9203051161222 80, 645.6011913631113 100" stroke="black" fill="none" marker-end="url(#arrowhead)"/>
<path d="M 858.2394188691331 100 Q 846.2394188691331 80, 834.2394188691331 100" stroke="black" fill="none" marker-end="url(#arrowhead)"/>
<path d="M 903.6136836043507 100 Q 874.926551236742 80, 846.2394188691331 100" stroke="black" fill="none" marker-end="url(#arrowhead)"/>
<path d="M 903.6136836043507 100 Q 868.926551236742 80, 834.2394188691331 100" stroke="black" fill="none" marker-end="url(#arrowhead)"/>
<path d="M 955.7368314660446 100 Q 906.9881251675888 80, 858.2394188691331 100" stroke="black" fill="none" marker-end="url(#arrowhead)"/>
<path d="M 955.7368314660446 100 Q 894.9881251675888 80, 834.2394188691331 100" stroke="black" fill="none" marker-end="url(#arrowhead)"/>

<defs>
  <marker id="arrowhead" markerWidth="5" markerHeight="5" 
          refX="2" refY="2" orient="auto" fill="black">
    <path d="M0,0 L0,4 L4,2 z" />
  </marker>
</defs>

<circle cx="50.0" cy="100" r="6" fill="none" stroke="blue" stroke-width="2" />
<circle cx="50.0" cy="100" r="3" fill="blue" />
<circle cx="62.0" cy="100" r="4" fill="red" />
<circle cx="74.0" cy="100" r="4" fill="black" />
<circle cx="86.0" cy="100" r="4" fill="red" />
<circle cx="98.0" cy="100" r="6" fill="none" stroke="black" stroke-width="2" />
<circle cx="98.0" cy="100" r="3" fill="black" />
<circle cx="110.0" cy="100" r="6" fill="none" stroke="blue" stroke-width="2" />
<circle cx="110.0" cy="100" r="3" fill="blue" />
<circle cx="122.0" cy="100" r="4" fill="blue" />
<circle cx="134.0" cy="100" r="4" fill="black" />
<circle cx="287.09434880063804" cy="100" r="6" fill="none" stroke="red" stroke-width="2" />
<circle cx="287.09434880063804" cy="100" r="3" fill="red" />
<circle cx="645.6011913631113" cy="100" r="4" fill="blue" />
<circle cx="834.2394188691331" cy="100" r="4" fill="red" />
<circle cx="846.2394188691331" cy="100" r="4" fill="red" />
<circle cx="858.2394188691331" cy="100" r="4" fill="blue" />
<circle cx="903.6136836043507" cy="100" r="4" fill="blue" />
<circle cx="943.7368314660446" cy="100" r="4" fill="black" />
<circle cx="955.7368314660446" cy="100" r="4" fill="blue" />
<text x="50" y="125" fill="gray" style="font-size:12px;">2024-10-03T19:52:48+00:00</text>
<text x="900" y="125" fill="gray" style="font-size:12px;">2025-02-28T11:48:47+00:00</text>
</svg>