<svg xmlns="http://www.w3.org/2000/svg" width="1000" height="200" style="background-color: white; font-family: sans-serif;">
<line x1="50" y1="100" x2="950" y2="100" stroke="gray" stroke-width="1"/>
<path d="M 62.0 100 Q 56.0 80, 50.0 100" stroke="black" fill="none" marker-end="url(#arrowhead)"/>
<path d="M 74.0 100 Q 68.0 80, 62.0 100" stroke="black" fill="none" marker-end="url(#arrowhead)"/>
<path d="M 86.0 100 Q 80.0 80, 74.0 100" stroke="black" fill="none" marker-end="url(#arrowhead)"/>
<path d="M 86.0 100 Q 74.0 80, 62.0 100" stroke="black" fill="none" marker-end="url(#arrowhead)"/>
<path d="M 98.0 100 Q 92.0 80, 86.0 100" stroke="black" fill="none" marker-end="url(#arrowhead)"/>
<path d="M 110.0 100 Q 80.0 80, 50.0 100" stroke="black" fill="none" marker-end="url(#arrowhead)"/>
<path d="M 122.0 100 Q 116.0 80, 110.0 100" stroke="black" fill="none" marker-end="url(#arrowhead)"/>
<path d="M 122.0 100 Q 86.0 80, 50.0 100" stroke="black" fill="none" marker-end="url(#arrowhead)"/>
<path d="M 134.0 100 Q 122.0 80, 110.0 100" stroke="black" fill="none" marker-end="url(#arrowhead)"/>
<path d="M 134.0 100 Q 128.0 80, 122.0 100" stroke="black" fill="none" marker-end="url(#arrowhead)"/>
<path d="M 134.0 100 Q 92.0 80, 50.0 100" stroke="black" fill="none" marker-end="url(#arrowhead)"/>
<path d="M 146.0 100 Q 128.0 80, 110.0 100" stroke="black" fill="none" marker-end="url(#arrowhead)"/>
<path d="M 146.0 100 Q 134.0 80, 122.0 100" stroke="black" fill="none" marker-end="url(#arrowhead)"/>
<path d="M 146.0 100 Q 98.0 80, 50.0 100" stroke="black" fill="none" marker-end="url(#arrowhead)"/>
<path d="M 146.0 100 Q 140.0 80, 134.0 100" stroke="black" fill="none" marker-end="url(#arrowhead)"/>
<path d="M 158.0 100 Q 152.0 80, 146.0 100" stroke="black" fill="none" marker-end="url(#arrowhead)"/>
<path d="M 170.0 100 Q 164.0 80, 158.0 100" stroke="black" fill="none" marker-end="url(#arrowhead)"/>
<path d="M 182.0 100 Q 170.0 80, 158.0 100" stroke="black" fill="none" marker-end="url(#arrowhead)"/>
<path d="M 182.0 100 Q 176.0 80, 170.0 100" stroke="black" fill="none" marker-end="url(#arrowhead)"/>
<path d="M 194.0 100 Q 176.0 80, 158.0 100" stroke="black" fill="none" marker-end="url(#arrowhead)"/>
<path d="M 194.0 100 Q 182.0 80, 170.0 100" stroke="black" fill="none" marker-end="url(#arrowhead)"/>
<path d="M 194.0 100 Q 188.0 80, 182.0 100" stroke="black" fill="none" marker-end="url(#arrowhead)"/>
<path d="M 919.7442212218434 100 Q 538.8721106109217 80, 158.0 100" stroke="black" fill="none" marker-end="url(#arrowhead)"/>
<path d="M 919.7442212218434 100 Q 544.8721106109217 80, 170.0 100" stroke="black" fill="none" marker-end="url(#arrowhead)"/>
<path d="M 919.7442212218434 100 Q 550.8721106109217 80, 182.0 100" stroke="black" fill="none" marker-end="url(#arrowhead)"/>
<path d="M 919.7442212218434 100 Q 556.8721106109217 80, 194.0 100" stroke="black" fill="none" marker-end="url(#arrowhead)"/>
<path d="M 931.7442212218434 100 Q 925.7442212218434 80, 919.7442212218434 100" stroke="black" fill="none" marker-end="url(#arrowhead)"/>
<path d="M 943.7442212218434 100 Q 937.7442212218434 80, 931.7442212218434 100" stroke="black" fill="none" marker-end="url(#arrowhead)"/>
<path d="M 943.7442212218434 100 Q 931.7442212218434 80, 919.7442212218434 100" stroke="black" fill="none" marker-end="url(#arrowhead)"/>
<path d="M 955.7442212218434 100 Q 949.7442212218434 80, 943.7442212218434 100" stroke="black" fill="none" marker-end="url(#arrowhead)"/>
<path d="M 967.7442212218434 100 Q 961.7442212218434 80, 955.7442212218434 100" stroke="black" fill="none" marker-end="url(#arrowhead)"/>

<defs>
  <marker id="arrowhead" markerWidth="5" markerHeight="5" 
          refX="2" refY="2" orient="auto" fill="black">
    <path d="M0,0 L0,4 L4,2 z" />
  </marker>
</defs>

<circle cx="50.0" cy="100" r="6" fill="none" stroke="blue" stroke-width="2" />
<circle cx="50.0" cy="100" r="3" fill="blue" />
<circle cx="62.0" cy="100" r="4" fill="green" />
<circle cx="74.0" cy="100" r="4" fill="black" />
<circle cx="86.0" cy="100" r="4" fill="black" />
<circle cx="98.0" cy="100" r="6" fill="none" stroke="black" stroke-width="2" />
<circle cx="98.0" cy="100" r="3" fill="black" />
<circle cx="110.0" cy="100" r="4" fill="black" />
<circle cx="122.0" cy="100" r="6" fill="none" stroke="black" stroke-width="2" />
<circle cx="122.0" cy="100" r="3" fill="black" />
<circle cx="134.0" cy="100" r="4" fill="black" />
<circle cx="146.0" cy="100" r="6" fill="none" stroke="blue" stroke-width="2" />
<circle cx="146.0" cy="100" r="3" fill="blue" />
<circle cx="158.0" cy="100" r="4" fill="black" />
<circle cx="170.0" cy="100" r="4" fill="black" />
<circle cx="182.0" cy="100" r="4" fill="black" />
<circle cx="194.0" cy="100" r="4" fill="black" />
<circle cx="919.7442212218434" cy="100" r="4" fill="red" />
<circle cx="931.7442212218434" cy="100" r="4" fill="red" />
<circle cx="943.7442212218434" cy="100" r="6" fill="none" stroke="blue" stroke-width="2" />
<circle cx="943.7442212218434" cy="100" r="3" fill="blue" />
<circle cx="955.7442212218434" cy="100" r="4" fill="blue" />
<circle cx="967.7442212218434" cy="100" r="6" fill="none" stroke="blue" stroke-width="2" />
<circle cx="967.7442212218434" cy="100" r="3" fill="blue" />
<text x="50" y="125" fill="gray" style="font-size:12px;">2024-04-19T03:50:39+00:00</text>
<text x="900" y="125" fill="gray" style="font-size:12px;">2024-09-07T07:38:06+00:00</text>
</svg>