<svg xmlns="http://www.w3.org/2000/svg" width="1000" height="200" style="background-color: white; font-family: sans-serif;">
<line x1="50" y1="100" x2="950" y2="100" stroke="gray" stroke-width="1"/>
<path d="M 62.0 100 Q 56.0 80, 50.0 100" stroke="black" fill="none" marker-end="url(#arrowhead)"/>
<path d="M 115.326890727073 100 Q 82.66344536353651 80, 50.0 100" stroke="black" fill="none" marker-end="url(#arrowhead)"/>
<path d="M 127.326890727073 100 Q 121.326890727073 80, 115.326890727073 100" stroke="black" fill="none" marker-end="url(#arrowhead)"/>
<path d="M 127.326890727073 100 Q 88.66344536353651 80, 50.0 100" stroke="black" fill="none" marker-end="url(#arrowhead)"/>
<path d="M 237.62486004836364 100 Q 176.47587538771833 80, 115.326890727073 100" stroke="black" fill="none" marker-end="url(#arrowhead)"/>
<path d="M 237.62486004836364 100 Q 182.47587538771833 80, 127.326890727073 100" stroke="black" fill="none" marker-end="url(#arrowhead)"/>
<path d="M 237.62486004836364 100 Q 143.81243002418182 80, 50.0 100" stroke="black" fill="none" marker-end="url(#arrowhead)"/>
<path d="M 249.62486004836364 100 Q 182.47587538771833 80, 115.326890727073 100" stroke="black" fill="none" marker-end="url(#arrowhead)"/>
<path d="M 249.62486004836364 100 Q 188.47587538771833 80, 127.326890727073 100" stroke="black" fill="none" marker-end="url(#arrowhead)"/>
<path d="M 249.62486004836364 100 Q 243.62486004836364 80, 237.62486004836364 100" stroke="black" fill="none" marker-end="url(#arrowhead)"/>
<path d="M 249.62486004836364 100 Q 149.81243002418182 80, 50.0 100" stroke="black" fill="none" marker-end="url(#arrowhead)"/>
<path d="M 261.62486004836364 100 Q 188.47587538771833 80, 115.326890727073 100" stroke="black" fill="none" marker-end="url(#arrowhead)"/>
<path d="M 261.62486004836364 100 Q 249.62486004836364 80, 237.62486004836364 100" stroke="black" fill="none" marker-end="url(#arrowhead)"/>
<path d="M 261.62486004836364 100 Q 155.81243002418182 80, 50.0 100" stroke="black" fill="none" marker-end="url(#arrowhead)"/>
<path d="M 261.62486004836364 100 Q 194.47587538771833 80, 127.326890727073 100" stroke="black" fill="none" marker-end="url(#arrowhead)"/>
<path d="M 261.62486004836364 100 Q 255.62486004836364 80, 249.62486004836364 100" stroke="black" fill="none" marker-end="url(#arrowhead)"/>
<path d="M 273.62486004836364 100 Q 194.47587538771833 80, 115.326890727073 100" stroke="black" fill="none" marker-end="url(#arrowhead)"/>
<path d="M 273.62486004836364 100 Q 255.62486004836364 80, 237.62486004836364 100" stroke="black" fill="none" marker-end="url(#arrowhead)"/>
<path d="M 273.62486004836364 100 Q 161.81243002418182 80, 50.0 100" stroke="black" fill="none" marker-end="url(#arrowhead)"/>
<path d="M 273.62486004836364 100 Q 200.47587538771833 80, 127.326890727073 100" stroke="black" fill="none" marker-end="url(#arrowhead)"/>
<path d="M 273.62486004836364 100 Q 267.62486004836364 80, 261.62486004836364 100" stroke="black" fill="none" marker-end="url(#arrowhead)"/>
<path d="M 273.62486004836364 100 Q 261.62486004836364 80, 249.62486004836364 100" stroke="black" fill="none" marker-end="url(#arrowhead)"/>
<path d="M 285.62486004836364 100 Q 267.62486004836364 80, 249.62486004836364 100" stroke="black" fill="none" marker-end="url(#arrowhead)"/>
<path d="M 297.62486004836364 100 Q 291.62486004836364 80, 285.62486004836364 100" stroke="black" fill="none" marker-end="url(#arrowhead)"/>
<path d="M 297.62486004836364 100 Q 173.81243002418182 80, 50.0 100" stroke="black" fill="none" marker-end="url(#arrowhead)"/>
<path d="M 429.7605368900163 100 Q 423.7605368900163 80, 417.7605368900163 100" stroke="black" fill="none" marker-end="url(#arrowhead)"/>
<path d="M 453.7605368900163 100 Q 447.7605368900163 80, 441.7605368900163 100" stroke="black" fill="none" marker-end="url(#arrowhead)"/>
<path d="M 465.7605368900163 100 Q 459.7605368900163 80, 453.7605368900163 100" stroke="black" fill="none" marker-end="url(#arrowhead)"/>
<path d="M 713.8086212728504 100 Q 707.8086212728504 80, 701.8086212728504 100" stroke="black" fill="none" marker-end="url(#arrowhead)"/>
<path d="M 725.8086212728504 100 Q 719.8086212728504 80, 713.8086212728504 100" stroke="black" fill="none" marker-end="url(#arrowhead)"/>
<path d="M 737.8086212728504 100 Q 731.8086212728504 80, 725.8086212728504 100" stroke="black" fill="none" marker-end="url(#arrowhead)"/>
<path d="M 749.8086212728504 100 Q 731.8086212728504 80, 713.8086212728504 100" stroke="black" fill="none" marker-end="url(#arrowhead)"/>
<path d="M 749.8086212728504 100 Q 737.8086212728504 80, 725.8086212728504 100" stroke="black" fill="none" marker-end="url(#arrowhead)"/>
<path d="M 749.8086212728504 100 Q 743.8086212728504 80, 737.8086212728504 100" stroke="black" fill="none" marker-end="url(#arrowhead)"/>
<path d="M 761.8086212728504 100 Q 755.8086212728504 80, 749.8086212728504 100" stroke="black" fill="none" marker-end="url(#arrowhead)"/>
<path d="M 773.8086212728504 100 Q 761.8086212728504 80, 749.8086212728504 100" stroke="black" fill="none" marker-end="url(#arrowhead)"/>
<path d="M 773.8086212728504 100 Q 767.8086212728504 80, 761.8086212728504 100" stroke="black" fill="none" marker-end="url(#arrowhead)"/>
<path d="M 785.8086212728504 100 Q 779.8086212728504 80, 773.8086212728504 100" stroke="black" fill="none" marker-end="url(#arrowhead)"/>
<path d="M 797.8086212728504 100 Q 785.8086212728504 80, 773.8086212728504 100" stroke="black" fill="none" marker-end="url(#arrowhead)"/>
<path d="M 809.8086212728504 100 Q 803.8086212728504 80, 797.8086212728504 100" stroke="black" fill="none" marker-end="url(#arrowhead)"/>
<path d="M 833.8086212728504 100 Q 827.8086212728504 80, 821.8086212728504 100" stroke="black" fill="none" marker-end="url(#arrowhead)"/>
<path d="M 845.8086212728504 100 Q 839.8086212728504 80, 833.8086212728504 100" stroke="black" fill="none" marker-end="url(#arrowhead)"/>
<path d="M 857.8086212728504 100 Q 845.8086212728504 80, 833.8086212728504 100" stroke="black" fill="none" marker-end="url(#arrowhead)"/>
<path d="M 857.8086212728504 100 Q 851.8086212728504 80, 845.8086212728504 100" stroke="black" fill="none" marker-end="url(#arrowhead)"/>
<path d="M 869.8086212728504 100 Q 857.8086212728504 80, 845.8086212728504 100" stroke="black" fill="none" marker-end="url(#arrowhead)"/>
<path d="M 881.8086212728504 100 Q 869.8086212728504 80, 857.8086212728504 100" stroke="black" fill="none" marker-end="url(#arrowhead)"/>
<path d="M 893.8086212728504 100 Q 881.8086212728504 80, 869.8086212728504 100" stroke="black" fill="none" marker-end="url(#arrowhead)"/>
<path d="M 905.8086212728504 100 Q 893.8086212728504 80, 881.8086212728504 100" stroke="black" fill="none" marker-end="url(#arrowhead)"/>
<path d="M 905.8086212728504 100 Q 881.8086212728504 80, 857.8086212728504 100" stroke="black" fill="none" marker-end="url(#arrowhead)"/>
<path d="M 917.8086212728504 100 Q 911.8086212728504 80, 905.8086212728504 100" stroke="black" fill="none" marker-end="url(#arrowhead)"/>
<path d="M 941.8086212728504 100 Q 935.8086212728504 80, 929.8086212728504 100" stroke="black" fill="none" marker-end="url(#arrowhead)"/>
<path d="M 953.8086212728504 100 Q 947.8086212728504 80, 941.8086212728504 100" stroke="black" fill="none" marker-end="url(#arrowhead)"/>
<path d="M 965.8086212728504 100 Q 959.8086212728504 80, 953.8086212728504 100" stroke="black" fill="none" marker-end="url(#arrowhead)"/>

<defs>
  <marker id="arrowhead" markerWidth="5" markerHeight="5" 
          refX="2" refY="2" orient="auto" fill="black">
    <path d="M0,0 L0,4 L4,2 z" />
  </marker>
</defs>

<circle cx="50.0" cy="100" r="6" fill="none" stroke="blue" stroke-width="2" />
<circle cx="50.0" cy="100" r="3" fill="blue" />
<circle cx="62.0" cy="100" r="4" fill="red" />
<circle cx="115.326890727073" cy="100" r="4" fill="blue" />
<circle cx="127.326890727073" cy="100" r="4" fill="blue" />
<circle cx="237.62486004836364" cy="100" r="4" fill="red" />
<circle cx="249.62486004836364" cy="100" r="4" fill="blue" />
<circle cx="261.62486004836364" cy="100" r="4" fill="blue" />
<circle cx="273.62486004836364" cy="100" r="4" fill="blue" />
<circle cx="285.62486004836364" cy="100" r="6" fill="none" stroke="black" stroke-width="2" />
<circle cx="285.62486004836364" cy="100" r="3" fill="black" />
<circle cx="297.62486004836364" cy="100" r="4" fill="black" />
<circle cx="417.7605368900163" cy="100" r="4" fill="blue" />
<circle cx="429.7605368900163" cy="100" r="4" fill="red" />
<circle cx="441.7605368900163" cy="100" r="4" fill="black" />
<circle cx="453.7605368900163" cy="100" r="4" fill="red" />
<circle cx="465.7605368900163" cy="100" r="6" fill="none" stroke="black" stroke-width="2" />
<circle cx="465.7605368900163" cy="100" r="3" fill="black" />
<circle cx="701.8086212728504" cy="100" r="6" fill="none" stroke="blue" stroke-width="2" />
<circle cx="701.8086212728504" cy="100" r="3" fill="blue" />
<circle cx="713.8086212728504" cy="100" r="4" fill="red" />
<circle cx="725.8086212728504" cy="100" r="6" fill="none" stroke="red" stroke-width="2" />
<circle cx="725.8086212728504" cy="100" r="3" fill="red" />
<circle cx="737.8086212728504" cy="100" r="4" fill="red" />
<circle cx="749.8086212728504" cy="100" r="6" fill="none" stroke="black" stroke-width="2" />
<circle cx="749.8086212728504" cy="100" r="3" fill="black" />
<circle cx="761.8086212728504" cy="100" r="4" fill="black" />
<circle cx="773.8086212728504" cy="100" r="6" fill="none" stroke="red" stroke-width="2" />
<circle cx="773.8086212728504" cy="100" r="3" fill="red" />
<circle cx="785.8086212728504" cy="100" r="4" fill="black" />
<circle cx="797.8086212728504" cy="100" r="4" fill="green" />
<circle cx="809.8086212728504" cy="100" r="6" fill="none" stroke="blue" stroke-width="2" />
<circle cx="809.8086212728504" cy="100" r="3" fill="blue" />
<circle cx="821.8086212728504" cy="100" r="4" fill="red" />
<circle cx="833.8086212728504" cy="100" r="6" fill="none" stroke="blue" stroke-width="2" />
<circle cx="833.8086212728504" cy="100" r="3" fill="blue" />
<circle cx="845.8086212728504" cy="100" r="4" fill="blue" />
<circle cx="857.8086212728504" cy="100" r="6" fill="none" stroke="green" stroke-width="2" />
<circle cx="857.8086212728504" cy="100" r="3" fill="green" />
<circle cx="869.8086212728504" cy="100" r="4" fill="green" />
<circle cx="881.8086212728504" cy="100" r="4" fill="black" />
<circle cx="893.8086212728504" cy="100" r="4" fill="green" />
<circle cx="905.8086212728504" cy="100" r="6" fill="none" stroke="red" stroke-width="2" />
<circle cx="905.8086212728504" cy="100" r="3" fill="red" />
<circle cx="917.8086212728504" cy="100" r="4" fill="black" />
<circle cx="929.8086212728504" cy="100" r="4" fill="red" />
<circle cx="941.8086212728504" cy="100" r="4" fill="green" />
<circle cx="953.8086212728504" cy="100" r="4" fill="blue" />
<circle cx="965.8086212728504" cy="100" r="4" fill="black" />
<text x="50" y="125" fill="gray" style="font-size:12px;">2024-05-18T18:52:11+00:00</text>
<text x="900" y="125" fill="gray" style="font-size:12px;">2025-02-18T07:16:23+00:00</text>
</svg>