<svg xmlns="http://www.w3.org/2000/svg" width="1000" height="200" style="background-color: white; font-family: sans-serif;">
<line x1="50" y1="100" x2="950" y2="100" stroke="gray" stroke-width="1"/>
<path d="M 62.0 100 Q 56.0 80, 50.0 100" stroke="black" fill="none" marker-end="url(#arrowhead)"/>
<path d="M 74.0 100 Q 62.0 80, 50.0 100" stroke="black" fill="none" marker-end="url(#arrowhead)"/>
<path d="M 74.0 100 Q 68.0 80, 62.0 100" stroke="black" fill="none" marker-end="url(#arrowhead)"/>
<path d="M 161.9361730153854 100 Q 105.9680865076927 80, 50.0 100" stroke="black" fill="none" marker-end="url(#arrowhead)"/>
<path d="M 161.9361730153854 100 Q 136.3466769861471 80, 110.75718095690875 100" stroke="black" fill="none" marker-end="url(#arrowhead)"/>
<path d="M 423.4042844405055 100 Q 236.70214222025274 80, 50.0 100" stroke="black" fill="none" marker-end="url(#arrowhead)"/>
<path d="M 423.4042844405055 100 Q 267.0807326987071 80, 110.75718095690875 100" stroke="black" fill="none" marker-end="url(#arrowhead)"/>
<path d="M 423.4042844405055 100 Q 292.6702287279454 80, 161.9361730153854 100" stroke="black" fill="none" marker-end="url(#arrowhead)"/>
<path d="M 935.490476746425 100 Q 924.2628945347074 80, 913.0353123229897 100" stroke="black" fill="none" marker-end="url(#arrowhead)"/>
<path d="M 950.0 100 Q 931.5176561614949 80, 913.0353123229897 100" stroke="black" fill="none" marker-end="url(#arrowhead)"/>
<path d="M 950.0 100 Q 942.7452383732125 80, 935.490476746425 100" stroke="black" fill="none" marker-end="url(#arrowhead)"/>

<defs>
  <marker id="arrowhead" markerWidth="5" markerHeight="5" 
          refX="2" refY="2" orient="auto" fill="black">
    <path d="M0,0 L0,4 L4,2 z" />
  </marker>
</defs>

<circle cx="50.0" cy="100" r="6" fill="none" stroke="blue" stroke-width="2" />
<circle cx="50.0" cy="100" r="3" fill="blue" />
<circle cx="62.0" cy="100" r="4" fill="red" />
<circle cx="74.0" cy="100" r="6" fill="none" stroke="green" stroke-width="2" />
<circle cx="74.0" cy="100" r="3" fill="green" />
<circle cx="110.75718095690875" cy="100" r="4" fill="red" />
<circle cx="161.9361730153854" cy="100" r="6" fill="none" stroke="blue" stroke-width="2" />
<circle cx="161.9361730153854" cy="100" r="3" fill="blue" />
<circle cx="423.4042844405055" cy="100" r="6" fill="none" stroke="blue" stroke-width="2" />
<circle cx="423.4042844405055" cy="100" r="3" fill="blue" />
<circle cx="913.0353123229897" cy="100" r="6" fill="none" stroke="black" stroke-width="2" />
<circle cx="913.0353123229897" cy="100" r="3" fill="black" />
<circle cx="935.490476746425" cy="100" r="4" fill="black" />
<circle cx="950.0" cy="100" r="6" fill="none" stroke="black" stroke-width="2" />
<circle cx="950.0" cy="100" r="3" fill="black" />
<text x="50" y="125" fill="gray" style="font-size:12px;">2024-12-24T04:44:38+00:00</text>
<text x="900" y="125" fill="gray" style="font-size:12px;">2025-02-11T15:59:55+00:00</text>
</svg>