<svg xmlns="http://www.w3.org/2000/svg" width="1000" height="400" style="background-color: white; font-family: sans-serif;">
<line x1="50" y1="200" x2="950" y2="200" stroke="gray" stroke-width="1"/>
<path d="M 62.0 200 Q 56.0 180, 50.0 200" stroke="black" fill="none" marker-end="url(#arrowhead)"/>
<path d="M 74.0 200 Q 62.0 180, 50.0 200" stroke="black" fill="none" marker-end="url(#arrowhead)"/>
<path d="M 74.0 200 Q 68.0 180, 62.0 200" stroke="black" fill="none" marker-end="url(#arrowhead)"/>
<path d="M 161.9361730153854 200 Q 105.9680865076927 180, 50.0 200" stroke="black" fill="none" marker-end="url(#arrowhead)"/>
<path d="M 161.9361730153854 200 Q 136.3466769861471 180, 110.75718095690875 200" stroke="black" fill="none" marker-end="url(#arrowhead)"/>
<path d="M 423.4042844405055 200 Q 236.70214222025274 180, 50.0 200" stroke="black" fill="none" marker-end="url(#arrowhead)"/>
<path d="M 423.4042844405055 200 Q 267.0807326987071 180, 110.75718095690875 200" stroke="black" fill="none" marker-end="url(#arrowhead)"/>
<path d="M 423.4042844405055 200 Q 292.6702287279454 180, 161.9361730153854 200" stroke="black" fill="none" marker-end="url(#arrowhead)"/>
<path d="M 935.490476746425 200 Q 924.2628945347074 180, 913.0353123229897 200" stroke="black" fill="none" marker-end="url(#arrowhead)"/>
<path d="M 950.0 200 Q 931.5176561614949 180, 913.0353123229897 200" stroke="black" fill="none" marker-end="url(#arrowhead)"/>
<path d="M 950.0 200 Q 942.7452383732125 180, 935.490476746425 200" stroke="black" fill="none" marker-end="url(#arrowhead)"/>

<defs>
  <marker id="arrowhead" markerWidth="5" markerHeight="5" 
          refX="2" refY="2" orient="auto" fill="black">
    <path d="M0,0 L0,4 L4,2 z" />
  </marker>
</defs>

<circle cx="50.0" cy="200" r="6" fill="none" stroke="blue" stroke-width="2" />
<circle cx="50.0" cy="200" r="3" fill="blue" />
<circle cx="62.0" cy="200" r="4" fill="red" />
<circle cx="74.0" cy="200" r="6" fill="none" stroke="green" stroke-width="2" />
<circle cx="74.0" cy="200" r="3" fill="green" />
<circle cx="110.75718095690875" cy="200" r="4" fill="red" />
<circle cx="161.9361730153854" cy="200" r="6" fill="none" stroke="blue" stroke-width="2" />
<circle cx="161.9361730153854" cy="200" r="3" fill="blue" />
<circle cx="423.4042844405055" cy="200" r="6" fill="none" stroke="blue" stroke-width="2" />
<circle cx="423.4042844405055" cy="200" r="3" fill="blue" />
<circle cx="913.0353123229897" cy="200" r="6" fill="none" stroke="black" stroke-width="2" />
<circle cx="913.0353123229897" cy="200" r="3" fill="black" />
<circle cx="935.490476746425" cy="200" r="4" fill="black" />
<circle cx="950.0" cy="200" r="6" fill="none" stroke="black" stroke-width="2" />
<circle cx="950.0" cy="200" r="3" fill="black" />
<text x="50" y="225" fill="gray" style="font-size:12px;">2024-12-24T04:44:38+00:00</text>
<text x="900" y="225" fill="gray" style="font-size:12px;">2025-02-11T15:59:55+00:00</text>
</svg>