<svg xmlns="http://www.w3.org/2000/svg" width="1000" height="400" style="background-color: white; font-family: sans-serif;">
<line x1="50" y1="200" x2="950" y2="200" stroke="gray" stroke-width="1"/>
<path d="M 62.0 200 Q 56.0 180, 50.0 200" stroke="black" fill="none" marker-end="url(#arrowhead)"/>
<path d="M 74.0 200 Q 62.0 180, 50.0 200" stroke="black" fill="none" marker-end="url(#arrowhead)"/>
<path d="M 86.0 200 Q 74.0 180, 62.0 200" stroke="black" fill="none" marker-end="url(#arrowhead)"/>
<path d="M 98.0 200 Q 86.0 180, 74.0 200" stroke="black" fill="none" marker-end="url(#arrowhead)"/>
<path d="M 110.0 200 Q 98.0 180, 86.0 200" stroke="black" fill="none" marker-end="url(#arrowhead)"/>
<path d="M 122.0 200 Q 110.0 180, 98.0 200" stroke="black" fill="none" marker-end="url(#arrowhead)"/>
<path d="M 134.0 200 Q 116.0 180, 98.0 200" stroke="black" fill="none" marker-end="url(#arrowhead)"/>
<path d="M 146.0 200 Q 128.0 180, 110.0 200" stroke="black" fill="none" marker-end="url(#arrowhead)"/>
<path d="M 158.0 200 Q 140.0 180, 122.0 200" stroke="black" fill="none" marker-end="url(#arrowhead)"/>
<path d="M 170.0 200 Q 140.0 180, 110.0 200" stroke="black" fill="none" marker-end="url(#arrowhead)"/>
<path d="M 170.0 200 Q 158.0 180, 146.0 200" stroke="black" fill="none" marker-end="url(#arrowhead)"/>
<path d="M 182.0 200 Q 176.0 180, 170.0 200" stroke="black" fill="none" marker-end="url(#arrowhead)"/>
<path d="M 194.0 200 Q 188.0 180, 182.0 200" stroke="black" fill="none" marker-end="url(#arrowhead)"/>
<path d="M 218.0 200 Q 212.0 180, 206.0 200" stroke="black" fill="none" marker-end="url(#arrowhead)"/>
<path d="M 230.0 200 Q 212.0 180, 194.0 200" stroke="black" fill="none" marker-end="url(#arrowhead)"/>
<path d="M 242.0 200 Q 230.0 180, 218.0 200" stroke="black" fill="none" marker-end="url(#arrowhead)"/>
<path d="M 254.0 200 Q 242.0 180, 230.0 200" stroke="black" fill="none" marker-end="url(#arrowhead)"/>
<path d="M 266.0 200 Q 260.0 180, 254.0 200" stroke="black" fill="none" marker-end="url(#arrowhead)"/>
<path d="M 278.0 200 Q 266.0 180, 254.0 200" stroke="black" fill="none" marker-end="url(#arrowhead)"/>
<path d="M 290.0 200 Q 278.0 180, 266.0 200" stroke="black" fill="none" marker-end="url(#arrowhead)"/>
<path d="M 302.0 200 Q 296.0 180, 290.0 200" stroke="black" fill="none" marker-end="url(#arrowhead)"/>
<path d="M 314.0 200 Q 308.0 180, 302.0 200" stroke="black" fill="none" marker-end="url(#arrowhead)"/>
<path d="M 326.0 200 Q 320.0 180, 314.0 200" stroke="black" fill="none" marker-end="url(#arrowhead)"/>
<path d="M 338.0 200 Q 332.0 180, 326.0 200" stroke="black" fill="none" marker-end="url(#arrowhead)"/>
<path d="M 350.0 200 Q 344.0 180, 338.0 200" stroke="black" fill="none" marker-end="url(#arrowhead)"/>
<path d="M 362.0 200 Q 356.0 180, 350.0 200" stroke="black" fill="none" marker-end="url(#arrowhead)"/>
<path d="M 374.0 200 Q 368.0 180, 362.0 200" stroke="black" fill="none" marker-end="url(#arrowhead)"/>
<path d="M 374.0 200 Q 362.0 180, 350.0 200" stroke="black" fill="none" marker-end="url(#arrowhead)"/>
<path d="M 386.0 200 Q 380.0 180, 374.0 200" stroke="black" fill="none" marker-end="url(#arrowhead)"/>
<path d="M 398.0 200 Q 380.0 180, 362.0 200" stroke="black" fill="none" marker-end="url(#arrowhead)"/>
<path d="M 410.0 200 Q 404.0 180, 398.0 200" stroke="black" fill="none" marker-end="url(#arrowhead)"/>
<path d="M 422.0 200 Q 416.0 180, 410.0 200" stroke="black" fill="none" marker-end="url(#arrowhead)"/>
<path d="M 434.0 200 Q 416.0 180, 398.0 200" stroke="black" fill="none" marker-end="url(#arrowhead)"/>
<path d="M 446.0 200 Q 440.0 180, 434.0 200" stroke="black" fill="none" marker-end="url(#arrowhead)"/>
<path d="M 458.0 200 Q 452.0 180, 446.0 200" stroke="black" fill="none" marker-end="url(#arrowhead)"/>
<path d="M 470.0 200 Q 464.0 180, 458.0 200" stroke="black" fill="none" marker-end="url(#arrowhead)"/>
<path d="M 482.0 200 Q 476.0 180, 470.0 200" stroke="black" fill="none" marker-end="url(#arrowhead)"/>
<path d="M 494.0 200 Q 488.0 180, 482.0 200" stroke="black" fill="none" marker-end="url(#arrowhead)"/>
<path d="M 506.0 200 Q 488.0 180, 470.0 200" stroke="black" fill="none" marker-end="url(#arrowhead)"/>
<path d="M 518.0 200 Q 512.0 180, 506.0 200" stroke="black" fill="none" marker-end="url(#arrowhead)"/>
<path d="M 530.0 200 Q 524.0 180, 518.0 200" stroke="black" fill="none" marker-end="url(#arrowhead)"/>
<path d="M 542.0 200 Q 536.0 180, 530.0 200" stroke="black" fill="none" marker-end="url(#arrowhead)"/>
<path d="M 750.982103813869 200 Q 646.4910519069344 180, 542.0 200" stroke="black" fill="none" marker-end="url(#arrowhead)"/>
<path d="M 828.9601484531872 200 Q 789.9711261335281 180, 750.982103813869 200" stroke="black" fill="none" marker-end="url(#arrowhead)"/>
<path d="M 950.0 200 Q 889.4800742265936 180, 828.9601484531872 200" stroke="black" fill="none" marker-end="url(#arrowhead)"/>

<defs>
  <marker id="arrowhead" markerWidth="5" markerHeight="5" 
          refX="2" refY="2" orient="auto" fill="black">
    <path d="M0,0 L0,4 L4,2 z" />
  </marker>
</defs>

<circle cx="50.0" cy="200" r="6" fill="none" stroke="blue" stroke-width="2" />
<circle cx="50.0" cy="200" r="3" fill="blue" />
<circle cx="62.0" cy="200" r="4" fill="black" />
<circle cx="74.0" cy="200" r="4" fill="red" />
<circle cx="86.0" cy="200" r="6" fill="none" stroke="black" stroke-width="2" />
<circle cx="86.0" cy="200" r="3" fill="black" />
<circle cx="98.0" cy="200" r="6" fill="none" stroke="black" stroke-width="2" />
<circle cx="98.0" cy="200" r="3" fill="black" />
<circle cx="110.0" cy="200" r="4" fill="black" />
<circle cx="122.0" cy="200" r="4" fill="red" />
<circle cx="134.0" cy="200" r="6" fill="none" stroke="black" stroke-width="2" />
<circle cx="134.0" cy="200" r="3" fill="black" />
<circle cx="146.0" cy="200" r="6" fill="none" stroke="black" stroke-width="2" />
<circle cx="146.0" cy="200" r="3" fill="black" />
<circle cx="158.0" cy="200" r="6" fill="none" stroke="black" stroke-width="2" />
<circle cx="158.0" cy="200" r="3" fill="black" />
<circle cx="170.0" cy="200" r="4" fill="black" />
<circle cx="182.0" cy="200" r="4" fill="black" />
<circle cx="194.0" cy="200" r="6" fill="none" stroke="black" stroke-width="2" />
<circle cx="194.0" cy="200" r="3" fill="black" />
<circle cx="206.0" cy="200" r="6" fill="none" stroke="black" stroke-width="2" />
<circle cx="206.0" cy="200" r="3" fill="black" />
<circle cx="218.0" cy="200" r="4" fill="black" />
<circle cx="230.0" cy="200" r="4" fill="black" />
<circle cx="242.0" cy="200" r="4" fill="black" />
<circle cx="254.0" cy="200" r="6" fill="none" stroke="black" stroke-width="2" />
<circle cx="254.0" cy="200" r="3" fill="black" />
<circle cx="266.0" cy="200" r="6" fill="none" stroke="black" stroke-width="2" />
<circle cx="266.0" cy="200" r="3" fill="black" />
<circle cx="278.0" cy="200" r="6" fill="none" stroke="blue" stroke-width="2" />
<circle cx="278.0" cy="200" r="3" fill="blue" />
<circle cx="290.0" cy="200" r="6" fill="none" stroke="blue" stroke-width="2" />
<circle cx="290.0" cy="200" r="3" fill="blue" />
<circle cx="302.0" cy="200" r="4" fill="red" />
<circle cx="314.0" cy="200" r="6" fill="none" stroke="blue" stroke-width="2" />
<circle cx="314.0" cy="200" r="3" fill="blue" />
<circle cx="326.0" cy="200" r="4" fill="red" />
<circle cx="338.0" cy="200" r="6" fill="none" stroke="black" stroke-width="2" />
<circle cx="338.0" cy="200" r="3" fill="black" />
<circle cx="350.0" cy="200" r="4" fill="red" />
<circle cx="362.0" cy="200" r="6" fill="none" stroke="blue" stroke-width="2" />
<circle cx="362.0" cy="200" r="3" fill="blue" />
<circle cx="374.0" cy="200" r="4" fill="red" />
<circle cx="386.0" cy="200" r="6" fill="none" stroke="black" stroke-width="2" />
<circle cx="386.0" cy="200" r="3" fill="black" />
<circle cx="398.0" cy="200" r="6" fill="none" stroke="blue" stroke-width="2" />
<circle cx="398.0" cy="200" r="3" fill="blue" />
<circle cx="410.0" cy="200" r="4" fill="red" />
<circle cx="422.0" cy="200" r="6" fill="none" stroke="blue" stroke-width="2" />
<circle cx="422.0" cy="200" r="3" fill="blue" />
<circle cx="434.0" cy="200" r="4" fill="blue" />
<circle cx="446.0" cy="200" r="6" fill="none" stroke="black" stroke-width="2" />
<circle cx="446.0" cy="200" r="3" fill="black" />
<circle cx="458.0" cy="200" r="4" fill="red" />
<circle cx="470.0" cy="200" r="6" fill="none" stroke="blue" stroke-width="2" />
<circle cx="470.0" cy="200" r="3" fill="blue" />
<circle cx="482.0" cy="200" r="4" fill="red" />
<circle cx="494.0" cy="200" r="4" fill="blue" />
<circle cx="506.0" cy="200" r="4" fill="red" />
<circle cx="518.0" cy="200" r="6" fill="none" stroke="blue" stroke-width="2" />
<circle cx="518.0" cy="200" r="3" fill="blue" />
<circle cx="530.0" cy="200" r="4" fill="black" />
<circle cx="542.0" cy="200" r="6" fill="none" stroke="blue" stroke-width="2" />
<circle cx="542.0" cy="200" r="3" fill="blue" />
<circle cx="750.982103813869" cy="200" r="6" fill="none" stroke="blue" stroke-width="2" />
<circle cx="750.982103813869" cy="200" r="3" fill="blue" />
<circle cx="828.9601484531872" cy="200" r="6" fill="none" stroke="blue" stroke-width="2" />
<circle cx="828.9601484531872" cy="200" r="3" fill="blue" />
<circle cx="950.0" cy="200" r="6" fill="none" stroke="blue" stroke-width="2" />
<circle cx="950.0" cy="200" r="3" fill="blue" />
<text x="50" y="225" fill="gray" style="font-size:12px;">2023-08-30T06:42:00+00:00</text>
<text x="900" y="225" fill="gray" style="font-size:12px;">2025-02-28T23:05:10+00:00</text>
</svg>