<svg xmlns="http://www.w3.org/2000/svg" width="1000" height="400" style="background-color: white; font-family: sans-serif;">
<line x1="50" y1="200" x2="950" y2="200" stroke="gray" stroke-width="1"/>
<path d="M 62.0 200 Q 56.0 180, 50.0 200" stroke="black" fill="none" marker-end="url(#arrowhead)"/>
<path d="M 74.0 200 Q 68.0 180, 62.0 200" stroke="black" fill="none" marker-end="url(#arrowhead)"/>
<path d="M 334.3291230552733 200 Q 204.16456152763666 180, 74.0 200" stroke="black" fill="none" marker-end="url(#arrowhead)"/>
<path d="M 574.9611340436297 200 Q 454.64512854945156 180, 334.3291230552733 200" stroke="black" fill="none" marker-end="url(#arrowhead)"/>
<path d="M 586.9611340436297 200 Q 580.9611340436297 180, 574.9611340436297 200" stroke="black" fill="none" marker-end="url(#arrowhead)"/>
<path d="M 598.9611340436297 200 Q 592.9611340436297 180, 586.9611340436297 200" stroke="black" fill="none" marker-end="url(#arrowhead)"/>
<path d="M 857.6360173103916 200 Q 728.2985756770106 180, 598.9611340436297 200" stroke="black" fill="none" marker-end="url(#arrowhead)"/>
<path d="M 935.4623424379544 200 Q 896.549179874173 180, 857.6360173103916 200" stroke="black" fill="none" marker-end="url(#arrowhead)"/>
<path d="M 950.0 200 Q 942.7311712189771 180, 935.4623424379544 200" stroke="black" fill="none" marker-end="url(#arrowhead)"/>

<defs>
  <marker id="arrowhead" markerWidth="5" markerHeight="5" 
          refX="2" refY="2" orient="auto" fill="black">
    <path d="M0,0 L0,4 L4,2 z" />
  </marker>
</defs>

<circle cx="50.0" cy="200" r="6" fill="none" stroke="black" stroke-width="2" />
<circle cx="50.0" cy="200" r="3" fill="black" />
<circle cx="62.0" cy="200" r="4" fill="black" />
<circle cx="74.0" cy="200" r="4" fill="black" />
<circle cx="334.3291230552733" cy="200" r="4" fill="black" />
<circle cx="574.9611340436297" cy="200" r="4" fill="black" />
<circle cx="586.9611340436297" cy="200" r="4" fill="black" />
<circle cx="598.9611340436297" cy="200" r="4" fill="black" />
<circle cx="857.6360173103916" cy="200" r="4" fill="blue" />
<circle cx="935.4623424379544" cy="200" r="4" fill="blue" />
<circle cx="950.0" cy="200" r="4" fill="blue" />
<text x="50" y="225" fill="gray" style="font-size:12px;">2023-03-02T13:00:01+00:00</text>
<text x="900" y="225" fill="gray" style="font-size:12px;">2025-01-23T02:13:49+00:00</text>
</svg>