<svg xmlns="http://www.w3.org/2000/svg" width="1000" height="400" style="background-color: white; font-family: sans-serif;">
<line x1="50" y1="200" x2="950" y2="200" stroke="gray" stroke-width="1"/>
<path d="M 62.0 200 Q 56.0 180, 50.0 200" stroke="black" fill="none" marker-end="url(#arrowhead)"/>
<path d="M 74.0 200 Q 68.0 180, 62.0 200" stroke="black" fill="none" marker-end="url(#arrowhead)"/>
<path d="M 86.0 200 Q 74.0 180, 62.0 200" stroke="black" fill="none" marker-end="url(#arrowhead)"/>
<path d="M 86.0 200 Q 80.0 180, 74.0 200" stroke="black" fill="none" marker-end="url(#arrowhead)"/>
<path d="M 98.0 200 Q 92.0 180, 86.0 200" stroke="black" fill="none" marker-end="url(#arrowhead)"/>
<path d="M 110.0 200 Q 104.0 180, 98.0 200" stroke="black" fill="none" marker-end="url(#arrowhead)"/>
<path d="M 122.0 200 Q 110.0 180, 98.0 200" stroke="black" fill="none" marker-end="url(#arrowhead)"/>
<path d="M 122.0 200 Q 104.0 180, 86.0 200" stroke="black" fill="none" marker-end="url(#arrowhead)"/>
<path d="M 134.0 200 Q 116.0 180, 98.0 200" stroke="black" fill="none" marker-end="url(#arrowhead)"/>
<path d="M 134.0 200 Q 110.0 180, 86.0 200" stroke="black" fill="none" marker-end="url(#arrowhead)"/>
<path d="M 146.0 200 Q 134.0 180, 122.0 200" stroke="black" fill="none" marker-end="url(#arrowhead)"/>
<path d="M 170.0 200 Q 164.0 180, 158.0 200" stroke="black" fill="none" marker-end="url(#arrowhead)"/>
<path d="M 182.0 200 Q 158.0 180, 134.0 200" stroke="black" fill="none" marker-end="url(#arrowhead)"/>
<path d="M 194.0 200 Q 182.0 180, 170.0 200" stroke="black" fill="none" marker-end="url(#arrowhead)"/>
<path d="M 206.0 200 Q 200.0 180, 194.0 200" stroke="black" fill="none" marker-end="url(#arrowhead)"/>
<path d="M 218.0 200 Q 212.0 180, 206.0 200" stroke="black" fill="none" marker-end="url(#arrowhead)"/>
<path d="M 230.0 200 Q 224.0 180, 218.0 200" stroke="black" fill="none" marker-end="url(#arrowhead)"/>
<path d="M 242.0 200 Q 236.0 180, 230.0 200" stroke="black" fill="none" marker-end="url(#arrowhead)"/>
<path d="M 254.0 200 Q 248.0 180, 242.0 200" stroke="black" fill="none" marker-end="url(#arrowhead)"/>
<path d="M 266.0 200 Q 260.0 180, 254.0 200" stroke="black" fill="none" marker-end="url(#arrowhead)"/>
<path d="M 278.0 200 Q 272.0 180, 266.0 200" stroke="black" fill="none" marker-end="url(#arrowhead)"/>
<path d="M 435.50949027465776 200 Q 428.28989381071415 180, 421.0702973467706 200" stroke="black" fill="none" marker-end="url(#arrowhead)"/>
<path d="M 459.9293916480458 200 Q 440.49984449740816 180, 421.0702973467706 200" stroke="black" fill="none" marker-end="url(#arrowhead)"/>
<path d="M 539.2942142012636 200 Q 499.6118029246547 180, 459.9293916480458 200" stroke="black" fill="none" marker-end="url(#arrowhead)"/>
<path d="M 539.2942142012636 200 Q 480.1822557740171 180, 421.0702973467706 200" stroke="black" fill="none" marker-end="url(#arrowhead)"/>
<path d="M 551.2942142012636 200 Q 505.6118029246547 180, 459.9293916480458 200" stroke="black" fill="none" marker-end="url(#arrowhead)"/>
<path d="M 551.2942142012636 200 Q 545.2942142012636 180, 539.2942142012636 200" stroke="black" fill="none" marker-end="url(#arrowhead)"/>
<path d="M 551.2942142012636 200 Q 486.1822557740171 180, 421.0702973467706 200" stroke="black" fill="none" marker-end="url(#arrowhead)"/>
<path d="M 669.4959478408222 200 Q 610.3950810210429 180, 551.2942142012636 200" stroke="black" fill="none" marker-end="url(#arrowhead)"/>
<path d="M 681.4959478408222 200 Q 675.4959478408222 180, 669.4959478408222 200" stroke="black" fill="none" marker-end="url(#arrowhead)"/>
<path d="M 693.4959478408222 200 Q 687.4959478408222 180, 681.4959478408222 200" stroke="black" fill="none" marker-end="url(#arrowhead)"/>
<path d="M 705.4959478408222 200 Q 699.4959478408222 180, 693.4959478408222 200" stroke="black" fill="none" marker-end="url(#arrowhead)"/>
<path d="M 717.4959478408222 200 Q 711.4959478408222 180, 705.4959478408222 200" stroke="black" fill="none" marker-end="url(#arrowhead)"/>
<path d="M 767.2336371561595 200 Q 736.3647924984908 180, 705.4959478408222 200" stroke="black" fill="none" marker-end="url(#arrowhead)"/>
<path d="M 797.1527197502236 200 Q 782.1931784531915 180, 767.2336371561595 200" stroke="black" fill="none" marker-end="url(#arrowhead)"/>
<path d="M 846.427642396988 200 Q 806.8306397765737 180, 767.2336371561595 200" stroke="black" fill="none" marker-end="url(#arrowhead)"/>
<path d="M 846.427642396988 200 Q 821.7901810736057 180, 797.1527197502236 200" stroke="black" fill="none" marker-end="url(#arrowhead)"/>
<path d="M 861.2471571667193 200 Q 853.8373997818536 180, 846.427642396988 200" stroke="black" fill="none" marker-end="url(#arrowhead)"/>
<path d="M 873.2471571667193 200 Q 867.2471571667193 180, 861.2471571667193 200" stroke="black" fill="none" marker-end="url(#arrowhead)"/>
<path d="M 885.2471571667193 200 Q 879.2471571667193 180, 873.2471571667193 200" stroke="black" fill="none" marker-end="url(#arrowhead)"/>
<path d="M 897.2471571667193 200 Q 891.2471571667193 180, 885.2471571667193 200" stroke="black" fill="none" marker-end="url(#arrowhead)"/>
<path d="M 909.2471571667193 200 Q 903.2471571667193 180, 897.2471571667193 200" stroke="black" fill="none" marker-end="url(#arrowhead)"/>
<path d="M 921.2471571667193 200 Q 915.2471571667193 180, 909.2471571667193 200" stroke="black" fill="none" marker-end="url(#arrowhead)"/>
<path d="M 933.2471571667193 200 Q 927.2471571667193 180, 921.2471571667193 200" stroke="black" fill="none" marker-end="url(#arrowhead)"/>
<path d="M 945.2471571667193 200 Q 939.2471571667193 180, 933.2471571667193 200" stroke="black" fill="none" marker-end="url(#arrowhead)"/>
<path d="M 957.2471571667193 200 Q 951.2471571667193 180, 945.2471571667193 200" stroke="black" fill="none" marker-end="url(#arrowhead)"/>
<path d="M 969.2471571667193 200 Q 945.2471571667193 180, 921.2471571667193 200" stroke="black" fill="none" marker-end="url(#arrowhead)"/>
<path d="M 981.2471571667193 200 Q 975.2471571667193 180, 969.2471571667193 200" stroke="black" fill="none" marker-end="url(#arrowhead)"/>

<defs>
  <marker id="arrowhead" markerWidth="5" markerHeight="5" 
          refX="2" refY="2" orient="auto" fill="black">
    <path d="M0,0 L0,4 L4,2 z" />
  </marker>
</defs>

<circle cx="50.0" cy="200" r="6" fill="none" stroke="black" stroke-width="2" />
<circle cx="50.0" cy="200" r="3" fill="black" />
<circle cx="62.0" cy="200" r="4" fill="black" />
<circle cx="74.0" cy="200" r="4" fill="black" />
<circle cx="86.0" cy="200" r="4" fill="black" />
<circle cx="98.0" cy="200" r="4" fill="black" />
<circle cx="110.0" cy="200" r="4" fill="black" />
<circle cx="122.0" cy="200" r="4" fill="black" />
<circle cx="134.0" cy="200" r="4" fill="black" />
<circle cx="146.0" cy="200" r="4" fill="black" />
<circle cx="158.0" cy="200" r="4" fill="black" />
<circle cx="170.0" cy="200" r="4" fill="black" />
<circle cx="182.0" cy="200" r="4" fill="black" />
<circle cx="194.0" cy="200" r="4" fill="black" />
<circle cx="206.0" cy="200" r="4" fill="black" />
<circle cx="218.0" cy="200" r="4" fill="blue" />
<circle cx="230.0" cy="200" r="4" fill="red" />
<circle cx="242.0" cy="200" r="4" fill="red" />
<circle cx="254.0" cy="200" r="4" fill="blue" />
<circle cx="266.0" cy="200" r="4" fill="red" />
<circle cx="278.0" cy="200" r="4" fill="black" />
<circle cx="421.0702973467706" cy="200" r="4" fill="blue" />
<circle cx="435.50949027465776" cy="200" r="4" fill="red" />
<circle cx="459.9293916480458" cy="200" r="4" fill="red" />
<circle cx="539.2942142012636" cy="200" r="4" fill="black" />
<circle cx="551.2942142012636" cy="200" r="4" fill="black" />
<circle cx="669.4959478408222" cy="200" r="4" fill="blue" />
<circle cx="681.4959478408222" cy="200" r="4" fill="red" />
<circle cx="693.4959478408222" cy="200" r="4" fill="red" />
<circle cx="705.4959478408222" cy="200" r="4" fill="blue" />
<circle cx="717.4959478408222" cy="200" r="4" fill="black" />
<circle cx="767.2336371561595" cy="200" r="4" fill="red" />
<circle cx="797.1527197502236" cy="200" r="4" fill="green" />
<circle cx="846.427642396988" cy="200" r="4" fill="blue" />
<circle cx="861.2471571667193" cy="200" r="4" fill="red" />
<circle cx="873.2471571667193" cy="200" r="4" fill="black" />
<circle cx="885.2471571667193" cy="200" r="4" fill="blue" />
<circle cx="897.2471571667193" cy="200" r="4" fill="blue" />
<circle cx="909.2471571667193" cy="200" r="4" fill="red" />
<circle cx="921.2471571667193" cy="200" r="4" fill="green" />
<circle cx="933.2471571667193" cy="200" r="4" fill="green" />
<circle cx="945.2471571667193" cy="200" r="4" fill="blue" />
<circle cx="957.2471571667193" cy="200" r="4" fill="black" />
<circle cx="969.2471571667193" cy="200" r="4" fill="black" />
<circle cx="981.2471571667193" cy="200" r="4" fill="green" />
<text x="50" y="225" fill="gray" style="font-size:12px;">2023-10-03T17:25:17+00:00</text>
<text x="900" y="225" fill="gray" style="font-size:12px;">2025-02-06T02:43:21+00:00</text>
</svg>