<svg xmlns="http://www.w3.org/2000/svg" width="1000" height="200" style="background-color: white; font-family: sans-serif;">
<line x1="50" y1="100" x2="950" y2="100" stroke="gray" stroke-width="1"/>
<path d="M 62.0 100 Q 56.0 80, 50.0 100" stroke="black" fill="none" marker-end="url(#arrowhead)"/>
<path d="M 74.0 100 Q 68.0 80, 62.0 100" stroke="black" fill="none" marker-end="url(#arrowhead)"/>
<path d="M 86.0 100 Q 74.0 80, 62.0 100" stroke="black" fill="none" marker-end="url(#arrowhead)"/>
<path d="M 86.0 100 Q 80.0 80, 74.0 100" stroke="black" fill="none" marker-end="url(#arrowhead)"/>
<path d="M 98.0 100 Q 92.0 80, 86.0 100" stroke="black" fill="none" marker-end="url(#arrowhead)"/>
<path d="M 110.0 100 Q 104.0 80, 98.0 100" stroke="black" fill="none" marker-end="url(#arrowhead)"/>
<path d="M 122.0 100 Q 110.0 80, 98.0 100" stroke="black" fill="none" marker-end="url(#arrowhead)"/>
<path d="M 122.0 100 Q 104.0 80, 86.0 100" stroke="black" fill="none" marker-end="url(#arrowhead)"/>
<path d="M 134.0 100 Q 116.0 80, 98.0 100" stroke="black" fill="none" marker-end="url(#arrowhead)"/>
<path d="M 134.0 100 Q 110.0 80, 86.0 100" stroke="black" fill="none" marker-end="url(#arrowhead)"/>
<path d="M 146.0 100 Q 134.0 80, 122.0 100" stroke="black" fill="none" marker-end="url(#arrowhead)"/>
<path d="M 170.0 100 Q 164.0 80, 158.0 100" stroke="black" fill="none" marker-end="url(#arrowhead)"/>
<path d="M 182.0 100 Q 158.0 80, 134.0 100" stroke="black" fill="none" marker-end="url(#arrowhead)"/>
<path d="M 194.0 100 Q 182.0 80, 170.0 100" stroke="black" fill="none" marker-end="url(#arrowhead)"/>
<path d="M 206.0 100 Q 200.0 80, 194.0 100" stroke="black" fill="none" marker-end="url(#arrowhead)"/>
<path d="M 218.0 100 Q 212.0 80, 206.0 100" stroke="black" fill="none" marker-end="url(#arrowhead)"/>
<path d="M 230.0 100 Q 224.0 80, 218.0 100" stroke="black" fill="none" marker-end="url(#arrowhead)"/>
<path d="M 242.0 100 Q 236.0 80, 230.0 100" stroke="black" fill="none" marker-end="url(#arrowhead)"/>
<path d="M 254.0 100 Q 248.0 80, 242.0 100" stroke="black" fill="none" marker-end="url(#arrowhead)"/>
<path d="M 266.0 100 Q 260.0 80, 254.0 100" stroke="black" fill="none" marker-end="url(#arrowhead)"/>
<path d="M 278.0 100 Q 272.0 80, 266.0 100" stroke="black" fill="none" marker-end="url(#arrowhead)"/>
<path d="M 435.50949027465776 100 Q 428.28989381071415 80, 421.0702973467706 100" stroke="black" fill="none" marker-end="url(#arrowhead)"/>
<path d="M 459.9293916480458 100 Q 440.49984449740816 80, 421.0702973467706 100" stroke="black" fill="none" marker-end="url(#arrowhead)"/>
<path d="M 539.2942142012636 100 Q 499.6118029246547 80, 459.9293916480458 100" stroke="black" fill="none" marker-end="url(#arrowhead)"/>
<path d="M 539.2942142012636 100 Q 480.1822557740171 80, 421.0702973467706 100" stroke="black" fill="none" marker-end="url(#arrowhead)"/>
<path d="M 551.2942142012636 100 Q 505.6118029246547 80, 459.9293916480458 100" stroke="black" fill="none" marker-end="url(#arrowhead)"/>
<path d="M 551.2942142012636 100 Q 545.2942142012636 80, 539.2942142012636 100" stroke="black" fill="none" marker-end="url(#arrowhead)"/>
<path d="M 551.2942142012636 100 Q 486.1822557740171 80, 421.0702973467706 100" stroke="black" fill="none" marker-end="url(#arrowhead)"/>
<path d="M 669.4959478408222 100 Q 610.3950810210429 80, 551.2942142012636 100" stroke="black" fill="none" marker-end="url(#arrowhead)"/>
<path d="M 681.4959478408222 100 Q 675.4959478408222 80, 669.4959478408222 100" stroke="black" fill="none" marker-end="url(#arrowhead)"/>
<path d="M 693.4959478408222 100 Q 687.4959478408222 80, 681.4959478408222 100" stroke="black" fill="none" marker-end="url(#arrowhead)"/>
<path d="M 705.4959478408222 100 Q 699.4959478408222 80, 693.4959478408222 100" stroke="black" fill="none" marker-end="url(#arrowhead)"/>
<path d="M 717.4959478408222 100 Q 711.4959478408222 80, 705.4959478408222 100" stroke="black" fill="none" marker-end="url(#arrowhead)"/>
<path d="M 767.2336371561595 100 Q 736.3647924984908 80, 705.4959478408222 100" stroke="black" fill="none" marker-end="url(#arrowhead)"/>
<path d="M 797.1527197502236 100 Q 782.1931784531915 80, 767.2336371561595 100" stroke="black" fill="none" marker-end="url(#arrowhead)"/>
<path d="M 846.427642396988 100 Q 806.8306397765737 80, 767.2336371561595 100" stroke="black" fill="none" marker-end="url(#arrowhead)"/>
<path d="M 846.427642396988 100 Q 821.7901810736057 80, 797.1527197502236 100" stroke="black" fill="none" marker-end="url(#arrowhead)"/>
<path d="M 861.2471571667193 100 Q 853.8373997818536 80, 846.427642396988 100" stroke="black" fill="none" marker-end="url(#arrowhead)"/>
<path d="M 873.2471571667193 100 Q 867.2471571667193 80, 861.2471571667193 100" stroke="black" fill="none" marker-end="url(#arrowhead)"/>
<path d="M 885.2471571667193 100 Q 879.2471571667193 80, 873.2471571667193 100" stroke="black" fill="none" marker-end="url(#arrowhead)"/>
<path d="M 897.2471571667193 100 Q 891.2471571667193 80, 885.2471571667193 100" stroke="black" fill="none" marker-end="url(#arrowhead)"/>
<path d="M 909.2471571667193 100 Q 903.2471571667193 80, 897.2471571667193 100" stroke="black" fill="none" marker-end="url(#arrowhead)"/>
<path d="M 921.2471571667193 100 Q 915.2471571667193 80, 909.2471571667193 100" stroke="black" fill="none" marker-end="url(#arrowhead)"/>
<path d="M 933.2471571667193 100 Q 927.2471571667193 80, 921.2471571667193 100" stroke="black" fill="none" marker-end="url(#arrowhead)"/>
<path d="M 945.2471571667193 100 Q 939.2471571667193 80, 933.2471571667193 100" stroke="black" fill="none" marker-end="url(#arrowhead)"/>
<path d="M 957.2471571667193 100 Q 951.2471571667193 80, 945.2471571667193 100" stroke="black" fill="none" marker-end="url(#arrowhead)"/>
<path d="M 969.2471571667193 100 Q 945.2471571667193 80, 921.2471571667193 100" stroke="black" fill="none" marker-end="url(#arrowhead)"/>
<path d="M 981.2471571667193 100 Q 975.2471571667193 80, 969.2471571667193 100" stroke="black" fill="none" marker-end="url(#arrowhead)"/>

<defs>
  <marker id="arrowhead" markerWidth="5" markerHeight="5" 
          refX="2" refY="2" orient="auto" fill="black">
    <path d="M0,0 L0,4 L4,2 z" />
  </marker>
</defs>

<circle cx="50.0" cy="100" r="6" fill="none" stroke="black" stroke-width="2" />
<circle cx="50.0" cy="100" r="3" fill="black" />
<circle cx="62.0" cy="100" r="4" fill="black" />
<circle cx="74.0" cy="100" r="4" fill="black" />
<circle cx="86.0" cy="100" r="4" fill="black" />
<circle cx="98.0" cy="100" r="4" fill="black" />
<circle cx="110.0" cy="100" r="4" fill="black" />
<circle cx="122.0" cy="100" r="4" fill="black" />
<circle cx="134.0" cy="100" r="4" fill="black" />
<circle cx="146.0" cy="100" r="4" fill="black" />
<circle cx="158.0" cy="100" r="4" fill="black" />
<circle cx="170.0" cy="100" r="4" fill="black" />
<circle cx="182.0" cy="100" r="4" fill="black" />
<circle cx="194.0" cy="100" r="4" fill="black" />
<circle cx="206.0" cy="100" r="4" fill="black" />
<circle cx="218.0" cy="100" r="4" fill="blue" />
<circle cx="230.0" cy="100" r="4" fill="red" />
<circle cx="242.0" cy="100" r="4" fill="red" />
<circle cx="254.0" cy="100" r="4" fill="blue" />
<circle cx="266.0" cy="100" r="4" fill="red" />
<circle cx="278.0" cy="100" r="4" fill="black" />
<circle cx="421.0702973467706" cy="100" r="4" fill="blue" />
<circle cx="435.50949027465776" cy="100" r="4" fill="red" />
<circle cx="459.9293916480458" cy="100" r="4" fill="red" />
<circle cx="539.2942142012636" cy="100" r="4" fill="black" />
<circle cx="551.2942142012636" cy="100" r="4" fill="black" />
<circle cx="669.4959478408222" cy="100" r="4" fill="blue" />
<circle cx="681.4959478408222" cy="100" r="4" fill="red" />
<circle cx="693.4959478408222" cy="100" r="4" fill="red" />
<circle cx="705.4959478408222" cy="100" r="4" fill="blue" />
<circle cx="717.4959478408222" cy="100" r="4" fill="black" />
<circle cx="767.2336371561595" cy="100" r="4" fill="red" />
<circle cx="797.1527197502236" cy="100" r="4" fill="green" />
<circle cx="846.427642396988" cy="100" r="4" fill="blue" />
<circle cx="861.2471571667193" cy="100" r="4" fill="red" />
<circle cx="873.2471571667193" cy="100" r="4" fill="black" />
<circle cx="885.2471571667193" cy="100" r="4" fill="blue" />
<circle cx="897.2471571667193" cy="100" r="4" fill="blue" />
<circle cx="909.2471571667193" cy="100" r="4" fill="red" />
<circle cx="921.2471571667193" cy="100" r="4" fill="green" />
<circle cx="933.2471571667193" cy="100" r="4" fill="green" />
<circle cx="945.2471571667193" cy="100" r="4" fill="blue" />
<circle cx="957.2471571667193" cy="100" r="4" fill="black" />
<circle cx="969.2471571667193" cy="100" r="4" fill="black" />
<circle cx="981.2471571667193" cy="100" r="4" fill="green" />
<text x="50" y="125" fill="gray" style="font-size:12px;">2023-10-03T17:25:17+00:00</text>
<text x="900" y="125" fill="gray" style="font-size:12px;">2025-02-06T02:43:21+00:00</text>
</svg>