<svg xmlns="http://www.w3.org/2000/svg" width="1000" height="200" style="background-color: white; font-family: sans-serif;">
<line x1="50" y1="100" x2="950" y2="100" stroke="gray" stroke-width="1"/>
<path d="M 114.66323069163967 100 Q 82.33161534581984 80, 50.0 100" stroke="black" fill="none" marker-end="url(#arrowhead)"/>
<path d="M 144.1175048188859 100 Q 129.3903677552628 80, 114.66323069163967 100" stroke="black" fill="none" marker-end="url(#arrowhead)"/>
<path d="M 156.1175048188859 100 Q 150.1175048188859 80, 144.1175048188859 100" stroke="black" fill="none" marker-end="url(#arrowhead)"/>
<path d="M 168.1175048188859 100 Q 162.1175048188859 80, 156.1175048188859 100" stroke="black" fill="none" marker-end="url(#arrowhead)"/>
<path d="M 192.77581644708206 100 Q 186.446660632984 80, 180.1175048188859 100" stroke="black" fill="none" marker-end="url(#arrowhead)"/>
<path d="M 217.75319013700144 100 Q 205.26450329204175 80, 192.77581644708206 100" stroke="black" fill="none" marker-end="url(#arrowhead)"/>
<path d="M 274.665786946519 100 Q 233.72080169680055 80, 192.77581644708206 100" stroke="black" fill="none" marker-end="url(#arrowhead)"/>
<path d="M 386.1810242982389 100 Q 330.42340562237894 80, 274.665786946519 100" stroke="black" fill="none" marker-end="url(#arrowhead)"/>
<path d="M 398.1810242982389 100 Q 392.1810242982389 80, 386.1810242982389 100" stroke="black" fill="none" marker-end="url(#arrowhead)"/>
<path d="M 398.1810242982389 100 Q 277.14926455856244 80, 156.1175048188859 100" stroke="black" fill="none" marker-end="url(#arrowhead)"/>
<path d="M 447.61715592463884 100 Q 437.7741928797939 80, 427.93122983494885 100" stroke="black" fill="none" marker-end="url(#arrowhead)"/>
<path d="M 542.9440456533304 100 Q 495.2806007889846 80, 447.61715592463884 100" stroke="black" fill="none" marker-end="url(#arrowhead)"/>
<path d="M 554.9440456533304 100 Q 548.9440456533304 80, 542.9440456533304 100" stroke="black" fill="none" marker-end="url(#arrowhead)"/>
<path d="M 710.9646062331166 100 Q 626.9543259432235 80, 542.9440456533304 100" stroke="black" fill="none" marker-end="url(#arrowhead)"/>
<path d="M 950.0 100 Q 553.058752409443 80, 156.1175048188859 100" stroke="black" fill="none" marker-end="url(#arrowhead)"/>
<path d="M 950.0 100 Q 830.4823031165583 80, 710.9646062331166 100" stroke="black" fill="none" marker-end="url(#arrowhead)"/>

<defs>
  <marker id="arrowhead" markerWidth="5" markerHeight="5" 
          refX="2" refY="2" orient="auto" fill="black">
    <path d="M0,0 L0,4 L4,2 z" />
  </marker>
</defs>

<circle cx="50.0" cy="100" r="6" fill="none" stroke="black" stroke-width="2" />
<circle cx="50.0" cy="100" r="3" fill="black" />
<circle cx="114.66323069163967" cy="100" r="4" fill="red" />
<circle cx="144.1175048188859" cy="100" r="4" fill="black" />
<circle cx="156.1175048188859" cy="100" r="4" fill="blue" />
<circle cx="168.1175048188859" cy="100" r="4" fill="black" />
<circle cx="180.1175048188859" cy="100" r="4" fill="red" />
<circle cx="192.77581644708206" cy="100" r="4" fill="blue" />
<circle cx="217.75319013700144" cy="100" r="4" fill="red" />
<circle cx="274.665786946519" cy="100" r="4" fill="black" />
<circle cx="386.1810242982389" cy="100" r="4" fill="black" />
<circle cx="398.1810242982389" cy="100" r="4" fill="black" />
<circle cx="427.93122983494885" cy="100" r="4" fill="blue" />
<circle cx="447.61715592463884" cy="100" r="4" fill="black" />
<circle cx="542.9440456533304" cy="100" r="4" fill="black" />
<circle cx="554.9440456533304" cy="100" r="4" fill="black" />
<circle cx="710.9646062331166" cy="100" r="4" fill="black" />
<circle cx="950.0" cy="100" r="4" fill="green" />
<text x="50" y="125" fill="gray" style="font-size:12px;">2025-02-17T10:52:32+00:00</text>
<text x="900" y="125" fill="gray" style="font-size:12px;">2025-02-20T19:17:18+00:00</text>
</svg>