<svg xmlns="http://www.w3.org/2000/svg" width="1000" height="400" style="background-color: white; font-family: sans-serif;">
<line x1="50" y1="200" x2="950" y2="200" stroke="gray" stroke-width="1"/>
<path d="M 114.66323069163967 200 Q 82.33161534581984 180, 50.0 200" stroke="black" fill="none" marker-end="url(#arrowhead)"/>
<path d="M 144.1175048188859 200 Q 129.3903677552628 180, 114.66323069163967 200" stroke="black" fill="none" marker-end="url(#arrowhead)"/>
<path d="M 156.1175048188859 200 Q 150.1175048188859 180, 144.1175048188859 200" stroke="black" fill="none" marker-end="url(#arrowhead)"/>
<path d="M 168.1175048188859 200 Q 162.1175048188859 180, 156.1175048188859 200" stroke="black" fill="none" marker-end="url(#arrowhead)"/>
<path d="M 192.77581644708206 200 Q 186.446660632984 180, 180.1175048188859 200" stroke="black" fill="none" marker-end="url(#arrowhead)"/>
<path d="M 217.75319013700144 200 Q 205.26450329204175 180, 192.77581644708206 200" stroke="black" fill="none" marker-end="url(#arrowhead)"/>
<path d="M 274.665786946519 200 Q 233.72080169680055 180, 192.77581644708206 200" stroke="black" fill="none" marker-end="url(#arrowhead)"/>
<path d="M 386.1810242982389 200 Q 330.42340562237894 180, 274.665786946519 200" stroke="black" fill="none" marker-end="url(#arrowhead)"/>
<path d="M 398.1810242982389 200 Q 392.1810242982389 180, 386.1810242982389 200" stroke="black" fill="none" marker-end="url(#arrowhead)"/>
<path d="M 398.1810242982389 200 Q 277.14926455856244 180, 156.1175048188859 200" stroke="black" fill="none" marker-end="url(#arrowhead)"/>
<path d="M 447.61715592463884 200 Q 437.7741928797939 180, 427.93122983494885 200" stroke="black" fill="none" marker-end="url(#arrowhead)"/>
<path d="M 542.9440456533304 200 Q 495.2806007889846 180, 447.61715592463884 200" stroke="black" fill="none" marker-end="url(#arrowhead)"/>
<path d="M 554.9440456533304 200 Q 548.9440456533304 180, 542.9440456533304 200" stroke="black" fill="none" marker-end="url(#arrowhead)"/>
<path d="M 710.9646062331166 200 Q 626.9543259432235 180, 542.9440456533304 200" stroke="black" fill="none" marker-end="url(#arrowhead)"/>
<path d="M 950.0 200 Q 553.058752409443 180, 156.1175048188859 200" stroke="black" fill="none" marker-end="url(#arrowhead)"/>
<path d="M 950.0 200 Q 830.4823031165583 180, 710.9646062331166 200" stroke="black" fill="none" marker-end="url(#arrowhead)"/>

<defs>
  <marker id="arrowhead" markerWidth="5" markerHeight="5" 
          refX="2" refY="2" orient="auto" fill="black">
    <path d="M0,0 L0,4 L4,2 z" />
  </marker>
</defs>

<circle cx="50.0" cy="200" r="6" fill="none" stroke="black" stroke-width="2" />
<circle cx="50.0" cy="200" r="3" fill="black" />
<circle cx="114.66323069163967" cy="200" r="4" fill="red" />
<circle cx="144.1175048188859" cy="200" r="4" fill="black" />
<circle cx="156.1175048188859" cy="200" r="4" fill="blue" />
<circle cx="168.1175048188859" cy="200" r="4" fill="black" />
<circle cx="180.1175048188859" cy="200" r="4" fill="red" />
<circle cx="192.77581644708206" cy="200" r="4" fill="blue" />
<circle cx="217.75319013700144" cy="200" r="4" fill="red" />
<circle cx="274.665786946519" cy="200" r="4" fill="black" />
<circle cx="386.1810242982389" cy="200" r="4" fill="black" />
<circle cx="398.1810242982389" cy="200" r="4" fill="black" />
<circle cx="427.93122983494885" cy="200" r="4" fill="blue" />
<circle cx="447.61715592463884" cy="200" r="4" fill="black" />
<circle cx="542.9440456533304" cy="200" r="4" fill="black" />
<circle cx="554.9440456533304" cy="200" r="4" fill="black" />
<circle cx="710.9646062331166" cy="200" r="4" fill="black" />
<circle cx="950.0" cy="200" r="4" fill="green" />
<text x="50" y="225" fill="gray" style="font-size:12px;">2025-02-17T10:52:32+00:00</text>
<text x="900" y="225" fill="gray" style="font-size:12px;">2025-02-20T19:17:18+00:00</text>
</svg>