<svg xmlns="http://www.w3.org/2000/svg" width="1000" height="200" style="background-color: white; font-family: sans-serif;">
<line x1="50" y1="100" x2="950" y2="100" stroke="gray" stroke-width="1"/>
<path d="M 95.03769606285566 100 Q 72.51884803142784 80, 50.0 100" stroke="black" fill="none" marker-end="url(#arrowhead)"/>
<path d="M 443.58329241168144 100 Q 269.31049423726853 80, 95.03769606285566 100" stroke="black" fill="none" marker-end="url(#arrowhead)"/>
<path d="M 535.7124700309079 100 Q 292.85623501545393 80, 50.0 100" stroke="black" fill="none" marker-end="url(#arrowhead)"/>
<path d="M 535.7124700309079 100 Q 315.37508304688174 80, 95.03769606285566 100" stroke="black" fill="none" marker-end="url(#arrowhead)"/>
<path d="M 535.7124700309079 100 Q 489.64788122129465 80, 443.58329241168144 100" stroke="black" fill="none" marker-end="url(#arrowhead)"/>
<path d="M 950.0 100 Q 742.8562350154539 80, 535.7124700309079 100" stroke="black" fill="none" marker-end="url(#arrowhead)"/>
<path d="M 950.0 100 Q 795.1809699875791 80, 640.3619399751582 100" stroke="black" fill="none" marker-end="url(#arrowhead)"/>

<defs>
  <marker id="arrowhead" markerWidth="5" markerHeight="5" 
          refX="2" refY="2" orient="auto" fill="black">
    <path d="M0,0 L0,4 L4,2 z" />
  </marker>
</defs>

<circle cx="50.0" cy="100" r="6" fill="none" stroke="blue" stroke-width="2" />
<circle cx="50.0" cy="100" r="3" fill="blue" />
<circle cx="95.03769606285566" cy="100" r="4" fill="red" />
<circle cx="443.58329241168144" cy="100" r="6" fill="none" stroke="black" stroke-width="2" />
<circle cx="443.58329241168144" cy="100" r="3" fill="black" />
<circle cx="535.7124700309079" cy="100" r="4" fill="black" />
<circle cx="640.3619399751582" cy="100" r="4" fill="black" />
<circle cx="950.0" cy="100" r="6" fill="none" stroke="black" stroke-width="2" />
<circle cx="950.0" cy="100" r="3" fill="black" />
<text x="50" y="125" fill="gray" style="font-size:12px;">2025-01-20T13:49:45+00:00</text>
<text x="900" y="125" fill="gray" style="font-size:12px;">2025-01-22T13:54:40+00:00</text>
</svg>