<svg xmlns="http://www.w3.org/2000/svg" width="1000" height="200" style="background-color: white; font-family: sans-serif;">
<line x1="50" y1="100" x2="950" y2="100" stroke="gray" stroke-width="1"/>
<path d="M 93.71634153334045 100 Q 71.85817076667023 80, 50.0 100" stroke="black" fill="none" marker-end="url(#arrowhead)"/>
<path d="M 283.9160840404038 100 Q 166.9580420202019 80, 50.0 100" stroke="black" fill="none" marker-end="url(#arrowhead)"/>
<path d="M 295.9160840404038 100 Q 194.81621278687214 80, 93.71634153334045 100" stroke="black" fill="none" marker-end="url(#arrowhead)"/>
<path d="M 685.8502558751612 100 Q 484.8831699577825 80, 283.9160840404038 100" stroke="black" fill="none" marker-end="url(#arrowhead)"/>
<path d="M 697.8502558751612 100 Q 691.8502558751612 80, 685.8502558751612 100" stroke="black" fill="none" marker-end="url(#arrowhead)"/>
<path d="M 709.8502558751612 100 Q 697.8502558751612 80, 685.8502558751612 100" stroke="black" fill="none" marker-end="url(#arrowhead)"/>
<path d="M 709.8502558751612 100 Q 703.8502558751612 80, 697.8502558751612 100" stroke="black" fill="none" marker-end="url(#arrowhead)"/>
<path d="M 709.8502558751612 100 Q 496.8831699577825 80, 283.9160840404038 100" stroke="black" fill="none" marker-end="url(#arrowhead)"/>
<path d="M 721.8502558751612 100 Q 715.8502558751612 80, 709.8502558751612 100" stroke="black" fill="none" marker-end="url(#arrowhead)"/>
<path d="M 733.8502558751612 100 Q 721.8502558751612 80, 709.8502558751612 100" stroke="black" fill="none" marker-end="url(#arrowhead)"/>
<path d="M 733.8502558751612 100 Q 727.8502558751612 80, 721.8502558751612 100" stroke="black" fill="none" marker-end="url(#arrowhead)"/>
<path d="M 941.8349636913152 100 Q 934.2422287230847 80, 926.6494937548541 100" stroke="black" fill="none" marker-end="url(#arrowhead)"/>
<path d="M 953.8349636913152 100 Q 940.2422287230847 80, 926.6494937548541 100" stroke="black" fill="none" marker-end="url(#arrowhead)"/>
<path d="M 953.8349636913152 100 Q 947.8349636913152 80, 941.8349636913152 100" stroke="black" fill="none" marker-end="url(#arrowhead)"/>

<defs>
  <marker id="arrowhead" markerWidth="5" markerHeight="5" 
          refX="2" refY="2" orient="auto" fill="black">
    <path d="M0,0 L0,4 L4,2 z" />
  </marker>
</defs>

<circle cx="50.0" cy="100" r="6" fill="none" stroke="blue" stroke-width="2" />
<circle cx="50.0" cy="100" r="3" fill="blue" />
<circle cx="93.71634153334045" cy="100" r="4" fill="red" />
<circle cx="283.9160840404038" cy="100" r="4" fill="red" />
<circle cx="295.9160840404038" cy="100" r="4" fill="black" />
<circle cx="685.8502558751612" cy="100" r="6" fill="none" stroke="blue" stroke-width="2" />
<circle cx="685.8502558751612" cy="100" r="3" fill="blue" />
<circle cx="697.8502558751612" cy="100" r="4" fill="blue" />
<circle cx="709.8502558751612" cy="100" r="6" fill="none" stroke="blue" stroke-width="2" />
<circle cx="709.8502558751612" cy="100" r="3" fill="blue" />
<circle cx="721.8502558751612" cy="100" r="4" fill="black" />
<circle cx="733.8502558751612" cy="100" r="6" fill="none" stroke="black" stroke-width="2" />
<circle cx="733.8502558751612" cy="100" r="3" fill="black" />
<circle cx="926.6494937548541" cy="100" r="6" fill="none" stroke="blue" stroke-width="2" />
<circle cx="926.6494937548541" cy="100" r="3" fill="blue" />
<circle cx="941.8349636913152" cy="100" r="4" fill="red" />
<circle cx="953.8349636913152" cy="100" r="6" fill="none" stroke="blue" stroke-width="2" />
<circle cx="953.8349636913152" cy="100" r="3" fill="blue" />
<text x="50" y="125" fill="gray" style="font-size:12px;">2024-05-10T14:22:45+00:00</text>
<text x="900" y="125" fill="gray" style="font-size:12px;">2025-02-27T13:38:24+00:00</text>
</svg>