<svg xmlns="http://www.w3.org/2000/svg" width="1000" height="400" style="background-color: white; font-family: sans-serif;">
<line x1="50" y1="200" x2="950" y2="200" stroke="gray" stroke-width="1"/>
<path d="M 80.34385771676116 200 Q 65.17192885838058 180, 50.0 200" stroke="black" fill="none" marker-end="url(#arrowhead)"/>
<path d="M 92.34385771676116 200 Q 71.17192885838058 180, 50.0 200" stroke="black" fill="none" marker-end="url(#arrowhead)"/>
<path d="M 92.34385771676116 200 Q 86.34385771676116 180, 80.34385771676116 200" stroke="black" fill="none" marker-end="url(#arrowhead)"/>
<path d="M 104.34385771676116 200 Q 92.34385771676116 180, 80.34385771676116 200" stroke="black" fill="none" marker-end="url(#arrowhead)"/>
<path d="M 104.34385771676116 200 Q 98.34385771676116 180, 92.34385771676116 200" stroke="black" fill="none" marker-end="url(#arrowhead)"/>
<path d="M 116.34385771676116 200 Q 83.17192885838058 180, 50.0 200" stroke="black" fill="none" marker-end="url(#arrowhead)"/>
<path d="M 128.34385771676116 200 Q 122.34385771676116 180, 116.34385771676116 200" stroke="black" fill="none" marker-end="url(#arrowhead)"/>
<path d="M 128.34385771676116 200 Q 89.17192885838058 180, 50.0 200" stroke="black" fill="none" marker-end="url(#arrowhead)"/>
<path d="M 140.34385771676116 200 Q 122.34385771676116 180, 104.34385771676116 200" stroke="black" fill="none" marker-end="url(#arrowhead)"/>
<path d="M 140.34385771676116 200 Q 110.34385771676116 180, 80.34385771676116 200" stroke="black" fill="none" marker-end="url(#arrowhead)"/>
<path d="M 140.34385771676116 200 Q 116.34385771676116 180, 92.34385771676116 200" stroke="black" fill="none" marker-end="url(#arrowhead)"/>
<path d="M 152.34385771676116 200 Q 128.34385771676116 180, 104.34385771676116 200" stroke="black" fill="none" marker-end="url(#arrowhead)"/>
<path d="M 152.34385771676116 200 Q 146.34385771676116 180, 140.34385771676116 200" stroke="black" fill="none" marker-end="url(#arrowhead)"/>
<path d="M 164.34385771676116 200 Q 152.34385771676116 180, 140.34385771676116 200" stroke="black" fill="none" marker-end="url(#arrowhead)"/>
<path d="M 176.34385771676116 200 Q 158.34385771676116 180, 140.34385771676116 200" stroke="black" fill="none" marker-end="url(#arrowhead)"/>
<path d="M 176.34385771676116 200 Q 170.34385771676116 180, 164.34385771676116 200" stroke="black" fill="none" marker-end="url(#arrowhead)"/>
<path d="M 188.34385771676116 200 Q 164.34385771676116 180, 140.34385771676116 200" stroke="black" fill="none" marker-end="url(#arrowhead)"/>
<path d="M 200.34385771676116 200 Q 176.34385771676116 180, 152.34385771676116 200" stroke="black" fill="none" marker-end="url(#arrowhead)"/>
<path d="M 212.34385771676116 200 Q 206.34385771676116 180, 200.34385771676116 200" stroke="black" fill="none" marker-end="url(#arrowhead)"/>
<path d="M 212.34385771676116 200 Q 182.34385771676116 180, 152.34385771676116 200" stroke="black" fill="none" marker-end="url(#arrowhead)"/>
<path d="M 224.92046477093362 200 Q 182.6321612438474 180, 140.34385771676116 200" stroke="black" fill="none" marker-end="url(#arrowhead)"/>
<path d="M 459.8486003274835 200 Q 336.0962290221223 180, 212.34385771676116 200" stroke="black" fill="none" marker-end="url(#arrowhead)"/>
<path d="M 471.8486003274835 200 Q 465.8486003274835 180, 459.8486003274835 200" stroke="black" fill="none" marker-end="url(#arrowhead)"/>
<path d="M 471.8486003274835 200 Q 342.0962290221223 180, 212.34385771676116 200" stroke="black" fill="none" marker-end="url(#arrowhead)"/>
<path d="M 483.8486003274835 200 Q 477.8486003274835 180, 471.8486003274835 200" stroke="black" fill="none" marker-end="url(#arrowhead)"/>
<path d="M 495.8486003274835 200 Q 483.8486003274835 180, 471.8486003274835 200" stroke="black" fill="none" marker-end="url(#arrowhead)"/>
<path d="M 495.8486003274835 200 Q 489.8486003274835 180, 483.8486003274835 200" stroke="black" fill="none" marker-end="url(#arrowhead)"/>
<path d="M 507.8486003274835 200 Q 501.8486003274835 180, 495.8486003274835 200" stroke="black" fill="none" marker-end="url(#arrowhead)"/>
<path d="M 519.8486003274835 200 Q 312.0962290221223 180, 104.34385771676116 200" stroke="black" fill="none" marker-end="url(#arrowhead)"/>
<path d="M 519.8486003274835 200 Q 507.8486003274835 180, 495.8486003274835 200" stroke="black" fill="none" marker-end="url(#arrowhead)"/>
<path d="M 519.8486003274835 200 Q 513.8486003274835 180, 507.8486003274835 200" stroke="black" fill="none" marker-end="url(#arrowhead)"/>
<path d="M 748.5105891261696 200 Q 474.4272234214654 180, 200.34385771676116 200" stroke="black" fill="none" marker-end="url(#arrowhead)"/>
<path d="M 748.5105891261696 200 Q 450.4272234214654 180, 152.34385771676116 200" stroke="black" fill="none" marker-end="url(#arrowhead)"/>
<path d="M 780.0670210307372 200 Q 764.2888050784534 180, 748.5105891261696 200" stroke="black" fill="none" marker-end="url(#arrowhead)"/>
<path d="M 792.0670210307372 200 Q 770.2888050784534 180, 748.5105891261696 200" stroke="black" fill="none" marker-end="url(#arrowhead)"/>
<path d="M 792.0670210307372 200 Q 786.0670210307372 180, 780.0670210307372 200" stroke="black" fill="none" marker-end="url(#arrowhead)"/>
<path d="M 855.0253480127257 200 Q 663.4369741701046 180, 471.8486003274835 200" stroke="black" fill="none" marker-end="url(#arrowhead)"/>
<path d="M 918.0939572894591 200 Q 855.0804891600982 180, 792.0670210307372 200" stroke="black" fill="none" marker-end="url(#arrowhead)"/>
<path d="M 948.6546622149885 200 Q 710.251631271236 180, 471.8486003274835 200" stroke="black" fill="none" marker-end="url(#arrowhead)"/>
<path d="M 948.6546622149885 200 Q 901.8400051138572 180, 855.0253480127257 200" stroke="black" fill="none" marker-end="url(#arrowhead)"/>
<path d="M 960.6546622149885 200 Q 870.3608416228628 180, 780.0670210307372 200" stroke="black" fill="none" marker-end="url(#arrowhead)"/>
<path d="M 960.6546622149885 200 Q 876.3608416228628 180, 792.0670210307372 200" stroke="black" fill="none" marker-end="url(#arrowhead)"/>
<path d="M 960.6546622149885 200 Q 939.3743097522238 180, 918.0939572894591 200" stroke="black" fill="none" marker-end="url(#arrowhead)"/>

<defs>
  <marker id="arrowhead" markerWidth="5" markerHeight="5" 
          refX="2" refY="2" orient="auto" fill="black">
    <path d="M0,0 L0,4 L4,2 z" />
  </marker>
</defs>

<circle cx="50.0" cy="200" r="6" fill="none" stroke="blue" stroke-width="2" />
<circle cx="50.0" cy="200" r="3" fill="blue" />
<circle cx="80.34385771676116" cy="200" r="4" fill="black" />
<circle cx="92.34385771676116" cy="200" r="6" fill="none" stroke="black" stroke-width="2" />
<circle cx="92.34385771676116" cy="200" r="3" fill="black" />
<circle cx="104.34385771676116" cy="200" r="4" fill="red" />
<circle cx="116.34385771676116" cy="200" r="4" fill="black" />
<circle cx="128.34385771676116" cy="200" r="6" fill="none" stroke="black" stroke-width="2" />
<circle cx="128.34385771676116" cy="200" r="3" fill="black" />
<circle cx="140.34385771676116" cy="200" r="6" fill="none" stroke="black" stroke-width="2" />
<circle cx="140.34385771676116" cy="200" r="3" fill="black" />
<circle cx="152.34385771676116" cy="200" r="4" fill="black" />
<circle cx="164.34385771676116" cy="200" r="4" fill="black" />
<circle cx="176.34385771676116" cy="200" r="4" fill="black" />
<circle cx="188.34385771676116" cy="200" r="4" fill="black" />
<circle cx="200.34385771676116" cy="200" r="4" fill="black" />
<circle cx="212.34385771676116" cy="200" r="6" fill="none" stroke="black" stroke-width="2" />
<circle cx="212.34385771676116" cy="200" r="3" fill="black" />
<circle cx="224.92046477093362" cy="200" r="4" fill="black" />
<circle cx="459.8486003274835" cy="200" r="4" fill="red" />
<circle cx="471.8486003274835" cy="200" r="6" fill="none" stroke="black" stroke-width="2" />
<circle cx="471.8486003274835" cy="200" r="3" fill="black" />
<circle cx="483.8486003274835" cy="200" r="4" fill="black" />
<circle cx="495.8486003274835" cy="200" r="6" fill="none" stroke="black" stroke-width="2" />
<circle cx="495.8486003274835" cy="200" r="3" fill="black" />
<circle cx="507.8486003274835" cy="200" r="4" fill="black" />
<circle cx="519.8486003274835" cy="200" r="6" fill="none" stroke="black" stroke-width="2" />
<circle cx="519.8486003274835" cy="200" r="3" fill="black" />
<circle cx="748.5105891261696" cy="200" r="6" fill="none" stroke="black" stroke-width="2" />
<circle cx="748.5105891261696" cy="200" r="3" fill="black" />
<circle cx="780.0670210307372" cy="200" r="4" fill="red" />
<circle cx="792.0670210307372" cy="200" r="6" fill="none" stroke="black" stroke-width="2" />
<circle cx="792.0670210307372" cy="200" r="3" fill="black" />
<circle cx="855.0253480127257" cy="200" r="4" fill="black" />
<circle cx="918.0939572894591" cy="200" r="4" fill="red" />
<circle cx="948.6546622149885" cy="200" r="6" fill="none" stroke="black" stroke-width="2" />
<circle cx="948.6546622149885" cy="200" r="3" fill="black" />
<circle cx="960.6546622149885" cy="200" r="6" fill="none" stroke="black" stroke-width="2" />
<circle cx="960.6546622149885" cy="200" r="3" fill="black" />
<text x="50" y="225" fill="gray" style="font-size:12px;">2025-02-04T14:00:49+00:00</text>
<text x="900" y="225" fill="gray" style="font-size:12px;">2025-02-11T15:29:16+00:00</text>
</svg>