<svg xmlns="http://www.w3.org/2000/svg" width="1000" height="200" style="background-color: white; font-family: sans-serif;">
<line x1="50" y1="100" x2="950" y2="100" stroke="gray" stroke-width="1"/>
<path d="M 62.0 100 Q 56.0 80, 50.0 100" stroke="black" fill="none" marker-end="url(#arrowhead)"/>
<path d="M 74.0 100 Q 68.0 80, 62.0 100" stroke="black" fill="none" marker-end="url(#arrowhead)"/>
<path d="M 86.0 100 Q 68.0 80, 50.0 100" stroke="black" fill="none" marker-end="url(#arrowhead)"/>
<path d="M 86.0 100 Q 80.0 80, 74.0 100" stroke="black" fill="none" marker-end="url(#arrowhead)"/>
<path d="M 98.0 100 Q 74.0 80, 50.0 100" stroke="black" fill="none" marker-end="url(#arrowhead)"/>
<path d="M 98.0 100 Q 86.0 80, 74.0 100" stroke="black" fill="none" marker-end="url(#arrowhead)"/>
<path d="M 110.0 100 Q 92.0 80, 74.0 100" stroke="black" fill="none" marker-end="url(#arrowhead)"/>
<path d="M 122.0 100 Q 116.0 80, 110.0 100" stroke="black" fill="none" marker-end="url(#arrowhead)"/>
<path d="M 134.0 100 Q 92.0 80, 50.0 100" stroke="black" fill="none" marker-end="url(#arrowhead)"/>
<path d="M 146.0 100 Q 140.0 80, 134.0 100" stroke="black" fill="none" marker-end="url(#arrowhead)"/>
<path d="M 158.0 100 Q 146.0 80, 134.0 100" stroke="black" fill="none" marker-end="url(#arrowhead)"/>
<path d="M 158.0 100 Q 152.0 80, 146.0 100" stroke="black" fill="none" marker-end="url(#arrowhead)"/>
<path d="M 913.1467196268552 100 Q 481.5733598134276 80, 50.0 100" stroke="black" fill="none" marker-end="url(#arrowhead)"/>
<path d="M 925.1467196268552 100 Q 919.1467196268552 80, 913.1467196268552 100" stroke="black" fill="none" marker-end="url(#arrowhead)"/>
<path d="M 949.1467196268552 100 Q 943.1467196268552 80, 937.1467196268552 100" stroke="black" fill="none" marker-end="url(#arrowhead)"/>
<path d="M 961.1467196268552 100 Q 949.1467196268552 80, 937.1467196268552 100" stroke="black" fill="none" marker-end="url(#arrowhead)"/>
<path d="M 961.1467196268552 100 Q 955.1467196268552 80, 949.1467196268552 100" stroke="black" fill="none" marker-end="url(#arrowhead)"/>
<path d="M 985.1467196268552 100 Q 961.1467196268552 80, 937.1467196268552 100" stroke="black" fill="none" marker-end="url(#arrowhead)"/>
<path d="M 985.1467196268552 100 Q 967.1467196268552 80, 949.1467196268552 100" stroke="black" fill="none" marker-end="url(#arrowhead)"/>
<path d="M 985.1467196268552 100 Q 973.1467196268552 80, 961.1467196268552 100" stroke="black" fill="none" marker-end="url(#arrowhead)"/>

<defs>
  <marker id="arrowhead" markerWidth="5" markerHeight="5" 
          refX="2" refY="2" orient="auto" fill="black">
    <path d="M0,0 L0,4 L4,2 z" />
  </marker>
</defs>

<circle cx="50.0" cy="100" r="6" fill="none" stroke="black" stroke-width="2" />
<circle cx="50.0" cy="100" r="3" fill="black" />
<circle cx="62.0" cy="100" r="4" fill="black" />
<circle cx="74.0" cy="100" r="4" fill="black" />
<circle cx="86.0" cy="100" r="4" fill="black" />
<circle cx="98.0" cy="100" r="4" fill="black" />
<circle cx="110.0" cy="100" r="4" fill="green" />
<circle cx="122.0" cy="100" r="4" fill="green" />
<circle cx="134.0" cy="100" r="4" fill="black" />
<circle cx="146.0" cy="100" r="4" fill="black" />
<circle cx="158.0" cy="100" r="4" fill="black" />
<circle cx="913.1467196268552" cy="100" r="4" fill="red" />
<circle cx="925.1467196268552" cy="100" r="4" fill="blue" />
<circle cx="937.1467196268552" cy="100" r="4" fill="red" />
<circle cx="949.1467196268552" cy="100" r="4" fill="red" />
<circle cx="961.1467196268552" cy="100" r="4" fill="blue" />
<circle cx="973.1467196268552" cy="100" r="4" fill="red" />
<circle cx="985.1467196268552" cy="100" r="4" fill="red" />
<text x="50" y="125" fill="gray" style="font-size:12px;">2014-04-24T10:18:27+00:00</text>
<text x="900" y="125" fill="gray" style="font-size:12px;">2024-12-09T14:27:40+00:00</text>
</svg>