<svg xmlns="http://www.w3.org/2000/svg" width="1000" height="200" style="background-color: white; font-family: sans-serif;">
<line x1="50" y1="100" x2="950" y2="100" stroke="gray" stroke-width="1"/>
<path d="M 169.16004988856267 100 Q 109.58002494428133 80, 50.0 100" stroke="black" fill="none" marker-end="url(#arrowhead)"/>
<path d="M 181.16004988856267 100 Q 175.16004988856267 80, 169.16004988856267 100" stroke="black" fill="none" marker-end="url(#arrowhead)"/>
<path d="M 181.16004988856267 100 Q 115.58002494428133 80, 50.0 100" stroke="black" fill="none" marker-end="url(#arrowhead)"/>
<path d="M 193.16004988856267 100 Q 187.16004988856267 80, 181.16004988856267 100" stroke="black" fill="none" marker-end="url(#arrowhead)"/>
<path d="M 217.16004988856267 100 Q 199.16004988856267 80, 181.16004988856267 100" stroke="black" fill="none" marker-end="url(#arrowhead)"/>
<path d="M 229.16004988856267 100 Q 211.16004988856267 80, 193.16004988856267 100" stroke="black" fill="none" marker-end="url(#arrowhead)"/>
<path d="M 241.16004988856267 100 Q 235.16004988856267 80, 229.16004988856267 100" stroke="black" fill="none" marker-end="url(#arrowhead)"/>
<path d="M 253.16004988856267 100 Q 247.16004988856267 80, 241.16004988856267 100" stroke="black" fill="none" marker-end="url(#arrowhead)"/>
<path d="M 265.16004988856264 100 Q 259.16004988856264 80, 253.16004988856267 100" stroke="black" fill="none" marker-end="url(#arrowhead)"/>
<path d="M 277.16004988856264 100 Q 253.16004988856264 80, 229.16004988856267 100" stroke="black" fill="none" marker-end="url(#arrowhead)"/>
<path d="M 277.16004988856264 100 Q 259.16004988856264 80, 241.16004988856267 100" stroke="black" fill="none" marker-end="url(#arrowhead)"/>
<path d="M 277.16004988856264 100 Q 229.16004988856264 80, 181.16004988856267 100" stroke="black" fill="none" marker-end="url(#arrowhead)"/>
<path d="M 277.16004988856264 100 Q 235.16004988856264 80, 193.16004988856267 100" stroke="black" fill="none" marker-end="url(#arrowhead)"/>
<path d="M 289.16004988856264 100 Q 271.16004988856264 80, 253.16004988856267 100" stroke="black" fill="none" marker-end="url(#arrowhead)"/>
<path d="M 289.16004988856264 100 Q 277.16004988856264 80, 265.16004988856264 100" stroke="black" fill="none" marker-end="url(#arrowhead)"/>
<path d="M 301.16004988856264 100 Q 295.16004988856264 80, 289.16004988856264 100" stroke="black" fill="none" marker-end="url(#arrowhead)"/>
<path d="M 313.16004988856264 100 Q 307.16004988856264 80, 301.16004988856264 100" stroke="black" fill="none" marker-end="url(#arrowhead)"/>
<path d="M 325.16004988856264 100 Q 307.16004988856264 80, 289.16004988856264 100" stroke="black" fill="none" marker-end="url(#arrowhead)"/>

<defs>
  <marker id="arrowhead" markerWidth="5" markerHeight="5" 
          refX="2" refY="2" orient="auto" fill="black">
    <path d="M0,0 L0,4 L4,2 z" />
  </marker>
</defs>

<circle cx="50.0" cy="100" r="6" fill="none" stroke="blue" stroke-width="2" />
<circle cx="50.0" cy="100" r="3" fill="blue" />
<circle cx="62.0" cy="100" r="6" fill="none" stroke="blue" stroke-width="2" />
<circle cx="62.0" cy="100" r="3" fill="blue" />
<circle cx="169.16004988856267" cy="100" r="6" fill="none" stroke="black" stroke-width="2" />
<circle cx="169.16004988856267" cy="100" r="3" fill="black" />
<circle cx="181.16004988856267" cy="100" r="4" fill="red" />
<circle cx="193.16004988856267" cy="100" r="4" fill="black" />
<circle cx="205.16004988856267" cy="100" r="4" fill="red" />
<circle cx="217.16004988856267" cy="100" r="4" fill="green" />
<circle cx="229.16004988856267" cy="100" r="4" fill="black" />
<circle cx="241.16004988856267" cy="100" r="6" fill="none" stroke="black" stroke-width="2" />
<circle cx="241.16004988856267" cy="100" r="3" fill="black" />
<circle cx="253.16004988856267" cy="100" r="4" fill="red" />
<circle cx="265.16004988856264" cy="100" r="6" fill="none" stroke="black" stroke-width="2" />
<circle cx="265.16004988856264" cy="100" r="3" fill="black" />
<circle cx="277.16004988856264" cy="100" r="4" fill="black" />
<circle cx="289.16004988856264" cy="100" r="4" fill="blue" />
<circle cx="301.16004988856264" cy="100" r="4" fill="black" />
<circle cx="313.16004988856264" cy="100" r="4" fill="black" />
<circle cx="325.16004988856264" cy="100" r="6" fill="none" stroke="blue" stroke-width="2" />
<circle cx="325.16004988856264" cy="100" r="3" fill="blue" />
<circle cx="950.0" cy="100" r="4" fill="red" />
<text x="50" y="125" fill="gray" style="font-size:12px;">2023-12-31T11:02:18+00:00</text>
<text x="900" y="125" fill="gray" style="font-size:12px;">2024-05-14T14:16:00+00:00</text>
</svg>