<svg xmlns="http://www.w3.org/2000/svg" width="1000" height="200" style="background-color: white; font-family: sans-serif;">
<line x1="50" y1="100" x2="950" y2="100" stroke="gray" stroke-width="1"/>
<path d="M 62.0 100 Q 56.0 80, 50.0 100" stroke="black" fill="none" marker-end="url(#arrowhead)"/>
<path d="M 74.0 100 Q 62.0 80, 50.0 100" stroke="black" fill="none" marker-end="url(#arrowhead)"/>
<path d="M 74.0 100 Q 68.0 80, 62.0 100" stroke="black" fill="none" marker-end="url(#arrowhead)"/>
<path d="M 86.0 100 Q 80.0 80, 74.0 100" stroke="black" fill="none" marker-end="url(#arrowhead)"/>
<path d="M 98.0 100 Q 74.0 80, 50.0 100" stroke="black" fill="none" marker-end="url(#arrowhead)"/>
<path d="M 98.0 100 Q 80.0 80, 62.0 100" stroke="black" fill="none" marker-end="url(#arrowhead)"/>
<path d="M 98.0 100 Q 86.0 80, 74.0 100" stroke="black" fill="none" marker-end="url(#arrowhead)"/>
<path d="M 110.0 100 Q 92.0 80, 74.0 100" stroke="black" fill="none" marker-end="url(#arrowhead)"/>
<path d="M 110.0 100 Q 86.0 80, 62.0 100" stroke="black" fill="none" marker-end="url(#arrowhead)"/>
<path d="M 110.0 100 Q 104.0 80, 98.0 100" stroke="black" fill="none" marker-end="url(#arrowhead)"/>
<path d="M 110.0 100 Q 80.0 80, 50.0 100" stroke="black" fill="none" marker-end="url(#arrowhead)"/>
<path d="M 110.0 100 Q 98.0 80, 86.0 100" stroke="black" fill="none" marker-end="url(#arrowhead)"/>
<path d="M 122.0 100 Q 110.0 80, 98.0 100" stroke="black" fill="none" marker-end="url(#arrowhead)"/>
<path d="M 122.0 100 Q 86.0 80, 50.0 100" stroke="black" fill="none" marker-end="url(#arrowhead)"/>
<path d="M 122.0 100 Q 104.0 80, 86.0 100" stroke="black" fill="none" marker-end="url(#arrowhead)"/>
<path d="M 134.0 100 Q 116.0 80, 98.0 100" stroke="black" fill="none" marker-end="url(#arrowhead)"/>
<path d="M 134.0 100 Q 92.0 80, 50.0 100" stroke="black" fill="none" marker-end="url(#arrowhead)"/>
<path d="M 134.0 100 Q 128.0 80, 122.0 100" stroke="black" fill="none" marker-end="url(#arrowhead)"/>
<path d="M 134.0 100 Q 110.0 80, 86.0 100" stroke="black" fill="none" marker-end="url(#arrowhead)"/>
<path d="M 146.0 100 Q 128.0 80, 110.0 100" stroke="black" fill="none" marker-end="url(#arrowhead)"/>
<path d="M 146.0 100 Q 98.0 80, 50.0 100" stroke="black" fill="none" marker-end="url(#arrowhead)"/>
<path d="M 146.0 100 Q 104.0 80, 62.0 100" stroke="black" fill="none" marker-end="url(#arrowhead)"/>
<path d="M 158.0 100 Q 134.0 80, 110.0 100" stroke="black" fill="none" marker-end="url(#arrowhead)"/>
<path d="M 158.0 100 Q 104.0 80, 50.0 100" stroke="black" fill="none" marker-end="url(#arrowhead)"/>
<path d="M 158.0 100 Q 110.0 80, 62.0 100" stroke="black" fill="none" marker-end="url(#arrowhead)"/>
<path d="M 158.0 100 Q 152.0 80, 146.0 100" stroke="black" fill="none" marker-end="url(#arrowhead)"/>
<path d="M 170.0 100 Q 164.0 80, 158.0 100" stroke="black" fill="none" marker-end="url(#arrowhead)"/>
<path d="M 182.0 100 Q 176.0 80, 170.0 100" stroke="black" fill="none" marker-end="url(#arrowhead)"/>
<path d="M 194.0 100 Q 182.0 80, 170.0 100" stroke="black" fill="none" marker-end="url(#arrowhead)"/>
<path d="M 194.0 100 Q 176.0 80, 158.0 100" stroke="black" fill="none" marker-end="url(#arrowhead)"/>
<path d="M 206.0 100 Q 188.0 80, 170.0 100" stroke="black" fill="none" marker-end="url(#arrowhead)"/>
<path d="M 206.0 100 Q 194.0 80, 182.0 100" stroke="black" fill="none" marker-end="url(#arrowhead)"/>
<path d="M 218.0 100 Q 194.0 80, 170.0 100" stroke="black" fill="none" marker-end="url(#arrowhead)"/>
<path d="M 218.0 100 Q 206.0 80, 194.0 100" stroke="black" fill="none" marker-end="url(#arrowhead)"/>
<path d="M 230.0 100 Q 200.0 80, 170.0 100" stroke="black" fill="none" marker-end="url(#arrowhead)"/>
<path d="M 230.0 100 Q 206.0 80, 182.0 100" stroke="black" fill="none" marker-end="url(#arrowhead)"/>
<path d="M 230.0 100 Q 218.0 80, 206.0 100" stroke="black" fill="none" marker-end="url(#arrowhead)"/>
<path d="M 242.0 100 Q 206.0 80, 170.0 100" stroke="black" fill="none" marker-end="url(#arrowhead)"/>
<path d="M 242.0 100 Q 218.0 80, 194.0 100" stroke="black" fill="none" marker-end="url(#arrowhead)"/>
<path d="M 242.0 100 Q 230.0 80, 218.0 100" stroke="black" fill="none" marker-end="url(#arrowhead)"/>
<path d="M 254.0 100 Q 212.0 80, 170.0 100" stroke="black" fill="none" marker-end="url(#arrowhead)"/>
<path d="M 254.0 100 Q 248.0 80, 242.0 100" stroke="black" fill="none" marker-end="url(#arrowhead)"/>
<path d="M 254.0 100 Q 224.0 80, 194.0 100" stroke="black" fill="none" marker-end="url(#arrowhead)"/>
<path d="M 254.0 100 Q 236.0 80, 218.0 100" stroke="black" fill="none" marker-end="url(#arrowhead)"/>
<path d="M 266.0 100 Q 230.0 80, 194.0 100" stroke="black" fill="none" marker-end="url(#arrowhead)"/>
<path d="M 266.0 100 Q 242.0 80, 218.0 100" stroke="black" fill="none" marker-end="url(#arrowhead)"/>
<path d="M 266.0 100 Q 260.0 80, 254.0 100" stroke="black" fill="none" marker-end="url(#arrowhead)"/>
<path d="M 266.0 100 Q 218.0 80, 170.0 100" stroke="black" fill="none" marker-end="url(#arrowhead)"/>
<path d="M 266.0 100 Q 254.0 80, 242.0 100" stroke="black" fill="none" marker-end="url(#arrowhead)"/>
<path d="M 278.0 100 Q 260.0 80, 242.0 100" stroke="black" fill="none" marker-end="url(#arrowhead)"/>
<path d="M 278.0 100 Q 266.0 80, 254.0 100" stroke="black" fill="none" marker-end="url(#arrowhead)"/>
<path d="M 278.0 100 Q 272.0 80, 266.0 100" stroke="black" fill="none" marker-end="url(#arrowhead)"/>
<path d="M 290.0 100 Q 278.0 80, 266.0 100" stroke="black" fill="none" marker-end="url(#arrowhead)"/>
<path d="M 302.0 100 Q 284.0 80, 266.0 100" stroke="black" fill="none" marker-end="url(#arrowhead)"/>
<path d="M 302.0 100 Q 296.0 80, 290.0 100" stroke="black" fill="none" marker-end="url(#arrowhead)"/>
<path d="M 326.0 100 Q 248.0 80, 170.0 100" stroke="black" fill="none" marker-end="url(#arrowhead)"/>
<path d="M 338.0 100 Q 332.0 80, 326.0 100" stroke="black" fill="none" marker-end="url(#arrowhead)"/>
<path d="M 350.0 100 Q 326.0 80, 302.0 100" stroke="black" fill="none" marker-end="url(#arrowhead)"/>
<path d="M 350.0 100 Q 320.0 80, 290.0 100" stroke="black" fill="none" marker-end="url(#arrowhead)"/>
<path d="M 362.0 100 Q 332.0 80, 302.0 100" stroke="black" fill="none" marker-end="url(#arrowhead)"/>
<path d="M 362.0 100 Q 356.0 80, 350.0 100" stroke="black" fill="none" marker-end="url(#arrowhead)"/>
<path d="M 362.0 100 Q 326.0 80, 290.0 100" stroke="black" fill="none" marker-end="url(#arrowhead)"/>
<path d="M 374.0 100 Q 212.0 80, 50.0 100" stroke="black" fill="none" marker-end="url(#arrowhead)"/>
<path d="M 374.0 100 Q 350.0 80, 326.0 100" stroke="black" fill="none" marker-end="url(#arrowhead)"/>
<path d="M 374.0 100 Q 230.0 80, 86.0 100" stroke="black" fill="none" marker-end="url(#arrowhead)"/>
<path d="M 386.0 100 Q 380.0 80, 374.0 100" stroke="black" fill="none" marker-end="url(#arrowhead)"/>
<path d="M 386.0 100 Q 218.0 80, 50.0 100" stroke="black" fill="none" marker-end="url(#arrowhead)"/>
<path d="M 386.0 100 Q 356.0 80, 326.0 100" stroke="black" fill="none" marker-end="url(#arrowhead)"/>
<path d="M 386.0 100 Q 236.0 80, 86.0 100" stroke="black" fill="none" marker-end="url(#arrowhead)"/>
<path d="M 398.0 100 Q 392.0 80, 386.0 100" stroke="black" fill="none" marker-end="url(#arrowhead)"/>
<path d="M 398.0 100 Q 386.0 80, 374.0 100" stroke="black" fill="none" marker-end="url(#arrowhead)"/>
<path d="M 398.0 100 Q 362.0 80, 326.0 100" stroke="black" fill="none" marker-end="url(#arrowhead)"/>
<path d="M 398.0 100 Q 224.0 80, 50.0 100" stroke="black" fill="none" marker-end="url(#arrowhead)"/>
<path d="M 398.0 100 Q 242.0 80, 86.0 100" stroke="black" fill="none" marker-end="url(#arrowhead)"/>
<path d="M 410.0 100 Q 230.0 80, 50.0 100" stroke="black" fill="none" marker-end="url(#arrowhead)"/>
<path d="M 410.0 100 Q 392.0 80, 374.0 100" stroke="black" fill="none" marker-end="url(#arrowhead)"/>
<path d="M 410.0 100 Q 398.0 80, 386.0 100" stroke="black" fill="none" marker-end="url(#arrowhead)"/>
<path d="M 410.0 100 Q 404.0 80, 398.0 100" stroke="black" fill="none" marker-end="url(#arrowhead)"/>
<path d="M 422.0 100 Q 398.0 80, 374.0 100" stroke="black" fill="none" marker-end="url(#arrowhead)"/>
<path d="M 446.0 100 Q 440.0 80, 434.0 100" stroke="black" fill="none" marker-end="url(#arrowhead)"/>
<path d="M 458.0 100 Q 452.0 80, 446.0 100" stroke="black" fill="none" marker-end="url(#arrowhead)"/>
<path d="M 458.0 100 Q 254.0 80, 50.0 100" stroke="black" fill="none" marker-end="url(#arrowhead)"/>
<path d="M 458.0 100 Q 272.0 80, 86.0 100" stroke="black" fill="none" marker-end="url(#arrowhead)"/>
<path d="M 470.0 100 Q 398.0 80, 326.0 100" stroke="black" fill="none" marker-end="url(#arrowhead)"/>
<path d="M 470.0 100 Q 446.0 80, 422.0 100" stroke="black" fill="none" marker-end="url(#arrowhead)"/>
<path d="M 482.0 100 Q 404.0 80, 326.0 100" stroke="black" fill="none" marker-end="url(#arrowhead)"/>
<path d="M 482.0 100 Q 476.0 80, 470.0 100" stroke="black" fill="none" marker-end="url(#arrowhead)"/>
<path d="M 482.0 100 Q 452.0 80, 422.0 100" stroke="black" fill="none" marker-end="url(#arrowhead)"/>
<path d="M 494.0 100 Q 482.0 80, 470.0 100" stroke="black" fill="none" marker-end="url(#arrowhead)"/>
<path d="M 494.0 100 Q 488.0 80, 482.0 100" stroke="black" fill="none" marker-end="url(#arrowhead)"/>
<path d="M 506.0 100 Q 488.0 80, 470.0 100" stroke="black" fill="none" marker-end="url(#arrowhead)"/>
<path d="M 506.0 100 Q 494.0 80, 482.0 100" stroke="black" fill="none" marker-end="url(#arrowhead)"/>
<path d="M 506.0 100 Q 500.0 80, 494.0 100" stroke="black" fill="none" marker-end="url(#arrowhead)"/>
<path d="M 518.0 100 Q 494.0 80, 470.0 100" stroke="black" fill="none" marker-end="url(#arrowhead)"/>
<path d="M 518.0 100 Q 500.0 80, 482.0 100" stroke="black" fill="none" marker-end="url(#arrowhead)"/>
<path d="M 518.0 100 Q 506.0 80, 494.0 100" stroke="black" fill="none" marker-end="url(#arrowhead)"/>
<path d="M 530.0 100 Q 524.0 80, 518.0 100" stroke="black" fill="none" marker-end="url(#arrowhead)"/>
<path d="M 542.0 100 Q 530.0 80, 518.0 100" stroke="black" fill="none" marker-end="url(#arrowhead)"/>
<path d="M 554.0 100 Q 536.0 80, 518.0 100" stroke="black" fill="none" marker-end="url(#arrowhead)"/>
<path d="M 554.0 100 Q 548.0 80, 542.0 100" stroke="black" fill="none" marker-end="url(#arrowhead)"/>
<path d="M 566.0 100 Q 326.0 80, 86.0 100" stroke="black" fill="none" marker-end="url(#arrowhead)"/>
<path d="M 566.0 100 Q 308.0 80, 50.0 100" stroke="black" fill="none" marker-end="url(#arrowhead)"/>
<path d="M 566.0 100 Q 446.0 80, 326.0 100" stroke="black" fill="none" marker-end="url(#arrowhead)"/>
<path d="M 566.0 100 Q 560.0 80, 554.0 100" stroke="black" fill="none" marker-end="url(#arrowhead)"/>
<path d="M 578.0 100 Q 566.0 80, 554.0 100" stroke="black" fill="none" marker-end="url(#arrowhead)"/>
<path d="M 590.0 100 Q 560.0 80, 530.0 100" stroke="black" fill="none" marker-end="url(#arrowhead)"/>
<path d="M 602.0 100 Q 596.0 80, 590.0 100" stroke="black" fill="none" marker-end="url(#arrowhead)"/>
<path d="M 602.0 100 Q 566.0 80, 530.0 100" stroke="black" fill="none" marker-end="url(#arrowhead)"/>
<path d="M 614.0 100 Q 602.0 80, 590.0 100" stroke="black" fill="none" marker-end="url(#arrowhead)"/>
<path d="M 614.0 100 Q 572.0 80, 530.0 100" stroke="black" fill="none" marker-end="url(#arrowhead)"/>
<path d="M 614.0 100 Q 608.0 80, 602.0 100" stroke="black" fill="none" marker-end="url(#arrowhead)"/>
<path d="M 626.0 100 Q 596.0 80, 566.0 100" stroke="black" fill="none" marker-end="url(#arrowhead)"/>
<path d="M 638.0 100 Q 344.0 80, 50.0 100" stroke="black" fill="none" marker-end="url(#arrowhead)"/>
<path d="M 638.0 100 Q 632.0 80, 626.0 100" stroke="black" fill="none" marker-end="url(#arrowhead)"/>
<path d="M 638.0 100 Q 602.0 80, 566.0 100" stroke="black" fill="none" marker-end="url(#arrowhead)"/>
<path d="M 650.0 100 Q 350.0 80, 50.0 100" stroke="black" fill="none" marker-end="url(#arrowhead)"/>
<path d="M 650.0 100 Q 638.0 80, 626.0 100" stroke="black" fill="none" marker-end="url(#arrowhead)"/>
<path d="M 650.0 100 Q 608.0 80, 566.0 100" stroke="black" fill="none" marker-end="url(#arrowhead)"/>
<path d="M 662.0 100 Q 650.0 80, 638.0 100" stroke="black" fill="none" marker-end="url(#arrowhead)"/>
<path d="M 662.0 100 Q 656.0 80, 650.0 100" stroke="black" fill="none" marker-end="url(#arrowhead)"/>
<path d="M 662.0 100 Q 356.0 80, 50.0 100" stroke="black" fill="none" marker-end="url(#arrowhead)"/>
<path d="M 662.0 100 Q 644.0 80, 626.0 100" stroke="black" fill="none" marker-end="url(#arrowhead)"/>
<path d="M 674.0 100 Q 656.0 80, 638.0 100" stroke="black" fill="none" marker-end="url(#arrowhead)"/>
<path d="M 674.0 100 Q 662.0 80, 650.0 100" stroke="black" fill="none" marker-end="url(#arrowhead)"/>
<path d="M 674.0 100 Q 650.0 80, 626.0 100" stroke="black" fill="none" marker-end="url(#arrowhead)"/>
<path d="M 686.0 100 Q 668.0 80, 650.0 100" stroke="black" fill="none" marker-end="url(#arrowhead)"/>
<path d="M 686.0 100 Q 662.0 80, 638.0 100" stroke="black" fill="none" marker-end="url(#arrowhead)"/>
<path d="M 686.0 100 Q 680.0 80, 674.0 100" stroke="black" fill="none" marker-end="url(#arrowhead)"/>
<path d="M 686.0 100 Q 368.0 80, 50.0 100" stroke="black" fill="none" marker-end="url(#arrowhead)"/>
<path d="M 686.0 100 Q 656.0 80, 626.0 100" stroke="black" fill="none" marker-end="url(#arrowhead)"/>
<path d="M 698.0 100 Q 686.0 80, 674.0 100" stroke="black" fill="none" marker-end="url(#arrowhead)"/>
<path d="M 710.0 100 Q 692.0 80, 674.0 100" stroke="black" fill="none" marker-end="url(#arrowhead)"/>
<path d="M 710.0 100 Q 704.0 80, 698.0 100" stroke="black" fill="none" marker-end="url(#arrowhead)"/>
<path d="M 722.0 100 Q 716.0 80, 710.0 100" stroke="black" fill="none" marker-end="url(#arrowhead)"/>
<path d="M 746.0 100 Q 740.0 80, 734.0 100" stroke="black" fill="none" marker-end="url(#arrowhead)"/>
<path d="M 758.0 100 Q 746.0 80, 734.0 100" stroke="black" fill="none" marker-end="url(#arrowhead)"/>
<path d="M 758.0 100 Q 752.0 80, 746.0 100" stroke="black" fill="none" marker-end="url(#arrowhead)"/>
<path d="M 770.0 100 Q 428.0 80, 86.0 100" stroke="black" fill="none" marker-end="url(#arrowhead)"/>
<path d="M 770.0 100 Q 410.0 80, 50.0 100" stroke="black" fill="none" marker-end="url(#arrowhead)"/>
<path d="M 770.0 100 Q 764.0 80, 758.0 100" stroke="black" fill="none" marker-end="url(#arrowhead)"/>
<path d="M 782.0 100 Q 776.0 80, 770.0 100" stroke="black" fill="none" marker-end="url(#arrowhead)"/>
<path d="M 794.0 100 Q 788.0 80, 782.0 100" stroke="black" fill="none" marker-end="url(#arrowhead)"/>
<path d="M 794.0 100 Q 782.0 80, 770.0 100" stroke="black" fill="none" marker-end="url(#arrowhead)"/>
<path d="M 830.0 100 Q 824.0 80, 818.0 100" stroke="black" fill="none" marker-end="url(#arrowhead)"/>
<path d="M 842.0 100 Q 836.0 80, 830.0 100" stroke="black" fill="none" marker-end="url(#arrowhead)"/>
<path d="M 854.0 100 Q 842.0 80, 830.0 100" stroke="black" fill="none" marker-end="url(#arrowhead)"/>
<path d="M 914.0 100 Q 482.0 80, 50.0 100" stroke="black" fill="none" marker-end="url(#arrowhead)"/>
<path d="M 914.0 100 Q 908.0 80, 902.0 100" stroke="black" fill="none" marker-end="url(#arrowhead)"/>
<path d="M 926.0 100 Q 920.0 80, 914.0 100" stroke="black" fill="none" marker-end="url(#arrowhead)"/>
<path d="M 926.0 100 Q 488.0 80, 50.0 100" stroke="black" fill="none" marker-end="url(#arrowhead)"/>
<path d="M 926.0 100 Q 914.0 80, 902.0 100" stroke="black" fill="none" marker-end="url(#arrowhead)"/>
<path d="M 938.0 100 Q 926.0 80, 914.0 100" stroke="black" fill="none" marker-end="url(#arrowhead)"/>
<path d="M 938.0 100 Q 932.0 80, 926.0 100" stroke="black" fill="none" marker-end="url(#arrowhead)"/>
<path d="M 1034.0 100 Q 1028.0 80, 1022.0 100" stroke="black" fill="none" marker-end="url(#arrowhead)"/>
<path d="M 1046.0 100 Q 1034.0 80, 1022.0 100" stroke="black" fill="none" marker-end="url(#arrowhead)"/>
<path d="M 1046.0 100 Q 1040.0 80, 1034.0 100" stroke="black" fill="none" marker-end="url(#arrowhead)"/>
<path d="M 1058.0 100 Q 1052.0 80, 1046.0 100" stroke="black" fill="none" marker-end="url(#arrowhead)"/>
<path d="M 1082.0 100 Q 1076.0 80, 1070.0 100" stroke="black" fill="none" marker-end="url(#arrowhead)"/>
<path d="M 1094.0 100 Q 1082.0 80, 1070.0 100" stroke="black" fill="none" marker-end="url(#arrowhead)"/>
<path d="M 1094.0 100 Q 1088.0 80, 1082.0 100" stroke="black" fill="none" marker-end="url(#arrowhead)"/>
<path d="M 1106.0 100 Q 1100.0 80, 1094.0 100" stroke="black" fill="none" marker-end="url(#arrowhead)"/>
<path d="M 1118.0 100 Q 1106.0 80, 1094.0 100" stroke="black" fill="none" marker-end="url(#arrowhead)"/>
<path d="M 1118.0 100 Q 1112.0 80, 1106.0 100" stroke="black" fill="none" marker-end="url(#arrowhead)"/>
<path d="M 1130.0 100 Q 1124.0 80, 1118.0 100" stroke="black" fill="none" marker-end="url(#arrowhead)"/>
<path d="M 1130.0 100 Q 1112.0 80, 1094.0 100" stroke="black" fill="none" marker-end="url(#arrowhead)"/>
<path d="M 1130.0 100 Q 1118.0 80, 1106.0 100" stroke="black" fill="none" marker-end="url(#arrowhead)"/>
<path d="M 1154.0 100 Q 602.0 80, 50.0 100" stroke="black" fill="none" marker-end="url(#arrowhead)"/>
<path d="M 1154.0 100 Q 1148.0 80, 1142.0 100" stroke="black" fill="none" marker-end="url(#arrowhead)"/>
<path d="M 1154.0 100 Q 620.0 80, 86.0 100" stroke="black" fill="none" marker-end="url(#arrowhead)"/>
<path d="M 1154.0 100 Q 956.0 80, 758.0 100" stroke="black" fill="none" marker-end="url(#arrowhead)"/>
<path d="M 1166.0 100 Q 608.0 80, 50.0 100" stroke="black" fill="none" marker-end="url(#arrowhead)"/>
<path d="M 1166.0 100 Q 1154.0 80, 1142.0 100" stroke="black" fill="none" marker-end="url(#arrowhead)"/>
<path d="M 1166.0 100 Q 626.0 80, 86.0 100" stroke="black" fill="none" marker-end="url(#arrowhead)"/>
<path d="M 1166.0 100 Q 962.0 80, 758.0 100" stroke="black" fill="none" marker-end="url(#arrowhead)"/>
<path d="M 1178.0 100 Q 1172.0 80, 1166.0 100" stroke="black" fill="none" marker-end="url(#arrowhead)"/>
<path d="M 1178.0 100 Q 1160.0 80, 1142.0 100" stroke="black" fill="none" marker-end="url(#arrowhead)"/>
<path d="M 1178.0 100 Q 968.0 80, 758.0 100" stroke="black" fill="none" marker-end="url(#arrowhead)"/>
<path d="M 1178.0 100 Q 614.0 80, 50.0 100" stroke="black" fill="none" marker-end="url(#arrowhead)"/>
<path d="M 1178.0 100 Q 632.0 80, 86.0 100" stroke="black" fill="none" marker-end="url(#arrowhead)"/>

<defs>
  <marker id="arrowhead" markerWidth="5" markerHeight="5" 
          refX="2" refY="2" orient="auto" fill="black">
    <path d="M0,0 L0,4 L4,2 z" />
  </marker>
</defs>

<circle cx="50.0" cy="100" r="6" fill="none" stroke="blue" stroke-width="2" />
<circle cx="50.0" cy="100" r="3" fill="blue" />
<circle cx="62.0" cy="100" r="4" fill="red" />
<circle cx="74.0" cy="100" r="6" fill="none" stroke="red" stroke-width="2" />
<circle cx="74.0" cy="100" r="3" fill="red" />
<circle cx="86.0" cy="100" r="6" fill="none" stroke="blue" stroke-width="2" />
<circle cx="86.0" cy="100" r="3" fill="blue" />
<circle cx="98.0" cy="100" r="4" fill="red" />
<circle cx="110.0" cy="100" r="6" fill="none" stroke="black" stroke-width="2" />
<circle cx="110.0" cy="100" r="3" fill="black" />
<circle cx="122.0" cy="100" r="6" fill="none" stroke="black" stroke-width="2" />
<circle cx="122.0" cy="100" r="3" fill="black" />
<circle cx="134.0" cy="100" r="4" fill="black" />
<circle cx="146.0" cy="100" r="4" fill="red" />
<circle cx="158.0" cy="100" r="6" fill="none" stroke="red" stroke-width="2" />
<circle cx="158.0" cy="100" r="3" fill="red" />
<circle cx="170.0" cy="100" r="4" fill="blue" />
<circle cx="182.0" cy="100" r="4" fill="black" />
<circle cx="194.0" cy="100" r="6" fill="none" stroke="black" stroke-width="2" />
<circle cx="194.0" cy="100" r="3" fill="black" />
<circle cx="206.0" cy="100" r="4" fill="blue" />
<circle cx="218.0" cy="100" r="4" fill="black" />
<circle cx="230.0" cy="100" r="4" fill="green" />
<circle cx="242.0" cy="100" r="6" fill="none" stroke="black" stroke-width="2" />
<circle cx="242.0" cy="100" r="3" fill="black" />
<circle cx="254.0" cy="100" r="4" fill="black" />
<circle cx="266.0" cy="100" r="6" fill="none" stroke="blue" stroke-width="2" />
<circle cx="266.0" cy="100" r="3" fill="blue" />
<circle cx="278.0" cy="100" r="4" fill="red" />
<circle cx="290.0" cy="100" r="6" fill="none" stroke="black" stroke-width="2" />
<circle cx="290.0" cy="100" r="3" fill="black" />
<circle cx="302.0" cy="100" r="4" fill="black" />
<circle cx="314.0" cy="100" r="6" fill="none" stroke="blue" stroke-width="2" />
<circle cx="314.0" cy="100" r="3" fill="blue" />
<circle cx="326.0" cy="100" r="6" fill="none" stroke="blue" stroke-width="2" />
<circle cx="326.0" cy="100" r="3" fill="blue" />
<circle cx="338.0" cy="100" r="6" fill="none" stroke="black" stroke-width="2" />
<circle cx="338.0" cy="100" r="3" fill="black" />
<circle cx="350.0" cy="100" r="6" fill="none" stroke="black" stroke-width="2" />
<circle cx="350.0" cy="100" r="3" fill="black" />
<circle cx="362.0" cy="100" r="4" fill="black" />
<circle cx="374.0" cy="100" r="4" fill="red" />
<circle cx="386.0" cy="100" r="6" fill="none" stroke="black" stroke-width="2" />
<circle cx="386.0" cy="100" r="3" fill="black" />
<circle cx="398.0" cy="100" r="4" fill="black" />
<circle cx="410.0" cy="100" r="6" fill="none" stroke="black" stroke-width="2" />
<circle cx="410.0" cy="100" r="3" fill="black" />
<circle cx="422.0" cy="100" r="6" fill="none" stroke="blue" stroke-width="2" />
<circle cx="422.0" cy="100" r="3" fill="blue" />
<circle cx="434.0" cy="100" r="6" fill="none" stroke="blue" stroke-width="2" />
<circle cx="434.0" cy="100" r="3" fill="blue" />
<circle cx="446.0" cy="100" r="4" fill="red" />
<circle cx="458.0" cy="100" r="6" fill="none" stroke="black" stroke-width="2" />
<circle cx="458.0" cy="100" r="3" fill="black" />
<circle cx="470.0" cy="100" r="4" fill="red" />
<circle cx="482.0" cy="100" r="6" fill="none" stroke="black" stroke-width="2" />
<circle cx="482.0" cy="100" r="3" fill="black" />
<circle cx="494.0" cy="100" r="4" fill="black" />
<circle cx="506.0" cy="100" r="4" fill="green" />
<circle cx="518.0" cy="100" r="6" fill="none" stroke="black" stroke-width="2" />
<circle cx="518.0" cy="100" r="3" fill="black" />
<circle cx="530.0" cy="100" r="4" fill="black" />
<circle cx="542.0" cy="100" r="4" fill="black" />
<circle cx="554.0" cy="100" r="6" fill="none" stroke="blue" stroke-width="2" />
<circle cx="554.0" cy="100" r="3" fill="blue" />
<circle cx="566.0" cy="100" r="6" fill="none" stroke="blue" stroke-width="2" />
<circle cx="566.0" cy="100" r="3" fill="blue" />
<circle cx="578.0" cy="100" r="4" fill="blue" />
<circle cx="590.0" cy="100" r="6" fill="none" stroke="black" stroke-width="2" />
<circle cx="590.0" cy="100" r="3" fill="black" />
<circle cx="602.0" cy="100" r="4" fill="black" />
<circle cx="614.0" cy="100" r="6" fill="none" stroke="black" stroke-width="2" />
<circle cx="614.0" cy="100" r="3" fill="black" />
<circle cx="626.0" cy="100" r="6" fill="none" stroke="blue" stroke-width="2" />
<circle cx="626.0" cy="100" r="3" fill="blue" />
<circle cx="638.0" cy="100" r="4" fill="red" />
<circle cx="650.0" cy="100" r="4" fill="red" />
<circle cx="662.0" cy="100" r="4" fill="blue" />
<circle cx="674.0" cy="100" r="6" fill="none" stroke="black" stroke-width="2" />
<circle cx="674.0" cy="100" r="3" fill="black" />
<circle cx="686.0" cy="100" r="4" fill="black" />
<circle cx="698.0" cy="100" r="4" fill="black" />
<circle cx="710.0" cy="100" r="6" fill="none" stroke="blue" stroke-width="2" />
<circle cx="710.0" cy="100" r="3" fill="blue" />
<circle cx="722.0" cy="100" r="6" fill="none" stroke="blue" stroke-width="2" />
<circle cx="722.0" cy="100" r="3" fill="blue" />
<circle cx="734.0" cy="100" r="6" fill="none" stroke="blue" stroke-width="2" />
<circle cx="734.0" cy="100" r="3" fill="blue" />
<circle cx="746.0" cy="100" r="4" fill="blue" />
<circle cx="758.0" cy="100" r="6" fill="none" stroke="black" stroke-width="2" />
<circle cx="758.0" cy="100" r="3" fill="black" />
<circle cx="770.0" cy="100" r="6" fill="none" stroke="red" stroke-width="2" />
<circle cx="770.0" cy="100" r="3" fill="red" />
<circle cx="782.0" cy="100" r="4" fill="black" />
<circle cx="794.0" cy="100" r="6" fill="none" stroke="blue" stroke-width="2" />
<circle cx="794.0" cy="100" r="3" fill="blue" />
<circle cx="806.0" cy="100" r="6" fill="none" stroke="blue" stroke-width="2" />
<circle cx="806.0" cy="100" r="3" fill="blue" />
<circle cx="818.0" cy="100" r="6" fill="none" stroke="blue" stroke-width="2" />
<circle cx="818.0" cy="100" r="3" fill="blue" />
<circle cx="830.0" cy="100" r="4" fill="blue" />
<circle cx="842.0" cy="100" r="6" fill="none" stroke="green" stroke-width="2" />
<circle cx="842.0" cy="100" r="3" fill="green" />
<circle cx="854.0" cy="100" r="6" fill="none" stroke="blue" stroke-width="2" />
<circle cx="854.0" cy="100" r="3" fill="blue" />
<circle cx="866.0" cy="100" r="6" fill="none" stroke="blue" stroke-width="2" />
<circle cx="866.0" cy="100" r="3" fill="blue" />
<circle cx="878.0" cy="100" r="6" fill="none" stroke="blue" stroke-width="2" />
<circle cx="878.0" cy="100" r="3" fill="blue" />
<circle cx="890.0" cy="100" r="6" fill="none" stroke="blue" stroke-width="2" />
<circle cx="890.0" cy="100" r="3" fill="blue" />
<circle cx="902.0" cy="100" r="6" fill="none" stroke="red" stroke-width="2" />
<circle cx="902.0" cy="100" r="3" fill="red" />
<circle cx="914.0" cy="100" r="4" fill="green" />
<circle cx="926.0" cy="100" r="6" fill="none" stroke="blue" stroke-width="2" />
<circle cx="926.0" cy="100" r="3" fill="blue" />
<circle cx="938.0" cy="100" r="6" fill="none" stroke="blue" stroke-width="2" />
<circle cx="938.0" cy="100" r="3" fill="blue" />
<circle cx="950.0" cy="100" r="6" fill="none" stroke="blue" stroke-width="2" />
<circle cx="950.0" cy="100" r="3" fill="blue" />
<circle cx="962.0" cy="100" r="6" fill="none" stroke="blue" stroke-width="2" />
<circle cx="962.0" cy="100" r="3" fill="blue" />
<circle cx="974.0" cy="100" r="6" fill="none" stroke="blue" stroke-width="2" />
<circle cx="974.0" cy="100" r="3" fill="blue" />
<circle cx="986.0" cy="100" r="6" fill="none" stroke="black" stroke-width="2" />
<circle cx="986.0" cy="100" r="3" fill="black" />
<circle cx="998.0" cy="100" r="6" fill="none" stroke="blue" stroke-width="2" />
<circle cx="998.0" cy="100" r="3" fill="blue" />
<circle cx="1010.0" cy="100" r="6" fill="none" stroke="blue" stroke-width="2" />
<circle cx="1010.0" cy="100" r="3" fill="blue" />
<circle cx="1022.0" cy="100" r="4" fill="red" />
<circle cx="1034.0" cy="100" r="6" fill="none" stroke="blue" stroke-width="2" />
<circle cx="1034.0" cy="100" r="3" fill="blue" />
<circle cx="1046.0" cy="100" r="6" fill="none" stroke="black" stroke-width="2" />
<circle cx="1046.0" cy="100" r="3" fill="black" />
<circle cx="1058.0" cy="100" r="4" fill="black" />
<circle cx="1070.0" cy="100" r="6" fill="none" stroke="black" stroke-width="2" />
<circle cx="1070.0" cy="100" r="3" fill="black" />
<circle cx="1082.0" cy="100" r="4" fill="black" />
<circle cx="1094.0" cy="100" r="6" fill="none" stroke="black" stroke-width="2" />
<circle cx="1094.0" cy="100" r="3" fill="black" />
<circle cx="1106.0" cy="100" r="4" fill="green" />
<circle cx="1118.0" cy="100" r="4" fill="green" />
<circle cx="1130.0" cy="100" r="6" fill="none" stroke="blue" stroke-width="2" />
<circle cx="1130.0" cy="100" r="3" fill="blue" />
<circle cx="1142.0" cy="100" r="6" fill="none" stroke="blue" stroke-width="2" />
<circle cx="1142.0" cy="100" r="3" fill="blue" />
<circle cx="1154.0" cy="100" r="6" fill="none" stroke="blue" stroke-width="2" />
<circle cx="1154.0" cy="100" r="3" fill="blue" />
<circle cx="1166.0" cy="100" r="6" fill="none" stroke="blue" stroke-width="2" />
<circle cx="1166.0" cy="100" r="3" fill="blue" />
<circle cx="1178.0" cy="100" r="6" fill="none" stroke="blue" stroke-width="2" />
<circle cx="1178.0" cy="100" r="3" fill="blue" />
<circle cx="1190.0" cy="100" r="6" fill="none" stroke="blue" stroke-width="2" />
<circle cx="1190.0" cy="100" r="3" fill="blue" />
<text x="50" y="125" fill="gray" style="font-size:12px;">2023-06-25T12:05:09+00:00</text>
<text x="900" y="125" fill="gray" style="font-size:12px;">2025-01-11T05:46:11+00:00</text>
</svg>