<svg xmlns="http://www.w3.org/2000/svg" width="1000" height="400" style="background-color: white; font-family: sans-serif;">
<line x1="50" y1="200" x2="950" y2="200" stroke="gray" stroke-width="1"/>
<path d="M 62.0 200 Q 56.0 180, 50.0 200" stroke="black" fill="none" marker-end="url(#arrowhead)"/>
<path d="M 74.0 200 Q 62.0 180, 50.0 200" stroke="black" fill="none" marker-end="url(#arrowhead)"/>
<path d="M 74.0 200 Q 68.0 180, 62.0 200" stroke="black" fill="none" marker-end="url(#arrowhead)"/>
<path d="M 86.0 200 Q 80.0 180, 74.0 200" stroke="black" fill="none" marker-end="url(#arrowhead)"/>
<path d="M 98.0 200 Q 74.0 180, 50.0 200" stroke="black" fill="none" marker-end="url(#arrowhead)"/>
<path d="M 98.0 200 Q 80.0 180, 62.0 200" stroke="black" fill="none" marker-end="url(#arrowhead)"/>
<path d="M 98.0 200 Q 86.0 180, 74.0 200" stroke="black" fill="none" marker-end="url(#arrowhead)"/>
<path d="M 110.0 200 Q 92.0 180, 74.0 200" stroke="black" fill="none" marker-end="url(#arrowhead)"/>
<path d="M 110.0 200 Q 86.0 180, 62.0 200" stroke="black" fill="none" marker-end="url(#arrowhead)"/>
<path d="M 110.0 200 Q 104.0 180, 98.0 200" stroke="black" fill="none" marker-end="url(#arrowhead)"/>
<path d="M 110.0 200 Q 80.0 180, 50.0 200" stroke="black" fill="none" marker-end="url(#arrowhead)"/>
<path d="M 110.0 200 Q 98.0 180, 86.0 200" stroke="black" fill="none" marker-end="url(#arrowhead)"/>
<path d="M 122.0 200 Q 110.0 180, 98.0 200" stroke="black" fill="none" marker-end="url(#arrowhead)"/>
<path d="M 122.0 200 Q 86.0 180, 50.0 200" stroke="black" fill="none" marker-end="url(#arrowhead)"/>
<path d="M 122.0 200 Q 104.0 180, 86.0 200" stroke="black" fill="none" marker-end="url(#arrowhead)"/>
<path d="M 134.0 200 Q 116.0 180, 98.0 200" stroke="black" fill="none" marker-end="url(#arrowhead)"/>
<path d="M 134.0 200 Q 92.0 180, 50.0 200" stroke="black" fill="none" marker-end="url(#arrowhead)"/>
<path d="M 134.0 200 Q 128.0 180, 122.0 200" stroke="black" fill="none" marker-end="url(#arrowhead)"/>
<path d="M 134.0 200 Q 110.0 180, 86.0 200" stroke="black" fill="none" marker-end="url(#arrowhead)"/>
<path d="M 146.0 200 Q 128.0 180, 110.0 200" stroke="black" fill="none" marker-end="url(#arrowhead)"/>
<path d="M 146.0 200 Q 98.0 180, 50.0 200" stroke="black" fill="none" marker-end="url(#arrowhead)"/>
<path d="M 146.0 200 Q 104.0 180, 62.0 200" stroke="black" fill="none" marker-end="url(#arrowhead)"/>
<path d="M 158.0 200 Q 134.0 180, 110.0 200" stroke="black" fill="none" marker-end="url(#arrowhead)"/>
<path d="M 158.0 200 Q 104.0 180, 50.0 200" stroke="black" fill="none" marker-end="url(#arrowhead)"/>
<path d="M 158.0 200 Q 110.0 180, 62.0 200" stroke="black" fill="none" marker-end="url(#arrowhead)"/>
<path d="M 158.0 200 Q 152.0 180, 146.0 200" stroke="black" fill="none" marker-end="url(#arrowhead)"/>
<path d="M 170.0 200 Q 164.0 180, 158.0 200" stroke="black" fill="none" marker-end="url(#arrowhead)"/>
<path d="M 182.0 200 Q 176.0 180, 170.0 200" stroke="black" fill="none" marker-end="url(#arrowhead)"/>
<path d="M 194.0 200 Q 182.0 180, 170.0 200" stroke="black" fill="none" marker-end="url(#arrowhead)"/>
<path d="M 194.0 200 Q 176.0 180, 158.0 200" stroke="black" fill="none" marker-end="url(#arrowhead)"/>
<path d="M 206.0 200 Q 188.0 180, 170.0 200" stroke="black" fill="none" marker-end="url(#arrowhead)"/>
<path d="M 206.0 200 Q 194.0 180, 182.0 200" stroke="black" fill="none" marker-end="url(#arrowhead)"/>
<path d="M 218.0 200 Q 194.0 180, 170.0 200" stroke="black" fill="none" marker-end="url(#arrowhead)"/>
<path d="M 218.0 200 Q 206.0 180, 194.0 200" stroke="black" fill="none" marker-end="url(#arrowhead)"/>
<path d="M 230.0 200 Q 200.0 180, 170.0 200" stroke="black" fill="none" marker-end="url(#arrowhead)"/>
<path d="M 230.0 200 Q 206.0 180, 182.0 200" stroke="black" fill="none" marker-end="url(#arrowhead)"/>
<path d="M 230.0 200 Q 218.0 180, 206.0 200" stroke="black" fill="none" marker-end="url(#arrowhead)"/>
<path d="M 242.0 200 Q 206.0 180, 170.0 200" stroke="black" fill="none" marker-end="url(#arrowhead)"/>
<path d="M 242.0 200 Q 218.0 180, 194.0 200" stroke="black" fill="none" marker-end="url(#arrowhead)"/>
<path d="M 242.0 200 Q 230.0 180, 218.0 200" stroke="black" fill="none" marker-end="url(#arrowhead)"/>
<path d="M 254.0 200 Q 212.0 180, 170.0 200" stroke="black" fill="none" marker-end="url(#arrowhead)"/>
<path d="M 254.0 200 Q 248.0 180, 242.0 200" stroke="black" fill="none" marker-end="url(#arrowhead)"/>
<path d="M 254.0 200 Q 224.0 180, 194.0 200" stroke="black" fill="none" marker-end="url(#arrowhead)"/>
<path d="M 254.0 200 Q 236.0 180, 218.0 200" stroke="black" fill="none" marker-end="url(#arrowhead)"/>
<path d="M 266.0 200 Q 230.0 180, 194.0 200" stroke="black" fill="none" marker-end="url(#arrowhead)"/>
<path d="M 266.0 200 Q 242.0 180, 218.0 200" stroke="black" fill="none" marker-end="url(#arrowhead)"/>
<path d="M 266.0 200 Q 260.0 180, 254.0 200" stroke="black" fill="none" marker-end="url(#arrowhead)"/>
<path d="M 266.0 200 Q 218.0 180, 170.0 200" stroke="black" fill="none" marker-end="url(#arrowhead)"/>
<path d="M 266.0 200 Q 254.0 180, 242.0 200" stroke="black" fill="none" marker-end="url(#arrowhead)"/>
<path d="M 278.0 200 Q 260.0 180, 242.0 200" stroke="black" fill="none" marker-end="url(#arrowhead)"/>
<path d="M 278.0 200 Q 266.0 180, 254.0 200" stroke="black" fill="none" marker-end="url(#arrowhead)"/>
<path d="M 278.0 200 Q 272.0 180, 266.0 200" stroke="black" fill="none" marker-end="url(#arrowhead)"/>
<path d="M 290.0 200 Q 278.0 180, 266.0 200" stroke="black" fill="none" marker-end="url(#arrowhead)"/>
<path d="M 302.0 200 Q 284.0 180, 266.0 200" stroke="black" fill="none" marker-end="url(#arrowhead)"/>
<path d="M 302.0 200 Q 296.0 180, 290.0 200" stroke="black" fill="none" marker-end="url(#arrowhead)"/>
<path d="M 326.0 200 Q 248.0 180, 170.0 200" stroke="black" fill="none" marker-end="url(#arrowhead)"/>
<path d="M 338.0 200 Q 332.0 180, 326.0 200" stroke="black" fill="none" marker-end="url(#arrowhead)"/>
<path d="M 350.0 200 Q 326.0 180, 302.0 200" stroke="black" fill="none" marker-end="url(#arrowhead)"/>
<path d="M 350.0 200 Q 320.0 180, 290.0 200" stroke="black" fill="none" marker-end="url(#arrowhead)"/>
<path d="M 362.0 200 Q 332.0 180, 302.0 200" stroke="black" fill="none" marker-end="url(#arrowhead)"/>
<path d="M 362.0 200 Q 356.0 180, 350.0 200" stroke="black" fill="none" marker-end="url(#arrowhead)"/>
<path d="M 362.0 200 Q 326.0 180, 290.0 200" stroke="black" fill="none" marker-end="url(#arrowhead)"/>
<path d="M 374.0 200 Q 212.0 180, 50.0 200" stroke="black" fill="none" marker-end="url(#arrowhead)"/>
<path d="M 374.0 200 Q 350.0 180, 326.0 200" stroke="black" fill="none" marker-end="url(#arrowhead)"/>
<path d="M 374.0 200 Q 230.0 180, 86.0 200" stroke="black" fill="none" marker-end="url(#arrowhead)"/>
<path d="M 386.0 200 Q 380.0 180, 374.0 200" stroke="black" fill="none" marker-end="url(#arrowhead)"/>
<path d="M 386.0 200 Q 218.0 180, 50.0 200" stroke="black" fill="none" marker-end="url(#arrowhead)"/>
<path d="M 386.0 200 Q 356.0 180, 326.0 200" stroke="black" fill="none" marker-end="url(#arrowhead)"/>
<path d="M 386.0 200 Q 236.0 180, 86.0 200" stroke="black" fill="none" marker-end="url(#arrowhead)"/>
<path d="M 398.0 200 Q 392.0 180, 386.0 200" stroke="black" fill="none" marker-end="url(#arrowhead)"/>
<path d="M 398.0 200 Q 386.0 180, 374.0 200" stroke="black" fill="none" marker-end="url(#arrowhead)"/>
<path d="M 398.0 200 Q 362.0 180, 326.0 200" stroke="black" fill="none" marker-end="url(#arrowhead)"/>
<path d="M 398.0 200 Q 224.0 180, 50.0 200" stroke="black" fill="none" marker-end="url(#arrowhead)"/>
<path d="M 398.0 200 Q 242.0 180, 86.0 200" stroke="black" fill="none" marker-end="url(#arrowhead)"/>
<path d="M 410.0 200 Q 230.0 180, 50.0 200" stroke="black" fill="none" marker-end="url(#arrowhead)"/>
<path d="M 410.0 200 Q 392.0 180, 374.0 200" stroke="black" fill="none" marker-end="url(#arrowhead)"/>
<path d="M 410.0 200 Q 398.0 180, 386.0 200" stroke="black" fill="none" marker-end="url(#arrowhead)"/>
<path d="M 410.0 200 Q 404.0 180, 398.0 200" stroke="black" fill="none" marker-end="url(#arrowhead)"/>
<path d="M 422.0 200 Q 398.0 180, 374.0 200" stroke="black" fill="none" marker-end="url(#arrowhead)"/>
<path d="M 446.0 200 Q 440.0 180, 434.0 200" stroke="black" fill="none" marker-end="url(#arrowhead)"/>
<path d="M 458.0 200 Q 452.0 180, 446.0 200" stroke="black" fill="none" marker-end="url(#arrowhead)"/>
<path d="M 458.0 200 Q 254.0 180, 50.0 200" stroke="black" fill="none" marker-end="url(#arrowhead)"/>
<path d="M 458.0 200 Q 272.0 180, 86.0 200" stroke="black" fill="none" marker-end="url(#arrowhead)"/>
<path d="M 470.0 200 Q 398.0 180, 326.0 200" stroke="black" fill="none" marker-end="url(#arrowhead)"/>
<path d="M 470.0 200 Q 446.0 180, 422.0 200" stroke="black" fill="none" marker-end="url(#arrowhead)"/>
<path d="M 482.0 200 Q 404.0 180, 326.0 200" stroke="black" fill="none" marker-end="url(#arrowhead)"/>
<path d="M 482.0 200 Q 476.0 180, 470.0 200" stroke="black" fill="none" marker-end="url(#arrowhead)"/>
<path d="M 482.0 200 Q 452.0 180, 422.0 200" stroke="black" fill="none" marker-end="url(#arrowhead)"/>
<path d="M 494.0 200 Q 482.0 180, 470.0 200" stroke="black" fill="none" marker-end="url(#arrowhead)"/>
<path d="M 494.0 200 Q 488.0 180, 482.0 200" stroke="black" fill="none" marker-end="url(#arrowhead)"/>
<path d="M 506.0 200 Q 488.0 180, 470.0 200" stroke="black" fill="none" marker-end="url(#arrowhead)"/>
<path d="M 506.0 200 Q 494.0 180, 482.0 200" stroke="black" fill="none" marker-end="url(#arrowhead)"/>
<path d="M 506.0 200 Q 500.0 180, 494.0 200" stroke="black" fill="none" marker-end="url(#arrowhead)"/>
<path d="M 518.0 200 Q 494.0 180, 470.0 200" stroke="black" fill="none" marker-end="url(#arrowhead)"/>
<path d="M 518.0 200 Q 500.0 180, 482.0 200" stroke="black" fill="none" marker-end="url(#arrowhead)"/>
<path d="M 518.0 200 Q 506.0 180, 494.0 200" stroke="black" fill="none" marker-end="url(#arrowhead)"/>
<path d="M 530.0 200 Q 524.0 180, 518.0 200" stroke="black" fill="none" marker-end="url(#arrowhead)"/>
<path d="M 542.0 200 Q 530.0 180, 518.0 200" stroke="black" fill="none" marker-end="url(#arrowhead)"/>
<path d="M 554.0 200 Q 536.0 180, 518.0 200" stroke="black" fill="none" marker-end="url(#arrowhead)"/>
<path d="M 554.0 200 Q 548.0 180, 542.0 200" stroke="black" fill="none" marker-end="url(#arrowhead)"/>
<path d="M 566.0 200 Q 326.0 180, 86.0 200" stroke="black" fill="none" marker-end="url(#arrowhead)"/>
<path d="M 566.0 200 Q 308.0 180, 50.0 200" stroke="black" fill="none" marker-end="url(#arrowhead)"/>
<path d="M 566.0 200 Q 446.0 180, 326.0 200" stroke="black" fill="none" marker-end="url(#arrowhead)"/>
<path d="M 566.0 200 Q 560.0 180, 554.0 200" stroke="black" fill="none" marker-end="url(#arrowhead)"/>
<path d="M 578.0 200 Q 566.0 180, 554.0 200" stroke="black" fill="none" marker-end="url(#arrowhead)"/>
<path d="M 590.0 200 Q 560.0 180, 530.0 200" stroke="black" fill="none" marker-end="url(#arrowhead)"/>
<path d="M 602.0 200 Q 596.0 180, 590.0 200" stroke="black" fill="none" marker-end="url(#arrowhead)"/>
<path d="M 602.0 200 Q 566.0 180, 530.0 200" stroke="black" fill="none" marker-end="url(#arrowhead)"/>
<path d="M 614.0 200 Q 602.0 180, 590.0 200" stroke="black" fill="none" marker-end="url(#arrowhead)"/>
<path d="M 614.0 200 Q 572.0 180, 530.0 200" stroke="black" fill="none" marker-end="url(#arrowhead)"/>
<path d="M 614.0 200 Q 608.0 180, 602.0 200" stroke="black" fill="none" marker-end="url(#arrowhead)"/>
<path d="M 626.0 200 Q 596.0 180, 566.0 200" stroke="black" fill="none" marker-end="url(#arrowhead)"/>
<path d="M 638.0 200 Q 344.0 180, 50.0 200" stroke="black" fill="none" marker-end="url(#arrowhead)"/>
<path d="M 638.0 200 Q 632.0 180, 626.0 200" stroke="black" fill="none" marker-end="url(#arrowhead)"/>
<path d="M 638.0 200 Q 602.0 180, 566.0 200" stroke="black" fill="none" marker-end="url(#arrowhead)"/>
<path d="M 650.0 200 Q 350.0 180, 50.0 200" stroke="black" fill="none" marker-end="url(#arrowhead)"/>
<path d="M 650.0 200 Q 638.0 180, 626.0 200" stroke="black" fill="none" marker-end="url(#arrowhead)"/>
<path d="M 650.0 200 Q 608.0 180, 566.0 200" stroke="black" fill="none" marker-end="url(#arrowhead)"/>
<path d="M 662.0 200 Q 650.0 180, 638.0 200" stroke="black" fill="none" marker-end="url(#arrowhead)"/>
<path d="M 662.0 200 Q 656.0 180, 650.0 200" stroke="black" fill="none" marker-end="url(#arrowhead)"/>
<path d="M 662.0 200 Q 356.0 180, 50.0 200" stroke="black" fill="none" marker-end="url(#arrowhead)"/>
<path d="M 662.0 200 Q 644.0 180, 626.0 200" stroke="black" fill="none" marker-end="url(#arrowhead)"/>
<path d="M 674.0 200 Q 656.0 180, 638.0 200" stroke="black" fill="none" marker-end="url(#arrowhead)"/>
<path d="M 674.0 200 Q 662.0 180, 650.0 200" stroke="black" fill="none" marker-end="url(#arrowhead)"/>
<path d="M 674.0 200 Q 650.0 180, 626.0 200" stroke="black" fill="none" marker-end="url(#arrowhead)"/>
<path d="M 686.0 200 Q 668.0 180, 650.0 200" stroke="black" fill="none" marker-end="url(#arrowhead)"/>
<path d="M 686.0 200 Q 662.0 180, 638.0 200" stroke="black" fill="none" marker-end="url(#arrowhead)"/>
<path d="M 686.0 200 Q 680.0 180, 674.0 200" stroke="black" fill="none" marker-end="url(#arrowhead)"/>
<path d="M 686.0 200 Q 368.0 180, 50.0 200" stroke="black" fill="none" marker-end="url(#arrowhead)"/>
<path d="M 686.0 200 Q 656.0 180, 626.0 200" stroke="black" fill="none" marker-end="url(#arrowhead)"/>
<path d="M 698.0 200 Q 686.0 180, 674.0 200" stroke="black" fill="none" marker-end="url(#arrowhead)"/>
<path d="M 710.0 200 Q 692.0 180, 674.0 200" stroke="black" fill="none" marker-end="url(#arrowhead)"/>
<path d="M 710.0 200 Q 704.0 180, 698.0 200" stroke="black" fill="none" marker-end="url(#arrowhead)"/>
<path d="M 722.0 200 Q 716.0 180, 710.0 200" stroke="black" fill="none" marker-end="url(#arrowhead)"/>
<path d="M 746.0 200 Q 740.0 180, 734.0 200" stroke="black" fill="none" marker-end="url(#arrowhead)"/>
<path d="M 758.0 200 Q 746.0 180, 734.0 200" stroke="black" fill="none" marker-end="url(#arrowhead)"/>
<path d="M 758.0 200 Q 752.0 180, 746.0 200" stroke="black" fill="none" marker-end="url(#arrowhead)"/>
<path d="M 770.0 200 Q 428.0 180, 86.0 200" stroke="black" fill="none" marker-end="url(#arrowhead)"/>
<path d="M 770.0 200 Q 410.0 180, 50.0 200" stroke="black" fill="none" marker-end="url(#arrowhead)"/>
<path d="M 770.0 200 Q 764.0 180, 758.0 200" stroke="black" fill="none" marker-end="url(#arrowhead)"/>
<path d="M 782.0 200 Q 776.0 180, 770.0 200" stroke="black" fill="none" marker-end="url(#arrowhead)"/>
<path d="M 794.0 200 Q 788.0 180, 782.0 200" stroke="black" fill="none" marker-end="url(#arrowhead)"/>
<path d="M 794.0 200 Q 782.0 180, 770.0 200" stroke="black" fill="none" marker-end="url(#arrowhead)"/>
<path d="M 830.0 200 Q 824.0 180, 818.0 200" stroke="black" fill="none" marker-end="url(#arrowhead)"/>
<path d="M 842.0 200 Q 836.0 180, 830.0 200" stroke="black" fill="none" marker-end="url(#arrowhead)"/>
<path d="M 854.0 200 Q 842.0 180, 830.0 200" stroke="black" fill="none" marker-end="url(#arrowhead)"/>
<path d="M 914.0 200 Q 482.0 180, 50.0 200" stroke="black" fill="none" marker-end="url(#arrowhead)"/>
<path d="M 914.0 200 Q 908.0 180, 902.0 200" stroke="black" fill="none" marker-end="url(#arrowhead)"/>
<path d="M 926.0 200 Q 920.0 180, 914.0 200" stroke="black" fill="none" marker-end="url(#arrowhead)"/>
<path d="M 926.0 200 Q 488.0 180, 50.0 200" stroke="black" fill="none" marker-end="url(#arrowhead)"/>
<path d="M 926.0 200 Q 914.0 180, 902.0 200" stroke="black" fill="none" marker-end="url(#arrowhead)"/>
<path d="M 938.0 200 Q 926.0 180, 914.0 200" stroke="black" fill="none" marker-end="url(#arrowhead)"/>
<path d="M 938.0 200 Q 932.0 180, 926.0 200" stroke="black" fill="none" marker-end="url(#arrowhead)"/>
<path d="M 1034.0 200 Q 1028.0 180, 1022.0 200" stroke="black" fill="none" marker-end="url(#arrowhead)"/>
<path d="M 1046.0 200 Q 1034.0 180, 1022.0 200" stroke="black" fill="none" marker-end="url(#arrowhead)"/>
<path d="M 1046.0 200 Q 1040.0 180, 1034.0 200" stroke="black" fill="none" marker-end="url(#arrowhead)"/>
<path d="M 1058.0 200 Q 1052.0 180, 1046.0 200" stroke="black" fill="none" marker-end="url(#arrowhead)"/>
<path d="M 1082.0 200 Q 1076.0 180, 1070.0 200" stroke="black" fill="none" marker-end="url(#arrowhead)"/>
<path d="M 1094.0 200 Q 1082.0 180, 1070.0 200" stroke="black" fill="none" marker-end="url(#arrowhead)"/>
<path d="M 1094.0 200 Q 1088.0 180, 1082.0 200" stroke="black" fill="none" marker-end="url(#arrowhead)"/>
<path d="M 1106.0 200 Q 1100.0 180, 1094.0 200" stroke="black" fill="none" marker-end="url(#arrowhead)"/>
<path d="M 1118.0 200 Q 1106.0 180, 1094.0 200" stroke="black" fill="none" marker-end="url(#arrowhead)"/>
<path d="M 1118.0 200 Q 1112.0 180, 1106.0 200" stroke="black" fill="none" marker-end="url(#arrowhead)"/>
<path d="M 1130.0 200 Q 1124.0 180, 1118.0 200" stroke="black" fill="none" marker-end="url(#arrowhead)"/>
<path d="M 1130.0 200 Q 1112.0 180, 1094.0 200" stroke="black" fill="none" marker-end="url(#arrowhead)"/>
<path d="M 1130.0 200 Q 1118.0 180, 1106.0 200" stroke="black" fill="none" marker-end="url(#arrowhead)"/>
<path d="M 1154.0 200 Q 602.0 180, 50.0 200" stroke="black" fill="none" marker-end="url(#arrowhead)"/>
<path d="M 1154.0 200 Q 1148.0 180, 1142.0 200" stroke="black" fill="none" marker-end="url(#arrowhead)"/>
<path d="M 1154.0 200 Q 620.0 180, 86.0 200" stroke="black" fill="none" marker-end="url(#arrowhead)"/>
<path d="M 1154.0 200 Q 956.0 180, 758.0 200" stroke="black" fill="none" marker-end="url(#arrowhead)"/>
<path d="M 1166.0 200 Q 608.0 180, 50.0 200" stroke="black" fill="none" marker-end="url(#arrowhead)"/>
<path d="M 1166.0 200 Q 1154.0 180, 1142.0 200" stroke="black" fill="none" marker-end="url(#arrowhead)"/>
<path d="M 1166.0 200 Q 626.0 180, 86.0 200" stroke="black" fill="none" marker-end="url(#arrowhead)"/>
<path d="M 1166.0 200 Q 962.0 180, 758.0 200" stroke="black" fill="none" marker-end="url(#arrowhead)"/>
<path d="M 1178.0 200 Q 1172.0 180, 1166.0 200" stroke="black" fill="none" marker-end="url(#arrowhead)"/>
<path d="M 1178.0 200 Q 1160.0 180, 1142.0 200" stroke="black" fill="none" marker-end="url(#arrowhead)"/>
<path d="M 1178.0 200 Q 968.0 180, 758.0 200" stroke="black" fill="none" marker-end="url(#arrowhead)"/>
<path d="M 1178.0 200 Q 614.0 180, 50.0 200" stroke="black" fill="none" marker-end="url(#arrowhead)"/>
<path d="M 1178.0 200 Q 632.0 180, 86.0 200" stroke="black" fill="none" marker-end="url(#arrowhead)"/>

<defs>
  <marker id="arrowhead" markerWidth="5" markerHeight="5" 
          refX="2" refY="2" orient="auto" fill="black">
    <path d="M0,0 L0,4 L4,2 z" />
  </marker>
</defs>

<circle cx="50.0" cy="200" r="6" fill="none" stroke="blue" stroke-width="2" />
<circle cx="50.0" cy="200" r="3" fill="blue" />
<circle cx="62.0" cy="200" r="4" fill="red" />
<circle cx="74.0" cy="200" r="6" fill="none" stroke="red" stroke-width="2" />
<circle cx="74.0" cy="200" r="3" fill="red" />
<circle cx="86.0" cy="200" r="6" fill="none" stroke="blue" stroke-width="2" />
<circle cx="86.0" cy="200" r="3" fill="blue" />
<circle cx="98.0" cy="200" r="4" fill="red" />
<circle cx="110.0" cy="200" r="6" fill="none" stroke="black" stroke-width="2" />
<circle cx="110.0" cy="200" r="3" fill="black" />
<circle cx="122.0" cy="200" r="6" fill="none" stroke="black" stroke-width="2" />
<circle cx="122.0" cy="200" r="3" fill="black" />
<circle cx="134.0" cy="200" r="4" fill="black" />
<circle cx="146.0" cy="200" r="4" fill="red" />
<circle cx="158.0" cy="200" r="6" fill="none" stroke="red" stroke-width="2" />
<circle cx="158.0" cy="200" r="3" fill="red" />
<circle cx="170.0" cy="200" r="4" fill="blue" />
<circle cx="182.0" cy="200" r="4" fill="black" />
<circle cx="194.0" cy="200" r="6" fill="none" stroke="black" stroke-width="2" />
<circle cx="194.0" cy="200" r="3" fill="black" />
<circle cx="206.0" cy="200" r="4" fill="blue" />
<circle cx="218.0" cy="200" r="4" fill="black" />
<circle cx="230.0" cy="200" r="4" fill="green" />
<circle cx="242.0" cy="200" r="6" fill="none" stroke="black" stroke-width="2" />
<circle cx="242.0" cy="200" r="3" fill="black" />
<circle cx="254.0" cy="200" r="4" fill="black" />
<circle cx="266.0" cy="200" r="6" fill="none" stroke="blue" stroke-width="2" />
<circle cx="266.0" cy="200" r="3" fill="blue" />
<circle cx="278.0" cy="200" r="4" fill="red" />
<circle cx="290.0" cy="200" r="6" fill="none" stroke="black" stroke-width="2" />
<circle cx="290.0" cy="200" r="3" fill="black" />
<circle cx="302.0" cy="200" r="4" fill="black" />
<circle cx="314.0" cy="200" r="6" fill="none" stroke="blue" stroke-width="2" />
<circle cx="314.0" cy="200" r="3" fill="blue" />
<circle cx="326.0" cy="200" r="6" fill="none" stroke="blue" stroke-width="2" />
<circle cx="326.0" cy="200" r="3" fill="blue" />
<circle cx="338.0" cy="200" r="6" fill="none" stroke="black" stroke-width="2" />
<circle cx="338.0" cy="200" r="3" fill="black" />
<circle cx="350.0" cy="200" r="6" fill="none" stroke="black" stroke-width="2" />
<circle cx="350.0" cy="200" r="3" fill="black" />
<circle cx="362.0" cy="200" r="4" fill="black" />
<circle cx="374.0" cy="200" r="4" fill="red" />
<circle cx="386.0" cy="200" r="6" fill="none" stroke="black" stroke-width="2" />
<circle cx="386.0" cy="200" r="3" fill="black" />
<circle cx="398.0" cy="200" r="4" fill="black" />
<circle cx="410.0" cy="200" r="6" fill="none" stroke="black" stroke-width="2" />
<circle cx="410.0" cy="200" r="3" fill="black" />
<circle cx="422.0" cy="200" r="6" fill="none" stroke="blue" stroke-width="2" />
<circle cx="422.0" cy="200" r="3" fill="blue" />
<circle cx="434.0" cy="200" r="6" fill="none" stroke="blue" stroke-width="2" />
<circle cx="434.0" cy="200" r="3" fill="blue" />
<circle cx="446.0" cy="200" r="4" fill="red" />
<circle cx="458.0" cy="200" r="6" fill="none" stroke="black" stroke-width="2" />
<circle cx="458.0" cy="200" r="3" fill="black" />
<circle cx="470.0" cy="200" r="4" fill="red" />
<circle cx="482.0" cy="200" r="6" fill="none" stroke="black" stroke-width="2" />
<circle cx="482.0" cy="200" r="3" fill="black" />
<circle cx="494.0" cy="200" r="4" fill="black" />
<circle cx="506.0" cy="200" r="4" fill="green" />
<circle cx="518.0" cy="200" r="6" fill="none" stroke="black" stroke-width="2" />
<circle cx="518.0" cy="200" r="3" fill="black" />
<circle cx="530.0" cy="200" r="4" fill="black" />
<circle cx="542.0" cy="200" r="4" fill="black" />
<circle cx="554.0" cy="200" r="6" fill="none" stroke="blue" stroke-width="2" />
<circle cx="554.0" cy="200" r="3" fill="blue" />
<circle cx="566.0" cy="200" r="6" fill="none" stroke="blue" stroke-width="2" />
<circle cx="566.0" cy="200" r="3" fill="blue" />
<circle cx="578.0" cy="200" r="4" fill="blue" />
<circle cx="590.0" cy="200" r="6" fill="none" stroke="black" stroke-width="2" />
<circle cx="590.0" cy="200" r="3" fill="black" />
<circle cx="602.0" cy="200" r="4" fill="black" />
<circle cx="614.0" cy="200" r="6" fill="none" stroke="black" stroke-width="2" />
<circle cx="614.0" cy="200" r="3" fill="black" />
<circle cx="626.0" cy="200" r="6" fill="none" stroke="blue" stroke-width="2" />
<circle cx="626.0" cy="200" r="3" fill="blue" />
<circle cx="638.0" cy="200" r="4" fill="red" />
<circle cx="650.0" cy="200" r="4" fill="red" />
<circle cx="662.0" cy="200" r="4" fill="blue" />
<circle cx="674.0" cy="200" r="6" fill="none" stroke="black" stroke-width="2" />
<circle cx="674.0" cy="200" r="3" fill="black" />
<circle cx="686.0" cy="200" r="4" fill="black" />
<circle cx="698.0" cy="200" r="4" fill="black" />
<circle cx="710.0" cy="200" r="6" fill="none" stroke="blue" stroke-width="2" />
<circle cx="710.0" cy="200" r="3" fill="blue" />
<circle cx="722.0" cy="200" r="6" fill="none" stroke="blue" stroke-width="2" />
<circle cx="722.0" cy="200" r="3" fill="blue" />
<circle cx="734.0" cy="200" r="6" fill="none" stroke="blue" stroke-width="2" />
<circle cx="734.0" cy="200" r="3" fill="blue" />
<circle cx="746.0" cy="200" r="4" fill="blue" />
<circle cx="758.0" cy="200" r="6" fill="none" stroke="black" stroke-width="2" />
<circle cx="758.0" cy="200" r="3" fill="black" />
<circle cx="770.0" cy="200" r="6" fill="none" stroke="red" stroke-width="2" />
<circle cx="770.0" cy="200" r="3" fill="red" />
<circle cx="782.0" cy="200" r="4" fill="black" />
<circle cx="794.0" cy="200" r="6" fill="none" stroke="blue" stroke-width="2" />
<circle cx="794.0" cy="200" r="3" fill="blue" />
<circle cx="806.0" cy="200" r="6" fill="none" stroke="blue" stroke-width="2" />
<circle cx="806.0" cy="200" r="3" fill="blue" />
<circle cx="818.0" cy="200" r="6" fill="none" stroke="blue" stroke-width="2" />
<circle cx="818.0" cy="200" r="3" fill="blue" />
<circle cx="830.0" cy="200" r="4" fill="blue" />
<circle cx="842.0" cy="200" r="6" fill="none" stroke="green" stroke-width="2" />
<circle cx="842.0" cy="200" r="3" fill="green" />
<circle cx="854.0" cy="200" r="6" fill="none" stroke="blue" stroke-width="2" />
<circle cx="854.0" cy="200" r="3" fill="blue" />
<circle cx="866.0" cy="200" r="6" fill="none" stroke="blue" stroke-width="2" />
<circle cx="866.0" cy="200" r="3" fill="blue" />
<circle cx="878.0" cy="200" r="6" fill="none" stroke="blue" stroke-width="2" />
<circle cx="878.0" cy="200" r="3" fill="blue" />
<circle cx="890.0" cy="200" r="6" fill="none" stroke="blue" stroke-width="2" />
<circle cx="890.0" cy="200" r="3" fill="blue" />
<circle cx="902.0" cy="200" r="6" fill="none" stroke="red" stroke-width="2" />
<circle cx="902.0" cy="200" r="3" fill="red" />
<circle cx="914.0" cy="200" r="4" fill="green" />
<circle cx="926.0" cy="200" r="6" fill="none" stroke="blue" stroke-width="2" />
<circle cx="926.0" cy="200" r="3" fill="blue" />
<circle cx="938.0" cy="200" r="6" fill="none" stroke="blue" stroke-width="2" />
<circle cx="938.0" cy="200" r="3" fill="blue" />
<circle cx="950.0" cy="200" r="6" fill="none" stroke="blue" stroke-width="2" />
<circle cx="950.0" cy="200" r="3" fill="blue" />
<circle cx="962.0" cy="200" r="6" fill="none" stroke="blue" stroke-width="2" />
<circle cx="962.0" cy="200" r="3" fill="blue" />
<circle cx="974.0" cy="200" r="6" fill="none" stroke="blue" stroke-width="2" />
<circle cx="974.0" cy="200" r="3" fill="blue" />
<circle cx="986.0" cy="200" r="6" fill="none" stroke="black" stroke-width="2" />
<circle cx="986.0" cy="200" r="3" fill="black" />
<circle cx="998.0" cy="200" r="6" fill="none" stroke="blue" stroke-width="2" />
<circle cx="998.0" cy="200" r="3" fill="blue" />
<circle cx="1010.0" cy="200" r="6" fill="none" stroke="blue" stroke-width="2" />
<circle cx="1010.0" cy="200" r="3" fill="blue" />
<circle cx="1022.0" cy="200" r="4" fill="red" />
<circle cx="1034.0" cy="200" r="6" fill="none" stroke="blue" stroke-width="2" />
<circle cx="1034.0" cy="200" r="3" fill="blue" />
<circle cx="1046.0" cy="200" r="6" fill="none" stroke="black" stroke-width="2" />
<circle cx="1046.0" cy="200" r="3" fill="black" />
<circle cx="1058.0" cy="200" r="4" fill="black" />
<circle cx="1070.0" cy="200" r="6" fill="none" stroke="black" stroke-width="2" />
<circle cx="1070.0" cy="200" r="3" fill="black" />
<circle cx="1082.0" cy="200" r="4" fill="black" />
<circle cx="1094.0" cy="200" r="6" fill="none" stroke="black" stroke-width="2" />
<circle cx="1094.0" cy="200" r="3" fill="black" />
<circle cx="1106.0" cy="200" r="4" fill="green" />
<circle cx="1118.0" cy="200" r="4" fill="green" />
<circle cx="1130.0" cy="200" r="6" fill="none" stroke="blue" stroke-width="2" />
<circle cx="1130.0" cy="200" r="3" fill="blue" />
<circle cx="1142.0" cy="200" r="6" fill="none" stroke="blue" stroke-width="2" />
<circle cx="1142.0" cy="200" r="3" fill="blue" />
<circle cx="1154.0" cy="200" r="6" fill="none" stroke="blue" stroke-width="2" />
<circle cx="1154.0" cy="200" r="3" fill="blue" />
<circle cx="1166.0" cy="200" r="6" fill="none" stroke="blue" stroke-width="2" />
<circle cx="1166.0" cy="200" r="3" fill="blue" />
<circle cx="1178.0" cy="200" r="6" fill="none" stroke="blue" stroke-width="2" />
<circle cx="1178.0" cy="200" r="3" fill="blue" />
<circle cx="1190.0" cy="200" r="6" fill="none" stroke="blue" stroke-width="2" />
<circle cx="1190.0" cy="200" r="3" fill="blue" />
<text x="50" y="225" fill="gray" style="font-size:12px;">2023-06-25T12:05:09+00:00</text>
<text x="900" y="225" fill="gray" style="font-size:12px;">2025-01-11T05:46:11+00:00</text>
</svg>