<svg xmlns="http://www.w3.org/2000/svg" width="1000" height="400" style="background-color: white; font-family: sans-serif;">
<line x1="50" y1="200" x2="950" y2="200" stroke="gray" stroke-width="1"/>
<path d="M 62.0 200 Q 56.0 180, 50.0 200" stroke="black" fill="none" marker-end="url(#arrowhead)"/>
<path d="M 97.40136367013271 200 Q 73.70068183506635 180, 50.0 200" stroke="black" fill="none" marker-end="url(#arrowhead)"/>
<path d="M 97.40136367013271 200 Q 79.70068183506635 180, 62.0 200" stroke="black" fill="none" marker-end="url(#arrowhead)"/>
<path d="M 109.40136367013271 200 Q 79.70068183506635 180, 50.0 200" stroke="black" fill="none" marker-end="url(#arrowhead)"/>
<path d="M 121.40136367013271 200 Q 91.70068183506635 180, 62.0 200" stroke="black" fill="none" marker-end="url(#arrowhead)"/>
<path d="M 121.40136367013271 200 Q 109.40136367013271 180, 97.40136367013271 200" stroke="black" fill="none" marker-end="url(#arrowhead)"/>
<path d="M 215.2513131791179 200 Q 162.3263384246253 180, 109.40136367013271 200" stroke="black" fill="none" marker-end="url(#arrowhead)"/>
<path d="M 215.2513131791179 200 Q 168.3263384246253 180, 121.40136367013271 200" stroke="black" fill="none" marker-end="url(#arrowhead)"/>
<path d="M 573.0116583340442 200 Q 341.20651100208846 180, 109.40136367013271 200" stroke="black" fill="none" marker-end="url(#arrowhead)"/>
<path d="M 573.0116583340442 200 Q 347.20651100208846 180, 121.40136367013271 200" stroke="black" fill="none" marker-end="url(#arrowhead)"/>
<path d="M 573.0116583340442 200 Q 394.13148575658107 180, 215.2513131791179 200" stroke="black" fill="none" marker-end="url(#arrowhead)"/>
<path d="M 585.0116583340442 200 Q 400.13148575658107 180, 215.2513131791179 200" stroke="black" fill="none" marker-end="url(#arrowhead)"/>
<path d="M 597.0116583340442 200 Q 406.13148575658107 180, 215.2513131791179 200" stroke="black" fill="none" marker-end="url(#arrowhead)"/>
<path d="M 597.0116583340442 200 Q 585.0116583340442 180, 573.0116583340442 200" stroke="black" fill="none" marker-end="url(#arrowhead)"/>
<path d="M 597.0116583340442 200 Q 591.0116583340442 180, 585.0116583340442 200" stroke="black" fill="none" marker-end="url(#arrowhead)"/>
<path d="M 634.4702983509937 200 Q 371.9358310105632 180, 109.40136367013271 200" stroke="black" fill="none" marker-end="url(#arrowhead)"/>
<path d="M 646.4702983509937 200 Q 621.7409783425189 180, 597.0116583340442 200" stroke="black" fill="none" marker-end="url(#arrowhead)"/>
<path d="M 658.4702983509937 200 Q 627.7409783425189 180, 597.0116583340442 200" stroke="black" fill="none" marker-end="url(#arrowhead)"/>
<path d="M 658.4702983509937 200 Q 652.4702983509937 180, 646.4702983509937 200" stroke="black" fill="none" marker-end="url(#arrowhead)"/>
<path d="M 658.4702983509937 200 Q 436.86080576505583 180, 215.2513131791179 200" stroke="black" fill="none" marker-end="url(#arrowhead)"/>
<path d="M 670.4702983509937 200 Q 633.7409783425189 180, 597.0116583340442 200" stroke="black" fill="none" marker-end="url(#arrowhead)"/>
<path d="M 670.4702983509937 200 Q 658.4702983509937 180, 646.4702983509937 200" stroke="black" fill="none" marker-end="url(#arrowhead)"/>
<path d="M 670.4702983509937 200 Q 442.86080576505583 180, 215.2513131791179 200" stroke="black" fill="none" marker-end="url(#arrowhead)"/>
<path d="M 670.4702983509937 200 Q 664.4702983509937 180, 658.4702983509937 200" stroke="black" fill="none" marker-end="url(#arrowhead)"/>
<path d="M 682.4702983509937 200 Q 676.4702983509937 180, 670.4702983509937 200" stroke="black" fill="none" marker-end="url(#arrowhead)"/>
<path d="M 694.4702983509937 200 Q 682.4702983509937 180, 670.4702983509937 200" stroke="black" fill="none" marker-end="url(#arrowhead)"/>
<path d="M 694.4702983509937 200 Q 688.4702983509937 180, 682.4702983509937 200" stroke="black" fill="none" marker-end="url(#arrowhead)"/>
<path d="M 726.9167324746651 200 Q 710.6935154128294 180, 694.4702983509937 200" stroke="black" fill="none" marker-end="url(#arrowhead)"/>
<path d="M 726.9167324746651 200 Q 704.6935154128294 180, 682.4702983509937 200" stroke="black" fill="none" marker-end="url(#arrowhead)"/>
<path d="M 752.8347196579268 200 Q 723.6525090044603 180, 694.4702983509937 200" stroke="black" fill="none" marker-end="url(#arrowhead)"/>
<path d="M 752.8347196579268 200 Q 739.875726066296 180, 726.9167324746651 200" stroke="black" fill="none" marker-end="url(#arrowhead)"/>
<path d="M 752.8347196579268 200 Q 717.6525090044603 180, 682.4702983509937 200" stroke="black" fill="none" marker-end="url(#arrowhead)"/>
<path d="M 830.5366768382444 200 Q 791.6856982480856 180, 752.8347196579268 200" stroke="black" fill="none" marker-end="url(#arrowhead)"/>
<path d="M 858.4679760394683 200 Q 844.5023264388564 180, 830.5366768382444 200" stroke="black" fill="none" marker-end="url(#arrowhead)"/>
<path d="M 896.5562238774348 200 Q 877.5120999584516 180, 858.4679760394683 200" stroke="black" fill="none" marker-end="url(#arrowhead)"/>
<path d="M 908.5562238774348 200 Q 777.5132611142143 180, 646.4702983509937 200" stroke="black" fill="none" marker-end="url(#arrowhead)"/>
<path d="M 908.5562238774348 200 Q 902.5562238774348 180, 896.5562238774348 200" stroke="black" fill="none" marker-end="url(#arrowhead)"/>
<path d="M 941.0961090275733 200 Q 924.8261664525041 180, 908.5562238774348 200" stroke="black" fill="none" marker-end="url(#arrowhead)"/>

<defs>
  <marker id="arrowhead" markerWidth="5" markerHeight="5" 
          refX="2" refY="2" orient="auto" fill="black">
    <path d="M0,0 L0,4 L4,2 z" />
  </marker>
</defs>

<circle cx="50.0" cy="200" r="6" fill="none" stroke="blue" stroke-width="2" />
<circle cx="50.0" cy="200" r="3" fill="blue" />
<circle cx="62.0" cy="200" r="4" fill="red" />
<circle cx="97.40136367013271" cy="200" r="6" fill="none" stroke="black" stroke-width="2" />
<circle cx="97.40136367013271" cy="200" r="3" fill="black" />
<circle cx="109.40136367013271" cy="200" r="4" fill="red" />
<circle cx="121.40136367013271" cy="200" r="4" fill="black" />
<circle cx="215.2513131791179" cy="200" r="6" fill="none" stroke="blue" stroke-width="2" />
<circle cx="215.2513131791179" cy="200" r="3" fill="blue" />
<circle cx="573.0116583340442" cy="200" r="4" fill="black" />
<circle cx="585.0116583340442" cy="200" r="4" fill="red" />
<circle cx="597.0116583340442" cy="200" r="6" fill="none" stroke="blue" stroke-width="2" />
<circle cx="597.0116583340442" cy="200" r="3" fill="blue" />
<circle cx="634.4702983509937" cy="200" r="6" fill="none" stroke="blue" stroke-width="2" />
<circle cx="634.4702983509937" cy="200" r="3" fill="blue" />
<circle cx="646.4702983509937" cy="200" r="4" fill="red" />
<circle cx="658.4702983509937" cy="200" r="6" fill="none" stroke="red" stroke-width="2" />
<circle cx="658.4702983509937" cy="200" r="3" fill="red" />
<circle cx="670.4702983509937" cy="200" r="6" fill="none" stroke="blue" stroke-width="2" />
<circle cx="670.4702983509937" cy="200" r="3" fill="blue" />
<circle cx="682.4702983509937" cy="200" r="4" fill="red" />
<circle cx="694.4702983509937" cy="200" r="6" fill="none" stroke="blue" stroke-width="2" />
<circle cx="694.4702983509937" cy="200" r="3" fill="blue" />
<circle cx="726.9167324746651" cy="200" r="4" fill="red" />
<circle cx="752.8347196579268" cy="200" r="6" fill="none" stroke="black" stroke-width="2" />
<circle cx="752.8347196579268" cy="200" r="3" fill="black" />
<circle cx="830.5366768382444" cy="200" r="4" fill="black" />
<circle cx="858.4679760394683" cy="200" r="6" fill="none" stroke="blue" stroke-width="2" />
<circle cx="858.4679760394683" cy="200" r="3" fill="blue" />
<circle cx="896.5562238774348" cy="200" r="4" fill="red" />
<circle cx="908.5562238774348" cy="200" r="6" fill="none" stroke="blue" stroke-width="2" />
<circle cx="908.5562238774348" cy="200" r="3" fill="blue" />
<circle cx="941.0961090275733" cy="200" r="4" fill="green" />
<circle cx="953.0961090275733" cy="200" r="6" fill="none" stroke="blue" stroke-width="2" />
<circle cx="953.0961090275733" cy="200" r="3" fill="blue" />
<text x="50" y="225" fill="gray" style="font-size:12px;">2024-12-25T03:37:04+00:00</text>
<text x="900" y="225" fill="gray" style="font-size:12px;">2025-01-10T23:25:48+00:00</text>
</svg>