<svg xmlns="http://www.w3.org/2000/svg" width="1000" height="200" style="background-color: white; font-family: sans-serif;">
<line x1="50" y1="100" x2="950" y2="100" stroke="gray" stroke-width="1"/>
<path d="M 176.70405722855156 100 Q 113.35202861427578 80, 50.0 100" stroke="black" fill="none" marker-end="url(#arrowhead)"/>
<path d="M 200.70405722855156 100 Q 188.70405722855156 80, 176.70405722855156 100" stroke="black" fill="none" marker-end="url(#arrowhead)"/>
<path d="M 212.70405722855156 100 Q 206.70405722855156 80, 200.70405722855156 100" stroke="black" fill="none" marker-end="url(#arrowhead)"/>
<path d="M 212.70405722855156 100 Q 200.70405722855156 80, 188.70405722855156 100" stroke="black" fill="none" marker-end="url(#arrowhead)"/>
<path d="M 224.70405722855156 100 Q 218.70405722855156 80, 212.70405722855156 100" stroke="black" fill="none" marker-end="url(#arrowhead)"/>
<path d="M 236.70405722855156 100 Q 230.70405722855156 80, 224.70405722855156 100" stroke="black" fill="none" marker-end="url(#arrowhead)"/>
<path d="M 248.70405722855156 100 Q 224.70405722855156 80, 200.70405722855156 100" stroke="black" fill="none" marker-end="url(#arrowhead)"/>
<path d="M 451.2545700180677 100 Q 337.9793136233096 80, 224.70405722855156 100" stroke="black" fill="none" marker-end="url(#arrowhead)"/>
<path d="M 579.5145774999919 100 Q 402.10931736427176 80, 224.70405722855156 100" stroke="black" fill="none" marker-end="url(#arrowhead)"/>
<path d="M 816.3444576585171 100 Q 810.3444576585171 80, 804.3444576585171 100" stroke="black" fill="none" marker-end="url(#arrowhead)"/>
<path d="M 828.3444576585171 100 Q 822.3444576585171 80, 816.3444576585171 100" stroke="black" fill="none" marker-end="url(#arrowhead)"/>
<path d="M 846.8217954330859 100 Q 837.5831265458014 80, 828.3444576585171 100" stroke="black" fill="none" marker-end="url(#arrowhead)"/>
<path d="M 865.7230471034499 100 Q 545.2135521660007 80, 224.70405722855156 100" stroke="black" fill="none" marker-end="url(#arrowhead)"/>
<path d="M 865.7230471034499 100 Q 856.2724212682679 80, 846.8217954330859 100" stroke="black" fill="none" marker-end="url(#arrowhead)"/>
<path d="M 888.2292221412679 100 Q 876.9761346223588 80, 865.7230471034499 100" stroke="black" fill="none" marker-end="url(#arrowhead)"/>
<path d="M 902.4992567084108 100 Q 895.3642394248393 80, 888.2292221412679 100" stroke="black" fill="none" marker-end="url(#arrowhead)"/>
<path d="M 914.4992567084108 100 Q 908.4992567084108 80, 902.4992567084108 100" stroke="black" fill="none" marker-end="url(#arrowhead)"/>
<path d="M 926.4992567084108 100 Q 920.4992567084108 80, 914.4992567084108 100" stroke="black" fill="none" marker-end="url(#arrowhead)"/>
<path d="M 938.4992567084108 100 Q 932.4992567084108 80, 926.4992567084108 100" stroke="black" fill="none" marker-end="url(#arrowhead)"/>
<path d="M 950.4992567084108 100 Q 944.4992567084108 80, 938.4992567084108 100" stroke="black" fill="none" marker-end="url(#arrowhead)"/>
<path d="M 962.4992567084108 100 Q 956.4992567084108 80, 950.4992567084108 100" stroke="black" fill="none" marker-end="url(#arrowhead)"/>
<path d="M 974.4992567084108 100 Q 968.4992567084108 80, 962.4992567084108 100" stroke="black" fill="none" marker-end="url(#arrowhead)"/>

<defs>
  <marker id="arrowhead" markerWidth="5" markerHeight="5" 
          refX="2" refY="2" orient="auto" fill="black">
    <path d="M0,0 L0,4 L4,2 z" />
  </marker>
</defs>

<circle cx="50.0" cy="100" r="6" fill="none" stroke="black" stroke-width="2" />
<circle cx="50.0" cy="100" r="3" fill="black" />
<circle cx="176.70405722855156" cy="100" r="6" fill="none" stroke="blue" stroke-width="2" />
<circle cx="176.70405722855156" cy="100" r="3" fill="blue" />
<circle cx="188.70405722855156" cy="100" r="6" fill="none" stroke="black" stroke-width="2" />
<circle cx="188.70405722855156" cy="100" r="3" fill="black" />
<circle cx="200.70405722855156" cy="100" r="6" fill="none" stroke="blue" stroke-width="2" />
<circle cx="200.70405722855156" cy="100" r="3" fill="blue" />
<circle cx="212.70405722855156" cy="100" r="4" fill="red" />
<circle cx="224.70405722855156" cy="100" r="6" fill="none" stroke="black" stroke-width="2" />
<circle cx="224.70405722855156" cy="100" r="3" fill="black" />
<circle cx="236.70405722855156" cy="100" r="6" fill="none" stroke="blue" stroke-width="2" />
<circle cx="236.70405722855156" cy="100" r="3" fill="blue" />
<circle cx="248.70405722855156" cy="100" r="6" fill="none" stroke="blue" stroke-width="2" />
<circle cx="248.70405722855156" cy="100" r="3" fill="blue" />
<circle cx="451.2545700180677" cy="100" r="6" fill="none" stroke="black" stroke-width="2" />
<circle cx="451.2545700180677" cy="100" r="3" fill="black" />
<circle cx="579.5145774999919" cy="100" r="6" fill="none" stroke="blue" stroke-width="2" />
<circle cx="579.5145774999919" cy="100" r="3" fill="blue" />
<circle cx="742.3688866308798" cy="100" r="6" fill="none" stroke="blue" stroke-width="2" />
<circle cx="742.3688866308798" cy="100" r="3" fill="blue" />
<circle cx="804.3444576585171" cy="100" r="4" fill="black" />
<circle cx="816.3444576585171" cy="100" r="6" fill="none" stroke="black" stroke-width="2" />
<circle cx="816.3444576585171" cy="100" r="3" fill="black" />
<circle cx="828.3444576585171" cy="100" r="4" fill="green" />
<circle cx="846.8217954330859" cy="100" r="4" fill="green" />
<circle cx="865.7230471034499" cy="100" r="6" fill="none" stroke="blue" stroke-width="2" />
<circle cx="865.7230471034499" cy="100" r="3" fill="blue" />
<circle cx="888.2292221412679" cy="100" r="4" fill="black" />
<circle cx="902.4992567084108" cy="100" r="6" fill="none" stroke="black" stroke-width="2" />
<circle cx="902.4992567084108" cy="100" r="3" fill="black" />
<circle cx="914.4992567084108" cy="100" r="4" fill="blue" />
<circle cx="926.4992567084108" cy="100" r="6" fill="none" stroke="blue" stroke-width="2" />
<circle cx="926.4992567084108" cy="100" r="3" fill="blue" />
<circle cx="938.4992567084108" cy="100" r="6" fill="none" stroke="black" stroke-width="2" />
<circle cx="938.4992567084108" cy="100" r="3" fill="black" />
<circle cx="950.4992567084108" cy="100" r="6" fill="none" stroke="blue" stroke-width="2" />
<circle cx="950.4992567084108" cy="100" r="3" fill="blue" />
<circle cx="962.4992567084108" cy="100" r="6" fill="none" stroke="blue" stroke-width="2" />
<circle cx="962.4992567084108" cy="100" r="3" fill="blue" />
<circle cx="974.4992567084108" cy="100" r="6" fill="none" stroke="black" stroke-width="2" />
<circle cx="974.4992567084108" cy="100" r="3" fill="black" />
<text x="50" y="125" fill="gray" style="font-size:12px;">2024-05-23T00:05:48+00:00</text>
<text x="900" y="125" fill="gray" style="font-size:12px;">2024-11-09T01:02:36+00:00</text>
</svg>