<svg xmlns="http://www.w3.org/2000/svg" width="1000" height="200" style="background-color: white; font-family: sans-serif;">
<line x1="50" y1="100" x2="950" y2="100" stroke="gray" stroke-width="1"/>
<path d="M 195.73395913270264 100 Q 122.86697956635132 80, 50.0 100" stroke="black" fill="none" marker-end="url(#arrowhead)"/>
<path d="M 884.2901972856924 100 Q 467.1450986428462 80, 50.0 100" stroke="black" fill="none" marker-end="url(#arrowhead)"/>
<path d="M 884.2901972856924 100 Q 540.0120782091975 80, 195.73395913270264 100" stroke="black" fill="none" marker-end="url(#arrowhead)"/>
<path d="M 924.3776867188111 100 Q 560.0558229257568 80, 195.73395913270264 100" stroke="black" fill="none" marker-end="url(#arrowhead)"/>
<path d="M 924.3776867188111 100 Q 904.3339420022518 80, 884.2901972856924 100" stroke="black" fill="none" marker-end="url(#arrowhead)"/>
<path d="M 936.3776867188111 100 Q 930.3776867188111 80, 924.3776867188111 100" stroke="black" fill="none" marker-end="url(#arrowhead)"/>
<path d="M 948.3776867188111 100 Q 942.3776867188111 80, 936.3776867188111 100" stroke="black" fill="none" marker-end="url(#arrowhead)"/>
<path d="M 948.3776867188111 100 Q 936.3776867188111 80, 924.3776867188111 100" stroke="black" fill="none" marker-end="url(#arrowhead)"/>

<defs>
  <marker id="arrowhead" markerWidth="5" markerHeight="5" 
          refX="2" refY="2" orient="auto" fill="black">
    <path d="M0,0 L0,4 L4,2 z" />
  </marker>
</defs>

<circle cx="50.0" cy="100" r="6" fill="none" stroke="blue" stroke-width="2" />
<circle cx="50.0" cy="100" r="3" fill="blue" />
<circle cx="195.73395913270264" cy="100" r="6" fill="none" stroke="blue" stroke-width="2" />
<circle cx="195.73395913270264" cy="100" r="3" fill="blue" />
<circle cx="884.2901972856924" cy="100" r="4" fill="blue" />
<circle cx="924.3776867188111" cy="100" r="4" fill="blue" />
<circle cx="936.3776867188111" cy="100" r="4" fill="black" />
<circle cx="948.3776867188111" cy="100" r="4" fill="black" />
<circle cx="960.3776867188111" cy="100" r="4" fill="black" />
<text x="50" y="125" fill="gray" style="font-size:12px;">2024-12-19T18:22:26+00:00</text>
<text x="900" y="125" fill="gray" style="font-size:12px;">2025-01-16T17:41:35+00:00</text>
</svg>