<svg xmlns="http://www.w3.org/2000/svg" width="1000" height="400" style="background-color: white; font-family: sans-serif;">
<line x1="50" y1="200" x2="950" y2="200" stroke="gray" stroke-width="1"/>
<path d="M 62.0 200 Q 56.0 180, 50.0 200" stroke="black" fill="none" marker-end="url(#arrowhead)"/>
<path d="M 125.87938913276228 200 Q 87.93969456638115 180, 50.0 200" stroke="black" fill="none" marker-end="url(#arrowhead)"/>
<path d="M 137.8793891327623 200 Q 131.8793891327623 180, 125.87938913276228 200" stroke="black" fill="none" marker-end="url(#arrowhead)"/>
<path d="M 206.88744922319992 200 Q 172.38341917798112 180, 137.8793891327623 200" stroke="black" fill="none" marker-end="url(#arrowhead)"/>
<path d="M 428.62922925067494 200 Q 283.2543091917186 180, 137.8793891327623 200" stroke="black" fill="none" marker-end="url(#arrowhead)"/>
<path d="M 440.62922925067494 200 Q 434.62922925067494 180, 428.62922925067494 200" stroke="black" fill="none" marker-end="url(#arrowhead)"/>
<path d="M 480.458813112948 200 Q 460.54402118181144 180, 440.62922925067494 200" stroke="black" fill="none" marker-end="url(#arrowhead)"/>
<path d="M 499.2172884638085 200 Q 489.83805078837827 180, 480.458813112948 200" stroke="black" fill="none" marker-end="url(#arrowhead)"/>
<path d="M 499.2172884638085 200 Q 318.5483387982854 180, 137.8793891327623 200" stroke="black" fill="none" marker-end="url(#arrowhead)"/>
<path d="M 511.2172884638085 200 Q 505.2172884638085 180, 499.2172884638085 200" stroke="black" fill="none" marker-end="url(#arrowhead)"/>
<path d="M 511.2172884638085 200 Q 324.5483387982854 180, 137.8793891327623 200" stroke="black" fill="none" marker-end="url(#arrowhead)"/>
<path d="M 523.2172884638085 200 Q 517.2172884638085 180, 511.2172884638085 200" stroke="black" fill="none" marker-end="url(#arrowhead)"/>
<path d="M 535.2172884638085 200 Q 529.2172884638085 180, 523.2172884638085 200" stroke="black" fill="none" marker-end="url(#arrowhead)"/>
<path d="M 598.4353582177698 200 Q 560.8263233407891 180, 523.2172884638085 200" stroke="black" fill="none" marker-end="url(#arrowhead)"/>
<path d="M 622.4353582177698 200 Q 616.4353582177698 180, 610.4353582177698 200" stroke="black" fill="none" marker-end="url(#arrowhead)"/>

<defs>
  <marker id="arrowhead" markerWidth="5" markerHeight="5" 
          refX="2" refY="2" orient="auto" fill="black">
    <path d="M0,0 L0,4 L4,2 z" />
  </marker>
</defs>

<circle cx="50.0" cy="200" r="6" fill="none" stroke="black" stroke-width="2" />
<circle cx="50.0" cy="200" r="3" fill="black" />
<circle cx="62.0" cy="200" r="4" fill="black" />
<circle cx="125.87938913276228" cy="200" r="4" fill="red" />
<circle cx="137.8793891327623" cy="200" r="6" fill="none" stroke="blue" stroke-width="2" />
<circle cx="137.8793891327623" cy="200" r="3" fill="blue" />
<circle cx="206.88744922319992" cy="200" r="4" fill="red" />
<circle cx="428.62922925067494" cy="200" r="6" fill="none" stroke="blue" stroke-width="2" />
<circle cx="428.62922925067494" cy="200" r="3" fill="blue" />
<circle cx="440.62922925067494" cy="200" r="4" fill="green" />
<circle cx="480.458813112948" cy="200" r="6" fill="none" stroke="blue" stroke-width="2" />
<circle cx="480.458813112948" cy="200" r="3" fill="blue" />
<circle cx="499.2172884638085" cy="200" r="4" fill="red" />
<circle cx="511.2172884638085" cy="200" r="6" fill="none" stroke="blue" stroke-width="2" />
<circle cx="511.2172884638085" cy="200" r="3" fill="blue" />
<circle cx="523.2172884638085" cy="200" r="4" fill="blue" />
<circle cx="535.2172884638085" cy="200" r="4" fill="black" />
<circle cx="598.4353582177698" cy="200" r="6" fill="none" stroke="black" stroke-width="2" />
<circle cx="598.4353582177698" cy="200" r="3" fill="black" />
<circle cx="610.4353582177698" cy="200" r="4" fill="green" />
<circle cx="622.4353582177698" cy="200" r="4" fill="green" />
<circle cx="950.0" cy="200" r="6" fill="none" stroke="blue" stroke-width="2" />
<circle cx="950.0" cy="200" r="3" fill="blue" />
<text x="50" y="225" fill="gray" style="font-size:12px;">2024-12-20T23:51:42+00:00</text>
<text x="900" y="225" fill="gray" style="font-size:12px;">2025-02-20T11:20:29+00:00</text>
</svg>