<svg xmlns="http://www.w3.org/2000/svg" width="1000" height="200" style="background-color: white; font-family: sans-serif;">
<line x1="50" y1="100" x2="950" y2="100" stroke="gray" stroke-width="1"/>
<path d="M 65.65435036681359 100 Q 57.827175183406794 80, 50.0 100" stroke="black" fill="none" marker-end="url(#arrowhead)"/>
<path d="M 77.65435036681359 100 Q 63.827175183406794 80, 50.0 100" stroke="black" fill="none" marker-end="url(#arrowhead)"/>
<path d="M 77.65435036681359 100 Q 71.65435036681359 80, 65.65435036681359 100" stroke="black" fill="none" marker-end="url(#arrowhead)"/>
<path d="M 89.65435036681359 100 Q 69.8271751834068 80, 50.0 100" stroke="black" fill="none" marker-end="url(#arrowhead)"/>
<path d="M 89.65435036681359 100 Q 83.65435036681359 80, 77.65435036681359 100" stroke="black" fill="none" marker-end="url(#arrowhead)"/>
<path d="M 107.8656518861681 100 Q 98.76000112649083 80, 89.65435036681359 100" stroke="black" fill="none" marker-end="url(#arrowhead)"/>
<path d="M 107.8656518861681 100 Q 78.93282594308405 80, 50.0 100" stroke="black" fill="none" marker-end="url(#arrowhead)"/>
<path d="M 107.8656518861681 100 Q 86.76000112649083 80, 65.65435036681359 100" stroke="black" fill="none" marker-end="url(#arrowhead)"/>
<path d="M 107.8656518861681 100 Q 92.76000112649083 80, 77.65435036681359 100" stroke="black" fill="none" marker-end="url(#arrowhead)"/>
<path d="M 199.7433713054621 100 Q 153.8045115958151 80, 107.8656518861681 100" stroke="black" fill="none" marker-end="url(#arrowhead)"/>
<path d="M 211.7433713054621 100 Q 205.7433713054621 80, 199.7433713054621 100" stroke="black" fill="none" marker-end="url(#arrowhead)"/>
<path d="M 211.7433713054621 100 Q 138.69886083613784 80, 65.65435036681359 100" stroke="black" fill="none" marker-end="url(#arrowhead)"/>
<path d="M 224.17569032766804 100 Q 211.95953081656506 80, 199.7433713054621 100" stroke="black" fill="none" marker-end="url(#arrowhead)"/>
<path d="M 224.17569032766804 100 Q 217.95953081656506 80, 211.7433713054621 100" stroke="black" fill="none" marker-end="url(#arrowhead)"/>
<path d="M 247.4467381049608 100 Q 223.59505470521145 80, 199.7433713054621 100" stroke="black" fill="none" marker-end="url(#arrowhead)"/>
<path d="M 247.4467381049608 100 Q 235.8112142163144 80, 224.17569032766804 100" stroke="black" fill="none" marker-end="url(#arrowhead)"/>
<path d="M 310.92294802652884 100 Q 279.1848430657448 80, 247.4467381049608 100" stroke="black" fill="none" marker-end="url(#arrowhead)"/>
<path d="M 310.92294802652884 100 Q 267.5493191770984 80, 224.17569032766804 100" stroke="black" fill="none" marker-end="url(#arrowhead)"/>
<path d="M 322.92294802652884 100 Q 285.1848430657448 80, 247.4467381049608 100" stroke="black" fill="none" marker-end="url(#arrowhead)"/>
<path d="M 322.92294802652884 100 Q 273.5493191770984 80, 224.17569032766804 100" stroke="black" fill="none" marker-end="url(#arrowhead)"/>
<path d="M 354.9384654378529 100 Q 344.93070673219086 80, 334.92294802652884 100" stroke="black" fill="none" marker-end="url(#arrowhead)"/>
<path d="M 950.0 100 Q 642.4614740132645 80, 334.92294802652884 100" stroke="black" fill="none" marker-end="url(#arrowhead)"/>

<defs>
  <marker id="arrowhead" markerWidth="5" markerHeight="5" 
          refX="2" refY="2" orient="auto" fill="black">
    <path d="M0,0 L0,4 L4,2 z" />
  </marker>
</defs>

<circle cx="50.0" cy="100" r="6" fill="none" stroke="blue" stroke-width="2" />
<circle cx="50.0" cy="100" r="3" fill="blue" />
<circle cx="65.65435036681359" cy="100" r="4" fill="red" />
<circle cx="77.65435036681359" cy="100" r="6" fill="none" stroke="blue" stroke-width="2" />
<circle cx="77.65435036681359" cy="100" r="3" fill="blue" />
<circle cx="89.65435036681359" cy="100" r="4" fill="red" />
<circle cx="107.8656518861681" cy="100" r="6" fill="none" stroke="blue" stroke-width="2" />
<circle cx="107.8656518861681" cy="100" r="3" fill="blue" />
<circle cx="199.7433713054621" cy="100" r="4" fill="blue" />
<circle cx="211.7433713054621" cy="100" r="4" fill="red" />
<circle cx="224.17569032766804" cy="100" r="4" fill="red" />
<circle cx="247.4467381049608" cy="100" r="4" fill="green" />
<circle cx="310.92294802652884" cy="100" r="6" fill="none" stroke="black" stroke-width="2" />
<circle cx="310.92294802652884" cy="100" r="3" fill="black" />
<circle cx="322.92294802652884" cy="100" r="4" fill="black" />
<circle cx="334.92294802652884" cy="100" r="6" fill="none" stroke="blue" stroke-width="2" />
<circle cx="334.92294802652884" cy="100" r="3" fill="blue" />
<circle cx="354.9384654378529" cy="100" r="4" fill="red" />
<circle cx="950.0" cy="100" r="4" fill="red" />
<text x="50" y="125" fill="gray" style="font-size:12px;">2024-10-15T01:51:33+00:00</text>
<text x="900" y="125" fill="gray" style="font-size:12px;">2024-12-03T09:28:33+00:00</text>
</svg>