<svg xmlns="http://www.w3.org/2000/svg" width="1000" height="400" style="background-color: white; font-family: sans-serif;">
<line x1="50" y1="200" x2="950" y2="200" stroke="gray" stroke-width="1"/>
<path d="M 65.65435036681359 200 Q 57.827175183406794 180, 50.0 200" stroke="black" fill="none" marker-end="url(#arrowhead)"/>
<path d="M 77.65435036681359 200 Q 63.827175183406794 180, 50.0 200" stroke="black" fill="none" marker-end="url(#arrowhead)"/>
<path d="M 77.65435036681359 200 Q 71.65435036681359 180, 65.65435036681359 200" stroke="black" fill="none" marker-end="url(#arrowhead)"/>
<path d="M 89.65435036681359 200 Q 69.8271751834068 180, 50.0 200" stroke="black" fill="none" marker-end="url(#arrowhead)"/>
<path d="M 89.65435036681359 200 Q 83.65435036681359 180, 77.65435036681359 200" stroke="black" fill="none" marker-end="url(#arrowhead)"/>
<path d="M 107.8656518861681 200 Q 98.76000112649083 180, 89.65435036681359 200" stroke="black" fill="none" marker-end="url(#arrowhead)"/>
<path d="M 107.8656518861681 200 Q 78.93282594308405 180, 50.0 200" stroke="black" fill="none" marker-end="url(#arrowhead)"/>
<path d="M 107.8656518861681 200 Q 86.76000112649083 180, 65.65435036681359 200" stroke="black" fill="none" marker-end="url(#arrowhead)"/>
<path d="M 107.8656518861681 200 Q 92.76000112649083 180, 77.65435036681359 200" stroke="black" fill="none" marker-end="url(#arrowhead)"/>
<path d="M 199.7433713054621 200 Q 153.8045115958151 180, 107.8656518861681 200" stroke="black" fill="none" marker-end="url(#arrowhead)"/>
<path d="M 211.7433713054621 200 Q 205.7433713054621 180, 199.7433713054621 200" stroke="black" fill="none" marker-end="url(#arrowhead)"/>
<path d="M 211.7433713054621 200 Q 138.69886083613784 180, 65.65435036681359 200" stroke="black" fill="none" marker-end="url(#arrowhead)"/>
<path d="M 224.17569032766804 200 Q 211.95953081656506 180, 199.7433713054621 200" stroke="black" fill="none" marker-end="url(#arrowhead)"/>
<path d="M 224.17569032766804 200 Q 217.95953081656506 180, 211.7433713054621 200" stroke="black" fill="none" marker-end="url(#arrowhead)"/>
<path d="M 247.4467381049608 200 Q 223.59505470521145 180, 199.7433713054621 200" stroke="black" fill="none" marker-end="url(#arrowhead)"/>
<path d="M 247.4467381049608 200 Q 235.8112142163144 180, 224.17569032766804 200" stroke="black" fill="none" marker-end="url(#arrowhead)"/>
<path d="M 310.92294802652884 200 Q 279.1848430657448 180, 247.4467381049608 200" stroke="black" fill="none" marker-end="url(#arrowhead)"/>
<path d="M 310.92294802652884 200 Q 267.5493191770984 180, 224.17569032766804 200" stroke="black" fill="none" marker-end="url(#arrowhead)"/>
<path d="M 322.92294802652884 200 Q 285.1848430657448 180, 247.4467381049608 200" stroke="black" fill="none" marker-end="url(#arrowhead)"/>
<path d="M 322.92294802652884 200 Q 273.5493191770984 180, 224.17569032766804 200" stroke="black" fill="none" marker-end="url(#arrowhead)"/>
<path d="M 354.9384654378529 200 Q 344.93070673219086 180, 334.92294802652884 200" stroke="black" fill="none" marker-end="url(#arrowhead)"/>
<path d="M 950.0 200 Q 642.4614740132645 180, 334.92294802652884 200" stroke="black" fill="none" marker-end="url(#arrowhead)"/>

<defs>
  <marker id="arrowhead" markerWidth="5" markerHeight="5" 
          refX="2" refY="2" orient="auto" fill="black">
    <path d="M0,0 L0,4 L4,2 z" />
  </marker>
</defs>

<circle cx="50.0" cy="200" r="6" fill="none" stroke="blue" stroke-width="2" />
<circle cx="50.0" cy="200" r="3" fill="blue" />
<circle cx="65.65435036681359" cy="200" r="4" fill="red" />
<circle cx="77.65435036681359" cy="200" r="6" fill="none" stroke="blue" stroke-width="2" />
<circle cx="77.65435036681359" cy="200" r="3" fill="blue" />
<circle cx="89.65435036681359" cy="200" r="4" fill="red" />
<circle cx="107.8656518861681" cy="200" r="6" fill="none" stroke="blue" stroke-width="2" />
<circle cx="107.8656518861681" cy="200" r="3" fill="blue" />
<circle cx="199.7433713054621" cy="200" r="4" fill="blue" />
<circle cx="211.7433713054621" cy="200" r="4" fill="red" />
<circle cx="224.17569032766804" cy="200" r="4" fill="red" />
<circle cx="247.4467381049608" cy="200" r="4" fill="green" />
<circle cx="310.92294802652884" cy="200" r="6" fill="none" stroke="black" stroke-width="2" />
<circle cx="310.92294802652884" cy="200" r="3" fill="black" />
<circle cx="322.92294802652884" cy="200" r="4" fill="black" />
<circle cx="334.92294802652884" cy="200" r="6" fill="none" stroke="blue" stroke-width="2" />
<circle cx="334.92294802652884" cy="200" r="3" fill="blue" />
<circle cx="354.9384654378529" cy="200" r="4" fill="red" />
<circle cx="950.0" cy="200" r="4" fill="red" />
<text x="50" y="225" fill="gray" style="font-size:12px;">2024-10-15T01:51:33+00:00</text>
<text x="900" y="225" fill="gray" style="font-size:12px;">2024-12-03T09:28:33+00:00</text>
</svg>