<svg xmlns="http://www.w3.org/2000/svg" width="1000" height="200" style="background-color: white; font-family: sans-serif;">
<line x1="50" y1="100" x2="950" y2="100" stroke="gray" stroke-width="1"/>
<path d="M 62.0 100 Q 56.0 80, 50.0 100" stroke="black" fill="none" marker-end="url(#arrowhead)"/>
<path d="M 74.0 100 Q 62.0 80, 50.0 100" stroke="black" fill="none" marker-end="url(#arrowhead)"/>
<path d="M 169.54133348265577 100 Q 109.77066674132789 80, 50.0 100" stroke="black" fill="none" marker-end="url(#arrowhead)"/>
<path d="M 169.54133348265577 100 Q 121.77066674132789 80, 74.0 100" stroke="black" fill="none" marker-end="url(#arrowhead)"/>
<path d="M 181.54133348265577 100 Q 175.54133348265577 80, 169.54133348265577 100" stroke="black" fill="none" marker-end="url(#arrowhead)"/>
<path d="M 950.0 100 Q 559.7706667413279 80, 169.54133348265577 100" stroke="black" fill="none" marker-end="url(#arrowhead)"/>

<defs>
  <marker id="arrowhead" markerWidth="5" markerHeight="5" 
          refX="2" refY="2" orient="auto" fill="black">
    <path d="M0,0 L0,4 L4,2 z" />
  </marker>
</defs>

<circle cx="50.0" cy="100" r="6" fill="none" stroke="blue" stroke-width="2" />
<circle cx="50.0" cy="100" r="3" fill="blue" />
<circle cx="62.0" cy="100" r="4" fill="green" />
<circle cx="74.0" cy="100" r="4" fill="black" />
<circle cx="169.54133348265577" cy="100" r="6" fill="none" stroke="black" stroke-width="2" />
<circle cx="169.54133348265577" cy="100" r="3" fill="black" />
<circle cx="181.54133348265577" cy="100" r="4" fill="black" />
<circle cx="950.0" cy="100" r="4" fill="black" />
<text x="50" y="125" fill="gray" style="font-size:12px;">2024-10-03T09:23:43+00:00</text>
<text x="900" y="125" fill="gray" style="font-size:12px;">2024-11-30T06:23:08+00:00</text>
</svg>