<svg xmlns="http://www.w3.org/2000/svg" width="1000" height="200" style="background-color: white; font-family: sans-serif;">
<line x1="50" y1="100" x2="950" y2="100" stroke="gray" stroke-width="1"/>
<path d="M 79.3207788236993 100 Q 64.66038941184965 80, 50.0 100" stroke="black" fill="none" marker-end="url(#arrowhead)"/>
<path d="M 91.3207788236993 100 Q 85.3207788236993 80, 79.3207788236993 100" stroke="black" fill="none" marker-end="url(#arrowhead)"/>
<path d="M 115.3207788236993 100 Q 109.3207788236993 80, 103.3207788236993 100" stroke="black" fill="none" marker-end="url(#arrowhead)"/>
<path d="M 163.3207788236993 100 Q 157.3207788236993 80, 151.3207788236993 100" stroke="black" fill="none" marker-end="url(#arrowhead)"/>
<path d="M 187.3207788236993 100 Q 181.3207788236993 80, 175.3207788236993 100" stroke="black" fill="none" marker-end="url(#arrowhead)"/>
<path d="M 211.3207788236993 100 Q 205.3207788236993 80, 199.3207788236993 100" stroke="black" fill="none" marker-end="url(#arrowhead)"/>
<path d="M 223.3207788236993 100 Q 217.3207788236993 80, 211.3207788236993 100" stroke="black" fill="none" marker-end="url(#arrowhead)"/>
<path d="M 263.5563063670028 100 Q 243.43854259535104 80, 223.3207788236993 100" stroke="black" fill="none" marker-end="url(#arrowhead)"/>
<path d="M 275.5563063670028 100 Q 269.5563063670028 80, 263.5563063670028 100" stroke="black" fill="none" marker-end="url(#arrowhead)"/>
<path d="M 287.5563063670028 100 Q 281.5563063670028 80, 275.5563063670028 100" stroke="black" fill="none" marker-end="url(#arrowhead)"/>
<path d="M 299.5563063670028 100 Q 293.5563063670028 80, 287.5563063670028 100" stroke="black" fill="none" marker-end="url(#arrowhead)"/>
<path d="M 311.5563063670028 100 Q 305.5563063670028 80, 299.5563063670028 100" stroke="black" fill="none" marker-end="url(#arrowhead)"/>
<path d="M 323.5563063670028 100 Q 317.5563063670028 80, 311.5563063670028 100" stroke="black" fill="none" marker-end="url(#arrowhead)"/>
<path d="M 335.5563063670028 100 Q 329.5563063670028 80, 323.5563063670028 100" stroke="black" fill="none" marker-end="url(#arrowhead)"/>
<path d="M 347.5563063670028 100 Q 341.5563063670028 80, 335.5563063670028 100" stroke="black" fill="none" marker-end="url(#arrowhead)"/>
<path d="M 359.5563063670028 100 Q 353.5563063670028 80, 347.5563063670028 100" stroke="black" fill="none" marker-end="url(#arrowhead)"/>
<path d="M 371.5563063670028 100 Q 359.5563063670028 80, 347.5563063670028 100" stroke="black" fill="none" marker-end="url(#arrowhead)"/>
<path d="M 383.5563063670028 100 Q 377.5563063670028 80, 371.5563063670028 100" stroke="black" fill="none" marker-end="url(#arrowhead)"/>
<path d="M 565.7708935102708 100 Q 468.66359993863676 80, 371.5563063670028 100" stroke="black" fill="none" marker-end="url(#arrowhead)"/>
<path d="M 587.5362423698064 100 Q 467.54627436840457 80, 347.5563063670028 100" stroke="black" fill="none" marker-end="url(#arrowhead)"/>
<path d="M 587.5362423698064 100 Q 479.54627436840457 80, 371.5563063670028 100" stroke="black" fill="none" marker-end="url(#arrowhead)"/>
<path d="M 587.5362423698064 100 Q 576.6535679400386 80, 565.7708935102708 100" stroke="black" fill="none" marker-end="url(#arrowhead)"/>
<path d="M 587.5362423698064 100 Q 461.54627436840457 80, 335.5563063670028 100" stroke="black" fill="none" marker-end="url(#arrowhead)"/>
<path d="M 599.5362423698064 100 Q 593.5362423698064 80, 587.5362423698064 100" stroke="black" fill="none" marker-end="url(#arrowhead)"/>
<path d="M 611.5362423698064 100 Q 605.5362423698064 80, 599.5362423698064 100" stroke="black" fill="none" marker-end="url(#arrowhead)"/>
<path d="M 623.5362423698064 100 Q 617.5362423698064 80, 611.5362423698064 100" stroke="black" fill="none" marker-end="url(#arrowhead)"/>
<path d="M 635.5362423698064 100 Q 629.5362423698064 80, 623.5362423698064 100" stroke="black" fill="none" marker-end="url(#arrowhead)"/>
<path d="M 659.5362423698064 100 Q 653.5362423698064 80, 647.5362423698064 100" stroke="black" fill="none" marker-end="url(#arrowhead)"/>
<path d="M 671.5362423698064 100 Q 665.5362423698064 80, 659.5362423698064 100" stroke="black" fill="none" marker-end="url(#arrowhead)"/>
<path d="M 732.0934851543718 100 Q 701.8148637620891 80, 671.5362423698064 100" stroke="black" fill="none" marker-end="url(#arrowhead)"/>
<path d="M 744.0934851543718 100 Q 738.0934851543718 80, 732.0934851543718 100" stroke="black" fill="none" marker-end="url(#arrowhead)"/>

<defs>
  <marker id="arrowhead" markerWidth="5" markerHeight="5" 
          refX="2" refY="2" orient="auto" fill="black">
    <path d="M0,0 L0,4 L4,2 z" />
  </marker>
</defs>

<circle cx="50.0" cy="100" r="6" fill="none" stroke="blue" stroke-width="2" />
<circle cx="50.0" cy="100" r="3" fill="blue" />
<circle cx="79.3207788236993" cy="100" r="4" fill="black" />
<circle cx="91.3207788236993" cy="100" r="6" fill="none" stroke="blue" stroke-width="2" />
<circle cx="91.3207788236993" cy="100" r="3" fill="blue" />
<circle cx="103.3207788236993" cy="100" r="6" fill="none" stroke="blue" stroke-width="2" />
<circle cx="103.3207788236993" cy="100" r="3" fill="blue" />
<circle cx="115.3207788236993" cy="100" r="6" fill="none" stroke="blue" stroke-width="2" />
<circle cx="115.3207788236993" cy="100" r="3" fill="blue" />
<circle cx="127.3207788236993" cy="100" r="6" fill="none" stroke="blue" stroke-width="2" />
<circle cx="127.3207788236993" cy="100" r="3" fill="blue" />
<circle cx="139.3207788236993" cy="100" r="6" fill="none" stroke="blue" stroke-width="2" />
<circle cx="139.3207788236993" cy="100" r="3" fill="blue" />
<circle cx="151.3207788236993" cy="100" r="4" fill="red" />
<circle cx="163.3207788236993" cy="100" r="6" fill="none" stroke="blue" stroke-width="2" />
<circle cx="163.3207788236993" cy="100" r="3" fill="blue" />
<circle cx="175.3207788236993" cy="100" r="4" fill="red" />
<circle cx="187.3207788236993" cy="100" r="6" fill="none" stroke="blue" stroke-width="2" />
<circle cx="187.3207788236993" cy="100" r="3" fill="blue" />
<circle cx="199.3207788236993" cy="100" r="4" fill="black" />
<circle cx="211.3207788236993" cy="100" r="6" fill="none" stroke="black" stroke-width="2" />
<circle cx="211.3207788236993" cy="100" r="3" fill="black" />
<circle cx="223.3207788236993" cy="100" r="6" fill="none" stroke="blue" stroke-width="2" />
<circle cx="223.3207788236993" cy="100" r="3" fill="blue" />
<circle cx="263.5563063670028" cy="100" r="4" fill="blue" />
<circle cx="275.5563063670028" cy="100" r="6" fill="none" stroke="blue" stroke-width="2" />
<circle cx="275.5563063670028" cy="100" r="3" fill="blue" />
<circle cx="287.5563063670028" cy="100" r="6" fill="none" stroke="blue" stroke-width="2" />
<circle cx="287.5563063670028" cy="100" r="3" fill="blue" />
<circle cx="299.5563063670028" cy="100" r="6" fill="none" stroke="blue" stroke-width="2" />
<circle cx="299.5563063670028" cy="100" r="3" fill="blue" />
<circle cx="311.5563063670028" cy="100" r="6" fill="none" stroke="blue" stroke-width="2" />
<circle cx="311.5563063670028" cy="100" r="3" fill="blue" />
<circle cx="323.5563063670028" cy="100" r="4" fill="red" />
<circle cx="335.5563063670028" cy="100" r="4" fill="red" />
<circle cx="347.5563063670028" cy="100" r="4" fill="blue" />
<circle cx="359.5563063670028" cy="100" r="6" fill="none" stroke="black" stroke-width="2" />
<circle cx="359.5563063670028" cy="100" r="3" fill="black" />
<circle cx="371.5563063670028" cy="100" r="4" fill="black" />
<circle cx="383.5563063670028" cy="100" r="4" fill="green" />
<circle cx="565.7708935102708" cy="100" r="4" fill="black" />
<circle cx="587.5362423698064" cy="100" r="4" fill="blue" />
<circle cx="599.5362423698064" cy="100" r="4" fill="red" />
<circle cx="611.5362423698064" cy="100" r="6" fill="none" stroke="black" stroke-width="2" />
<circle cx="611.5362423698064" cy="100" r="3" fill="black" />
<circle cx="623.5362423698064" cy="100" r="4" fill="black" />
<circle cx="635.5362423698064" cy="100" r="6" fill="none" stroke="black" stroke-width="2" />
<circle cx="635.5362423698064" cy="100" r="3" fill="black" />
<circle cx="647.5362423698064" cy="100" r="4" fill="red" />
<circle cx="659.5362423698064" cy="100" r="6" fill="none" stroke="blue" stroke-width="2" />
<circle cx="659.5362423698064" cy="100" r="3" fill="blue" />
<circle cx="671.5362423698064" cy="100" r="6" fill="none" stroke="blue" stroke-width="2" />
<circle cx="671.5362423698064" cy="100" r="3" fill="blue" />
<circle cx="732.0934851543718" cy="100" r="4" fill="blue" />
<circle cx="744.0934851543718" cy="100" r="6" fill="none" stroke="blue" stroke-width="2" />
<circle cx="744.0934851543718" cy="100" r="3" fill="blue" />
<circle cx="756.0934851543718" cy="100" r="6" fill="none" stroke="blue" stroke-width="2" />
<circle cx="756.0934851543718" cy="100" r="3" fill="blue" />
<circle cx="936.9814161642007" cy="100" r="6" fill="none" stroke="blue" stroke-width="2" />
<circle cx="936.9814161642007" cy="100" r="3" fill="blue" />
<circle cx="950.0" cy="100" r="6" fill="none" stroke="blue" stroke-width="2" />
<circle cx="950.0" cy="100" r="3" fill="blue" />
<text x="50" y="125" fill="gray" style="font-size:12px;">2022-02-13T21:43:36+00:00</text>
<text x="900" y="125" fill="gray" style="font-size:12px;">2025-02-26T19:33:58+00:00</text>
</svg>