<svg xmlns="http://www.w3.org/2000/svg" width="1000" height="400" style="background-color: white; font-family: sans-serif;">
<line x1="50" y1="200" x2="950" y2="200" stroke="gray" stroke-width="1"/>
<path d="M 79.3207788236993 200 Q 64.66038941184965 180, 50.0 200" stroke="black" fill="none" marker-end="url(#arrowhead)"/>
<path d="M 91.3207788236993 200 Q 85.3207788236993 180, 79.3207788236993 200" stroke="black" fill="none" marker-end="url(#arrowhead)"/>
<path d="M 115.3207788236993 200 Q 109.3207788236993 180, 103.3207788236993 200" stroke="black" fill="none" marker-end="url(#arrowhead)"/>
<path d="M 163.3207788236993 200 Q 157.3207788236993 180, 151.3207788236993 200" stroke="black" fill="none" marker-end="url(#arrowhead)"/>
<path d="M 187.3207788236993 200 Q 181.3207788236993 180, 175.3207788236993 200" stroke="black" fill="none" marker-end="url(#arrowhead)"/>
<path d="M 211.3207788236993 200 Q 205.3207788236993 180, 199.3207788236993 200" stroke="black" fill="none" marker-end="url(#arrowhead)"/>
<path d="M 223.3207788236993 200 Q 217.3207788236993 180, 211.3207788236993 200" stroke="black" fill="none" marker-end="url(#arrowhead)"/>
<path d="M 263.5563063670028 200 Q 243.43854259535104 180, 223.3207788236993 200" stroke="black" fill="none" marker-end="url(#arrowhead)"/>
<path d="M 275.5563063670028 200 Q 269.5563063670028 180, 263.5563063670028 200" stroke="black" fill="none" marker-end="url(#arrowhead)"/>
<path d="M 287.5563063670028 200 Q 281.5563063670028 180, 275.5563063670028 200" stroke="black" fill="none" marker-end="url(#arrowhead)"/>
<path d="M 299.5563063670028 200 Q 293.5563063670028 180, 287.5563063670028 200" stroke="black" fill="none" marker-end="url(#arrowhead)"/>
<path d="M 311.5563063670028 200 Q 305.5563063670028 180, 299.5563063670028 200" stroke="black" fill="none" marker-end="url(#arrowhead)"/>
<path d="M 323.5563063670028 200 Q 317.5563063670028 180, 311.5563063670028 200" stroke="black" fill="none" marker-end="url(#arrowhead)"/>
<path d="M 335.5563063670028 200 Q 329.5563063670028 180, 323.5563063670028 200" stroke="black" fill="none" marker-end="url(#arrowhead)"/>
<path d="M 347.5563063670028 200 Q 341.5563063670028 180, 335.5563063670028 200" stroke="black" fill="none" marker-end="url(#arrowhead)"/>
<path d="M 359.5563063670028 200 Q 353.5563063670028 180, 347.5563063670028 200" stroke="black" fill="none" marker-end="url(#arrowhead)"/>
<path d="M 371.5563063670028 200 Q 359.5563063670028 180, 347.5563063670028 200" stroke="black" fill="none" marker-end="url(#arrowhead)"/>
<path d="M 383.5563063670028 200 Q 377.5563063670028 180, 371.5563063670028 200" stroke="black" fill="none" marker-end="url(#arrowhead)"/>
<path d="M 565.7708935102708 200 Q 468.66359993863676 180, 371.5563063670028 200" stroke="black" fill="none" marker-end="url(#arrowhead)"/>
<path d="M 587.5362423698064 200 Q 467.54627436840457 180, 347.5563063670028 200" stroke="black" fill="none" marker-end="url(#arrowhead)"/>
<path d="M 587.5362423698064 200 Q 479.54627436840457 180, 371.5563063670028 200" stroke="black" fill="none" marker-end="url(#arrowhead)"/>
<path d="M 587.5362423698064 200 Q 576.6535679400386 180, 565.7708935102708 200" stroke="black" fill="none" marker-end="url(#arrowhead)"/>
<path d="M 587.5362423698064 200 Q 461.54627436840457 180, 335.5563063670028 200" stroke="black" fill="none" marker-end="url(#arrowhead)"/>
<path d="M 599.5362423698064 200 Q 593.5362423698064 180, 587.5362423698064 200" stroke="black" fill="none" marker-end="url(#arrowhead)"/>
<path d="M 611.5362423698064 200 Q 605.5362423698064 180, 599.5362423698064 200" stroke="black" fill="none" marker-end="url(#arrowhead)"/>
<path d="M 623.5362423698064 200 Q 617.5362423698064 180, 611.5362423698064 200" stroke="black" fill="none" marker-end="url(#arrowhead)"/>
<path d="M 635.5362423698064 200 Q 629.5362423698064 180, 623.5362423698064 200" stroke="black" fill="none" marker-end="url(#arrowhead)"/>
<path d="M 659.5362423698064 200 Q 653.5362423698064 180, 647.5362423698064 200" stroke="black" fill="none" marker-end="url(#arrowhead)"/>
<path d="M 671.5362423698064 200 Q 665.5362423698064 180, 659.5362423698064 200" stroke="black" fill="none" marker-end="url(#arrowhead)"/>
<path d="M 732.0934851543718 200 Q 701.8148637620891 180, 671.5362423698064 200" stroke="black" fill="none" marker-end="url(#arrowhead)"/>
<path d="M 744.0934851543718 200 Q 738.0934851543718 180, 732.0934851543718 200" stroke="black" fill="none" marker-end="url(#arrowhead)"/>

<defs>
  <marker id="arrowhead" markerWidth="5" markerHeight="5" 
          refX="2" refY="2" orient="auto" fill="black">
    <path d="M0,0 L0,4 L4,2 z" />
  </marker>
</defs>

<circle cx="50.0" cy="200" r="6" fill="none" stroke="blue" stroke-width="2" />
<circle cx="50.0" cy="200" r="3" fill="blue" />
<circle cx="79.3207788236993" cy="200" r="4" fill="black" />
<circle cx="91.3207788236993" cy="200" r="6" fill="none" stroke="blue" stroke-width="2" />
<circle cx="91.3207788236993" cy="200" r="3" fill="blue" />
<circle cx="103.3207788236993" cy="200" r="6" fill="none" stroke="blue" stroke-width="2" />
<circle cx="103.3207788236993" cy="200" r="3" fill="blue" />
<circle cx="115.3207788236993" cy="200" r="6" fill="none" stroke="blue" stroke-width="2" />
<circle cx="115.3207788236993" cy="200" r="3" fill="blue" />
<circle cx="127.3207788236993" cy="200" r="6" fill="none" stroke="blue" stroke-width="2" />
<circle cx="127.3207788236993" cy="200" r="3" fill="blue" />
<circle cx="139.3207788236993" cy="200" r="6" fill="none" stroke="blue" stroke-width="2" />
<circle cx="139.3207788236993" cy="200" r="3" fill="blue" />
<circle cx="151.3207788236993" cy="200" r="4" fill="red" />
<circle cx="163.3207788236993" cy="200" r="6" fill="none" stroke="blue" stroke-width="2" />
<circle cx="163.3207788236993" cy="200" r="3" fill="blue" />
<circle cx="175.3207788236993" cy="200" r="4" fill="red" />
<circle cx="187.3207788236993" cy="200" r="6" fill="none" stroke="blue" stroke-width="2" />
<circle cx="187.3207788236993" cy="200" r="3" fill="blue" />
<circle cx="199.3207788236993" cy="200" r="4" fill="black" />
<circle cx="211.3207788236993" cy="200" r="6" fill="none" stroke="black" stroke-width="2" />
<circle cx="211.3207788236993" cy="200" r="3" fill="black" />
<circle cx="223.3207788236993" cy="200" r="6" fill="none" stroke="blue" stroke-width="2" />
<circle cx="223.3207788236993" cy="200" r="3" fill="blue" />
<circle cx="263.5563063670028" cy="200" r="4" fill="blue" />
<circle cx="275.5563063670028" cy="200" r="6" fill="none" stroke="blue" stroke-width="2" />
<circle cx="275.5563063670028" cy="200" r="3" fill="blue" />
<circle cx="287.5563063670028" cy="200" r="6" fill="none" stroke="blue" stroke-width="2" />
<circle cx="287.5563063670028" cy="200" r="3" fill="blue" />
<circle cx="299.5563063670028" cy="200" r="6" fill="none" stroke="blue" stroke-width="2" />
<circle cx="299.5563063670028" cy="200" r="3" fill="blue" />
<circle cx="311.5563063670028" cy="200" r="6" fill="none" stroke="blue" stroke-width="2" />
<circle cx="311.5563063670028" cy="200" r="3" fill="blue" />
<circle cx="323.5563063670028" cy="200" r="4" fill="red" />
<circle cx="335.5563063670028" cy="200" r="4" fill="red" />
<circle cx="347.5563063670028" cy="200" r="4" fill="blue" />
<circle cx="359.5563063670028" cy="200" r="6" fill="none" stroke="black" stroke-width="2" />
<circle cx="359.5563063670028" cy="200" r="3" fill="black" />
<circle cx="371.5563063670028" cy="200" r="4" fill="black" />
<circle cx="383.5563063670028" cy="200" r="4" fill="green" />
<circle cx="565.7708935102708" cy="200" r="4" fill="black" />
<circle cx="587.5362423698064" cy="200" r="4" fill="blue" />
<circle cx="599.5362423698064" cy="200" r="4" fill="red" />
<circle cx="611.5362423698064" cy="200" r="6" fill="none" stroke="black" stroke-width="2" />
<circle cx="611.5362423698064" cy="200" r="3" fill="black" />
<circle cx="623.5362423698064" cy="200" r="4" fill="black" />
<circle cx="635.5362423698064" cy="200" r="6" fill="none" stroke="black" stroke-width="2" />
<circle cx="635.5362423698064" cy="200" r="3" fill="black" />
<circle cx="647.5362423698064" cy="200" r="4" fill="red" />
<circle cx="659.5362423698064" cy="200" r="6" fill="none" stroke="blue" stroke-width="2" />
<circle cx="659.5362423698064" cy="200" r="3" fill="blue" />
<circle cx="671.5362423698064" cy="200" r="6" fill="none" stroke="blue" stroke-width="2" />
<circle cx="671.5362423698064" cy="200" r="3" fill="blue" />
<circle cx="732.0934851543718" cy="200" r="4" fill="blue" />
<circle cx="744.0934851543718" cy="200" r="6" fill="none" stroke="blue" stroke-width="2" />
<circle cx="744.0934851543718" cy="200" r="3" fill="blue" />
<circle cx="756.0934851543718" cy="200" r="6" fill="none" stroke="blue" stroke-width="2" />
<circle cx="756.0934851543718" cy="200" r="3" fill="blue" />
<circle cx="936.9814161642007" cy="200" r="6" fill="none" stroke="blue" stroke-width="2" />
<circle cx="936.9814161642007" cy="200" r="3" fill="blue" />
<circle cx="950.0" cy="200" r="6" fill="none" stroke="blue" stroke-width="2" />
<circle cx="950.0" cy="200" r="3" fill="blue" />
<text x="50" y="225" fill="gray" style="font-size:12px;">2022-02-13T21:43:36+00:00</text>
<text x="900" y="225" fill="gray" style="font-size:12px;">2025-02-26T19:33:58+00:00</text>
</svg>