<svg xmlns="http://www.w3.org/2000/svg" width="1000" height="200" style="background-color: white; font-family: sans-serif;">
<line x1="50" y1="100" x2="950" y2="100" stroke="gray" stroke-width="1"/>
<path d="M 62.0 100 Q 56.0 80, 50.0 100" stroke="black" fill="none" marker-end="url(#arrowhead)"/>
<path d="M 74.0 100 Q 62.0 80, 50.0 100" stroke="black" fill="none" marker-end="url(#arrowhead)"/>
<path d="M 86.0 100 Q 68.0 80, 50.0 100" stroke="black" fill="none" marker-end="url(#arrowhead)"/>
<path d="M 86.0 100 Q 74.0 80, 62.0 100" stroke="black" fill="none" marker-end="url(#arrowhead)"/>
<path d="M 86.0 100 Q 80.0 80, 74.0 100" stroke="black" fill="none" marker-end="url(#arrowhead)"/>
<path d="M 98.0 100 Q 86.0 80, 74.0 100" stroke="black" fill="none" marker-end="url(#arrowhead)"/>
<path d="M 98.0 100 Q 92.0 80, 86.0 100" stroke="black" fill="none" marker-end="url(#arrowhead)"/>
<path d="M 110.0 100 Q 80.0 80, 50.0 100" stroke="black" fill="none" marker-end="url(#arrowhead)"/>
<path d="M 122.0 100 Q 116.0 80, 110.0 100" stroke="black" fill="none" marker-end="url(#arrowhead)"/>
<path d="M 134.0 100 Q 128.0 80, 122.0 100" stroke="black" fill="none" marker-end="url(#arrowhead)"/>
<path d="M 353.9396076989402 100 Q 259.65024015007486 80, 165.3608726012095 100" stroke="black" fill="none" marker-end="url(#arrowhead)"/>
<path d="M 608.7256289478631 100 Q 481.3326183234017 80, 353.9396076989402 100" stroke="black" fill="none" marker-end="url(#arrowhead)"/>
<path d="M 620.7256289478631 100 Q 341.36281447393156 80, 62.0 100" stroke="black" fill="none" marker-end="url(#arrowhead)"/>

<defs>
  <marker id="arrowhead" markerWidth="5" markerHeight="5" 
          refX="2" refY="2" orient="auto" fill="black">
    <path d="M0,0 L0,4 L4,2 z" />
  </marker>
</defs>

<circle cx="50.0" cy="100" r="6" fill="none" stroke="blue" stroke-width="2" />
<circle cx="50.0" cy="100" r="3" fill="blue" />
<circle cx="62.0" cy="100" r="4" fill="black" />
<circle cx="74.0" cy="100" r="4" fill="red" />
<circle cx="86.0" cy="100" r="6" fill="none" stroke="black" stroke-width="2" />
<circle cx="86.0" cy="100" r="3" fill="black" />
<circle cx="98.0" cy="100" r="4" fill="black" />
<circle cx="110.0" cy="100" r="4" fill="black" />
<circle cx="122.0" cy="100" r="6" fill="none" stroke="black" stroke-width="2" />
<circle cx="122.0" cy="100" r="3" fill="black" />
<circle cx="134.0" cy="100" r="4" fill="black" />
<circle cx="165.3608726012095" cy="100" r="6" fill="none" stroke="blue" stroke-width="2" />
<circle cx="165.3608726012095" cy="100" r="3" fill="blue" />
<circle cx="353.9396076989402" cy="100" r="6" fill="none" stroke="blue" stroke-width="2" />
<circle cx="353.9396076989402" cy="100" r="3" fill="blue" />
<circle cx="608.7256289478631" cy="100" r="6" fill="none" stroke="blue" stroke-width="2" />
<circle cx="608.7256289478631" cy="100" r="3" fill="blue" />
<circle cx="620.7256289478631" cy="100" r="4" fill="black" />
<circle cx="950.0" cy="100" r="6" fill="none" stroke="blue" stroke-width="2" />
<circle cx="950.0" cy="100" r="3" fill="blue" />
<text x="50" y="125" fill="gray" style="font-size:12px;">2024-07-02T01:22:00+00:00</text>
<text x="900" y="125" fill="gray" style="font-size:12px;">2025-01-12T21:33:05+00:00</text>
</svg>