<svg xmlns="http://www.w3.org/2000/svg" width="1000" height="200" style="background-color: white; font-family: sans-serif;">
<line x1="50" y1="100" x2="950" y2="100" stroke="gray" stroke-width="1"/>
<path d="M 62.0 100 Q 56.0 80, 50.0 100" stroke="black" fill="none" marker-end="url(#arrowhead)"/>
<path d="M 74.0 100 Q 62.0 80, 50.0 100" stroke="black" fill="none" marker-end="url(#arrowhead)"/>
<path d="M 86.0 100 Q 80.0 80, 74.0 100" stroke="black" fill="none" marker-end="url(#arrowhead)"/>
<path d="M 110.0 100 Q 80.0 80, 50.0 100" stroke="black" fill="none" marker-end="url(#arrowhead)"/>
<path d="M 122.0 100 Q 86.0 80, 50.0 100" stroke="black" fill="none" marker-end="url(#arrowhead)"/>
<path d="M 134.0 100 Q 122.0 80, 110.0 100" stroke="black" fill="none" marker-end="url(#arrowhead)"/>
<path d="M 158.0 100 Q 104.0 80, 50.0 100" stroke="black" fill="none" marker-end="url(#arrowhead)"/>
<path d="M 170.0 100 Q 164.0 80, 158.0 100" stroke="black" fill="none" marker-end="url(#arrowhead)"/>
<path d="M 182.0 100 Q 176.0 80, 170.0 100" stroke="black" fill="none" marker-end="url(#arrowhead)"/>
<path d="M 194.0 100 Q 188.0 80, 182.0 100" stroke="black" fill="none" marker-end="url(#arrowhead)"/>
<path d="M 206.0 100 Q 200.0 80, 194.0 100" stroke="black" fill="none" marker-end="url(#arrowhead)"/>
<path d="M 218.0 100 Q 212.0 80, 206.0 100" stroke="black" fill="none" marker-end="url(#arrowhead)"/>
<path d="M 369.35074155163437 100 Q 287.6753707758172 80, 206.0 100" stroke="black" fill="none" marker-end="url(#arrowhead)"/>
<path d="M 381.35074155163437 100 Q 375.35074155163437 80, 369.35074155163437 100" stroke="black" fill="none" marker-end="url(#arrowhead)"/>
<path d="M 393.35074155163437 100 Q 387.35074155163437 80, 381.35074155163437 100" stroke="black" fill="none" marker-end="url(#arrowhead)"/>
<path d="M 405.35074155163437 100 Q 399.35074155163437 80, 393.35074155163437 100" stroke="black" fill="none" marker-end="url(#arrowhead)"/>
<path d="M 625.5149779367354 100 Q 421.7574889683677 80, 218.0 100" stroke="black" fill="none" marker-end="url(#arrowhead)"/>
<path d="M 625.5149779367354 100 Q 497.43285974418484 80, 369.35074155163437 100" stroke="black" fill="none" marker-end="url(#arrowhead)"/>
<path d="M 637.5149779367354 100 Q 631.5149779367354 80, 625.5149779367354 100" stroke="black" fill="none" marker-end="url(#arrowhead)"/>
<path d="M 827.6639256633606 100 Q 732.589451800048 80, 637.5149779367354 100" stroke="black" fill="none" marker-end="url(#arrowhead)"/>
<path d="M 839.6639256633606 100 Q 833.6639256633606 80, 827.6639256633606 100" stroke="black" fill="none" marker-end="url(#arrowhead)"/>
<path d="M 950.0 100 Q 894.8319628316804 80, 839.6639256633606 100" stroke="black" fill="none" marker-end="url(#arrowhead)"/>

<defs>
  <marker id="arrowhead" markerWidth="5" markerHeight="5" 
          refX="2" refY="2" orient="auto" fill="black">
    <path d="M0,0 L0,4 L4,2 z" />
  </marker>
</defs>

<circle cx="50.0" cy="100" r="6" fill="none" stroke="black" stroke-width="2" />
<circle cx="50.0" cy="100" r="3" fill="black" />
<circle cx="62.0" cy="100" r="4" fill="black" />
<circle cx="74.0" cy="100" r="4" fill="red" />
<circle cx="86.0" cy="100" r="4" fill="black" />
<circle cx="98.0" cy="100" r="4" fill="black" />
<circle cx="110.0" cy="100" r="4" fill="red" />
<circle cx="122.0" cy="100" r="4" fill="red" />
<circle cx="134.0" cy="100" r="6" fill="none" stroke="black" stroke-width="2" />
<circle cx="134.0" cy="100" r="3" fill="black" />
<circle cx="146.0" cy="100" r="6" fill="none" stroke="black" stroke-width="2" />
<circle cx="146.0" cy="100" r="3" fill="black" />
<circle cx="158.0" cy="100" r="4" fill="black" />
<circle cx="170.0" cy="100" r="6" fill="none" stroke="black" stroke-width="2" />
<circle cx="170.0" cy="100" r="3" fill="black" />
<circle cx="182.0" cy="100" r="6" fill="none" stroke="blue" stroke-width="2" />
<circle cx="182.0" cy="100" r="3" fill="blue" />
<circle cx="194.0" cy="100" r="6" fill="none" stroke="blue" stroke-width="2" />
<circle cx="194.0" cy="100" r="3" fill="blue" />
<circle cx="206.0" cy="100" r="4" fill="red" />
<circle cx="218.0" cy="100" r="6" fill="none" stroke="black" stroke-width="2" />
<circle cx="218.0" cy="100" r="3" fill="black" />
<circle cx="369.35074155163437" cy="100" r="6" fill="none" stroke="black" stroke-width="2" />
<circle cx="369.35074155163437" cy="100" r="3" fill="black" />
<circle cx="381.35074155163437" cy="100" r="4" fill="red" />
<circle cx="393.35074155163437" cy="100" r="4" fill="red" />
<circle cx="405.35074155163437" cy="100" r="6" fill="none" stroke="blue" stroke-width="2" />
<circle cx="405.35074155163437" cy="100" r="3" fill="blue" />
<circle cx="625.5149779367354" cy="100" r="4" fill="red" />
<circle cx="637.5149779367354" cy="100" r="6" fill="none" stroke="blue" stroke-width="2" />
<circle cx="637.5149779367354" cy="100" r="3" fill="blue" />
<circle cx="827.6639256633606" cy="100" r="4" fill="red" />
<circle cx="839.6639256633606" cy="100" r="6" fill="none" stroke="black" stroke-width="2" />
<circle cx="839.6639256633606" cy="100" r="3" fill="black" />
<circle cx="950.0" cy="100" r="4" fill="black" />
<text x="50" y="125" fill="gray" style="font-size:12px;">2024-03-05T12:55:34+00:00</text>
<text x="900" y="125" fill="gray" style="font-size:12px;">2024-08-15T17:52:55+00:00</text>
</svg>