<svg xmlns="http://www.w3.org/2000/svg" width="1000" height="200" style="background-color: white; font-family: sans-serif;">
<line x1="50" y1="100" x2="950" y2="100" stroke="gray" stroke-width="1"/>
<path d="M 226.5687179753499 100 Q 138.28435898767495 80, 50.0 100" stroke="black" fill="none" marker-end="url(#arrowhead)"/>
<path d="M 238.5687179753499 100 Q 232.5687179753499 80, 226.5687179753499 100" stroke="black" fill="none" marker-end="url(#arrowhead)"/>
<path d="M 250.5687179753499 100 Q 244.5687179753499 80, 238.5687179753499 100" stroke="black" fill="none" marker-end="url(#arrowhead)"/>
<path d="M 250.5687179753499 100 Q 238.5687179753499 80, 226.5687179753499 100" stroke="black" fill="none" marker-end="url(#arrowhead)"/>
<path d="M 262.5687179753499 100 Q 250.5687179753499 80, 238.5687179753499 100" stroke="black" fill="none" marker-end="url(#arrowhead)"/>
<path d="M 262.5687179753499 100 Q 256.5687179753499 80, 250.5687179753499 100" stroke="black" fill="none" marker-end="url(#arrowhead)"/>
<path d="M 262.5687179753499 100 Q 244.5687179753499 80, 226.5687179753499 100" stroke="black" fill="none" marker-end="url(#arrowhead)"/>
<path d="M 274.5687179753499 100 Q 268.5687179753499 80, 262.5687179753499 100" stroke="black" fill="none" marker-end="url(#arrowhead)"/>
<path d="M 286.5687179753499 100 Q 280.5687179753499 80, 274.5687179753499 100" stroke="black" fill="none" marker-end="url(#arrowhead)"/>
<path d="M 298.5687179753499 100 Q 280.5687179753499 80, 262.5687179753499 100" stroke="black" fill="none" marker-end="url(#arrowhead)"/>
<path d="M 298.5687179753499 100 Q 286.5687179753499 80, 274.5687179753499 100" stroke="black" fill="none" marker-end="url(#arrowhead)"/>
<path d="M 322.5687179753499 100 Q 310.5687179753499 80, 298.5687179753499 100" stroke="black" fill="none" marker-end="url(#arrowhead)"/>
<path d="M 479.6684926551568 100 Q 401.1186053152534 80, 322.5687179753499 100" stroke="black" fill="none" marker-end="url(#arrowhead)"/>
<path d="M 479.6684926551568 100 Q 389.1186053152534 80, 298.5687179753499 100" stroke="black" fill="none" marker-end="url(#arrowhead)"/>
<path d="M 563.5904015829306 100 Q 443.07955977914025 80, 322.5687179753499 100" stroke="black" fill="none" marker-end="url(#arrowhead)"/>
<path d="M 563.5904015829306 100 Q 521.6294471190437 80, 479.6684926551568 100" stroke="black" fill="none" marker-end="url(#arrowhead)"/>
<path d="M 563.5904015829306 100 Q 431.07955977914025 80, 298.5687179753499 100" stroke="black" fill="none" marker-end="url(#arrowhead)"/>
<path d="M 575.5904015829306 100 Q 527.6294471190437 80, 479.6684926551568 100" stroke="black" fill="none" marker-end="url(#arrowhead)"/>
<path d="M 575.5904015829306 100 Q 569.5904015829306 80, 563.5904015829306 100" stroke="black" fill="none" marker-end="url(#arrowhead)"/>
<path d="M 724.3084287274223 100 Q 699.751992128326 80, 675.1955555292296 100" stroke="black" fill="none" marker-end="url(#arrowhead)"/>
<path d="M 736.3084287274223 100 Q 730.3084287274223 80, 724.3084287274223 100" stroke="black" fill="none" marker-end="url(#arrowhead)"/>
<path d="M 736.3084287274223 100 Q 705.751992128326 80, 675.1955555292296 100" stroke="black" fill="none" marker-end="url(#arrowhead)"/>
<path d="M 816.0293821278673 100 Q 776.1689054276449 80, 736.3084287274223 100" stroke="black" fill="none" marker-end="url(#arrowhead)"/>
<path d="M 864.0137602767815 100 Q 800.1610945021018 80, 736.3084287274223 100" stroke="black" fill="none" marker-end="url(#arrowhead)"/>
<path d="M 864.0137602767815 100 Q 840.0215712023244 80, 816.0293821278673 100" stroke="black" fill="none" marker-end="url(#arrowhead)"/>
<path d="M 876.0137602767815 100 Q 870.0137602767815 80, 864.0137602767815 100" stroke="black" fill="none" marker-end="url(#arrowhead)"/>
<path d="M 895.7058437095828 100 Q 855.8676129187251 80, 816.0293821278673 100" stroke="black" fill="none" marker-end="url(#arrowhead)"/>
<path d="M 895.7058437095828 100 Q 879.8598019931821 80, 864.0137602767815 100" stroke="black" fill="none" marker-end="url(#arrowhead)"/>
<path d="M 895.7058437095828 100 Q 885.8598019931821 80, 876.0137602767815 100" stroke="black" fill="none" marker-end="url(#arrowhead)"/>
<path d="M 907.7058437095828 100 Q 901.7058437095828 80, 895.7058437095828 100" stroke="black" fill="none" marker-end="url(#arrowhead)"/>
<path d="M 907.7058437095828 100 Q 861.8676129187251 80, 816.0293821278673 100" stroke="black" fill="none" marker-end="url(#arrowhead)"/>
<path d="M 907.7058437095828 100 Q 885.8598019931821 80, 864.0137602767815 100" stroke="black" fill="none" marker-end="url(#arrowhead)"/>
<path d="M 907.7058437095828 100 Q 891.8598019931821 80, 876.0137602767815 100" stroke="black" fill="none" marker-end="url(#arrowhead)"/>
<path d="M 931.7058437095828 100 Q 919.7058437095828 80, 907.7058437095828 100" stroke="black" fill="none" marker-end="url(#arrowhead)"/>
<path d="M 931.7058437095828 100 Q 925.7058437095828 80, 919.7058437095828 100" stroke="black" fill="none" marker-end="url(#arrowhead)"/>
<path d="M 943.7058437095828 100 Q 931.7058437095828 80, 919.7058437095828 100" stroke="black" fill="none" marker-end="url(#arrowhead)"/>
<path d="M 943.7058437095828 100 Q 937.7058437095828 80, 931.7058437095828 100" stroke="black" fill="none" marker-end="url(#arrowhead)"/>
<path d="M 955.7058437095828 100 Q 949.7058437095828 80, 943.7058437095828 100" stroke="black" fill="none" marker-end="url(#arrowhead)"/>
<path d="M 967.7058437095828 100 Q 955.7058437095828 80, 943.7058437095828 100" stroke="black" fill="none" marker-end="url(#arrowhead)"/>
<path d="M 967.7058437095828 100 Q 961.7058437095828 80, 955.7058437095828 100" stroke="black" fill="none" marker-end="url(#arrowhead)"/>

<defs>
  <marker id="arrowhead" markerWidth="5" markerHeight="5" 
          refX="2" refY="2" orient="auto" fill="black">
    <path d="M0,0 L0,4 L4,2 z" />
  </marker>
</defs>

<circle cx="50.0" cy="100" r="6" fill="none" stroke="blue" stroke-width="2" />
<circle cx="50.0" cy="100" r="3" fill="blue" />
<circle cx="226.5687179753499" cy="100" r="4" fill="blue" />
<circle cx="238.5687179753499" cy="100" r="6" fill="none" stroke="black" stroke-width="2" />
<circle cx="238.5687179753499" cy="100" r="3" fill="black" />
<circle cx="250.5687179753499" cy="100" r="6" fill="none" stroke="black" stroke-width="2" />
<circle cx="250.5687179753499" cy="100" r="3" fill="black" />
<circle cx="262.5687179753499" cy="100" r="4" fill="black" />
<circle cx="274.5687179753499" cy="100" r="6" fill="none" stroke="blue" stroke-width="2" />
<circle cx="274.5687179753499" cy="100" r="3" fill="blue" />
<circle cx="286.5687179753499" cy="100" r="6" fill="none" stroke="blue" stroke-width="2" />
<circle cx="286.5687179753499" cy="100" r="3" fill="blue" />
<circle cx="298.5687179753499" cy="100" r="4" fill="black" />
<circle cx="310.5687179753499" cy="100" r="6" fill="none" stroke="black" stroke-width="2" />
<circle cx="310.5687179753499" cy="100" r="3" fill="black" />
<circle cx="322.5687179753499" cy="100" r="6" fill="none" stroke="blue" stroke-width="2" />
<circle cx="322.5687179753499" cy="100" r="3" fill="blue" />
<circle cx="479.6684926551568" cy="100" r="4" fill="red" />
<circle cx="563.5904015829306" cy="100" r="4" fill="red" />
<circle cx="575.5904015829306" cy="100" r="4" fill="blue" />
<circle cx="675.1955555292296" cy="100" r="4" fill="red" />
<circle cx="724.3084287274223" cy="100" r="4" fill="blue" />
<circle cx="736.3084287274223" cy="100" r="4" fill="red" />
<circle cx="816.0293821278673" cy="100" r="4" fill="black" />
<circle cx="864.0137602767815" cy="100" r="4" fill="red" />
<circle cx="876.0137602767815" cy="100" r="4" fill="green" />
<circle cx="895.7058437095828" cy="100" r="4" fill="black" />
<circle cx="907.7058437095828" cy="100" r="4" fill="black" />
<circle cx="919.7058437095828" cy="100" r="4" fill="black" />
<circle cx="931.7058437095828" cy="100" r="4" fill="red" />
<circle cx="943.7058437095828" cy="100" r="4" fill="black" />
<circle cx="955.7058437095828" cy="100" r="4" fill="blue" />
<circle cx="967.7058437095828" cy="100" r="4" fill="red" />
<text x="50" y="125" fill="gray" style="font-size:12px;">2024-09-13T11:49:36+00:00</text>
<text x="900" y="125" fill="gray" style="font-size:12px;">2025-02-28T12:51:10+00:00</text>
</svg>