<svg xmlns="http://www.w3.org/2000/svg" width="1000" height="400" style="background-color: white; font-family: sans-serif;">
<line x1="50" y1="200" x2="950" y2="200" stroke="gray" stroke-width="1"/>
<path d="M 62.0 200 Q 56.0 180, 50.0 200" stroke="black" fill="none" marker-end="url(#arrowhead)"/>
<path d="M 74.0 200 Q 62.0 180, 50.0 200" stroke="black" fill="none" marker-end="url(#arrowhead)"/>
<path d="M 86.0 200 Q 74.0 180, 62.0 200" stroke="black" fill="none" marker-end="url(#arrowhead)"/>
<path d="M 98.0 200 Q 74.0 180, 50.0 200" stroke="black" fill="none" marker-end="url(#arrowhead)"/>
<path d="M 98.0 200 Q 80.0 180, 62.0 200" stroke="black" fill="none" marker-end="url(#arrowhead)"/>
<path d="M 98.0 200 Q 92.0 180, 86.0 200" stroke="black" fill="none" marker-end="url(#arrowhead)"/>
<path d="M 532.9646218995667 200 Q 526.9646218995667 180, 520.9646218995667 200" stroke="black" fill="none" marker-end="url(#arrowhead)"/>
<path d="M 547.1877447817963 200 Q 534.0761833406815 180, 520.9646218995667 200" stroke="black" fill="none" marker-end="url(#arrowhead)"/>
<path d="M 580.494966456047 200 Q 563.8413556189216 180, 547.1877447817963 200" stroke="black" fill="none" marker-end="url(#arrowhead)"/>
<path d="M 685.5708368938414 200 Q 679.5708368938414 180, 673.5708368938414 200" stroke="black" fill="none" marker-end="url(#arrowhead)"/>
<path d="M 950.0 200 Q 817.7854184469206 180, 685.5708368938414 200" stroke="black" fill="none" marker-end="url(#arrowhead)"/>
<path d="M 950.0 200 Q 811.7854184469206 180, 673.5708368938414 200" stroke="black" fill="none" marker-end="url(#arrowhead)"/>

<defs>
  <marker id="arrowhead" markerWidth="5" markerHeight="5" 
          refX="2" refY="2" orient="auto" fill="black">
    <path d="M0,0 L0,4 L4,2 z" />
  </marker>
</defs>

<circle cx="50.0" cy="200" r="6" fill="none" stroke="blue" stroke-width="2" />
<circle cx="50.0" cy="200" r="3" fill="blue" />
<circle cx="62.0" cy="200" r="4" fill="black" />
<circle cx="74.0" cy="200" r="4" fill="black" />
<circle cx="86.0" cy="200" r="4" fill="black" />
<circle cx="98.0" cy="200" r="6" fill="none" stroke="black" stroke-width="2" />
<circle cx="98.0" cy="200" r="3" fill="black" />
<circle cx="520.9646218995667" cy="200" r="4" fill="red" />
<circle cx="532.9646218995667" cy="200" r="4" fill="black" />
<circle cx="547.1877447817963" cy="200" r="6" fill="none" stroke="blue" stroke-width="2" />
<circle cx="547.1877447817963" cy="200" r="3" fill="blue" />
<circle cx="580.494966456047" cy="200" r="4" fill="blue" />
<circle cx="592.494966456047" cy="200" r="4" fill="red" />
<circle cx="673.5708368938414" cy="200" r="6" fill="none" stroke="blue" stroke-width="2" />
<circle cx="673.5708368938414" cy="200" r="3" fill="blue" />
<circle cx="685.5708368938414" cy="200" r="4" fill="green" />
<circle cx="950.0" cy="200" r="6" fill="none" stroke="blue" stroke-width="2" />
<circle cx="950.0" cy="200" r="3" fill="blue" />
<text x="50" y="225" fill="gray" style="font-size:12px;">2023-10-12T09:48:35+00:00</text>
<text x="900" y="225" fill="gray" style="font-size:12px;">2025-02-05T10:00:24+00:00</text>
</svg>