<svg xmlns="http://www.w3.org/2000/svg" width="1000" height="200" style="background-color: white; font-family: sans-serif;">
<line x1="50" y1="100" x2="950" y2="100" stroke="gray" stroke-width="1"/>
<path d="M 62.0 100 Q 56.0 80, 50.0 100" stroke="black" fill="none" marker-end="url(#arrowhead)"/>
<path d="M 74.0 100 Q 62.0 80, 50.0 100" stroke="black" fill="none" marker-end="url(#arrowhead)"/>
<path d="M 86.0 100 Q 74.0 80, 62.0 100" stroke="black" fill="none" marker-end="url(#arrowhead)"/>
<path d="M 98.0 100 Q 74.0 80, 50.0 100" stroke="black" fill="none" marker-end="url(#arrowhead)"/>
<path d="M 98.0 100 Q 80.0 80, 62.0 100" stroke="black" fill="none" marker-end="url(#arrowhead)"/>
<path d="M 98.0 100 Q 92.0 80, 86.0 100" stroke="black" fill="none" marker-end="url(#arrowhead)"/>
<path d="M 532.9646218995667 100 Q 526.9646218995667 80, 520.9646218995667 100" stroke="black" fill="none" marker-end="url(#arrowhead)"/>
<path d="M 547.1877447817963 100 Q 534.0761833406815 80, 520.9646218995667 100" stroke="black" fill="none" marker-end="url(#arrowhead)"/>
<path d="M 580.494966456047 100 Q 563.8413556189216 80, 547.1877447817963 100" stroke="black" fill="none" marker-end="url(#arrowhead)"/>
<path d="M 685.5708368938414 100 Q 679.5708368938414 80, 673.5708368938414 100" stroke="black" fill="none" marker-end="url(#arrowhead)"/>
<path d="M 950.0 100 Q 817.7854184469206 80, 685.5708368938414 100" stroke="black" fill="none" marker-end="url(#arrowhead)"/>
<path d="M 950.0 100 Q 811.7854184469206 80, 673.5708368938414 100" stroke="black" fill="none" marker-end="url(#arrowhead)"/>

<defs>
  <marker id="arrowhead" markerWidth="5" markerHeight="5" 
          refX="2" refY="2" orient="auto" fill="black">
    <path d="M0,0 L0,4 L4,2 z" />
  </marker>
</defs>

<circle cx="50.0" cy="100" r="6" fill="none" stroke="blue" stroke-width="2" />
<circle cx="50.0" cy="100" r="3" fill="blue" />
<circle cx="62.0" cy="100" r="4" fill="black" />
<circle cx="74.0" cy="100" r="4" fill="black" />
<circle cx="86.0" cy="100" r="4" fill="black" />
<circle cx="98.0" cy="100" r="6" fill="none" stroke="black" stroke-width="2" />
<circle cx="98.0" cy="100" r="3" fill="black" />
<circle cx="520.9646218995667" cy="100" r="4" fill="red" />
<circle cx="532.9646218995667" cy="100" r="4" fill="black" />
<circle cx="547.1877447817963" cy="100" r="6" fill="none" stroke="blue" stroke-width="2" />
<circle cx="547.1877447817963" cy="100" r="3" fill="blue" />
<circle cx="580.494966456047" cy="100" r="4" fill="blue" />
<circle cx="592.494966456047" cy="100" r="4" fill="red" />
<circle cx="673.5708368938414" cy="100" r="6" fill="none" stroke="blue" stroke-width="2" />
<circle cx="673.5708368938414" cy="100" r="3" fill="blue" />
<circle cx="685.5708368938414" cy="100" r="4" fill="green" />
<circle cx="950.0" cy="100" r="6" fill="none" stroke="blue" stroke-width="2" />
<circle cx="950.0" cy="100" r="3" fill="blue" />
<text x="50" y="125" fill="gray" style="font-size:12px;">2023-10-12T09:48:35+00:00</text>
<text x="900" y="125" fill="gray" style="font-size:12px;">2025-02-05T10:00:24+00:00</text>
</svg>