<svg xmlns="http://www.w3.org/2000/svg" width="1000" height="200" style="background-color: white; font-family: sans-serif;">
<line x1="50" y1="100" x2="950" y2="100" stroke="gray" stroke-width="1"/>
<path d="M 106.88837083186806 100 Q 100.88837083186806 80, 94.88837083186806 100" stroke="black" fill="none" marker-end="url(#arrowhead)"/>
<path d="M 118.88837083186806 100 Q 112.88837083186806 80, 106.88837083186806 100" stroke="black" fill="none" marker-end="url(#arrowhead)"/>
<path d="M 130.88837083186806 100 Q 124.88837083186806 80, 118.88837083186806 100" stroke="black" fill="none" marker-end="url(#arrowhead)"/>
<path d="M 130.88837083186806 100 Q 90.44418541593403 80, 50.0 100" stroke="black" fill="none" marker-end="url(#arrowhead)"/>
<path d="M 153.15804901330512 100 Q 142.0232099225866 80, 130.88837083186806 100" stroke="black" fill="none" marker-end="url(#arrowhead)"/>
<path d="M 165.15804901330512 100 Q 159.15804901330512 80, 153.15804901330512 100" stroke="black" fill="none" marker-end="url(#arrowhead)"/>
<path d="M 177.15804901330512 100 Q 171.15804901330512 80, 165.15804901330512 100" stroke="black" fill="none" marker-end="url(#arrowhead)"/>
<path d="M 221.9565138021748 100 Q 215.9565138021748 80, 209.9565138021748 100" stroke="black" fill="none" marker-end="url(#arrowhead)"/>
<path d="M 233.9565138021748 100 Q 227.9565138021748 80, 221.9565138021748 100" stroke="black" fill="none" marker-end="url(#arrowhead)"/>
<path d="M 245.9565138021748 100 Q 147.9782569010874 80, 50.0 100" stroke="black" fill="none" marker-end="url(#arrowhead)"/>
<path d="M 245.9565138021748 100 Q 239.9565138021748 80, 233.9565138021748 100" stroke="black" fill="none" marker-end="url(#arrowhead)"/>
<path d="M 257.9565138021748 100 Q 251.9565138021748 80, 245.9565138021748 100" stroke="black" fill="none" marker-end="url(#arrowhead)"/>
<path d="M 269.9565138021748 100 Q 257.9565138021748 80, 245.9565138021748 100" stroke="black" fill="none" marker-end="url(#arrowhead)"/>
<path d="M 281.9565138021748 100 Q 275.9565138021748 80, 269.9565138021748 100" stroke="black" fill="none" marker-end="url(#arrowhead)"/>
<path d="M 293.9565138021748 100 Q 281.9565138021748 80, 269.9565138021748 100" stroke="black" fill="none" marker-end="url(#arrowhead)"/>
<path d="M 293.9565138021748 100 Q 287.9565138021748 80, 281.9565138021748 100" stroke="black" fill="none" marker-end="url(#arrowhead)"/>
<path d="M 305.9565138021748 100 Q 299.9565138021748 80, 293.9565138021748 100" stroke="black" fill="none" marker-end="url(#arrowhead)"/>
<path d="M 317.9565138021748 100 Q 183.9782569010874 80, 50.0 100" stroke="black" fill="none" marker-end="url(#arrowhead)"/>
<path d="M 317.9565138021748 100 Q 269.9565138021748 80, 221.9565138021748 100" stroke="black" fill="none" marker-end="url(#arrowhead)"/>
<path d="M 317.9565138021748 100 Q 305.9565138021748 80, 293.9565138021748 100" stroke="black" fill="none" marker-end="url(#arrowhead)"/>
<path d="M 317.9565138021748 100 Q 311.9565138021748 80, 305.9565138021748 100" stroke="black" fill="none" marker-end="url(#arrowhead)"/>
<path d="M 329.9565138021748 100 Q 323.9565138021748 80, 317.9565138021748 100" stroke="black" fill="none" marker-end="url(#arrowhead)"/>
<path d="M 341.9565138021748 100 Q 335.9565138021748 80, 329.9565138021748 100" stroke="black" fill="none" marker-end="url(#arrowhead)"/>
<path d="M 365.9565138021748 100 Q 359.9565138021748 80, 353.9565138021748 100" stroke="black" fill="none" marker-end="url(#arrowhead)"/>
<path d="M 377.9565138021748 100 Q 371.9565138021748 80, 365.9565138021748 100" stroke="black" fill="none" marker-end="url(#arrowhead)"/>
<path d="M 389.9565138021748 100 Q 383.9565138021748 80, 377.9565138021748 100" stroke="black" fill="none" marker-end="url(#arrowhead)"/>
<path d="M 401.9565138021748 100 Q 395.9565138021748 80, 389.9565138021748 100" stroke="black" fill="none" marker-end="url(#arrowhead)"/>
<path d="M 413.9565138021748 100 Q 401.9565138021748 80, 389.9565138021748 100" stroke="black" fill="none" marker-end="url(#arrowhead)"/>
<path d="M 413.9565138021748 100 Q 407.9565138021748 80, 401.9565138021748 100" stroke="black" fill="none" marker-end="url(#arrowhead)"/>
<path d="M 425.9565138021748 100 Q 395.9565138021748 80, 365.9565138021748 100" stroke="black" fill="none" marker-end="url(#arrowhead)"/>
<path d="M 437.9565138021748 100 Q 431.9565138021748 80, 425.9565138021748 100" stroke="black" fill="none" marker-end="url(#arrowhead)"/>
<path d="M 449.9565138021748 100 Q 443.9565138021748 80, 437.9565138021748 100" stroke="black" fill="none" marker-end="url(#arrowhead)"/>
<path d="M 461.9565138021748 100 Q 431.9565138021748 80, 401.9565138021748 100" stroke="black" fill="none" marker-end="url(#arrowhead)"/>
<path d="M 473.9565138021748 100 Q 461.9565138021748 80, 449.9565138021748 100" stroke="black" fill="none" marker-end="url(#arrowhead)"/>
<path d="M 485.9565138021748 100 Q 479.9565138021748 80, 473.9565138021748 100" stroke="black" fill="none" marker-end="url(#arrowhead)"/>
<path d="M 497.9565138021748 100 Q 491.9565138021748 80, 485.9565138021748 100" stroke="black" fill="none" marker-end="url(#arrowhead)"/>
<path d="M 509.9565138021748 100 Q 491.9565138021748 80, 473.9565138021748 100" stroke="black" fill="none" marker-end="url(#arrowhead)"/>
<path d="M 509.9565138021748 100 Q 497.9565138021748 80, 485.9565138021748 100" stroke="black" fill="none" marker-end="url(#arrowhead)"/>
<path d="M 509.9565138021748 100 Q 503.9565138021748 80, 497.9565138021748 100" stroke="black" fill="none" marker-end="url(#arrowhead)"/>
<path d="M 521.9565138021749 100 Q 515.9565138021749 80, 509.9565138021748 100" stroke="black" fill="none" marker-end="url(#arrowhead)"/>
<path d="M 533.9565138021749 100 Q 521.9565138021749 80, 509.9565138021748 100" stroke="black" fill="none" marker-end="url(#arrowhead)"/>
<path d="M 545.9565138021749 100 Q 533.9565138021749 80, 521.9565138021749 100" stroke="black" fill="none" marker-end="url(#arrowhead)"/>
<path d="M 586.8589497662682 100 Q 554.4077317842216 80, 521.9565138021749 100" stroke="black" fill="none" marker-end="url(#arrowhead)"/>
<path d="M 632.6414448914286 100 Q 609.7501973288483 80, 586.8589497662682 100" stroke="black" fill="none" marker-end="url(#arrowhead)"/>
<path d="M 736.7178859595765 100 Q 641.3371998808757 80, 545.9565138021749 100" stroke="black" fill="none" marker-end="url(#arrowhead)"/>
<path d="M 748.7178859595765 100 Q 742.7178859595765 80, 736.7178859595765 100" stroke="black" fill="none" marker-end="url(#arrowhead)"/>
<path d="M 760.7178859595765 100 Q 754.7178859595765 80, 748.7178859595765 100" stroke="black" fill="none" marker-end="url(#arrowhead)"/>
<path d="M 772.7178859595765 100 Q 766.7178859595765 80, 760.7178859595765 100" stroke="black" fill="none" marker-end="url(#arrowhead)"/>
<path d="M 808.7178859595765 100 Q 784.7178859595765 80, 760.7178859595765 100" stroke="black" fill="none" marker-end="url(#arrowhead)"/>
<path d="M 808.7178859595765 100 Q 790.7178859595765 80, 772.7178859595765 100" stroke="black" fill="none" marker-end="url(#arrowhead)"/>
<path d="M 832.7178859595765 100 Q 826.7178859595765 80, 820.7178859595765 100" stroke="black" fill="none" marker-end="url(#arrowhead)"/>
<path d="M 865.4159145752211 100 Q 837.0669002673988 80, 808.7178859595765 100" stroke="black" fill="none" marker-end="url(#arrowhead)"/>
<path d="M 865.4159145752211 100 Q 457.70795728761055 80, 50.0 100" stroke="black" fill="none" marker-end="url(#arrowhead)"/>
<path d="M 877.4159145752211 100 Q 871.4159145752211 80, 865.4159145752211 100" stroke="black" fill="none" marker-end="url(#arrowhead)"/>
<path d="M 877.4159145752211 100 Q 543.6862141886979 80, 209.9565138021748 100" stroke="black" fill="none" marker-end="url(#arrowhead)"/>
<path d="M 889.4159145752211 100 Q 469.70795728761055 80, 50.0 100" stroke="black" fill="none" marker-end="url(#arrowhead)"/>
<path d="M 889.4159145752211 100 Q 883.4159145752211 80, 877.4159145752211 100" stroke="black" fill="none" marker-end="url(#arrowhead)"/>
<path d="M 901.4159145752211 100 Q 883.4159145752211 80, 865.4159145752211 100" stroke="black" fill="none" marker-end="url(#arrowhead)"/>
<path d="M 913.4159145752211 100 Q 889.4159145752211 80, 865.4159145752211 100" stroke="black" fill="none" marker-end="url(#arrowhead)"/>
<path d="M 913.4159145752211 100 Q 561.6862141886979 80, 209.9565138021748 100" stroke="black" fill="none" marker-end="url(#arrowhead)"/>
<path d="M 925.4159145752211 100 Q 919.4159145752211 80, 913.4159145752211 100" stroke="black" fill="none" marker-end="url(#arrowhead)"/>
<path d="M 937.4159145752211 100 Q 931.4159145752211 80, 925.4159145752211 100" stroke="black" fill="none" marker-end="url(#arrowhead)"/>
<path d="M 985.4159145752211 100 Q 979.4159145752211 80, 973.4159145752211 100" stroke="black" fill="none" marker-end="url(#arrowhead)"/>
<path d="M 1009.4159145752211 100 Q 991.4159145752211 80, 973.4159145752211 100" stroke="black" fill="none" marker-end="url(#arrowhead)"/>
<path d="M 1021.4159145752211 100 Q 1003.4159145752211 80, 985.4159145752211 100" stroke="black" fill="none" marker-end="url(#arrowhead)"/>
<path d="M 1057.415914575221 100 Q 1051.415914575221 80, 1045.415914575221 100" stroke="black" fill="none" marker-end="url(#arrowhead)"/>
<path d="M 1069.415914575221 100 Q 1063.415914575221 80, 1057.415914575221 100" stroke="black" fill="none" marker-end="url(#arrowhead)"/>

<defs>
  <marker id="arrowhead" markerWidth="5" markerHeight="5" 
          refX="2" refY="2" orient="auto" fill="black">
    <path d="M0,0 L0,4 L4,2 z" />
  </marker>
</defs>

<circle cx="50.0" cy="100" r="6" fill="none" stroke="blue" stroke-width="2" />
<circle cx="50.0" cy="100" r="3" fill="blue" />
<circle cx="70.88837083186806" cy="100" r="6" fill="none" stroke="blue" stroke-width="2" />
<circle cx="70.88837083186806" cy="100" r="3" fill="blue" />
<circle cx="82.88837083186806" cy="100" r="4" fill="black" />
<circle cx="94.88837083186806" cy="100" r="4" fill="red" />
<circle cx="106.88837083186806" cy="100" r="6" fill="none" stroke="red" stroke-width="2" />
<circle cx="106.88837083186806" cy="100" r="3" fill="red" />
<circle cx="118.88837083186806" cy="100" r="6" fill="none" stroke="blue" stroke-width="2" />
<circle cx="118.88837083186806" cy="100" r="3" fill="blue" />
<circle cx="130.88837083186806" cy="100" r="6" fill="none" stroke="blue" stroke-width="2" />
<circle cx="130.88837083186806" cy="100" r="3" fill="blue" />
<circle cx="153.15804901330512" cy="100" r="4" fill="red" />
<circle cx="165.15804901330512" cy="100" r="4" fill="blue" />
<circle cx="177.15804901330512" cy="100" r="4" fill="blue" />
<circle cx="209.9565138021748" cy="100" r="4" fill="red" />
<circle cx="221.9565138021748" cy="100" r="6" fill="none" stroke="blue" stroke-width="2" />
<circle cx="221.9565138021748" cy="100" r="3" fill="blue" />
<circle cx="233.9565138021748" cy="100" r="6" fill="none" stroke="blue" stroke-width="2" />
<circle cx="233.9565138021748" cy="100" r="3" fill="blue" />
<circle cx="245.9565138021748" cy="100" r="4" fill="black" />
<circle cx="257.9565138021748" cy="100" r="4" fill="black" />
<circle cx="269.9565138021748" cy="100" r="6" fill="none" stroke="blue" stroke-width="2" />
<circle cx="269.9565138021748" cy="100" r="3" fill="blue" />
<circle cx="281.9565138021748" cy="100" r="6" fill="none" stroke="blue" stroke-width="2" />
<circle cx="281.9565138021748" cy="100" r="3" fill="blue" />
<circle cx="293.9565138021748" cy="100" r="4" fill="red" />
<circle cx="305.9565138021748" cy="100" r="6" fill="none" stroke="blue" stroke-width="2" />
<circle cx="305.9565138021748" cy="100" r="3" fill="blue" />
<circle cx="317.9565138021748" cy="100" r="4" fill="green" />
<circle cx="329.9565138021748" cy="100" r="6" fill="none" stroke="blue" stroke-width="2" />
<circle cx="329.9565138021748" cy="100" r="3" fill="blue" />
<circle cx="341.9565138021748" cy="100" r="4" fill="red" />
<circle cx="353.9565138021748" cy="100" r="4" fill="red" />
<circle cx="365.9565138021748" cy="100" r="4" fill="red" />
<circle cx="377.9565138021748" cy="100" r="4" fill="black" />
<circle cx="389.9565138021748" cy="100" r="4" fill="black" />
<circle cx="401.9565138021748" cy="100" r="4" fill="green" />
<circle cx="413.9565138021748" cy="100" r="4" fill="black" />
<circle cx="425.9565138021748" cy="100" r="4" fill="blue" />
<circle cx="437.9565138021748" cy="100" r="6" fill="none" stroke="blue" stroke-width="2" />
<circle cx="437.9565138021748" cy="100" r="3" fill="blue" />
<circle cx="449.9565138021748" cy="100" r="6" fill="none" stroke="blue" stroke-width="2" />
<circle cx="449.9565138021748" cy="100" r="3" fill="blue" />
<circle cx="461.9565138021748" cy="100" r="4" fill="black" />
<circle cx="473.9565138021748" cy="100" r="4" fill="red" />
<circle cx="485.9565138021748" cy="100" r="4" fill="red" />
<circle cx="497.9565138021748" cy="100" r="6" fill="none" stroke="black" stroke-width="2" />
<circle cx="497.9565138021748" cy="100" r="3" fill="black" />
<circle cx="509.9565138021748" cy="100" r="6" fill="none" stroke="red" stroke-width="2" />
<circle cx="509.9565138021748" cy="100" r="3" fill="red" />
<circle cx="521.9565138021749" cy="100" r="6" fill="none" stroke="blue" stroke-width="2" />
<circle cx="521.9565138021749" cy="100" r="3" fill="blue" />
<circle cx="533.9565138021749" cy="100" r="4" fill="black" />
<circle cx="545.9565138021749" cy="100" r="4" fill="red" />
<circle cx="586.8589497662682" cy="100" r="4" fill="red" />
<circle cx="632.6414448914286" cy="100" r="4" fill="black" />
<circle cx="736.7178859595765" cy="100" r="4" fill="blue" />
<circle cx="748.7178859595765" cy="100" r="4" fill="blue" />
<circle cx="760.7178859595765" cy="100" r="4" fill="blue" />
<circle cx="772.7178859595765" cy="100" r="4" fill="red" />
<circle cx="784.7178859595765" cy="100" r="4" fill="red" />
<circle cx="796.7178859595765" cy="100" r="4" fill="black" />
<circle cx="808.7178859595765" cy="100" r="4" fill="black" />
<circle cx="820.7178859595765" cy="100" r="4" fill="black" />
<circle cx="832.7178859595765" cy="100" r="4" fill="blue" />
<circle cx="865.4159145752211" cy="100" r="4" fill="blue" />
<circle cx="877.4159145752211" cy="100" r="4" fill="black" />
<circle cx="889.4159145752211" cy="100" r="4" fill="black" />
<circle cx="901.4159145752211" cy="100" r="4" fill="blue" />
<circle cx="913.4159145752211" cy="100" r="4" fill="blue" />
<circle cx="925.4159145752211" cy="100" r="4" fill="blue" />
<circle cx="937.4159145752211" cy="100" r="4" fill="blue" />
<circle cx="949.4159145752211" cy="100" r="4" fill="blue" />
<circle cx="961.4159145752211" cy="100" r="4" fill="blue" />
<circle cx="973.4159145752211" cy="100" r="4" fill="black" />
<circle cx="985.4159145752211" cy="100" r="4" fill="black" />
<circle cx="997.4159145752211" cy="100" r="4" fill="black" />
<circle cx="1009.4159145752211" cy="100" r="6" fill="none" stroke="black" stroke-width="2" />
<circle cx="1009.4159145752211" cy="100" r="3" fill="black" />
<circle cx="1021.4159145752211" cy="100" r="4" fill="blue" />
<circle cx="1033.415914575221" cy="100" r="4" fill="red" />
<circle cx="1045.415914575221" cy="100" r="4" fill="blue" />
<circle cx="1057.415914575221" cy="100" r="4" fill="black" />
<circle cx="1069.415914575221" cy="100" r="4" fill="black" />
<text x="50" y="125" fill="gray" style="font-size:12px;">2022-05-30T09:40:06+00:00</text>
<text x="900" y="125" fill="gray" style="font-size:12px;">2025-02-28T18:31:29+00:00</text>
</svg>