<svg xmlns="http://www.w3.org/2000/svg" width="1000" height="400" style="background-color: white; font-family: sans-serif;">
<line x1="50" y1="200" x2="950" y2="200" stroke="gray" stroke-width="1"/>
<path d="M 106.88837083186806 200 Q 100.88837083186806 180, 94.88837083186806 200" stroke="black" fill="none" marker-end="url(#arrowhead)"/>
<path d="M 118.88837083186806 200 Q 112.88837083186806 180, 106.88837083186806 200" stroke="black" fill="none" marker-end="url(#arrowhead)"/>
<path d="M 130.88837083186806 200 Q 124.88837083186806 180, 118.88837083186806 200" stroke="black" fill="none" marker-end="url(#arrowhead)"/>
<path d="M 130.88837083186806 200 Q 90.44418541593403 180, 50.0 200" stroke="black" fill="none" marker-end="url(#arrowhead)"/>
<path d="M 153.15804901330512 200 Q 142.0232099225866 180, 130.88837083186806 200" stroke="black" fill="none" marker-end="url(#arrowhead)"/>
<path d="M 165.15804901330512 200 Q 159.15804901330512 180, 153.15804901330512 200" stroke="black" fill="none" marker-end="url(#arrowhead)"/>
<path d="M 177.15804901330512 200 Q 171.15804901330512 180, 165.15804901330512 200" stroke="black" fill="none" marker-end="url(#arrowhead)"/>
<path d="M 221.9565138021748 200 Q 215.9565138021748 180, 209.9565138021748 200" stroke="black" fill="none" marker-end="url(#arrowhead)"/>
<path d="M 233.9565138021748 200 Q 227.9565138021748 180, 221.9565138021748 200" stroke="black" fill="none" marker-end="url(#arrowhead)"/>
<path d="M 245.9565138021748 200 Q 147.9782569010874 180, 50.0 200" stroke="black" fill="none" marker-end="url(#arrowhead)"/>
<path d="M 245.9565138021748 200 Q 239.9565138021748 180, 233.9565138021748 200" stroke="black" fill="none" marker-end="url(#arrowhead)"/>
<path d="M 257.9565138021748 200 Q 251.9565138021748 180, 245.9565138021748 200" stroke="black" fill="none" marker-end="url(#arrowhead)"/>
<path d="M 269.9565138021748 200 Q 257.9565138021748 180, 245.9565138021748 200" stroke="black" fill="none" marker-end="url(#arrowhead)"/>
<path d="M 281.9565138021748 200 Q 275.9565138021748 180, 269.9565138021748 200" stroke="black" fill="none" marker-end="url(#arrowhead)"/>
<path d="M 293.9565138021748 200 Q 281.9565138021748 180, 269.9565138021748 200" stroke="black" fill="none" marker-end="url(#arrowhead)"/>
<path d="M 293.9565138021748 200 Q 287.9565138021748 180, 281.9565138021748 200" stroke="black" fill="none" marker-end="url(#arrowhead)"/>
<path d="M 305.9565138021748 200 Q 299.9565138021748 180, 293.9565138021748 200" stroke="black" fill="none" marker-end="url(#arrowhead)"/>
<path d="M 317.9565138021748 200 Q 183.9782569010874 180, 50.0 200" stroke="black" fill="none" marker-end="url(#arrowhead)"/>
<path d="M 317.9565138021748 200 Q 269.9565138021748 180, 221.9565138021748 200" stroke="black" fill="none" marker-end="url(#arrowhead)"/>
<path d="M 317.9565138021748 200 Q 305.9565138021748 180, 293.9565138021748 200" stroke="black" fill="none" marker-end="url(#arrowhead)"/>
<path d="M 317.9565138021748 200 Q 311.9565138021748 180, 305.9565138021748 200" stroke="black" fill="none" marker-end="url(#arrowhead)"/>
<path d="M 329.9565138021748 200 Q 323.9565138021748 180, 317.9565138021748 200" stroke="black" fill="none" marker-end="url(#arrowhead)"/>
<path d="M 341.9565138021748 200 Q 335.9565138021748 180, 329.9565138021748 200" stroke="black" fill="none" marker-end="url(#arrowhead)"/>
<path d="M 365.9565138021748 200 Q 359.9565138021748 180, 353.9565138021748 200" stroke="black" fill="none" marker-end="url(#arrowhead)"/>
<path d="M 377.9565138021748 200 Q 371.9565138021748 180, 365.9565138021748 200" stroke="black" fill="none" marker-end="url(#arrowhead)"/>
<path d="M 389.9565138021748 200 Q 383.9565138021748 180, 377.9565138021748 200" stroke="black" fill="none" marker-end="url(#arrowhead)"/>
<path d="M 401.9565138021748 200 Q 395.9565138021748 180, 389.9565138021748 200" stroke="black" fill="none" marker-end="url(#arrowhead)"/>
<path d="M 413.9565138021748 200 Q 401.9565138021748 180, 389.9565138021748 200" stroke="black" fill="none" marker-end="url(#arrowhead)"/>
<path d="M 413.9565138021748 200 Q 407.9565138021748 180, 401.9565138021748 200" stroke="black" fill="none" marker-end="url(#arrowhead)"/>
<path d="M 425.9565138021748 200 Q 395.9565138021748 180, 365.9565138021748 200" stroke="black" fill="none" marker-end="url(#arrowhead)"/>
<path d="M 437.9565138021748 200 Q 431.9565138021748 180, 425.9565138021748 200" stroke="black" fill="none" marker-end="url(#arrowhead)"/>
<path d="M 449.9565138021748 200 Q 443.9565138021748 180, 437.9565138021748 200" stroke="black" fill="none" marker-end="url(#arrowhead)"/>
<path d="M 461.9565138021748 200 Q 431.9565138021748 180, 401.9565138021748 200" stroke="black" fill="none" marker-end="url(#arrowhead)"/>
<path d="M 473.9565138021748 200 Q 461.9565138021748 180, 449.9565138021748 200" stroke="black" fill="none" marker-end="url(#arrowhead)"/>
<path d="M 485.9565138021748 200 Q 479.9565138021748 180, 473.9565138021748 200" stroke="black" fill="none" marker-end="url(#arrowhead)"/>
<path d="M 497.9565138021748 200 Q 491.9565138021748 180, 485.9565138021748 200" stroke="black" fill="none" marker-end="url(#arrowhead)"/>
<path d="M 509.9565138021748 200 Q 491.9565138021748 180, 473.9565138021748 200" stroke="black" fill="none" marker-end="url(#arrowhead)"/>
<path d="M 509.9565138021748 200 Q 497.9565138021748 180, 485.9565138021748 200" stroke="black" fill="none" marker-end="url(#arrowhead)"/>
<path d="M 509.9565138021748 200 Q 503.9565138021748 180, 497.9565138021748 200" stroke="black" fill="none" marker-end="url(#arrowhead)"/>
<path d="M 521.9565138021749 200 Q 515.9565138021749 180, 509.9565138021748 200" stroke="black" fill="none" marker-end="url(#arrowhead)"/>
<path d="M 533.9565138021749 200 Q 521.9565138021749 180, 509.9565138021748 200" stroke="black" fill="none" marker-end="url(#arrowhead)"/>
<path d="M 545.9565138021749 200 Q 533.9565138021749 180, 521.9565138021749 200" stroke="black" fill="none" marker-end="url(#arrowhead)"/>
<path d="M 586.8589497662682 200 Q 554.4077317842216 180, 521.9565138021749 200" stroke="black" fill="none" marker-end="url(#arrowhead)"/>
<path d="M 632.6414448914286 200 Q 609.7501973288483 180, 586.8589497662682 200" stroke="black" fill="none" marker-end="url(#arrowhead)"/>
<path d="M 736.7178859595765 200 Q 641.3371998808757 180, 545.9565138021749 200" stroke="black" fill="none" marker-end="url(#arrowhead)"/>
<path d="M 748.7178859595765 200 Q 742.7178859595765 180, 736.7178859595765 200" stroke="black" fill="none" marker-end="url(#arrowhead)"/>
<path d="M 760.7178859595765 200 Q 754.7178859595765 180, 748.7178859595765 200" stroke="black" fill="none" marker-end="url(#arrowhead)"/>
<path d="M 772.7178859595765 200 Q 766.7178859595765 180, 760.7178859595765 200" stroke="black" fill="none" marker-end="url(#arrowhead)"/>
<path d="M 808.7178859595765 200 Q 784.7178859595765 180, 760.7178859595765 200" stroke="black" fill="none" marker-end="url(#arrowhead)"/>
<path d="M 808.7178859595765 200 Q 790.7178859595765 180, 772.7178859595765 200" stroke="black" fill="none" marker-end="url(#arrowhead)"/>
<path d="M 832.7178859595765 200 Q 826.7178859595765 180, 820.7178859595765 200" stroke="black" fill="none" marker-end="url(#arrowhead)"/>
<path d="M 865.4159145752211 200 Q 837.0669002673988 180, 808.7178859595765 200" stroke="black" fill="none" marker-end="url(#arrowhead)"/>
<path d="M 865.4159145752211 200 Q 457.70795728761055 180, 50.0 200" stroke="black" fill="none" marker-end="url(#arrowhead)"/>
<path d="M 877.4159145752211 200 Q 871.4159145752211 180, 865.4159145752211 200" stroke="black" fill="none" marker-end="url(#arrowhead)"/>
<path d="M 877.4159145752211 200 Q 543.6862141886979 180, 209.9565138021748 200" stroke="black" fill="none" marker-end="url(#arrowhead)"/>
<path d="M 889.4159145752211 200 Q 469.70795728761055 180, 50.0 200" stroke="black" fill="none" marker-end="url(#arrowhead)"/>
<path d="M 889.4159145752211 200 Q 883.4159145752211 180, 877.4159145752211 200" stroke="black" fill="none" marker-end="url(#arrowhead)"/>
<path d="M 901.4159145752211 200 Q 883.4159145752211 180, 865.4159145752211 200" stroke="black" fill="none" marker-end="url(#arrowhead)"/>
<path d="M 913.4159145752211 200 Q 889.4159145752211 180, 865.4159145752211 200" stroke="black" fill="none" marker-end="url(#arrowhead)"/>
<path d="M 913.4159145752211 200 Q 561.6862141886979 180, 209.9565138021748 200" stroke="black" fill="none" marker-end="url(#arrowhead)"/>
<path d="M 925.4159145752211 200 Q 919.4159145752211 180, 913.4159145752211 200" stroke="black" fill="none" marker-end="url(#arrowhead)"/>
<path d="M 937.4159145752211 200 Q 931.4159145752211 180, 925.4159145752211 200" stroke="black" fill="none" marker-end="url(#arrowhead)"/>
<path d="M 985.4159145752211 200 Q 979.4159145752211 180, 973.4159145752211 200" stroke="black" fill="none" marker-end="url(#arrowhead)"/>
<path d="M 1009.4159145752211 200 Q 991.4159145752211 180, 973.4159145752211 200" stroke="black" fill="none" marker-end="url(#arrowhead)"/>
<path d="M 1021.4159145752211 200 Q 1003.4159145752211 180, 985.4159145752211 200" stroke="black" fill="none" marker-end="url(#arrowhead)"/>
<path d="M 1057.415914575221 200 Q 1051.415914575221 180, 1045.415914575221 200" stroke="black" fill="none" marker-end="url(#arrowhead)"/>
<path d="M 1069.415914575221 200 Q 1063.415914575221 180, 1057.415914575221 200" stroke="black" fill="none" marker-end="url(#arrowhead)"/>

<defs>
  <marker id="arrowhead" markerWidth="5" markerHeight="5" 
          refX="2" refY="2" orient="auto" fill="black">
    <path d="M0,0 L0,4 L4,2 z" />
  </marker>
</defs>

<circle cx="50.0" cy="200" r="6" fill="none" stroke="blue" stroke-width="2" />
<circle cx="50.0" cy="200" r="3" fill="blue" />
<circle cx="70.88837083186806" cy="200" r="6" fill="none" stroke="blue" stroke-width="2" />
<circle cx="70.88837083186806" cy="200" r="3" fill="blue" />
<circle cx="82.88837083186806" cy="200" r="4" fill="black" />
<circle cx="94.88837083186806" cy="200" r="4" fill="red" />
<circle cx="106.88837083186806" cy="200" r="6" fill="none" stroke="red" stroke-width="2" />
<circle cx="106.88837083186806" cy="200" r="3" fill="red" />
<circle cx="118.88837083186806" cy="200" r="6" fill="none" stroke="blue" stroke-width="2" />
<circle cx="118.88837083186806" cy="200" r="3" fill="blue" />
<circle cx="130.88837083186806" cy="200" r="6" fill="none" stroke="blue" stroke-width="2" />
<circle cx="130.88837083186806" cy="200" r="3" fill="blue" />
<circle cx="153.15804901330512" cy="200" r="4" fill="red" />
<circle cx="165.15804901330512" cy="200" r="4" fill="blue" />
<circle cx="177.15804901330512" cy="200" r="4" fill="blue" />
<circle cx="209.9565138021748" cy="200" r="4" fill="red" />
<circle cx="221.9565138021748" cy="200" r="6" fill="none" stroke="blue" stroke-width="2" />
<circle cx="221.9565138021748" cy="200" r="3" fill="blue" />
<circle cx="233.9565138021748" cy="200" r="6" fill="none" stroke="blue" stroke-width="2" />
<circle cx="233.9565138021748" cy="200" r="3" fill="blue" />
<circle cx="245.9565138021748" cy="200" r="4" fill="black" />
<circle cx="257.9565138021748" cy="200" r="4" fill="black" />
<circle cx="269.9565138021748" cy="200" r="6" fill="none" stroke="blue" stroke-width="2" />
<circle cx="269.9565138021748" cy="200" r="3" fill="blue" />
<circle cx="281.9565138021748" cy="200" r="6" fill="none" stroke="blue" stroke-width="2" />
<circle cx="281.9565138021748" cy="200" r="3" fill="blue" />
<circle cx="293.9565138021748" cy="200" r="4" fill="red" />
<circle cx="305.9565138021748" cy="200" r="6" fill="none" stroke="blue" stroke-width="2" />
<circle cx="305.9565138021748" cy="200" r="3" fill="blue" />
<circle cx="317.9565138021748" cy="200" r="4" fill="green" />
<circle cx="329.9565138021748" cy="200" r="6" fill="none" stroke="blue" stroke-width="2" />
<circle cx="329.9565138021748" cy="200" r="3" fill="blue" />
<circle cx="341.9565138021748" cy="200" r="4" fill="red" />
<circle cx="353.9565138021748" cy="200" r="4" fill="red" />
<circle cx="365.9565138021748" cy="200" r="4" fill="red" />
<circle cx="377.9565138021748" cy="200" r="4" fill="black" />
<circle cx="389.9565138021748" cy="200" r="4" fill="black" />
<circle cx="401.9565138021748" cy="200" r="4" fill="green" />
<circle cx="413.9565138021748" cy="200" r="4" fill="black" />
<circle cx="425.9565138021748" cy="200" r="4" fill="blue" />
<circle cx="437.9565138021748" cy="200" r="6" fill="none" stroke="blue" stroke-width="2" />
<circle cx="437.9565138021748" cy="200" r="3" fill="blue" />
<circle cx="449.9565138021748" cy="200" r="6" fill="none" stroke="blue" stroke-width="2" />
<circle cx="449.9565138021748" cy="200" r="3" fill="blue" />
<circle cx="461.9565138021748" cy="200" r="4" fill="black" />
<circle cx="473.9565138021748" cy="200" r="4" fill="red" />
<circle cx="485.9565138021748" cy="200" r="4" fill="red" />
<circle cx="497.9565138021748" cy="200" r="6" fill="none" stroke="black" stroke-width="2" />
<circle cx="497.9565138021748" cy="200" r="3" fill="black" />
<circle cx="509.9565138021748" cy="200" r="6" fill="none" stroke="red" stroke-width="2" />
<circle cx="509.9565138021748" cy="200" r="3" fill="red" />
<circle cx="521.9565138021749" cy="200" r="6" fill="none" stroke="blue" stroke-width="2" />
<circle cx="521.9565138021749" cy="200" r="3" fill="blue" />
<circle cx="533.9565138021749" cy="200" r="4" fill="black" />
<circle cx="545.9565138021749" cy="200" r="4" fill="red" />
<circle cx="586.8589497662682" cy="200" r="4" fill="red" />
<circle cx="632.6414448914286" cy="200" r="4" fill="black" />
<circle cx="736.7178859595765" cy="200" r="4" fill="blue" />
<circle cx="748.7178859595765" cy="200" r="4" fill="blue" />
<circle cx="760.7178859595765" cy="200" r="4" fill="blue" />
<circle cx="772.7178859595765" cy="200" r="4" fill="red" />
<circle cx="784.7178859595765" cy="200" r="4" fill="red" />
<circle cx="796.7178859595765" cy="200" r="4" fill="black" />
<circle cx="808.7178859595765" cy="200" r="4" fill="black" />
<circle cx="820.7178859595765" cy="200" r="4" fill="black" />
<circle cx="832.7178859595765" cy="200" r="4" fill="blue" />
<circle cx="865.4159145752211" cy="200" r="4" fill="blue" />
<circle cx="877.4159145752211" cy="200" r="4" fill="black" />
<circle cx="889.4159145752211" cy="200" r="4" fill="black" />
<circle cx="901.4159145752211" cy="200" r="4" fill="blue" />
<circle cx="913.4159145752211" cy="200" r="4" fill="blue" />
<circle cx="925.4159145752211" cy="200" r="4" fill="blue" />
<circle cx="937.4159145752211" cy="200" r="4" fill="blue" />
<circle cx="949.4159145752211" cy="200" r="4" fill="blue" />
<circle cx="961.4159145752211" cy="200" r="4" fill="blue" />
<circle cx="973.4159145752211" cy="200" r="4" fill="black" />
<circle cx="985.4159145752211" cy="200" r="4" fill="black" />
<circle cx="997.4159145752211" cy="200" r="4" fill="black" />
<circle cx="1009.4159145752211" cy="200" r="6" fill="none" stroke="black" stroke-width="2" />
<circle cx="1009.4159145752211" cy="200" r="3" fill="black" />
<circle cx="1021.4159145752211" cy="200" r="4" fill="blue" />
<circle cx="1033.415914575221" cy="200" r="4" fill="red" />
<circle cx="1045.415914575221" cy="200" r="4" fill="blue" />
<circle cx="1057.415914575221" cy="200" r="4" fill="black" />
<circle cx="1069.415914575221" cy="200" r="4" fill="black" />
<text x="50" y="225" fill="gray" style="font-size:12px;">2022-05-30T09:40:06+00:00</text>
<text x="900" y="225" fill="gray" style="font-size:12px;">2025-02-28T18:31:29+00:00</text>
</svg>