<svg xmlns="http://www.w3.org/2000/svg" width="1000" height="200" style="background-color: white; font-family: sans-serif;">
<line x1="50" y1="100" x2="950" y2="100" stroke="gray" stroke-width="1"/>
<path d="M 62.0 100 Q 56.0 80, 50.0 100" stroke="black" fill="none" marker-end="url(#arrowhead)"/>
<path d="M 74.0 100 Q 62.0 80, 50.0 100" stroke="black" fill="none" marker-end="url(#arrowhead)"/>
<path d="M 74.0 100 Q 68.0 80, 62.0 100" stroke="black" fill="none" marker-end="url(#arrowhead)"/>
<path d="M 670.4506807661357 100 Q 372.2253403830679 80, 74.0 100" stroke="black" fill="none" marker-end="url(#arrowhead)"/>
<path d="M 723.6372054268618 100 Q 697.0439430964988 80, 670.4506807661357 100" stroke="black" fill="none" marker-end="url(#arrowhead)"/>
<path d="M 901.5012516328056 100 Q 785.9759661994707 80, 670.4506807661357 100" stroke="black" fill="none" marker-end="url(#arrowhead)"/>
<path d="M 901.5012516328056 100 Q 812.5692285298337 80, 723.6372054268618 100" stroke="black" fill="none" marker-end="url(#arrowhead)"/>
<path d="M 913.5012516328056 100 Q 907.5012516328056 80, 901.5012516328056 100" stroke="black" fill="none" marker-end="url(#arrowhead)"/>
<path d="M 913.5012516328056 100 Q 493.7506258164028 80, 74.0 100" stroke="black" fill="none" marker-end="url(#arrowhead)"/>
<path d="M 913.5012516328056 100 Q 791.9759661994707 80, 670.4506807661357 100" stroke="black" fill="none" marker-end="url(#arrowhead)"/>
<path d="M 913.5012516328056 100 Q 818.5692285298337 80, 723.6372054268618 100" stroke="black" fill="none" marker-end="url(#arrowhead)"/>
<path d="M 950.0 100 Q 925.7506258164028 80, 901.5012516328056 100" stroke="black" fill="none" marker-end="url(#arrowhead)"/>
<path d="M 950.0 100 Q 931.7506258164028 80, 913.5012516328056 100" stroke="black" fill="none" marker-end="url(#arrowhead)"/>
<path d="M 950.0 100 Q 810.2253403830679 80, 670.4506807661357 100" stroke="black" fill="none" marker-end="url(#arrowhead)"/>
<path d="M 950.0 100 Q 836.8186027134309 80, 723.6372054268618 100" stroke="black" fill="none" marker-end="url(#arrowhead)"/>

<defs>
  <marker id="arrowhead" markerWidth="5" markerHeight="5" 
          refX="2" refY="2" orient="auto" fill="black">
    <path d="M0,0 L0,4 L4,2 z" />
  </marker>
</defs>

<circle cx="50.0" cy="100" r="6" fill="none" stroke="red" stroke-width="2" />
<circle cx="50.0" cy="100" r="3" fill="red" />
<circle cx="62.0" cy="100" r="4" fill="black" />
<circle cx="74.0" cy="100" r="6" fill="none" stroke="blue" stroke-width="2" />
<circle cx="74.0" cy="100" r="3" fill="blue" />
<circle cx="670.4506807661357" cy="100" r="4" fill="red" />
<circle cx="723.6372054268618" cy="100" r="6" fill="none" stroke="black" stroke-width="2" />
<circle cx="723.6372054268618" cy="100" r="3" fill="black" />
<circle cx="901.5012516328056" cy="100" r="6" fill="none" stroke="blue" stroke-width="2" />
<circle cx="901.5012516328056" cy="100" r="3" fill="blue" />
<circle cx="913.5012516328056" cy="100" r="4" fill="black" />
<circle cx="950.0" cy="100" r="6" fill="none" stroke="black" stroke-width="2" />
<circle cx="950.0" cy="100" r="3" fill="black" />
<text x="50" y="125" fill="gray" style="font-size:12px;">2024-09-17T09:26:36+00:00</text>
<text x="900" y="125" fill="gray" style="font-size:12px;">2025-02-28T17:57:27+00:00</text>
</svg>