<svg xmlns="http://www.w3.org/2000/svg" width="1000" height="200" style="background-color: white; font-family: sans-serif;">
<line x1="50" y1="100" x2="950" y2="100" stroke="gray" stroke-width="1"/>
<path d="M 62.0 100 Q 56.0 80, 50.0 100" stroke="black" fill="none" marker-end="url(#arrowhead)"/>
<path d="M 83.2623289118733 100 Q 66.63116445593664 80, 50.0 100" stroke="black" fill="none" marker-end="url(#arrowhead)"/>
<path d="M 83.2623289118733 100 Q 72.63116445593664 80, 62.0 100" stroke="black" fill="none" marker-end="url(#arrowhead)"/>
<path d="M 586.7117514700216 100 Q 541.5760930371329 80, 496.4404346042441 100" stroke="black" fill="none" marker-end="url(#arrowhead)"/>
<path d="M 586.7117514700216 100 Q 318.3558757350108 80, 50.0 100" stroke="black" fill="none" marker-end="url(#arrowhead)"/>
<path d="M 832.2949117987096 100 Q 664.3676732014768 80, 496.4404346042441 100" stroke="black" fill="none" marker-end="url(#arrowhead)"/>
<path d="M 921.449633893164 100 Q 754.0806926815928 80, 586.7117514700216 100" stroke="black" fill="none" marker-end="url(#arrowhead)"/>
<path d="M 921.449633893164 100 Q 876.8722728459368 80, 832.2949117987096 100" stroke="black" fill="none" marker-end="url(#arrowhead)"/>
<path d="M 950.0 100 Q 500.0 80, 50.0 100" stroke="black" fill="none" marker-end="url(#arrowhead)"/>
<path d="M 950.0 100 Q 935.724816946582 80, 921.449633893164 100" stroke="black" fill="none" marker-end="url(#arrowhead)"/>

<defs>
  <marker id="arrowhead" markerWidth="5" markerHeight="5" 
          refX="2" refY="2" orient="auto" fill="black">
    <path d="M0,0 L0,4 L4,2 z" />
  </marker>
</defs>

<circle cx="50.0" cy="100" r="6" fill="none" stroke="blue" stroke-width="2" />
<circle cx="50.0" cy="100" r="3" fill="blue" />
<circle cx="62.0" cy="100" r="4" fill="red" />
<circle cx="83.2623289118733" cy="100" r="4" fill="blue" />
<circle cx="496.4404346042441" cy="100" r="6" fill="none" stroke="blue" stroke-width="2" />
<circle cx="496.4404346042441" cy="100" r="3" fill="blue" />
<circle cx="586.7117514700216" cy="100" r="4" fill="red" />
<circle cx="832.2949117987096" cy="100" r="4" fill="black" />
<circle cx="921.449633893164" cy="100" r="4" fill="blue" />
<circle cx="950.0" cy="100" r="4" fill="black" />
<text x="50" y="125" fill="gray" style="font-size:12px;">2025-01-12T12:43:25+00:00</text>
<text x="900" y="125" fill="gray" style="font-size:12px;">2025-01-31T03:37:05+00:00</text>
</svg>