<svg xmlns="http://www.w3.org/2000/svg" width="1000" height="200" style="background-color: white; font-family: sans-serif;">
<line x1="50" y1="100" x2="950" y2="100" stroke="gray" stroke-width="1"/>
<path d="M 62.0 100 Q 56.0 80, 50.0 100" stroke="black" fill="none" marker-end="url(#arrowhead)"/>
<path d="M 74.0 100 Q 62.0 80, 50.0 100" stroke="black" fill="none" marker-end="url(#arrowhead)"/>
<path d="M 86.0 100 Q 80.0 80, 74.0 100" stroke="black" fill="none" marker-end="url(#arrowhead)"/>
<path d="M 98.0 100 Q 80.0 80, 62.0 100" stroke="black" fill="none" marker-end="url(#arrowhead)"/>
<path d="M 110.0 100 Q 104.0 80, 98.0 100" stroke="black" fill="none" marker-end="url(#arrowhead)"/>
<path d="M 122.0 100 Q 98.0 80, 74.0 100" stroke="black" fill="none" marker-end="url(#arrowhead)"/>
<path d="M 134.0 100 Q 122.0 80, 110.0 100" stroke="black" fill="none" marker-end="url(#arrowhead)"/>
<path d="M 134.0 100 Q 98.0 80, 62.0 100" stroke="black" fill="none" marker-end="url(#arrowhead)"/>
<path d="M 134.0 100 Q 116.0 80, 98.0 100" stroke="black" fill="none" marker-end="url(#arrowhead)"/>
<path d="M 146.0 100 Q 140.0 80, 134.0 100" stroke="black" fill="none" marker-end="url(#arrowhead)"/>
<path d="M 289.90691147492305 100 Q 211.95345573746152 80, 134.0 100" stroke="black" fill="none" marker-end="url(#arrowhead)"/>
<path d="M 385.3120935361133 100 Q 379.3120935361133 80, 373.3120935361133 100" stroke="black" fill="none" marker-end="url(#arrowhead)"/>
<path d="M 385.3120935361133 100 Q 259.6560467680566 80, 134.0 100" stroke="black" fill="none" marker-end="url(#arrowhead)"/>
<path d="M 397.3120935361133 100 Q 385.3120935361133 80, 373.3120935361133 100" stroke="black" fill="none" marker-end="url(#arrowhead)"/>
<path d="M 397.3120935361133 100 Q 391.3120935361133 80, 385.3120935361133 100" stroke="black" fill="none" marker-end="url(#arrowhead)"/>
<path d="M 397.3120935361133 100 Q 265.6560467680566 80, 134.0 100" stroke="black" fill="none" marker-end="url(#arrowhead)"/>
<path d="M 397.3120935361133 100 Q 247.65604676805665 80, 98.0 100" stroke="black" fill="none" marker-end="url(#arrowhead)"/>
<path d="M 409.3120935361133 100 Q 385.3120935361133 80, 361.3120935361133 100" stroke="black" fill="none" marker-end="url(#arrowhead)"/>
<path d="M 433.3120935361133 100 Q 427.3120935361133 80, 421.3120935361133 100" stroke="black" fill="none" marker-end="url(#arrowhead)"/>
<path d="M 445.3120935361133 100 Q 427.3120935361133 80, 409.3120935361133 100" stroke="black" fill="none" marker-end="url(#arrowhead)"/>
<path d="M 445.3120935361133 100 Q 403.3120935361133 80, 361.3120935361133 100" stroke="black" fill="none" marker-end="url(#arrowhead)"/>
<path d="M 457.3120935361133 100 Q 451.3120935361133 80, 445.3120935361133 100" stroke="black" fill="none" marker-end="url(#arrowhead)"/>
<path d="M 457.3120935361133 100 Q 433.3120935361133 80, 409.3120935361133 100" stroke="black" fill="none" marker-end="url(#arrowhead)"/>
<path d="M 457.3120935361133 100 Q 409.3120935361133 80, 361.3120935361133 100" stroke="black" fill="none" marker-end="url(#arrowhead)"/>
<path d="M 481.3120935361133 100 Q 307.6560467680566 80, 134.0 100" stroke="black" fill="none" marker-end="url(#arrowhead)"/>
<path d="M 481.3120935361133 100 Q 313.6560467680566 80, 146.0 100" stroke="black" fill="none" marker-end="url(#arrowhead)"/>
<path d="M 493.3120935361133 100 Q 487.3120935361133 80, 481.3120935361133 100" stroke="black" fill="none" marker-end="url(#arrowhead)"/>
<path d="M 505.3120935361133 100 Q 493.3120935361133 80, 481.3120935361133 100" stroke="black" fill="none" marker-end="url(#arrowhead)"/>
<path d="M 505.3120935361133 100 Q 499.3120935361133 80, 493.3120935361133 100" stroke="black" fill="none" marker-end="url(#arrowhead)"/>
<path d="M 517.3120935361133 100 Q 511.31209353611325 80, 505.3120935361133 100" stroke="black" fill="none" marker-end="url(#arrowhead)"/>
<path d="M 529.3120935361133 100 Q 517.3120935361133 80, 505.3120935361133 100" stroke="black" fill="none" marker-end="url(#arrowhead)"/>
<path d="M 529.3120935361133 100 Q 523.3120935361133 80, 517.3120935361133 100" stroke="black" fill="none" marker-end="url(#arrowhead)"/>
<path d="M 541.3120935361133 100 Q 535.3120935361133 80, 529.3120935361133 100" stroke="black" fill="none" marker-end="url(#arrowhead)"/>
<path d="M 553.3120935361133 100 Q 517.3120935361133 80, 481.3120935361133 100" stroke="black" fill="none" marker-end="url(#arrowhead)"/>
<path d="M 565.3120935361133 100 Q 559.3120935361133 80, 553.3120935361133 100" stroke="black" fill="none" marker-end="url(#arrowhead)"/>
<path d="M 577.3120935361133 100 Q 571.3120935361133 80, 565.3120935361133 100" stroke="black" fill="none" marker-end="url(#arrowhead)"/>
<path d="M 589.3120935361133 100 Q 571.3120935361133 80, 553.3120935361133 100" stroke="black" fill="none" marker-end="url(#arrowhead)"/>
<path d="M 601.3120935361133 100 Q 595.3120935361133 80, 589.3120935361133 100" stroke="black" fill="none" marker-end="url(#arrowhead)"/>
<path d="M 613.3120935361133 100 Q 577.3120935361133 80, 541.3120935361133 100" stroke="black" fill="none" marker-end="url(#arrowhead)"/>
<path d="M 939.5297938575055 100 Q 776.4209436968094 80, 613.3120935361133 100" stroke="black" fill="none" marker-end="url(#arrowhead)"/>
<path d="M 951.5297938575055 100 Q 945.5297938575055 80, 939.5297938575055 100" stroke="black" fill="none" marker-end="url(#arrowhead)"/>
<path d="M 963.5297938575055 100 Q 957.5297938575055 80, 951.5297938575055 100" stroke="black" fill="none" marker-end="url(#arrowhead)"/>
<path d="M 963.5297938575055 100 Q 626.7183526662143 80, 289.90691147492305 100" stroke="black" fill="none" marker-end="url(#arrowhead)"/>
<path d="M 975.5297938575055 100 Q 969.5297938575055 80, 963.5297938575055 100" stroke="black" fill="none" marker-end="url(#arrowhead)"/>

<defs>
  <marker id="arrowhead" markerWidth="5" markerHeight="5" 
          refX="2" refY="2" orient="auto" fill="black">
    <path d="M0,0 L0,4 L4,2 z" />
  </marker>
</defs>

<circle cx="50.0" cy="100" r="6" fill="none" stroke="blue" stroke-width="2" />
<circle cx="50.0" cy="100" r="3" fill="blue" />
<circle cx="62.0" cy="100" r="4" fill="red" />
<circle cx="74.0" cy="100" r="4" fill="red" />
<circle cx="86.0" cy="100" r="4" fill="black" />
<circle cx="98.0" cy="100" r="4" fill="red" />
<circle cx="110.0" cy="100" r="4" fill="black" />
<circle cx="122.0" cy="100" r="4" fill="green" />
<circle cx="134.0" cy="100" r="6" fill="none" stroke="blue" stroke-width="2" />
<circle cx="134.0" cy="100" r="3" fill="blue" />
<circle cx="146.0" cy="100" r="4" fill="blue" />
<circle cx="289.90691147492305" cy="100" r="4" fill="red" />
<circle cx="361.3120935361133" cy="100" r="6" fill="none" stroke="blue" stroke-width="2" />
<circle cx="361.3120935361133" cy="100" r="3" fill="blue" />
<circle cx="373.3120935361133" cy="100" r="6" fill="none" stroke="blue" stroke-width="2" />
<circle cx="373.3120935361133" cy="100" r="3" fill="blue" />
<circle cx="385.3120935361133" cy="100" r="4" fill="black" />
<circle cx="397.3120935361133" cy="100" r="6" fill="none" stroke="black" stroke-width="2" />
<circle cx="397.3120935361133" cy="100" r="3" fill="black" />
<circle cx="409.3120935361133" cy="100" r="4" fill="red" />
<circle cx="421.3120935361133" cy="100" r="4" fill="black" />
<circle cx="433.3120935361133" cy="100" r="4" fill="black" />
<circle cx="445.3120935361133" cy="100" r="6" fill="none" stroke="blue" stroke-width="2" />
<circle cx="445.3120935361133" cy="100" r="3" fill="blue" />
<circle cx="457.3120935361133" cy="100" r="6" fill="none" stroke="blue" stroke-width="2" />
<circle cx="457.3120935361133" cy="100" r="3" fill="blue" />
<circle cx="469.3120935361133" cy="100" r="4" fill="black" />
<circle cx="481.3120935361133" cy="100" r="6" fill="none" stroke="blue" stroke-width="2" />
<circle cx="481.3120935361133" cy="100" r="3" fill="blue" />
<circle cx="493.3120935361133" cy="100" r="4" fill="black" />
<circle cx="505.3120935361133" cy="100" r="6" fill="none" stroke="black" stroke-width="2" />
<circle cx="505.3120935361133" cy="100" r="3" fill="black" />
<circle cx="517.3120935361133" cy="100" r="4" fill="red" />
<circle cx="529.3120935361133" cy="100" r="6" fill="none" stroke="blue" stroke-width="2" />
<circle cx="529.3120935361133" cy="100" r="3" fill="blue" />
<circle cx="541.3120935361133" cy="100" r="4" fill="black" />
<circle cx="553.3120935361133" cy="100" r="4" fill="black" />
<circle cx="565.3120935361133" cy="100" r="4" fill="black" />
<circle cx="577.3120935361133" cy="100" r="4" fill="black" />
<circle cx="589.3120935361133" cy="100" r="4" fill="black" />
<circle cx="601.3120935361133" cy="100" r="4" fill="red" />
<circle cx="613.3120935361133" cy="100" r="4" fill="black" />
<circle cx="939.5297938575055" cy="100" r="4" fill="blue" />
<circle cx="951.5297938575055" cy="100" r="4" fill="black" />
<circle cx="963.5297938575055" cy="100" r="4" fill="black" />
<circle cx="975.5297938575055" cy="100" r="4" fill="black" />
<text x="50" y="125" fill="gray" style="font-size:12px;">2024-02-29T21:25:43+00:00</text>
<text x="900" y="125" fill="gray" style="font-size:12px;">2025-02-26T20:18:45+00:00</text>
</svg>