<svg xmlns="http://www.w3.org/2000/svg" width="1000" height="400" style="background-color: white; font-family: sans-serif;">
<line x1="50" y1="200" x2="950" y2="200" stroke="gray" stroke-width="1"/>
<path d="M 62.0 200 Q 56.0 180, 50.0 200" stroke="black" fill="none" marker-end="url(#arrowhead)"/>
<path d="M 74.0 200 Q 62.0 180, 50.0 200" stroke="black" fill="none" marker-end="url(#arrowhead)"/>
<path d="M 86.0 200 Q 80.0 180, 74.0 200" stroke="black" fill="none" marker-end="url(#arrowhead)"/>
<path d="M 98.0 200 Q 80.0 180, 62.0 200" stroke="black" fill="none" marker-end="url(#arrowhead)"/>
<path d="M 110.0 200 Q 104.0 180, 98.0 200" stroke="black" fill="none" marker-end="url(#arrowhead)"/>
<path d="M 122.0 200 Q 98.0 180, 74.0 200" stroke="black" fill="none" marker-end="url(#arrowhead)"/>
<path d="M 134.0 200 Q 122.0 180, 110.0 200" stroke="black" fill="none" marker-end="url(#arrowhead)"/>
<path d="M 134.0 200 Q 98.0 180, 62.0 200" stroke="black" fill="none" marker-end="url(#arrowhead)"/>
<path d="M 134.0 200 Q 116.0 180, 98.0 200" stroke="black" fill="none" marker-end="url(#arrowhead)"/>
<path d="M 146.0 200 Q 140.0 180, 134.0 200" stroke="black" fill="none" marker-end="url(#arrowhead)"/>
<path d="M 289.90691147492305 200 Q 211.95345573746152 180, 134.0 200" stroke="black" fill="none" marker-end="url(#arrowhead)"/>
<path d="M 385.3120935361133 200 Q 379.3120935361133 180, 373.3120935361133 200" stroke="black" fill="none" marker-end="url(#arrowhead)"/>
<path d="M 385.3120935361133 200 Q 259.6560467680566 180, 134.0 200" stroke="black" fill="none" marker-end="url(#arrowhead)"/>
<path d="M 397.3120935361133 200 Q 385.3120935361133 180, 373.3120935361133 200" stroke="black" fill="none" marker-end="url(#arrowhead)"/>
<path d="M 397.3120935361133 200 Q 391.3120935361133 180, 385.3120935361133 200" stroke="black" fill="none" marker-end="url(#arrowhead)"/>
<path d="M 397.3120935361133 200 Q 265.6560467680566 180, 134.0 200" stroke="black" fill="none" marker-end="url(#arrowhead)"/>
<path d="M 397.3120935361133 200 Q 247.65604676805665 180, 98.0 200" stroke="black" fill="none" marker-end="url(#arrowhead)"/>
<path d="M 409.3120935361133 200 Q 385.3120935361133 180, 361.3120935361133 200" stroke="black" fill="none" marker-end="url(#arrowhead)"/>
<path d="M 433.3120935361133 200 Q 427.3120935361133 180, 421.3120935361133 200" stroke="black" fill="none" marker-end="url(#arrowhead)"/>
<path d="M 445.3120935361133 200 Q 427.3120935361133 180, 409.3120935361133 200" stroke="black" fill="none" marker-end="url(#arrowhead)"/>
<path d="M 445.3120935361133 200 Q 403.3120935361133 180, 361.3120935361133 200" stroke="black" fill="none" marker-end="url(#arrowhead)"/>
<path d="M 457.3120935361133 200 Q 451.3120935361133 180, 445.3120935361133 200" stroke="black" fill="none" marker-end="url(#arrowhead)"/>
<path d="M 457.3120935361133 200 Q 433.3120935361133 180, 409.3120935361133 200" stroke="black" fill="none" marker-end="url(#arrowhead)"/>
<path d="M 457.3120935361133 200 Q 409.3120935361133 180, 361.3120935361133 200" stroke="black" fill="none" marker-end="url(#arrowhead)"/>
<path d="M 481.3120935361133 200 Q 307.6560467680566 180, 134.0 200" stroke="black" fill="none" marker-end="url(#arrowhead)"/>
<path d="M 481.3120935361133 200 Q 313.6560467680566 180, 146.0 200" stroke="black" fill="none" marker-end="url(#arrowhead)"/>
<path d="M 493.3120935361133 200 Q 487.3120935361133 180, 481.3120935361133 200" stroke="black" fill="none" marker-end="url(#arrowhead)"/>
<path d="M 505.3120935361133 200 Q 493.3120935361133 180, 481.3120935361133 200" stroke="black" fill="none" marker-end="url(#arrowhead)"/>
<path d="M 505.3120935361133 200 Q 499.3120935361133 180, 493.3120935361133 200" stroke="black" fill="none" marker-end="url(#arrowhead)"/>
<path d="M 517.3120935361133 200 Q 511.31209353611325 180, 505.3120935361133 200" stroke="black" fill="none" marker-end="url(#arrowhead)"/>
<path d="M 529.3120935361133 200 Q 517.3120935361133 180, 505.3120935361133 200" stroke="black" fill="none" marker-end="url(#arrowhead)"/>
<path d="M 529.3120935361133 200 Q 523.3120935361133 180, 517.3120935361133 200" stroke="black" fill="none" marker-end="url(#arrowhead)"/>
<path d="M 541.3120935361133 200 Q 535.3120935361133 180, 529.3120935361133 200" stroke="black" fill="none" marker-end="url(#arrowhead)"/>
<path d="M 553.3120935361133 200 Q 517.3120935361133 180, 481.3120935361133 200" stroke="black" fill="none" marker-end="url(#arrowhead)"/>
<path d="M 565.3120935361133 200 Q 559.3120935361133 180, 553.3120935361133 200" stroke="black" fill="none" marker-end="url(#arrowhead)"/>
<path d="M 577.3120935361133 200 Q 571.3120935361133 180, 565.3120935361133 200" stroke="black" fill="none" marker-end="url(#arrowhead)"/>
<path d="M 589.3120935361133 200 Q 571.3120935361133 180, 553.3120935361133 200" stroke="black" fill="none" marker-end="url(#arrowhead)"/>
<path d="M 601.3120935361133 200 Q 595.3120935361133 180, 589.3120935361133 200" stroke="black" fill="none" marker-end="url(#arrowhead)"/>
<path d="M 613.3120935361133 200 Q 577.3120935361133 180, 541.3120935361133 200" stroke="black" fill="none" marker-end="url(#arrowhead)"/>
<path d="M 939.5297938575055 200 Q 776.4209436968094 180, 613.3120935361133 200" stroke="black" fill="none" marker-end="url(#arrowhead)"/>
<path d="M 951.5297938575055 200 Q 945.5297938575055 180, 939.5297938575055 200" stroke="black" fill="none" marker-end="url(#arrowhead)"/>
<path d="M 963.5297938575055 200 Q 957.5297938575055 180, 951.5297938575055 200" stroke="black" fill="none" marker-end="url(#arrowhead)"/>
<path d="M 963.5297938575055 200 Q 626.7183526662143 180, 289.90691147492305 200" stroke="black" fill="none" marker-end="url(#arrowhead)"/>
<path d="M 975.5297938575055 200 Q 969.5297938575055 180, 963.5297938575055 200" stroke="black" fill="none" marker-end="url(#arrowhead)"/>

<defs>
  <marker id="arrowhead" markerWidth="5" markerHeight="5" 
          refX="2" refY="2" orient="auto" fill="black">
    <path d="M0,0 L0,4 L4,2 z" />
  </marker>
</defs>

<circle cx="50.0" cy="200" r="6" fill="none" stroke="blue" stroke-width="2" />
<circle cx="50.0" cy="200" r="3" fill="blue" />
<circle cx="62.0" cy="200" r="4" fill="red" />
<circle cx="74.0" cy="200" r="4" fill="red" />
<circle cx="86.0" cy="200" r="4" fill="black" />
<circle cx="98.0" cy="200" r="4" fill="red" />
<circle cx="110.0" cy="200" r="4" fill="black" />
<circle cx="122.0" cy="200" r="4" fill="green" />
<circle cx="134.0" cy="200" r="6" fill="none" stroke="blue" stroke-width="2" />
<circle cx="134.0" cy="200" r="3" fill="blue" />
<circle cx="146.0" cy="200" r="4" fill="blue" />
<circle cx="289.90691147492305" cy="200" r="4" fill="red" />
<circle cx="361.3120935361133" cy="200" r="6" fill="none" stroke="blue" stroke-width="2" />
<circle cx="361.3120935361133" cy="200" r="3" fill="blue" />
<circle cx="373.3120935361133" cy="200" r="6" fill="none" stroke="blue" stroke-width="2" />
<circle cx="373.3120935361133" cy="200" r="3" fill="blue" />
<circle cx="385.3120935361133" cy="200" r="4" fill="black" />
<circle cx="397.3120935361133" cy="200" r="6" fill="none" stroke="black" stroke-width="2" />
<circle cx="397.3120935361133" cy="200" r="3" fill="black" />
<circle cx="409.3120935361133" cy="200" r="4" fill="red" />
<circle cx="421.3120935361133" cy="200" r="4" fill="black" />
<circle cx="433.3120935361133" cy="200" r="4" fill="black" />
<circle cx="445.3120935361133" cy="200" r="6" fill="none" stroke="blue" stroke-width="2" />
<circle cx="445.3120935361133" cy="200" r="3" fill="blue" />
<circle cx="457.3120935361133" cy="200" r="6" fill="none" stroke="blue" stroke-width="2" />
<circle cx="457.3120935361133" cy="200" r="3" fill="blue" />
<circle cx="469.3120935361133" cy="200" r="4" fill="black" />
<circle cx="481.3120935361133" cy="200" r="6" fill="none" stroke="blue" stroke-width="2" />
<circle cx="481.3120935361133" cy="200" r="3" fill="blue" />
<circle cx="493.3120935361133" cy="200" r="4" fill="black" />
<circle cx="505.3120935361133" cy="200" r="6" fill="none" stroke="black" stroke-width="2" />
<circle cx="505.3120935361133" cy="200" r="3" fill="black" />
<circle cx="517.3120935361133" cy="200" r="4" fill="red" />
<circle cx="529.3120935361133" cy="200" r="6" fill="none" stroke="blue" stroke-width="2" />
<circle cx="529.3120935361133" cy="200" r="3" fill="blue" />
<circle cx="541.3120935361133" cy="200" r="4" fill="black" />
<circle cx="553.3120935361133" cy="200" r="4" fill="black" />
<circle cx="565.3120935361133" cy="200" r="4" fill="black" />
<circle cx="577.3120935361133" cy="200" r="4" fill="black" />
<circle cx="589.3120935361133" cy="200" r="4" fill="black" />
<circle cx="601.3120935361133" cy="200" r="4" fill="red" />
<circle cx="613.3120935361133" cy="200" r="4" fill="black" />
<circle cx="939.5297938575055" cy="200" r="4" fill="blue" />
<circle cx="951.5297938575055" cy="200" r="4" fill="black" />
<circle cx="963.5297938575055" cy="200" r="4" fill="black" />
<circle cx="975.5297938575055" cy="200" r="4" fill="black" />
<text x="50" y="225" fill="gray" style="font-size:12px;">2024-02-29T21:25:43+00:00</text>
<text x="900" y="225" fill="gray" style="font-size:12px;">2025-02-26T20:18:45+00:00</text>
</svg>