<svg xmlns="http://www.w3.org/2000/svg" width="1000" height="400" style="background-color: white; font-family: sans-serif;">
<line x1="50" y1="200" x2="950" y2="200" stroke="gray" stroke-width="1"/>
<path d="M 78.71253458526263 200 Q 64.35626729263132 180, 50.0 200" stroke="black" fill="none" marker-end="url(#arrowhead)"/>
<path d="M 446.058988720721 200 Q 248.0294943603605 180, 50.0 200" stroke="black" fill="none" marker-end="url(#arrowhead)"/>
<path d="M 446.058988720721 200 Q 262.38576165299185 180, 78.71253458526263 200" stroke="black" fill="none" marker-end="url(#arrowhead)"/>
<path d="M 460.24004266511184 200 Q 453.14951569291645 180, 446.058988720721 200" stroke="black" fill="none" marker-end="url(#arrowhead)"/>
<path d="M 936.0594136178158 200 Q 698.1497281414638 180, 460.24004266511184 200" stroke="black" fill="none" marker-end="url(#arrowhead)"/>
<path d="M 948.0594136178158 200 Q 942.0594136178158 180, 936.0594136178158 200" stroke="black" fill="none" marker-end="url(#arrowhead)"/>
<path d="M 948.0594136178158 200 Q 704.1497281414638 180, 460.24004266511184 200" stroke="black" fill="none" marker-end="url(#arrowhead)"/>
<path d="M 960.0594136178158 200 Q 948.0594136178158 180, 936.0594136178158 200" stroke="black" fill="none" marker-end="url(#arrowhead)"/>
<path d="M 960.0594136178158 200 Q 703.0592011692684 180, 446.058988720721 200" stroke="black" fill="none" marker-end="url(#arrowhead)"/>
<path d="M 960.0594136178158 200 Q 710.1497281414638 180, 460.24004266511184 200" stroke="black" fill="none" marker-end="url(#arrowhead)"/>
<path d="M 972.0594136178158 200 Q 966.0594136178158 180, 960.0594136178158 200" stroke="black" fill="none" marker-end="url(#arrowhead)"/>
<path d="M 984.0594136178158 200 Q 966.0594136178158 180, 948.0594136178158 200" stroke="black" fill="none" marker-end="url(#arrowhead)"/>

<defs>
  <marker id="arrowhead" markerWidth="5" markerHeight="5" 
          refX="2" refY="2" orient="auto" fill="black">
    <path d="M0,0 L0,4 L4,2 z" />
  </marker>
</defs>

<circle cx="50.0" cy="200" r="6" fill="none" stroke="blue" stroke-width="2" />
<circle cx="50.0" cy="200" r="3" fill="blue" />
<circle cx="78.71253458526263" cy="200" r="6" fill="none" stroke="blue" stroke-width="2" />
<circle cx="78.71253458526263" cy="200" r="3" fill="blue" />
<circle cx="446.058988720721" cy="200" r="4" fill="red" />
<circle cx="460.24004266511184" cy="200" r="6" fill="none" stroke="black" stroke-width="2" />
<circle cx="460.24004266511184" cy="200" r="3" fill="black" />
<circle cx="936.0594136178158" cy="200" r="4" fill="blue" />
<circle cx="948.0594136178158" cy="200" r="6" fill="none" stroke="blue" stroke-width="2" />
<circle cx="948.0594136178158" cy="200" r="3" fill="blue" />
<circle cx="960.0594136178158" cy="200" r="4" fill="blue" />
<circle cx="972.0594136178158" cy="200" r="4" fill="red" />
<circle cx="984.0594136178158" cy="200" r="4" fill="green" />
<text x="50" y="225" fill="gray" style="font-size:12px;">2024-09-19T07:55:19+00:00</text>
<text x="900" y="225" fill="gray" style="font-size:12px;">2025-02-19T10:00:51+00:00</text>
</svg>