<svg xmlns="http://www.w3.org/2000/svg" width="1000" height="400" style="background-color: white; font-family: sans-serif;">
<line x1="50" y1="200" x2="950" y2="200" stroke="gray" stroke-width="1"/>
<path d="M 69.42618461523581 200 Q 59.713092307617906 180, 50.0 200" stroke="black" fill="none" marker-end="url(#arrowhead)"/>
<path d="M 173.98481252055365 200 Q 111.99240626027682 180, 50.0 200" stroke="black" fill="none" marker-end="url(#arrowhead)"/>
<path d="M 173.98481252055365 200 Q 121.70549856789472 180, 69.42618461523581 200" stroke="black" fill="none" marker-end="url(#arrowhead)"/>
<path d="M 185.98481252055365 200 Q 117.99240626027682 180, 50.0 200" stroke="black" fill="none" marker-end="url(#arrowhead)"/>
<path d="M 197.98481252055365 200 Q 123.99240626027682 180, 50.0 200" stroke="black" fill="none" marker-end="url(#arrowhead)"/>
<path d="M 197.98481252055365 200 Q 191.98481252055365 180, 185.98481252055365 200" stroke="black" fill="none" marker-end="url(#arrowhead)"/>
<path d="M 257.6295045725809 200 Q 227.80715854656728 180, 197.98481252055365 200" stroke="black" fill="none" marker-end="url(#arrowhead)"/>
<path d="M 257.6295045725809 200 Q 153.81475228629046 180, 50.0 200" stroke="black" fill="none" marker-end="url(#arrowhead)"/>
<path d="M 621.6937973489429 200 Q 439.6616509607619 180, 257.6295045725809 200" stroke="black" fill="none" marker-end="url(#arrowhead)"/>
<path d="M 756.36588816219 200 Q 506.99769636738546 180, 257.6295045725809 200" stroke="black" fill="none" marker-end="url(#arrowhead)"/>
<path d="M 756.36588816219 200 Q 689.0298427555665 180, 621.6937973489429 200" stroke="black" fill="none" marker-end="url(#arrowhead)"/>
<path d="M 950.0 200 Q 853.182944081095 180, 756.36588816219 200" stroke="black" fill="none" marker-end="url(#arrowhead)"/>

<defs>
  <marker id="arrowhead" markerWidth="5" markerHeight="5" 
          refX="2" refY="2" orient="auto" fill="black">
    <path d="M0,0 L0,4 L4,2 z" />
  </marker>
</defs>

<circle cx="50.0" cy="200" r="6" fill="none" stroke="blue" stroke-width="2" />
<circle cx="50.0" cy="200" r="3" fill="blue" />
<circle cx="69.42618461523581" cy="200" r="4" fill="blue" />
<circle cx="173.98481252055365" cy="200" r="4" fill="black" />
<circle cx="185.98481252055365" cy="200" r="4" fill="black" />
<circle cx="197.98481252055365" cy="200" r="4" fill="blue" />
<circle cx="257.6295045725809" cy="200" r="4" fill="red" />
<circle cx="621.6937973489429" cy="200" r="4" fill="blue" />
<circle cx="756.36588816219" cy="200" r="4" fill="blue" />
<circle cx="950.0" cy="200" r="4" fill="blue" />
<text x="50" y="225" fill="gray" style="font-size:12px;">2023-06-15T08:30:10+00:00</text>
<text x="900" y="225" fill="gray" style="font-size:12px;">2025-02-17T00:34:26+00:00</text>
</svg>