<svg xmlns="http://www.w3.org/2000/svg" width="1000" height="200" style="background-color: white; font-family: sans-serif;">
<line x1="50" y1="100" x2="950" y2="100" stroke="gray" stroke-width="1"/>
<path d="M 542.7201716240445 100 Q 296.36008581202225 80, 50.0 100" stroke="black" fill="none" marker-end="url(#arrowhead)"/>
<path d="M 903.2851408070624 100 Q 723.0026562155534 80, 542.7201716240445 100" stroke="black" fill="none" marker-end="url(#arrowhead)"/>
<path d="M 950.0 100 Q 746.3600858120222 80, 542.7201716240445 100" stroke="black" fill="none" marker-end="url(#arrowhead)"/>
<path d="M 950.0 100 Q 926.6425704035312 80, 903.2851408070624 100" stroke="black" fill="none" marker-end="url(#arrowhead)"/>

<defs>
  <marker id="arrowhead" markerWidth="5" markerHeight="5" 
          refX="2" refY="2" orient="auto" fill="black">
    <path d="M0,0 L0,4 L4,2 z" />
  </marker>
</defs>

<circle cx="50.0" cy="100" r="6" fill="none" stroke="blue" stroke-width="2" />
<circle cx="50.0" cy="100" r="3" fill="blue" />
<circle cx="542.7201716240445" cy="100" r="6" fill="none" stroke="blue" stroke-width="2" />
<circle cx="542.7201716240445" cy="100" r="3" fill="blue" />
<circle cx="903.2851408070624" cy="100" r="4" fill="red" />
<circle cx="950.0" cy="100" r="6" fill="none" stroke="green" stroke-width="2" />
<circle cx="950.0" cy="100" r="3" fill="green" />
<text x="50" y="125" fill="gray" style="font-size:12px;">2024-08-26T06:09:19+00:00</text>
<text x="900" y="125" fill="gray" style="font-size:12px;">2025-02-21T11:48:21+00:00</text>
</svg>