<svg xmlns="http://www.w3.org/2000/svg" width="1000" height="400" style="background-color: white; font-family: sans-serif;">
<line x1="50" y1="200" x2="950" y2="200" stroke="gray" stroke-width="1"/>
<path d="M 542.7201716240445 200 Q 296.36008581202225 180, 50.0 200" stroke="black" fill="none" marker-end="url(#arrowhead)"/>
<path d="M 903.2851408070624 200 Q 723.0026562155534 180, 542.7201716240445 200" stroke="black" fill="none" marker-end="url(#arrowhead)"/>
<path d="M 950.0 200 Q 746.3600858120222 180, 542.7201716240445 200" stroke="black" fill="none" marker-end="url(#arrowhead)"/>
<path d="M 950.0 200 Q 926.6425704035312 180, 903.2851408070624 200" stroke="black" fill="none" marker-end="url(#arrowhead)"/>

<defs>
  <marker id="arrowhead" markerWidth="5" markerHeight="5" 
          refX="2" refY="2" orient="auto" fill="black">
    <path d="M0,0 L0,4 L4,2 z" />
  </marker>
</defs>

<circle cx="50.0" cy="200" r="6" fill="none" stroke="blue" stroke-width="2" />
<circle cx="50.0" cy="200" r="3" fill="blue" />
<circle cx="542.7201716240445" cy="200" r="6" fill="none" stroke="blue" stroke-width="2" />
<circle cx="542.7201716240445" cy="200" r="3" fill="blue" />
<circle cx="903.2851408070624" cy="200" r="4" fill="red" />
<circle cx="950.0" cy="200" r="6" fill="none" stroke="green" stroke-width="2" />
<circle cx="950.0" cy="200" r="3" fill="green" />
<text x="50" y="225" fill="gray" style="font-size:12px;">2024-08-26T06:09:19+00:00</text>
<text x="900" y="225" fill="gray" style="font-size:12px;">2025-02-21T11:48:21+00:00</text>
</svg>