<svg xmlns="http://www.w3.org/2000/svg" width="1000" height="200" style="background-color: white; font-family: sans-serif;">
<line x1="50" y1="100" x2="950" y2="100" stroke="gray" stroke-width="1"/>
<path d="M 62.0 100 Q 56.0 80, 50.0 100" stroke="black" fill="none" marker-end="url(#arrowhead)"/>
<path d="M 74.0 100 Q 62.0 80, 50.0 100" stroke="black" fill="none" marker-end="url(#arrowhead)"/>
<path d="M 74.0 100 Q 68.0 80, 62.0 100" stroke="black" fill="none" marker-end="url(#arrowhead)"/>
<path d="M 86.0 100 Q 80.0 80, 74.0 100" stroke="black" fill="none" marker-end="url(#arrowhead)"/>
<path d="M 98.0 100 Q 86.0 80, 74.0 100" stroke="black" fill="none" marker-end="url(#arrowhead)"/>
<path d="M 98.0 100 Q 92.0 80, 86.0 100" stroke="black" fill="none" marker-end="url(#arrowhead)"/>
<path d="M 110.0 100 Q 92.0 80, 74.0 100" stroke="black" fill="none" marker-end="url(#arrowhead)"/>
<path d="M 110.0 100 Q 98.0 80, 86.0 100" stroke="black" fill="none" marker-end="url(#arrowhead)"/>
<path d="M 110.0 100 Q 104.0 80, 98.0 100" stroke="black" fill="none" marker-end="url(#arrowhead)"/>
<path d="M 122.0 100 Q 86.0 80, 50.0 100" stroke="black" fill="none" marker-end="url(#arrowhead)"/>
<path d="M 122.0 100 Q 92.0 80, 62.0 100" stroke="black" fill="none" marker-end="url(#arrowhead)"/>
<path d="M 134.0 100 Q 128.0 80, 122.0 100" stroke="black" fill="none" marker-end="url(#arrowhead)"/>
<path d="M 146.0 100 Q 134.0 80, 122.0 100" stroke="black" fill="none" marker-end="url(#arrowhead)"/>
<path d="M 146.0 100 Q 140.0 80, 134.0 100" stroke="black" fill="none" marker-end="url(#arrowhead)"/>
<path d="M 158.0 100 Q 152.0 80, 146.0 100" stroke="black" fill="none" marker-end="url(#arrowhead)"/>
<path d="M 158.0 100 Q 146.0 80, 134.0 100" stroke="black" fill="none" marker-end="url(#arrowhead)"/>
<path d="M 170.0 100 Q 164.0 80, 158.0 100" stroke="black" fill="none" marker-end="url(#arrowhead)"/>
<path d="M 170.0 100 Q 152.0 80, 134.0 100" stroke="black" fill="none" marker-end="url(#arrowhead)"/>
<path d="M 796.4585532103982 100 Q 477.2292766051991 80, 158.0 100" stroke="black" fill="none" marker-end="url(#arrowhead)"/>
<path d="M 808.4585532103982 100 Q 483.2292766051991 80, 158.0 100" stroke="black" fill="none" marker-end="url(#arrowhead)"/>
<path d="M 808.4585532103982 100 Q 802.4585532103982 80, 796.4585532103982 100" stroke="black" fill="none" marker-end="url(#arrowhead)"/>
<path d="M 820.4585532103982 100 Q 489.2292766051991 80, 158.0 100" stroke="black" fill="none" marker-end="url(#arrowhead)"/>
<path d="M 820.4585532103982 100 Q 808.4585532103982 80, 796.4585532103982 100" stroke="black" fill="none" marker-end="url(#arrowhead)"/>
<path d="M 820.4585532103982 100 Q 814.4585532103982 80, 808.4585532103982 100" stroke="black" fill="none" marker-end="url(#arrowhead)"/>
<path d="M 832.4585532103982 100 Q 820.4585532103982 80, 808.4585532103982 100" stroke="black" fill="none" marker-end="url(#arrowhead)"/>
<path d="M 832.4585532103982 100 Q 826.4585532103982 80, 820.4585532103982 100" stroke="black" fill="none" marker-end="url(#arrowhead)"/>
<path d="M 844.4585532103982 100 Q 501.2292766051991 80, 158.0 100" stroke="black" fill="none" marker-end="url(#arrowhead)"/>
<path d="M 844.4585532103982 100 Q 820.4585532103982 80, 796.4585532103982 100" stroke="black" fill="none" marker-end="url(#arrowhead)"/>
<path d="M 844.4585532103982 100 Q 826.4585532103982 80, 808.4585532103982 100" stroke="black" fill="none" marker-end="url(#arrowhead)"/>
<path d="M 844.4585532103982 100 Q 832.4585532103982 80, 820.4585532103982 100" stroke="black" fill="none" marker-end="url(#arrowhead)"/>
<path d="M 856.4585532103982 100 Q 850.4585532103982 80, 844.4585532103982 100" stroke="black" fill="none" marker-end="url(#arrowhead)"/>
<path d="M 868.4585532103982 100 Q 862.4585532103982 80, 856.4585532103982 100" stroke="black" fill="none" marker-end="url(#arrowhead)"/>
<path d="M 880.4585532103982 100 Q 874.4585532103982 80, 868.4585532103982 100" stroke="black" fill="none" marker-end="url(#arrowhead)"/>
<path d="M 892.4585532103982 100 Q 880.4585532103982 80, 868.4585532103982 100" stroke="black" fill="none" marker-end="url(#arrowhead)"/>
<path d="M 892.4585532103982 100 Q 886.4585532103982 80, 880.4585532103982 100" stroke="black" fill="none" marker-end="url(#arrowhead)"/>
<path d="M 904.4585532103982 100 Q 868.4585532103982 80, 832.4585532103982 100" stroke="black" fill="none" marker-end="url(#arrowhead)"/>
<path d="M 904.4585532103982 100 Q 856.4585532103982 80, 808.4585532103982 100" stroke="black" fill="none" marker-end="url(#arrowhead)"/>
<path d="M 904.4585532103982 100 Q 862.4585532103982 80, 820.4585532103982 100" stroke="black" fill="none" marker-end="url(#arrowhead)"/>
<path d="M 916.4585532103982 100 Q 874.4585532103982 80, 832.4585532103982 100" stroke="black" fill="none" marker-end="url(#arrowhead)"/>
<path d="M 916.4585532103982 100 Q 880.4585532103982 80, 844.4585532103982 100" stroke="black" fill="none" marker-end="url(#arrowhead)"/>
<path d="M 916.4585532103982 100 Q 862.4585532103982 80, 808.4585532103982 100" stroke="black" fill="none" marker-end="url(#arrowhead)"/>
<path d="M 916.4585532103982 100 Q 868.4585532103982 80, 820.4585532103982 100" stroke="black" fill="none" marker-end="url(#arrowhead)"/>
<path d="M 928.4585532103982 100 Q 892.4585532103982 80, 856.4585532103982 100" stroke="black" fill="none" marker-end="url(#arrowhead)"/>
<path d="M 940.4585532103982 100 Q 916.4585532103982 80, 892.4585532103982 100" stroke="black" fill="none" marker-end="url(#arrowhead)"/>
<path d="M 952.4585532103982 100 Q 946.4585532103982 80, 940.4585532103982 100" stroke="black" fill="none" marker-end="url(#arrowhead)"/>
<path d="M 1000.4585532103982 100 Q 970.4585532103982 80, 940.4585532103982 100" stroke="black" fill="none" marker-end="url(#arrowhead)"/>
<path d="M 1000.4585532103982 100 Q 976.4585532103982 80, 952.4585532103982 100" stroke="black" fill="none" marker-end="url(#arrowhead)"/>
<path d="M 1012.4585532103982 100 Q 976.4585532103982 80, 940.4585532103982 100" stroke="black" fill="none" marker-end="url(#arrowhead)"/>
<path d="M 1024.4585532103983 100 Q 591.2292766051992 80, 158.0 100" stroke="black" fill="none" marker-end="url(#arrowhead)"/>
<path d="M 1024.4585532103983 100 Q 1012.4585532103983 80, 1000.4585532103982 100" stroke="black" fill="none" marker-end="url(#arrowhead)"/>
<path d="M 1036.4585532103983 100 Q 1030.4585532103983 80, 1024.4585532103983 100" stroke="black" fill="none" marker-end="url(#arrowhead)"/>
<path d="M 1048.4585532103983 100 Q 1042.4585532103983 80, 1036.4585532103983 100" stroke="black" fill="none" marker-end="url(#arrowhead)"/>
<path d="M 1060.4585532103983 100 Q 1048.4585532103983 80, 1036.4585532103983 100" stroke="black" fill="none" marker-end="url(#arrowhead)"/>
<path d="M 1060.4585532103983 100 Q 1054.4585532103983 80, 1048.4585532103983 100" stroke="black" fill="none" marker-end="url(#arrowhead)"/>
<path d="M 1072.4585532103983 100 Q 1054.4585532103983 80, 1036.4585532103983 100" stroke="black" fill="none" marker-end="url(#arrowhead)"/>
<path d="M 1072.4585532103983 100 Q 1060.4585532103983 80, 1048.4585532103983 100" stroke="black" fill="none" marker-end="url(#arrowhead)"/>
<path d="M 1072.4585532103983 100 Q 1066.4585532103983 80, 1060.4585532103983 100" stroke="black" fill="none" marker-end="url(#arrowhead)"/>
<path d="M 1084.4585532103983 100 Q 1060.4585532103983 80, 1036.4585532103983 100" stroke="black" fill="none" marker-end="url(#arrowhead)"/>
<path d="M 1084.4585532103983 100 Q 1066.4585532103983 80, 1048.4585532103983 100" stroke="black" fill="none" marker-end="url(#arrowhead)"/>
<path d="M 1084.4585532103983 100 Q 1072.4585532103983 80, 1060.4585532103983 100" stroke="black" fill="none" marker-end="url(#arrowhead)"/>
<path d="M 1084.4585532103983 100 Q 1078.4585532103983 80, 1072.4585532103983 100" stroke="black" fill="none" marker-end="url(#arrowhead)"/>
<path d="M 1096.4585532103983 100 Q 1090.4585532103983 80, 1084.4585532103983 100" stroke="black" fill="none" marker-end="url(#arrowhead)"/>
<path d="M 1108.4585532103983 100 Q 1102.4585532103983 80, 1096.4585532103983 100" stroke="black" fill="none" marker-end="url(#arrowhead)"/>
<path d="M 1120.4585532103983 100 Q 1108.4585532103983 80, 1096.4585532103983 100" stroke="black" fill="none" marker-end="url(#arrowhead)"/>
<path d="M 1120.4585532103983 100 Q 1114.4585532103983 80, 1108.4585532103983 100" stroke="black" fill="none" marker-end="url(#arrowhead)"/>
<path d="M 1132.4585532103983 100 Q 1120.4585532103983 80, 1108.4585532103983 100" stroke="black" fill="none" marker-end="url(#arrowhead)"/>
<path d="M 1132.4585532103983 100 Q 1126.4585532103983 80, 1120.4585532103983 100" stroke="black" fill="none" marker-end="url(#arrowhead)"/>
<path d="M 1144.4585532103983 100 Q 1126.4585532103983 80, 1108.4585532103983 100" stroke="black" fill="none" marker-end="url(#arrowhead)"/>
<path d="M 1156.4585532103983 100 Q 1150.4585532103983 80, 1144.4585532103983 100" stroke="black" fill="none" marker-end="url(#arrowhead)"/>
<path d="M 1168.4585532103983 100 Q 1162.4585532103983 80, 1156.4585532103983 100" stroke="black" fill="none" marker-end="url(#arrowhead)"/>
<path d="M 1180.4585532103983 100 Q 1174.4585532103983 80, 1168.4585532103983 100" stroke="black" fill="none" marker-end="url(#arrowhead)"/>
<path d="M 1192.4585532103983 100 Q 1180.4585532103983 80, 1168.4585532103983 100" stroke="black" fill="none" marker-end="url(#arrowhead)"/>
<path d="M 1192.4585532103983 100 Q 1186.4585532103983 80, 1180.4585532103983 100" stroke="black" fill="none" marker-end="url(#arrowhead)"/>
<path d="M 1192.4585532103983 100 Q 1174.4585532103983 80, 1156.4585532103983 100" stroke="black" fill="none" marker-end="url(#arrowhead)"/>
<path d="M 1204.4585532103983 100 Q 1144.4585532103983 80, 1084.4585532103983 100" stroke="black" fill="none" marker-end="url(#arrowhead)"/>
<path d="M 1216.4585532103983 100 Q 1210.4585532103983 80, 1204.4585532103983 100" stroke="black" fill="none" marker-end="url(#arrowhead)"/>
<path d="M 1216.4585532103983 100 Q 1150.4585532103983 80, 1084.4585532103983 100" stroke="black" fill="none" marker-end="url(#arrowhead)"/>
<path d="M 1228.4585532103983 100 Q 1222.4585532103983 80, 1216.4585532103983 100" stroke="black" fill="none" marker-end="url(#arrowhead)"/>
<path d="M 1240.4585532103983 100 Q 1234.4585532103983 80, 1228.4585532103983 100" stroke="black" fill="none" marker-end="url(#arrowhead)"/>
<path d="M 1240.4585532103983 100 Q 1222.4585532103983 80, 1204.4585532103983 100" stroke="black" fill="none" marker-end="url(#arrowhead)"/>
<path d="M 1240.4585532103983 100 Q 1228.4585532103983 80, 1216.4585532103983 100" stroke="black" fill="none" marker-end="url(#arrowhead)"/>
<path d="M 1240.4585532103983 100 Q 1162.4585532103983 80, 1084.4585532103983 100" stroke="black" fill="none" marker-end="url(#arrowhead)"/>
<path d="M 1252.4585532103983 100 Q 1240.4585532103983 80, 1228.4585532103983 100" stroke="black" fill="none" marker-end="url(#arrowhead)"/>
<path d="M 1252.4585532103983 100 Q 1246.4585532103983 80, 1240.4585532103983 100" stroke="black" fill="none" marker-end="url(#arrowhead)"/>
<path d="M 1252.4585532103983 100 Q 1234.4585532103983 80, 1216.4585532103983 100" stroke="black" fill="none" marker-end="url(#arrowhead)"/>
<path d="M 1264.4585532103983 100 Q 1222.4585532103983 80, 1180.4585532103983 100" stroke="black" fill="none" marker-end="url(#arrowhead)"/>
<path d="M 1264.4585532103983 100 Q 1228.4585532103983 80, 1192.4585532103983 100" stroke="black" fill="none" marker-end="url(#arrowhead)"/>
<path d="M 1276.4585532103983 100 Q 1270.4585532103983 80, 1264.4585532103983 100" stroke="black" fill="none" marker-end="url(#arrowhead)"/>
<path d="M 1288.4585532103983 100 Q 1276.4585532103983 80, 1264.4585532103983 100" stroke="black" fill="none" marker-end="url(#arrowhead)"/>
<path d="M 1288.4585532103983 100 Q 1282.4585532103983 80, 1276.4585532103983 100" stroke="black" fill="none" marker-end="url(#arrowhead)"/>
<path d="M 1300.4585532103983 100 Q 1282.4585532103983 80, 1264.4585532103983 100" stroke="black" fill="none" marker-end="url(#arrowhead)"/>
<path d="M 1300.4585532103983 100 Q 1288.4585532103983 80, 1276.4585532103983 100" stroke="black" fill="none" marker-end="url(#arrowhead)"/>
<path d="M 1300.4585532103983 100 Q 1294.4585532103983 80, 1288.4585532103983 100" stroke="black" fill="none" marker-end="url(#arrowhead)"/>
<path d="M 1312.4585532103983 100 Q 1288.4585532103983 80, 1264.4585532103983 100" stroke="black" fill="none" marker-end="url(#arrowhead)"/>
<path d="M 1312.4585532103983 100 Q 1294.4585532103983 80, 1276.4585532103983 100" stroke="black" fill="none" marker-end="url(#arrowhead)"/>
<path d="M 1324.4585532103983 100 Q 1294.4585532103983 80, 1264.4585532103983 100" stroke="black" fill="none" marker-end="url(#arrowhead)"/>
<path d="M 1324.4585532103983 100 Q 1300.4585532103983 80, 1276.4585532103983 100" stroke="black" fill="none" marker-end="url(#arrowhead)"/>
<path d="M 1336.4585532103983 100 Q 747.2292766051992 80, 158.0 100" stroke="black" fill="none" marker-end="url(#arrowhead)"/>
<path d="M 1336.4585532103983 100 Q 1330.4585532103983 80, 1324.4585532103983 100" stroke="black" fill="none" marker-end="url(#arrowhead)"/>
<path d="M 1336.4585532103983 100 Q 1300.4585532103983 80, 1264.4585532103983 100" stroke="black" fill="none" marker-end="url(#arrowhead)"/>
<path d="M 1336.4585532103983 100 Q 1306.4585532103983 80, 1276.4585532103983 100" stroke="black" fill="none" marker-end="url(#arrowhead)"/>
<path d="M 1348.4585532103983 100 Q 1336.4585532103983 80, 1324.4585532103983 100" stroke="black" fill="none" marker-end="url(#arrowhead)"/>
<path d="M 1348.4585532103983 100 Q 1342.4585532103983 80, 1336.4585532103983 100" stroke="black" fill="none" marker-end="url(#arrowhead)"/>
<path d="M 1360.4585532103983 100 Q 1324.4585532103983 80, 1288.4585532103983 100" stroke="black" fill="none" marker-end="url(#arrowhead)"/>
<path d="M 1372.4585532103983 100 Q 1360.4585532103983 80, 1348.4585532103983 100" stroke="black" fill="none" marker-end="url(#arrowhead)"/>
<path d="M 1384.4585532103983 100 Q 1378.4585532103983 80, 1372.4585532103983 100" stroke="black" fill="none" marker-end="url(#arrowhead)"/>
<path d="M 1396.4585532103983 100 Q 1390.4585532103983 80, 1384.4585532103983 100" stroke="black" fill="none" marker-end="url(#arrowhead)"/>
<path d="M 1408.4585532103983 100 Q 1402.4585532103983 80, 1396.4585532103983 100" stroke="black" fill="none" marker-end="url(#arrowhead)"/>
<path d="M 1420.4585532103983 100 Q 1402.4585532103983 80, 1384.4585532103983 100" stroke="black" fill="none" marker-end="url(#arrowhead)"/>
<path d="M 1420.4585532103983 100 Q 1408.4585532103983 80, 1396.4585532103983 100" stroke="black" fill="none" marker-end="url(#arrowhead)"/>
<path d="M 1420.4585532103983 100 Q 1414.4585532103983 80, 1408.4585532103983 100" stroke="black" fill="none" marker-end="url(#arrowhead)"/>
<path d="M 1432.4585532103983 100 Q 1426.4585532103983 80, 1420.4585532103983 100" stroke="black" fill="none" marker-end="url(#arrowhead)"/>
<path d="M 1444.4585532103983 100 Q 1438.4585532103983 80, 1432.4585532103983 100" stroke="black" fill="none" marker-end="url(#arrowhead)"/>
<path d="M 1444.4585532103983 100 Q 1432.4585532103983 80, 1420.4585532103983 100" stroke="black" fill="none" marker-end="url(#arrowhead)"/>
<path d="M 1444.4585532103983 100 Q 1402.4585532103983 80, 1360.4585532103983 100" stroke="black" fill="none" marker-end="url(#arrowhead)"/>
<path d="M 1456.4585532103983 100 Q 1444.4585532103983 80, 1432.4585532103983 100" stroke="black" fill="none" marker-end="url(#arrowhead)"/>
<path d="M 1456.4585532103983 100 Q 1450.4585532103983 80, 1444.4585532103983 100" stroke="black" fill="none" marker-end="url(#arrowhead)"/>
<path d="M 1456.4585532103983 100 Q 1438.4585532103983 80, 1420.4585532103983 100" stroke="black" fill="none" marker-end="url(#arrowhead)"/>
<path d="M 1456.4585532103983 100 Q 1408.4585532103983 80, 1360.4585532103983 100" stroke="black" fill="none" marker-end="url(#arrowhead)"/>
<path d="M 1468.4585532103983 100 Q 1462.4585532103983 80, 1456.4585532103983 100" stroke="black" fill="none" marker-end="url(#arrowhead)"/>
<path d="M 1480.4585532103983 100 Q 1468.4585532103983 80, 1456.4585532103983 100" stroke="black" fill="none" marker-end="url(#arrowhead)"/>
<path d="M 1480.4585532103983 100 Q 1474.4585532103983 80, 1468.4585532103983 100" stroke="black" fill="none" marker-end="url(#arrowhead)"/>
<path d="M 1480.4585532103983 100 Q 1420.4585532103983 80, 1360.4585532103983 100" stroke="black" fill="none" marker-end="url(#arrowhead)"/>
<path d="M 1492.4585532103983 100 Q 1480.4585532103983 80, 1468.4585532103983 100" stroke="black" fill="none" marker-end="url(#arrowhead)"/>
<path d="M 1504.4585532103983 100 Q 1486.4585532103983 80, 1468.4585532103983 100" stroke="black" fill="none" marker-end="url(#arrowhead)"/>
<path d="M 1504.4585532103983 100 Q 1498.4585532103983 80, 1492.4585532103983 100" stroke="black" fill="none" marker-end="url(#arrowhead)"/>
<path d="M 1516.4585532103983 100 Q 1510.4585532103983 80, 1504.4585532103983 100" stroke="black" fill="none" marker-end="url(#arrowhead)"/>
<path d="M 1528.4585532103983 100 Q 1516.4585532103983 80, 1504.4585532103983 100" stroke="black" fill="none" marker-end="url(#arrowhead)"/>
<path d="M 1540.4585532103983 100 Q 1534.4585532103983 80, 1528.4585532103983 100" stroke="black" fill="none" marker-end="url(#arrowhead)"/>
<path d="M 1552.4585532103983 100 Q 1546.4585532103983 80, 1540.4585532103983 100" stroke="black" fill="none" marker-end="url(#arrowhead)"/>
<path d="M 1564.4585532103983 100 Q 1558.4585532103983 80, 1552.4585532103983 100" stroke="black" fill="none" marker-end="url(#arrowhead)"/>
<path d="M 1576.4585532103983 100 Q 1564.4585532103983 80, 1552.4585532103983 100" stroke="black" fill="none" marker-end="url(#arrowhead)"/>
<path d="M 1588.4585532103983 100 Q 1582.4585532103983 80, 1576.4585532103983 100" stroke="black" fill="none" marker-end="url(#arrowhead)"/>
<path d="M 1600.4585532103983 100 Q 1582.4585532103983 80, 1564.4585532103983 100" stroke="black" fill="none" marker-end="url(#arrowhead)"/>
<path d="M 1612.4585532103983 100 Q 1600.4585532103983 80, 1588.4585532103983 100" stroke="black" fill="none" marker-end="url(#arrowhead)"/>
<path d="M 1612.4585532103983 100 Q 885.2292766051992 80, 158.0 100" stroke="black" fill="none" marker-end="url(#arrowhead)"/>
<path d="M 1624.4585532103983 100 Q 1606.4585532103983 80, 1588.4585532103983 100" stroke="black" fill="none" marker-end="url(#arrowhead)"/>
<path d="M 1636.4585532103983 100 Q 1618.4585532103983 80, 1600.4585532103983 100" stroke="black" fill="none" marker-end="url(#arrowhead)"/>
<path d="M 1648.4585532103983 100 Q 1642.4585532103983 80, 1636.4585532103983 100" stroke="black" fill="none" marker-end="url(#arrowhead)"/>
<path d="M 1660.4585532103983 100 Q 1594.4585532103983 80, 1528.4585532103983 100" stroke="black" fill="none" marker-end="url(#arrowhead)"/>
<path d="M 1684.4585532103983 100 Q 1654.4585532103983 80, 1624.4585532103983 100" stroke="black" fill="none" marker-end="url(#arrowhead)"/>
<path d="M 1696.4585532103983 100 Q 1690.4585532103983 80, 1684.4585532103983 100" stroke="black" fill="none" marker-end="url(#arrowhead)"/>
<path d="M 1696.4585532103983 100 Q 1660.4585532103983 80, 1624.4585532103983 100" stroke="black" fill="none" marker-end="url(#arrowhead)"/>
<path d="M 1708.4585532103983 100 Q 1702.4585532103983 80, 1696.4585532103983 100" stroke="black" fill="none" marker-end="url(#arrowhead)"/>
<path d="M 1720.4585532103983 100 Q 1642.4585532103983 80, 1564.4585532103983 100" stroke="black" fill="none" marker-end="url(#arrowhead)"/>
<path d="M 1732.4585532103983 100 Q 1720.4585532103983 80, 1708.4585532103983 100" stroke="black" fill="none" marker-end="url(#arrowhead)"/>
<path d="M 1732.4585532103983 100 Q 1546.4585532103983 80, 1360.4585532103983 100" stroke="black" fill="none" marker-end="url(#arrowhead)"/>
<path d="M 1744.4585532103983 100 Q 1726.4585532103983 80, 1708.4585532103983 100" stroke="black" fill="none" marker-end="url(#arrowhead)"/>
<path d="M 1744.4585532103983 100 Q 1720.4585532103983 80, 1696.4585532103983 100" stroke="black" fill="none" marker-end="url(#arrowhead)"/>
<path d="M 1744.4585532103983 100 Q 1738.4585532103983 80, 1732.4585532103983 100" stroke="black" fill="none" marker-end="url(#arrowhead)"/>
<path d="M 1744.4585532103983 100 Q 1552.4585532103983 80, 1360.4585532103983 100" stroke="black" fill="none" marker-end="url(#arrowhead)"/>

<defs>
  <marker id="arrowhead" markerWidth="5" markerHeight="5" 
          refX="2" refY="2" orient="auto" fill="black">
    <path d="M0,0 L0,4 L4,2 z" />
  </marker>
</defs>

<circle cx="50.0" cy="100" r="6" fill="none" stroke="black" stroke-width="2" />
<circle cx="50.0" cy="100" r="3" fill="black" />
<circle cx="62.0" cy="100" r="4" fill="black" />
<circle cx="74.0" cy="100" r="6" fill="none" stroke="black" stroke-width="2" />
<circle cx="74.0" cy="100" r="3" fill="black" />
<circle cx="86.0" cy="100" r="4" fill="black" />
<circle cx="98.0" cy="100" r="4" fill="red" />
<circle cx="110.0" cy="100" r="6" fill="none" stroke="green" stroke-width="2" />
<circle cx="110.0" cy="100" r="3" fill="green" />
<circle cx="122.0" cy="100" r="4" fill="black" />
<circle cx="134.0" cy="100" r="4" fill="black" />
<circle cx="146.0" cy="100" r="6" fill="none" stroke="green" stroke-width="2" />
<circle cx="146.0" cy="100" r="3" fill="green" />
<circle cx="158.0" cy="100" r="4" fill="black" />
<circle cx="170.0" cy="100" r="6" fill="none" stroke="green" stroke-width="2" />
<circle cx="170.0" cy="100" r="3" fill="green" />
<circle cx="796.4585532103982" cy="100" r="4" fill="blue" />
<circle cx="808.4585532103982" cy="100" r="4" fill="red" />
<circle cx="820.4585532103982" cy="100" r="4" fill="blue" />
<circle cx="832.4585532103982" cy="100" r="4" fill="red" />
<circle cx="844.4585532103982" cy="100" r="4" fill="red" />
<circle cx="856.4585532103982" cy="100" r="4" fill="red" />
<circle cx="868.4585532103982" cy="100" r="6" fill="none" stroke="red" stroke-width="2" />
<circle cx="868.4585532103982" cy="100" r="3" fill="red" />
<circle cx="880.4585532103982" cy="100" r="4" fill="black" />
<circle cx="892.4585532103982" cy="100" r="4" fill="black" />
<circle cx="904.4585532103982" cy="100" r="4" fill="blue" />
<circle cx="916.4585532103982" cy="100" r="4" fill="blue" />
<circle cx="928.4585532103982" cy="100" r="4" fill="blue" />
<circle cx="940.4585532103982" cy="100" r="4" fill="black" />
<circle cx="952.4585532103982" cy="100" r="6" fill="none" stroke="black" stroke-width="2" />
<circle cx="952.4585532103982" cy="100" r="3" fill="black" />
<circle cx="964.4585532103982" cy="100" r="4" fill="green" />
<circle cx="976.4585532103982" cy="100" r="4" fill="black" />
<circle cx="988.4585532103982" cy="100" r="4" fill="black" />
<circle cx="1000.4585532103982" cy="100" r="4" fill="red" />
<circle cx="1012.4585532103982" cy="100" r="4" fill="black" />
<circle cx="1024.4585532103983" cy="100" r="4" fill="red" />
<circle cx="1036.4585532103983" cy="100" r="4" fill="black" />
<circle cx="1048.4585532103983" cy="100" r="4" fill="black" />
<circle cx="1060.4585532103983" cy="100" r="4" fill="red" />
<circle cx="1072.4585532103983" cy="100" r="4" fill="red" />
<circle cx="1084.4585532103983" cy="100" r="4" fill="black" />
<circle cx="1096.4585532103983" cy="100" r="4" fill="red" />
<circle cx="1108.4585532103983" cy="100" r="4" fill="blue" />
<circle cx="1120.4585532103983" cy="100" r="4" fill="green" />
<circle cx="1132.4585532103983" cy="100" r="4" fill="black" />
<circle cx="1144.4585532103983" cy="100" r="4" fill="blue" />
<circle cx="1156.4585532103983" cy="100" r="4" fill="red" />
<circle cx="1168.4585532103983" cy="100" r="4" fill="black" />
<circle cx="1180.4585532103983" cy="100" r="4" fill="black" />
<circle cx="1192.4585532103983" cy="100" r="4" fill="blue" />
<circle cx="1204.4585532103983" cy="100" r="4" fill="red" />
<circle cx="1216.4585532103983" cy="100" r="4" fill="red" />
<circle cx="1228.4585532103983" cy="100" r="4" fill="black" />
<circle cx="1240.4585532103983" cy="100" r="4" fill="black" />
<circle cx="1252.4585532103983" cy="100" r="4" fill="black" />
<circle cx="1264.4585532103983" cy="100" r="4" fill="red" />
<circle cx="1276.4585532103983" cy="100" r="6" fill="none" stroke="green" stroke-width="2" />
<circle cx="1276.4585532103983" cy="100" r="3" fill="green" />
<circle cx="1288.4585532103983" cy="100" r="4" fill="blue" />
<circle cx="1300.4585532103983" cy="100" r="4" fill="red" />
<circle cx="1312.4585532103983" cy="100" r="4" fill="black" />
<circle cx="1324.4585532103983" cy="100" r="4" fill="black" />
<circle cx="1336.4585532103983" cy="100" r="4" fill="red" />
<circle cx="1348.4585532103983" cy="100" r="4" fill="black" />
<circle cx="1360.4585532103983" cy="100" r="6" fill="none" stroke="red" stroke-width="2" />
<circle cx="1360.4585532103983" cy="100" r="3" fill="red" />
<circle cx="1372.4585532103983" cy="100" r="6" fill="none" stroke="black" stroke-width="2" />
<circle cx="1372.4585532103983" cy="100" r="3" fill="black" />
<circle cx="1384.4585532103983" cy="100" r="4" fill="black" />
<circle cx="1396.4585532103983" cy="100" r="4" fill="black" />
<circle cx="1408.4585532103983" cy="100" r="6" fill="none" stroke="black" stroke-width="2" />
<circle cx="1408.4585532103983" cy="100" r="3" fill="black" />
<circle cx="1420.4585532103983" cy="100" r="4" fill="blue" />
<circle cx="1432.4585532103983" cy="100" r="6" fill="none" stroke="red" stroke-width="2" />
<circle cx="1432.4585532103983" cy="100" r="3" fill="red" />
<circle cx="1444.4585532103983" cy="100" r="4" fill="red" />
<circle cx="1456.4585532103983" cy="100" r="4" fill="red" />
<circle cx="1468.4585532103983" cy="100" r="6" fill="none" stroke="red" stroke-width="2" />
<circle cx="1468.4585532103983" cy="100" r="3" fill="red" />
<circle cx="1480.4585532103983" cy="100" r="4" fill="blue" />
<circle cx="1492.4585532103983" cy="100" r="4" fill="red" />
<circle cx="1504.4585532103983" cy="100" r="4" fill="black" />
<circle cx="1516.4585532103983" cy="100" r="4" fill="black" />
<circle cx="1528.4585532103983" cy="100" r="6" fill="none" stroke="green" stroke-width="2" />
<circle cx="1528.4585532103983" cy="100" r="3" fill="green" />
<circle cx="1540.4585532103983" cy="100" r="6" fill="none" stroke="red" stroke-width="2" />
<circle cx="1540.4585532103983" cy="100" r="3" fill="red" />
<circle cx="1552.4585532103983" cy="100" r="4" fill="black" />
<circle cx="1564.4585532103983" cy="100" r="6" fill="none" stroke="black" stroke-width="2" />
<circle cx="1564.4585532103983" cy="100" r="3" fill="black" />
<circle cx="1576.4585532103983" cy="100" r="6" fill="none" stroke="blue" stroke-width="2" />
<circle cx="1576.4585532103983" cy="100" r="3" fill="blue" />
<circle cx="1588.4585532103983" cy="100" r="4" fill="red" />
<circle cx="1600.4585532103983" cy="100" r="4" fill="black" />
<circle cx="1612.4585532103983" cy="100" r="4" fill="black" />
<circle cx="1624.4585532103983" cy="100" r="6" fill="none" stroke="red" stroke-width="2" />
<circle cx="1624.4585532103983" cy="100" r="3" fill="red" />
<circle cx="1636.4585532103983" cy="100" r="6" fill="none" stroke="black" stroke-width="2" />
<circle cx="1636.4585532103983" cy="100" r="3" fill="black" />
<circle cx="1648.4585532103983" cy="100" r="4" fill="black" />
<circle cx="1660.4585532103983" cy="100" r="4" fill="blue" />
<circle cx="1672.4585532103983" cy="100" r="4" fill="black" />
<circle cx="1684.4585532103983" cy="100" r="6" fill="none" stroke="blue" stroke-width="2" />
<circle cx="1684.4585532103983" cy="100" r="3" fill="blue" />
<circle cx="1696.4585532103983" cy="100" r="4" fill="blue" />
<circle cx="1708.4585532103983" cy="100" r="6" fill="none" stroke="blue" stroke-width="2" />
<circle cx="1708.4585532103983" cy="100" r="3" fill="blue" />
<circle cx="1720.4585532103983" cy="100" r="4" fill="black" />
<circle cx="1732.4585532103983" cy="100" r="6" fill="none" stroke="black" stroke-width="2" />
<circle cx="1732.4585532103983" cy="100" r="3" fill="black" />
<circle cx="1744.4585532103983" cy="100" r="4" fill="black" />
<text x="50" y="125" fill="gray" style="font-size:12px;">2009-05-29T01:30:14+00:00</text>
<text x="900" y="125" fill="gray" style="font-size:12px;">2025-02-28T12:27:16+00:00</text>
</svg>