<svg xmlns="http://www.w3.org/2000/svg" width="1000" height="200" style="background-color: white; font-family: sans-serif;">
<line x1="50" y1="100" x2="950" y2="100" stroke="gray" stroke-width="1"/>
<path d="M 62.0 100 Q 56.0 80, 50.0 100" stroke="black" fill="none" marker-end="url(#arrowhead)"/>
<path d="M 290.3894129026294 100 Q 170.1947064513147 80, 50.0 100" stroke="black" fill="none" marker-end="url(#arrowhead)"/>
<path d="M 613.7727996644768 100 Q 331.8863998322384 80, 50.0 100" stroke="black" fill="none" marker-end="url(#arrowhead)"/>
<path d="M 628.7023416517197 100 Q 621.2375706580983 80, 613.7727996644768 100" stroke="black" fill="none" marker-end="url(#arrowhead)"/>
<path d="M 740.7176461756372 100 Q 684.7099939136785 80, 628.7023416517197 100" stroke="black" fill="none" marker-end="url(#arrowhead)"/>
<path d="M 740.7176461756372 100 Q 690.7099939136785 80, 640.7023416517197 100" stroke="black" fill="none" marker-end="url(#arrowhead)"/>
<path d="M 806.8917819769191 100 Q 428.44589098845955 80, 50.0 100" stroke="black" fill="none" marker-end="url(#arrowhead)"/>
<path d="M 818.8917819769191 100 Q 812.8917819769191 80, 806.8917819769191 100" stroke="black" fill="none" marker-end="url(#arrowhead)"/>
<path d="M 842.8917819769191 100 Q 791.8047140762782 80, 740.7176461756372 100" stroke="black" fill="none" marker-end="url(#arrowhead)"/>
<path d="M 854.8917819769191 100 Q 797.8047140762782 80, 740.7176461756372 100" stroke="black" fill="none" marker-end="url(#arrowhead)"/>
<path d="M 866.8917819769191 100 Q 860.8917819769191 80, 854.8917819769191 100" stroke="black" fill="none" marker-end="url(#arrowhead)"/>
<path d="M 878.8917819769191 100 Q 872.8917819769191 80, 866.8917819769191 100" stroke="black" fill="none" marker-end="url(#arrowhead)"/>
<path d="M 890.8917819769191 100 Q 878.8917819769191 80, 866.8917819769191 100" stroke="black" fill="none" marker-end="url(#arrowhead)"/>
<path d="M 950.0 100 Q 914.4458909884595 80, 878.8917819769191 100" stroke="black" fill="none" marker-end="url(#arrowhead)"/>

<defs>
  <marker id="arrowhead" markerWidth="5" markerHeight="5" 
          refX="2" refY="2" orient="auto" fill="black">
    <path d="M0,0 L0,4 L4,2 z" />
  </marker>
</defs>

<circle cx="50.0" cy="100" r="6" fill="none" stroke="black" stroke-width="2" />
<circle cx="50.0" cy="100" r="3" fill="black" />
<circle cx="62.0" cy="100" r="4" fill="black" />
<circle cx="290.3894129026294" cy="100" r="4" fill="black" />
<circle cx="613.7727996644768" cy="100" r="6" fill="none" stroke="black" stroke-width="2" />
<circle cx="613.7727996644768" cy="100" r="3" fill="black" />
<circle cx="628.7023416517197" cy="100" r="4" fill="blue" />
<circle cx="640.7023416517197" cy="100" r="6" fill="none" stroke="blue" stroke-width="2" />
<circle cx="640.7023416517197" cy="100" r="3" fill="blue" />
<circle cx="740.7176461756372" cy="100" r="4" fill="blue" />
<circle cx="806.8917819769191" cy="100" r="4" fill="black" />
<circle cx="818.8917819769191" cy="100" r="6" fill="none" stroke="black" stroke-width="2" />
<circle cx="818.8917819769191" cy="100" r="3" fill="black" />
<circle cx="830.8917819769191" cy="100" r="4" fill="black" />
<circle cx="842.8917819769191" cy="100" r="4" fill="blue" />
<circle cx="854.8917819769191" cy="100" r="6" fill="none" stroke="red" stroke-width="2" />
<circle cx="854.8917819769191" cy="100" r="3" fill="red" />
<circle cx="866.8917819769191" cy="100" r="4" fill="blue" />
<circle cx="878.8917819769191" cy="100" r="4" fill="black" />
<circle cx="890.8917819769191" cy="100" r="6" fill="none" stroke="red" stroke-width="2" />
<circle cx="890.8917819769191" cy="100" r="3" fill="red" />
<circle cx="950.0" cy="100" r="4" fill="blue" />
<text x="50" y="125" fill="gray" style="font-size:12px;">2024-11-06T07:36:51+00:00</text>
<text x="900" y="125" fill="gray" style="font-size:12px;">2025-01-01T06:47:24+00:00</text>
</svg>