<svg xmlns="http://www.w3.org/2000/svg" width="1000" height="400" style="background-color: white; font-family: sans-serif;">
<line x1="50" y1="200" x2="950" y2="200" stroke="gray" stroke-width="1"/>
<path d="M 62.0 200 Q 56.0 180, 50.0 200" stroke="black" fill="none" marker-end="url(#arrowhead)"/>
<path d="M 74.0 200 Q 68.0 180, 62.0 200" stroke="black" fill="none" marker-end="url(#arrowhead)"/>
<path d="M 688.9069179691354 200 Q 381.4534589845677 180, 74.0 200" stroke="black" fill="none" marker-end="url(#arrowhead)"/>
<path d="M 718.5624468664297 200 Q 703.7346824177826 180, 688.9069179691354 200" stroke="black" fill="none" marker-end="url(#arrowhead)"/>
<path d="M 730.5624468664297 200 Q 709.7346824177826 180, 688.9069179691354 200" stroke="black" fill="none" marker-end="url(#arrowhead)"/>
<path d="M 742.5624468664297 200 Q 736.5624468664297 180, 730.5624468664297 200" stroke="black" fill="none" marker-end="url(#arrowhead)"/>
<path d="M 820.8360439987003 200 Q 775.699245432565 180, 730.5624468664297 200" stroke="black" fill="none" marker-end="url(#arrowhead)"/>
<path d="M 855.3185621751229 200 Q 838.0773030869116 180, 820.8360439987003 200" stroke="black" fill="none" marker-end="url(#arrowhead)"/>
<path d="M 867.3185621751229 200 Q 861.3185621751229 180, 855.3185621751229 200" stroke="black" fill="none" marker-end="url(#arrowhead)"/>
<path d="M 879.3185621751229 200 Q 784.1127400721291 180, 688.9069179691354 200" stroke="black" fill="none" marker-end="url(#arrowhead)"/>
<path d="M 950.0 200 Q 914.6592810875615 180, 879.3185621751229 200" stroke="black" fill="none" marker-end="url(#arrowhead)"/>

<defs>
  <marker id="arrowhead" markerWidth="5" markerHeight="5" 
          refX="2" refY="2" orient="auto" fill="black">
    <path d="M0,0 L0,4 L4,2 z" />
  </marker>
</defs>

<circle cx="50.0" cy="200" r="6" fill="none" stroke="blue" stroke-width="2" />
<circle cx="50.0" cy="200" r="3" fill="blue" />
<circle cx="62.0" cy="200" r="4" fill="black" />
<circle cx="74.0" cy="200" r="6" fill="none" stroke="black" stroke-width="2" />
<circle cx="74.0" cy="200" r="3" fill="black" />
<circle cx="688.9069179691354" cy="200" r="6" fill="none" stroke="blue" stroke-width="2" />
<circle cx="688.9069179691354" cy="200" r="3" fill="blue" />
<circle cx="718.5624468664297" cy="200" r="4" fill="red" />
<circle cx="730.5624468664297" cy="200" r="4" fill="red" />
<circle cx="742.5624468664297" cy="200" r="4" fill="red" />
<circle cx="820.8360439987003" cy="200" r="6" fill="none" stroke="black" stroke-width="2" />
<circle cx="820.8360439987003" cy="200" r="3" fill="black" />
<circle cx="855.3185621751229" cy="200" r="4" fill="black" />
<circle cx="867.3185621751229" cy="200" r="6" fill="none" stroke="black" stroke-width="2" />
<circle cx="867.3185621751229" cy="200" r="3" fill="black" />
<circle cx="879.3185621751229" cy="200" r="4" fill="red" />
<circle cx="950.0" cy="200" r="6" fill="none" stroke="blue" stroke-width="2" />
<circle cx="950.0" cy="200" r="3" fill="blue" />
<text x="50" y="225" fill="gray" style="font-size:12px;">2024-01-12T14:53:01+00:00</text>
<text x="900" y="225" fill="gray" style="font-size:12px;">2025-02-28T18:16:39+00:00</text>
</svg>