<svg xmlns="http://www.w3.org/2000/svg" width="1000" height="200" style="background-color: white; font-family: sans-serif;">
<line x1="50" y1="100" x2="950" y2="100" stroke="gray" stroke-width="1"/>
<path d="M 62.0 100 Q 56.0 80, 50.0 100" stroke="black" fill="none" marker-end="url(#arrowhead)"/>
<path d="M 74.0 100 Q 68.0 80, 62.0 100" stroke="black" fill="none" marker-end="url(#arrowhead)"/>
<path d="M 688.9069179691354 100 Q 381.4534589845677 80, 74.0 100" stroke="black" fill="none" marker-end="url(#arrowhead)"/>
<path d="M 718.5624468664297 100 Q 703.7346824177826 80, 688.9069179691354 100" stroke="black" fill="none" marker-end="url(#arrowhead)"/>
<path d="M 730.5624468664297 100 Q 709.7346824177826 80, 688.9069179691354 100" stroke="black" fill="none" marker-end="url(#arrowhead)"/>
<path d="M 742.5624468664297 100 Q 736.5624468664297 80, 730.5624468664297 100" stroke="black" fill="none" marker-end="url(#arrowhead)"/>
<path d="M 820.8360439987003 100 Q 775.699245432565 80, 730.5624468664297 100" stroke="black" fill="none" marker-end="url(#arrowhead)"/>
<path d="M 855.3185621751229 100 Q 838.0773030869116 80, 820.8360439987003 100" stroke="black" fill="none" marker-end="url(#arrowhead)"/>
<path d="M 867.3185621751229 100 Q 861.3185621751229 80, 855.3185621751229 100" stroke="black" fill="none" marker-end="url(#arrowhead)"/>
<path d="M 879.3185621751229 100 Q 784.1127400721291 80, 688.9069179691354 100" stroke="black" fill="none" marker-end="url(#arrowhead)"/>
<path d="M 950.0 100 Q 914.6592810875615 80, 879.3185621751229 100" stroke="black" fill="none" marker-end="url(#arrowhead)"/>

<defs>
  <marker id="arrowhead" markerWidth="5" markerHeight="5" 
          refX="2" refY="2" orient="auto" fill="black">
    <path d="M0,0 L0,4 L4,2 z" />
  </marker>
</defs>

<circle cx="50.0" cy="100" r="6" fill="none" stroke="blue" stroke-width="2" />
<circle cx="50.0" cy="100" r="3" fill="blue" />
<circle cx="62.0" cy="100" r="4" fill="black" />
<circle cx="74.0" cy="100" r="6" fill="none" stroke="black" stroke-width="2" />
<circle cx="74.0" cy="100" r="3" fill="black" />
<circle cx="688.9069179691354" cy="100" r="6" fill="none" stroke="blue" stroke-width="2" />
<circle cx="688.9069179691354" cy="100" r="3" fill="blue" />
<circle cx="718.5624468664297" cy="100" r="4" fill="red" />
<circle cx="730.5624468664297" cy="100" r="4" fill="red" />
<circle cx="742.5624468664297" cy="100" r="4" fill="red" />
<circle cx="820.8360439987003" cy="100" r="6" fill="none" stroke="black" stroke-width="2" />
<circle cx="820.8360439987003" cy="100" r="3" fill="black" />
<circle cx="855.3185621751229" cy="100" r="4" fill="black" />
<circle cx="867.3185621751229" cy="100" r="6" fill="none" stroke="black" stroke-width="2" />
<circle cx="867.3185621751229" cy="100" r="3" fill="black" />
<circle cx="879.3185621751229" cy="100" r="4" fill="red" />
<circle cx="950.0" cy="100" r="6" fill="none" stroke="blue" stroke-width="2" />
<circle cx="950.0" cy="100" r="3" fill="blue" />
<text x="50" y="125" fill="gray" style="font-size:12px;">2024-01-12T14:53:01+00:00</text>
<text x="900" y="125" fill="gray" style="font-size:12px;">2025-02-28T18:16:39+00:00</text>
</svg>