<svg xmlns="http://www.w3.org/2000/svg" width="1000" height="400" style="background-color: white; font-family: sans-serif;">
<line x1="50" y1="200" x2="950" y2="200" stroke="gray" stroke-width="1"/>
<path d="M 62.0 200 Q 56.0 180, 50.0 200" stroke="black" fill="none" marker-end="url(#arrowhead)"/>
<path d="M 74.0 200 Q 68.0 180, 62.0 200" stroke="black" fill="none" marker-end="url(#arrowhead)"/>
<path d="M 86.0 200 Q 80.0 180, 74.0 200" stroke="black" fill="none" marker-end="url(#arrowhead)"/>
<path d="M 98.0 200 Q 92.0 180, 86.0 200" stroke="black" fill="none" marker-end="url(#arrowhead)"/>
<path d="M 110.0 200 Q 104.0 180, 98.0 200" stroke="black" fill="none" marker-end="url(#arrowhead)"/>
<path d="M 122.0 200 Q 116.0 180, 110.0 200" stroke="black" fill="none" marker-end="url(#arrowhead)"/>
<path d="M 310.36352320408173 200 Q 304.36352320408173 180, 298.36352320408173 200" stroke="black" fill="none" marker-end="url(#arrowhead)"/>
<path d="M 323.2150848096578 200 Q 240.6075424048289 180, 158.0 200" stroke="black" fill="none" marker-end="url(#arrowhead)"/>
<path d="M 335.2150848096578 200 Q 329.2150848096578 180, 323.2150848096578 200" stroke="black" fill="none" marker-end="url(#arrowhead)"/>
<path d="M 347.2150848096578 200 Q 335.2150848096578 180, 323.2150848096578 200" stroke="black" fill="none" marker-end="url(#arrowhead)"/>
<path d="M 347.2150848096578 200 Q 341.2150848096578 180, 335.2150848096578 200" stroke="black" fill="none" marker-end="url(#arrowhead)"/>
<path d="M 359.2150848096578 200 Q 353.2150848096578 180, 347.2150848096578 200" stroke="black" fill="none" marker-end="url(#arrowhead)"/>
<path d="M 483.20256115923866 200 Q 421.20882298444826 180, 359.2150848096578 200" stroke="black" fill="none" marker-end="url(#arrowhead)"/>
<path d="M 646.5197670375615 200 Q 564.8611640984001 180, 483.20256115923866 200" stroke="black" fill="none" marker-end="url(#arrowhead)"/>
<path d="M 671.9990331522248 200 Q 577.6007971557317 180, 483.20256115923866 200" stroke="black" fill="none" marker-end="url(#arrowhead)"/>
<path d="M 671.9990331522248 200 Q 659.2594000948932 180, 646.5197670375615 200" stroke="black" fill="none" marker-end="url(#arrowhead)"/>
<path d="M 730.6821223276767 200 Q 701.3405777399507 180, 671.9990331522248 200" stroke="black" fill="none" marker-end="url(#arrowhead)"/>
<path d="M 742.6821223276767 200 Q 707.3405777399507 180, 671.9990331522248 200" stroke="black" fill="none" marker-end="url(#arrowhead)"/>
<path d="M 742.6821223276767 200 Q 736.6821223276767 180, 730.6821223276767 200" stroke="black" fill="none" marker-end="url(#arrowhead)"/>
<path d="M 754.6821223276767 200 Q 742.6821223276767 180, 730.6821223276767 200" stroke="black" fill="none" marker-end="url(#arrowhead)"/>
<path d="M 766.6821223276767 200 Q 760.6821223276767 180, 754.6821223276767 200" stroke="black" fill="none" marker-end="url(#arrowhead)"/>
<path d="M 778.6821223276767 200 Q 772.6821223276767 180, 766.6821223276767 200" stroke="black" fill="none" marker-end="url(#arrowhead)"/>
<path d="M 790.6821223276767 200 Q 784.6821223276767 180, 778.6821223276767 200" stroke="black" fill="none" marker-end="url(#arrowhead)"/>
<path d="M 814.6821223276767 200 Q 808.6821223276767 180, 802.6821223276767 200" stroke="black" fill="none" marker-end="url(#arrowhead)"/>
<path d="M 826.6821223276767 200 Q 820.6821223276767 180, 814.6821223276767 200" stroke="black" fill="none" marker-end="url(#arrowhead)"/>
<path d="M 838.6821223276767 200 Q 832.6821223276767 180, 826.6821223276767 200" stroke="black" fill="none" marker-end="url(#arrowhead)"/>
<path d="M 850.6821223276767 200 Q 844.6821223276767 180, 838.6821223276767 200" stroke="black" fill="none" marker-end="url(#arrowhead)"/>
<path d="M 862.6821223276767 200 Q 856.6821223276767 180, 850.6821223276767 200" stroke="black" fill="none" marker-end="url(#arrowhead)"/>
<path d="M 874.6821223276767 200 Q 862.6821223276767 180, 850.6821223276767 200" stroke="black" fill="none" marker-end="url(#arrowhead)"/>
<path d="M 874.6821223276767 200 Q 868.6821223276767 180, 862.6821223276767 200" stroke="black" fill="none" marker-end="url(#arrowhead)"/>
<path d="M 886.6821223276767 200 Q 868.6821223276767 180, 850.6821223276767 200" stroke="black" fill="none" marker-end="url(#arrowhead)"/>
<path d="M 886.6821223276767 200 Q 874.6821223276767 180, 862.6821223276767 200" stroke="black" fill="none" marker-end="url(#arrowhead)"/>
<path d="M 886.6821223276767 200 Q 880.6821223276767 180, 874.6821223276767 200" stroke="black" fill="none" marker-end="url(#arrowhead)"/>
<path d="M 910.6821223276767 200 Q 904.6821223276767 180, 898.6821223276767 200" stroke="black" fill="none" marker-end="url(#arrowhead)"/>
<path d="M 922.6821223276767 200 Q 916.6821223276767 180, 910.6821223276767 200" stroke="black" fill="none" marker-end="url(#arrowhead)"/>
<path d="M 934.6821223276767 200 Q 928.6821223276767 180, 922.6821223276767 200" stroke="black" fill="none" marker-end="url(#arrowhead)"/>
<path d="M 958.6821223276767 200 Q 952.6821223276767 180, 946.6821223276767 200" stroke="black" fill="none" marker-end="url(#arrowhead)"/>
<path d="M 970.6821223276767 200 Q 964.6821223276767 180, 958.6821223276767 200" stroke="black" fill="none" marker-end="url(#arrowhead)"/>

<defs>
  <marker id="arrowhead" markerWidth="5" markerHeight="5" 
          refX="2" refY="2" orient="auto" fill="black">
    <path d="M0,0 L0,4 L4,2 z" />
  </marker>
</defs>

<circle cx="50.0" cy="200" r="6" fill="none" stroke="blue" stroke-width="2" />
<circle cx="50.0" cy="200" r="3" fill="blue" />
<circle cx="62.0" cy="200" r="6" fill="none" stroke="blue" stroke-width="2" />
<circle cx="62.0" cy="200" r="3" fill="blue" />
<circle cx="74.0" cy="200" r="4" fill="black" />
<circle cx="86.0" cy="200" r="6" fill="none" stroke="black" stroke-width="2" />
<circle cx="86.0" cy="200" r="3" fill="black" />
<circle cx="98.0" cy="200" r="4" fill="black" />
<circle cx="110.0" cy="200" r="6" fill="none" stroke="blue" stroke-width="2" />
<circle cx="110.0" cy="200" r="3" fill="blue" />
<circle cx="122.0" cy="200" r="6" fill="none" stroke="blue" stroke-width="2" />
<circle cx="122.0" cy="200" r="3" fill="blue" />
<circle cx="134.0" cy="200" r="6" fill="none" stroke="blue" stroke-width="2" />
<circle cx="134.0" cy="200" r="3" fill="blue" />
<circle cx="146.0" cy="200" r="6" fill="none" stroke="blue" stroke-width="2" />
<circle cx="146.0" cy="200" r="3" fill="blue" />
<circle cx="158.0" cy="200" r="6" fill="none" stroke="blue" stroke-width="2" />
<circle cx="158.0" cy="200" r="3" fill="blue" />
<circle cx="298.36352320408173" cy="200" r="6" fill="none" stroke="black" stroke-width="2" />
<circle cx="298.36352320408173" cy="200" r="3" fill="black" />
<circle cx="310.36352320408173" cy="200" r="4" fill="black" />
<circle cx="323.2150848096578" cy="200" r="4" fill="red" />
<circle cx="335.2150848096578" cy="200" r="6" fill="none" stroke="blue" stroke-width="2" />
<circle cx="335.2150848096578" cy="200" r="3" fill="blue" />
<circle cx="347.2150848096578" cy="200" r="4" fill="red" />
<circle cx="359.2150848096578" cy="200" r="6" fill="none" stroke="blue" stroke-width="2" />
<circle cx="359.2150848096578" cy="200" r="3" fill="blue" />
<circle cx="483.20256115923866" cy="200" r="6" fill="none" stroke="blue" stroke-width="2" />
<circle cx="483.20256115923866" cy="200" r="3" fill="blue" />
<circle cx="646.5197670375615" cy="200" r="6" fill="none" stroke="blue" stroke-width="2" />
<circle cx="646.5197670375615" cy="200" r="3" fill="blue" />
<circle cx="671.9990331522248" cy="200" r="6" fill="none" stroke="blue" stroke-width="2" />
<circle cx="671.9990331522248" cy="200" r="3" fill="blue" />
<circle cx="730.6821223276767" cy="200" r="4" fill="red" />
<circle cx="742.6821223276767" cy="200" r="4" fill="black" />
<circle cx="754.6821223276767" cy="200" r="6" fill="none" stroke="black" stroke-width="2" />
<circle cx="754.6821223276767" cy="200" r="3" fill="black" />
<circle cx="766.6821223276767" cy="200" r="4" fill="red" />
<circle cx="778.6821223276767" cy="200" r="6" fill="none" stroke="black" stroke-width="2" />
<circle cx="778.6821223276767" cy="200" r="3" fill="black" />
<circle cx="790.6821223276767" cy="200" r="4" fill="red" />
<circle cx="802.6821223276767" cy="200" r="6" fill="none" stroke="black" stroke-width="2" />
<circle cx="802.6821223276767" cy="200" r="3" fill="black" />
<circle cx="814.6821223276767" cy="200" r="4" fill="black" />
<circle cx="826.6821223276767" cy="200" r="6" fill="none" stroke="black" stroke-width="2" />
<circle cx="826.6821223276767" cy="200" r="3" fill="black" />
<circle cx="838.6821223276767" cy="200" r="4" fill="black" />
<circle cx="850.6821223276767" cy="200" r="6" fill="none" stroke="black" stroke-width="2" />
<circle cx="850.6821223276767" cy="200" r="3" fill="black" />
<circle cx="862.6821223276767" cy="200" r="4" fill="green" />
<circle cx="874.6821223276767" cy="200" r="6" fill="none" stroke="blue" stroke-width="2" />
<circle cx="874.6821223276767" cy="200" r="3" fill="blue" />
<circle cx="886.6821223276767" cy="200" r="6" fill="none" stroke="blue" stroke-width="2" />
<circle cx="886.6821223276767" cy="200" r="3" fill="blue" />
<circle cx="898.6821223276767" cy="200" r="4" fill="green" />
<circle cx="910.6821223276767" cy="200" r="4" fill="black" />
<circle cx="922.6821223276767" cy="200" r="4" fill="black" />
<circle cx="934.6821223276767" cy="200" r="6" fill="none" stroke="black" stroke-width="2" />
<circle cx="934.6821223276767" cy="200" r="3" fill="black" />
<circle cx="946.6821223276767" cy="200" r="4" fill="red" />
<circle cx="958.6821223276767" cy="200" r="6" fill="none" stroke="blue" stroke-width="2" />
<circle cx="958.6821223276767" cy="200" r="3" fill="blue" />
<circle cx="970.6821223276767" cy="200" r="6" fill="none" stroke="blue" stroke-width="2" />
<circle cx="970.6821223276767" cy="200" r="3" fill="blue" />
<text x="50" y="225" fill="gray" style="font-size:12px;">2023-02-27T13:16:30+00:00</text>
<text x="900" y="225" fill="gray" style="font-size:12px;">2025-02-17T11:12:21+00:00</text>
</svg>