<svg xmlns="http://www.w3.org/2000/svg" width="1000" height="400" style="background-color: white; font-family: sans-serif;">
<line x1="50" y1="200" x2="950" y2="200" stroke="gray" stroke-width="1"/>
<path d="M 62.0 200 Q 56.0 180, 50.0 200" stroke="black" fill="none" marker-end="url(#arrowhead)"/>
<path d="M 74.0 200 Q 62.0 180, 50.0 200" stroke="black" fill="none" marker-end="url(#arrowhead)"/>
<path d="M 74.0 200 Q 68.0 180, 62.0 200" stroke="black" fill="none" marker-end="url(#arrowhead)"/>
<path d="M 98.0 200 Q 74.0 180, 50.0 200" stroke="black" fill="none" marker-end="url(#arrowhead)"/>
<path d="M 98.0 200 Q 80.0 180, 62.0 200" stroke="black" fill="none" marker-end="url(#arrowhead)"/>
<path d="M 98.0 200 Q 86.0 180, 74.0 200" stroke="black" fill="none" marker-end="url(#arrowhead)"/>
<path d="M 110.0 200 Q 80.0 180, 50.0 200" stroke="black" fill="none" marker-end="url(#arrowhead)"/>
<path d="M 122.0 200 Q 86.0 180, 50.0 200" stroke="black" fill="none" marker-end="url(#arrowhead)"/>
<path d="M 122.0 200 Q 116.0 180, 110.0 200" stroke="black" fill="none" marker-end="url(#arrowhead)"/>
<path d="M 134.0 200 Q 116.0 180, 98.0 200" stroke="black" fill="none" marker-end="url(#arrowhead)"/>
<path d="M 134.0 200 Q 92.0 180, 50.0 200" stroke="black" fill="none" marker-end="url(#arrowhead)"/>
<path d="M 134.0 200 Q 98.0 180, 62.0 200" stroke="black" fill="none" marker-end="url(#arrowhead)"/>
<path d="M 134.0 200 Q 104.0 180, 74.0 200" stroke="black" fill="none" marker-end="url(#arrowhead)"/>
<path d="M 146.0 200 Q 98.0 180, 50.0 200" stroke="black" fill="none" marker-end="url(#arrowhead)"/>
<path d="M 146.0 200 Q 104.0 180, 62.0 200" stroke="black" fill="none" marker-end="url(#arrowhead)"/>
<path d="M 146.0 200 Q 110.0 180, 74.0 200" stroke="black" fill="none" marker-end="url(#arrowhead)"/>
<path d="M 158.0 200 Q 146.0 180, 134.0 200" stroke="black" fill="none" marker-end="url(#arrowhead)"/>
<path d="M 170.0 200 Q 152.0 180, 134.0 200" stroke="black" fill="none" marker-end="url(#arrowhead)"/>
<path d="M 170.0 200 Q 164.0 180, 158.0 200" stroke="black" fill="none" marker-end="url(#arrowhead)"/>
<path d="M 182.0 200 Q 140.0 180, 98.0 200" stroke="black" fill="none" marker-end="url(#arrowhead)"/>
<path d="M 182.0 200 Q 158.0 180, 134.0 200" stroke="black" fill="none" marker-end="url(#arrowhead)"/>
<path d="M 194.0 200 Q 146.0 180, 98.0 200" stroke="black" fill="none" marker-end="url(#arrowhead)"/>
<path d="M 194.0 200 Q 152.0 180, 110.0 200" stroke="black" fill="none" marker-end="url(#arrowhead)"/>
<path d="M 194.0 200 Q 164.0 180, 134.0 200" stroke="black" fill="none" marker-end="url(#arrowhead)"/>
<path d="M 194.0 200 Q 188.0 180, 182.0 200" stroke="black" fill="none" marker-end="url(#arrowhead)"/>
<path d="M 206.0 200 Q 158.0 180, 110.0 200" stroke="black" fill="none" marker-end="url(#arrowhead)"/>
<path d="M 206.0 200 Q 128.0 180, 50.0 200" stroke="black" fill="none" marker-end="url(#arrowhead)"/>
<path d="M 206.0 200 Q 164.0 180, 122.0 200" stroke="black" fill="none" marker-end="url(#arrowhead)"/>
<path d="M 218.0 200 Q 164.0 180, 110.0 200" stroke="black" fill="none" marker-end="url(#arrowhead)"/>
<path d="M 218.0 200 Q 170.0 180, 122.0 200" stroke="black" fill="none" marker-end="url(#arrowhead)"/>
<path d="M 218.0 200 Q 212.0 180, 206.0 200" stroke="black" fill="none" marker-end="url(#arrowhead)"/>
<path d="M 242.0 200 Q 236.0 180, 230.0 200" stroke="black" fill="none" marker-end="url(#arrowhead)"/>
<path d="M 290.0 200 Q 200.0 180, 110.0 200" stroke="black" fill="none" marker-end="url(#arrowhead)"/>
<path d="M 290.0 200 Q 284.0 180, 278.0 200" stroke="black" fill="none" marker-end="url(#arrowhead)"/>
<path d="M 302.0 200 Q 284.0 180, 266.0 200" stroke="black" fill="none" marker-end="url(#arrowhead)"/>
<path d="M 314.0 200 Q 308.0 180, 302.0 200" stroke="black" fill="none" marker-end="url(#arrowhead)"/>
<path d="M 326.0 200 Q 314.0 180, 302.0 200" stroke="black" fill="none" marker-end="url(#arrowhead)"/>
<path d="M 326.0 200 Q 296.0 180, 266.0 200" stroke="black" fill="none" marker-end="url(#arrowhead)"/>
<path d="M 338.0 200 Q 320.0 180, 302.0 200" stroke="black" fill="none" marker-end="url(#arrowhead)"/>
<path d="M 338.0 200 Q 326.0 180, 314.0 200" stroke="black" fill="none" marker-end="url(#arrowhead)"/>
<path d="M 338.0 200 Q 302.0 180, 266.0 200" stroke="black" fill="none" marker-end="url(#arrowhead)"/>
<path d="M 350.0 200 Q 326.0 180, 302.0 200" stroke="black" fill="none" marker-end="url(#arrowhead)"/>
<path d="M 350.0 200 Q 338.0 180, 326.0 200" stroke="black" fill="none" marker-end="url(#arrowhead)"/>
<path d="M 350.0 200 Q 308.0 180, 266.0 200" stroke="black" fill="none" marker-end="url(#arrowhead)"/>
<path d="M 362.0 200 Q 332.0 180, 302.0 200" stroke="black" fill="none" marker-end="url(#arrowhead)"/>
<path d="M 362.0 200 Q 338.0 180, 314.0 200" stroke="black" fill="none" marker-end="url(#arrowhead)"/>
<path d="M 362.0 200 Q 314.0 180, 266.0 200" stroke="black" fill="none" marker-end="url(#arrowhead)"/>
<path d="M 362.0 200 Q 350.0 180, 338.0 200" stroke="black" fill="none" marker-end="url(#arrowhead)"/>
<path d="M 374.0 200 Q 338.0 180, 302.0 200" stroke="black" fill="none" marker-end="url(#arrowhead)"/>
<path d="M 374.0 200 Q 368.0 180, 362.0 200" stroke="black" fill="none" marker-end="url(#arrowhead)"/>
<path d="M 374.0 200 Q 344.0 180, 314.0 200" stroke="black" fill="none" marker-end="url(#arrowhead)"/>
<path d="M 374.0 200 Q 320.0 180, 266.0 200" stroke="black" fill="none" marker-end="url(#arrowhead)"/>
<path d="M 374.0 200 Q 356.0 180, 338.0 200" stroke="black" fill="none" marker-end="url(#arrowhead)"/>
<path d="M 386.0 200 Q 380.0 180, 374.0 200" stroke="black" fill="none" marker-end="url(#arrowhead)"/>
<path d="M 434.0 200 Q 422.0 180, 410.0 200" stroke="black" fill="none" marker-end="url(#arrowhead)"/>
<path d="M 434.0 200 Q 428.0 180, 422.0 200" stroke="black" fill="none" marker-end="url(#arrowhead)"/>
<path d="M 446.0 200 Q 440.0 180, 434.0 200" stroke="black" fill="none" marker-end="url(#arrowhead)"/>
<path d="M 446.0 200 Q 278.0 180, 110.0 200" stroke="black" fill="none" marker-end="url(#arrowhead)"/>
<path d="M 446.0 200 Q 428.0 180, 410.0 200" stroke="black" fill="none" marker-end="url(#arrowhead)"/>
<path d="M 446.0 200 Q 434.0 180, 422.0 200" stroke="black" fill="none" marker-end="url(#arrowhead)"/>
<path d="M 458.0 200 Q 446.0 180, 434.0 200" stroke="black" fill="none" marker-end="url(#arrowhead)"/>
<path d="M 458.0 200 Q 284.0 180, 110.0 200" stroke="black" fill="none" marker-end="url(#arrowhead)"/>
<path d="M 470.0 200 Q 452.0 180, 434.0 200" stroke="black" fill="none" marker-end="url(#arrowhead)"/>
<path d="M 470.0 200 Q 464.0 180, 458.0 200" stroke="black" fill="none" marker-end="url(#arrowhead)"/>
<path d="M 482.0 200 Q 476.0 180, 470.0 200" stroke="black" fill="none" marker-end="url(#arrowhead)"/>
<path d="M 494.0 200 Q 470.0 180, 446.0 200" stroke="black" fill="none" marker-end="url(#arrowhead)"/>
<path d="M 525.0243008390671 200 Q 467.51215041953355 180, 410.0 200" stroke="black" fill="none" marker-end="url(#arrowhead)"/>
<path d="M 537.0243008390671 200 Q 531.0243008390671 180, 525.0243008390671 200" stroke="black" fill="none" marker-end="url(#arrowhead)"/>
<path d="M 667.9307228302508 200 Q 602.477511834659 180, 537.0243008390671 200" stroke="black" fill="none" marker-end="url(#arrowhead)"/>
<path d="M 790.7108452296794 200 Q 657.8675730343732 180, 525.0243008390671 200" stroke="black" fill="none" marker-end="url(#arrowhead)"/>
<path d="M 790.7108452296794 200 Q 663.8675730343732 180, 537.0243008390671 200" stroke="black" fill="none" marker-end="url(#arrowhead)"/>
<path d="M 790.7108452296794 200 Q 729.3207840299651 180, 667.9307228302508 200" stroke="black" fill="none" marker-end="url(#arrowhead)"/>
<path d="M 802.7108452296794 200 Q 796.7108452296794 180, 790.7108452296794 200" stroke="black" fill="none" marker-end="url(#arrowhead)"/>
<path d="M 814.7108452296794 200 Q 802.7108452296794 180, 790.7108452296794 200" stroke="black" fill="none" marker-end="url(#arrowhead)"/>
<path d="M 814.7108452296794 200 Q 808.7108452296794 180, 802.7108452296794 200" stroke="black" fill="none" marker-end="url(#arrowhead)"/>
<path d="M 907.3837422875775 200 Q 861.0472937586285 180, 814.7108452296794 200" stroke="black" fill="none" marker-end="url(#arrowhead)"/>
<path d="M 907.3837422875775 200 Q 849.0472937586285 180, 790.7108452296794 200" stroke="black" fill="none" marker-end="url(#arrowhead)"/>
<path d="M 907.3837422875775 200 Q 855.0472937586285 180, 802.7108452296794 200" stroke="black" fill="none" marker-end="url(#arrowhead)"/>
<path d="M 919.3837422875775 200 Q 867.0472937586285 180, 814.7108452296794 200" stroke="black" fill="none" marker-end="url(#arrowhead)"/>
<path d="M 919.3837422875775 200 Q 913.3837422875775 180, 907.3837422875775 200" stroke="black" fill="none" marker-end="url(#arrowhead)"/>
<path d="M 919.3837422875775 200 Q 855.0472937586285 180, 790.7108452296794 200" stroke="black" fill="none" marker-end="url(#arrowhead)"/>
<path d="M 919.3837422875775 200 Q 861.0472937586285 180, 802.7108452296794 200" stroke="black" fill="none" marker-end="url(#arrowhead)"/>
<path d="M 943.3837422875775 200 Q 879.0472937586285 180, 814.7108452296794 200" stroke="black" fill="none" marker-end="url(#arrowhead)"/>
<path d="M 943.3837422875775 200 Q 925.3837422875775 180, 907.3837422875775 200" stroke="black" fill="none" marker-end="url(#arrowhead)"/>
<path d="M 955.3837422875775 200 Q 943.3837422875775 180, 931.3837422875775 200" stroke="black" fill="none" marker-end="url(#arrowhead)"/>
<path d="M 967.3837422875775 200 Q 949.3837422875775 180, 931.3837422875775 200" stroke="black" fill="none" marker-end="url(#arrowhead)"/>
<path d="M 967.3837422875775 200 Q 961.3837422875775 180, 955.3837422875775 200" stroke="black" fill="none" marker-end="url(#arrowhead)"/>

<defs>
  <marker id="arrowhead" markerWidth="5" markerHeight="5" 
          refX="2" refY="2" orient="auto" fill="black">
    <path d="M0,0 L0,4 L4,2 z" />
  </marker>
</defs>

<circle cx="50.0" cy="200" r="6" fill="none" stroke="blue" stroke-width="2" />
<circle cx="50.0" cy="200" r="3" fill="blue" />
<circle cx="62.0" cy="200" r="4" fill="red" />
<circle cx="74.0" cy="200" r="6" fill="none" stroke="black" stroke-width="2" />
<circle cx="74.0" cy="200" r="3" fill="black" />
<circle cx="86.0" cy="200" r="6" fill="none" stroke="blue" stroke-width="2" />
<circle cx="86.0" cy="200" r="3" fill="blue" />
<circle cx="98.0" cy="200" r="4" fill="red" />
<circle cx="110.0" cy="200" r="4" fill="black" />
<circle cx="122.0" cy="200" r="6" fill="none" stroke="black" stroke-width="2" />
<circle cx="122.0" cy="200" r="3" fill="black" />
<circle cx="134.0" cy="200" r="6" fill="none" stroke="black" stroke-width="2" />
<circle cx="134.0" cy="200" r="3" fill="black" />
<circle cx="146.0" cy="200" r="6" fill="none" stroke="black" stroke-width="2" />
<circle cx="146.0" cy="200" r="3" fill="black" />
<circle cx="158.0" cy="200" r="4" fill="black" />
<circle cx="170.0" cy="200" r="6" fill="none" stroke="black" stroke-width="2" />
<circle cx="170.0" cy="200" r="3" fill="black" />
<circle cx="182.0" cy="200" r="4" fill="black" />
<circle cx="194.0" cy="200" r="6" fill="none" stroke="black" stroke-width="2" />
<circle cx="194.0" cy="200" r="3" fill="black" />
<circle cx="206.0" cy="200" r="4" fill="black" />
<circle cx="218.0" cy="200" r="6" fill="none" stroke="black" stroke-width="2" />
<circle cx="218.0" cy="200" r="3" fill="black" />
<circle cx="230.0" cy="200" r="4" fill="red" />
<circle cx="242.0" cy="200" r="6" fill="none" stroke="blue" stroke-width="2" />
<circle cx="242.0" cy="200" r="3" fill="blue" />
<circle cx="254.0" cy="200" r="6" fill="none" stroke="blue" stroke-width="2" />
<circle cx="254.0" cy="200" r="3" fill="blue" />
<circle cx="266.0" cy="200" r="6" fill="none" stroke="blue" stroke-width="2" />
<circle cx="266.0" cy="200" r="3" fill="blue" />
<circle cx="278.0" cy="200" r="4" fill="blue" />
<circle cx="290.0" cy="200" r="6" fill="none" stroke="red" stroke-width="2" />
<circle cx="290.0" cy="200" r="3" fill="red" />
<circle cx="302.0" cy="200" r="4" fill="red" />
<circle cx="314.0" cy="200" r="4" fill="blue" />
<circle cx="326.0" cy="200" r="6" fill="none" stroke="red" stroke-width="2" />
<circle cx="326.0" cy="200" r="3" fill="red" />
<circle cx="338.0" cy="200" r="6" fill="none" stroke="black" stroke-width="2" />
<circle cx="338.0" cy="200" r="3" fill="black" />
<circle cx="350.0" cy="200" r="4" fill="black" />
<circle cx="362.0" cy="200" r="4" fill="black" />
<circle cx="374.0" cy="200" r="6" fill="none" stroke="black" stroke-width="2" />
<circle cx="374.0" cy="200" r="3" fill="black" />
<circle cx="386.0" cy="200" r="4" fill="black" />
<circle cx="398.0" cy="200" r="4" fill="black" />
<circle cx="410.0" cy="200" r="6" fill="none" stroke="blue" stroke-width="2" />
<circle cx="410.0" cy="200" r="3" fill="blue" />
<circle cx="422.0" cy="200" r="4" fill="black" />
<circle cx="434.0" cy="200" r="4" fill="black" />
<circle cx="446.0" cy="200" r="6" fill="none" stroke="black" stroke-width="2" />
<circle cx="446.0" cy="200" r="3" fill="black" />
<circle cx="458.0" cy="200" r="4" fill="blue" />
<circle cx="470.0" cy="200" r="4" fill="black" />
<circle cx="482.0" cy="200" r="4" fill="black" />
<circle cx="494.0" cy="200" r="4" fill="red" />
<circle cx="525.0243008390671" cy="200" r="4" fill="red" />
<circle cx="537.0243008390671" cy="200" r="6" fill="none" stroke="blue" stroke-width="2" />
<circle cx="537.0243008390671" cy="200" r="3" fill="blue" />
<circle cx="667.9307228302508" cy="200" r="4" fill="red" />
<circle cx="790.7108452296794" cy="200" r="6" fill="none" stroke="blue" stroke-width="2" />
<circle cx="790.7108452296794" cy="200" r="3" fill="blue" />
<circle cx="802.7108452296794" cy="200" r="4" fill="red" />
<circle cx="814.7108452296794" cy="200" r="6" fill="none" stroke="blue" stroke-width="2" />
<circle cx="814.7108452296794" cy="200" r="3" fill="blue" />
<circle cx="907.3837422875775" cy="200" r="4" fill="red" />
<circle cx="919.3837422875775" cy="200" r="6" fill="none" stroke="green" stroke-width="2" />
<circle cx="919.3837422875775" cy="200" r="3" fill="green" />
<circle cx="931.3837422875775" cy="200" r="6" fill="none" stroke="blue" stroke-width="2" />
<circle cx="931.3837422875775" cy="200" r="3" fill="blue" />
<circle cx="943.3837422875775" cy="200" r="6" fill="none" stroke="black" stroke-width="2" />
<circle cx="943.3837422875775" cy="200" r="3" fill="black" />
<circle cx="955.3837422875775" cy="200" r="4" fill="black" />
<circle cx="967.3837422875775" cy="200" r="6" fill="none" stroke="red" stroke-width="2" />
<circle cx="967.3837422875775" cy="200" r="3" fill="red" />
<circle cx="979.3837422875775" cy="200" r="6" fill="none" stroke="black" stroke-width="2" />
<circle cx="979.3837422875775" cy="200" r="3" fill="black" />
<circle cx="991.3837422875775" cy="200" r="6" fill="none" stroke="blue" stroke-width="2" />
<circle cx="991.3837422875775" cy="200" r="3" fill="blue" />
<circle cx="1003.3837422875775" cy="200" r="6" fill="none" stroke="blue" stroke-width="2" />
<circle cx="1003.3837422875775" cy="200" r="3" fill="blue" />
<circle cx="1015.3837422875775" cy="200" r="6" fill="none" stroke="blue" stroke-width="2" />
<circle cx="1015.3837422875775" cy="200" r="3" fill="blue" />
<text x="50" y="225" fill="gray" style="font-size:12px;">2024-05-02T15:19:03+00:00</text>
<text x="900" y="225" fill="gray" style="font-size:12px;">2025-02-26T20:08:39+00:00</text>
</svg>