<svg xmlns="http://www.w3.org/2000/svg" width="1000" height="400" style="background-color: white; font-family: sans-serif;">
<line x1="50" y1="200" x2="950" y2="200" stroke="gray" stroke-width="1"/>
<path d="M 62.0 200 Q 56.0 180, 50.0 200" stroke="black" fill="none" marker-end="url(#arrowhead)"/>
<path d="M 74.0 200 Q 68.0 180, 62.0 200" stroke="black" fill="none" marker-end="url(#arrowhead)"/>
<path d="M 86.0 200 Q 68.0 180, 50.0 200" stroke="black" fill="none" marker-end="url(#arrowhead)"/>
<path d="M 86.0 200 Q 74.0 180, 62.0 200" stroke="black" fill="none" marker-end="url(#arrowhead)"/>
<path d="M 86.0 200 Q 80.0 180, 74.0 200" stroke="black" fill="none" marker-end="url(#arrowhead)"/>
<path d="M 98.0 200 Q 92.0 180, 86.0 200" stroke="black" fill="none" marker-end="url(#arrowhead)"/>
<path d="M 110.0 200 Q 92.0 180, 74.0 200" stroke="black" fill="none" marker-end="url(#arrowhead)"/>
<path d="M 122.0 200 Q 104.0 180, 86.0 200" stroke="black" fill="none" marker-end="url(#arrowhead)"/>
<path d="M 122.0 200 Q 110.0 180, 98.0 200" stroke="black" fill="none" marker-end="url(#arrowhead)"/>
<path d="M 134.0 200 Q 128.0 180, 122.0 200" stroke="black" fill="none" marker-end="url(#arrowhead)"/>
<path d="M 146.0 200 Q 134.0 180, 122.0 200" stroke="black" fill="none" marker-end="url(#arrowhead)"/>
<path d="M 146.0 200 Q 140.0 180, 134.0 200" stroke="black" fill="none" marker-end="url(#arrowhead)"/>
<path d="M 158.0 200 Q 140.0 180, 122.0 200" stroke="black" fill="none" marker-end="url(#arrowhead)"/>
<path d="M 158.0 200 Q 146.0 180, 134.0 200" stroke="black" fill="none" marker-end="url(#arrowhead)"/>
<path d="M 158.0 200 Q 152.0 180, 146.0 200" stroke="black" fill="none" marker-end="url(#arrowhead)"/>
<path d="M 170.0 200 Q 164.0 180, 158.0 200" stroke="black" fill="none" marker-end="url(#arrowhead)"/>
<path d="M 182.0 200 Q 176.0 180, 170.0 200" stroke="black" fill="none" marker-end="url(#arrowhead)"/>
<path d="M 194.0 200 Q 188.0 180, 182.0 200" stroke="black" fill="none" marker-end="url(#arrowhead)"/>
<path d="M 206.0 200 Q 200.0 180, 194.0 200" stroke="black" fill="none" marker-end="url(#arrowhead)"/>
<path d="M 218.0 200 Q 212.0 180, 206.0 200" stroke="black" fill="none" marker-end="url(#arrowhead)"/>
<path d="M 230.0 200 Q 218.0 180, 206.0 200" stroke="black" fill="none" marker-end="url(#arrowhead)"/>
<path d="M 230.0 200 Q 224.0 180, 218.0 200" stroke="black" fill="none" marker-end="url(#arrowhead)"/>
<path d="M 242.0 200 Q 194.0 180, 146.0 200" stroke="black" fill="none" marker-end="url(#arrowhead)"/>
<path d="M 906.2187001553733 200 Q 556.1093500776867 180, 206.0 200" stroke="black" fill="none" marker-end="url(#arrowhead)"/>
<path d="M 918.2187001553733 200 Q 912.2187001553733 180, 906.2187001553733 200" stroke="black" fill="none" marker-end="url(#arrowhead)"/>
<path d="M 930.2187001553733 200 Q 924.2187001553733 180, 918.2187001553733 200" stroke="black" fill="none" marker-end="url(#arrowhead)"/>
<path d="M 942.2187001553733 200 Q 936.2187001553733 180, 930.2187001553733 200" stroke="black" fill="none" marker-end="url(#arrowhead)"/>
<path d="M 954.2187001553733 200 Q 948.2187001553733 180, 942.2187001553733 200" stroke="black" fill="none" marker-end="url(#arrowhead)"/>
<path d="M 954.2187001553733 200 Q 942.2187001553733 180, 930.2187001553733 200" stroke="black" fill="none" marker-end="url(#arrowhead)"/>
<path d="M 966.2187001553733 200 Q 960.2187001553733 180, 954.2187001553733 200" stroke="black" fill="none" marker-end="url(#arrowhead)"/>
<path d="M 990.2187001553733 200 Q 984.2187001553733 180, 978.2187001553733 200" stroke="black" fill="none" marker-end="url(#arrowhead)"/>
<path d="M 1002.2187001553733 200 Q 996.2187001553733 180, 990.2187001553733 200" stroke="black" fill="none" marker-end="url(#arrowhead)"/>
<path d="M 1014.2187001553733 200 Q 1008.2187001553733 180, 1002.2187001553733 200" stroke="black" fill="none" marker-end="url(#arrowhead)"/>
<path d="M 1026.2187001553734 200 Q 1020.2187001553734 180, 1014.2187001553733 200" stroke="black" fill="none" marker-end="url(#arrowhead)"/>
<path d="M 1038.2187001553734 200 Q 1026.2187001553734 180, 1014.2187001553733 200" stroke="black" fill="none" marker-end="url(#arrowhead)"/>

<defs>
  <marker id="arrowhead" markerWidth="5" markerHeight="5" 
          refX="2" refY="2" orient="auto" fill="black">
    <path d="M0,0 L0,4 L4,2 z" />
  </marker>
</defs>

<circle cx="50.0" cy="200" r="6" fill="none" stroke="blue" stroke-width="2" />
<circle cx="50.0" cy="200" r="3" fill="blue" />
<circle cx="62.0" cy="200" r="4" fill="black" />
<circle cx="74.0" cy="200" r="4" fill="blue" />
<circle cx="86.0" cy="200" r="4" fill="red" />
<circle cx="98.0" cy="200" r="4" fill="black" />
<circle cx="110.0" cy="200" r="6" fill="none" stroke="green" stroke-width="2" />
<circle cx="110.0" cy="200" r="3" fill="green" />
<circle cx="122.0" cy="200" r="6" fill="none" stroke="blue" stroke-width="2" />
<circle cx="122.0" cy="200" r="3" fill="blue" />
<circle cx="134.0" cy="200" r="4" fill="red" />
<circle cx="146.0" cy="200" r="4" fill="green" />
<circle cx="158.0" cy="200" r="6" fill="none" stroke="blue" stroke-width="2" />
<circle cx="158.0" cy="200" r="3" fill="blue" />
<circle cx="170.0" cy="200" r="4" fill="red" />
<circle cx="182.0" cy="200" r="4" fill="black" />
<circle cx="194.0" cy="200" r="4" fill="black" />
<circle cx="206.0" cy="200" r="4" fill="red" />
<circle cx="218.0" cy="200" r="6" fill="none" stroke="black" stroke-width="2" />
<circle cx="218.0" cy="200" r="3" fill="black" />
<circle cx="230.0" cy="200" r="4" fill="black" />
<circle cx="242.0" cy="200" r="4" fill="black" />
<circle cx="906.2187001553733" cy="200" r="4" fill="black" />
<circle cx="918.2187001553733" cy="200" r="4" fill="black" />
<circle cx="930.2187001553733" cy="200" r="4" fill="black" />
<circle cx="942.2187001553733" cy="200" r="4" fill="black" />
<circle cx="954.2187001553733" cy="200" r="4" fill="black" />
<circle cx="966.2187001553733" cy="200" r="4" fill="black" />
<circle cx="978.2187001553733" cy="200" r="4" fill="black" />
<circle cx="990.2187001553733" cy="200" r="4" fill="blue" />
<circle cx="1002.2187001553733" cy="200" r="4" fill="black" />
<circle cx="1014.2187001553733" cy="200" r="4" fill="black" />
<circle cx="1026.2187001553734" cy="200" r="4" fill="black" />
<circle cx="1038.2187001553734" cy="200" r="4" fill="black" />
<text x="50" y="225" fill="gray" style="font-size:12px;">2020-05-04T17:44:21+00:00</text>
<text x="900" y="225" fill="gray" style="font-size:12px;">2024-07-30T23:54:55+00:00</text>
</svg>