<svg xmlns="http://www.w3.org/2000/svg" width="1000" height="400" style="background-color: white; font-family: sans-serif;">
<line x1="50" y1="200" x2="950" y2="200" stroke="gray" stroke-width="1"/>
<path d="M 321.60935811287067 200 Q 274.3585827733659 180, 227.10780743386118 200" stroke="black" fill="none" marker-end="url(#arrowhead)"/>
<path d="M 338.27475212630986 200 Q 194.13737606315493 180, 50.0 200" stroke="black" fill="none" marker-end="url(#arrowhead)"/>
<path d="M 350.27475212630986 200 Q 344.27475212630986 180, 338.27475212630986 200" stroke="black" fill="none" marker-end="url(#arrowhead)"/>
<path d="M 362.27475212630986 200 Q 350.27475212630986 180, 338.27475212630986 200" stroke="black" fill="none" marker-end="url(#arrowhead)"/>
<path d="M 362.27475212630986 200 Q 206.13737606315493 180, 50.0 200" stroke="black" fill="none" marker-end="url(#arrowhead)"/>
<path d="M 374.27475212630986 200 Q 356.27475212630986 180, 338.27475212630986 200" stroke="black" fill="none" marker-end="url(#arrowhead)"/>
<path d="M 416.8034279404163 200 Q 395.5390900333631 180, 374.27475212630986 200" stroke="black" fill="none" marker-end="url(#arrowhead)"/>
<path d="M 428.8034279404163 200 Q 383.5390900333631 180, 338.27475212630986 200" stroke="black" fill="none" marker-end="url(#arrowhead)"/>
<path d="M 428.8034279404163 200 Q 395.5390900333631 180, 362.27475212630986 200" stroke="black" fill="none" marker-end="url(#arrowhead)"/>
<path d="M 440.8034279404163 200 Q 395.5390900333631 180, 350.27475212630986 200" stroke="black" fill="none" marker-end="url(#arrowhead)"/>
<path d="M 485.03418542361726 200 Q 462.9188066820168 180, 440.8034279404163 200" stroke="black" fill="none" marker-end="url(#arrowhead)"/>
<path d="M 485.03418542361726 200 Q 417.65446877496356 180, 350.27475212630986 200" stroke="black" fill="none" marker-end="url(#arrowhead)"/>
<path d="M 485.03418542361726 200 Q 411.65446877496356 180, 338.27475212630986 200" stroke="black" fill="none" marker-end="url(#arrowhead)"/>
<path d="M 571.3312344344721 200 Q 500.0673311874442 180, 428.8034279404163 200" stroke="black" fill="none" marker-end="url(#arrowhead)"/>
<path d="M 571.3312344344721 200 Q 454.802993280391 180, 338.27475212630986 200" stroke="black" fill="none" marker-end="url(#arrowhead)"/>
<path d="M 571.3312344344721 200 Q 466.802993280391 180, 362.27475212630986 200" stroke="black" fill="none" marker-end="url(#arrowhead)"/>
<path d="M 571.3312344344721 200 Q 310.66561721723605 180, 50.0 200" stroke="black" fill="none" marker-end="url(#arrowhead)"/>
<path d="M 698.3891147032564 200 Q 563.5962713218364 180, 428.8034279404163 200" stroke="black" fill="none" marker-end="url(#arrowhead)"/>
<path d="M 698.3891147032564 200 Q 518.3319334147832 180, 338.27475212630986 200" stroke="black" fill="none" marker-end="url(#arrowhead)"/>
<path d="M 698.3891147032564 200 Q 634.8601745688643 180, 571.3312344344721 200" stroke="black" fill="none" marker-end="url(#arrowhead)"/>
<path d="M 879.3956463512053 200 Q 788.8923805272309 180, 698.3891147032564 200" stroke="black" fill="none" marker-end="url(#arrowhead)"/>

<defs>
  <marker id="arrowhead" markerWidth="5" markerHeight="5" 
          refX="2" refY="2" orient="auto" fill="black">
    <path d="M0,0 L0,4 L4,2 z" />
  </marker>
</defs>

<circle cx="50.0" cy="200" r="6" fill="none" stroke="blue" stroke-width="2" />
<circle cx="50.0" cy="200" r="3" fill="blue" />
<circle cx="227.10780743386118" cy="200" r="4" fill="red" />
<circle cx="321.60935811287067" cy="200" r="6" fill="none" stroke="black" stroke-width="2" />
<circle cx="321.60935811287067" cy="200" r="3" fill="black" />
<circle cx="338.27475212630986" cy="200" r="4" fill="red" />
<circle cx="350.27475212630986" cy="200" r="6" fill="none" stroke="black" stroke-width="2" />
<circle cx="350.27475212630986" cy="200" r="3" fill="black" />
<circle cx="362.27475212630986" cy="200" r="6" fill="none" stroke="black" stroke-width="2" />
<circle cx="362.27475212630986" cy="200" r="3" fill="black" />
<circle cx="374.27475212630986" cy="200" r="4" fill="black" />
<circle cx="416.8034279404163" cy="200" r="4" fill="black" />
<circle cx="428.8034279404163" cy="200" r="4" fill="blue" />
<circle cx="440.8034279404163" cy="200" r="4" fill="red" />
<circle cx="485.03418542361726" cy="200" r="6" fill="none" stroke="red" stroke-width="2" />
<circle cx="485.03418542361726" cy="200" r="3" fill="red" />
<circle cx="571.3312344344721" cy="200" r="6" fill="none" stroke="blue" stroke-width="2" />
<circle cx="571.3312344344721" cy="200" r="3" fill="blue" />
<circle cx="698.3891147032564" cy="200" r="4" fill="red" />
<circle cx="879.3956463512053" cy="200" r="6" fill="none" stroke="blue" stroke-width="2" />
<circle cx="879.3956463512053" cy="200" r="3" fill="blue" />
<circle cx="950.0" cy="200" r="6" fill="none" stroke="blue" stroke-width="2" />
<circle cx="950.0" cy="200" r="3" fill="blue" />
<text x="50" y="225" fill="gray" style="font-size:12px;">2025-02-06T22:24:34+00:00</text>
<text x="900" y="225" fill="gray" style="font-size:12px;">2025-02-18T18:09:22+00:00</text>
</svg>