<svg xmlns="http://www.w3.org/2000/svg" width="1000" height="400" style="background-color: white; font-family: sans-serif;">
<line x1="50" y1="200" x2="950" y2="200" stroke="gray" stroke-width="1"/>
<path d="M 62.0 200 Q 56.0 180, 50.0 200" stroke="black" fill="none" marker-end="url(#arrowhead)"/>
<path d="M 220.16584904263144 200 Q 135.0829245213157 180, 50.0 200" stroke="black" fill="none" marker-end="url(#arrowhead)"/>
<path d="M 220.16584904263144 200 Q 141.0829245213157 180, 62.0 200" stroke="black" fill="none" marker-end="url(#arrowhead)"/>
<path d="M 578.5958483337774 200 Q 572.5958483337774 180, 566.5958483337774 200" stroke="black" fill="none" marker-end="url(#arrowhead)"/>
<path d="M 590.5958483337774 200 Q 584.5958483337774 180, 578.5958483337774 200" stroke="black" fill="none" marker-end="url(#arrowhead)"/>
<path d="M 602.5958483337774 200 Q 596.5958483337774 180, 590.5958483337774 200" stroke="black" fill="none" marker-end="url(#arrowhead)"/>
<path d="M 948.2519128165142 200 Q 846.9527821129627 180, 745.6536514094114 200" stroke="black" fill="none" marker-end="url(#arrowhead)"/>

<defs>
  <marker id="arrowhead" markerWidth="5" markerHeight="5" 
          refX="2" refY="2" orient="auto" fill="black">
    <path d="M0,0 L0,4 L4,2 z" />
  </marker>
</defs>

<circle cx="50.0" cy="200" r="6" fill="none" stroke="blue" stroke-width="2" />
<circle cx="50.0" cy="200" r="3" fill="blue" />
<circle cx="62.0" cy="200" r="6" fill="none" stroke="blue" stroke-width="2" />
<circle cx="62.0" cy="200" r="3" fill="blue" />
<circle cx="220.16584904263144" cy="200" r="6" fill="none" stroke="blue" stroke-width="2" />
<circle cx="220.16584904263144" cy="200" r="3" fill="blue" />
<circle cx="554.5958483337774" cy="200" r="6" fill="none" stroke="blue" stroke-width="2" />
<circle cx="554.5958483337774" cy="200" r="3" fill="blue" />
<circle cx="566.5958483337774" cy="200" r="4" fill="black" />
<circle cx="578.5958483337774" cy="200" r="6" fill="none" stroke="black" stroke-width="2" />
<circle cx="578.5958483337774" cy="200" r="3" fill="black" />
<circle cx="590.5958483337774" cy="200" r="4" fill="red" />
<circle cx="602.5958483337774" cy="200" r="6" fill="none" stroke="black" stroke-width="2" />
<circle cx="602.5958483337774" cy="200" r="3" fill="black" />
<circle cx="745.6536514094114" cy="200" r="6" fill="none" stroke="blue" stroke-width="2" />
<circle cx="745.6536514094114" cy="200" r="3" fill="blue" />
<circle cx="948.2519128165142" cy="200" r="6" fill="none" stroke="blue" stroke-width="2" />
<circle cx="948.2519128165142" cy="200" r="3" fill="blue" />
<circle cx="960.2519128165142" cy="200" r="6" fill="none" stroke="blue" stroke-width="2" />
<circle cx="960.2519128165142" cy="200" r="3" fill="blue" />
<text x="50" y="225" fill="gray" style="font-size:12px;">2024-07-02T16:02:38+00:00</text>
<text x="900" y="225" fill="gray" style="font-size:12px;">2025-02-21T11:36:22+00:00</text>
</svg>