<svg xmlns="http://www.w3.org/2000/svg" width="1000" height="200" style="background-color: white; font-family: sans-serif;">
<line x1="50" y1="100" x2="950" y2="100" stroke="gray" stroke-width="1"/>
<path d="M 62.0 100 Q 56.0 80, 50.0 100" stroke="black" fill="none" marker-end="url(#arrowhead)"/>
<path d="M 99.09916081323632 100 Q 90.65381502430982 80, 82.20846923538332 100" stroke="black" fill="none" marker-end="url(#arrowhead)"/>
<path d="M 99.09916081323632 100 Q 74.54958040661816 80, 50.0 100" stroke="black" fill="none" marker-end="url(#arrowhead)"/>
<path d="M 126.15421280044762 100 Q 112.62668680684197 80, 99.09916081323632 100" stroke="black" fill="none" marker-end="url(#arrowhead)"/>
<path d="M 318.45848218757305 100 Q 222.30634749401034 80, 126.15421280044762 100" stroke="black" fill="none" marker-end="url(#arrowhead)"/>
<path d="M 365.90079889106227 100 Q 342.1796405393177 80, 318.45848218757305 100" stroke="black" fill="none" marker-end="url(#arrowhead)"/>
<path d="M 399.2547597858111 100 Q 358.85662098669206 80, 318.45848218757305 100" stroke="black" fill="none" marker-end="url(#arrowhead)"/>
<path d="M 399.2547597858111 100 Q 382.5777793384367 80, 365.90079889106227 100" stroke="black" fill="none" marker-end="url(#arrowhead)"/>
<path d="M 411.2547597858111 100 Q 405.2547597858111 80, 399.2547597858111 100" stroke="black" fill="none" marker-end="url(#arrowhead)"/>
<path d="M 423.2547597858111 100 Q 411.2547597858111 80, 399.2547597858111 100" stroke="black" fill="none" marker-end="url(#arrowhead)"/>
<path d="M 423.2547597858111 100 Q 417.2547597858111 80, 411.2547597858111 100" stroke="black" fill="none" marker-end="url(#arrowhead)"/>
<path d="M 631.4434841275232 100 Q 515.3491219566672 80, 399.2547597858111 100" stroke="black" fill="none" marker-end="url(#arrowhead)"/>
<path d="M 631.4434841275232 100 Q 521.3491219566672 80, 411.2547597858111 100" stroke="black" fill="none" marker-end="url(#arrowhead)"/>
<path d="M 673.977439012456 100 Q 652.7104615699895 80, 631.4434841275232 100" stroke="black" fill="none" marker-end="url(#arrowhead)"/>
<path d="M 948.3224323866914 100 Q 789.8829582571072 80, 631.4434841275232 100" stroke="black" fill="none" marker-end="url(#arrowhead)"/>
<path d="M 960.3224323866914 100 Q 954.3224323866914 80, 948.3224323866914 100" stroke="black" fill="none" marker-end="url(#arrowhead)"/>
<path d="M 960.3224323866914 100 Q 795.8829582571072 80, 631.4434841275232 100" stroke="black" fill="none" marker-end="url(#arrowhead)"/>
<path d="M 960.3224323866914 100 Q 817.1499356995737 80, 673.977439012456 100" stroke="black" fill="none" marker-end="url(#arrowhead)"/>
<path d="M 972.3224323866914 100 Q 966.3224323866914 80, 960.3224323866914 100" stroke="black" fill="none" marker-end="url(#arrowhead)"/>

<defs>
  <marker id="arrowhead" markerWidth="5" markerHeight="5" 
          refX="2" refY="2" orient="auto" fill="black">
    <path d="M0,0 L0,4 L4,2 z" />
  </marker>
</defs>

<circle cx="50.0" cy="100" r="6" fill="none" stroke="blue" stroke-width="2" />
<circle cx="50.0" cy="100" r="3" fill="blue" />
<circle cx="62.0" cy="100" r="6" fill="none" stroke="black" stroke-width="2" />
<circle cx="62.0" cy="100" r="3" fill="black" />
<circle cx="82.20846923538332" cy="100" r="6" fill="none" stroke="blue" stroke-width="2" />
<circle cx="82.20846923538332" cy="100" r="3" fill="blue" />
<circle cx="99.09916081323632" cy="100" r="4" fill="red" />
<circle cx="126.15421280044762" cy="100" r="6" fill="none" stroke="red" stroke-width="2" />
<circle cx="126.15421280044762" cy="100" r="3" fill="red" />
<circle cx="318.45848218757305" cy="100" r="6" fill="none" stroke="blue" stroke-width="2" />
<circle cx="318.45848218757305" cy="100" r="3" fill="blue" />
<circle cx="365.90079889106227" cy="100" r="4" fill="black" />
<circle cx="399.2547597858111" cy="100" r="6" fill="none" stroke="black" stroke-width="2" />
<circle cx="399.2547597858111" cy="100" r="3" fill="black" />
<circle cx="411.2547597858111" cy="100" r="4" fill="black" />
<circle cx="423.2547597858111" cy="100" r="6" fill="none" stroke="black" stroke-width="2" />
<circle cx="423.2547597858111" cy="100" r="3" fill="black" />
<circle cx="631.4434841275232" cy="100" r="6" fill="none" stroke="blue" stroke-width="2" />
<circle cx="631.4434841275232" cy="100" r="3" fill="blue" />
<circle cx="673.977439012456" cy="100" r="4" fill="green" />
<circle cx="948.3224323866914" cy="100" r="4" fill="red" />
<circle cx="960.3224323866914" cy="100" r="6" fill="none" stroke="black" stroke-width="2" />
<circle cx="960.3224323866914" cy="100" r="3" fill="black" />
<circle cx="972.3224323866914" cy="100" r="4" fill="black" />
<text x="50" y="125" fill="gray" style="font-size:12px;">2025-01-29T20:23:45+00:00</text>
<text x="900" y="125" fill="gray" style="font-size:12px;">2025-02-18T22:56:23+00:00</text>
</svg>