<svg xmlns="http://www.w3.org/2000/svg" width="1000" height="200" style="background-color: white; font-family: sans-serif;">
<line x1="50" y1="100" x2="950" y2="100" stroke="gray" stroke-width="1"/>
<path d="M 62.0 100 Q 56.0 80, 50.0 100" stroke="black" fill="none" marker-end="url(#arrowhead)"/>
<path d="M 736.9213998762443 100 Q 393.46069993812216 80, 50.0 100" stroke="black" fill="none" marker-end="url(#arrowhead)"/>
<path d="M 736.9213998762443 100 Q 399.46069993812216 80, 62.0 100" stroke="black" fill="none" marker-end="url(#arrowhead)"/>
<path d="M 757.5037077055372 100 Q 747.2125537908908 80, 736.9213998762443 100" stroke="black" fill="none" marker-end="url(#arrowhead)"/>
<path d="M 770.82959290652 100 Q 753.8754963913822 80, 736.9213998762443 100" stroke="black" fill="none" marker-end="url(#arrowhead)"/>
<path d="M 770.82959290652 100 Q 764.1666503060286 80, 757.5037077055372 100" stroke="black" fill="none" marker-end="url(#arrowhead)"/>
<path d="M 879.8125763801199 100 Q 808.3669881281821 80, 736.9213998762443 100" stroke="black" fill="none" marker-end="url(#arrowhead)"/>
<path d="M 879.8125763801199 100 Q 825.32108464332 80, 770.82959290652 100" stroke="black" fill="none" marker-end="url(#arrowhead)"/>
<path d="M 899.7485966614597 100 Q 818.334998268852 80, 736.9213998762443 100" stroke="black" fill="none" marker-end="url(#arrowhead)"/>
<path d="M 899.7485966614597 100 Q 828.6261521834984 80, 757.5037077055372 100" stroke="black" fill="none" marker-end="url(#arrowhead)"/>
<path d="M 899.7485966614597 100 Q 835.2890947839899 80, 770.82959290652 100" stroke="black" fill="none" marker-end="url(#arrowhead)"/>
<path d="M 899.7485966614597 100 Q 889.7805865207898 80, 879.8125763801199 100" stroke="black" fill="none" marker-end="url(#arrowhead)"/>
<path d="M 911.7485966614597 100 Q 905.7485966614597 80, 899.7485966614597 100" stroke="black" fill="none" marker-end="url(#arrowhead)"/>
<path d="M 923.7485966614597 100 Q 911.7485966614597 80, 899.7485966614597 100" stroke="black" fill="none" marker-end="url(#arrowhead)"/>
<path d="M 923.7485966614597 100 Q 917.7485966614597 80, 911.7485966614597 100" stroke="black" fill="none" marker-end="url(#arrowhead)"/>
<path d="M 935.7485966614597 100 Q 917.7485966614597 80, 899.7485966614597 100" stroke="black" fill="none" marker-end="url(#arrowhead)"/>
<path d="M 935.7485966614597 100 Q 923.7485966614597 80, 911.7485966614597 100" stroke="black" fill="none" marker-end="url(#arrowhead)"/>
<path d="M 935.7485966614597 100 Q 929.7485966614597 80, 923.7485966614597 100" stroke="black" fill="none" marker-end="url(#arrowhead)"/>
<path d="M 947.7485966614597 100 Q 842.334998268852 80, 736.9213998762443 100" stroke="black" fill="none" marker-end="url(#arrowhead)"/>
<path d="M 947.7485966614597 100 Q 941.7485966614597 80, 935.7485966614597 100" stroke="black" fill="none" marker-end="url(#arrowhead)"/>
<path d="M 959.7485966614597 100 Q 953.7485966614597 80, 947.7485966614597 100" stroke="black" fill="none" marker-end="url(#arrowhead)"/>
<path d="M 971.7485966614597 100 Q 965.7485966614597 80, 959.7485966614597 100" stroke="black" fill="none" marker-end="url(#arrowhead)"/>
<path d="M 995.7485966614597 100 Q 989.7485966614597 80, 983.7485966614597 100" stroke="black" fill="none" marker-end="url(#arrowhead)"/>
<path d="M 1007.7485966614597 100 Q 1001.7485966614597 80, 995.7485966614597 100" stroke="black" fill="none" marker-end="url(#arrowhead)"/>
<path d="M 1043.7485966614597 100 Q 1037.7485966614597 80, 1031.7485966614597 100" stroke="black" fill="none" marker-end="url(#arrowhead)"/>
<path d="M 1043.7485966614597 100 Q 1013.7485966614597 80, 983.7485966614597 100" stroke="black" fill="none" marker-end="url(#arrowhead)"/>
<path d="M 1055.7485966614597 100 Q 1043.7485966614597 80, 1031.7485966614597 100" stroke="black" fill="none" marker-end="url(#arrowhead)"/>
<path d="M 1055.7485966614597 100 Q 1049.7485966614597 80, 1043.7485966614597 100" stroke="black" fill="none" marker-end="url(#arrowhead)"/>
<path d="M 1055.7485966614597 100 Q 1019.7485966614597 80, 983.7485966614597 100" stroke="black" fill="none" marker-end="url(#arrowhead)"/>
<path d="M 1055.7485966614597 100 Q 896.334998268852 80, 736.9213998762443 100" stroke="black" fill="none" marker-end="url(#arrowhead)"/>
<path d="M 1067.7485966614597 100 Q 1055.7485966614597 80, 1043.7485966614597 100" stroke="black" fill="none" marker-end="url(#arrowhead)"/>
<path d="M 1067.7485966614597 100 Q 1061.7485966614597 80, 1055.7485966614597 100" stroke="black" fill="none" marker-end="url(#arrowhead)"/>
<path d="M 1067.7485966614597 100 Q 973.7805865207898 80, 879.8125763801199 100" stroke="black" fill="none" marker-end="url(#arrowhead)"/>
<path d="M 1079.7485966614597 100 Q 1073.7485966614597 80, 1067.7485966614597 100" stroke="black" fill="none" marker-end="url(#arrowhead)"/>
<path d="M 1079.7485966614597 100 Q 1019.7485966614597 80, 959.7485966614597 100" stroke="black" fill="none" marker-end="url(#arrowhead)"/>
<path d="M 1091.7485966614597 100 Q 1055.7485966614597 80, 1019.7485966614597 100" stroke="black" fill="none" marker-end="url(#arrowhead)"/>
<path d="M 1103.7485966614597 100 Q 1085.7485966614597 80, 1067.7485966614597 100" stroke="black" fill="none" marker-end="url(#arrowhead)"/>
<path d="M 1103.7485966614597 100 Q 1091.7485966614597 80, 1079.7485966614597 100" stroke="black" fill="none" marker-end="url(#arrowhead)"/>
<path d="M 1115.7485966614597 100 Q 1109.7485966614597 80, 1103.7485966614597 100" stroke="black" fill="none" marker-end="url(#arrowhead)"/>
<path d="M 1115.7485966614597 100 Q 1037.7485966614597 80, 959.7485966614597 100" stroke="black" fill="none" marker-end="url(#arrowhead)"/>

<defs>
  <marker id="arrowhead" markerWidth="5" markerHeight="5" 
          refX="2" refY="2" orient="auto" fill="black">
    <path d="M0,0 L0,4 L4,2 z" />
  </marker>
</defs>

<circle cx="50.0" cy="100" r="6" fill="none" stroke="black" stroke-width="2" />
<circle cx="50.0" cy="100" r="3" fill="black" />
<circle cx="62.0" cy="100" r="4" fill="black" />
<circle cx="736.9213998762443" cy="100" r="4" fill="blue" />
<circle cx="757.5037077055372" cy="100" r="4" fill="red" />
<circle cx="770.82959290652" cy="100" r="4" fill="blue" />
<circle cx="879.8125763801199" cy="100" r="4" fill="red" />
<circle cx="899.7485966614597" cy="100" r="4" fill="blue" />
<circle cx="911.7485966614597" cy="100" r="4" fill="red" />
<circle cx="923.7485966614597" cy="100" r="4" fill="blue" />
<circle cx="935.7485966614597" cy="100" r="4" fill="blue" />
<circle cx="947.7485966614597" cy="100" r="4" fill="black" />
<circle cx="959.7485966614597" cy="100" r="4" fill="red" />
<circle cx="971.7485966614597" cy="100" r="4" fill="black" />
<circle cx="983.7485966614597" cy="100" r="4" fill="red" />
<circle cx="995.7485966614597" cy="100" r="4" fill="red" />
<circle cx="1007.7485966614597" cy="100" r="4" fill="black" />
<circle cx="1019.7485966614597" cy="100" r="4" fill="blue" />
<circle cx="1031.7485966614597" cy="100" r="4" fill="red" />
<circle cx="1043.7485966614597" cy="100" r="4" fill="black" />
<circle cx="1055.7485966614597" cy="100" r="4" fill="black" />
<circle cx="1067.7485966614597" cy="100" r="4" fill="black" />
<circle cx="1079.7485966614597" cy="100" r="4" fill="black" />
<circle cx="1091.7485966614597" cy="100" r="4" fill="red" />
<circle cx="1103.7485966614597" cy="100" r="4" fill="black" />
<circle cx="1115.7485966614597" cy="100" r="4" fill="black" />
<text x="50" y="125" fill="gray" style="font-size:12px;">2023-02-07T14:55:34+00:00</text>
<text x="900" y="125" fill="gray" style="font-size:12px;">2025-02-28T06:29:49+00:00</text>
</svg>