<svg xmlns="http://www.w3.org/2000/svg" width="1000" height="400" style="background-color: white; font-family: sans-serif;">
<line x1="50" y1="200" x2="950" y2="200" stroke="gray" stroke-width="1"/>
<path d="M 62.0 200 Q 56.0 180, 50.0 200" stroke="black" fill="none" marker-end="url(#arrowhead)"/>
<path d="M 736.9213998762443 200 Q 393.46069993812216 180, 50.0 200" stroke="black" fill="none" marker-end="url(#arrowhead)"/>
<path d="M 736.9213998762443 200 Q 399.46069993812216 180, 62.0 200" stroke="black" fill="none" marker-end="url(#arrowhead)"/>
<path d="M 757.5037077055372 200 Q 747.2125537908908 180, 736.9213998762443 200" stroke="black" fill="none" marker-end="url(#arrowhead)"/>
<path d="M 770.82959290652 200 Q 753.8754963913822 180, 736.9213998762443 200" stroke="black" fill="none" marker-end="url(#arrowhead)"/>
<path d="M 770.82959290652 200 Q 764.1666503060286 180, 757.5037077055372 200" stroke="black" fill="none" marker-end="url(#arrowhead)"/>
<path d="M 879.8125763801199 200 Q 808.3669881281821 180, 736.9213998762443 200" stroke="black" fill="none" marker-end="url(#arrowhead)"/>
<path d="M 879.8125763801199 200 Q 825.32108464332 180, 770.82959290652 200" stroke="black" fill="none" marker-end="url(#arrowhead)"/>
<path d="M 899.7485966614597 200 Q 818.334998268852 180, 736.9213998762443 200" stroke="black" fill="none" marker-end="url(#arrowhead)"/>
<path d="M 899.7485966614597 200 Q 828.6261521834984 180, 757.5037077055372 200" stroke="black" fill="none" marker-end="url(#arrowhead)"/>
<path d="M 899.7485966614597 200 Q 835.2890947839899 180, 770.82959290652 200" stroke="black" fill="none" marker-end="url(#arrowhead)"/>
<path d="M 899.7485966614597 200 Q 889.7805865207898 180, 879.8125763801199 200" stroke="black" fill="none" marker-end="url(#arrowhead)"/>
<path d="M 911.7485966614597 200 Q 905.7485966614597 180, 899.7485966614597 200" stroke="black" fill="none" marker-end="url(#arrowhead)"/>
<path d="M 923.7485966614597 200 Q 911.7485966614597 180, 899.7485966614597 200" stroke="black" fill="none" marker-end="url(#arrowhead)"/>
<path d="M 923.7485966614597 200 Q 917.7485966614597 180, 911.7485966614597 200" stroke="black" fill="none" marker-end="url(#arrowhead)"/>
<path d="M 935.7485966614597 200 Q 917.7485966614597 180, 899.7485966614597 200" stroke="black" fill="none" marker-end="url(#arrowhead)"/>
<path d="M 935.7485966614597 200 Q 923.7485966614597 180, 911.7485966614597 200" stroke="black" fill="none" marker-end="url(#arrowhead)"/>
<path d="M 935.7485966614597 200 Q 929.7485966614597 180, 923.7485966614597 200" stroke="black" fill="none" marker-end="url(#arrowhead)"/>
<path d="M 947.7485966614597 200 Q 842.334998268852 180, 736.9213998762443 200" stroke="black" fill="none" marker-end="url(#arrowhead)"/>
<path d="M 947.7485966614597 200 Q 941.7485966614597 180, 935.7485966614597 200" stroke="black" fill="none" marker-end="url(#arrowhead)"/>
<path d="M 959.7485966614597 200 Q 953.7485966614597 180, 947.7485966614597 200" stroke="black" fill="none" marker-end="url(#arrowhead)"/>
<path d="M 971.7485966614597 200 Q 965.7485966614597 180, 959.7485966614597 200" stroke="black" fill="none" marker-end="url(#arrowhead)"/>
<path d="M 995.7485966614597 200 Q 989.7485966614597 180, 983.7485966614597 200" stroke="black" fill="none" marker-end="url(#arrowhead)"/>
<path d="M 1007.7485966614597 200 Q 1001.7485966614597 180, 995.7485966614597 200" stroke="black" fill="none" marker-end="url(#arrowhead)"/>
<path d="M 1043.7485966614597 200 Q 1037.7485966614597 180, 1031.7485966614597 200" stroke="black" fill="none" marker-end="url(#arrowhead)"/>
<path d="M 1043.7485966614597 200 Q 1013.7485966614597 180, 983.7485966614597 200" stroke="black" fill="none" marker-end="url(#arrowhead)"/>
<path d="M 1055.7485966614597 200 Q 1043.7485966614597 180, 1031.7485966614597 200" stroke="black" fill="none" marker-end="url(#arrowhead)"/>
<path d="M 1055.7485966614597 200 Q 1049.7485966614597 180, 1043.7485966614597 200" stroke="black" fill="none" marker-end="url(#arrowhead)"/>
<path d="M 1055.7485966614597 200 Q 1019.7485966614597 180, 983.7485966614597 200" stroke="black" fill="none" marker-end="url(#arrowhead)"/>
<path d="M 1055.7485966614597 200 Q 896.334998268852 180, 736.9213998762443 200" stroke="black" fill="none" marker-end="url(#arrowhead)"/>
<path d="M 1067.7485966614597 200 Q 1055.7485966614597 180, 1043.7485966614597 200" stroke="black" fill="none" marker-end="url(#arrowhead)"/>
<path d="M 1067.7485966614597 200 Q 1061.7485966614597 180, 1055.7485966614597 200" stroke="black" fill="none" marker-end="url(#arrowhead)"/>
<path d="M 1067.7485966614597 200 Q 973.7805865207898 180, 879.8125763801199 200" stroke="black" fill="none" marker-end="url(#arrowhead)"/>
<path d="M 1079.7485966614597 200 Q 1073.7485966614597 180, 1067.7485966614597 200" stroke="black" fill="none" marker-end="url(#arrowhead)"/>
<path d="M 1079.7485966614597 200 Q 1019.7485966614597 180, 959.7485966614597 200" stroke="black" fill="none" marker-end="url(#arrowhead)"/>
<path d="M 1091.7485966614597 200 Q 1055.7485966614597 180, 1019.7485966614597 200" stroke="black" fill="none" marker-end="url(#arrowhead)"/>
<path d="M 1103.7485966614597 200 Q 1085.7485966614597 180, 1067.7485966614597 200" stroke="black" fill="none" marker-end="url(#arrowhead)"/>
<path d="M 1103.7485966614597 200 Q 1091.7485966614597 180, 1079.7485966614597 200" stroke="black" fill="none" marker-end="url(#arrowhead)"/>
<path d="M 1115.7485966614597 200 Q 1109.7485966614597 180, 1103.7485966614597 200" stroke="black" fill="none" marker-end="url(#arrowhead)"/>
<path d="M 1115.7485966614597 200 Q 1037.7485966614597 180, 959.7485966614597 200" stroke="black" fill="none" marker-end="url(#arrowhead)"/>

<defs>
  <marker id="arrowhead" markerWidth="5" markerHeight="5" 
          refX="2" refY="2" orient="auto" fill="black">
    <path d="M0,0 L0,4 L4,2 z" />
  </marker>
</defs>

<circle cx="50.0" cy="200" r="6" fill="none" stroke="black" stroke-width="2" />
<circle cx="50.0" cy="200" r="3" fill="black" />
<circle cx="62.0" cy="200" r="4" fill="black" />
<circle cx="736.9213998762443" cy="200" r="4" fill="blue" />
<circle cx="757.5037077055372" cy="200" r="4" fill="red" />
<circle cx="770.82959290652" cy="200" r="4" fill="blue" />
<circle cx="879.8125763801199" cy="200" r="4" fill="red" />
<circle cx="899.7485966614597" cy="200" r="4" fill="blue" />
<circle cx="911.7485966614597" cy="200" r="4" fill="red" />
<circle cx="923.7485966614597" cy="200" r="4" fill="blue" />
<circle cx="935.7485966614597" cy="200" r="4" fill="blue" />
<circle cx="947.7485966614597" cy="200" r="4" fill="black" />
<circle cx="959.7485966614597" cy="200" r="4" fill="red" />
<circle cx="971.7485966614597" cy="200" r="4" fill="black" />
<circle cx="983.7485966614597" cy="200" r="4" fill="red" />
<circle cx="995.7485966614597" cy="200" r="4" fill="red" />
<circle cx="1007.7485966614597" cy="200" r="4" fill="black" />
<circle cx="1019.7485966614597" cy="200" r="4" fill="blue" />
<circle cx="1031.7485966614597" cy="200" r="4" fill="red" />
<circle cx="1043.7485966614597" cy="200" r="4" fill="black" />
<circle cx="1055.7485966614597" cy="200" r="4" fill="black" />
<circle cx="1067.7485966614597" cy="200" r="4" fill="black" />
<circle cx="1079.7485966614597" cy="200" r="4" fill="black" />
<circle cx="1091.7485966614597" cy="200" r="4" fill="red" />
<circle cx="1103.7485966614597" cy="200" r="4" fill="black" />
<circle cx="1115.7485966614597" cy="200" r="4" fill="black" />
<text x="50" y="225" fill="gray" style="font-size:12px;">2023-02-07T14:55:34+00:00</text>
<text x="900" y="225" fill="gray" style="font-size:12px;">2025-02-28T06:29:49+00:00</text>
</svg>