<svg xmlns="http://www.w3.org/2000/svg" width="1000" height="200" style="background-color: white; font-family: sans-serif;">
<line x1="50" y1="100" x2="950" y2="100" stroke="gray" stroke-width="1"/>
<path d="M 62.0 100 Q 56.0 80, 50.0 100" stroke="black" fill="none" marker-end="url(#arrowhead)"/>
<path d="M 74.0 100 Q 68.0 80, 62.0 100" stroke="black" fill="none" marker-end="url(#arrowhead)"/>
<path d="M 278.49529882817274 100 Q 170.24764941408637 80, 62.0 100" stroke="black" fill="none" marker-end="url(#arrowhead)"/>
<path d="M 393.34292867103215 100 Q 335.91911374960245 80, 278.49529882817274 100" stroke="black" fill="none" marker-end="url(#arrowhead)"/>
<path d="M 425.4336249989807 100 Q 409.3882768350064 80, 393.34292867103215 100" stroke="black" fill="none" marker-end="url(#arrowhead)"/>
<path d="M 950.0 100 Q 671.671464335516 80, 393.34292867103215 100" stroke="black" fill="none" marker-end="url(#arrowhead)"/>
<path d="M 950.0 100 Q 816.1951903709563 80, 682.3903807419126 100" stroke="black" fill="none" marker-end="url(#arrowhead)"/>

<defs>
  <marker id="arrowhead" markerWidth="5" markerHeight="5" 
          refX="2" refY="2" orient="auto" fill="black">
    <path d="M0,0 L0,4 L4,2 z" />
  </marker>
</defs>

<circle cx="50.0" cy="100" r="6" fill="none" stroke="blue" stroke-width="2" />
<circle cx="50.0" cy="100" r="3" fill="blue" />
<circle cx="62.0" cy="100" r="4" fill="black" />
<circle cx="74.0" cy="100" r="4" fill="black" />
<circle cx="278.49529882817274" cy="100" r="6" fill="none" stroke="black" stroke-width="2" />
<circle cx="278.49529882817274" cy="100" r="3" fill="black" />
<circle cx="393.34292867103215" cy="100" r="4" fill="blue" />
<circle cx="425.4336249989807" cy="100" r="4" fill="blue" />
<circle cx="682.3903807419126" cy="100" r="6" fill="none" stroke="green" stroke-width="2" />
<circle cx="682.3903807419126" cy="100" r="3" fill="green" />
<circle cx="950.0" cy="100" r="4" fill="black" />
<text x="50" y="125" fill="gray" style="font-size:12px;">2025-02-24T19:52:44+00:00</text>
<text x="900" y="125" fill="gray" style="font-size:12px;">2025-02-27T16:00:22+00:00</text>
</svg>