<svg xmlns="http://www.w3.org/2000/svg" width="1000" height="400" style="background-color: white; font-family: sans-serif;">
<line x1="50" y1="200" x2="950" y2="200" stroke="gray" stroke-width="1"/>
<path d="M 62.0 200 Q 56.0 180, 50.0 200" stroke="black" fill="none" marker-end="url(#arrowhead)"/>
<path d="M 74.0 200 Q 68.0 180, 62.0 200" stroke="black" fill="none" marker-end="url(#arrowhead)"/>
<path d="M 278.49529882817274 200 Q 170.24764941408637 180, 62.0 200" stroke="black" fill="none" marker-end="url(#arrowhead)"/>
<path d="M 393.34292867103215 200 Q 335.91911374960245 180, 278.49529882817274 200" stroke="black" fill="none" marker-end="url(#arrowhead)"/>
<path d="M 425.4336249989807 200 Q 409.3882768350064 180, 393.34292867103215 200" stroke="black" fill="none" marker-end="url(#arrowhead)"/>
<path d="M 950.0 200 Q 671.671464335516 180, 393.34292867103215 200" stroke="black" fill="none" marker-end="url(#arrowhead)"/>
<path d="M 950.0 200 Q 816.1951903709563 180, 682.3903807419126 200" stroke="black" fill="none" marker-end="url(#arrowhead)"/>

<defs>
  <marker id="arrowhead" markerWidth="5" markerHeight="5" 
          refX="2" refY="2" orient="auto" fill="black">
    <path d="M0,0 L0,4 L4,2 z" />
  </marker>
</defs>

<circle cx="50.0" cy="200" r="6" fill="none" stroke="blue" stroke-width="2" />
<circle cx="50.0" cy="200" r="3" fill="blue" />
<circle cx="62.0" cy="200" r="4" fill="black" />
<circle cx="74.0" cy="200" r="4" fill="black" />
<circle cx="278.49529882817274" cy="200" r="6" fill="none" stroke="black" stroke-width="2" />
<circle cx="278.49529882817274" cy="200" r="3" fill="black" />
<circle cx="393.34292867103215" cy="200" r="4" fill="blue" />
<circle cx="425.4336249989807" cy="200" r="4" fill="blue" />
<circle cx="682.3903807419126" cy="200" r="6" fill="none" stroke="green" stroke-width="2" />
<circle cx="682.3903807419126" cy="200" r="3" fill="green" />
<circle cx="950.0" cy="200" r="4" fill="black" />
<text x="50" y="225" fill="gray" style="font-size:12px;">2025-02-24T19:52:44+00:00</text>
<text x="900" y="225" fill="gray" style="font-size:12px;">2025-02-27T16:00:22+00:00</text>
</svg>