<svg xmlns="http://www.w3.org/2000/svg" width="1000" height="200" style="background-color: white; font-family: sans-serif;">
<line x1="50" y1="100" x2="950" y2="100" stroke="gray" stroke-width="1"/>
<path d="M 384.09772501424345 100 Q 217.04886250712173 80, 50.0 100" stroke="black" fill="none" marker-end="url(#arrowhead)"/>
<path d="M 409.42821406330745 100 Q 396.76296953877545 80, 384.09772501424345 100" stroke="black" fill="none" marker-end="url(#arrowhead)"/>
<path d="M 409.42821406330745 100 Q 403.42821406330745 80, 397.42821406330745 100" stroke="black" fill="none" marker-end="url(#arrowhead)"/>
<path d="M 442.2477919255893 100 Q 246.12389596279465 80, 50.0 100" stroke="black" fill="none" marker-end="url(#arrowhead)"/>
<path d="M 442.2477919255893 100 Q 413.1727584699164 80, 384.09772501424345 100" stroke="black" fill="none" marker-end="url(#arrowhead)"/>
<path d="M 442.2477919255893 100 Q 419.8380029944484 80, 397.42821406330745 100" stroke="black" fill="none" marker-end="url(#arrowhead)"/>
<path d="M 442.2477919255893 100 Q 425.8380029944484 80, 409.42821406330745 100" stroke="black" fill="none" marker-end="url(#arrowhead)"/>

<defs>
  <marker id="arrowhead" markerWidth="5" markerHeight="5" 
          refX="2" refY="2" orient="auto" fill="black">
    <path d="M0,0 L0,4 L4,2 z" />
  </marker>
</defs>

<circle cx="50.0" cy="100" r="6" fill="none" stroke="blue" stroke-width="2" />
<circle cx="50.0" cy="100" r="3" fill="blue" />
<circle cx="384.09772501424345" cy="100" r="4" fill="black" />
<circle cx="397.42821406330745" cy="100" r="6" fill="none" stroke="black" stroke-width="2" />
<circle cx="397.42821406330745" cy="100" r="3" fill="black" />
<circle cx="409.42821406330745" cy="100" r="4" fill="black" />
<circle cx="442.2477919255893" cy="100" r="4" fill="green" />
<circle cx="950.0" cy="100" r="6" fill="none" stroke="blue" stroke-width="2" />
<circle cx="950.0" cy="100" r="3" fill="blue" />
<text x="50" y="125" fill="gray" style="font-size:12px;">2024-10-18T02:02:04+00:00</text>
<text x="900" y="125" fill="gray" style="font-size:12px;">2025-02-04T06:37:29+00:00</text>
</svg>