<svg xmlns="http://www.w3.org/2000/svg" width="1000" height="200" style="background-color: white; font-family: sans-serif;">
<line x1="50" y1="100" x2="950" y2="100" stroke="gray" stroke-width="1"/>
<path d="M 62.0 100 Q 56.0 80, 50.0 100" stroke="black" fill="none" marker-end="url(#arrowhead)"/>
<path d="M 74.0 100 Q 68.0 80, 62.0 100" stroke="black" fill="none" marker-end="url(#arrowhead)"/>
<path d="M 74.0 100 Q 62.0 80, 50.0 100" stroke="black" fill="none" marker-end="url(#arrowhead)"/>
<path d="M 86.0 100 Q 74.0 80, 62.0 100" stroke="black" fill="none" marker-end="url(#arrowhead)"/>
<path d="M 86.0 100 Q 68.0 80, 50.0 100" stroke="black" fill="none" marker-end="url(#arrowhead)"/>
<path d="M 98.0 100 Q 86.0 80, 74.0 100" stroke="black" fill="none" marker-end="url(#arrowhead)"/>
<path d="M 98.0 100 Q 74.0 80, 50.0 100" stroke="black" fill="none" marker-end="url(#arrowhead)"/>
<path d="M 110.0 100 Q 92.0 80, 74.0 100" stroke="black" fill="none" marker-end="url(#arrowhead)"/>
<path d="M 110.0 100 Q 104.0 80, 98.0 100" stroke="black" fill="none" marker-end="url(#arrowhead)"/>
<path d="M 110.0 100 Q 80.0 80, 50.0 100" stroke="black" fill="none" marker-end="url(#arrowhead)"/>
<path d="M 122.0 100 Q 104.0 80, 86.0 100" stroke="black" fill="none" marker-end="url(#arrowhead)"/>
<path d="M 134.0 100 Q 104.0 80, 74.0 100" stroke="black" fill="none" marker-end="url(#arrowhead)"/>
<path d="M 134.0 100 Q 92.0 80, 50.0 100" stroke="black" fill="none" marker-end="url(#arrowhead)"/>
<path d="M 146.0 100 Q 140.0 80, 134.0 100" stroke="black" fill="none" marker-end="url(#arrowhead)"/>
<path d="M 158.0 100 Q 152.0 80, 146.0 100" stroke="black" fill="none" marker-end="url(#arrowhead)"/>
<path d="M 170.0 100 Q 152.0 80, 134.0 100" stroke="black" fill="none" marker-end="url(#arrowhead)"/>
<path d="M 170.0 100 Q 158.0 80, 146.0 100" stroke="black" fill="none" marker-end="url(#arrowhead)"/>
<path d="M 182.0 100 Q 134.0 80, 86.0 100" stroke="black" fill="none" marker-end="url(#arrowhead)"/>
<path d="M 182.0 100 Q 152.0 80, 122.0 100" stroke="black" fill="none" marker-end="url(#arrowhead)"/>
<path d="M 194.0 100 Q 182.0 80, 170.0 100" stroke="black" fill="none" marker-end="url(#arrowhead)"/>
<path d="M 206.0 100 Q 170.0 80, 134.0 100" stroke="black" fill="none" marker-end="url(#arrowhead)"/>
<path d="M 218.0 100 Q 176.0 80, 134.0 100" stroke="black" fill="none" marker-end="url(#arrowhead)"/>
<path d="M 218.0 100 Q 212.0 80, 206.0 100" stroke="black" fill="none" marker-end="url(#arrowhead)"/>
<path d="M 230.0 100 Q 218.0 80, 206.0 100" stroke="black" fill="none" marker-end="url(#arrowhead)"/>
<path d="M 242.0 100 Q 200.0 80, 158.0 100" stroke="black" fill="none" marker-end="url(#arrowhead)"/>
<path d="M 254.0 100 Q 236.0 80, 218.0 100" stroke="black" fill="none" marker-end="url(#arrowhead)"/>
<path d="M 266.0 100 Q 260.0 80, 254.0 100" stroke="black" fill="none" marker-end="url(#arrowhead)"/>
<path d="M 278.0 100 Q 272.0 80, 266.0 100" stroke="black" fill="none" marker-end="url(#arrowhead)"/>
<path d="M 290.0 100 Q 248.0 80, 206.0 100" stroke="black" fill="none" marker-end="url(#arrowhead)"/>
<path d="M 302.0 100 Q 290.0 80, 278.0 100" stroke="black" fill="none" marker-end="url(#arrowhead)"/>
<path d="M 314.0 100 Q 290.0 80, 266.0 100" stroke="black" fill="none" marker-end="url(#arrowhead)"/>
<path d="M 326.0 100 Q 302.0 80, 278.0 100" stroke="black" fill="none" marker-end="url(#arrowhead)"/>
<path d="M 326.0 100 Q 314.0 80, 302.0 100" stroke="black" fill="none" marker-end="url(#arrowhead)"/>
<path d="M 338.0 100 Q 332.0 80, 326.0 100" stroke="black" fill="none" marker-end="url(#arrowhead)"/>
<path d="M 350.0 100 Q 344.0 80, 338.0 100" stroke="black" fill="none" marker-end="url(#arrowhead)"/>
<path d="M 362.0 100 Q 356.0 80, 350.0 100" stroke="black" fill="none" marker-end="url(#arrowhead)"/>
<path d="M 374.0 100 Q 356.0 80, 338.0 100" stroke="black" fill="none" marker-end="url(#arrowhead)"/>
<path d="M 386.0 100 Q 374.0 80, 362.0 100" stroke="black" fill="none" marker-end="url(#arrowhead)"/>
<path d="M 398.0 100 Q 380.0 80, 362.0 100" stroke="black" fill="none" marker-end="url(#arrowhead)"/>
<path d="M 410.0 100 Q 392.0 80, 374.0 100" stroke="black" fill="none" marker-end="url(#arrowhead)"/>
<path d="M 422.0 100 Q 416.0 80, 410.0 100" stroke="black" fill="none" marker-end="url(#arrowhead)"/>
<path d="M 422.0 100 Q 398.0 80, 374.0 100" stroke="black" fill="none" marker-end="url(#arrowhead)"/>
<path d="M 434.0 100 Q 428.0 80, 422.0 100" stroke="black" fill="none" marker-end="url(#arrowhead)"/>
<path d="M 446.0 100 Q 440.0 80, 434.0 100" stroke="black" fill="none" marker-end="url(#arrowhead)"/>
<path d="M 458.0 100 Q 452.0 80, 446.0 100" stroke="black" fill="none" marker-end="url(#arrowhead)"/>
<path d="M 470.0 100 Q 428.0 80, 386.0 100" stroke="black" fill="none" marker-end="url(#arrowhead)"/>
<path d="M 470.0 100 Q 464.0 80, 458.0 100" stroke="black" fill="none" marker-end="url(#arrowhead)"/>
<path d="M 494.0 100 Q 488.0 80, 482.0 100" stroke="black" fill="none" marker-end="url(#arrowhead)"/>
<path d="M 518.0 100 Q 512.0 80, 506.0 100" stroke="black" fill="none" marker-end="url(#arrowhead)"/>
<path d="M 663.8598376256062 100 Q 524.9299188128032 80, 386.0 100" stroke="black" fill="none" marker-end="url(#arrowhead)"/>
<path d="M 663.8598376256062 100 Q 590.9299188128032 80, 518.0 100" stroke="black" fill="none" marker-end="url(#arrowhead)"/>
<path d="M 675.8598376256062 100 Q 530.9299188128032 80, 386.0 100" stroke="black" fill="none" marker-end="url(#arrowhead)"/>
<path d="M 675.8598376256062 100 Q 596.9299188128032 80, 518.0 100" stroke="black" fill="none" marker-end="url(#arrowhead)"/>
<path d="M 675.8598376256062 100 Q 669.8598376256062 80, 663.8598376256062 100" stroke="black" fill="none" marker-end="url(#arrowhead)"/>
<path d="M 687.8598376256062 100 Q 681.8598376256062 80, 675.8598376256062 100" stroke="black" fill="none" marker-end="url(#arrowhead)"/>
<path d="M 699.8598376256062 100 Q 693.8598376256062 80, 687.8598376256062 100" stroke="black" fill="none" marker-end="url(#arrowhead)"/>
<path d="M 711.8598376256062 100 Q 705.8598376256062 80, 699.8598376256062 100" stroke="black" fill="none" marker-end="url(#arrowhead)"/>
<path d="M 723.8598376256062 100 Q 711.8598376256062 80, 699.8598376256062 100" stroke="black" fill="none" marker-end="url(#arrowhead)"/>
<path d="M 735.8598376256062 100 Q 536.9299188128032 80, 338.0 100" stroke="black" fill="none" marker-end="url(#arrowhead)"/>
<path d="M 735.8598376256062 100 Q 729.8598376256062 80, 723.8598376256062 100" stroke="black" fill="none" marker-end="url(#arrowhead)"/>
<path d="M 871.3293856109352 100 Q 865.3293856109352 80, 859.3293856109352 100" stroke="black" fill="none" marker-end="url(#arrowhead)"/>
<path d="M 895.3293856109352 100 Q 889.3293856109352 80, 883.3293856109352 100" stroke="black" fill="none" marker-end="url(#arrowhead)"/>
<path d="M 907.3293856109352 100 Q 895.3293856109352 80, 883.3293856109352 100" stroke="black" fill="none" marker-end="url(#arrowhead)"/>
<path d="M 919.3293856109352 100 Q 913.3293856109352 80, 907.3293856109352 100" stroke="black" fill="none" marker-end="url(#arrowhead)"/>
<path d="M 931.3293856109352 100 Q 913.3293856109352 80, 895.3293856109352 100" stroke="black" fill="none" marker-end="url(#arrowhead)"/>
<path d="M 943.3293856109352 100 Q 901.3293856109352 80, 859.3293856109352 100" stroke="black" fill="none" marker-end="url(#arrowhead)"/>
<path d="M 943.3293856109352 100 Q 937.3293856109352 80, 931.3293856109352 100" stroke="black" fill="none" marker-end="url(#arrowhead)"/>
<path d="M 943.3293856109352 100 Q 907.3293856109352 80, 871.3293856109352 100" stroke="black" fill="none" marker-end="url(#arrowhead)"/>
<path d="M 967.3293856109352 100 Q 961.3293856109352 80, 955.3293856109352 100" stroke="black" fill="none" marker-end="url(#arrowhead)"/>
<path d="M 979.3293856109352 100 Q 973.3293856109352 80, 967.3293856109352 100" stroke="black" fill="none" marker-end="url(#arrowhead)"/>
<path d="M 991.3293856109352 100 Q 985.3293856109352 80, 979.3293856109352 100" stroke="black" fill="none" marker-end="url(#arrowhead)"/>
<path d="M 1003.3293856109352 100 Q 997.3293856109352 80, 991.3293856109352 100" stroke="black" fill="none" marker-end="url(#arrowhead)"/>
<path d="M 1015.3293856109352 100 Q 1009.3293856109352 80, 1003.3293856109352 100" stroke="black" fill="none" marker-end="url(#arrowhead)"/>
<path d="M 1027.3293856109353 100 Q 682.6646928054677 80, 338.0 100" stroke="black" fill="none" marker-end="url(#arrowhead)"/>
<path d="M 1027.3293856109353 100 Q 875.5946116182708 80, 723.8598376256062 100" stroke="black" fill="none" marker-end="url(#arrowhead)"/>
<path d="M 1051.3293856109353 100 Q 1009.3293856109353 80, 967.3293856109352 100" stroke="black" fill="none" marker-end="url(#arrowhead)"/>
<path d="M 1051.3293856109353 100 Q 1015.3293856109353 80, 979.3293856109352 100" stroke="black" fill="none" marker-end="url(#arrowhead)"/>
<path d="M 1063.3293856109353 100 Q 1057.3293856109353 80, 1051.3293856109353 100" stroke="black" fill="none" marker-end="url(#arrowhead)"/>
<path d="M 1075.3293856109353 100 Q 1069.3293856109353 80, 1063.3293856109353 100" stroke="black" fill="none" marker-end="url(#arrowhead)"/>

<defs>
  <marker id="arrowhead" markerWidth="5" markerHeight="5" 
          refX="2" refY="2" orient="auto" fill="black">
    <path d="M0,0 L0,4 L4,2 z" />
  </marker>
</defs>

<circle cx="50.0" cy="100" r="6" fill="none" stroke="blue" stroke-width="2" />
<circle cx="50.0" cy="100" r="3" fill="blue" />
<circle cx="62.0" cy="100" r="4" fill="red" />
<circle cx="74.0" cy="100" r="4" fill="red" />
<circle cx="86.0" cy="100" r="6" fill="none" stroke="black" stroke-width="2" />
<circle cx="86.0" cy="100" r="3" fill="black" />
<circle cx="98.0" cy="100" r="6" fill="none" stroke="red" stroke-width="2" />
<circle cx="98.0" cy="100" r="3" fill="red" />
<circle cx="110.0" cy="100" r="4" fill="black" />
<circle cx="122.0" cy="100" r="4" fill="red" />
<circle cx="134.0" cy="100" r="4" fill="black" />
<circle cx="146.0" cy="100" r="4" fill="black" />
<circle cx="158.0" cy="100" r="4" fill="red" />
<circle cx="170.0" cy="100" r="6" fill="none" stroke="black" stroke-width="2" />
<circle cx="170.0" cy="100" r="3" fill="black" />
<circle cx="182.0" cy="100" r="6" fill="none" stroke="black" stroke-width="2" />
<circle cx="182.0" cy="100" r="3" fill="black" />
<circle cx="194.0" cy="100" r="4" fill="black" />
<circle cx="206.0" cy="100" r="4" fill="red" />
<circle cx="218.0" cy="100" r="6" fill="none" stroke="black" stroke-width="2" />
<circle cx="218.0" cy="100" r="3" fill="black" />
<circle cx="230.0" cy="100" r="4" fill="black" />
<circle cx="242.0" cy="100" r="6" fill="none" stroke="black" stroke-width="2" />
<circle cx="242.0" cy="100" r="3" fill="black" />
<circle cx="254.0" cy="100" r="4" fill="black" />
<circle cx="266.0" cy="100" r="4" fill="black" />
<circle cx="278.0" cy="100" r="4" fill="black" />
<circle cx="290.0" cy="100" r="4" fill="black" />
<circle cx="302.0" cy="100" r="4" fill="black" />
<circle cx="314.0" cy="100" r="4" fill="black" />
<circle cx="326.0" cy="100" r="4" fill="black" />
<circle cx="338.0" cy="100" r="4" fill="red" />
<circle cx="350.0" cy="100" r="4" fill="black" />
<circle cx="362.0" cy="100" r="4" fill="black" />
<circle cx="374.0" cy="100" r="4" fill="red" />
<circle cx="386.0" cy="100" r="6" fill="none" stroke="black" stroke-width="2" />
<circle cx="386.0" cy="100" r="3" fill="black" />
<circle cx="398.0" cy="100" r="4" fill="black" />
<circle cx="410.0" cy="100" r="4" fill="black" />
<circle cx="422.0" cy="100" r="4" fill="black" />
<circle cx="434.0" cy="100" r="4" fill="black" />
<circle cx="446.0" cy="100" r="4" fill="black" />
<circle cx="458.0" cy="100" r="6" fill="none" stroke="black" stroke-width="2" />
<circle cx="458.0" cy="100" r="3" fill="black" />
<circle cx="470.0" cy="100" r="4" fill="black" />
<circle cx="482.0" cy="100" r="4" fill="black" />
<circle cx="494.0" cy="100" r="6" fill="none" stroke="black" stroke-width="2" />
<circle cx="494.0" cy="100" r="3" fill="black" />
<circle cx="506.0" cy="100" r="4" fill="blue" />
<circle cx="518.0" cy="100" r="6" fill="none" stroke="red" stroke-width="2" />
<circle cx="518.0" cy="100" r="3" fill="red" />
<circle cx="663.8598376256062" cy="100" r="4" fill="red" />
<circle cx="675.8598376256062" cy="100" r="4" fill="red" />
<circle cx="687.8598376256062" cy="100" r="4" fill="black" />
<circle cx="699.8598376256062" cy="100" r="4" fill="red" />
<circle cx="711.8598376256062" cy="100" r="4" fill="black" />
<circle cx="723.8598376256062" cy="100" r="6" fill="none" stroke="red" stroke-width="2" />
<circle cx="723.8598376256062" cy="100" r="3" fill="red" />
<circle cx="735.8598376256062" cy="100" r="4" fill="black" />
<circle cx="859.3293856109352" cy="100" r="4" fill="blue" />
<circle cx="871.3293856109352" cy="100" r="6" fill="none" stroke="black" stroke-width="2" />
<circle cx="871.3293856109352" cy="100" r="3" fill="black" />
<circle cx="883.3293856109352" cy="100" r="4" fill="blue" />
<circle cx="895.3293856109352" cy="100" r="4" fill="red" />
<circle cx="907.3293856109352" cy="100" r="4" fill="red" />
<circle cx="919.3293856109352" cy="100" r="4" fill="black" />
<circle cx="931.3293856109352" cy="100" r="4" fill="black" />
<circle cx="943.3293856109352" cy="100" r="4" fill="red" />
<circle cx="955.3293856109352" cy="100" r="4" fill="blue" />
<circle cx="967.3293856109352" cy="100" r="4" fill="red" />
<circle cx="979.3293856109352" cy="100" r="4" fill="blue" />
<circle cx="991.3293856109352" cy="100" r="4" fill="blue" />
<circle cx="1003.3293856109352" cy="100" r="4" fill="red" />
<circle cx="1015.3293856109352" cy="100" r="4" fill="green" />
<circle cx="1027.3293856109353" cy="100" r="4" fill="black" />
<circle cx="1039.3293856109353" cy="100" r="4" fill="blue" />
<circle cx="1051.3293856109353" cy="100" r="4" fill="red" />
<circle cx="1063.3293856109353" cy="100" r="4" fill="blue" />
<circle cx="1075.3293856109353" cy="100" r="4" fill="black" />
<circle cx="1087.3293856109353" cy="100" r="4" fill="green" />
<text x="50" y="125" fill="gray" style="font-size:12px;">2024-04-24T12:08:00+00:00</text>
<text x="900" y="125" fill="gray" style="font-size:12px;">2025-02-05T21:52:31+00:00</text>
</svg>