<svg xmlns="http://www.w3.org/2000/svg" width="1000" height="400" style="background-color: white; font-family: sans-serif;">
<line x1="50" y1="200" x2="950" y2="200" stroke="gray" stroke-width="1"/>
<path d="M 66.59080109178694 200 Q 58.29540054589347 180, 50.0 200" stroke="black" fill="none" marker-end="url(#arrowhead)"/>
<path d="M 78.59080109178694 200 Q 72.59080109178694 180, 66.59080109178694 200" stroke="black" fill="none" marker-end="url(#arrowhead)"/>
<path d="M 90.59080109178694 200 Q 84.59080109178694 180, 78.59080109178694 200" stroke="black" fill="none" marker-end="url(#arrowhead)"/>
<path d="M 131.10137552877478 200 Q 98.84608831028086 180, 66.59080109178694 200" stroke="black" fill="none" marker-end="url(#arrowhead)"/>
<path d="M 408.539905362943 200 Q 402.539905362943 180, 396.539905362943 200" stroke="black" fill="none" marker-end="url(#arrowhead)"/>
<path d="M 467.6380317778156 200 Q 432.0889685703793 180, 396.539905362943 200" stroke="black" fill="none" marker-end="url(#arrowhead)"/>
<path d="M 467.6380317778156 200 Q 438.0889685703793 180, 408.539905362943 200" stroke="black" fill="none" marker-end="url(#arrowhead)"/>
<path d="M 820.1892211969227 200 Q 643.9136264873691 180, 467.6380317778156 200" stroke="black" fill="none" marker-end="url(#arrowhead)"/>
<path d="M 950.0 200 Q 885.0946105984614 180, 820.1892211969227 200" stroke="black" fill="none" marker-end="url(#arrowhead)"/>

<defs>
  <marker id="arrowhead" markerWidth="5" markerHeight="5" 
          refX="2" refY="2" orient="auto" fill="black">
    <path d="M0,0 L0,4 L4,2 z" />
  </marker>
</defs>

<circle cx="50.0" cy="200" r="6" fill="none" stroke="blue" stroke-width="2" />
<circle cx="50.0" cy="200" r="3" fill="blue" />
<circle cx="66.59080109178694" cy="200" r="4" fill="red" />
<circle cx="78.59080109178694" cy="200" r="4" fill="black" />
<circle cx="90.59080109178694" cy="200" r="4" fill="black" />
<circle cx="131.10137552877478" cy="200" r="6" fill="none" stroke="blue" stroke-width="2" />
<circle cx="131.10137552877478" cy="200" r="3" fill="blue" />
<circle cx="396.539905362943" cy="200" r="4" fill="red" />
<circle cx="408.539905362943" cy="200" r="4" fill="red" />
<circle cx="467.6380317778156" cy="200" r="6" fill="none" stroke="blue" stroke-width="2" />
<circle cx="467.6380317778156" cy="200" r="3" fill="blue" />
<circle cx="820.1892211969227" cy="200" r="4" fill="red" />
<circle cx="950.0" cy="200" r="4" fill="blue" />
<text x="50" y="225" fill="gray" style="font-size:12px;">2025-02-13T07:15:01+00:00</text>
<text x="900" y="225" fill="gray" style="font-size:12px;">2025-02-24T05:42:54+00:00</text>
</svg>