<svg xmlns="http://www.w3.org/2000/svg" width="1000" height="200" style="background-color: white; font-family: sans-serif;">
<line x1="50" y1="100" x2="950" y2="100" stroke="gray" stroke-width="1"/>
<path d="M 66.59080109178694 100 Q 58.29540054589347 80, 50.0 100" stroke="black" fill="none" marker-end="url(#arrowhead)"/>
<path d="M 78.59080109178694 100 Q 72.59080109178694 80, 66.59080109178694 100" stroke="black" fill="none" marker-end="url(#arrowhead)"/>
<path d="M 90.59080109178694 100 Q 84.59080109178694 80, 78.59080109178694 100" stroke="black" fill="none" marker-end="url(#arrowhead)"/>
<path d="M 131.10137552877478 100 Q 98.84608831028086 80, 66.59080109178694 100" stroke="black" fill="none" marker-end="url(#arrowhead)"/>
<path d="M 408.539905362943 100 Q 402.539905362943 80, 396.539905362943 100" stroke="black" fill="none" marker-end="url(#arrowhead)"/>
<path d="M 467.6380317778156 100 Q 432.0889685703793 80, 396.539905362943 100" stroke="black" fill="none" marker-end="url(#arrowhead)"/>
<path d="M 467.6380317778156 100 Q 438.0889685703793 80, 408.539905362943 100" stroke="black" fill="none" marker-end="url(#arrowhead)"/>
<path d="M 820.1892211969227 100 Q 643.9136264873691 80, 467.6380317778156 100" stroke="black" fill="none" marker-end="url(#arrowhead)"/>
<path d="M 950.0 100 Q 885.0946105984614 80, 820.1892211969227 100" stroke="black" fill="none" marker-end="url(#arrowhead)"/>

<defs>
  <marker id="arrowhead" markerWidth="5" markerHeight="5" 
          refX="2" refY="2" orient="auto" fill="black">
    <path d="M0,0 L0,4 L4,2 z" />
  </marker>
</defs>

<circle cx="50.0" cy="100" r="6" fill="none" stroke="blue" stroke-width="2" />
<circle cx="50.0" cy="100" r="3" fill="blue" />
<circle cx="66.59080109178694" cy="100" r="4" fill="red" />
<circle cx="78.59080109178694" cy="100" r="4" fill="black" />
<circle cx="90.59080109178694" cy="100" r="4" fill="black" />
<circle cx="131.10137552877478" cy="100" r="6" fill="none" stroke="blue" stroke-width="2" />
<circle cx="131.10137552877478" cy="100" r="3" fill="blue" />
<circle cx="396.539905362943" cy="100" r="4" fill="red" />
<circle cx="408.539905362943" cy="100" r="4" fill="red" />
<circle cx="467.6380317778156" cy="100" r="6" fill="none" stroke="blue" stroke-width="2" />
<circle cx="467.6380317778156" cy="100" r="3" fill="blue" />
<circle cx="820.1892211969227" cy="100" r="4" fill="red" />
<circle cx="950.0" cy="100" r="4" fill="blue" />
<text x="50" y="125" fill="gray" style="font-size:12px;">2025-02-13T07:15:01+00:00</text>
<text x="900" y="125" fill="gray" style="font-size:12px;">2025-02-24T05:42:54+00:00</text>
</svg>