<svg xmlns="http://www.w3.org/2000/svg" width="1000" height="200" style="background-color: white; font-family: sans-serif;">
<line x1="50" y1="100" x2="950" y2="100" stroke="gray" stroke-width="1"/>
<path d="M 62.0 100 Q 56.0 80, 50.0 100" stroke="black" fill="none" marker-end="url(#arrowhead)"/>
<path d="M 119.66812916615145 100 Q 84.83406458307573 80, 50.0 100" stroke="black" fill="none" marker-end="url(#arrowhead)"/>
<path d="M 131.66812916615146 100 Q 96.83406458307573 80, 62.0 100" stroke="black" fill="none" marker-end="url(#arrowhead)"/>
<path d="M 197.428491855189 100 Q 158.54831051067023 80, 119.66812916615145 100" stroke="black" fill="none" marker-end="url(#arrowhead)"/>
<path d="M 227.79017587634021 100 Q 173.72915252124582 80, 119.66812916615145 100" stroke="black" fill="none" marker-end="url(#arrowhead)"/>
<path d="M 239.79017587634021 100 Q 233.79017587634021 80, 227.79017587634021 100" stroke="black" fill="none" marker-end="url(#arrowhead)"/>
<path d="M 251.79017587634021 100 Q 224.6093338657646 80, 197.428491855189 100" stroke="black" fill="none" marker-end="url(#arrowhead)"/>
<path d="M 263.7901758763402 100 Q 245.7901758763402 80, 227.79017587634021 100" stroke="black" fill="none" marker-end="url(#arrowhead)"/>
<path d="M 336.32056650728737 100 Q 324.32056650728737 80, 312.32056650728737 100" stroke="black" fill="none" marker-end="url(#arrowhead)"/>
<path d="M 362.7866610786425 100 Q 356.7866610786425 80, 350.7866610786425 100" stroke="black" fill="none" marker-end="url(#arrowhead)"/>
<path d="M 374.7866610786425 100 Q 362.7866610786425 80, 350.7866610786425 100" stroke="black" fill="none" marker-end="url(#arrowhead)"/>
<path d="M 387.08085123280864 100 Q 368.9337561557256 80, 350.7866610786425 100" stroke="black" fill="none" marker-end="url(#arrowhead)"/>
<path d="M 387.08085123280864 100 Q 380.9337561557256 80, 374.7866610786425 100" stroke="black" fill="none" marker-end="url(#arrowhead)"/>
<path d="M 399.08085123280864 100 Q 380.9337561557256 80, 362.7866610786425 100" stroke="black" fill="none" marker-end="url(#arrowhead)"/>
<path d="M 411.08085123280864 100 Q 405.08085123280864 80, 399.08085123280864 100" stroke="black" fill="none" marker-end="url(#arrowhead)"/>
<path d="M 435.08085123280864 100 Q 423.08085123280864 80, 411.08085123280864 100" stroke="black" fill="none" marker-end="url(#arrowhead)"/>
<path d="M 447.08085123280864 100 Q 435.08085123280864 80, 423.08085123280864 100" stroke="black" fill="none" marker-end="url(#arrowhead)"/>
<path d="M 459.08085123280864 100 Q 435.08085123280864 80, 411.08085123280864 100" stroke="black" fill="none" marker-end="url(#arrowhead)"/>
<path d="M 459.08085123280864 100 Q 453.08085123280864 80, 447.08085123280864 100" stroke="black" fill="none" marker-end="url(#arrowhead)"/>
<path d="M 471.08085123280864 100 Q 441.08085123280864 80, 411.08085123280864 100" stroke="black" fill="none" marker-end="url(#arrowhead)"/>
<path d="M 483.08085123280864 100 Q 465.08085123280864 80, 447.08085123280864 100" stroke="black" fill="none" marker-end="url(#arrowhead)"/>
<path d="M 495.08085123280864 100 Q 477.08085123280864 80, 459.08085123280864 100" stroke="black" fill="none" marker-end="url(#arrowhead)"/>
<path d="M 507.08085123280864 100 Q 459.08085123280864 80, 411.08085123280864 100" stroke="black" fill="none" marker-end="url(#arrowhead)"/>
<path d="M 507.08085123280864 100 Q 434.9337561557256 80, 362.7866610786425 100" stroke="black" fill="none" marker-end="url(#arrowhead)"/>
<path d="M 507.08085123280864 100 Q 453.08085123280864 80, 399.08085123280864 100" stroke="black" fill="none" marker-end="url(#arrowhead)"/>
<path d="M 519.0808512328086 100 Q 513.0808512328086 80, 507.08085123280864 100" stroke="black" fill="none" marker-end="url(#arrowhead)"/>
<path d="M 531.0808512328086 100 Q 519.0808512328086 80, 507.08085123280864 100" stroke="black" fill="none" marker-end="url(#arrowhead)"/>
<path d="M 543.0808512328086 100 Q 525.0808512328086 80, 507.08085123280864 100" stroke="black" fill="none" marker-end="url(#arrowhead)"/>
<path d="M 543.0808512328086 100 Q 531.0808512328086 80, 519.0808512328086 100" stroke="black" fill="none" marker-end="url(#arrowhead)"/>
<path d="M 555.0808512328086 100 Q 531.0808512328086 80, 507.08085123280864 100" stroke="black" fill="none" marker-end="url(#arrowhead)"/>
<path d="M 555.0808512328086 100 Q 543.0808512328086 80, 531.0808512328086 100" stroke="black" fill="none" marker-end="url(#arrowhead)"/>
<path d="M 591.0808512328086 100 Q 567.0808512328086 80, 543.0808512328086 100" stroke="black" fill="none" marker-end="url(#arrowhead)"/>
<path d="M 591.0808512328086 100 Q 549.0808512328086 80, 507.08085123280864 100" stroke="black" fill="none" marker-end="url(#arrowhead)"/>
<path d="M 591.0808512328086 100 Q 555.0808512328086 80, 519.0808512328086 100" stroke="black" fill="none" marker-end="url(#arrowhead)"/>
<path d="M 617.2858301194145 100 Q 604.1833406761116 80, 591.0808512328086 100" stroke="black" fill="none" marker-end="url(#arrowhead)"/>
<path d="M 629.2858301194145 100 Q 598.1833406761116 80, 567.0808512328086 100" stroke="black" fill="none" marker-end="url(#arrowhead)"/>
<path d="M 641.2858301194145 100 Q 610.1833406761116 80, 579.0808512328086 100" stroke="black" fill="none" marker-end="url(#arrowhead)"/>
<path d="M 677.2858301194145 100 Q 647.2858301194145 80, 617.2858301194145 100" stroke="black" fill="none" marker-end="url(#arrowhead)"/>
<path d="M 689.2858301194145 100 Q 653.2858301194145 80, 617.2858301194145 100" stroke="black" fill="none" marker-end="url(#arrowhead)"/>
<path d="M 701.2858301194145 100 Q 659.2858301194145 80, 617.2858301194145 100" stroke="black" fill="none" marker-end="url(#arrowhead)"/>
<path d="M 713.2858301194145 100 Q 707.2858301194145 80, 701.2858301194145 100" stroke="black" fill="none" marker-end="url(#arrowhead)"/>
<path d="M 725.2858301194145 100 Q 689.2858301194145 80, 653.2858301194145 100" stroke="black" fill="none" marker-end="url(#arrowhead)"/>
<path d="M 737.2858301194145 100 Q 695.2858301194145 80, 653.2858301194145 100" stroke="black" fill="none" marker-end="url(#arrowhead)"/>
<path d="M 737.2858301194145 100 Q 701.2858301194145 80, 665.2858301194145 100" stroke="black" fill="none" marker-end="url(#arrowhead)"/>
<path d="M 749.2858301194145 100 Q 725.2858301194145 80, 701.2858301194145 100" stroke="black" fill="none" marker-end="url(#arrowhead)"/>
<path d="M 749.2858301194145 100 Q 683.2858301194145 80, 617.2858301194145 100" stroke="black" fill="none" marker-end="url(#arrowhead)"/>
<path d="M 761.2858301194145 100 Q 731.2858301194145 80, 701.2858301194145 100" stroke="black" fill="none" marker-end="url(#arrowhead)"/>
<path d="M 761.2858301194145 100 Q 737.2858301194145 80, 713.2858301194145 100" stroke="black" fill="none" marker-end="url(#arrowhead)"/>
<path d="M 773.2858301194145 100 Q 731.2858301194145 80, 689.2858301194145 100" stroke="black" fill="none" marker-end="url(#arrowhead)"/>
<path d="M 785.2858301194145 100 Q 731.2858301194145 80, 677.2858301194145 100" stroke="black" fill="none" marker-end="url(#arrowhead)"/>
<path d="M 797.2858301194145 100 Q 779.2858301194145 80, 761.2858301194145 100" stroke="black" fill="none" marker-end="url(#arrowhead)"/>
<path d="M 821.2858301194145 100 Q 815.2858301194145 80, 809.2858301194145 100" stroke="black" fill="none" marker-end="url(#arrowhead)"/>
<path d="M 833.2858301194145 100 Q 809.2858301194145 80, 785.2858301194145 100" stroke="black" fill="none" marker-end="url(#arrowhead)"/>
<path d="M 845.2858301194145 100 Q 731.2858301194145 80, 617.2858301194145 100" stroke="black" fill="none" marker-end="url(#arrowhead)"/>
<path d="M 845.2858301194145 100 Q 773.2858301194145 80, 701.2858301194145 100" stroke="black" fill="none" marker-end="url(#arrowhead)"/>
<path d="M 845.2858301194145 100 Q 797.2858301194145 80, 749.2858301194145 100" stroke="black" fill="none" marker-end="url(#arrowhead)"/>
<path d="M 857.2858301194145 100 Q 845.2858301194145 80, 833.2858301194145 100" stroke="black" fill="none" marker-end="url(#arrowhead)"/>
<path d="M 857.2858301194145 100 Q 821.2858301194145 80, 785.2858301194145 100" stroke="black" fill="none" marker-end="url(#arrowhead)"/>
<path d="M 869.2858301194145 100 Q 815.2858301194145 80, 761.2858301194145 100" stroke="black" fill="none" marker-end="url(#arrowhead)"/>
<path d="M 869.2858301194145 100 Q 785.2858301194145 80, 701.2858301194145 100" stroke="black" fill="none" marker-end="url(#arrowhead)"/>
<path d="M 869.2858301194145 100 Q 791.2858301194145 80, 713.2858301194145 100" stroke="black" fill="none" marker-end="url(#arrowhead)"/>
<path d="M 869.2858301194145 100 Q 833.2858301194145 80, 797.2858301194145 100" stroke="black" fill="none" marker-end="url(#arrowhead)"/>
<path d="M 881.2858301194145 100 Q 590.803198313351 80, 300.32056650728737 100" stroke="black" fill="none" marker-end="url(#arrowhead)"/>
<path d="M 881.2858301194145 100 Q 845.2858301194145 80, 809.2858301194145 100" stroke="black" fill="none" marker-end="url(#arrowhead)"/>
<path d="M 893.2858301194145 100 Q 596.803198313351 80, 300.32056650728737 100" stroke="black" fill="none" marker-end="url(#arrowhead)"/>
<path d="M 893.2858301194145 100 Q 857.2858301194145 80, 821.2858301194145 100" stroke="black" fill="none" marker-end="url(#arrowhead)"/>
<path d="M 917.2858301194145 100 Q 803.2858301194145 80, 689.2858301194145 100" stroke="black" fill="none" marker-end="url(#arrowhead)"/>
<path d="M 917.2858301194145 100 Q 845.2858301194145 80, 773.2858301194145 100" stroke="black" fill="none" marker-end="url(#arrowhead)"/>
<path d="M 929.2858301194145 100 Q 893.2858301194145 80, 857.2858301194145 100" stroke="black" fill="none" marker-end="url(#arrowhead)"/>
<path d="M 941.2858301194145 100 Q 779.2858301194145 80, 617.2858301194145 100" stroke="black" fill="none" marker-end="url(#arrowhead)"/>
<path d="M 941.2858301194145 100 Q 821.2858301194145 80, 701.2858301194145 100" stroke="black" fill="none" marker-end="url(#arrowhead)"/>
<path d="M 941.2858301194145 100 Q 893.2858301194145 80, 845.2858301194145 100" stroke="black" fill="none" marker-end="url(#arrowhead)"/>
<path d="M 941.2858301194145 100 Q 845.2858301194145 80, 749.2858301194145 100" stroke="black" fill="none" marker-end="url(#arrowhead)"/>
<path d="M 965.2858301194145 100 Q 935.2858301194145 80, 905.2858301194145 100" stroke="black" fill="none" marker-end="url(#arrowhead)"/>
<path d="M 977.2858301194145 100 Q 935.2858301194145 80, 893.2858301194145 100" stroke="black" fill="none" marker-end="url(#arrowhead)"/>
<path d="M 1001.2858301194145 100 Q 953.2858301194145 80, 905.2858301194145 100" stroke="black" fill="none" marker-end="url(#arrowhead)"/>
<path d="M 1013.2858301194145 100 Q 959.2858301194145 80, 905.2858301194145 100" stroke="black" fill="none" marker-end="url(#arrowhead)"/>
<path d="M 1013.2858301194145 100 Q 1007.2858301194145 80, 1001.2858301194145 100" stroke="black" fill="none" marker-end="url(#arrowhead)"/>
<path d="M 1013.2858301194145 100 Q 662.803198313351 80, 312.32056650728737 100" stroke="black" fill="none" marker-end="url(#arrowhead)"/>
<path d="M 1037.2858301194146 100 Q 1001.2858301194146 80, 965.2858301194145 100" stroke="black" fill="none" marker-end="url(#arrowhead)"/>
<path d="M 1037.2858301194146 100 Q 971.2858301194146 80, 905.2858301194145 100" stroke="black" fill="none" marker-end="url(#arrowhead)"/>
<path d="M 1049.2858301194146 100 Q 971.2858301194146 80, 893.2858301194145 100" stroke="black" fill="none" marker-end="url(#arrowhead)"/>
<path d="M 1049.2858301194146 100 Q 1013.2858301194146 80, 977.2858301194145 100" stroke="black" fill="none" marker-end="url(#arrowhead)"/>
<path d="M 1061.2858301194146 100 Q 814.1833406761116 80, 567.0808512328086 100" stroke="black" fill="none" marker-end="url(#arrowhead)"/>
<path d="M 1061.2858301194146 100 Q 1025.2858301194146 80, 989.2858301194145 100" stroke="black" fill="none" marker-end="url(#arrowhead)"/>
<path d="M 1061.2858301194146 100 Q 680.803198313351 80, 300.32056650728737 100" stroke="black" fill="none" marker-end="url(#arrowhead)"/>
<path d="M 1061.2858301194146 100 Q 1007.2858301194146 80, 953.2858301194145 100" stroke="black" fill="none" marker-end="url(#arrowhead)"/>
<path d="M 1073.2858301194146 100 Q 1013.2858301194146 80, 953.2858301194145 100" stroke="black" fill="none" marker-end="url(#arrowhead)"/>
<path d="M 1085.2858301194146 100 Q 1079.2858301194146 80, 1073.2858301194146 100" stroke="black" fill="none" marker-end="url(#arrowhead)"/>
<path d="M 1085.2858301194146 100 Q 1019.2858301194146 80, 953.2858301194145 100" stroke="black" fill="none" marker-end="url(#arrowhead)"/>
<path d="M 1097.2858301194146 100 Q 1061.2858301194146 80, 1025.2858301194146 100" stroke="black" fill="none" marker-end="url(#arrowhead)"/>
<path d="M 1109.2858301194146 100 Q 1103.2858301194146 80, 1097.2858301194146 100" stroke="black" fill="none" marker-end="url(#arrowhead)"/>
<path d="M 1109.2858301194146 100 Q 1067.2858301194146 80, 1025.2858301194146 100" stroke="black" fill="none" marker-end="url(#arrowhead)"/>
<path d="M 1121.2858301194146 100 Q 1037.2858301194146 80, 953.2858301194145 100" stroke="black" fill="none" marker-end="url(#arrowhead)"/>
<path d="M 1121.2858301194146 100 Q 1097.2858301194146 80, 1073.2858301194146 100" stroke="black" fill="none" marker-end="url(#arrowhead)"/>
<path d="M 1121.2858301194146 100 Q 1103.2858301194146 80, 1085.2858301194146 100" stroke="black" fill="none" marker-end="url(#arrowhead)"/>
<path d="M 1133.2858301194146 100 Q 1121.2858301194146 80, 1109.2858301194146 100" stroke="black" fill="none" marker-end="url(#arrowhead)"/>
<path d="M 1145.2858301194146 100 Q 1085.2858301194146 80, 1025.2858301194146 100" stroke="black" fill="none" marker-end="url(#arrowhead)"/>
<path d="M 1157.2858301194146 100 Q 1139.2858301194146 80, 1121.2858301194146 100" stroke="black" fill="none" marker-end="url(#arrowhead)"/>
<path d="M 1169.2858301194146 100 Q 1097.2858301194146 80, 1025.2858301194146 100" stroke="black" fill="none" marker-end="url(#arrowhead)"/>
<path d="M 1193.2858301194146 100 Q 1169.2858301194146 80, 1145.2858301194146 100" stroke="black" fill="none" marker-end="url(#arrowhead)"/>
<path d="M 1193.2858301194146 100 Q 1109.2858301194146 80, 1025.2858301194146 100" stroke="black" fill="none" marker-end="url(#arrowhead)"/>
<path d="M 1205.2858301194146 100 Q 1181.2858301194146 80, 1157.2858301194146 100" stroke="black" fill="none" marker-end="url(#arrowhead)"/>
<path d="M 1217.2858301194146 100 Q 1193.2858301194146 80, 1169.2858301194146 100" stroke="black" fill="none" marker-end="url(#arrowhead)"/>
<path d="M 1217.2858301194146 100 Q 1199.2858301194146 80, 1181.2858301194146 100" stroke="black" fill="none" marker-end="url(#arrowhead)"/>
<path d="M 1217.2858301194146 100 Q 941.2858301194146 80, 665.2858301194145 100" stroke="black" fill="none" marker-end="url(#arrowhead)"/>
<path d="M 1229.2858301194146 100 Q 1223.2858301194146 80, 1217.2858301194146 100" stroke="black" fill="none" marker-end="url(#arrowhead)"/>
<path d="M 1241.2858301194146 100 Q 1229.2858301194146 80, 1217.2858301194146 100" stroke="black" fill="none" marker-end="url(#arrowhead)"/>
<path d="M 1253.2858301194146 100 Q 1247.2858301194146 80, 1241.2858301194146 100" stroke="black" fill="none" marker-end="url(#arrowhead)"/>
<path d="M 1253.2858301194146 100 Q 1235.2858301194146 80, 1217.2858301194146 100" stroke="black" fill="none" marker-end="url(#arrowhead)"/>
<path d="M 1265.2858301194146 100 Q 1247.2858301194146 80, 1229.2858301194146 100" stroke="black" fill="none" marker-end="url(#arrowhead)"/>
<path d="M 1265.2858301194146 100 Q 1241.2858301194146 80, 1217.2858301194146 100" stroke="black" fill="none" marker-end="url(#arrowhead)"/>
<path d="M 1277.2858301194146 100 Q 1271.2858301194146 80, 1265.2858301194146 100" stroke="black" fill="none" marker-end="url(#arrowhead)"/>
<path d="M 1289.2858301194146 100 Q 1253.2858301194146 80, 1217.2858301194146 100" stroke="black" fill="none" marker-end="url(#arrowhead)"/>
<path d="M 1301.2858301194146 100 Q 1271.2858301194146 80, 1241.2858301194146 100" stroke="black" fill="none" marker-end="url(#arrowhead)"/>
<path d="M 1301.2858301194146 100 Q 1277.2858301194146 80, 1253.2858301194146 100" stroke="black" fill="none" marker-end="url(#arrowhead)"/>
<path d="M 1301.2858301194146 100 Q 1259.2858301194146 80, 1217.2858301194146 100" stroke="black" fill="none" marker-end="url(#arrowhead)"/>
<path d="M 1313.2858301194146 100 Q 1307.2858301194146 80, 1301.2858301194146 100" stroke="black" fill="none" marker-end="url(#arrowhead)"/>
<path d="M 1325.2858301194146 100 Q 1313.2858301194146 80, 1301.2858301194146 100" stroke="black" fill="none" marker-end="url(#arrowhead)"/>
<path d="M 1337.2858301194146 100 Q 1319.2858301194146 80, 1301.2858301194146 100" stroke="black" fill="none" marker-end="url(#arrowhead)"/>
<path d="M 1337.2858301194146 100 Q 1325.2858301194146 80, 1313.2858301194146 100" stroke="black" fill="none" marker-end="url(#arrowhead)"/>
<path d="M 1349.2858301194146 100 Q 1337.2858301194146 80, 1325.2858301194146 100" stroke="black" fill="none" marker-end="url(#arrowhead)"/>
<path d="M 1361.2858301194146 100 Q 1349.2858301194146 80, 1337.2858301194146 100" stroke="black" fill="none" marker-end="url(#arrowhead)"/>
<path d="M 1373.2858301194146 100 Q 1355.2858301194146 80, 1337.2858301194146 100" stroke="black" fill="none" marker-end="url(#arrowhead)"/>
<path d="M 1385.2858301194146 100 Q 1361.2858301194146 80, 1337.2858301194146 100" stroke="black" fill="none" marker-end="url(#arrowhead)"/>
<path d="M 1385.2858301194146 100 Q 1373.2858301194146 80, 1361.2858301194146 100" stroke="black" fill="none" marker-end="url(#arrowhead)"/>
<path d="M 1397.2858301194146 100 Q 1385.2858301194146 80, 1373.2858301194146 100" stroke="black" fill="none" marker-end="url(#arrowhead)"/>
<path d="M 1421.2858301194146 100 Q 1415.2858301194146 80, 1409.2858301194146 100" stroke="black" fill="none" marker-end="url(#arrowhead)"/>
<path d="M 1433.2858301194146 100 Q 1421.2858301194146 80, 1409.2858301194146 100" stroke="black" fill="none" marker-end="url(#arrowhead)"/>
<path d="M 1433.2858301194146 100 Q 1427.2858301194146 80, 1421.2858301194146 100" stroke="black" fill="none" marker-end="url(#arrowhead)"/>
<path d="M 1445.2858301194146 100 Q 1439.2858301194146 80, 1433.2858301194146 100" stroke="black" fill="none" marker-end="url(#arrowhead)"/>
<path d="M 1457.2858301194146 100 Q 1451.2858301194146 80, 1445.2858301194146 100" stroke="black" fill="none" marker-end="url(#arrowhead)"/>
<path d="M 1457.2858301194146 100 Q 1205.2858301194146 80, 953.2858301194145 100" stroke="black" fill="none" marker-end="url(#arrowhead)"/>
<path d="M 1469.2858301194146 100 Q 1463.2858301194146 80, 1457.2858301194146 100" stroke="black" fill="none" marker-end="url(#arrowhead)"/>
<path d="M 1481.2858301194146 100 Q 1475.2858301194146 80, 1469.2858301194146 100" stroke="black" fill="none" marker-end="url(#arrowhead)"/>
<path d="M 1493.2858301194146 100 Q 1463.2858301194146 80, 1433.2858301194146 100" stroke="black" fill="none" marker-end="url(#arrowhead)"/>
<path d="M 1493.2858301194146 100 Q 1481.2858301194146 80, 1469.2858301194146 100" stroke="black" fill="none" marker-end="url(#arrowhead)"/>
<path d="M 1505.2858301194146 100 Q 1499.2858301194146 80, 1493.2858301194146 100" stroke="black" fill="none" marker-end="url(#arrowhead)"/>
<path d="M 1517.2858301194146 100 Q 1511.2858301194146 80, 1505.2858301194146 100" stroke="black" fill="none" marker-end="url(#arrowhead)"/>
<path d="M 1529.2858301194146 100 Q 1523.2858301194146 80, 1517.2858301194146 100" stroke="black" fill="none" marker-end="url(#arrowhead)"/>
<path d="M 1541.2858301194146 100 Q 1529.2858301194146 80, 1517.2858301194146 100" stroke="black" fill="none" marker-end="url(#arrowhead)"/>
<path d="M 1553.2858301194146 100 Q 1547.2858301194146 80, 1541.2858301194146 100" stroke="black" fill="none" marker-end="url(#arrowhead)"/>
<path d="M 1565.2858301194146 100 Q 1559.2858301194146 80, 1553.2858301194146 100" stroke="black" fill="none" marker-end="url(#arrowhead)"/>
<path d="M 1577.2858301194146 100 Q 1571.2858301194146 80, 1565.2858301194146 100" stroke="black" fill="none" marker-end="url(#arrowhead)"/>
<path d="M 1589.2858301194146 100 Q 1583.2858301194146 80, 1577.2858301194146 100" stroke="black" fill="none" marker-end="url(#arrowhead)"/>
<path d="M 1601.2858301194146 100 Q 1589.2858301194146 80, 1577.2858301194146 100" stroke="black" fill="none" marker-end="url(#arrowhead)"/>
<path d="M 1613.2858301194146 100 Q 1595.2858301194146 80, 1577.2858301194146 100" stroke="black" fill="none" marker-end="url(#arrowhead)"/>
<path d="M 1625.2858301194146 100 Q 1619.2858301194146 80, 1613.2858301194146 100" stroke="black" fill="none" marker-end="url(#arrowhead)"/>
<path d="M 1637.2858301194146 100 Q 1631.2858301194146 80, 1625.2858301194146 100" stroke="black" fill="none" marker-end="url(#arrowhead)"/>
<path d="M 1649.2858301194146 100 Q 1643.2858301194146 80, 1637.2858301194146 100" stroke="black" fill="none" marker-end="url(#arrowhead)"/>
<path d="M 1661.2858301194146 100 Q 1655.2858301194146 80, 1649.2858301194146 100" stroke="black" fill="none" marker-end="url(#arrowhead)"/>
<path d="M 1673.2858301194146 100 Q 1667.2858301194146 80, 1661.2858301194146 100" stroke="black" fill="none" marker-end="url(#arrowhead)"/>
<path d="M 1685.2858301194146 100 Q 1679.2858301194146 80, 1673.2858301194146 100" stroke="black" fill="none" marker-end="url(#arrowhead)"/>
<path d="M 1697.2858301194146 100 Q 1691.2858301194146 80, 1685.2858301194146 100" stroke="black" fill="none" marker-end="url(#arrowhead)"/>

<defs>
  <marker id="arrowhead" markerWidth="5" markerHeight="5" 
          refX="2" refY="2" orient="auto" fill="black">
    <path d="M0,0 L0,4 L4,2 z" />
  </marker>
</defs>

<circle cx="50.0" cy="100" r="6" fill="none" stroke="blue" stroke-width="2" />
<circle cx="50.0" cy="100" r="3" fill="blue" />
<circle cx="62.0" cy="100" r="4" fill="black" />
<circle cx="119.66812916615145" cy="100" r="6" fill="none" stroke="blue" stroke-width="2" />
<circle cx="119.66812916615145" cy="100" r="3" fill="blue" />
<circle cx="131.66812916615146" cy="100" r="6" fill="none" stroke="black" stroke-width="2" />
<circle cx="131.66812916615146" cy="100" r="3" fill="black" />
<circle cx="197.428491855189" cy="100" r="4" fill="green" />
<circle cx="227.79017587634021" cy="100" r="4" fill="red" />
<circle cx="239.79017587634021" cy="100" r="6" fill="none" stroke="green" stroke-width="2" />
<circle cx="239.79017587634021" cy="100" r="3" fill="green" />
<circle cx="251.79017587634021" cy="100" r="6" fill="none" stroke="black" stroke-width="2" />
<circle cx="251.79017587634021" cy="100" r="3" fill="black" />
<circle cx="263.7901758763402" cy="100" r="6" fill="none" stroke="red" stroke-width="2" />
<circle cx="263.7901758763402" cy="100" r="3" fill="red" />
<circle cx="300.32056650728737" cy="100" r="4" fill="red" />
<circle cx="312.32056650728737" cy="100" r="4" fill="black" />
<circle cx="324.32056650728737" cy="100" r="4" fill="black" />
<circle cx="336.32056650728737" cy="100" r="6" fill="none" stroke="black" stroke-width="2" />
<circle cx="336.32056650728737" cy="100" r="3" fill="black" />
<circle cx="350.7866610786425" cy="100" r="6" fill="none" stroke="blue" stroke-width="2" />
<circle cx="350.7866610786425" cy="100" r="3" fill="blue" />
<circle cx="362.7866610786425" cy="100" r="4" fill="red" />
<circle cx="374.7866610786425" cy="100" r="4" fill="red" />
<circle cx="387.08085123280864" cy="100" r="6" fill="none" stroke="blue" stroke-width="2" />
<circle cx="387.08085123280864" cy="100" r="3" fill="blue" />
<circle cx="399.08085123280864" cy="100" r="6" fill="none" stroke="black" stroke-width="2" />
<circle cx="399.08085123280864" cy="100" r="3" fill="black" />
<circle cx="411.08085123280864" cy="100" r="4" fill="black" />
<circle cx="423.08085123280864" cy="100" r="4" fill="red" />
<circle cx="435.08085123280864" cy="100" r="4" fill="blue" />
<circle cx="447.08085123280864" cy="100" r="6" fill="none" stroke="blue" stroke-width="2" />
<circle cx="447.08085123280864" cy="100" r="3" fill="blue" />
<circle cx="459.08085123280864" cy="100" r="4" fill="blue" />
<circle cx="471.08085123280864" cy="100" r="4" fill="black" />
<circle cx="483.08085123280864" cy="100" r="4" fill="blue" />
<circle cx="495.08085123280864" cy="100" r="4" fill="blue" />
<circle cx="507.08085123280864" cy="100" r="6" fill="none" stroke="blue" stroke-width="2" />
<circle cx="507.08085123280864" cy="100" r="3" fill="blue" />
<circle cx="519.0808512328086" cy="100" r="4" fill="black" />
<circle cx="531.0808512328086" cy="100" r="4" fill="red" />
<circle cx="543.0808512328086" cy="100" r="6" fill="none" stroke="black" stroke-width="2" />
<circle cx="543.0808512328086" cy="100" r="3" fill="black" />
<circle cx="555.0808512328086" cy="100" r="6" fill="none" stroke="red" stroke-width="2" />
<circle cx="555.0808512328086" cy="100" r="3" fill="red" />
<circle cx="567.0808512328086" cy="100" r="4" fill="blue" />
<circle cx="579.0808512328086" cy="100" r="4" fill="blue" />
<circle cx="591.0808512328086" cy="100" r="6" fill="none" stroke="blue" stroke-width="2" />
<circle cx="591.0808512328086" cy="100" r="3" fill="blue" />
<circle cx="617.2858301194145" cy="100" r="6" fill="none" stroke="blue" stroke-width="2" />
<circle cx="617.2858301194145" cy="100" r="3" fill="blue" />
<circle cx="629.2858301194145" cy="100" r="6" fill="none" stroke="blue" stroke-width="2" />
<circle cx="629.2858301194145" cy="100" r="3" fill="blue" />
<circle cx="641.2858301194145" cy="100" r="6" fill="none" stroke="red" stroke-width="2" />
<circle cx="641.2858301194145" cy="100" r="3" fill="red" />
<circle cx="653.2858301194145" cy="100" r="4" fill="blue" />
<circle cx="665.2858301194145" cy="100" r="4" fill="red" />
<circle cx="677.2858301194145" cy="100" r="4" fill="red" />
<circle cx="689.2858301194145" cy="100" r="4" fill="blue" />
<circle cx="701.2858301194145" cy="100" r="4" fill="red" />
<circle cx="713.2858301194145" cy="100" r="4" fill="red" />
<circle cx="725.2858301194145" cy="100" r="6" fill="none" stroke="blue" stroke-width="2" />
<circle cx="725.2858301194145" cy="100" r="3" fill="blue" />
<circle cx="737.2858301194145" cy="100" r="6" fill="none" stroke="black" stroke-width="2" />
<circle cx="737.2858301194145" cy="100" r="3" fill="black" />
<circle cx="749.2858301194145" cy="100" r="6" fill="none" stroke="black" stroke-width="2" />
<circle cx="749.2858301194145" cy="100" r="3" fill="black" />
<circle cx="761.2858301194145" cy="100" r="6" fill="none" stroke="black" stroke-width="2" />
<circle cx="761.2858301194145" cy="100" r="3" fill="black" />
<circle cx="773.2858301194145" cy="100" r="6" fill="none" stroke="black" stroke-width="2" />
<circle cx="773.2858301194145" cy="100" r="3" fill="black" />
<circle cx="785.2858301194145" cy="100" r="6" fill="none" stroke="black" stroke-width="2" />
<circle cx="785.2858301194145" cy="100" r="3" fill="black" />
<circle cx="797.2858301194145" cy="100" r="4" fill="red" />
<circle cx="809.2858301194145" cy="100" r="4" fill="blue" />
<circle cx="821.2858301194145" cy="100" r="4" fill="black" />
<circle cx="833.2858301194145" cy="100" r="4" fill="black" />
<circle cx="845.2858301194145" cy="100" r="6" fill="none" stroke="blue" stroke-width="2" />
<circle cx="845.2858301194145" cy="100" r="3" fill="blue" />
<circle cx="857.2858301194145" cy="100" r="6" fill="none" stroke="black" stroke-width="2" />
<circle cx="857.2858301194145" cy="100" r="3" fill="black" />
<circle cx="869.2858301194145" cy="100" r="6" fill="none" stroke="blue" stroke-width="2" />
<circle cx="869.2858301194145" cy="100" r="3" fill="blue" />
<circle cx="881.2858301194145" cy="100" r="6" fill="none" stroke="green" stroke-width="2" />
<circle cx="881.2858301194145" cy="100" r="3" fill="green" />
<circle cx="893.2858301194145" cy="100" r="6" fill="none" stroke="black" stroke-width="2" />
<circle cx="893.2858301194145" cy="100" r="3" fill="black" />
<circle cx="905.2858301194145" cy="100" r="6" fill="none" stroke="blue" stroke-width="2" />
<circle cx="905.2858301194145" cy="100" r="3" fill="blue" />
<circle cx="917.2858301194145" cy="100" r="6" fill="none" stroke="blue" stroke-width="2" />
<circle cx="917.2858301194145" cy="100" r="3" fill="blue" />
<circle cx="929.2858301194145" cy="100" r="4" fill="black" />
<circle cx="941.2858301194145" cy="100" r="6" fill="none" stroke="green" stroke-width="2" />
<circle cx="941.2858301194145" cy="100" r="3" fill="green" />
<circle cx="953.2858301194145" cy="100" r="4" fill="blue" />
<circle cx="965.2858301194145" cy="100" r="4" fill="blue" />
<circle cx="977.2858301194145" cy="100" r="4" fill="blue" />
<circle cx="989.2858301194145" cy="100" r="4" fill="blue" />
<circle cx="1001.2858301194145" cy="100" r="4" fill="black" />
<circle cx="1013.2858301194145" cy="100" r="6" fill="none" stroke="black" stroke-width="2" />
<circle cx="1013.2858301194145" cy="100" r="3" fill="black" />
<circle cx="1025.2858301194146" cy="100" r="6" fill="none" stroke="blue" stroke-width="2" />
<circle cx="1025.2858301194146" cy="100" r="3" fill="blue" />
<circle cx="1037.2858301194146" cy="100" r="6" fill="none" stroke="blue" stroke-width="2" />
<circle cx="1037.2858301194146" cy="100" r="3" fill="blue" />
<circle cx="1049.2858301194146" cy="100" r="6" fill="none" stroke="red" stroke-width="2" />
<circle cx="1049.2858301194146" cy="100" r="3" fill="red" />
<circle cx="1061.2858301194146" cy="100" r="6" fill="none" stroke="red" stroke-width="2" />
<circle cx="1061.2858301194146" cy="100" r="3" fill="red" />
<circle cx="1073.2858301194146" cy="100" r="6" fill="none" stroke="blue" stroke-width="2" />
<circle cx="1073.2858301194146" cy="100" r="3" fill="blue" />
<circle cx="1085.2858301194146" cy="100" r="4" fill="black" />
<circle cx="1097.2858301194146" cy="100" r="4" fill="red" />
<circle cx="1109.2858301194146" cy="100" r="4" fill="red" />
<circle cx="1121.2858301194146" cy="100" r="6" fill="none" stroke="black" stroke-width="2" />
<circle cx="1121.2858301194146" cy="100" r="3" fill="black" />
<circle cx="1133.2858301194146" cy="100" r="4" fill="red" />
<circle cx="1145.2858301194146" cy="100" r="4" fill="black" />
<circle cx="1157.2858301194146" cy="100" r="4" fill="blue" />
<circle cx="1169.2858301194146" cy="100" r="4" fill="green" />
<circle cx="1181.2858301194146" cy="100" r="4" fill="red" />
<circle cx="1193.2858301194146" cy="100" r="6" fill="none" stroke="black" stroke-width="2" />
<circle cx="1193.2858301194146" cy="100" r="3" fill="black" />
<circle cx="1205.2858301194146" cy="100" r="6" fill="none" stroke="black" stroke-width="2" />
<circle cx="1205.2858301194146" cy="100" r="3" fill="black" />
<circle cx="1217.2858301194146" cy="100" r="6" fill="none" stroke="blue" stroke-width="2" />
<circle cx="1217.2858301194146" cy="100" r="3" fill="blue" />
<circle cx="1229.2858301194146" cy="100" r="4" fill="black" />
<circle cx="1241.2858301194146" cy="100" r="4" fill="blue" />
<circle cx="1253.2858301194146" cy="100" r="6" fill="none" stroke="blue" stroke-width="2" />
<circle cx="1253.2858301194146" cy="100" r="3" fill="blue" />
<circle cx="1265.2858301194146" cy="100" r="6" fill="none" stroke="black" stroke-width="2" />
<circle cx="1265.2858301194146" cy="100" r="3" fill="black" />
<circle cx="1277.2858301194146" cy="100" r="4" fill="blue" />
<circle cx="1289.2858301194146" cy="100" r="4" fill="black" />
<circle cx="1301.2858301194146" cy="100" r="6" fill="none" stroke="blue" stroke-width="2" />
<circle cx="1301.2858301194146" cy="100" r="3" fill="blue" />
<circle cx="1313.2858301194146" cy="100" r="4" fill="red" />
<circle cx="1325.2858301194146" cy="100" r="4" fill="red" />
<circle cx="1337.2858301194146" cy="100" r="6" fill="none" stroke="green" stroke-width="2" />
<circle cx="1337.2858301194146" cy="100" r="3" fill="green" />
<circle cx="1349.2858301194146" cy="100" r="6" fill="none" stroke="black" stroke-width="2" />
<circle cx="1349.2858301194146" cy="100" r="3" fill="black" />
<circle cx="1361.2858301194146" cy="100" r="4" fill="red" />
<circle cx="1373.2858301194146" cy="100" r="4" fill="red" />
<circle cx="1385.2858301194146" cy="100" r="6" fill="none" stroke="black" stroke-width="2" />
<circle cx="1385.2858301194146" cy="100" r="3" fill="black" />
<circle cx="1397.2858301194146" cy="100" r="6" fill="none" stroke="red" stroke-width="2" />
<circle cx="1397.2858301194146" cy="100" r="3" fill="red" />
<circle cx="1409.2858301194146" cy="100" r="4" fill="black" />
<circle cx="1421.2858301194146" cy="100" r="4" fill="black" />
<circle cx="1433.2858301194146" cy="100" r="4" fill="black" />
<circle cx="1445.2858301194146" cy="100" r="4" fill="blue" />
<circle cx="1457.2858301194146" cy="100" r="4" fill="red" />
<circle cx="1469.2858301194146" cy="100" r="4" fill="red" />
<circle cx="1481.2858301194146" cy="100" r="4" fill="black" />
<circle cx="1493.2858301194146" cy="100" r="4" fill="blue" />
<circle cx="1505.2858301194146" cy="100" r="6" fill="none" stroke="black" stroke-width="2" />
<circle cx="1505.2858301194146" cy="100" r="3" fill="black" />
<circle cx="1517.2858301194146" cy="100" r="4" fill="blue" />
<circle cx="1529.2858301194146" cy="100" r="4" fill="blue" />
<circle cx="1541.2858301194146" cy="100" r="4" fill="blue" />
<circle cx="1553.2858301194146" cy="100" r="4" fill="blue" />
<circle cx="1565.2858301194146" cy="100" r="4" fill="blue" />
<circle cx="1577.2858301194146" cy="100" r="4" fill="blue" />
<circle cx="1589.2858301194146" cy="100" r="4" fill="red" />
<circle cx="1601.2858301194146" cy="100" r="4" fill="black" />
<circle cx="1613.2858301194146" cy="100" r="4" fill="blue" />
<circle cx="1625.2858301194146" cy="100" r="4" fill="red" />
<circle cx="1637.2858301194146" cy="100" r="4" fill="blue" />
<circle cx="1649.2858301194146" cy="100" r="4" fill="blue" />
<circle cx="1661.2858301194146" cy="100" r="4" fill="red" />
<circle cx="1673.2858301194146" cy="100" r="4" fill="blue" />
<circle cx="1685.2858301194146" cy="100" r="4" fill="green" />
<circle cx="1697.2858301194146" cy="100" r="4" fill="black" />
<text x="50" y="125" fill="gray" style="font-size:12px;">2024-04-29T08:23:53+00:00</text>
<text x="900" y="125" fill="gray" style="font-size:12px;">2025-02-25T07:22:39+00:00</text>
</svg>