<svg xmlns="http://www.w3.org/2000/svg" width="1000" height="400" style="background-color: white; font-family: sans-serif;">
<line x1="50" y1="200" x2="950" y2="200" stroke="gray" stroke-width="1"/>
<path d="M 62.0 200 Q 56.0 180, 50.0 200" stroke="black" fill="none" marker-end="url(#arrowhead)"/>
<path d="M 119.66812916615145 200 Q 84.83406458307573 180, 50.0 200" stroke="black" fill="none" marker-end="url(#arrowhead)"/>
<path d="M 131.66812916615146 200 Q 96.83406458307573 180, 62.0 200" stroke="black" fill="none" marker-end="url(#arrowhead)"/>
<path d="M 197.428491855189 200 Q 158.54831051067023 180, 119.66812916615145 200" stroke="black" fill="none" marker-end="url(#arrowhead)"/>
<path d="M 227.79017587634021 200 Q 173.72915252124582 180, 119.66812916615145 200" stroke="black" fill="none" marker-end="url(#arrowhead)"/>
<path d="M 239.79017587634021 200 Q 233.79017587634021 180, 227.79017587634021 200" stroke="black" fill="none" marker-end="url(#arrowhead)"/>
<path d="M 251.79017587634021 200 Q 224.6093338657646 180, 197.428491855189 200" stroke="black" fill="none" marker-end="url(#arrowhead)"/>
<path d="M 263.7901758763402 200 Q 245.7901758763402 180, 227.79017587634021 200" stroke="black" fill="none" marker-end="url(#arrowhead)"/>
<path d="M 336.32056650728737 200 Q 324.32056650728737 180, 312.32056650728737 200" stroke="black" fill="none" marker-end="url(#arrowhead)"/>
<path d="M 362.7866610786425 200 Q 356.7866610786425 180, 350.7866610786425 200" stroke="black" fill="none" marker-end="url(#arrowhead)"/>
<path d="M 374.7866610786425 200 Q 362.7866610786425 180, 350.7866610786425 200" stroke="black" fill="none" marker-end="url(#arrowhead)"/>
<path d="M 387.08085123280864 200 Q 368.9337561557256 180, 350.7866610786425 200" stroke="black" fill="none" marker-end="url(#arrowhead)"/>
<path d="M 387.08085123280864 200 Q 380.9337561557256 180, 374.7866610786425 200" stroke="black" fill="none" marker-end="url(#arrowhead)"/>
<path d="M 399.08085123280864 200 Q 380.9337561557256 180, 362.7866610786425 200" stroke="black" fill="none" marker-end="url(#arrowhead)"/>
<path d="M 411.08085123280864 200 Q 405.08085123280864 180, 399.08085123280864 200" stroke="black" fill="none" marker-end="url(#arrowhead)"/>
<path d="M 435.08085123280864 200 Q 423.08085123280864 180, 411.08085123280864 200" stroke="black" fill="none" marker-end="url(#arrowhead)"/>
<path d="M 447.08085123280864 200 Q 435.08085123280864 180, 423.08085123280864 200" stroke="black" fill="none" marker-end="url(#arrowhead)"/>
<path d="M 459.08085123280864 200 Q 435.08085123280864 180, 411.08085123280864 200" stroke="black" fill="none" marker-end="url(#arrowhead)"/>
<path d="M 459.08085123280864 200 Q 453.08085123280864 180, 447.08085123280864 200" stroke="black" fill="none" marker-end="url(#arrowhead)"/>
<path d="M 471.08085123280864 200 Q 441.08085123280864 180, 411.08085123280864 200" stroke="black" fill="none" marker-end="url(#arrowhead)"/>
<path d="M 483.08085123280864 200 Q 465.08085123280864 180, 447.08085123280864 200" stroke="black" fill="none" marker-end="url(#arrowhead)"/>
<path d="M 495.08085123280864 200 Q 477.08085123280864 180, 459.08085123280864 200" stroke="black" fill="none" marker-end="url(#arrowhead)"/>
<path d="M 507.08085123280864 200 Q 459.08085123280864 180, 411.08085123280864 200" stroke="black" fill="none" marker-end="url(#arrowhead)"/>
<path d="M 507.08085123280864 200 Q 434.9337561557256 180, 362.7866610786425 200" stroke="black" fill="none" marker-end="url(#arrowhead)"/>
<path d="M 507.08085123280864 200 Q 453.08085123280864 180, 399.08085123280864 200" stroke="black" fill="none" marker-end="url(#arrowhead)"/>
<path d="M 519.0808512328086 200 Q 513.0808512328086 180, 507.08085123280864 200" stroke="black" fill="none" marker-end="url(#arrowhead)"/>
<path d="M 531.0808512328086 200 Q 519.0808512328086 180, 507.08085123280864 200" stroke="black" fill="none" marker-end="url(#arrowhead)"/>
<path d="M 543.0808512328086 200 Q 525.0808512328086 180, 507.08085123280864 200" stroke="black" fill="none" marker-end="url(#arrowhead)"/>
<path d="M 543.0808512328086 200 Q 531.0808512328086 180, 519.0808512328086 200" stroke="black" fill="none" marker-end="url(#arrowhead)"/>
<path d="M 555.0808512328086 200 Q 531.0808512328086 180, 507.08085123280864 200" stroke="black" fill="none" marker-end="url(#arrowhead)"/>
<path d="M 555.0808512328086 200 Q 543.0808512328086 180, 531.0808512328086 200" stroke="black" fill="none" marker-end="url(#arrowhead)"/>
<path d="M 591.0808512328086 200 Q 567.0808512328086 180, 543.0808512328086 200" stroke="black" fill="none" marker-end="url(#arrowhead)"/>
<path d="M 591.0808512328086 200 Q 549.0808512328086 180, 507.08085123280864 200" stroke="black" fill="none" marker-end="url(#arrowhead)"/>
<path d="M 591.0808512328086 200 Q 555.0808512328086 180, 519.0808512328086 200" stroke="black" fill="none" marker-end="url(#arrowhead)"/>
<path d="M 617.2858301194145 200 Q 604.1833406761116 180, 591.0808512328086 200" stroke="black" fill="none" marker-end="url(#arrowhead)"/>
<path d="M 629.2858301194145 200 Q 598.1833406761116 180, 567.0808512328086 200" stroke="black" fill="none" marker-end="url(#arrowhead)"/>
<path d="M 641.2858301194145 200 Q 610.1833406761116 180, 579.0808512328086 200" stroke="black" fill="none" marker-end="url(#arrowhead)"/>
<path d="M 677.2858301194145 200 Q 647.2858301194145 180, 617.2858301194145 200" stroke="black" fill="none" marker-end="url(#arrowhead)"/>
<path d="M 689.2858301194145 200 Q 653.2858301194145 180, 617.2858301194145 200" stroke="black" fill="none" marker-end="url(#arrowhead)"/>
<path d="M 701.2858301194145 200 Q 659.2858301194145 180, 617.2858301194145 200" stroke="black" fill="none" marker-end="url(#arrowhead)"/>
<path d="M 713.2858301194145 200 Q 707.2858301194145 180, 701.2858301194145 200" stroke="black" fill="none" marker-end="url(#arrowhead)"/>
<path d="M 725.2858301194145 200 Q 689.2858301194145 180, 653.2858301194145 200" stroke="black" fill="none" marker-end="url(#arrowhead)"/>
<path d="M 737.2858301194145 200 Q 695.2858301194145 180, 653.2858301194145 200" stroke="black" fill="none" marker-end="url(#arrowhead)"/>
<path d="M 737.2858301194145 200 Q 701.2858301194145 180, 665.2858301194145 200" stroke="black" fill="none" marker-end="url(#arrowhead)"/>
<path d="M 749.2858301194145 200 Q 725.2858301194145 180, 701.2858301194145 200" stroke="black" fill="none" marker-end="url(#arrowhead)"/>
<path d="M 749.2858301194145 200 Q 683.2858301194145 180, 617.2858301194145 200" stroke="black" fill="none" marker-end="url(#arrowhead)"/>
<path d="M 761.2858301194145 200 Q 731.2858301194145 180, 701.2858301194145 200" stroke="black" fill="none" marker-end="url(#arrowhead)"/>
<path d="M 761.2858301194145 200 Q 737.2858301194145 180, 713.2858301194145 200" stroke="black" fill="none" marker-end="url(#arrowhead)"/>
<path d="M 773.2858301194145 200 Q 731.2858301194145 180, 689.2858301194145 200" stroke="black" fill="none" marker-end="url(#arrowhead)"/>
<path d="M 785.2858301194145 200 Q 731.2858301194145 180, 677.2858301194145 200" stroke="black" fill="none" marker-end="url(#arrowhead)"/>
<path d="M 797.2858301194145 200 Q 779.2858301194145 180, 761.2858301194145 200" stroke="black" fill="none" marker-end="url(#arrowhead)"/>
<path d="M 821.2858301194145 200 Q 815.2858301194145 180, 809.2858301194145 200" stroke="black" fill="none" marker-end="url(#arrowhead)"/>
<path d="M 833.2858301194145 200 Q 809.2858301194145 180, 785.2858301194145 200" stroke="black" fill="none" marker-end="url(#arrowhead)"/>
<path d="M 845.2858301194145 200 Q 731.2858301194145 180, 617.2858301194145 200" stroke="black" fill="none" marker-end="url(#arrowhead)"/>
<path d="M 845.2858301194145 200 Q 773.2858301194145 180, 701.2858301194145 200" stroke="black" fill="none" marker-end="url(#arrowhead)"/>
<path d="M 845.2858301194145 200 Q 797.2858301194145 180, 749.2858301194145 200" stroke="black" fill="none" marker-end="url(#arrowhead)"/>
<path d="M 857.2858301194145 200 Q 845.2858301194145 180, 833.2858301194145 200" stroke="black" fill="none" marker-end="url(#arrowhead)"/>
<path d="M 857.2858301194145 200 Q 821.2858301194145 180, 785.2858301194145 200" stroke="black" fill="none" marker-end="url(#arrowhead)"/>
<path d="M 869.2858301194145 200 Q 815.2858301194145 180, 761.2858301194145 200" stroke="black" fill="none" marker-end="url(#arrowhead)"/>
<path d="M 869.2858301194145 200 Q 785.2858301194145 180, 701.2858301194145 200" stroke="black" fill="none" marker-end="url(#arrowhead)"/>
<path d="M 869.2858301194145 200 Q 791.2858301194145 180, 713.2858301194145 200" stroke="black" fill="none" marker-end="url(#arrowhead)"/>
<path d="M 869.2858301194145 200 Q 833.2858301194145 180, 797.2858301194145 200" stroke="black" fill="none" marker-end="url(#arrowhead)"/>
<path d="M 881.2858301194145 200 Q 590.803198313351 180, 300.32056650728737 200" stroke="black" fill="none" marker-end="url(#arrowhead)"/>
<path d="M 881.2858301194145 200 Q 845.2858301194145 180, 809.2858301194145 200" stroke="black" fill="none" marker-end="url(#arrowhead)"/>
<path d="M 893.2858301194145 200 Q 596.803198313351 180, 300.32056650728737 200" stroke="black" fill="none" marker-end="url(#arrowhead)"/>
<path d="M 893.2858301194145 200 Q 857.2858301194145 180, 821.2858301194145 200" stroke="black" fill="none" marker-end="url(#arrowhead)"/>
<path d="M 917.2858301194145 200 Q 803.2858301194145 180, 689.2858301194145 200" stroke="black" fill="none" marker-end="url(#arrowhead)"/>
<path d="M 917.2858301194145 200 Q 845.2858301194145 180, 773.2858301194145 200" stroke="black" fill="none" marker-end="url(#arrowhead)"/>
<path d="M 929.2858301194145 200 Q 893.2858301194145 180, 857.2858301194145 200" stroke="black" fill="none" marker-end="url(#arrowhead)"/>
<path d="M 941.2858301194145 200 Q 779.2858301194145 180, 617.2858301194145 200" stroke="black" fill="none" marker-end="url(#arrowhead)"/>
<path d="M 941.2858301194145 200 Q 821.2858301194145 180, 701.2858301194145 200" stroke="black" fill="none" marker-end="url(#arrowhead)"/>
<path d="M 941.2858301194145 200 Q 893.2858301194145 180, 845.2858301194145 200" stroke="black" fill="none" marker-end="url(#arrowhead)"/>
<path d="M 941.2858301194145 200 Q 845.2858301194145 180, 749.2858301194145 200" stroke="black" fill="none" marker-end="url(#arrowhead)"/>
<path d="M 965.2858301194145 200 Q 935.2858301194145 180, 905.2858301194145 200" stroke="black" fill="none" marker-end="url(#arrowhead)"/>
<path d="M 977.2858301194145 200 Q 935.2858301194145 180, 893.2858301194145 200" stroke="black" fill="none" marker-end="url(#arrowhead)"/>
<path d="M 1001.2858301194145 200 Q 953.2858301194145 180, 905.2858301194145 200" stroke="black" fill="none" marker-end="url(#arrowhead)"/>
<path d="M 1013.2858301194145 200 Q 959.2858301194145 180, 905.2858301194145 200" stroke="black" fill="none" marker-end="url(#arrowhead)"/>
<path d="M 1013.2858301194145 200 Q 1007.2858301194145 180, 1001.2858301194145 200" stroke="black" fill="none" marker-end="url(#arrowhead)"/>
<path d="M 1013.2858301194145 200 Q 662.803198313351 180, 312.32056650728737 200" stroke="black" fill="none" marker-end="url(#arrowhead)"/>
<path d="M 1037.2858301194146 200 Q 1001.2858301194146 180, 965.2858301194145 200" stroke="black" fill="none" marker-end="url(#arrowhead)"/>
<path d="M 1037.2858301194146 200 Q 971.2858301194146 180, 905.2858301194145 200" stroke="black" fill="none" marker-end="url(#arrowhead)"/>
<path d="M 1049.2858301194146 200 Q 971.2858301194146 180, 893.2858301194145 200" stroke="black" fill="none" marker-end="url(#arrowhead)"/>
<path d="M 1049.2858301194146 200 Q 1013.2858301194146 180, 977.2858301194145 200" stroke="black" fill="none" marker-end="url(#arrowhead)"/>
<path d="M 1061.2858301194146 200 Q 814.1833406761116 180, 567.0808512328086 200" stroke="black" fill="none" marker-end="url(#arrowhead)"/>
<path d="M 1061.2858301194146 200 Q 1025.2858301194146 180, 989.2858301194145 200" stroke="black" fill="none" marker-end="url(#arrowhead)"/>
<path d="M 1061.2858301194146 200 Q 680.803198313351 180, 300.32056650728737 200" stroke="black" fill="none" marker-end="url(#arrowhead)"/>
<path d="M 1061.2858301194146 200 Q 1007.2858301194146 180, 953.2858301194145 200" stroke="black" fill="none" marker-end="url(#arrowhead)"/>
<path d="M 1073.2858301194146 200 Q 1013.2858301194146 180, 953.2858301194145 200" stroke="black" fill="none" marker-end="url(#arrowhead)"/>
<path d="M 1085.2858301194146 200 Q 1079.2858301194146 180, 1073.2858301194146 200" stroke="black" fill="none" marker-end="url(#arrowhead)"/>
<path d="M 1085.2858301194146 200 Q 1019.2858301194146 180, 953.2858301194145 200" stroke="black" fill="none" marker-end="url(#arrowhead)"/>
<path d="M 1097.2858301194146 200 Q 1061.2858301194146 180, 1025.2858301194146 200" stroke="black" fill="none" marker-end="url(#arrowhead)"/>
<path d="M 1109.2858301194146 200 Q 1103.2858301194146 180, 1097.2858301194146 200" stroke="black" fill="none" marker-end="url(#arrowhead)"/>
<path d="M 1109.2858301194146 200 Q 1067.2858301194146 180, 1025.2858301194146 200" stroke="black" fill="none" marker-end="url(#arrowhead)"/>
<path d="M 1121.2858301194146 200 Q 1037.2858301194146 180, 953.2858301194145 200" stroke="black" fill="none" marker-end="url(#arrowhead)"/>
<path d="M 1121.2858301194146 200 Q 1097.2858301194146 180, 1073.2858301194146 200" stroke="black" fill="none" marker-end="url(#arrowhead)"/>
<path d="M 1121.2858301194146 200 Q 1103.2858301194146 180, 1085.2858301194146 200" stroke="black" fill="none" marker-end="url(#arrowhead)"/>
<path d="M 1133.2858301194146 200 Q 1121.2858301194146 180, 1109.2858301194146 200" stroke="black" fill="none" marker-end="url(#arrowhead)"/>
<path d="M 1145.2858301194146 200 Q 1085.2858301194146 180, 1025.2858301194146 200" stroke="black" fill="none" marker-end="url(#arrowhead)"/>
<path d="M 1157.2858301194146 200 Q 1139.2858301194146 180, 1121.2858301194146 200" stroke="black" fill="none" marker-end="url(#arrowhead)"/>
<path d="M 1169.2858301194146 200 Q 1097.2858301194146 180, 1025.2858301194146 200" stroke="black" fill="none" marker-end="url(#arrowhead)"/>
<path d="M 1193.2858301194146 200 Q 1169.2858301194146 180, 1145.2858301194146 200" stroke="black" fill="none" marker-end="url(#arrowhead)"/>
<path d="M 1193.2858301194146 200 Q 1109.2858301194146 180, 1025.2858301194146 200" stroke="black" fill="none" marker-end="url(#arrowhead)"/>
<path d="M 1205.2858301194146 200 Q 1181.2858301194146 180, 1157.2858301194146 200" stroke="black" fill="none" marker-end="url(#arrowhead)"/>
<path d="M 1217.2858301194146 200 Q 1193.2858301194146 180, 1169.2858301194146 200" stroke="black" fill="none" marker-end="url(#arrowhead)"/>
<path d="M 1217.2858301194146 200 Q 1199.2858301194146 180, 1181.2858301194146 200" stroke="black" fill="none" marker-end="url(#arrowhead)"/>
<path d="M 1217.2858301194146 200 Q 941.2858301194146 180, 665.2858301194145 200" stroke="black" fill="none" marker-end="url(#arrowhead)"/>
<path d="M 1229.2858301194146 200 Q 1223.2858301194146 180, 1217.2858301194146 200" stroke="black" fill="none" marker-end="url(#arrowhead)"/>
<path d="M 1241.2858301194146 200 Q 1229.2858301194146 180, 1217.2858301194146 200" stroke="black" fill="none" marker-end="url(#arrowhead)"/>
<path d="M 1253.2858301194146 200 Q 1247.2858301194146 180, 1241.2858301194146 200" stroke="black" fill="none" marker-end="url(#arrowhead)"/>
<path d="M 1253.2858301194146 200 Q 1235.2858301194146 180, 1217.2858301194146 200" stroke="black" fill="none" marker-end="url(#arrowhead)"/>
<path d="M 1265.2858301194146 200 Q 1247.2858301194146 180, 1229.2858301194146 200" stroke="black" fill="none" marker-end="url(#arrowhead)"/>
<path d="M 1265.2858301194146 200 Q 1241.2858301194146 180, 1217.2858301194146 200" stroke="black" fill="none" marker-end="url(#arrowhead)"/>
<path d="M 1277.2858301194146 200 Q 1271.2858301194146 180, 1265.2858301194146 200" stroke="black" fill="none" marker-end="url(#arrowhead)"/>
<path d="M 1289.2858301194146 200 Q 1253.2858301194146 180, 1217.2858301194146 200" stroke="black" fill="none" marker-end="url(#arrowhead)"/>
<path d="M 1301.2858301194146 200 Q 1271.2858301194146 180, 1241.2858301194146 200" stroke="black" fill="none" marker-end="url(#arrowhead)"/>
<path d="M 1301.2858301194146 200 Q 1277.2858301194146 180, 1253.2858301194146 200" stroke="black" fill="none" marker-end="url(#arrowhead)"/>
<path d="M 1301.2858301194146 200 Q 1259.2858301194146 180, 1217.2858301194146 200" stroke="black" fill="none" marker-end="url(#arrowhead)"/>
<path d="M 1313.2858301194146 200 Q 1307.2858301194146 180, 1301.2858301194146 200" stroke="black" fill="none" marker-end="url(#arrowhead)"/>
<path d="M 1325.2858301194146 200 Q 1313.2858301194146 180, 1301.2858301194146 200" stroke="black" fill="none" marker-end="url(#arrowhead)"/>
<path d="M 1337.2858301194146 200 Q 1319.2858301194146 180, 1301.2858301194146 200" stroke="black" fill="none" marker-end="url(#arrowhead)"/>
<path d="M 1337.2858301194146 200 Q 1325.2858301194146 180, 1313.2858301194146 200" stroke="black" fill="none" marker-end="url(#arrowhead)"/>
<path d="M 1349.2858301194146 200 Q 1337.2858301194146 180, 1325.2858301194146 200" stroke="black" fill="none" marker-end="url(#arrowhead)"/>
<path d="M 1361.2858301194146 200 Q 1349.2858301194146 180, 1337.2858301194146 200" stroke="black" fill="none" marker-end="url(#arrowhead)"/>
<path d="M 1373.2858301194146 200 Q 1355.2858301194146 180, 1337.2858301194146 200" stroke="black" fill="none" marker-end="url(#arrowhead)"/>
<path d="M 1385.2858301194146 200 Q 1361.2858301194146 180, 1337.2858301194146 200" stroke="black" fill="none" marker-end="url(#arrowhead)"/>
<path d="M 1385.2858301194146 200 Q 1373.2858301194146 180, 1361.2858301194146 200" stroke="black" fill="none" marker-end="url(#arrowhead)"/>
<path d="M 1397.2858301194146 200 Q 1385.2858301194146 180, 1373.2858301194146 200" stroke="black" fill="none" marker-end="url(#arrowhead)"/>
<path d="M 1421.2858301194146 200 Q 1415.2858301194146 180, 1409.2858301194146 200" stroke="black" fill="none" marker-end="url(#arrowhead)"/>
<path d="M 1433.2858301194146 200 Q 1421.2858301194146 180, 1409.2858301194146 200" stroke="black" fill="none" marker-end="url(#arrowhead)"/>
<path d="M 1433.2858301194146 200 Q 1427.2858301194146 180, 1421.2858301194146 200" stroke="black" fill="none" marker-end="url(#arrowhead)"/>
<path d="M 1445.2858301194146 200 Q 1439.2858301194146 180, 1433.2858301194146 200" stroke="black" fill="none" marker-end="url(#arrowhead)"/>
<path d="M 1457.2858301194146 200 Q 1451.2858301194146 180, 1445.2858301194146 200" stroke="black" fill="none" marker-end="url(#arrowhead)"/>
<path d="M 1457.2858301194146 200 Q 1205.2858301194146 180, 953.2858301194145 200" stroke="black" fill="none" marker-end="url(#arrowhead)"/>
<path d="M 1469.2858301194146 200 Q 1463.2858301194146 180, 1457.2858301194146 200" stroke="black" fill="none" marker-end="url(#arrowhead)"/>
<path d="M 1481.2858301194146 200 Q 1475.2858301194146 180, 1469.2858301194146 200" stroke="black" fill="none" marker-end="url(#arrowhead)"/>
<path d="M 1493.2858301194146 200 Q 1463.2858301194146 180, 1433.2858301194146 200" stroke="black" fill="none" marker-end="url(#arrowhead)"/>
<path d="M 1493.2858301194146 200 Q 1481.2858301194146 180, 1469.2858301194146 200" stroke="black" fill="none" marker-end="url(#arrowhead)"/>
<path d="M 1505.2858301194146 200 Q 1499.2858301194146 180, 1493.2858301194146 200" stroke="black" fill="none" marker-end="url(#arrowhead)"/>
<path d="M 1517.2858301194146 200 Q 1511.2858301194146 180, 1505.2858301194146 200" stroke="black" fill="none" marker-end="url(#arrowhead)"/>
<path d="M 1529.2858301194146 200 Q 1523.2858301194146 180, 1517.2858301194146 200" stroke="black" fill="none" marker-end="url(#arrowhead)"/>
<path d="M 1541.2858301194146 200 Q 1529.2858301194146 180, 1517.2858301194146 200" stroke="black" fill="none" marker-end="url(#arrowhead)"/>
<path d="M 1553.2858301194146 200 Q 1547.2858301194146 180, 1541.2858301194146 200" stroke="black" fill="none" marker-end="url(#arrowhead)"/>
<path d="M 1565.2858301194146 200 Q 1559.2858301194146 180, 1553.2858301194146 200" stroke="black" fill="none" marker-end="url(#arrowhead)"/>
<path d="M 1577.2858301194146 200 Q 1571.2858301194146 180, 1565.2858301194146 200" stroke="black" fill="none" marker-end="url(#arrowhead)"/>
<path d="M 1589.2858301194146 200 Q 1583.2858301194146 180, 1577.2858301194146 200" stroke="black" fill="none" marker-end="url(#arrowhead)"/>
<path d="M 1601.2858301194146 200 Q 1589.2858301194146 180, 1577.2858301194146 200" stroke="black" fill="none" marker-end="url(#arrowhead)"/>
<path d="M 1613.2858301194146 200 Q 1595.2858301194146 180, 1577.2858301194146 200" stroke="black" fill="none" marker-end="url(#arrowhead)"/>
<path d="M 1625.2858301194146 200 Q 1619.2858301194146 180, 1613.2858301194146 200" stroke="black" fill="none" marker-end="url(#arrowhead)"/>
<path d="M 1637.2858301194146 200 Q 1631.2858301194146 180, 1625.2858301194146 200" stroke="black" fill="none" marker-end="url(#arrowhead)"/>
<path d="M 1649.2858301194146 200 Q 1643.2858301194146 180, 1637.2858301194146 200" stroke="black" fill="none" marker-end="url(#arrowhead)"/>
<path d="M 1661.2858301194146 200 Q 1655.2858301194146 180, 1649.2858301194146 200" stroke="black" fill="none" marker-end="url(#arrowhead)"/>
<path d="M 1673.2858301194146 200 Q 1667.2858301194146 180, 1661.2858301194146 200" stroke="black" fill="none" marker-end="url(#arrowhead)"/>
<path d="M 1685.2858301194146 200 Q 1679.2858301194146 180, 1673.2858301194146 200" stroke="black" fill="none" marker-end="url(#arrowhead)"/>
<path d="M 1697.2858301194146 200 Q 1691.2858301194146 180, 1685.2858301194146 200" stroke="black" fill="none" marker-end="url(#arrowhead)"/>

<defs>
  <marker id="arrowhead" markerWidth="5" markerHeight="5" 
          refX="2" refY="2" orient="auto" fill="black">
    <path d="M0,0 L0,4 L4,2 z" />
  </marker>
</defs>

<circle cx="50.0" cy="200" r="6" fill="none" stroke="blue" stroke-width="2" />
<circle cx="50.0" cy="200" r="3" fill="blue" />
<circle cx="62.0" cy="200" r="4" fill="black" />
<circle cx="119.66812916615145" cy="200" r="6" fill="none" stroke="blue" stroke-width="2" />
<circle cx="119.66812916615145" cy="200" r="3" fill="blue" />
<circle cx="131.66812916615146" cy="200" r="6" fill="none" stroke="black" stroke-width="2" />
<circle cx="131.66812916615146" cy="200" r="3" fill="black" />
<circle cx="197.428491855189" cy="200" r="4" fill="green" />
<circle cx="227.79017587634021" cy="200" r="4" fill="red" />
<circle cx="239.79017587634021" cy="200" r="6" fill="none" stroke="green" stroke-width="2" />
<circle cx="239.79017587634021" cy="200" r="3" fill="green" />
<circle cx="251.79017587634021" cy="200" r="6" fill="none" stroke="black" stroke-width="2" />
<circle cx="251.79017587634021" cy="200" r="3" fill="black" />
<circle cx="263.7901758763402" cy="200" r="6" fill="none" stroke="red" stroke-width="2" />
<circle cx="263.7901758763402" cy="200" r="3" fill="red" />
<circle cx="300.32056650728737" cy="200" r="4" fill="red" />
<circle cx="312.32056650728737" cy="200" r="4" fill="black" />
<circle cx="324.32056650728737" cy="200" r="4" fill="black" />
<circle cx="336.32056650728737" cy="200" r="6" fill="none" stroke="black" stroke-width="2" />
<circle cx="336.32056650728737" cy="200" r="3" fill="black" />
<circle cx="350.7866610786425" cy="200" r="6" fill="none" stroke="blue" stroke-width="2" />
<circle cx="350.7866610786425" cy="200" r="3" fill="blue" />
<circle cx="362.7866610786425" cy="200" r="4" fill="red" />
<circle cx="374.7866610786425" cy="200" r="4" fill="red" />
<circle cx="387.08085123280864" cy="200" r="6" fill="none" stroke="blue" stroke-width="2" />
<circle cx="387.08085123280864" cy="200" r="3" fill="blue" />
<circle cx="399.08085123280864" cy="200" r="6" fill="none" stroke="black" stroke-width="2" />
<circle cx="399.08085123280864" cy="200" r="3" fill="black" />
<circle cx="411.08085123280864" cy="200" r="4" fill="black" />
<circle cx="423.08085123280864" cy="200" r="4" fill="red" />
<circle cx="435.08085123280864" cy="200" r="4" fill="blue" />
<circle cx="447.08085123280864" cy="200" r="6" fill="none" stroke="blue" stroke-width="2" />
<circle cx="447.08085123280864" cy="200" r="3" fill="blue" />
<circle cx="459.08085123280864" cy="200" r="4" fill="blue" />
<circle cx="471.08085123280864" cy="200" r="4" fill="black" />
<circle cx="483.08085123280864" cy="200" r="4" fill="blue" />
<circle cx="495.08085123280864" cy="200" r="4" fill="blue" />
<circle cx="507.08085123280864" cy="200" r="6" fill="none" stroke="blue" stroke-width="2" />
<circle cx="507.08085123280864" cy="200" r="3" fill="blue" />
<circle cx="519.0808512328086" cy="200" r="4" fill="black" />
<circle cx="531.0808512328086" cy="200" r="4" fill="red" />
<circle cx="543.0808512328086" cy="200" r="6" fill="none" stroke="black" stroke-width="2" />
<circle cx="543.0808512328086" cy="200" r="3" fill="black" />
<circle cx="555.0808512328086" cy="200" r="6" fill="none" stroke="red" stroke-width="2" />
<circle cx="555.0808512328086" cy="200" r="3" fill="red" />
<circle cx="567.0808512328086" cy="200" r="4" fill="blue" />
<circle cx="579.0808512328086" cy="200" r="4" fill="blue" />
<circle cx="591.0808512328086" cy="200" r="6" fill="none" stroke="blue" stroke-width="2" />
<circle cx="591.0808512328086" cy="200" r="3" fill="blue" />
<circle cx="617.2858301194145" cy="200" r="6" fill="none" stroke="blue" stroke-width="2" />
<circle cx="617.2858301194145" cy="200" r="3" fill="blue" />
<circle cx="629.2858301194145" cy="200" r="6" fill="none" stroke="blue" stroke-width="2" />
<circle cx="629.2858301194145" cy="200" r="3" fill="blue" />
<circle cx="641.2858301194145" cy="200" r="6" fill="none" stroke="red" stroke-width="2" />
<circle cx="641.2858301194145" cy="200" r="3" fill="red" />
<circle cx="653.2858301194145" cy="200" r="4" fill="blue" />
<circle cx="665.2858301194145" cy="200" r="4" fill="red" />
<circle cx="677.2858301194145" cy="200" r="4" fill="red" />
<circle cx="689.2858301194145" cy="200" r="4" fill="blue" />
<circle cx="701.2858301194145" cy="200" r="4" fill="red" />
<circle cx="713.2858301194145" cy="200" r="4" fill="red" />
<circle cx="725.2858301194145" cy="200" r="6" fill="none" stroke="blue" stroke-width="2" />
<circle cx="725.2858301194145" cy="200" r="3" fill="blue" />
<circle cx="737.2858301194145" cy="200" r="6" fill="none" stroke="black" stroke-width="2" />
<circle cx="737.2858301194145" cy="200" r="3" fill="black" />
<circle cx="749.2858301194145" cy="200" r="6" fill="none" stroke="black" stroke-width="2" />
<circle cx="749.2858301194145" cy="200" r="3" fill="black" />
<circle cx="761.2858301194145" cy="200" r="6" fill="none" stroke="black" stroke-width="2" />
<circle cx="761.2858301194145" cy="200" r="3" fill="black" />
<circle cx="773.2858301194145" cy="200" r="6" fill="none" stroke="black" stroke-width="2" />
<circle cx="773.2858301194145" cy="200" r="3" fill="black" />
<circle cx="785.2858301194145" cy="200" r="6" fill="none" stroke="black" stroke-width="2" />
<circle cx="785.2858301194145" cy="200" r="3" fill="black" />
<circle cx="797.2858301194145" cy="200" r="4" fill="red" />
<circle cx="809.2858301194145" cy="200" r="4" fill="blue" />
<circle cx="821.2858301194145" cy="200" r="4" fill="black" />
<circle cx="833.2858301194145" cy="200" r="4" fill="black" />
<circle cx="845.2858301194145" cy="200" r="6" fill="none" stroke="blue" stroke-width="2" />
<circle cx="845.2858301194145" cy="200" r="3" fill="blue" />
<circle cx="857.2858301194145" cy="200" r="6" fill="none" stroke="black" stroke-width="2" />
<circle cx="857.2858301194145" cy="200" r="3" fill="black" />
<circle cx="869.2858301194145" cy="200" r="6" fill="none" stroke="blue" stroke-width="2" />
<circle cx="869.2858301194145" cy="200" r="3" fill="blue" />
<circle cx="881.2858301194145" cy="200" r="6" fill="none" stroke="green" stroke-width="2" />
<circle cx="881.2858301194145" cy="200" r="3" fill="green" />
<circle cx="893.2858301194145" cy="200" r="6" fill="none" stroke="black" stroke-width="2" />
<circle cx="893.2858301194145" cy="200" r="3" fill="black" />
<circle cx="905.2858301194145" cy="200" r="6" fill="none" stroke="blue" stroke-width="2" />
<circle cx="905.2858301194145" cy="200" r="3" fill="blue" />
<circle cx="917.2858301194145" cy="200" r="6" fill="none" stroke="blue" stroke-width="2" />
<circle cx="917.2858301194145" cy="200" r="3" fill="blue" />
<circle cx="929.2858301194145" cy="200" r="4" fill="black" />
<circle cx="941.2858301194145" cy="200" r="6" fill="none" stroke="green" stroke-width="2" />
<circle cx="941.2858301194145" cy="200" r="3" fill="green" />
<circle cx="953.2858301194145" cy="200" r="4" fill="blue" />
<circle cx="965.2858301194145" cy="200" r="4" fill="blue" />
<circle cx="977.2858301194145" cy="200" r="4" fill="blue" />
<circle cx="989.2858301194145" cy="200" r="4" fill="blue" />
<circle cx="1001.2858301194145" cy="200" r="4" fill="black" />
<circle cx="1013.2858301194145" cy="200" r="6" fill="none" stroke="black" stroke-width="2" />
<circle cx="1013.2858301194145" cy="200" r="3" fill="black" />
<circle cx="1025.2858301194146" cy="200" r="6" fill="none" stroke="blue" stroke-width="2" />
<circle cx="1025.2858301194146" cy="200" r="3" fill="blue" />
<circle cx="1037.2858301194146" cy="200" r="6" fill="none" stroke="blue" stroke-width="2" />
<circle cx="1037.2858301194146" cy="200" r="3" fill="blue" />
<circle cx="1049.2858301194146" cy="200" r="6" fill="none" stroke="red" stroke-width="2" />
<circle cx="1049.2858301194146" cy="200" r="3" fill="red" />
<circle cx="1061.2858301194146" cy="200" r="6" fill="none" stroke="red" stroke-width="2" />
<circle cx="1061.2858301194146" cy="200" r="3" fill="red" />
<circle cx="1073.2858301194146" cy="200" r="6" fill="none" stroke="blue" stroke-width="2" />
<circle cx="1073.2858301194146" cy="200" r="3" fill="blue" />
<circle cx="1085.2858301194146" cy="200" r="4" fill="black" />
<circle cx="1097.2858301194146" cy="200" r="4" fill="red" />
<circle cx="1109.2858301194146" cy="200" r="4" fill="red" />
<circle cx="1121.2858301194146" cy="200" r="6" fill="none" stroke="black" stroke-width="2" />
<circle cx="1121.2858301194146" cy="200" r="3" fill="black" />
<circle cx="1133.2858301194146" cy="200" r="4" fill="red" />
<circle cx="1145.2858301194146" cy="200" r="4" fill="black" />
<circle cx="1157.2858301194146" cy="200" r="4" fill="blue" />
<circle cx="1169.2858301194146" cy="200" r="4" fill="green" />
<circle cx="1181.2858301194146" cy="200" r="4" fill="red" />
<circle cx="1193.2858301194146" cy="200" r="6" fill="none" stroke="black" stroke-width="2" />
<circle cx="1193.2858301194146" cy="200" r="3" fill="black" />
<circle cx="1205.2858301194146" cy="200" r="6" fill="none" stroke="black" stroke-width="2" />
<circle cx="1205.2858301194146" cy="200" r="3" fill="black" />
<circle cx="1217.2858301194146" cy="200" r="6" fill="none" stroke="blue" stroke-width="2" />
<circle cx="1217.2858301194146" cy="200" r="3" fill="blue" />
<circle cx="1229.2858301194146" cy="200" r="4" fill="black" />
<circle cx="1241.2858301194146" cy="200" r="4" fill="blue" />
<circle cx="1253.2858301194146" cy="200" r="6" fill="none" stroke="blue" stroke-width="2" />
<circle cx="1253.2858301194146" cy="200" r="3" fill="blue" />
<circle cx="1265.2858301194146" cy="200" r="6" fill="none" stroke="black" stroke-width="2" />
<circle cx="1265.2858301194146" cy="200" r="3" fill="black" />
<circle cx="1277.2858301194146" cy="200" r="4" fill="blue" />
<circle cx="1289.2858301194146" cy="200" r="4" fill="black" />
<circle cx="1301.2858301194146" cy="200" r="6" fill="none" stroke="blue" stroke-width="2" />
<circle cx="1301.2858301194146" cy="200" r="3" fill="blue" />
<circle cx="1313.2858301194146" cy="200" r="4" fill="red" />
<circle cx="1325.2858301194146" cy="200" r="4" fill="red" />
<circle cx="1337.2858301194146" cy="200" r="6" fill="none" stroke="green" stroke-width="2" />
<circle cx="1337.2858301194146" cy="200" r="3" fill="green" />
<circle cx="1349.2858301194146" cy="200" r="6" fill="none" stroke="black" stroke-width="2" />
<circle cx="1349.2858301194146" cy="200" r="3" fill="black" />
<circle cx="1361.2858301194146" cy="200" r="4" fill="red" />
<circle cx="1373.2858301194146" cy="200" r="4" fill="red" />
<circle cx="1385.2858301194146" cy="200" r="6" fill="none" stroke="black" stroke-width="2" />
<circle cx="1385.2858301194146" cy="200" r="3" fill="black" />
<circle cx="1397.2858301194146" cy="200" r="6" fill="none" stroke="red" stroke-width="2" />
<circle cx="1397.2858301194146" cy="200" r="3" fill="red" />
<circle cx="1409.2858301194146" cy="200" r="4" fill="black" />
<circle cx="1421.2858301194146" cy="200" r="4" fill="black" />
<circle cx="1433.2858301194146" cy="200" r="4" fill="black" />
<circle cx="1445.2858301194146" cy="200" r="4" fill="blue" />
<circle cx="1457.2858301194146" cy="200" r="4" fill="red" />
<circle cx="1469.2858301194146" cy="200" r="4" fill="red" />
<circle cx="1481.2858301194146" cy="200" r="4" fill="black" />
<circle cx="1493.2858301194146" cy="200" r="4" fill="blue" />
<circle cx="1505.2858301194146" cy="200" r="6" fill="none" stroke="black" stroke-width="2" />
<circle cx="1505.2858301194146" cy="200" r="3" fill="black" />
<circle cx="1517.2858301194146" cy="200" r="4" fill="blue" />
<circle cx="1529.2858301194146" cy="200" r="4" fill="blue" />
<circle cx="1541.2858301194146" cy="200" r="4" fill="blue" />
<circle cx="1553.2858301194146" cy="200" r="4" fill="blue" />
<circle cx="1565.2858301194146" cy="200" r="4" fill="blue" />
<circle cx="1577.2858301194146" cy="200" r="4" fill="blue" />
<circle cx="1589.2858301194146" cy="200" r="4" fill="red" />
<circle cx="1601.2858301194146" cy="200" r="4" fill="black" />
<circle cx="1613.2858301194146" cy="200" r="4" fill="blue" />
<circle cx="1625.2858301194146" cy="200" r="4" fill="red" />
<circle cx="1637.2858301194146" cy="200" r="4" fill="blue" />
<circle cx="1649.2858301194146" cy="200" r="4" fill="blue" />
<circle cx="1661.2858301194146" cy="200" r="4" fill="red" />
<circle cx="1673.2858301194146" cy="200" r="4" fill="blue" />
<circle cx="1685.2858301194146" cy="200" r="4" fill="green" />
<circle cx="1697.2858301194146" cy="200" r="4" fill="black" />
<text x="50" y="225" fill="gray" style="font-size:12px;">2024-04-29T08:23:53+00:00</text>
<text x="900" y="225" fill="gray" style="font-size:12px;">2025-02-25T07:22:39+00:00</text>
</svg>