<svg xmlns="http://www.w3.org/2000/svg" width="1000" height="200" style="background-color: white; font-family: sans-serif;">
<line x1="50" y1="100" x2="950" y2="100" stroke="gray" stroke-width="1"/>
<path d="M 62.0 100 Q 56.0 80, 50.0 100" stroke="black" fill="none" marker-end="url(#arrowhead)"/>
<path d="M 74.0 100 Q 68.0 80, 62.0 100" stroke="black" fill="none" marker-end="url(#arrowhead)"/>
<path d="M 86.0 100 Q 74.0 80, 62.0 100" stroke="black" fill="none" marker-end="url(#arrowhead)"/>
<path d="M 86.0 100 Q 80.0 80, 74.0 100" stroke="black" fill="none" marker-end="url(#arrowhead)"/>
<path d="M 98.0 100 Q 92.0 80, 86.0 100" stroke="black" fill="none" marker-end="url(#arrowhead)"/>
<path d="M 394.07019226888775 100 Q 379.90105711548733 80, 365.731921962087 100" stroke="black" fill="none" marker-end="url(#arrowhead)"/>
<path d="M 412.9140570622017 100 Q 389.3229895121443 80, 365.731921962087 100" stroke="black" fill="none" marker-end="url(#arrowhead)"/>
<path d="M 412.9140570622017 100 Q 403.49212466554474 80, 394.07019226888775 100" stroke="black" fill="none" marker-end="url(#arrowhead)"/>
<path d="M 425.52569260046863 100 Q 419.2198748313352 80, 412.9140570622017 100" stroke="black" fill="none" marker-end="url(#arrowhead)"/>
<path d="M 456.1457853212133 100 Q 425.1079887950505 80, 394.07019226888775 100" stroke="black" fill="none" marker-end="url(#arrowhead)"/>
<path d="M 456.1457853212133 100 Q 434.5299211917075 80, 412.9140570622017 100" stroke="black" fill="none" marker-end="url(#arrowhead)"/>
<path d="M 456.1457853212133 100 Q 440.83573896084096 80, 425.52569260046863 100" stroke="black" fill="none" marker-end="url(#arrowhead)"/>
<path d="M 468.1457853212133 100 Q 431.1079887950505 80, 394.07019226888775 100" stroke="black" fill="none" marker-end="url(#arrowhead)"/>
<path d="M 468.1457853212133 100 Q 440.5299211917075 80, 412.9140570622017 100" stroke="black" fill="none" marker-end="url(#arrowhead)"/>
<path d="M 468.1457853212133 100 Q 446.83573896084096 80, 425.52569260046863 100" stroke="black" fill="none" marker-end="url(#arrowhead)"/>
<path d="M 480.1457853212133 100 Q 468.1457853212133 80, 456.1457853212133 100" stroke="black" fill="none" marker-end="url(#arrowhead)"/>
<path d="M 492.1457853212133 100 Q 458.83573896084096 80, 425.52569260046863 100" stroke="black" fill="none" marker-end="url(#arrowhead)"/>
<path d="M 492.1457853212133 100 Q 486.1457853212133 80, 480.1457853212133 100" stroke="black" fill="none" marker-end="url(#arrowhead)"/>
<path d="M 492.1457853212133 100 Q 452.5299211917075 80, 412.9140570622017 100" stroke="black" fill="none" marker-end="url(#arrowhead)"/>
<path d="M 492.1457853212133 100 Q 480.1457853212133 80, 468.1457853212133 100" stroke="black" fill="none" marker-end="url(#arrowhead)"/>
<path d="M 492.1457853212133 100 Q 443.1079887950505 80, 394.07019226888775 100" stroke="black" fill="none" marker-end="url(#arrowhead)"/>
<path d="M 504.1457853212133 100 Q 498.1457853212133 80, 492.1457853212133 100" stroke="black" fill="none" marker-end="url(#arrowhead)"/>
<path d="M 516.1457853212132 100 Q 510.1457853212132 80, 504.1457853212133 100" stroke="black" fill="none" marker-end="url(#arrowhead)"/>
<path d="M 528.1457853212132 100 Q 522.1457853212132 80, 516.1457853212132 100" stroke="black" fill="none" marker-end="url(#arrowhead)"/>
<path d="M 540.1457853212132 100 Q 528.1457853212132 80, 516.1457853212132 100" stroke="black" fill="none" marker-end="url(#arrowhead)"/>
<path d="M 540.1457853212132 100 Q 534.1457853212132 80, 528.1457853212132 100" stroke="black" fill="none" marker-end="url(#arrowhead)"/>
<path d="M 540.1457853212132 100 Q 522.1457853212132 80, 504.1457853212133 100" stroke="black" fill="none" marker-end="url(#arrowhead)"/>
<path d="M 663.2893515762997 100 Q 601.7175684487565 80, 540.1457853212132 100" stroke="black" fill="none" marker-end="url(#arrowhead)"/>
<path d="M 679.6229951731686 100 Q 609.8843902471909 80, 540.1457853212132 100" stroke="black" fill="none" marker-end="url(#arrowhead)"/>
<path d="M 713.2298646461088 100 Q 626.687824983661 80, 540.1457853212132 100" stroke="black" fill="none" marker-end="url(#arrowhead)"/>
<path d="M 713.2298646461088 100 Q 696.4264299096387 80, 679.6229951731686 100" stroke="black" fill="none" marker-end="url(#arrowhead)"/>
<path d="M 713.2298646461088 100 Q 563.0719608541552 80, 412.9140570622017 100" stroke="black" fill="none" marker-end="url(#arrowhead)"/>
<path d="M 725.2298646461088 100 Q 632.687824983661 80, 540.1457853212132 100" stroke="black" fill="none" marker-end="url(#arrowhead)"/>
<path d="M 725.2298646461088 100 Q 702.4264299096387 80, 679.6229951731686 100" stroke="black" fill="none" marker-end="url(#arrowhead)"/>
<path d="M 725.2298646461088 100 Q 569.0719608541552 80, 412.9140570622017 100" stroke="black" fill="none" marker-end="url(#arrowhead)"/>
<path d="M 725.2298646461088 100 Q 719.2298646461088 80, 713.2298646461088 100" stroke="black" fill="none" marker-end="url(#arrowhead)"/>
<path d="M 750.9804654026914 100 Q 738.1051650244001 80, 725.2298646461088 100" stroke="black" fill="none" marker-end="url(#arrowhead)"/>
<path d="M 762.9804654026914 100 Q 756.9804654026914 80, 750.9804654026914 100" stroke="black" fill="none" marker-end="url(#arrowhead)"/>
<path d="M 762.9804654026914 100 Q 587.9472612324465 80, 412.9140570622017 100" stroke="black" fill="none" marker-end="url(#arrowhead)"/>
<path d="M 774.9804654026914 100 Q 768.9804654026914 80, 762.9804654026914 100" stroke="black" fill="none" marker-end="url(#arrowhead)"/>
<path d="M 774.9804654026914 100 Q 593.9472612324465 80, 412.9140570622017 100" stroke="black" fill="none" marker-end="url(#arrowhead)"/>
<path d="M 786.9804654026914 100 Q 780.9804654026914 80, 774.9804654026914 100" stroke="black" fill="none" marker-end="url(#arrowhead)"/>
<path d="M 798.9804654026914 100 Q 792.9804654026914 80, 786.9804654026914 100" stroke="black" fill="none" marker-end="url(#arrowhead)"/>
<path d="M 810.9804654026914 100 Q 786.9804654026914 80, 762.9804654026914 100" stroke="black" fill="none" marker-end="url(#arrowhead)"/>
<path d="M 810.9804654026914 100 Q 611.9472612324465 80, 412.9140570622017 100" stroke="black" fill="none" marker-end="url(#arrowhead)"/>
<path d="M 822.9804654026914 100 Q 743.1349084894955 80, 663.2893515762997 100" stroke="black" fill="none" marker-end="url(#arrowhead)"/>
<path d="M 834.9804654026914 100 Q 822.9804654026914 80, 810.9804654026914 100" stroke="black" fill="none" marker-end="url(#arrowhead)"/>
<path d="M 846.9804654026914 100 Q 840.9804654026914 80, 834.9804654026914 100" stroke="black" fill="none" marker-end="url(#arrowhead)"/>
<path d="M 858.9804654026914 100 Q 852.9804654026914 80, 846.9804654026914 100" stroke="black" fill="none" marker-end="url(#arrowhead)"/>
<path d="M 858.9804654026914 100 Q 635.9472612324465 80, 412.9140570622017 100" stroke="black" fill="none" marker-end="url(#arrowhead)"/>
<path d="M 870.9804654026914 100 Q 641.9472612324465 80, 412.9140570622017 100" stroke="black" fill="none" marker-end="url(#arrowhead)"/>
<path d="M 870.9804654026914 100 Q 864.9804654026914 80, 858.9804654026914 100" stroke="black" fill="none" marker-end="url(#arrowhead)"/>
<path d="M 882.9804654026914 100 Q 876.9804654026914 80, 870.9804654026914 100" stroke="black" fill="none" marker-end="url(#arrowhead)"/>
<path d="M 894.9804654026914 100 Q 888.9804654026914 80, 882.9804654026914 100" stroke="black" fill="none" marker-end="url(#arrowhead)"/>
<path d="M 894.9804654026914 100 Q 653.9472612324465 80, 412.9140570622017 100" stroke="black" fill="none" marker-end="url(#arrowhead)"/>
<path d="M 906.9804654026914 100 Q 894.9804654026914 80, 882.9804654026914 100" stroke="black" fill="none" marker-end="url(#arrowhead)"/>
<path d="M 918.9804654026914 100 Q 912.9804654026914 80, 906.9804654026914 100" stroke="black" fill="none" marker-end="url(#arrowhead)"/>
<path d="M 930.9804654026914 100 Q 671.9472612324465 80, 412.9140570622017 100" stroke="black" fill="none" marker-end="url(#arrowhead)"/>
<path d="M 930.9804654026914 100 Q 924.9804654026914 80, 918.9804654026914 100" stroke="black" fill="none" marker-end="url(#arrowhead)"/>
<path d="M 942.9804654026914 100 Q 936.9804654026914 80, 930.9804654026914 100" stroke="black" fill="none" marker-end="url(#arrowhead)"/>
<path d="M 954.9804654026914 100 Q 930.9804654026914 80, 906.9804654026914 100" stroke="black" fill="none" marker-end="url(#arrowhead)"/>
<path d="M 966.9804654026914 100 Q 960.9804654026914 80, 954.9804654026914 100" stroke="black" fill="none" marker-end="url(#arrowhead)"/>
<path d="M 978.9804654026914 100 Q 972.9804654026914 80, 966.9804654026914 100" stroke="black" fill="none" marker-end="url(#arrowhead)"/>
<path d="M 990.9804654026914 100 Q 984.9804654026914 80, 978.9804654026914 100" stroke="black" fill="none" marker-end="url(#arrowhead)"/>
<path d="M 990.9804654026914 100 Q 701.9472612324465 80, 412.9140570622017 100" stroke="black" fill="none" marker-end="url(#arrowhead)"/>
<path d="M 1014.9804654026914 100 Q 1008.9804654026914 80, 1002.9804654026914 100" stroke="black" fill="none" marker-end="url(#arrowhead)"/>
<path d="M 1026.9804654026914 100 Q 1014.9804654026914 80, 1002.9804654026914 100" stroke="black" fill="none" marker-end="url(#arrowhead)"/>
<path d="M 1026.9804654026914 100 Q 1020.9804654026914 80, 1014.9804654026914 100" stroke="black" fill="none" marker-end="url(#arrowhead)"/>
<path d="M 1038.9804654026914 100 Q 1014.9804654026914 80, 990.9804654026914 100" stroke="black" fill="none" marker-end="url(#arrowhead)"/>

<defs>
  <marker id="arrowhead" markerWidth="5" markerHeight="5" 
          refX="2" refY="2" orient="auto" fill="black">
    <path d="M0,0 L0,4 L4,2 z" />
  </marker>
</defs>

<circle cx="50.0" cy="100" r="6" fill="none" stroke="blue" stroke-width="2" />
<circle cx="50.0" cy="100" r="3" fill="blue" />
<circle cx="62.0" cy="100" r="4" fill="red" />
<circle cx="74.0" cy="100" r="6" fill="none" stroke="black" stroke-width="2" />
<circle cx="74.0" cy="100" r="3" fill="black" />
<circle cx="86.0" cy="100" r="4" fill="black" />
<circle cx="98.0" cy="100" r="4" fill="black" />
<circle cx="110.0" cy="100" r="4" fill="blue" />
<circle cx="365.731921962087" cy="100" r="6" fill="none" stroke="blue" stroke-width="2" />
<circle cx="365.731921962087" cy="100" r="3" fill="blue" />
<circle cx="382.07019226888775" cy="100" r="4" fill="red" />
<circle cx="394.07019226888775" cy="100" r="4" fill="blue" />
<circle cx="412.9140570622017" cy="100" r="4" fill="blue" />
<circle cx="425.52569260046863" cy="100" r="4" fill="blue" />
<circle cx="456.1457853212133" cy="100" r="4" fill="blue" />
<circle cx="468.1457853212133" cy="100" r="4" fill="blue" />
<circle cx="480.1457853212133" cy="100" r="4" fill="red" />
<circle cx="492.1457853212133" cy="100" r="4" fill="blue" />
<circle cx="504.1457853212133" cy="100" r="4" fill="blue" />
<circle cx="516.1457853212132" cy="100" r="4" fill="black" />
<circle cx="528.1457853212132" cy="100" r="4" fill="black" />
<circle cx="540.1457853212132" cy="100" r="4" fill="blue" />
<circle cx="663.2893515762997" cy="100" r="4" fill="blue" />
<circle cx="679.6229951731686" cy="100" r="4" fill="blue" />
<circle cx="713.2298646461088" cy="100" r="4" fill="red" />
<circle cx="725.2298646461088" cy="100" r="4" fill="blue" />
<circle cx="750.9804654026914" cy="100" r="4" fill="blue" />
<circle cx="762.9804654026914" cy="100" r="4" fill="blue" />
<circle cx="774.9804654026914" cy="100" r="4" fill="black" />
<circle cx="786.9804654026914" cy="100" r="4" fill="black" />
<circle cx="798.9804654026914" cy="100" r="4" fill="green" />
<circle cx="810.9804654026914" cy="100" r="4" fill="blue" />
<circle cx="822.9804654026914" cy="100" r="4" fill="blue" />
<circle cx="834.9804654026914" cy="100" r="4" fill="blue" />
<circle cx="846.9804654026914" cy="100" r="4" fill="blue" />
<circle cx="858.9804654026914" cy="100" r="4" fill="black" />
<circle cx="870.9804654026914" cy="100" r="4" fill="blue" />
<circle cx="882.9804654026914" cy="100" r="4" fill="blue" />
<circle cx="894.9804654026914" cy="100" r="4" fill="blue" />
<circle cx="906.9804654026914" cy="100" r="4" fill="red" />
<circle cx="918.9804654026914" cy="100" r="4" fill="black" />
<circle cx="930.9804654026914" cy="100" r="4" fill="red" />
<circle cx="942.9804654026914" cy="100" r="4" fill="black" />
<circle cx="954.9804654026914" cy="100" r="4" fill="blue" />
<circle cx="966.9804654026914" cy="100" r="4" fill="red" />
<circle cx="978.9804654026914" cy="100" r="4" fill="blue" />
<circle cx="990.9804654026914" cy="100" r="4" fill="blue" />
<circle cx="1002.9804654026914" cy="100" r="4" fill="red" />
<circle cx="1014.9804654026914" cy="100" r="4" fill="black" />
<circle cx="1026.9804654026914" cy="100" r="4" fill="black" />
<circle cx="1038.9804654026914" cy="100" r="4" fill="blue" />
<text x="50" y="125" fill="gray" style="font-size:12px;">2024-02-16T14:53:11+00:00</text>
<text x="900" y="125" fill="gray" style="font-size:12px;">2025-02-26T14:34:38+00:00</text>
</svg>