<svg xmlns="http://www.w3.org/2000/svg" width="1000" height="400" style="background-color: white; font-family: sans-serif;">
<line x1="50" y1="200" x2="950" y2="200" stroke="gray" stroke-width="1"/>
<path d="M 62.0 200 Q 56.0 180, 50.0 200" stroke="black" fill="none" marker-end="url(#arrowhead)"/>
<path d="M 96.31174726164184 200 Q 73.15587363082092 180, 50.0 200" stroke="black" fill="none" marker-end="url(#arrowhead)"/>
<path d="M 96.31174726164184 200 Q 85.15587363082092 180, 74.0 200" stroke="black" fill="none" marker-end="url(#arrowhead)"/>
<path d="M 109.59581627815933 200 Q 79.79790813907967 180, 50.0 200" stroke="black" fill="none" marker-end="url(#arrowhead)"/>
<path d="M 109.59581627815933 200 Q 102.95378176990059 180, 96.31174726164184 200" stroke="black" fill="none" marker-end="url(#arrowhead)"/>
<path d="M 121.59581627815933 200 Q 115.59581627815933 180, 109.59581627815933 200" stroke="black" fill="none" marker-end="url(#arrowhead)"/>
<path d="M 133.59581627815933 200 Q 127.59581627815933 180, 121.59581627815933 200" stroke="black" fill="none" marker-end="url(#arrowhead)"/>
<path d="M 145.59581627815933 200 Q 139.59581627815933 180, 133.59581627815933 200" stroke="black" fill="none" marker-end="url(#arrowhead)"/>
<path d="M 145.59581627815933 200 Q 120.95378176990059 180, 96.31174726164184 200" stroke="black" fill="none" marker-end="url(#arrowhead)"/>
<path d="M 157.59581627815933 200 Q 151.59581627815933 180, 145.59581627815933 200" stroke="black" fill="none" marker-end="url(#arrowhead)"/>
<path d="M 169.59581627815933 200 Q 157.59581627815933 180, 145.59581627815933 200" stroke="black" fill="none" marker-end="url(#arrowhead)"/>
<path d="M 169.59581627815933 200 Q 163.59581627815933 180, 157.59581627815933 200" stroke="black" fill="none" marker-end="url(#arrowhead)"/>
<path d="M 181.59581627815933 200 Q 157.59581627815933 180, 133.59581627815933 200" stroke="black" fill="none" marker-end="url(#arrowhead)"/>
<path d="M 181.59581627815933 200 Q 175.59581627815933 180, 169.59581627815933 200" stroke="black" fill="none" marker-end="url(#arrowhead)"/>
<path d="M 241.59581627815933 200 Q 235.59581627815933 180, 229.59581627815933 200" stroke="black" fill="none" marker-end="url(#arrowhead)"/>
<path d="M 265.5958162781593 200 Q 253.5958162781593 180, 241.59581627815933 200" stroke="black" fill="none" marker-end="url(#arrowhead)"/>
<path d="M 277.5958162781593 200 Q 271.5958162781593 180, 265.5958162781593 200" stroke="black" fill="none" marker-end="url(#arrowhead)"/>
<path d="M 301.5958162781593 200 Q 295.5958162781593 180, 289.5958162781593 200" stroke="black" fill="none" marker-end="url(#arrowhead)"/>
<path d="M 301.5958162781593 200 Q 198.95378176990056 180, 96.31174726164184 200" stroke="black" fill="none" marker-end="url(#arrowhead)"/>
<path d="M 313.5958162781593 200 Q 307.5958162781593 180, 301.5958162781593 200" stroke="black" fill="none" marker-end="url(#arrowhead)"/>
<path d="M 349.5958162781593 200 Q 343.5958162781593 180, 337.5958162781593 200" stroke="black" fill="none" marker-end="url(#arrowhead)"/>
<path d="M 409.5958162781593 200 Q 403.5958162781593 180, 397.5958162781593 200" stroke="black" fill="none" marker-end="url(#arrowhead)"/>
<path d="M 421.5958162781593 200 Q 415.5958162781593 180, 409.5958162781593 200" stroke="black" fill="none" marker-end="url(#arrowhead)"/>
<path d="M 445.5958162781593 200 Q 439.5958162781593 180, 433.5958162781593 200" stroke="black" fill="none" marker-end="url(#arrowhead)"/>
<path d="M 457.5958162781593 200 Q 451.5958162781593 180, 445.5958162781593 200" stroke="black" fill="none" marker-end="url(#arrowhead)"/>
<path d="M 481.5958162781593 200 Q 475.5958162781593 180, 469.5958162781593 200" stroke="black" fill="none" marker-end="url(#arrowhead)"/>
<path d="M 493.5958162781593 200 Q 487.5958162781593 180, 481.5958162781593 200" stroke="black" fill="none" marker-end="url(#arrowhead)"/>
<path d="M 505.5958162781593 200 Q 499.5958162781593 180, 493.5958162781593 200" stroke="black" fill="none" marker-end="url(#arrowhead)"/>
<path d="M 517.5958162781593 200 Q 511.5958162781593 180, 505.5958162781593 200" stroke="black" fill="none" marker-end="url(#arrowhead)"/>
<path d="M 529.5958162781593 200 Q 445.5958162781593 180, 361.5958162781593 200" stroke="black" fill="none" marker-end="url(#arrowhead)"/>
<path d="M 541.5958162781593 200 Q 535.5958162781593 180, 529.5958162781593 200" stroke="black" fill="none" marker-end="url(#arrowhead)"/>
<path d="M 553.5958162781593 200 Q 547.5958162781593 180, 541.5958162781593 200" stroke="black" fill="none" marker-end="url(#arrowhead)"/>
<path d="M 565.5958162781593 200 Q 559.5958162781593 180, 553.5958162781593 200" stroke="black" fill="none" marker-end="url(#arrowhead)"/>
<path d="M 577.5958162781593 200 Q 571.5958162781593 180, 565.5958162781593 200" stroke="black" fill="none" marker-end="url(#arrowhead)"/>
<path d="M 589.5958162781593 200 Q 583.5958162781593 180, 577.5958162781593 200" stroke="black" fill="none" marker-end="url(#arrowhead)"/>
<path d="M 613.5958162781593 200 Q 607.5958162781593 180, 601.5958162781593 200" stroke="black" fill="none" marker-end="url(#arrowhead)"/>
<path d="M 661.5958162781593 200 Q 655.5958162781593 180, 649.5958162781593 200" stroke="black" fill="none" marker-end="url(#arrowhead)"/>
<path d="M 673.5958162781593 200 Q 667.5958162781593 180, 661.5958162781593 200" stroke="black" fill="none" marker-end="url(#arrowhead)"/>
<path d="M 685.5958162781593 200 Q 679.5958162781593 180, 673.5958162781593 200" stroke="black" fill="none" marker-end="url(#arrowhead)"/>
<path d="M 697.5958162781593 200 Q 691.5958162781593 180, 685.5958162781593 200" stroke="black" fill="none" marker-end="url(#arrowhead)"/>
<path d="M 721.5958162781593 200 Q 715.5958162781593 180, 709.5958162781593 200" stroke="black" fill="none" marker-end="url(#arrowhead)"/>
<path d="M 733.5958162781593 200 Q 727.5958162781593 180, 721.5958162781593 200" stroke="black" fill="none" marker-end="url(#arrowhead)"/>
<path d="M 745.5958162781593 200 Q 739.5958162781593 180, 733.5958162781593 200" stroke="black" fill="none" marker-end="url(#arrowhead)"/>
<path d="M 757.5958162781593 200 Q 739.5958162781593 180, 721.5958162781593 200" stroke="black" fill="none" marker-end="url(#arrowhead)"/>
<path d="M 769.5958162781593 200 Q 763.5958162781593 180, 757.5958162781593 200" stroke="black" fill="none" marker-end="url(#arrowhead)"/>
<path d="M 781.5958162781593 200 Q 775.5958162781593 180, 769.5958162781593 200" stroke="black" fill="none" marker-end="url(#arrowhead)"/>
<path d="M 793.5958162781593 200 Q 787.5958162781593 180, 781.5958162781593 200" stroke="black" fill="none" marker-end="url(#arrowhead)"/>
<path d="M 805.5958162781593 200 Q 799.5958162781593 180, 793.5958162781593 200" stroke="black" fill="none" marker-end="url(#arrowhead)"/>
<path d="M 817.5958162781593 200 Q 811.5958162781593 180, 805.5958162781593 200" stroke="black" fill="none" marker-end="url(#arrowhead)"/>
<path d="M 829.5958162781593 200 Q 823.5958162781593 180, 817.5958162781593 200" stroke="black" fill="none" marker-end="url(#arrowhead)"/>
<path d="M 853.5958162781593 200 Q 847.5958162781593 180, 841.5958162781593 200" stroke="black" fill="none" marker-end="url(#arrowhead)"/>
<path d="M 865.5958162781593 200 Q 709.5958162781593 180, 553.5958162781593 200" stroke="black" fill="none" marker-end="url(#arrowhead)"/>
<path d="M 865.5958162781593 200 Q 859.5958162781593 180, 853.5958162781593 200" stroke="black" fill="none" marker-end="url(#arrowhead)"/>
<path d="M 877.5958162781593 200 Q 871.5958162781593 180, 865.5958162781593 200" stroke="black" fill="none" marker-end="url(#arrowhead)"/>
<path d="M 889.5958162781593 200 Q 883.5958162781593 180, 877.5958162781593 200" stroke="black" fill="none" marker-end="url(#arrowhead)"/>
<path d="M 901.5958162781593 200 Q 895.5958162781593 180, 889.5958162781593 200" stroke="black" fill="none" marker-end="url(#arrowhead)"/>
<path d="M 925.5958162781593 200 Q 919.5958162781593 180, 913.5958162781593 200" stroke="black" fill="none" marker-end="url(#arrowhead)"/>
<path d="M 949.5958162781593 200 Q 943.5958162781593 180, 937.5958162781593 200" stroke="black" fill="none" marker-end="url(#arrowhead)"/>
<path d="M 961.5958162781593 200 Q 949.5958162781593 180, 937.5958162781593 200" stroke="black" fill="none" marker-end="url(#arrowhead)"/>
<path d="M 985.5958162781593 200 Q 979.5958162781593 180, 973.5958162781593 200" stroke="black" fill="none" marker-end="url(#arrowhead)"/>
<path d="M 997.5958162781593 200 Q 991.5958162781593 180, 985.5958162781593 200" stroke="black" fill="none" marker-end="url(#arrowhead)"/>
<path d="M 1009.5958162781593 200 Q 991.5958162781593 180, 973.5958162781593 200" stroke="black" fill="none" marker-end="url(#arrowhead)"/>
<path d="M 1033.5958162781594 200 Q 1021.5958162781594 180, 1009.5958162781593 200" stroke="black" fill="none" marker-end="url(#arrowhead)"/>
<path d="M 1033.5958162781594 200 Q 1009.5958162781594 180, 985.5958162781593 200" stroke="black" fill="none" marker-end="url(#arrowhead)"/>
<path d="M 1057.5958162781594 200 Q 1051.5958162781594 180, 1045.5958162781594 200" stroke="black" fill="none" marker-end="url(#arrowhead)"/>
<path d="M 1069.5958162781594 200 Q 1063.5958162781594 180, 1057.5958162781594 200" stroke="black" fill="none" marker-end="url(#arrowhead)"/>
<path d="M 1081.5958162781594 200 Q 1075.5958162781594 180, 1069.5958162781594 200" stroke="black" fill="none" marker-end="url(#arrowhead)"/>
<path d="M 1081.5958162781594 200 Q 1063.5958162781594 180, 1045.5958162781594 200" stroke="black" fill="none" marker-end="url(#arrowhead)"/>
<path d="M 1081.5958162781594 200 Q 1069.5958162781594 180, 1057.5958162781594 200" stroke="black" fill="none" marker-end="url(#arrowhead)"/>
<path d="M 1093.5958162781594 200 Q 1087.5958162781594 180, 1081.5958162781594 200" stroke="black" fill="none" marker-end="url(#arrowhead)"/>
<path d="M 1105.5958162781594 200 Q 1099.5958162781594 180, 1093.5958162781594 200" stroke="black" fill="none" marker-end="url(#arrowhead)"/>
<path d="M 1117.5958162781594 200 Q 1111.5958162781594 180, 1105.5958162781594 200" stroke="black" fill="none" marker-end="url(#arrowhead)"/>
<path d="M 1129.5958162781594 200 Q 1123.5958162781594 180, 1117.5958162781594 200" stroke="black" fill="none" marker-end="url(#arrowhead)"/>
<path d="M 1141.5958162781594 200 Q 1135.5958162781594 180, 1129.5958162781594 200" stroke="black" fill="none" marker-end="url(#arrowhead)"/>
<path d="M 1153.5958162781594 200 Q 1147.5958162781594 180, 1141.5958162781594 200" stroke="black" fill="none" marker-end="url(#arrowhead)"/>
<path d="M 1177.5958162781594 200 Q 1171.5958162781594 180, 1165.5958162781594 200" stroke="black" fill="none" marker-end="url(#arrowhead)"/>
<path d="M 1189.5958162781594 200 Q 1183.5958162781594 180, 1177.5958162781594 200" stroke="black" fill="none" marker-end="url(#arrowhead)"/>
<path d="M 1201.5958162781594 200 Q 1195.5958162781594 180, 1189.5958162781594 200" stroke="black" fill="none" marker-end="url(#arrowhead)"/>
<path d="M 1213.5958162781594 200 Q 1207.5958162781594 180, 1201.5958162781594 200" stroke="black" fill="none" marker-end="url(#arrowhead)"/>
<path d="M 1225.5958162781594 200 Q 1219.5958162781594 180, 1213.5958162781594 200" stroke="black" fill="none" marker-end="url(#arrowhead)"/>
<path d="M 1237.5958162781594 200 Q 1219.5958162781594 180, 1201.5958162781594 200" stroke="black" fill="none" marker-end="url(#arrowhead)"/>
<path d="M 1249.5958162781594 200 Q 1237.5958162781594 180, 1225.5958162781594 200" stroke="black" fill="none" marker-end="url(#arrowhead)"/>
<path d="M 1273.5958162781594 200 Q 1267.5958162781594 180, 1261.5958162781594 200" stroke="black" fill="none" marker-end="url(#arrowhead)"/>
<path d="M 1297.5958162781594 200 Q 1291.5958162781594 180, 1285.5958162781594 200" stroke="black" fill="none" marker-end="url(#arrowhead)"/>
<path d="M 1321.5958162781594 200 Q 1315.5958162781594 180, 1309.5958162781594 200" stroke="black" fill="none" marker-end="url(#arrowhead)"/>
<path d="M 1333.5958162781594 200 Q 1321.5958162781594 180, 1309.5958162781594 200" stroke="black" fill="none" marker-end="url(#arrowhead)"/>
<path d="M 1333.5958162781594 200 Q 1327.5958162781594 180, 1321.5958162781594 200" stroke="black" fill="none" marker-end="url(#arrowhead)"/>
<path d="M 1345.5958162781594 200 Q 1339.5958162781594 180, 1333.5958162781594 200" stroke="black" fill="none" marker-end="url(#arrowhead)"/>
<path d="M 1345.5958162781594 200 Q 1213.5958162781594 180, 1081.5958162781594 200" stroke="black" fill="none" marker-end="url(#arrowhead)"/>
<path d="M 1357.5958162781594 200 Q 1345.5958162781594 180, 1333.5958162781594 200" stroke="black" fill="none" marker-end="url(#arrowhead)"/>
<path d="M 1357.5958162781594 200 Q 1351.5958162781594 180, 1345.5958162781594 200" stroke="black" fill="none" marker-end="url(#arrowhead)"/>
<path d="M 1369.5958162781594 200 Q 1363.5958162781594 180, 1357.5958162781594 200" stroke="black" fill="none" marker-end="url(#arrowhead)"/>
<path d="M 1381.5958162781594 200 Q 1375.5958162781594 180, 1369.5958162781594 200" stroke="black" fill="none" marker-end="url(#arrowhead)"/>
<path d="M 1393.5958162781594 200 Q 1321.5958162781594 180, 1249.5958162781594 200" stroke="black" fill="none" marker-end="url(#arrowhead)"/>
<path d="M 1405.5958162781594 200 Q 1399.5958162781594 180, 1393.5958162781594 200" stroke="black" fill="none" marker-end="url(#arrowhead)"/>
<path d="M 1417.5958162781594 200 Q 1411.5958162781594 180, 1405.5958162781594 200" stroke="black" fill="none" marker-end="url(#arrowhead)"/>
<path d="M 1429.5958162781594 200 Q 1345.5958162781594 180, 1261.5958162781594 200" stroke="black" fill="none" marker-end="url(#arrowhead)"/>
<path d="M 1441.5958162781594 200 Q 1399.5958162781594 180, 1357.5958162781594 200" stroke="black" fill="none" marker-end="url(#arrowhead)"/>
<path d="M 1441.5958162781594 200 Q 1405.5958162781594 180, 1369.5958162781594 200" stroke="black" fill="none" marker-end="url(#arrowhead)"/>
<path d="M 1441.5958162781594 200 Q 1411.5958162781594 180, 1381.5958162781594 200" stroke="black" fill="none" marker-end="url(#arrowhead)"/>
<path d="M 1453.5958162781594 200 Q 1375.5958162781594 180, 1297.5958162781594 200" stroke="black" fill="none" marker-end="url(#arrowhead)"/>
<path d="M 1453.5958162781594 200 Q 1447.5958162781594 180, 1441.5958162781594 200" stroke="black" fill="none" marker-end="url(#arrowhead)"/>
<path d="M 1465.5958162781594 200 Q 1381.5958162781594 180, 1297.5958162781594 200" stroke="black" fill="none" marker-end="url(#arrowhead)"/>
<path d="M 1465.5958162781594 200 Q 1453.5958162781594 180, 1441.5958162781594 200" stroke="black" fill="none" marker-end="url(#arrowhead)"/>
<path d="M 1465.5958162781594 200 Q 1459.5958162781594 180, 1453.5958162781594 200" stroke="black" fill="none" marker-end="url(#arrowhead)"/>
<path d="M 1477.5958162781594 200 Q 1471.5958162781594 180, 1465.5958162781594 200" stroke="black" fill="none" marker-end="url(#arrowhead)"/>
<path d="M 1489.5958162781594 200 Q 1261.5958162781594 180, 1033.5958162781594 200" stroke="black" fill="none" marker-end="url(#arrowhead)"/>
<path d="M 1501.5958162781594 200 Q 1495.5958162781594 180, 1489.5958162781594 200" stroke="black" fill="none" marker-end="url(#arrowhead)"/>
<path d="M 1513.5958162781594 200 Q 1507.5958162781594 180, 1501.5958162781594 200" stroke="black" fill="none" marker-end="url(#arrowhead)"/>
<path d="M 1525.5958162781594 200 Q 1501.5958162781594 180, 1477.5958162781594 200" stroke="black" fill="none" marker-end="url(#arrowhead)"/>
<path d="M 1537.5958162781594 200 Q 1531.5958162781594 180, 1525.5958162781594 200" stroke="black" fill="none" marker-end="url(#arrowhead)"/>
<path d="M 1549.5958162781594 200 Q 1543.5958162781594 180, 1537.5958162781594 200" stroke="black" fill="none" marker-end="url(#arrowhead)"/>
<path d="M 1561.5958162781594 200 Q 1549.5958162781594 180, 1537.5958162781594 200" stroke="black" fill="none" marker-end="url(#arrowhead)"/>
<path d="M 1573.5958162781594 200 Q 1555.5958162781594 180, 1537.5958162781594 200" stroke="black" fill="none" marker-end="url(#arrowhead)"/>
<path d="M 1573.5958162781594 200 Q 1567.5958162781594 180, 1561.5958162781594 200" stroke="black" fill="none" marker-end="url(#arrowhead)"/>
<path d="M 1585.5958162781594 200 Q 1579.5958162781594 180, 1573.5958162781594 200" stroke="black" fill="none" marker-end="url(#arrowhead)"/>
<path d="M 1597.5958162781594 200 Q 1573.5958162781594 180, 1549.5958162781594 200" stroke="black" fill="none" marker-end="url(#arrowhead)"/>
<path d="M 1621.5958162781594 200 Q 1615.5958162781594 180, 1609.5958162781594 200" stroke="black" fill="none" marker-end="url(#arrowhead)"/>
<path d="M 1633.5958162781594 200 Q 1627.5958162781594 180, 1621.5958162781594 200" stroke="black" fill="none" marker-end="url(#arrowhead)"/>
<path d="M 1645.5958162781594 200 Q 1633.5958162781594 180, 1621.5958162781594 200" stroke="black" fill="none" marker-end="url(#arrowhead)"/>
<path d="M 1645.5958162781594 200 Q 1639.5958162781594 180, 1633.5958162781594 200" stroke="black" fill="none" marker-end="url(#arrowhead)"/>
<path d="M 1657.5958162781594 200 Q 1651.5958162781594 180, 1645.5958162781594 200" stroke="black" fill="none" marker-end="url(#arrowhead)"/>
<path d="M 1669.5958162781594 200 Q 1375.5958162781594 180, 1081.5958162781594 200" stroke="black" fill="none" marker-end="url(#arrowhead)"/>
<path d="M 1669.5958162781594 200 Q 1657.5958162781594 180, 1645.5958162781594 200" stroke="black" fill="none" marker-end="url(#arrowhead)"/>
<path d="M 1681.5958162781594 200 Q 1669.5958162781594 180, 1657.5958162781594 200" stroke="black" fill="none" marker-end="url(#arrowhead)"/>
<path d="M 1693.5958162781594 200 Q 1687.5958162781594 180, 1681.5958162781594 200" stroke="black" fill="none" marker-end="url(#arrowhead)"/>
<path d="M 1705.5958162781594 200 Q 1693.5958162781594 180, 1681.5958162781594 200" stroke="black" fill="none" marker-end="url(#arrowhead)"/>
<path d="M 1705.5958162781594 200 Q 1573.5958162781594 180, 1441.5958162781594 200" stroke="black" fill="none" marker-end="url(#arrowhead)"/>
<path d="M 1717.5958162781594 200 Q 1711.5958162781594 180, 1705.5958162781594 200" stroke="black" fill="none" marker-end="url(#arrowhead)"/>
<path d="M 1729.5958162781594 200 Q 1675.5958162781594 180, 1621.5958162781594 200" stroke="black" fill="none" marker-end="url(#arrowhead)"/>
<path d="M 1729.5958162781594 200 Q 1717.5958162781594 180, 1705.5958162781594 200" stroke="black" fill="none" marker-end="url(#arrowhead)"/>
<path d="M 1729.5958162781594 200 Q 1723.5958162781594 180, 1717.5958162781594 200" stroke="black" fill="none" marker-end="url(#arrowhead)"/>
<path d="M 1741.5958162781594 200 Q 1681.5958162781594 180, 1621.5958162781594 200" stroke="black" fill="none" marker-end="url(#arrowhead)"/>
<path d="M 1741.5958162781594 200 Q 1729.5958162781594 180, 1717.5958162781594 200" stroke="black" fill="none" marker-end="url(#arrowhead)"/>
<path d="M 1741.5958162781594 200 Q 1735.5958162781594 180, 1729.5958162781594 200" stroke="black" fill="none" marker-end="url(#arrowhead)"/>
<path d="M 1753.5958162781594 200 Q 1747.5958162781594 180, 1741.5958162781594 200" stroke="black" fill="none" marker-end="url(#arrowhead)"/>
<path d="M 1753.5958162781594 200 Q 1741.5958162781594 180, 1729.5958162781594 200" stroke="black" fill="none" marker-end="url(#arrowhead)"/>
<path d="M 1765.5958162781594 200 Q 1759.5958162781594 180, 1753.5958162781594 200" stroke="black" fill="none" marker-end="url(#arrowhead)"/>
<path d="M 1777.5958162781594 200 Q 1765.5958162781594 180, 1753.5958162781594 200" stroke="black" fill="none" marker-end="url(#arrowhead)"/>
<path d="M 1777.5958162781594 200 Q 1771.5958162781594 180, 1765.5958162781594 200" stroke="black" fill="none" marker-end="url(#arrowhead)"/>
<path d="M 1789.5958162781594 200 Q 1783.5958162781594 180, 1777.5958162781594 200" stroke="black" fill="none" marker-end="url(#arrowhead)"/>
<path d="M 1801.5958162781594 200 Q 1789.5958162781594 180, 1777.5958162781594 200" stroke="black" fill="none" marker-end="url(#arrowhead)"/>
<path d="M 1801.5958162781594 200 Q 1795.5958162781594 180, 1789.5958162781594 200" stroke="black" fill="none" marker-end="url(#arrowhead)"/>

<defs>
  <marker id="arrowhead" markerWidth="5" markerHeight="5" 
          refX="2" refY="2" orient="auto" fill="black">
    <path d="M0,0 L0,4 L4,2 z" />
  </marker>
</defs>

<circle cx="50.0" cy="200" r="6" fill="none" stroke="blue" stroke-width="2" />
<circle cx="50.0" cy="200" r="3" fill="blue" />
<circle cx="62.0" cy="200" r="4" fill="black" />
<circle cx="74.0" cy="200" r="6" fill="none" stroke="blue" stroke-width="2" />
<circle cx="74.0" cy="200" r="3" fill="blue" />
<circle cx="96.31174726164184" cy="200" r="4" fill="red" />
<circle cx="109.59581627815933" cy="200" r="4" fill="red" />
<circle cx="121.59581627815933" cy="200" r="4" fill="red" />
<circle cx="133.59581627815933" cy="200" r="4" fill="red" />
<circle cx="145.59581627815933" cy="200" r="4" fill="red" />
<circle cx="157.59581627815933" cy="200" r="4" fill="black" />
<circle cx="169.59581627815933" cy="200" r="4" fill="black" />
<circle cx="181.59581627815933" cy="200" r="6" fill="none" stroke="black" stroke-width="2" />
<circle cx="181.59581627815933" cy="200" r="3" fill="black" />
<circle cx="193.59581627815933" cy="200" r="6" fill="none" stroke="blue" stroke-width="2" />
<circle cx="193.59581627815933" cy="200" r="3" fill="blue" />
<circle cx="205.59581627815933" cy="200" r="4" fill="black" />
<circle cx="217.59581627815933" cy="200" r="6" fill="none" stroke="blue" stroke-width="2" />
<circle cx="217.59581627815933" cy="200" r="3" fill="blue" />
<circle cx="229.59581627815933" cy="200" r="6" fill="none" stroke="blue" stroke-width="2" />
<circle cx="229.59581627815933" cy="200" r="3" fill="blue" />
<circle cx="241.59581627815933" cy="200" r="4" fill="black" />
<circle cx="253.59581627815933" cy="200" r="6" fill="none" stroke="blue" stroke-width="2" />
<circle cx="253.59581627815933" cy="200" r="3" fill="blue" />
<circle cx="265.5958162781593" cy="200" r="4" fill="black" />
<circle cx="277.5958162781593" cy="200" r="4" fill="black" />
<circle cx="289.5958162781593" cy="200" r="4" fill="red" />
<circle cx="301.5958162781593" cy="200" r="6" fill="none" stroke="blue" stroke-width="2" />
<circle cx="301.5958162781593" cy="200" r="3" fill="blue" />
<circle cx="313.5958162781593" cy="200" r="4" fill="black" />
<circle cx="325.5958162781593" cy="200" r="6" fill="none" stroke="blue" stroke-width="2" />
<circle cx="325.5958162781593" cy="200" r="3" fill="blue" />
<circle cx="337.5958162781593" cy="200" r="4" fill="black" />
<circle cx="349.5958162781593" cy="200" r="6" fill="none" stroke="blue" stroke-width="2" />
<circle cx="349.5958162781593" cy="200" r="3" fill="blue" />
<circle cx="361.5958162781593" cy="200" r="6" fill="none" stroke="black" stroke-width="2" />
<circle cx="361.5958162781593" cy="200" r="3" fill="black" />
<circle cx="373.5958162781593" cy="200" r="6" fill="none" stroke="blue" stroke-width="2" />
<circle cx="373.5958162781593" cy="200" r="3" fill="blue" />
<circle cx="385.5958162781593" cy="200" r="6" fill="none" stroke="blue" stroke-width="2" />
<circle cx="385.5958162781593" cy="200" r="3" fill="blue" />
<circle cx="397.5958162781593" cy="200" r="4" fill="red" />
<circle cx="409.5958162781593" cy="200" r="4" fill="black" />
<circle cx="421.5958162781593" cy="200" r="6" fill="none" stroke="blue" stroke-width="2" />
<circle cx="421.5958162781593" cy="200" r="3" fill="blue" />
<circle cx="433.5958162781593" cy="200" r="4" fill="black" />
<circle cx="445.5958162781593" cy="200" r="6" fill="none" stroke="blue" stroke-width="2" />
<circle cx="445.5958162781593" cy="200" r="3" fill="blue" />
<circle cx="457.5958162781593" cy="200" r="6" fill="none" stroke="blue" stroke-width="2" />
<circle cx="457.5958162781593" cy="200" r="3" fill="blue" />
<circle cx="469.5958162781593" cy="200" r="4" fill="red" />
<circle cx="481.5958162781593" cy="200" r="4" fill="black" />
<circle cx="493.5958162781593" cy="200" r="4" fill="black" />
<circle cx="505.5958162781593" cy="200" r="6" fill="none" stroke="blue" stroke-width="2" />
<circle cx="505.5958162781593" cy="200" r="3" fill="blue" />
<circle cx="517.5958162781593" cy="200" r="6" fill="none" stroke="blue" stroke-width="2" />
<circle cx="517.5958162781593" cy="200" r="3" fill="blue" />
<circle cx="529.5958162781593" cy="200" r="4" fill="blue" />
<circle cx="541.5958162781593" cy="200" r="6" fill="none" stroke="blue" stroke-width="2" />
<circle cx="541.5958162781593" cy="200" r="3" fill="blue" />
<circle cx="553.5958162781593" cy="200" r="4" fill="red" />
<circle cx="565.5958162781593" cy="200" r="6" fill="none" stroke="blue" stroke-width="2" />
<circle cx="565.5958162781593" cy="200" r="3" fill="blue" />
<circle cx="577.5958162781593" cy="200" r="4" fill="blue" />
<circle cx="589.5958162781593" cy="200" r="6" fill="none" stroke="blue" stroke-width="2" />
<circle cx="589.5958162781593" cy="200" r="3" fill="blue" />
<circle cx="601.5958162781593" cy="200" r="4" fill="black" />
<circle cx="613.5958162781593" cy="200" r="6" fill="none" stroke="blue" stroke-width="2" />
<circle cx="613.5958162781593" cy="200" r="3" fill="blue" />
<circle cx="625.5958162781593" cy="200" r="6" fill="none" stroke="blue" stroke-width="2" />
<circle cx="625.5958162781593" cy="200" r="3" fill="blue" />
<circle cx="637.5958162781593" cy="200" r="6" fill="none" stroke="blue" stroke-width="2" />
<circle cx="637.5958162781593" cy="200" r="3" fill="blue" />
<circle cx="649.5958162781593" cy="200" r="4" fill="red" />
<circle cx="661.5958162781593" cy="200" r="4" fill="blue" />
<circle cx="673.5958162781593" cy="200" r="4" fill="blue" />
<circle cx="685.5958162781593" cy="200" r="4" fill="red" />
<circle cx="697.5958162781593" cy="200" r="4" fill="blue" />
<circle cx="709.5958162781593" cy="200" r="4" fill="black" />
<circle cx="721.5958162781593" cy="200" r="4" fill="black" />
<circle cx="733.5958162781593" cy="200" r="4" fill="black" />
<circle cx="745.5958162781593" cy="200" r="4" fill="black" />
<circle cx="757.5958162781593" cy="200" r="4" fill="red" />
<circle cx="769.5958162781593" cy="200" r="4" fill="blue" />
<circle cx="781.5958162781593" cy="200" r="4" fill="blue" />
<circle cx="793.5958162781593" cy="200" r="4" fill="red" />
<circle cx="805.5958162781593" cy="200" r="4" fill="blue" />
<circle cx="817.5958162781593" cy="200" r="4" fill="blue" />
<circle cx="829.5958162781593" cy="200" r="4" fill="blue" />
<circle cx="841.5958162781593" cy="200" r="4" fill="red" />
<circle cx="853.5958162781593" cy="200" r="4" fill="red" />
<circle cx="865.5958162781593" cy="200" r="4" fill="black" />
<circle cx="877.5958162781593" cy="200" r="4" fill="blue" />
<circle cx="889.5958162781593" cy="200" r="4" fill="red" />
<circle cx="901.5958162781593" cy="200" r="4" fill="blue" />
<circle cx="913.5958162781593" cy="200" r="4" fill="blue" />
<circle cx="925.5958162781593" cy="200" r="4" fill="blue" />
<circle cx="937.5958162781593" cy="200" r="4" fill="red" />
<circle cx="949.5958162781593" cy="200" r="4" fill="red" />
<circle cx="961.5958162781593" cy="200" r="4" fill="blue" />
<circle cx="973.5958162781593" cy="200" r="4" fill="black" />
<circle cx="985.5958162781593" cy="200" r="4" fill="black" />
<circle cx="997.5958162781593" cy="200" r="4" fill="black" />
<circle cx="1009.5958162781593" cy="200" r="4" fill="blue" />
<circle cx="1021.5958162781593" cy="200" r="4" fill="blue" />
<circle cx="1033.5958162781594" cy="200" r="4" fill="blue" />
<circle cx="1045.5958162781594" cy="200" r="4" fill="black" />
<circle cx="1057.5958162781594" cy="200" r="4" fill="black" />
<circle cx="1069.5958162781594" cy="200" r="4" fill="black" />
<circle cx="1081.5958162781594" cy="200" r="4" fill="black" />
<circle cx="1093.5958162781594" cy="200" r="4" fill="blue" />
<circle cx="1105.5958162781594" cy="200" r="4" fill="green" />
<circle cx="1117.5958162781594" cy="200" r="4" fill="blue" />
<circle cx="1129.5958162781594" cy="200" r="4" fill="blue" />
<circle cx="1141.5958162781594" cy="200" r="4" fill="red" />
<circle cx="1153.5958162781594" cy="200" r="4" fill="green" />
<circle cx="1165.5958162781594" cy="200" r="4" fill="blue" />
<circle cx="1177.5958162781594" cy="200" r="4" fill="red" />
<circle cx="1189.5958162781594" cy="200" r="4" fill="green" />
<circle cx="1201.5958162781594" cy="200" r="4" fill="red" />
<circle cx="1213.5958162781594" cy="200" r="4" fill="black" />
<circle cx="1225.5958162781594" cy="200" r="4" fill="red" />
<circle cx="1237.5958162781594" cy="200" r="4" fill="green" />
<circle cx="1249.5958162781594" cy="200" r="4" fill="green" />
<circle cx="1261.5958162781594" cy="200" r="4" fill="black" />
<circle cx="1273.5958162781594" cy="200" r="4" fill="blue" />
<circle cx="1285.5958162781594" cy="200" r="4" fill="black" />
<circle cx="1297.5958162781594" cy="200" r="4" fill="red" />
<circle cx="1309.5958162781594" cy="200" r="4" fill="black" />
<circle cx="1321.5958162781594" cy="200" r="4" fill="black" />
<circle cx="1333.5958162781594" cy="200" r="4" fill="black" />
<circle cx="1345.5958162781594" cy="200" r="4" fill="black" />
<circle cx="1357.5958162781594" cy="200" r="4" fill="black" />
<circle cx="1369.5958162781594" cy="200" r="4" fill="black" />
<circle cx="1381.5958162781594" cy="200" r="4" fill="black" />
<circle cx="1393.5958162781594" cy="200" r="4" fill="red" />
<circle cx="1405.5958162781594" cy="200" r="4" fill="green" />
<circle cx="1417.5958162781594" cy="200" r="4" fill="green" />
<circle cx="1429.5958162781594" cy="200" r="4" fill="black" />
<circle cx="1441.5958162781594" cy="200" r="4" fill="black" />
<circle cx="1453.5958162781594" cy="200" r="4" fill="blue" />
<circle cx="1465.5958162781594" cy="200" r="4" fill="black" />
<circle cx="1477.5958162781594" cy="200" r="4" fill="blue" />
<circle cx="1489.5958162781594" cy="200" r="4" fill="red" />
<circle cx="1501.5958162781594" cy="200" r="4" fill="blue" />
<circle cx="1513.5958162781594" cy="200" r="4" fill="blue" />
<circle cx="1525.5958162781594" cy="200" r="4" fill="black" />
<circle cx="1537.5958162781594" cy="200" r="4" fill="black" />
<circle cx="1549.5958162781594" cy="200" r="4" fill="blue" />
<circle cx="1561.5958162781594" cy="200" r="4" fill="black" />
<circle cx="1573.5958162781594" cy="200" r="4" fill="black" />
<circle cx="1585.5958162781594" cy="200" r="4" fill="black" />
<circle cx="1597.5958162781594" cy="200" r="4" fill="green" />
<circle cx="1609.5958162781594" cy="200" r="4" fill="black" />
<circle cx="1621.5958162781594" cy="200" r="4" fill="black" />
<circle cx="1633.5958162781594" cy="200" r="4" fill="black" />
<circle cx="1645.5958162781594" cy="200" r="4" fill="red" />
<circle cx="1657.5958162781594" cy="200" r="4" fill="blue" />
<circle cx="1669.5958162781594" cy="200" r="4" fill="red" />
<circle cx="1681.5958162781594" cy="200" r="4" fill="green" />
<circle cx="1693.5958162781594" cy="200" r="4" fill="black" />
<circle cx="1705.5958162781594" cy="200" r="4" fill="blue" />
<circle cx="1717.5958162781594" cy="200" r="4" fill="black" />
<circle cx="1729.5958162781594" cy="200" r="4" fill="black" />
<circle cx="1741.5958162781594" cy="200" r="4" fill="black" />
<circle cx="1753.5958162781594" cy="200" r="4" fill="blue" />
<circle cx="1765.5958162781594" cy="200" r="4" fill="red" />
<circle cx="1777.5958162781594" cy="200" r="4" fill="black" />
<circle cx="1789.5958162781594" cy="200" r="4" fill="black" />
<circle cx="1801.5958162781594" cy="200" r="4" fill="black" />
<text x="50" y="225" fill="gray" style="font-size:12px;">2022-01-12T15:22:18+00:00</text>
<text x="900" y="225" fill="gray" style="font-size:12px;">2024-12-23T20:15:40+00:00</text>
</svg>