<svg xmlns="http://www.w3.org/2000/svg" width="1000" height="200" style="background-color: white; font-family: sans-serif;">
<line x1="50" y1="100" x2="950" y2="100" stroke="gray" stroke-width="1"/>
<path d="M 62.0 100 Q 56.0 80, 50.0 100" stroke="black" fill="none" marker-end="url(#arrowhead)"/>
<path d="M 98.0 100 Q 92.0 80, 86.0 100" stroke="black" fill="none" marker-end="url(#arrowhead)"/>
<path d="M 110.0 100 Q 98.0 80, 86.0 100" stroke="black" fill="none" marker-end="url(#arrowhead)"/>
<path d="M 122.0 100 Q 116.0 80, 110.0 100" stroke="black" fill="none" marker-end="url(#arrowhead)"/>
<path d="M 232.91616320833108 100 Q 153.45808160416556 80, 74.0 100" stroke="black" fill="none" marker-end="url(#arrowhead)"/>
<path d="M 296.9982527902405 100 Q 264.9572079992858 80, 232.91616320833108 100" stroke="black" fill="none" marker-end="url(#arrowhead)"/>
<path d="M 866.6114142603979 100 Q 601.9368131024105 80, 337.26221194442326 100" stroke="black" fill="none" marker-end="url(#arrowhead)"/>

<defs>
  <marker id="arrowhead" markerWidth="5" markerHeight="5" 
          refX="2" refY="2" orient="auto" fill="black">
    <path d="M0,0 L0,4 L4,2 z" />
  </marker>
</defs>

<circle cx="50.0" cy="100" r="6" fill="none" stroke="blue" stroke-width="2" />
<circle cx="50.0" cy="100" r="3" fill="blue" />
<circle cx="62.0" cy="100" r="4" fill="red" />
<circle cx="74.0" cy="100" r="6" fill="none" stroke="blue" stroke-width="2" />
<circle cx="74.0" cy="100" r="3" fill="blue" />
<circle cx="86.0" cy="100" r="4" fill="red" />
<circle cx="98.0" cy="100" r="4" fill="black" />
<circle cx="110.0" cy="100" r="6" fill="none" stroke="black" stroke-width="2" />
<circle cx="110.0" cy="100" r="3" fill="black" />
<circle cx="122.0" cy="100" r="4" fill="black" />
<circle cx="232.91616320833108" cy="100" r="4" fill="red" />
<circle cx="296.9982527902405" cy="100" r="6" fill="none" stroke="blue" stroke-width="2" />
<circle cx="296.9982527902405" cy="100" r="3" fill="blue" />
<circle cx="337.26221194442326" cy="100" r="4" fill="red" />
<circle cx="866.6114142603979" cy="100" r="6" fill="none" stroke="blue" stroke-width="2" />
<circle cx="866.6114142603979" cy="100" r="3" fill="blue" />
<circle cx="950.0" cy="100" r="6" fill="none" stroke="blue" stroke-width="2" />
<circle cx="950.0" cy="100" r="3" fill="blue" />
<text x="50" y="125" fill="gray" style="font-size:12px;">2024-10-09T13:08:52+00:00</text>
<text x="900" y="125" fill="gray" style="font-size:12px;">2025-02-14T15:15:20+00:00</text>
</svg>