<svg xmlns="http://www.w3.org/2000/svg" width="1000" height="400" style="background-color: white; font-family: sans-serif;">
<line x1="50" y1="200" x2="950" y2="200" stroke="gray" stroke-width="1"/>
<path d="M 62.0 200 Q 56.0 180, 50.0 200" stroke="black" fill="none" marker-end="url(#arrowhead)"/>
<path d="M 98.0 200 Q 92.0 180, 86.0 200" stroke="black" fill="none" marker-end="url(#arrowhead)"/>
<path d="M 110.0 200 Q 98.0 180, 86.0 200" stroke="black" fill="none" marker-end="url(#arrowhead)"/>
<path d="M 122.0 200 Q 116.0 180, 110.0 200" stroke="black" fill="none" marker-end="url(#arrowhead)"/>
<path d="M 232.91616320833108 200 Q 153.45808160416556 180, 74.0 200" stroke="black" fill="none" marker-end="url(#arrowhead)"/>
<path d="M 296.9982527902405 200 Q 264.9572079992858 180, 232.91616320833108 200" stroke="black" fill="none" marker-end="url(#arrowhead)"/>
<path d="M 866.6114142603979 200 Q 601.9368131024105 180, 337.26221194442326 200" stroke="black" fill="none" marker-end="url(#arrowhead)"/>

<defs>
  <marker id="arrowhead" markerWidth="5" markerHeight="5" 
          refX="2" refY="2" orient="auto" fill="black">
    <path d="M0,0 L0,4 L4,2 z" />
  </marker>
</defs>

<circle cx="50.0" cy="200" r="6" fill="none" stroke="blue" stroke-width="2" />
<circle cx="50.0" cy="200" r="3" fill="blue" />
<circle cx="62.0" cy="200" r="4" fill="red" />
<circle cx="74.0" cy="200" r="6" fill="none" stroke="blue" stroke-width="2" />
<circle cx="74.0" cy="200" r="3" fill="blue" />
<circle cx="86.0" cy="200" r="4" fill="red" />
<circle cx="98.0" cy="200" r="4" fill="black" />
<circle cx="110.0" cy="200" r="6" fill="none" stroke="black" stroke-width="2" />
<circle cx="110.0" cy="200" r="3" fill="black" />
<circle cx="122.0" cy="200" r="4" fill="black" />
<circle cx="232.91616320833108" cy="200" r="4" fill="red" />
<circle cx="296.9982527902405" cy="200" r="6" fill="none" stroke="blue" stroke-width="2" />
<circle cx="296.9982527902405" cy="200" r="3" fill="blue" />
<circle cx="337.26221194442326" cy="200" r="4" fill="red" />
<circle cx="866.6114142603979" cy="200" r="6" fill="none" stroke="blue" stroke-width="2" />
<circle cx="866.6114142603979" cy="200" r="3" fill="blue" />
<circle cx="950.0" cy="200" r="6" fill="none" stroke="blue" stroke-width="2" />
<circle cx="950.0" cy="200" r="3" fill="blue" />
<text x="50" y="225" fill="gray" style="font-size:12px;">2024-10-09T13:08:52+00:00</text>
<text x="900" y="225" fill="gray" style="font-size:12px;">2025-02-14T15:15:20+00:00</text>
</svg>