<svg xmlns="http://www.w3.org/2000/svg" width="1000" height="400" style="background-color: white; font-family: sans-serif;">
<line x1="50" y1="200" x2="950" y2="200" stroke="gray" stroke-width="1"/>
<path d="M 62.0 200 Q 56.0 180, 50.0 200" stroke="black" fill="none" marker-end="url(#arrowhead)"/>
<path d="M 74.0 200 Q 68.0 180, 62.0 200" stroke="black" fill="none" marker-end="url(#arrowhead)"/>
<path d="M 86.0 200 Q 74.0 180, 62.0 200" stroke="black" fill="none" marker-end="url(#arrowhead)"/>
<path d="M 98.0 200 Q 92.0 180, 86.0 200" stroke="black" fill="none" marker-end="url(#arrowhead)"/>
<path d="M 110.0 200 Q 98.0 180, 86.0 200" stroke="black" fill="none" marker-end="url(#arrowhead)"/>
<path d="M 122.0 200 Q 116.0 180, 110.0 200" stroke="black" fill="none" marker-end="url(#arrowhead)"/>
<path d="M 284.8311070100698 200 Q 185.4155535050349 180, 86.0 200" stroke="black" fill="none" marker-end="url(#arrowhead)"/>
<path d="M 284.8311070100698 200 Q 197.4155535050349 180, 110.0 200" stroke="black" fill="none" marker-end="url(#arrowhead)"/>
<path d="M 284.8311070100698 200 Q 203.4155535050349 180, 122.0 200" stroke="black" fill="none" marker-end="url(#arrowhead)"/>
<path d="M 296.8311070100698 200 Q 290.8311070100698 180, 284.8311070100698 200" stroke="black" fill="none" marker-end="url(#arrowhead)"/>
<path d="M 308.8311070100698 200 Q 296.8311070100698 180, 284.8311070100698 200" stroke="black" fill="none" marker-end="url(#arrowhead)"/>
<path d="M 308.8311070100698 200 Q 302.8311070100698 180, 296.8311070100698 200" stroke="black" fill="none" marker-end="url(#arrowhead)"/>
<path d="M 320.8311070100698 200 Q 308.8311070100698 180, 296.8311070100698 200" stroke="black" fill="none" marker-end="url(#arrowhead)"/>
<path d="M 320.8311070100698 200 Q 314.8311070100698 180, 308.8311070100698 200" stroke="black" fill="none" marker-end="url(#arrowhead)"/>
<path d="M 332.8311070100698 200 Q 326.8311070100698 180, 320.8311070100698 200" stroke="black" fill="none" marker-end="url(#arrowhead)"/>
<path d="M 487.7799084932217 200 Q 481.7799084932217 180, 475.7799084932217 200" stroke="black" fill="none" marker-end="url(#arrowhead)"/>
<path d="M 499.7799084932217 200 Q 487.7799084932217 180, 475.7799084932217 200" stroke="black" fill="none" marker-end="url(#arrowhead)"/>
<path d="M 511.7799084932217 200 Q 499.7799084932217 180, 487.7799084932217 200" stroke="black" fill="none" marker-end="url(#arrowhead)"/>
<path d="M 523.7799084932217 200 Q 511.7799084932217 180, 499.7799084932217 200" stroke="black" fill="none" marker-end="url(#arrowhead)"/>
<path d="M 523.7799084932217 200 Q 499.7799084932217 180, 475.7799084932217 200" stroke="black" fill="none" marker-end="url(#arrowhead)"/>
<path d="M 535.7799084932217 200 Q 511.7799084932217 180, 487.7799084932217 200" stroke="black" fill="none" marker-end="url(#arrowhead)"/>
<path d="M 535.7799084932217 200 Q 523.7799084932217 180, 511.7799084932217 200" stroke="black" fill="none" marker-end="url(#arrowhead)"/>
<path d="M 547.7799084932217 200 Q 535.7799084932217 180, 523.7799084932217 200" stroke="black" fill="none" marker-end="url(#arrowhead)"/>
<path d="M 571.7799084932217 200 Q 565.7799084932217 180, 559.7799084932217 200" stroke="black" fill="none" marker-end="url(#arrowhead)"/>
<path d="M 802.2793955571519 200 Q 765.7932509727149 180, 729.3071063882778 200" stroke="black" fill="none" marker-end="url(#arrowhead)"/>
<path d="M 814.2793955571519 200 Q 808.2793955571519 180, 802.2793955571519 200" stroke="black" fill="none" marker-end="url(#arrowhead)"/>
<path d="M 814.2793955571519 200 Q 771.7932509727149 180, 729.3071063882778 200" stroke="black" fill="none" marker-end="url(#arrowhead)"/>
<path d="M 826.2793955571519 200 Q 820.2793955571519 180, 814.2793955571519 200" stroke="black" fill="none" marker-end="url(#arrowhead)"/>
<path d="M 838.2793955571519 200 Q 832.2793955571519 180, 826.2793955571519 200" stroke="black" fill="none" marker-end="url(#arrowhead)"/>
<path d="M 856.6919308506267 200 Q 847.4856632038893 180, 838.2793955571519 200" stroke="black" fill="none" marker-end="url(#arrowhead)"/>
<path d="M 906.0716439537503 200 Q 900.0716439537503 180, 894.0716439537503 200" stroke="black" fill="none" marker-end="url(#arrowhead)"/>
<path d="M 930.0716439537503 200 Q 918.0716439537503 180, 906.0716439537503 200" stroke="black" fill="none" marker-end="url(#arrowhead)"/>
<path d="M 930.0716439537503 200 Q 924.0716439537503 180, 918.0716439537503 200" stroke="black" fill="none" marker-end="url(#arrowhead)"/>
<path d="M 942.0716439537503 200 Q 936.0716439537503 180, 930.0716439537503 200" stroke="black" fill="none" marker-end="url(#arrowhead)"/>
<path d="M 954.0716439537503 200 Q 948.0716439537503 180, 942.0716439537503 200" stroke="black" fill="none" marker-end="url(#arrowhead)"/>
<path d="M 966.0716439537503 200 Q 960.0716439537503 180, 954.0716439537503 200" stroke="black" fill="none" marker-end="url(#arrowhead)"/>
<path d="M 978.0716439537503 200 Q 972.0716439537503 180, 966.0716439537503 200" stroke="black" fill="none" marker-end="url(#arrowhead)"/>
<path d="M 990.0716439537503 200 Q 984.0716439537503 180, 978.0716439537503 200" stroke="black" fill="none" marker-end="url(#arrowhead)"/>
<path d="M 1002.0716439537503 200 Q 996.0716439537503 180, 990.0716439537503 200" stroke="black" fill="none" marker-end="url(#arrowhead)"/>

<defs>
  <marker id="arrowhead" markerWidth="5" markerHeight="5" 
          refX="2" refY="2" orient="auto" fill="black">
    <path d="M0,0 L0,4 L4,2 z" />
  </marker>
</defs>

<circle cx="50.0" cy="200" r="6" fill="none" stroke="blue" stroke-width="2" />
<circle cx="50.0" cy="200" r="3" fill="blue" />
<circle cx="62.0" cy="200" r="4" fill="red" />
<circle cx="74.0" cy="200" r="6" fill="none" stroke="blue" stroke-width="2" />
<circle cx="74.0" cy="200" r="3" fill="blue" />
<circle cx="86.0" cy="200" r="4" fill="black" />
<circle cx="98.0" cy="200" r="6" fill="none" stroke="blue" stroke-width="2" />
<circle cx="98.0" cy="200" r="3" fill="blue" />
<circle cx="110.0" cy="200" r="4" fill="black" />
<circle cx="122.0" cy="200" r="4" fill="black" />
<circle cx="284.8311070100698" cy="200" r="4" fill="black" />
<circle cx="296.8311070100698" cy="200" r="4" fill="black" />
<circle cx="308.8311070100698" cy="200" r="4" fill="red" />
<circle cx="320.8311070100698" cy="200" r="6" fill="none" stroke="black" stroke-width="2" />
<circle cx="320.8311070100698" cy="200" r="3" fill="black" />
<circle cx="332.8311070100698" cy="200" r="4" fill="red" />
<circle cx="475.7799084932217" cy="200" r="4" fill="red" />
<circle cx="487.7799084932217" cy="200" r="4" fill="red" />
<circle cx="499.7799084932217" cy="200" r="6" fill="none" stroke="black" stroke-width="2" />
<circle cx="499.7799084932217" cy="200" r="3" fill="black" />
<circle cx="511.7799084932217" cy="200" r="6" fill="none" stroke="black" stroke-width="2" />
<circle cx="511.7799084932217" cy="200" r="3" fill="black" />
<circle cx="523.7799084932217" cy="200" r="4" fill="black" />
<circle cx="535.7799084932217" cy="200" r="4" fill="black" />
<circle cx="547.7799084932217" cy="200" r="6" fill="none" stroke="black" stroke-width="2" />
<circle cx="547.7799084932217" cy="200" r="3" fill="black" />
<circle cx="559.7799084932217" cy="200" r="4" fill="black" />
<circle cx="571.7799084932217" cy="200" r="6" fill="none" stroke="black" stroke-width="2" />
<circle cx="571.7799084932217" cy="200" r="3" fill="black" />
<circle cx="729.3071063882778" cy="200" r="6" fill="none" stroke="blue" stroke-width="2" />
<circle cx="729.3071063882778" cy="200" r="3" fill="blue" />
<circle cx="741.3071063882778" cy="200" r="6" fill="none" stroke="black" stroke-width="2" />
<circle cx="741.3071063882778" cy="200" r="3" fill="black" />
<circle cx="758.2285206432413" cy="200" r="6" fill="none" stroke="blue" stroke-width="2" />
<circle cx="758.2285206432413" cy="200" r="3" fill="blue" />
<circle cx="790.2793955571519" cy="200" r="6" fill="none" stroke="blue" stroke-width="2" />
<circle cx="790.2793955571519" cy="200" r="3" fill="blue" />
<circle cx="802.2793955571519" cy="200" r="4" fill="blue" />
<circle cx="814.2793955571519" cy="200" r="4" fill="blue" />
<circle cx="826.2793955571519" cy="200" r="6" fill="none" stroke="green" stroke-width="2" />
<circle cx="826.2793955571519" cy="200" r="3" fill="green" />
<circle cx="838.2793955571519" cy="200" r="6" fill="none" stroke="blue" stroke-width="2" />
<circle cx="838.2793955571519" cy="200" r="3" fill="blue" />
<circle cx="856.6919308506267" cy="200" r="4" fill="black" />
<circle cx="894.0716439537503" cy="200" r="6" fill="none" stroke="blue" stroke-width="2" />
<circle cx="894.0716439537503" cy="200" r="3" fill="blue" />
<circle cx="906.0716439537503" cy="200" r="4" fill="red" />
<circle cx="918.0716439537503" cy="200" r="4" fill="red" />
<circle cx="930.0716439537503" cy="200" r="6" fill="none" stroke="red" stroke-width="2" />
<circle cx="930.0716439537503" cy="200" r="3" fill="red" />
<circle cx="942.0716439537503" cy="200" r="4" fill="black" />
<circle cx="954.0716439537503" cy="200" r="6" fill="none" stroke="blue" stroke-width="2" />
<circle cx="954.0716439537503" cy="200" r="3" fill="blue" />
<circle cx="966.0716439537503" cy="200" r="4" fill="red" />
<circle cx="978.0716439537503" cy="200" r="6" fill="none" stroke="blue" stroke-width="2" />
<circle cx="978.0716439537503" cy="200" r="3" fill="blue" />
<circle cx="990.0716439537503" cy="200" r="4" fill="blue" />
<circle cx="1002.0716439537503" cy="200" r="6" fill="none" stroke="blue" stroke-width="2" />
<circle cx="1002.0716439537503" cy="200" r="3" fill="blue" />
<text x="50" y="225" fill="gray" style="font-size:12px;">2023-04-21T13:04:01+00:00</text>
<text x="900" y="225" fill="gray" style="font-size:12px;">2025-02-05T08:31:13+00:00</text>
</svg>