<svg xmlns="http://www.w3.org/2000/svg" width="1000" height="400" style="background-color: white; font-family: sans-serif;">
<line x1="50" y1="200" x2="950" y2="200" stroke="gray" stroke-width="1"/>
<path d="M 62.0 200 Q 56.0 180, 50.0 200" stroke="black" fill="none" marker-end="url(#arrowhead)"/>
<path d="M 74.0 200 Q 68.0 180, 62.0 200" stroke="black" fill="none" marker-end="url(#arrowhead)"/>
<path d="M 86.0 200 Q 74.0 180, 62.0 200" stroke="black" fill="none" marker-end="url(#arrowhead)"/>
<path d="M 86.0 200 Q 80.0 180, 74.0 200" stroke="black" fill="none" marker-end="url(#arrowhead)"/>
<path d="M 208.07678917586603 200 Q 147.038394587933 180, 86.0 200" stroke="black" fill="none" marker-end="url(#arrowhead)"/>
<path d="M 208.07678917586603 200 Q 141.038394587933 180, 74.0 200" stroke="black" fill="none" marker-end="url(#arrowhead)"/>
<path d="M 220.07678917586603 200 Q 153.038394587933 180, 86.0 200" stroke="black" fill="none" marker-end="url(#arrowhead)"/>
<path d="M 220.07678917586603 200 Q 214.07678917586603 180, 208.07678917586603 200" stroke="black" fill="none" marker-end="url(#arrowhead)"/>
<path d="M 220.07678917586603 200 Q 141.038394587933 180, 62.0 200" stroke="black" fill="none" marker-end="url(#arrowhead)"/>
<path d="M 220.07678917586603 200 Q 147.038394587933 180, 74.0 200" stroke="black" fill="none" marker-end="url(#arrowhead)"/>
<path d="M 232.07678917586603 200 Q 153.038394587933 180, 74.0 200" stroke="black" fill="none" marker-end="url(#arrowhead)"/>
<path d="M 244.07678917586603 200 Q 238.07678917586603 180, 232.07678917586603 200" stroke="black" fill="none" marker-end="url(#arrowhead)"/>
<path d="M 256.076789175866 200 Q 153.038394587933 180, 50.0 200" stroke="black" fill="none" marker-end="url(#arrowhead)"/>
<path d="M 256.076789175866 200 Q 250.076789175866 180, 244.07678917586603 200" stroke="black" fill="none" marker-end="url(#arrowhead)"/>
<path d="M 280.076789175866 200 Q 262.076789175866 180, 244.07678917586603 200" stroke="black" fill="none" marker-end="url(#arrowhead)"/>
<path d="M 280.076789175866 200 Q 268.076789175866 180, 256.076789175866 200" stroke="black" fill="none" marker-end="url(#arrowhead)"/>
<path d="M 292.076789175866 200 Q 280.076789175866 180, 268.076789175866 200" stroke="black" fill="none" marker-end="url(#arrowhead)"/>
<path d="M 304.076789175866 200 Q 292.076789175866 180, 280.076789175866 200" stroke="black" fill="none" marker-end="url(#arrowhead)"/>
<path d="M 316.076789175866 200 Q 310.076789175866 180, 304.076789175866 200" stroke="black" fill="none" marker-end="url(#arrowhead)"/>
<path d="M 328.076789175866 200 Q 322.076789175866 180, 316.076789175866 200" stroke="black" fill="none" marker-end="url(#arrowhead)"/>
<path d="M 340.076789175866 200 Q 334.076789175866 180, 328.076789175866 200" stroke="black" fill="none" marker-end="url(#arrowhead)"/>
<path d="M 352.076789175866 200 Q 340.076789175866 180, 328.076789175866 200" stroke="black" fill="none" marker-end="url(#arrowhead)"/>
<path d="M 352.076789175866 200 Q 346.076789175866 180, 340.076789175866 200" stroke="black" fill="none" marker-end="url(#arrowhead)"/>
<path d="M 364.076789175866 200 Q 358.076789175866 180, 352.076789175866 200" stroke="black" fill="none" marker-end="url(#arrowhead)"/>
<path d="M 376.076789175866 200 Q 352.076789175866 180, 328.076789175866 200" stroke="black" fill="none" marker-end="url(#arrowhead)"/>
<path d="M 376.076789175866 200 Q 358.076789175866 180, 340.076789175866 200" stroke="black" fill="none" marker-end="url(#arrowhead)"/>
<path d="M 376.076789175866 200 Q 364.076789175866 180, 352.076789175866 200" stroke="black" fill="none" marker-end="url(#arrowhead)"/>
<path d="M 421.69264389083025 200 Q 386.8847165333481 180, 352.076789175866 200" stroke="black" fill="none" marker-end="url(#arrowhead)"/>
<path d="M 421.69264389083025 200 Q 392.8847165333481 180, 364.076789175866 200" stroke="black" fill="none" marker-end="url(#arrowhead)"/>
<path d="M 485.76684569594227 200 Q 453.72974479338626 180, 421.69264389083025 200" stroke="black" fill="none" marker-end="url(#arrowhead)"/>
<path d="M 498.1981161064238 200 Q 491.98248090118307 180, 485.76684569594227 200" stroke="black" fill="none" marker-end="url(#arrowhead)"/>
<path d="M 510.1981161064238 200 Q 504.1981161064238 180, 498.1981161064238 200" stroke="black" fill="none" marker-end="url(#arrowhead)"/>
<path d="M 522.1981161064239 200 Q 516.1981161064239 180, 510.1981161064238 200" stroke="black" fill="none" marker-end="url(#arrowhead)"/>
<path d="M 534.1981161064239 200 Q 522.1981161064239 180, 510.1981161064238 200" stroke="black" fill="none" marker-end="url(#arrowhead)"/>
<path d="M 534.1981161064239 200 Q 528.1981161064239 180, 522.1981161064239 200" stroke="black" fill="none" marker-end="url(#arrowhead)"/>
<path d="M 546.1981161064239 200 Q 540.1981161064239 180, 534.1981161064239 200" stroke="black" fill="none" marker-end="url(#arrowhead)"/>
<path d="M 655.6126985476074 200 Q 600.9054073270156 180, 546.1981161064239 200" stroke="black" fill="none" marker-end="url(#arrowhead)"/>
<path d="M 667.6126985476074 200 Q 661.6126985476074 180, 655.6126985476074 200" stroke="black" fill="none" marker-end="url(#arrowhead)"/>
<path d="M 930.3634005537594 200 Q 792.9880495506834 180, 655.6126985476074 200" stroke="black" fill="none" marker-end="url(#arrowhead)"/>
<path d="M 930.3634005537594 200 Q 798.9880495506834 180, 667.6126985476074 200" stroke="black" fill="none" marker-end="url(#arrowhead)"/>
<path d="M 945.7415031921257 200 Q 938.0524518729426 180, 930.3634005537594 200" stroke="black" fill="none" marker-end="url(#arrowhead)"/>
<path d="M 957.7415031921257 200 Q 944.0524518729426 180, 930.3634005537594 200" stroke="black" fill="none" marker-end="url(#arrowhead)"/>
<path d="M 957.7415031921257 200 Q 951.7415031921257 180, 945.7415031921257 200" stroke="black" fill="none" marker-end="url(#arrowhead)"/>

<defs>
  <marker id="arrowhead" markerWidth="5" markerHeight="5" 
          refX="2" refY="2" orient="auto" fill="black">
    <path d="M0,0 L0,4 L4,2 z" />
  </marker>
</defs>

<circle cx="50.0" cy="200" r="6" fill="none" stroke="black" stroke-width="2" />
<circle cx="50.0" cy="200" r="3" fill="black" />
<circle cx="62.0" cy="200" r="4" fill="blue" />
<circle cx="74.0" cy="200" r="4" fill="black" />
<circle cx="86.0" cy="200" r="6" fill="none" stroke="black" stroke-width="2" />
<circle cx="86.0" cy="200" r="3" fill="black" />
<circle cx="208.07678917586603" cy="200" r="4" fill="red" />
<circle cx="220.07678917586603" cy="200" r="4" fill="green" />
<circle cx="232.07678917586603" cy="200" r="4" fill="blue" />
<circle cx="244.07678917586603" cy="200" r="4" fill="black" />
<circle cx="256.076789175866" cy="200" r="4" fill="blue" />
<circle cx="268.076789175866" cy="200" r="4" fill="red" />
<circle cx="280.076789175866" cy="200" r="4" fill="red" />
<circle cx="292.076789175866" cy="200" r="4" fill="black" />
<circle cx="304.076789175866" cy="200" r="4" fill="blue" />
<circle cx="316.076789175866" cy="200" r="4" fill="green" />
<circle cx="328.076789175866" cy="200" r="4" fill="blue" />
<circle cx="340.076789175866" cy="200" r="4" fill="red" />
<circle cx="352.076789175866" cy="200" r="4" fill="blue" />
<circle cx="364.076789175866" cy="200" r="4" fill="red" />
<circle cx="376.076789175866" cy="200" r="4" fill="green" />
<circle cx="421.69264389083025" cy="200" r="4" fill="blue" />
<circle cx="485.76684569594227" cy="200" r="4" fill="blue" />
<circle cx="498.1981161064238" cy="200" r="4" fill="red" />
<circle cx="510.1981161064238" cy="200" r="4" fill="black" />
<circle cx="522.1981161064239" cy="200" r="4" fill="black" />
<circle cx="534.1981161064239" cy="200" r="4" fill="blue" />
<circle cx="546.1981161064239" cy="200" r="4" fill="green" />
<circle cx="655.6126985476074" cy="200" r="4" fill="black" />
<circle cx="667.6126985476074" cy="200" r="4" fill="black" />
<circle cx="930.3634005537594" cy="200" r="4" fill="red" />
<circle cx="945.7415031921257" cy="200" r="4" fill="black" />
<circle cx="957.7415031921257" cy="200" r="4" fill="black" />
<text x="50" y="225" fill="gray" style="font-size:12px;">2024-09-03T16:35:42+00:00</text>
<text x="900" y="225" fill="gray" style="font-size:12px;">2024-11-27T15:59:18+00:00</text>
</svg>