<svg xmlns="http://www.w3.org/2000/svg" width="1000" height="200" style="background-color: white; font-family: sans-serif;">
<line x1="50" y1="100" x2="950" y2="100" stroke="gray" stroke-width="1"/>
<path d="M 62.0 100 Q 56.0 80, 50.0 100" stroke="black" fill="none" marker-end="url(#arrowhead)"/>
<path d="M 74.0 100 Q 68.0 80, 62.0 100" stroke="black" fill="none" marker-end="url(#arrowhead)"/>
<path d="M 86.0 100 Q 74.0 80, 62.0 100" stroke="black" fill="none" marker-end="url(#arrowhead)"/>
<path d="M 86.0 100 Q 80.0 80, 74.0 100" stroke="black" fill="none" marker-end="url(#arrowhead)"/>
<path d="M 208.07678917586603 100 Q 147.038394587933 80, 86.0 100" stroke="black" fill="none" marker-end="url(#arrowhead)"/>
<path d="M 208.07678917586603 100 Q 141.038394587933 80, 74.0 100" stroke="black" fill="none" marker-end="url(#arrowhead)"/>
<path d="M 220.07678917586603 100 Q 153.038394587933 80, 86.0 100" stroke="black" fill="none" marker-end="url(#arrowhead)"/>
<path d="M 220.07678917586603 100 Q 214.07678917586603 80, 208.07678917586603 100" stroke="black" fill="none" marker-end="url(#arrowhead)"/>
<path d="M 220.07678917586603 100 Q 141.038394587933 80, 62.0 100" stroke="black" fill="none" marker-end="url(#arrowhead)"/>
<path d="M 220.07678917586603 100 Q 147.038394587933 80, 74.0 100" stroke="black" fill="none" marker-end="url(#arrowhead)"/>
<path d="M 232.07678917586603 100 Q 153.038394587933 80, 74.0 100" stroke="black" fill="none" marker-end="url(#arrowhead)"/>
<path d="M 244.07678917586603 100 Q 238.07678917586603 80, 232.07678917586603 100" stroke="black" fill="none" marker-end="url(#arrowhead)"/>
<path d="M 256.076789175866 100 Q 153.038394587933 80, 50.0 100" stroke="black" fill="none" marker-end="url(#arrowhead)"/>
<path d="M 256.076789175866 100 Q 250.076789175866 80, 244.07678917586603 100" stroke="black" fill="none" marker-end="url(#arrowhead)"/>
<path d="M 280.076789175866 100 Q 262.076789175866 80, 244.07678917586603 100" stroke="black" fill="none" marker-end="url(#arrowhead)"/>
<path d="M 280.076789175866 100 Q 268.076789175866 80, 256.076789175866 100" stroke="black" fill="none" marker-end="url(#arrowhead)"/>
<path d="M 292.076789175866 100 Q 280.076789175866 80, 268.076789175866 100" stroke="black" fill="none" marker-end="url(#arrowhead)"/>
<path d="M 304.076789175866 100 Q 292.076789175866 80, 280.076789175866 100" stroke="black" fill="none" marker-end="url(#arrowhead)"/>
<path d="M 316.076789175866 100 Q 310.076789175866 80, 304.076789175866 100" stroke="black" fill="none" marker-end="url(#arrowhead)"/>
<path d="M 328.076789175866 100 Q 322.076789175866 80, 316.076789175866 100" stroke="black" fill="none" marker-end="url(#arrowhead)"/>
<path d="M 340.076789175866 100 Q 334.076789175866 80, 328.076789175866 100" stroke="black" fill="none" marker-end="url(#arrowhead)"/>
<path d="M 352.076789175866 100 Q 340.076789175866 80, 328.076789175866 100" stroke="black" fill="none" marker-end="url(#arrowhead)"/>
<path d="M 352.076789175866 100 Q 346.076789175866 80, 340.076789175866 100" stroke="black" fill="none" marker-end="url(#arrowhead)"/>
<path d="M 364.076789175866 100 Q 358.076789175866 80, 352.076789175866 100" stroke="black" fill="none" marker-end="url(#arrowhead)"/>
<path d="M 376.076789175866 100 Q 352.076789175866 80, 328.076789175866 100" stroke="black" fill="none" marker-end="url(#arrowhead)"/>
<path d="M 376.076789175866 100 Q 358.076789175866 80, 340.076789175866 100" stroke="black" fill="none" marker-end="url(#arrowhead)"/>
<path d="M 376.076789175866 100 Q 364.076789175866 80, 352.076789175866 100" stroke="black" fill="none" marker-end="url(#arrowhead)"/>
<path d="M 421.69264389083025 100 Q 386.8847165333481 80, 352.076789175866 100" stroke="black" fill="none" marker-end="url(#arrowhead)"/>
<path d="M 421.69264389083025 100 Q 392.8847165333481 80, 364.076789175866 100" stroke="black" fill="none" marker-end="url(#arrowhead)"/>
<path d="M 485.76684569594227 100 Q 453.72974479338626 80, 421.69264389083025 100" stroke="black" fill="none" marker-end="url(#arrowhead)"/>
<path d="M 498.1981161064238 100 Q 491.98248090118307 80, 485.76684569594227 100" stroke="black" fill="none" marker-end="url(#arrowhead)"/>
<path d="M 510.1981161064238 100 Q 504.1981161064238 80, 498.1981161064238 100" stroke="black" fill="none" marker-end="url(#arrowhead)"/>
<path d="M 522.1981161064239 100 Q 516.1981161064239 80, 510.1981161064238 100" stroke="black" fill="none" marker-end="url(#arrowhead)"/>
<path d="M 534.1981161064239 100 Q 522.1981161064239 80, 510.1981161064238 100" stroke="black" fill="none" marker-end="url(#arrowhead)"/>
<path d="M 534.1981161064239 100 Q 528.1981161064239 80, 522.1981161064239 100" stroke="black" fill="none" marker-end="url(#arrowhead)"/>
<path d="M 546.1981161064239 100 Q 540.1981161064239 80, 534.1981161064239 100" stroke="black" fill="none" marker-end="url(#arrowhead)"/>
<path d="M 655.6126985476074 100 Q 600.9054073270156 80, 546.1981161064239 100" stroke="black" fill="none" marker-end="url(#arrowhead)"/>
<path d="M 667.6126985476074 100 Q 661.6126985476074 80, 655.6126985476074 100" stroke="black" fill="none" marker-end="url(#arrowhead)"/>
<path d="M 930.3634005537594 100 Q 792.9880495506834 80, 655.6126985476074 100" stroke="black" fill="none" marker-end="url(#arrowhead)"/>
<path d="M 930.3634005537594 100 Q 798.9880495506834 80, 667.6126985476074 100" stroke="black" fill="none" marker-end="url(#arrowhead)"/>
<path d="M 945.7415031921257 100 Q 938.0524518729426 80, 930.3634005537594 100" stroke="black" fill="none" marker-end="url(#arrowhead)"/>
<path d="M 957.7415031921257 100 Q 944.0524518729426 80, 930.3634005537594 100" stroke="black" fill="none" marker-end="url(#arrowhead)"/>
<path d="M 957.7415031921257 100 Q 951.7415031921257 80, 945.7415031921257 100" stroke="black" fill="none" marker-end="url(#arrowhead)"/>

<defs>
  <marker id="arrowhead" markerWidth="5" markerHeight="5" 
          refX="2" refY="2" orient="auto" fill="black">
    <path d="M0,0 L0,4 L4,2 z" />
  </marker>
</defs>

<circle cx="50.0" cy="100" r="6" fill="none" stroke="black" stroke-width="2" />
<circle cx="50.0" cy="100" r="3" fill="black" />
<circle cx="62.0" cy="100" r="4" fill="blue" />
<circle cx="74.0" cy="100" r="4" fill="black" />
<circle cx="86.0" cy="100" r="6" fill="none" stroke="black" stroke-width="2" />
<circle cx="86.0" cy="100" r="3" fill="black" />
<circle cx="208.07678917586603" cy="100" r="4" fill="red" />
<circle cx="220.07678917586603" cy="100" r="4" fill="green" />
<circle cx="232.07678917586603" cy="100" r="4" fill="blue" />
<circle cx="244.07678917586603" cy="100" r="4" fill="black" />
<circle cx="256.076789175866" cy="100" r="4" fill="blue" />
<circle cx="268.076789175866" cy="100" r="4" fill="red" />
<circle cx="280.076789175866" cy="100" r="4" fill="red" />
<circle cx="292.076789175866" cy="100" r="4" fill="black" />
<circle cx="304.076789175866" cy="100" r="4" fill="blue" />
<circle cx="316.076789175866" cy="100" r="4" fill="green" />
<circle cx="328.076789175866" cy="100" r="4" fill="blue" />
<circle cx="340.076789175866" cy="100" r="4" fill="red" />
<circle cx="352.076789175866" cy="100" r="4" fill="blue" />
<circle cx="364.076789175866" cy="100" r="4" fill="red" />
<circle cx="376.076789175866" cy="100" r="4" fill="green" />
<circle cx="421.69264389083025" cy="100" r="4" fill="blue" />
<circle cx="485.76684569594227" cy="100" r="4" fill="blue" />
<circle cx="498.1981161064238" cy="100" r="4" fill="red" />
<circle cx="510.1981161064238" cy="100" r="4" fill="black" />
<circle cx="522.1981161064239" cy="100" r="4" fill="black" />
<circle cx="534.1981161064239" cy="100" r="4" fill="blue" />
<circle cx="546.1981161064239" cy="100" r="4" fill="green" />
<circle cx="655.6126985476074" cy="100" r="4" fill="black" />
<circle cx="667.6126985476074" cy="100" r="4" fill="black" />
<circle cx="930.3634005537594" cy="100" r="4" fill="red" />
<circle cx="945.7415031921257" cy="100" r="4" fill="black" />
<circle cx="957.7415031921257" cy="100" r="4" fill="black" />
<text x="50" y="125" fill="gray" style="font-size:12px;">2024-09-03T16:35:42+00:00</text>
<text x="900" y="125" fill="gray" style="font-size:12px;">2024-11-27T15:59:18+00:00</text>
</svg>