<svg xmlns="http://www.w3.org/2000/svg" width="1000" height="400" style="background-color: white; font-family: sans-serif;">
<line x1="50" y1="200" x2="950" y2="200" stroke="gray" stroke-width="1"/>
<path d="M 173.0120315309086 200 Q 111.5060157654543 180, 50.0 200" stroke="black" fill="none" marker-end="url(#arrowhead)"/>
<path d="M 454.2928234338266 200 Q 313.65242748236756 180, 173.0120315309086 200" stroke="black" fill="none" marker-end="url(#arrowhead)"/>
<path d="M 682.7413544979947 200 Q 427.8766930144517 180, 173.0120315309086 200" stroke="black" fill="none" marker-end="url(#arrowhead)"/>
<path d="M 682.7413544979947 200 Q 568.5170889659107 180, 454.2928234338266 200" stroke="black" fill="none" marker-end="url(#arrowhead)"/>
<path d="M 838.8405822154613 200 Q 760.790968356728 180, 682.7413544979947 200" stroke="black" fill="none" marker-end="url(#arrowhead)"/>
<path d="M 850.8405822154613 200 Q 844.8405822154613 180, 838.8405822154613 200" stroke="black" fill="none" marker-end="url(#arrowhead)"/>
<path d="M 862.8405822154613 200 Q 856.8405822154613 180, 850.8405822154613 200" stroke="black" fill="none" marker-end="url(#arrowhead)"/>
<path d="M 874.8405822154613 200 Q 862.8405822154613 180, 850.8405822154613 200" stroke="black" fill="none" marker-end="url(#arrowhead)"/>
<path d="M 874.8405822154613 200 Q 868.8405822154613 180, 862.8405822154613 200" stroke="black" fill="none" marker-end="url(#arrowhead)"/>
<path d="M 933.1514810365095 200 Q 903.9960316259853 180, 874.8405822154613 200" stroke="black" fill="none" marker-end="url(#arrowhead)"/>
<path d="M 950.0 200 Q 912.4202911077307 180, 874.8405822154613 200" stroke="black" fill="none" marker-end="url(#arrowhead)"/>
<path d="M 950.0 200 Q 941.5757405182547 180, 933.1514810365095 200" stroke="black" fill="none" marker-end="url(#arrowhead)"/>

<defs>
  <marker id="arrowhead" markerWidth="5" markerHeight="5" 
          refX="2" refY="2" orient="auto" fill="black">
    <path d="M0,0 L0,4 L4,2 z" />
  </marker>
</defs>

<circle cx="50.0" cy="200" r="6" fill="none" stroke="blue" stroke-width="2" />
<circle cx="50.0" cy="200" r="3" fill="blue" />
<circle cx="173.0120315309086" cy="200" r="4" fill="red" />
<circle cx="454.2928234338266" cy="200" r="6" fill="none" stroke="blue" stroke-width="2" />
<circle cx="454.2928234338266" cy="200" r="3" fill="blue" />
<circle cx="657.7188818109528" cy="200" r="4" fill="black" />
<circle cx="682.7413544979947" cy="200" r="4" fill="red" />
<circle cx="838.8405822154613" cy="200" r="6" fill="none" stroke="blue" stroke-width="2" />
<circle cx="838.8405822154613" cy="200" r="3" fill="blue" />
<circle cx="850.8405822154613" cy="200" r="4" fill="black" />
<circle cx="862.8405822154613" cy="200" r="6" fill="none" stroke="green" stroke-width="2" />
<circle cx="862.8405822154613" cy="200" r="3" fill="green" />
<circle cx="874.8405822154613" cy="200" r="4" fill="black" />
<circle cx="933.1514810365095" cy="200" r="6" fill="none" stroke="blue" stroke-width="2" />
<circle cx="933.1514810365095" cy="200" r="3" fill="blue" />
<circle cx="950.0" cy="200" r="4" fill="red" />
<text x="50" y="225" fill="gray" style="font-size:12px;">2024-12-10T18:41:08+00:00</text>
<text x="900" y="225" fill="gray" style="font-size:12px;">2025-02-13T01:17:56+00:00</text>
</svg>