<svg xmlns="http://www.w3.org/2000/svg" width="1000" height="200" style="background-color: white; font-family: sans-serif;">
<line x1="50" y1="100" x2="950" y2="100" stroke="gray" stroke-width="1"/>
<path d="M 173.0120315309086 100 Q 111.5060157654543 80, 50.0 100" stroke="black" fill="none" marker-end="url(#arrowhead)"/>
<path d="M 454.2928234338266 100 Q 313.65242748236756 80, 173.0120315309086 100" stroke="black" fill="none" marker-end="url(#arrowhead)"/>
<path d="M 682.7413544979947 100 Q 427.8766930144517 80, 173.0120315309086 100" stroke="black" fill="none" marker-end="url(#arrowhead)"/>
<path d="M 682.7413544979947 100 Q 568.5170889659107 80, 454.2928234338266 100" stroke="black" fill="none" marker-end="url(#arrowhead)"/>
<path d="M 838.8405822154613 100 Q 760.790968356728 80, 682.7413544979947 100" stroke="black" fill="none" marker-end="url(#arrowhead)"/>
<path d="M 850.8405822154613 100 Q 844.8405822154613 80, 838.8405822154613 100" stroke="black" fill="none" marker-end="url(#arrowhead)"/>
<path d="M 862.8405822154613 100 Q 856.8405822154613 80, 850.8405822154613 100" stroke="black" fill="none" marker-end="url(#arrowhead)"/>
<path d="M 874.8405822154613 100 Q 862.8405822154613 80, 850.8405822154613 100" stroke="black" fill="none" marker-end="url(#arrowhead)"/>
<path d="M 874.8405822154613 100 Q 868.8405822154613 80, 862.8405822154613 100" stroke="black" fill="none" marker-end="url(#arrowhead)"/>
<path d="M 933.1514810365095 100 Q 903.9960316259853 80, 874.8405822154613 100" stroke="black" fill="none" marker-end="url(#arrowhead)"/>
<path d="M 950.0 100 Q 912.4202911077307 80, 874.8405822154613 100" stroke="black" fill="none" marker-end="url(#arrowhead)"/>
<path d="M 950.0 100 Q 941.5757405182547 80, 933.1514810365095 100" stroke="black" fill="none" marker-end="url(#arrowhead)"/>

<defs>
  <marker id="arrowhead" markerWidth="5" markerHeight="5" 
          refX="2" refY="2" orient="auto" fill="black">
    <path d="M0,0 L0,4 L4,2 z" />
  </marker>
</defs>

<circle cx="50.0" cy="100" r="6" fill="none" stroke="blue" stroke-width="2" />
<circle cx="50.0" cy="100" r="3" fill="blue" />
<circle cx="173.0120315309086" cy="100" r="4" fill="red" />
<circle cx="454.2928234338266" cy="100" r="6" fill="none" stroke="blue" stroke-width="2" />
<circle cx="454.2928234338266" cy="100" r="3" fill="blue" />
<circle cx="657.7188818109528" cy="100" r="4" fill="black" />
<circle cx="682.7413544979947" cy="100" r="4" fill="red" />
<circle cx="838.8405822154613" cy="100" r="6" fill="none" stroke="blue" stroke-width="2" />
<circle cx="838.8405822154613" cy="100" r="3" fill="blue" />
<circle cx="850.8405822154613" cy="100" r="4" fill="black" />
<circle cx="862.8405822154613" cy="100" r="6" fill="none" stroke="green" stroke-width="2" />
<circle cx="862.8405822154613" cy="100" r="3" fill="green" />
<circle cx="874.8405822154613" cy="100" r="4" fill="black" />
<circle cx="933.1514810365095" cy="100" r="6" fill="none" stroke="blue" stroke-width="2" />
<circle cx="933.1514810365095" cy="100" r="3" fill="blue" />
<circle cx="950.0" cy="100" r="4" fill="red" />
<text x="50" y="125" fill="gray" style="font-size:12px;">2024-12-10T18:41:08+00:00</text>
<text x="900" y="125" fill="gray" style="font-size:12px;">2025-02-13T01:17:56+00:00</text>
</svg>