<svg xmlns="http://www.w3.org/2000/svg" width="1000" height="400" style="background-color: white; font-family: sans-serif;">
<line x1="50" y1="200" x2="950" y2="200" stroke="gray" stroke-width="1"/>
<path d="M 62.0 200 Q 56.0 180, 50.0 200" stroke="black" fill="none" marker-end="url(#arrowhead)"/>
<path d="M 74.0 200 Q 62.0 180, 50.0 200" stroke="black" fill="none" marker-end="url(#arrowhead)"/>
<path d="M 86.0 200 Q 68.0 180, 50.0 200" stroke="black" fill="none" marker-end="url(#arrowhead)"/>
<path d="M 98.0 200 Q 80.0 180, 62.0 200" stroke="black" fill="none" marker-end="url(#arrowhead)"/>
<path d="M 110.0 200 Q 86.0 180, 62.0 200" stroke="black" fill="none" marker-end="url(#arrowhead)"/>
<path d="M 122.0 200 Q 116.0 180, 110.0 200" stroke="black" fill="none" marker-end="url(#arrowhead)"/>
<path d="M 122.0 200 Q 92.0 180, 62.0 200" stroke="black" fill="none" marker-end="url(#arrowhead)"/>
<path d="M 134.0 200 Q 104.0 180, 74.0 200" stroke="black" fill="none" marker-end="url(#arrowhead)"/>
<path d="M 134.0 200 Q 92.0 180, 50.0 200" stroke="black" fill="none" marker-end="url(#arrowhead)"/>
<path d="M 146.0 200 Q 98.0 180, 50.0 200" stroke="black" fill="none" marker-end="url(#arrowhead)"/>
<path d="M 169.50797129760582 200 Q 157.7539856488029 180, 146.0 200" stroke="black" fill="none" marker-end="url(#arrowhead)"/>
<path d="M 226.92422997691634 200 Q 220.92422997691634 180, 214.92422997691634 200" stroke="black" fill="none" marker-end="url(#arrowhead)"/>
<path d="M 238.92422997691634 200 Q 232.92422997691634 180, 226.92422997691634 200" stroke="black" fill="none" marker-end="url(#arrowhead)"/>
<path d="M 250.92422997691634 200 Q 244.92422997691634 180, 238.92422997691634 200" stroke="black" fill="none" marker-end="url(#arrowhead)"/>
<path d="M 262.9242299769163 200 Q 256.9242299769163 180, 250.92422997691634 200" stroke="black" fill="none" marker-end="url(#arrowhead)"/>
<path d="M 262.9242299769163 200 Q 244.9242299769163 180, 226.92422997691634 200" stroke="black" fill="none" marker-end="url(#arrowhead)"/>
<path d="M 262.9242299769163 200 Q 250.9242299769163 180, 238.92422997691634 200" stroke="black" fill="none" marker-end="url(#arrowhead)"/>
<path d="M 274.9242299769163 200 Q 268.9242299769163 180, 262.9242299769163 200" stroke="black" fill="none" marker-end="url(#arrowhead)"/>
<path d="M 784.229177888006 200 Q 505.57670393246116 180, 226.92422997691634 200" stroke="black" fill="none" marker-end="url(#arrowhead)"/>
<path d="M 796.229177888006 200 Q 790.229177888006 180, 784.229177888006 200" stroke="black" fill="none" marker-end="url(#arrowhead)"/>
<path d="M 808.229177888006 200 Q 802.229177888006 180, 796.229177888006 200" stroke="black" fill="none" marker-end="url(#arrowhead)"/>
<path d="M 820.229177888006 200 Q 814.229177888006 180, 808.229177888006 200" stroke="black" fill="none" marker-end="url(#arrowhead)"/>
<path d="M 832.229177888006 200 Q 826.229177888006 180, 820.229177888006 200" stroke="black" fill="none" marker-end="url(#arrowhead)"/>
<path d="M 844.229177888006 200 Q 814.229177888006 180, 784.229177888006 200" stroke="black" fill="none" marker-end="url(#arrowhead)"/>
<path d="M 856.229177888006 200 Q 826.229177888006 180, 796.229177888006 200" stroke="black" fill="none" marker-end="url(#arrowhead)"/>
<path d="M 868.229177888006 200 Q 850.229177888006 180, 832.229177888006 200" stroke="black" fill="none" marker-end="url(#arrowhead)"/>
<path d="M 949.1214602279139 200 Q 908.67531905796 180, 868.229177888006 200" stroke="black" fill="none" marker-end="url(#arrowhead)"/>
<path d="M 961.1214602279139 200 Q 955.1214602279139 180, 949.1214602279139 200" stroke="black" fill="none" marker-end="url(#arrowhead)"/>

<defs>
  <marker id="arrowhead" markerWidth="5" markerHeight="5" 
          refX="2" refY="2" orient="auto" fill="black">
    <path d="M0,0 L0,4 L4,2 z" />
  </marker>
</defs>

<circle cx="50.0" cy="200" r="6" fill="none" stroke="blue" stroke-width="2" />
<circle cx="50.0" cy="200" r="3" fill="blue" />
<circle cx="62.0" cy="200" r="4" fill="red" />
<circle cx="74.0" cy="200" r="4" fill="red" />
<circle cx="86.0" cy="200" r="4" fill="black" />
<circle cx="98.0" cy="200" r="4" fill="black" />
<circle cx="110.0" cy="200" r="6" fill="none" stroke="black" stroke-width="2" />
<circle cx="110.0" cy="200" r="3" fill="black" />
<circle cx="122.0" cy="200" r="4" fill="black" />
<circle cx="134.0" cy="200" r="4" fill="red" />
<circle cx="146.0" cy="200" r="4" fill="blue" />
<circle cx="169.50797129760582" cy="200" r="4" fill="green" />
<circle cx="214.92422997691634" cy="200" r="4" fill="black" />
<circle cx="226.92422997691634" cy="200" r="4" fill="black" />
<circle cx="238.92422997691634" cy="200" r="6" fill="none" stroke="black" stroke-width="2" />
<circle cx="238.92422997691634" cy="200" r="3" fill="black" />
<circle cx="250.92422997691634" cy="200" r="4" fill="black" />
<circle cx="262.9242299769163" cy="200" r="4" fill="black" />
<circle cx="274.9242299769163" cy="200" r="4" fill="black" />
<circle cx="784.229177888006" cy="200" r="4" fill="black" />
<circle cx="796.229177888006" cy="200" r="6" fill="none" stroke="black" stroke-width="2" />
<circle cx="796.229177888006" cy="200" r="3" fill="black" />
<circle cx="808.229177888006" cy="200" r="4" fill="black" />
<circle cx="820.229177888006" cy="200" r="4" fill="black" />
<circle cx="832.229177888006" cy="200" r="4" fill="black" />
<circle cx="844.229177888006" cy="200" r="4" fill="black" />
<circle cx="856.229177888006" cy="200" r="4" fill="black" />
<circle cx="868.229177888006" cy="200" r="4" fill="green" />
<circle cx="949.1214602279139" cy="200" r="4" fill="black" />
<circle cx="961.1214602279139" cy="200" r="4" fill="black" />
<text x="50" y="225" fill="gray" style="font-size:12px;">2023-12-21T13:29:05+00:00</text>
<text x="900" y="225" fill="gray" style="font-size:12px;">2024-09-03T19:39:01+00:00</text>
</svg>