<svg xmlns="http://www.w3.org/2000/svg" width="1000" height="200" style="background-color: white; font-family: sans-serif;">
<line x1="50" y1="100" x2="950" y2="100" stroke="gray" stroke-width="1"/>
<path d="M 62.0 100 Q 56.0 80, 50.0 100" stroke="black" fill="none" marker-end="url(#arrowhead)"/>
<path d="M 74.0 100 Q 62.0 80, 50.0 100" stroke="black" fill="none" marker-end="url(#arrowhead)"/>
<path d="M 86.0 100 Q 68.0 80, 50.0 100" stroke="black" fill="none" marker-end="url(#arrowhead)"/>
<path d="M 98.0 100 Q 80.0 80, 62.0 100" stroke="black" fill="none" marker-end="url(#arrowhead)"/>
<path d="M 110.0 100 Q 86.0 80, 62.0 100" stroke="black" fill="none" marker-end="url(#arrowhead)"/>
<path d="M 122.0 100 Q 116.0 80, 110.0 100" stroke="black" fill="none" marker-end="url(#arrowhead)"/>
<path d="M 122.0 100 Q 92.0 80, 62.0 100" stroke="black" fill="none" marker-end="url(#arrowhead)"/>
<path d="M 134.0 100 Q 104.0 80, 74.0 100" stroke="black" fill="none" marker-end="url(#arrowhead)"/>
<path d="M 134.0 100 Q 92.0 80, 50.0 100" stroke="black" fill="none" marker-end="url(#arrowhead)"/>
<path d="M 146.0 100 Q 98.0 80, 50.0 100" stroke="black" fill="none" marker-end="url(#arrowhead)"/>
<path d="M 169.50797129760582 100 Q 157.7539856488029 80, 146.0 100" stroke="black" fill="none" marker-end="url(#arrowhead)"/>
<path d="M 226.92422997691634 100 Q 220.92422997691634 80, 214.92422997691634 100" stroke="black" fill="none" marker-end="url(#arrowhead)"/>
<path d="M 238.92422997691634 100 Q 232.92422997691634 80, 226.92422997691634 100" stroke="black" fill="none" marker-end="url(#arrowhead)"/>
<path d="M 250.92422997691634 100 Q 244.92422997691634 80, 238.92422997691634 100" stroke="black" fill="none" marker-end="url(#arrowhead)"/>
<path d="M 262.9242299769163 100 Q 256.9242299769163 80, 250.92422997691634 100" stroke="black" fill="none" marker-end="url(#arrowhead)"/>
<path d="M 262.9242299769163 100 Q 244.9242299769163 80, 226.92422997691634 100" stroke="black" fill="none" marker-end="url(#arrowhead)"/>
<path d="M 262.9242299769163 100 Q 250.9242299769163 80, 238.92422997691634 100" stroke="black" fill="none" marker-end="url(#arrowhead)"/>
<path d="M 274.9242299769163 100 Q 268.9242299769163 80, 262.9242299769163 100" stroke="black" fill="none" marker-end="url(#arrowhead)"/>
<path d="M 784.229177888006 100 Q 505.57670393246116 80, 226.92422997691634 100" stroke="black" fill="none" marker-end="url(#arrowhead)"/>
<path d="M 796.229177888006 100 Q 790.229177888006 80, 784.229177888006 100" stroke="black" fill="none" marker-end="url(#arrowhead)"/>
<path d="M 808.229177888006 100 Q 802.229177888006 80, 796.229177888006 100" stroke="black" fill="none" marker-end="url(#arrowhead)"/>
<path d="M 820.229177888006 100 Q 814.229177888006 80, 808.229177888006 100" stroke="black" fill="none" marker-end="url(#arrowhead)"/>
<path d="M 832.229177888006 100 Q 826.229177888006 80, 820.229177888006 100" stroke="black" fill="none" marker-end="url(#arrowhead)"/>
<path d="M 844.229177888006 100 Q 814.229177888006 80, 784.229177888006 100" stroke="black" fill="none" marker-end="url(#arrowhead)"/>
<path d="M 856.229177888006 100 Q 826.229177888006 80, 796.229177888006 100" stroke="black" fill="none" marker-end="url(#arrowhead)"/>
<path d="M 868.229177888006 100 Q 850.229177888006 80, 832.229177888006 100" stroke="black" fill="none" marker-end="url(#arrowhead)"/>
<path d="M 949.1214602279139 100 Q 908.67531905796 80, 868.229177888006 100" stroke="black" fill="none" marker-end="url(#arrowhead)"/>
<path d="M 961.1214602279139 100 Q 955.1214602279139 80, 949.1214602279139 100" stroke="black" fill="none" marker-end="url(#arrowhead)"/>

<defs>
  <marker id="arrowhead" markerWidth="5" markerHeight="5" 
          refX="2" refY="2" orient="auto" fill="black">
    <path d="M0,0 L0,4 L4,2 z" />
  </marker>
</defs>

<circle cx="50.0" cy="100" r="6" fill="none" stroke="blue" stroke-width="2" />
<circle cx="50.0" cy="100" r="3" fill="blue" />
<circle cx="62.0" cy="100" r="4" fill="red" />
<circle cx="74.0" cy="100" r="4" fill="red" />
<circle cx="86.0" cy="100" r="4" fill="black" />
<circle cx="98.0" cy="100" r="4" fill="black" />
<circle cx="110.0" cy="100" r="6" fill="none" stroke="black" stroke-width="2" />
<circle cx="110.0" cy="100" r="3" fill="black" />
<circle cx="122.0" cy="100" r="4" fill="black" />
<circle cx="134.0" cy="100" r="4" fill="red" />
<circle cx="146.0" cy="100" r="4" fill="blue" />
<circle cx="169.50797129760582" cy="100" r="4" fill="green" />
<circle cx="214.92422997691634" cy="100" r="4" fill="black" />
<circle cx="226.92422997691634" cy="100" r="4" fill="black" />
<circle cx="238.92422997691634" cy="100" r="6" fill="none" stroke="black" stroke-width="2" />
<circle cx="238.92422997691634" cy="100" r="3" fill="black" />
<circle cx="250.92422997691634" cy="100" r="4" fill="black" />
<circle cx="262.9242299769163" cy="100" r="4" fill="black" />
<circle cx="274.9242299769163" cy="100" r="4" fill="black" />
<circle cx="784.229177888006" cy="100" r="4" fill="black" />
<circle cx="796.229177888006" cy="100" r="6" fill="none" stroke="black" stroke-width="2" />
<circle cx="796.229177888006" cy="100" r="3" fill="black" />
<circle cx="808.229177888006" cy="100" r="4" fill="black" />
<circle cx="820.229177888006" cy="100" r="4" fill="black" />
<circle cx="832.229177888006" cy="100" r="4" fill="black" />
<circle cx="844.229177888006" cy="100" r="4" fill="black" />
<circle cx="856.229177888006" cy="100" r="4" fill="black" />
<circle cx="868.229177888006" cy="100" r="4" fill="green" />
<circle cx="949.1214602279139" cy="100" r="4" fill="black" />
<circle cx="961.1214602279139" cy="100" r="4" fill="black" />
<text x="50" y="125" fill="gray" style="font-size:12px;">2023-12-21T13:29:05+00:00</text>
<text x="900" y="125" fill="gray" style="font-size:12px;">2024-09-03T19:39:01+00:00</text>
</svg>