<svg xmlns="http://www.w3.org/2000/svg" width="1000" height="200" style="background-color: white; font-family: sans-serif;">
<line x1="50" y1="100" x2="950" y2="100" stroke="gray" stroke-width="1"/>
<path d="M 235.25480493618562 100 Q 142.6274024680928 80, 50.0 100" stroke="black" fill="none" marker-end="url(#arrowhead)"/>
<path d="M 268.7641432580032 100 Q 159.3820716290016 80, 50.0 100" stroke="black" fill="none" marker-end="url(#arrowhead)"/>
<path d="M 268.7641432580032 100 Q 252.0094740970944 80, 235.25480493618562 100" stroke="black" fill="none" marker-end="url(#arrowhead)"/>
<path d="M 292.7641432580032 100 Q 286.7641432580032 80, 280.7641432580032 100" stroke="black" fill="none" marker-end="url(#arrowhead)"/>
<path d="M 304.7641432580032 100 Q 292.7641432580032 80, 280.7641432580032 100" stroke="black" fill="none" marker-end="url(#arrowhead)"/>
<path d="M 304.7641432580032 100 Q 298.7641432580032 80, 292.7641432580032 100" stroke="black" fill="none" marker-end="url(#arrowhead)"/>
<path d="M 316.7641432580032 100 Q 304.7641432580032 80, 292.7641432580032 100" stroke="black" fill="none" marker-end="url(#arrowhead)"/>
<path d="M 328.7641432580032 100 Q 316.7641432580032 80, 304.7641432580032 100" stroke="black" fill="none" marker-end="url(#arrowhead)"/>
<path d="M 340.7641432580032 100 Q 334.7641432580032 80, 328.7641432580032 100" stroke="black" fill="none" marker-end="url(#arrowhead)"/>
<path d="M 352.7641432580032 100 Q 328.7641432580032 80, 304.7641432580032 100" stroke="black" fill="none" marker-end="url(#arrowhead)"/>
<path d="M 352.7641432580032 100 Q 340.7641432580032 80, 328.7641432580032 100" stroke="black" fill="none" marker-end="url(#arrowhead)"/>
<path d="M 423.354856229068 100 Q 370.0594997435356 80, 316.7641432580032 100" stroke="black" fill="none" marker-end="url(#arrowhead)"/>
<path d="M 950.0 100 Q 651.3820716290015 80, 352.7641432580032 100" stroke="black" fill="none" marker-end="url(#arrowhead)"/>

<defs>
  <marker id="arrowhead" markerWidth="5" markerHeight="5" 
          refX="2" refY="2" orient="auto" fill="black">
    <path d="M0,0 L0,4 L4,2 z" />
  </marker>
</defs>

<circle cx="50.0" cy="100" r="6" fill="none" stroke="blue" stroke-width="2" />
<circle cx="50.0" cy="100" r="3" fill="blue" />
<circle cx="235.25480493618562" cy="100" r="4" fill="green" />
<circle cx="268.7641432580032" cy="100" r="4" fill="red" />
<circle cx="280.7641432580032" cy="100" r="4" fill="blue" />
<circle cx="292.7641432580032" cy="100" r="4" fill="green" />
<circle cx="304.7641432580032" cy="100" r="6" fill="none" stroke="black" stroke-width="2" />
<circle cx="304.7641432580032" cy="100" r="3" fill="black" />
<circle cx="316.7641432580032" cy="100" r="4" fill="black" />
<circle cx="328.7641432580032" cy="100" r="4" fill="black" />
<circle cx="340.7641432580032" cy="100" r="6" fill="none" stroke="black" stroke-width="2" />
<circle cx="340.7641432580032" cy="100" r="3" fill="black" />
<circle cx="352.7641432580032" cy="100" r="4" fill="black" />
<circle cx="423.354856229068" cy="100" r="4" fill="green" />
<circle cx="950.0" cy="100" r="4" fill="black" />
<text x="50" y="125" fill="gray" style="font-size:12px;">2025-02-20T13:27:42+00:00</text>
<text x="900" y="125" fill="gray" style="font-size:12px;">2025-02-24T00:19:09+00:00</text>
</svg>