<svg xmlns="http://www.w3.org/2000/svg" width="1000" height="400" style="background-color: white; font-family: sans-serif;">
<line x1="50" y1="200" x2="950" y2="200" stroke="gray" stroke-width="1"/>
<path d="M 235.25480493618562 200 Q 142.6274024680928 180, 50.0 200" stroke="black" fill="none" marker-end="url(#arrowhead)"/>
<path d="M 268.7641432580032 200 Q 159.3820716290016 180, 50.0 200" stroke="black" fill="none" marker-end="url(#arrowhead)"/>
<path d="M 268.7641432580032 200 Q 252.0094740970944 180, 235.25480493618562 200" stroke="black" fill="none" marker-end="url(#arrowhead)"/>
<path d="M 292.7641432580032 200 Q 286.7641432580032 180, 280.7641432580032 200" stroke="black" fill="none" marker-end="url(#arrowhead)"/>
<path d="M 304.7641432580032 200 Q 292.7641432580032 180, 280.7641432580032 200" stroke="black" fill="none" marker-end="url(#arrowhead)"/>
<path d="M 304.7641432580032 200 Q 298.7641432580032 180, 292.7641432580032 200" stroke="black" fill="none" marker-end="url(#arrowhead)"/>
<path d="M 316.7641432580032 200 Q 304.7641432580032 180, 292.7641432580032 200" stroke="black" fill="none" marker-end="url(#arrowhead)"/>
<path d="M 328.7641432580032 200 Q 316.7641432580032 180, 304.7641432580032 200" stroke="black" fill="none" marker-end="url(#arrowhead)"/>
<path d="M 340.7641432580032 200 Q 334.7641432580032 180, 328.7641432580032 200" stroke="black" fill="none" marker-end="url(#arrowhead)"/>
<path d="M 352.7641432580032 200 Q 328.7641432580032 180, 304.7641432580032 200" stroke="black" fill="none" marker-end="url(#arrowhead)"/>
<path d="M 352.7641432580032 200 Q 340.7641432580032 180, 328.7641432580032 200" stroke="black" fill="none" marker-end="url(#arrowhead)"/>
<path d="M 423.354856229068 200 Q 370.0594997435356 180, 316.7641432580032 200" stroke="black" fill="none" marker-end="url(#arrowhead)"/>
<path d="M 950.0 200 Q 651.3820716290015 180, 352.7641432580032 200" stroke="black" fill="none" marker-end="url(#arrowhead)"/>

<defs>
  <marker id="arrowhead" markerWidth="5" markerHeight="5" 
          refX="2" refY="2" orient="auto" fill="black">
    <path d="M0,0 L0,4 L4,2 z" />
  </marker>
</defs>

<circle cx="50.0" cy="200" r="6" fill="none" stroke="blue" stroke-width="2" />
<circle cx="50.0" cy="200" r="3" fill="blue" />
<circle cx="235.25480493618562" cy="200" r="4" fill="green" />
<circle cx="268.7641432580032" cy="200" r="4" fill="red" />
<circle cx="280.7641432580032" cy="200" r="4" fill="blue" />
<circle cx="292.7641432580032" cy="200" r="4" fill="green" />
<circle cx="304.7641432580032" cy="200" r="6" fill="none" stroke="black" stroke-width="2" />
<circle cx="304.7641432580032" cy="200" r="3" fill="black" />
<circle cx="316.7641432580032" cy="200" r="4" fill="black" />
<circle cx="328.7641432580032" cy="200" r="4" fill="black" />
<circle cx="340.7641432580032" cy="200" r="6" fill="none" stroke="black" stroke-width="2" />
<circle cx="340.7641432580032" cy="200" r="3" fill="black" />
<circle cx="352.7641432580032" cy="200" r="4" fill="black" />
<circle cx="423.354856229068" cy="200" r="4" fill="green" />
<circle cx="950.0" cy="200" r="4" fill="black" />
<text x="50" y="225" fill="gray" style="font-size:12px;">2025-02-20T13:27:42+00:00</text>
<text x="900" y="225" fill="gray" style="font-size:12px;">2025-02-24T00:19:09+00:00</text>
</svg>