<svg xmlns="http://www.w3.org/2000/svg" width="1000" height="400" style="background-color: white; font-family: sans-serif;">
<line x1="50" y1="200" x2="950" y2="200" stroke="gray" stroke-width="1"/>
<path d="M 62.0 200 Q 56.0 180, 50.0 200" stroke="black" fill="none" marker-end="url(#arrowhead)"/>
<path d="M 74.0 200 Q 62.0 180, 50.0 200" stroke="black" fill="none" marker-end="url(#arrowhead)"/>
<path d="M 86.0 200 Q 74.0 180, 62.0 200" stroke="black" fill="none" marker-end="url(#arrowhead)"/>
<path d="M 98.0 200 Q 74.0 180, 50.0 200" stroke="black" fill="none" marker-end="url(#arrowhead)"/>
<path d="M 98.0 200 Q 80.0 180, 62.0 200" stroke="black" fill="none" marker-end="url(#arrowhead)"/>
<path d="M 98.0 200 Q 92.0 180, 86.0 200" stroke="black" fill="none" marker-end="url(#arrowhead)"/>
<path d="M 110.0 200 Q 104.0 180, 98.0 200" stroke="black" fill="none" marker-end="url(#arrowhead)"/>
<path d="M 122.0 200 Q 110.0 180, 98.0 200" stroke="black" fill="none" marker-end="url(#arrowhead)"/>
<path d="M 134.0 200 Q 116.0 180, 98.0 200" stroke="black" fill="none" marker-end="url(#arrowhead)"/>
<path d="M 146.0 200 Q 110.0 180, 74.0 200" stroke="black" fill="none" marker-end="url(#arrowhead)"/>
<path d="M 158.0 200 Q 152.0 180, 146.0 200" stroke="black" fill="none" marker-end="url(#arrowhead)"/>
<path d="M 299.4394998846486 200 Q 293.4394998846486 180, 287.4394998846486 200" stroke="black" fill="none" marker-end="url(#arrowhead)"/>
<path d="M 311.4394998846486 200 Q 210.7197499423243 180, 110.0 200" stroke="black" fill="none" marker-end="url(#arrowhead)"/>
<path d="M 311.4394998846486 200 Q 180.7197499423243 180, 50.0 200" stroke="black" fill="none" marker-end="url(#arrowhead)"/>
<path d="M 311.4394998846486 200 Q 222.7197499423243 180, 134.0 200" stroke="black" fill="none" marker-end="url(#arrowhead)"/>
<path d="M 323.4394998846486 200 Q 317.4394998846486 180, 311.4394998846486 200" stroke="black" fill="none" marker-end="url(#arrowhead)"/>
<path d="M 335.4394998846486 200 Q 317.4394998846486 180, 299.4394998846486 200" stroke="black" fill="none" marker-end="url(#arrowhead)"/>
<path d="M 335.4394998846486 200 Q 311.4394998846486 180, 287.4394998846486 200" stroke="black" fill="none" marker-end="url(#arrowhead)"/>
<path d="M 359.4394998846486 200 Q 329.4394998846486 180, 299.4394998846486 200" stroke="black" fill="none" marker-end="url(#arrowhead)"/>
<path d="M 359.4394998846486 200 Q 347.4394998846486 180, 335.4394998846486 200" stroke="black" fill="none" marker-end="url(#arrowhead)"/>
<path d="M 359.4394998846486 200 Q 353.4394998846486 180, 347.4394998846486 200" stroke="black" fill="none" marker-end="url(#arrowhead)"/>
<path d="M 359.4394998846486 200 Q 323.4394998846486 180, 287.4394998846486 200" stroke="black" fill="none" marker-end="url(#arrowhead)"/>
<path d="M 371.4394998846486 200 Q 353.4394998846486 180, 335.4394998846486 200" stroke="black" fill="none" marker-end="url(#arrowhead)"/>
<path d="M 371.4394998846486 200 Q 365.4394998846486 180, 359.4394998846486 200" stroke="black" fill="none" marker-end="url(#arrowhead)"/>
<path d="M 419.4394998846486 200 Q 401.4394998846486 180, 383.4394998846486 200" stroke="black" fill="none" marker-end="url(#arrowhead)"/>
<path d="M 431.4394998846486 200 Q 407.4394998846486 180, 383.4394998846486 200" stroke="black" fill="none" marker-end="url(#arrowhead)"/>
<path d="M 431.4394998846486 200 Q 413.4394998846486 180, 395.4394998846486 200" stroke="black" fill="none" marker-end="url(#arrowhead)"/>
<path d="M 443.4394998846486 200 Q 425.4394998846486 180, 407.4394998846486 200" stroke="black" fill="none" marker-end="url(#arrowhead)"/>
<path d="M 455.4394998846486 200 Q 443.4394998846486 180, 431.4394998846486 200" stroke="black" fill="none" marker-end="url(#arrowhead)"/>
<path d="M 455.4394998846486 200 Q 419.4394998846486 180, 383.4394998846486 200" stroke="black" fill="none" marker-end="url(#arrowhead)"/>
<path d="M 455.4394998846486 200 Q 425.4394998846486 180, 395.4394998846486 200" stroke="black" fill="none" marker-end="url(#arrowhead)"/>
<path d="M 467.4394998846486 200 Q 425.4394998846486 180, 383.4394998846486 200" stroke="black" fill="none" marker-end="url(#arrowhead)"/>
<path d="M 467.4394998846486 200 Q 461.4394998846486 180, 455.4394998846486 200" stroke="black" fill="none" marker-end="url(#arrowhead)"/>
<path d="M 479.4394998846486 200 Q 461.4394998846486 180, 443.4394998846486 200" stroke="black" fill="none" marker-end="url(#arrowhead)"/>
<path d="M 491.4394998846486 200 Q 437.4394998846486 180, 383.4394998846486 200" stroke="black" fill="none" marker-end="url(#arrowhead)"/>
<path d="M 491.4394998846486 200 Q 485.4394998846486 180, 479.4394998846486 200" stroke="black" fill="none" marker-end="url(#arrowhead)"/>
<path d="M 503.4394998846486 200 Q 467.4394998846486 180, 431.4394998846486 200" stroke="black" fill="none" marker-end="url(#arrowhead)"/>
<path d="M 503.4394998846486 200 Q 443.4394998846486 180, 383.4394998846486 200" stroke="black" fill="none" marker-end="url(#arrowhead)"/>
<path d="M 503.4394998846486 200 Q 479.4394998846486 180, 455.4394998846486 200" stroke="black" fill="none" marker-end="url(#arrowhead)"/>
<path d="M 503.4394998846486 200 Q 449.4394998846486 180, 395.4394998846486 200" stroke="black" fill="none" marker-end="url(#arrowhead)"/>
<path d="M 515.4394998846486 200 Q 473.4394998846486 180, 431.4394998846486 200" stroke="black" fill="none" marker-end="url(#arrowhead)"/>
<path d="M 515.4394998846486 200 Q 491.4394998846486 180, 467.4394998846486 200" stroke="black" fill="none" marker-end="url(#arrowhead)"/>
<path d="M 515.4394998846486 200 Q 449.4394998846486 180, 383.4394998846486 200" stroke="black" fill="none" marker-end="url(#arrowhead)"/>
<path d="M 515.4394998846486 200 Q 485.4394998846486 180, 455.4394998846486 200" stroke="black" fill="none" marker-end="url(#arrowhead)"/>
<path d="M 515.4394998846486 200 Q 455.4394998846486 180, 395.4394998846486 200" stroke="black" fill="none" marker-end="url(#arrowhead)"/>
<path d="M 551.4394998846486 200 Q 545.4394998846486 180, 539.4394998846486 200" stroke="black" fill="none" marker-end="url(#arrowhead)"/>
<path d="M 563.4394998846486 200 Q 551.4394998846486 180, 539.4394998846486 200" stroke="black" fill="none" marker-end="url(#arrowhead)"/>
<path d="M 563.4394998846486 200 Q 557.4394998846486 180, 551.4394998846486 200" stroke="black" fill="none" marker-end="url(#arrowhead)"/>
<path d="M 575.4394998846486 200 Q 569.4394998846486 180, 563.4394998846486 200" stroke="black" fill="none" marker-end="url(#arrowhead)"/>
<path d="M 575.4394998846486 200 Q 557.4394998846486 180, 539.4394998846486 200" stroke="black" fill="none" marker-end="url(#arrowhead)"/>
<path d="M 575.4394998846486 200 Q 563.4394998846486 180, 551.4394998846486 200" stroke="black" fill="none" marker-end="url(#arrowhead)"/>
<path d="M 587.4394998846486 200 Q 581.4394998846486 180, 575.4394998846486 200" stroke="black" fill="none" marker-end="url(#arrowhead)"/>
<path d="M 599.4394998846486 200 Q 587.4394998846486 180, 575.4394998846486 200" stroke="black" fill="none" marker-end="url(#arrowhead)"/>
<path d="M 611.4394998846486 200 Q 599.4394998846486 180, 587.4394998846486 200" stroke="black" fill="none" marker-end="url(#arrowhead)"/>
<path d="M 623.4394998846486 200 Q 605.4394998846486 180, 587.4394998846486 200" stroke="black" fill="none" marker-end="url(#arrowhead)"/>
<path d="M 623.4394998846486 200 Q 617.4394998846486 180, 611.4394998846486 200" stroke="black" fill="none" marker-end="url(#arrowhead)"/>
<path d="M 647.4394998846486 200 Q 641.4394998846486 180, 635.4394998846486 200" stroke="black" fill="none" marker-end="url(#arrowhead)"/>
<path d="M 647.4394998846486 200 Q 623.4394998846486 180, 599.4394998846486 200" stroke="black" fill="none" marker-end="url(#arrowhead)"/>
<path d="M 659.4394998846486 200 Q 647.4394998846486 180, 635.4394998846486 200" stroke="black" fill="none" marker-end="url(#arrowhead)"/>
<path d="M 659.4394998846486 200 Q 653.4394998846486 180, 647.4394998846486 200" stroke="black" fill="none" marker-end="url(#arrowhead)"/>
<path d="M 659.4394998846486 200 Q 629.4394998846486 180, 599.4394998846486 200" stroke="black" fill="none" marker-end="url(#arrowhead)"/>
<path d="M 671.4394998846486 200 Q 659.4394998846486 180, 647.4394998846486 200" stroke="black" fill="none" marker-end="url(#arrowhead)"/>
<path d="M 683.4394998846486 200 Q 665.4394998846486 180, 647.4394998846486 200" stroke="black" fill="none" marker-end="url(#arrowhead)"/>
<path d="M 683.4394998846486 200 Q 671.4394998846486 180, 659.4394998846486 200" stroke="black" fill="none" marker-end="url(#arrowhead)"/>
<path d="M 695.4394998846486 200 Q 545.4394998846486 180, 395.4394998846486 200" stroke="black" fill="none" marker-end="url(#arrowhead)"/>
<path d="M 695.4394998846486 200 Q 593.4394998846486 180, 491.4394998846486 200" stroke="black" fill="none" marker-end="url(#arrowhead)"/>
<path d="M 707.4394998846486 200 Q 647.4394998846486 180, 587.4394998846486 200" stroke="black" fill="none" marker-end="url(#arrowhead)"/>
<path d="M 707.4394998846486 200 Q 659.4394998846486 180, 611.4394998846486 200" stroke="black" fill="none" marker-end="url(#arrowhead)"/>
<path d="M 707.4394998846486 200 Q 665.4394998846486 180, 623.4394998846486 200" stroke="black" fill="none" marker-end="url(#arrowhead)"/>
<path d="M 719.4394998846486 200 Q 713.4394998846486 180, 707.4394998846486 200" stroke="black" fill="none" marker-end="url(#arrowhead)"/>
<path d="M 731.4394998846486 200 Q 563.4394998846486 180, 395.4394998846486 200" stroke="black" fill="none" marker-end="url(#arrowhead)"/>
<path d="M 731.4394998846486 200 Q 611.4394998846486 180, 491.4394998846486 200" stroke="black" fill="none" marker-end="url(#arrowhead)"/>
<path d="M 731.4394998846486 200 Q 713.4394998846486 180, 695.4394998846486 200" stroke="black" fill="none" marker-end="url(#arrowhead)"/>
<path d="M 755.4394998846486 200 Q 731.4394998846486 180, 707.4394998846486 200" stroke="black" fill="none" marker-end="url(#arrowhead)"/>
<path d="M 755.4394998846486 200 Q 749.4394998846486 180, 743.4394998846486 200" stroke="black" fill="none" marker-end="url(#arrowhead)"/>
<path d="M 767.4394998846486 200 Q 737.4394998846486 180, 707.4394998846486 200" stroke="black" fill="none" marker-end="url(#arrowhead)"/>
<path d="M 767.4394998846486 200 Q 755.4394998846486 180, 743.4394998846486 200" stroke="black" fill="none" marker-end="url(#arrowhead)"/>
<path d="M 767.4394998846486 200 Q 761.4394998846486 180, 755.4394998846486 200" stroke="black" fill="none" marker-end="url(#arrowhead)"/>
<path d="M 779.4394998846486 200 Q 755.4394998846486 180, 731.4394998846486 200" stroke="black" fill="none" marker-end="url(#arrowhead)"/>
<path d="M 779.4394998846486 200 Q 587.4394998846486 180, 395.4394998846486 200" stroke="black" fill="none" marker-end="url(#arrowhead)"/>
<path d="M 779.4394998846486 200 Q 635.4394998846486 180, 491.4394998846486 200" stroke="black" fill="none" marker-end="url(#arrowhead)"/>
<path d="M 779.4394998846486 200 Q 737.4394998846486 180, 695.4394998846486 200" stroke="black" fill="none" marker-end="url(#arrowhead)"/>
<path d="M 791.4394998846486 200 Q 719.4394998846486 180, 647.4394998846486 200" stroke="black" fill="none" marker-end="url(#arrowhead)"/>
<path d="M 791.4394998846486 200 Q 725.4394998846486 180, 659.4394998846486 200" stroke="black" fill="none" marker-end="url(#arrowhead)"/>
<path d="M 791.4394998846486 200 Q 695.4394998846486 180, 599.4394998846486 200" stroke="black" fill="none" marker-end="url(#arrowhead)"/>
<path d="M 791.4394998846486 200 Q 737.4394998846486 180, 683.4394998846486 200" stroke="black" fill="none" marker-end="url(#arrowhead)"/>
<path d="M 803.4394998846486 200 Q 797.4394998846486 180, 791.4394998846486 200" stroke="black" fill="none" marker-end="url(#arrowhead)"/>
<path d="M 815.4394998846486 200 Q 779.4394998846486 180, 743.4394998846486 200" stroke="black" fill="none" marker-end="url(#arrowhead)"/>
<path d="M 815.4394998846486 200 Q 785.4394998846486 180, 755.4394998846486 200" stroke="black" fill="none" marker-end="url(#arrowhead)"/>
<path d="M 827.4394998846486 200 Q 809.4394998846486 180, 791.4394998846486 200" stroke="black" fill="none" marker-end="url(#arrowhead)"/>
<path d="M 827.4394998846486 200 Q 815.4394998846486 180, 803.4394998846486 200" stroke="black" fill="none" marker-end="url(#arrowhead)"/>
<path d="M 839.4394998846486 200 Q 803.4394998846486 180, 767.4394998846486 200" stroke="black" fill="none" marker-end="url(#arrowhead)"/>
<path d="M 839.4394998846486 200 Q 611.4394998846486 180, 383.4394998846486 200" stroke="black" fill="none" marker-end="url(#arrowhead)"/>
<path d="M 839.4394998846486 200 Q 791.4394998846486 180, 743.4394998846486 200" stroke="black" fill="none" marker-end="url(#arrowhead)"/>
<path d="M 839.4394998846486 200 Q 797.4394998846486 180, 755.4394998846486 200" stroke="black" fill="none" marker-end="url(#arrowhead)"/>
<path d="M 851.4394998846486 200 Q 845.4394998846486 180, 839.4394998846486 200" stroke="black" fill="none" marker-end="url(#arrowhead)"/>
<path d="M 851.4394998846486 200 Q 833.4394998846486 180, 815.4394998846486 200" stroke="black" fill="none" marker-end="url(#arrowhead)"/>
<path d="M 851.4394998846486 200 Q 797.4394998846486 180, 743.4394998846486 200" stroke="black" fill="none" marker-end="url(#arrowhead)"/>
<path d="M 851.4394998846486 200 Q 803.4394998846486 180, 755.4394998846486 200" stroke="black" fill="none" marker-end="url(#arrowhead)"/>
<path d="M 863.4394998846486 200 Q 857.4394998846486 180, 851.4394998846486 200" stroke="black" fill="none" marker-end="url(#arrowhead)"/>
<path d="M 863.4394998846486 200 Q 623.4394998846486 180, 383.4394998846486 200" stroke="black" fill="none" marker-end="url(#arrowhead)"/>
<path d="M 863.4394998846486 200 Q 851.4394998846486 180, 839.4394998846486 200" stroke="black" fill="none" marker-end="url(#arrowhead)"/>
<path d="M 863.4394998846486 200 Q 809.4394998846486 180, 755.4394998846486 200" stroke="black" fill="none" marker-end="url(#arrowhead)"/>
<path d="M 863.4394998846486 200 Q 803.4394998846486 180, 743.4394998846486 200" stroke="black" fill="none" marker-end="url(#arrowhead)"/>
<path d="M 875.4394998846486 200 Q 863.4394998846486 180, 851.4394998846486 200" stroke="black" fill="none" marker-end="url(#arrowhead)"/>
<path d="M 875.4394998846486 200 Q 845.4394998846486 180, 815.4394998846486 200" stroke="black" fill="none" marker-end="url(#arrowhead)"/>
<path d="M 875.4394998846486 200 Q 857.4394998846486 180, 839.4394998846486 200" stroke="black" fill="none" marker-end="url(#arrowhead)"/>
<path d="M 875.4394998846486 200 Q 737.4394998846486 180, 599.4394998846486 200" stroke="black" fill="none" marker-end="url(#arrowhead)"/>
<path d="M 875.4394998846486 200 Q 815.4394998846486 180, 755.4394998846486 200" stroke="black" fill="none" marker-end="url(#arrowhead)"/>
<path d="M 875.4394998846486 200 Q 869.4394998846486 180, 863.4394998846486 200" stroke="black" fill="none" marker-end="url(#arrowhead)"/>
<path d="M 875.4394998846486 200 Q 809.4394998846486 180, 743.4394998846486 200" stroke="black" fill="none" marker-end="url(#arrowhead)"/>
<path d="M 887.4394998846486 200 Q 869.4394998846486 180, 851.4394998846486 200" stroke="black" fill="none" marker-end="url(#arrowhead)"/>
<path d="M 887.4394998846486 200 Q 875.4394998846486 180, 863.4394998846486 200" stroke="black" fill="none" marker-end="url(#arrowhead)"/>
<path d="M 911.4394998846486 200 Q 881.4394998846486 180, 851.4394998846486 200" stroke="black" fill="none" marker-end="url(#arrowhead)"/>
<path d="M 911.4394998846486 200 Q 887.4394998846486 180, 863.4394998846486 200" stroke="black" fill="none" marker-end="url(#arrowhead)"/>
<path d="M 911.4394998846486 200 Q 899.4394998846486 180, 887.4394998846486 200" stroke="black" fill="none" marker-end="url(#arrowhead)"/>
<path d="M 923.4394998846486 200 Q 899.4394998846486 180, 875.4394998846486 200" stroke="black" fill="none" marker-end="url(#arrowhead)"/>
<path d="M 935.4394998846486 200 Q 917.4394998846486 180, 899.4394998846486 200" stroke="black" fill="none" marker-end="url(#arrowhead)"/>
<path d="M 947.4394998846486 200 Q 929.4394998846486 180, 911.4394998846486 200" stroke="black" fill="none" marker-end="url(#arrowhead)"/>
<path d="M 947.4394998846486 200 Q 899.4394998846486 180, 851.4394998846486 200" stroke="black" fill="none" marker-end="url(#arrowhead)"/>
<path d="M 947.4394998846486 200 Q 905.4394998846486 180, 863.4394998846486 200" stroke="black" fill="none" marker-end="url(#arrowhead)"/>
<path d="M 947.4394998846486 200 Q 917.4394998846486 180, 887.4394998846486 200" stroke="black" fill="none" marker-end="url(#arrowhead)"/>
<path d="M 959.4394998846486 200 Q 929.4394998846486 180, 899.4394998846486 200" stroke="black" fill="none" marker-end="url(#arrowhead)"/>
<path d="M 983.4394998846486 200 Q 977.4394998846486 180, 971.4394998846486 200" stroke="black" fill="none" marker-end="url(#arrowhead)"/>
<path d="M 1019.4394998846486 200 Q 1007.4394998846486 180, 995.4394998846486 200" stroke="black" fill="none" marker-end="url(#arrowhead)"/>
<path d="M 1043.4394998846487 200 Q 1007.4394998846487 180, 971.4394998846486 200" stroke="black" fill="none" marker-end="url(#arrowhead)"/>
<path d="M 1055.4394998846487 200 Q 1013.4394998846487 180, 971.4394998846486 200" stroke="black" fill="none" marker-end="url(#arrowhead)"/>
<path d="M 1055.4394998846487 200 Q 1049.4394998846487 180, 1043.4394998846487 200" stroke="black" fill="none" marker-end="url(#arrowhead)"/>
<path d="M 1067.4394998846487 200 Q 1019.4394998846487 180, 971.4394998846486 200" stroke="black" fill="none" marker-end="url(#arrowhead)"/>
<path d="M 1067.4394998846487 200 Q 1055.4394998846487 180, 1043.4394998846487 200" stroke="black" fill="none" marker-end="url(#arrowhead)"/>
<path d="M 1067.4394998846487 200 Q 1061.4394998846487 180, 1055.4394998846487 200" stroke="black" fill="none" marker-end="url(#arrowhead)"/>
<path d="M 1079.4394998846487 200 Q 983.4394998846487 180, 887.4394998846486 200" stroke="black" fill="none" marker-end="url(#arrowhead)"/>
<path d="M 1091.4394998846487 200 Q 1073.4394998846487 180, 1055.4394998846487 200" stroke="black" fill="none" marker-end="url(#arrowhead)"/>
<path d="M 1091.4394998846487 200 Q 1079.4394998846487 180, 1067.4394998846487 200" stroke="black" fill="none" marker-end="url(#arrowhead)"/>
<path d="M 1103.4394998846487 200 Q 1079.4394998846487 180, 1055.4394998846487 200" stroke="black" fill="none" marker-end="url(#arrowhead)"/>
<path d="M 1115.4394998846487 200 Q 983.4394998846487 180, 851.4394998846486 200" stroke="black" fill="none" marker-end="url(#arrowhead)"/>
<path d="M 1115.4394998846487 200 Q 1001.4394998846487 180, 887.4394998846486 200" stroke="black" fill="none" marker-end="url(#arrowhead)"/>
<path d="M 1115.4394998846487 200 Q 1013.4394998846487 180, 911.4394998846486 200" stroke="black" fill="none" marker-end="url(#arrowhead)"/>
<path d="M 1115.4394998846487 200 Q 1031.4394998846487 180, 947.4394998846486 200" stroke="black" fill="none" marker-end="url(#arrowhead)"/>
<path d="M 1115.4394998846487 200 Q 989.4394998846487 180, 863.4394998846486 200" stroke="black" fill="none" marker-end="url(#arrowhead)"/>
<path d="M 1127.4394998846487 200 Q 1037.4394998846487 180, 947.4394998846486 200" stroke="black" fill="none" marker-end="url(#arrowhead)"/>
<path d="M 1127.4394998846487 200 Q 1103.4394998846487 180, 1079.4394998846487 200" stroke="black" fill="none" marker-end="url(#arrowhead)"/>
<path d="M 1127.4394998846487 200 Q 1007.4394998846487 180, 887.4394998846486 200" stroke="black" fill="none" marker-end="url(#arrowhead)"/>
<path d="M 1139.4394998846487 200 Q 995.4394998846487 180, 851.4394998846486 200" stroke="black" fill="none" marker-end="url(#arrowhead)"/>
<path d="M 1139.4394998846487 200 Q 1013.4394998846487 180, 887.4394998846486 200" stroke="black" fill="none" marker-end="url(#arrowhead)"/>
<path d="M 1139.4394998846487 200 Q 1127.4394998846487 180, 1115.4394998846487 200" stroke="black" fill="none" marker-end="url(#arrowhead)"/>
<path d="M 1139.4394998846487 200 Q 1025.4394998846487 180, 911.4394998846486 200" stroke="black" fill="none" marker-end="url(#arrowhead)"/>
<path d="M 1139.4394998846487 200 Q 869.4394998846487 180, 599.4394998846486 200" stroke="black" fill="none" marker-end="url(#arrowhead)"/>
<path d="M 1139.4394998846487 200 Q 1043.4394998846487 180, 947.4394998846486 200" stroke="black" fill="none" marker-end="url(#arrowhead)"/>
<path d="M 1139.4394998846487 200 Q 1001.4394998846487 180, 863.4394998846486 200" stroke="black" fill="none" marker-end="url(#arrowhead)"/>
<path d="M 1163.4394998846487 200 Q 773.4394998846487 180, 383.4394998846486 200" stroke="black" fill="none" marker-end="url(#arrowhead)"/>
<path d="M 1163.4394998846487 200 Q 1157.4394998846487 180, 1151.4394998846487 200" stroke="black" fill="none" marker-end="url(#arrowhead)"/>
<path d="M 1175.4394998846487 200 Q 1163.4394998846487 180, 1151.4394998846487 200" stroke="black" fill="none" marker-end="url(#arrowhead)"/>
<path d="M 1187.4394998846487 200 Q 875.4394998846487 180, 563.4394998846486 200" stroke="black" fill="none" marker-end="url(#arrowhead)"/>
<path d="M 1187.4394998846487 200 Q 1175.4394998846487 180, 1163.4394998846487 200" stroke="black" fill="none" marker-end="url(#arrowhead)"/>
<path d="M 1199.4394998846487 200 Q 1193.4394998846487 180, 1187.4394998846487 200" stroke="black" fill="none" marker-end="url(#arrowhead)"/>
<path d="M 1211.4394998846487 200 Q 887.4394998846487 180, 563.4394998846486 200" stroke="black" fill="none" marker-end="url(#arrowhead)"/>
<path d="M 1211.4394998846487 200 Q 797.4394998846487 180, 383.4394998846486 200" stroke="black" fill="none" marker-end="url(#arrowhead)"/>
<path d="M 1211.4394998846487 200 Q 1181.4394998846487 180, 1151.4394998846487 200" stroke="black" fill="none" marker-end="url(#arrowhead)"/>
<path d="M 1211.4394998846487 200 Q 1187.4394998846487 180, 1163.4394998846487 200" stroke="black" fill="none" marker-end="url(#arrowhead)"/>
<path d="M 1223.4394998846487 200 Q 803.4394998846487 180, 383.4394998846486 200" stroke="black" fill="none" marker-end="url(#arrowhead)"/>
<path d="M 1223.4394998846487 200 Q 1187.4394998846487 180, 1151.4394998846487 200" stroke="black" fill="none" marker-end="url(#arrowhead)"/>
<path d="M 1223.4394998846487 200 Q 893.4394998846487 180, 563.4394998846486 200" stroke="black" fill="none" marker-end="url(#arrowhead)"/>
<path d="M 1223.4394998846487 200 Q 1199.4394998846487 180, 1175.4394998846487 200" stroke="black" fill="none" marker-end="url(#arrowhead)"/>
<path d="M 1223.4394998846487 200 Q 1193.4394998846487 180, 1163.4394998846487 200" stroke="black" fill="none" marker-end="url(#arrowhead)"/>

<defs>
  <marker id="arrowhead" markerWidth="5" markerHeight="5" 
          refX="2" refY="2" orient="auto" fill="black">
    <path d="M0,0 L0,4 L4,2 z" />
  </marker>
</defs>

<circle cx="50.0" cy="200" r="6" fill="none" stroke="black" stroke-width="2" />
<circle cx="50.0" cy="200" r="3" fill="black" />
<circle cx="62.0" cy="200" r="6" fill="none" stroke="blue" stroke-width="2" />
<circle cx="62.0" cy="200" r="3" fill="blue" />
<circle cx="74.0" cy="200" r="4" fill="black" />
<circle cx="86.0" cy="200" r="4" fill="red" />
<circle cx="98.0" cy="200" r="6" fill="none" stroke="blue" stroke-width="2" />
<circle cx="98.0" cy="200" r="3" fill="blue" />
<circle cx="110.0" cy="200" r="6" fill="none" stroke="blue" stroke-width="2" />
<circle cx="110.0" cy="200" r="3" fill="blue" />
<circle cx="122.0" cy="200" r="6" fill="none" stroke="blue" stroke-width="2" />
<circle cx="122.0" cy="200" r="3" fill="blue" />
<circle cx="134.0" cy="200" r="6" fill="none" stroke="blue" stroke-width="2" />
<circle cx="134.0" cy="200" r="3" fill="blue" />
<circle cx="146.0" cy="200" r="4" fill="red" />
<circle cx="158.0" cy="200" r="4" fill="black" />
<circle cx="287.4394998846486" cy="200" r="4" fill="red" />
<circle cx="299.4394998846486" cy="200" r="4" fill="black" />
<circle cx="311.4394998846486" cy="200" r="4" fill="red" />
<circle cx="323.4394998846486" cy="200" r="6" fill="none" stroke="blue" stroke-width="2" />
<circle cx="323.4394998846486" cy="200" r="3" fill="blue" />
<circle cx="335.4394998846486" cy="200" r="4" fill="red" />
<circle cx="347.4394998846486" cy="200" r="4" fill="red" />
<circle cx="359.4394998846486" cy="200" r="6" fill="none" stroke="red" stroke-width="2" />
<circle cx="359.4394998846486" cy="200" r="3" fill="red" />
<circle cx="371.4394998846486" cy="200" r="4" fill="black" />
<circle cx="383.4394998846486" cy="200" r="4" fill="red" />
<circle cx="395.4394998846486" cy="200" r="4" fill="red" />
<circle cx="407.4394998846486" cy="200" r="4" fill="black" />
<circle cx="419.4394998846486" cy="200" r="6" fill="none" stroke="red" stroke-width="2" />
<circle cx="419.4394998846486" cy="200" r="3" fill="red" />
<circle cx="431.4394998846486" cy="200" r="6" fill="none" stroke="black" stroke-width="2" />
<circle cx="431.4394998846486" cy="200" r="3" fill="black" />
<circle cx="443.4394998846486" cy="200" r="6" fill="none" stroke="black" stroke-width="2" />
<circle cx="443.4394998846486" cy="200" r="3" fill="black" />
<circle cx="455.4394998846486" cy="200" r="4" fill="blue" />
<circle cx="467.4394998846486" cy="200" r="4" fill="red" />
<circle cx="479.4394998846486" cy="200" r="4" fill="red" />
<circle cx="491.4394998846486" cy="200" r="6" fill="none" stroke="black" stroke-width="2" />
<circle cx="491.4394998846486" cy="200" r="3" fill="black" />
<circle cx="503.4394998846486" cy="200" r="6" fill="none" stroke="blue" stroke-width="2" />
<circle cx="503.4394998846486" cy="200" r="3" fill="blue" />
<circle cx="515.4394998846486" cy="200" r="6" fill="none" stroke="blue" stroke-width="2" />
<circle cx="515.4394998846486" cy="200" r="3" fill="blue" />
<circle cx="527.4394998846486" cy="200" r="6" fill="none" stroke="blue" stroke-width="2" />
<circle cx="527.4394998846486" cy="200" r="3" fill="blue" />
<circle cx="539.4394998846486" cy="200" r="6" fill="none" stroke="blue" stroke-width="2" />
<circle cx="539.4394998846486" cy="200" r="3" fill="blue" />
<circle cx="551.4394998846486" cy="200" r="4" fill="red" />
<circle cx="563.4394998846486" cy="200" r="6" fill="none" stroke="blue" stroke-width="2" />
<circle cx="563.4394998846486" cy="200" r="3" fill="blue" />
<circle cx="575.4394998846486" cy="200" r="4" fill="red" />
<circle cx="587.4394998846486" cy="200" r="4" fill="black" />
<circle cx="599.4394998846486" cy="200" r="4" fill="black" />
<circle cx="611.4394998846486" cy="200" r="4" fill="black" />
<circle cx="623.4394998846486" cy="200" r="6" fill="none" stroke="black" stroke-width="2" />
<circle cx="623.4394998846486" cy="200" r="3" fill="black" />
<circle cx="635.4394998846486" cy="200" r="6" fill="none" stroke="blue" stroke-width="2" />
<circle cx="635.4394998846486" cy="200" r="3" fill="blue" />
<circle cx="647.4394998846486" cy="200" r="4" fill="red" />
<circle cx="659.4394998846486" cy="200" r="6" fill="none" stroke="red" stroke-width="2" />
<circle cx="659.4394998846486" cy="200" r="3" fill="red" />
<circle cx="671.4394998846486" cy="200" r="4" fill="black" />
<circle cx="683.4394998846486" cy="200" r="6" fill="none" stroke="blue" stroke-width="2" />
<circle cx="683.4394998846486" cy="200" r="3" fill="blue" />
<circle cx="695.4394998846486" cy="200" r="4" fill="red" />
<circle cx="707.4394998846486" cy="200" r="4" fill="red" />
<circle cx="719.4394998846486" cy="200" r="4" fill="red" />
<circle cx="731.4394998846486" cy="200" r="6" fill="none" stroke="blue" stroke-width="2" />
<circle cx="731.4394998846486" cy="200" r="3" fill="blue" />
<circle cx="743.4394998846486" cy="200" r="4" fill="red" />
<circle cx="755.4394998846486" cy="200" r="4" fill="red" />
<circle cx="767.4394998846486" cy="200" r="6" fill="none" stroke="blue" stroke-width="2" />
<circle cx="767.4394998846486" cy="200" r="3" fill="blue" />
<circle cx="779.4394998846486" cy="200" r="6" fill="none" stroke="blue" stroke-width="2" />
<circle cx="779.4394998846486" cy="200" r="3" fill="blue" />
<circle cx="791.4394998846486" cy="200" r="4" fill="red" />
<circle cx="803.4394998846486" cy="200" r="6" fill="none" stroke="black" stroke-width="2" />
<circle cx="803.4394998846486" cy="200" r="3" fill="black" />
<circle cx="815.4394998846486" cy="200" r="4" fill="blue" />
<circle cx="827.4394998846486" cy="200" r="4" fill="black" />
<circle cx="839.4394998846486" cy="200" r="6" fill="none" stroke="blue" stroke-width="2" />
<circle cx="839.4394998846486" cy="200" r="3" fill="blue" />
<circle cx="851.4394998846486" cy="200" r="4" fill="blue" />
<circle cx="863.4394998846486" cy="200" r="6" fill="none" stroke="blue" stroke-width="2" />
<circle cx="863.4394998846486" cy="200" r="3" fill="blue" />
<circle cx="875.4394998846486" cy="200" r="4" fill="red" />
<circle cx="887.4394998846486" cy="200" r="4" fill="red" />
<circle cx="899.4394998846486" cy="200" r="4" fill="red" />
<circle cx="911.4394998846486" cy="200" r="6" fill="none" stroke="red" stroke-width="2" />
<circle cx="911.4394998846486" cy="200" r="3" fill="red" />
<circle cx="923.4394998846486" cy="200" r="6" fill="none" stroke="black" stroke-width="2" />
<circle cx="923.4394998846486" cy="200" r="3" fill="black" />
<circle cx="935.4394998846486" cy="200" r="6" fill="none" stroke="black" stroke-width="2" />
<circle cx="935.4394998846486" cy="200" r="3" fill="black" />
<circle cx="947.4394998846486" cy="200" r="6" fill="none" stroke="blue" stroke-width="2" />
<circle cx="947.4394998846486" cy="200" r="3" fill="blue" />
<circle cx="959.4394998846486" cy="200" r="6" fill="none" stroke="blue" stroke-width="2" />
<circle cx="959.4394998846486" cy="200" r="3" fill="blue" />
<circle cx="971.4394998846486" cy="200" r="4" fill="red" />
<circle cx="983.4394998846486" cy="200" r="4" fill="black" />
<circle cx="995.4394998846486" cy="200" r="4" fill="black" />
<circle cx="1007.4394998846486" cy="200" r="4" fill="red" />
<circle cx="1019.4394998846486" cy="200" r="4" fill="black" />
<circle cx="1031.4394998846487" cy="200" r="4" fill="green" />
<circle cx="1043.4394998846487" cy="200" r="6" fill="none" stroke="black" stroke-width="2" />
<circle cx="1043.4394998846487" cy="200" r="3" fill="black" />
<circle cx="1055.4394998846487" cy="200" r="4" fill="red" />
<circle cx="1067.4394998846487" cy="200" r="6" fill="none" stroke="blue" stroke-width="2" />
<circle cx="1067.4394998846487" cy="200" r="3" fill="blue" />
<circle cx="1079.4394998846487" cy="200" r="6" fill="none" stroke="black" stroke-width="2" />
<circle cx="1079.4394998846487" cy="200" r="3" fill="black" />
<circle cx="1091.4394998846487" cy="200" r="6" fill="none" stroke="black" stroke-width="2" />
<circle cx="1091.4394998846487" cy="200" r="3" fill="black" />
<circle cx="1103.4394998846487" cy="200" r="4" fill="red" />
<circle cx="1115.4394998846487" cy="200" r="6" fill="none" stroke="blue" stroke-width="2" />
<circle cx="1115.4394998846487" cy="200" r="3" fill="blue" />
<circle cx="1127.4394998846487" cy="200" r="6" fill="none" stroke="blue" stroke-width="2" />
<circle cx="1127.4394998846487" cy="200" r="3" fill="blue" />
<circle cx="1139.4394998846487" cy="200" r="6" fill="none" stroke="blue" stroke-width="2" />
<circle cx="1139.4394998846487" cy="200" r="3" fill="blue" />
<circle cx="1151.4394998846487" cy="200" r="4" fill="red" />
<circle cx="1163.4394998846487" cy="200" r="6" fill="none" stroke="blue" stroke-width="2" />
<circle cx="1163.4394998846487" cy="200" r="3" fill="blue" />
<circle cx="1175.4394998846487" cy="200" r="6" fill="none" stroke="blue" stroke-width="2" />
<circle cx="1175.4394998846487" cy="200" r="3" fill="blue" />
<circle cx="1187.4394998846487" cy="200" r="4" fill="red" />
<circle cx="1199.4394998846487" cy="200" r="6" fill="none" stroke="black" stroke-width="2" />
<circle cx="1199.4394998846487" cy="200" r="3" fill="black" />
<circle cx="1211.4394998846487" cy="200" r="6" fill="none" stroke="blue" stroke-width="2" />
<circle cx="1211.4394998846487" cy="200" r="3" fill="blue" />
<circle cx="1223.4394998846487" cy="200" r="6" fill="none" stroke="blue" stroke-width="2" />
<circle cx="1223.4394998846487" cy="200" r="3" fill="blue" />
<text x="50" y="225" fill="gray" style="font-size:12px;">2024-05-30T17:33:51+00:00</text>
<text x="900" y="225" fill="gray" style="font-size:12px;">2025-02-27T18:00:29+00:00</text>
</svg>