<svg xmlns="http://www.w3.org/2000/svg" width="1000" height="200" style="background-color: white; font-family: sans-serif;">
<line x1="50" y1="100" x2="950" y2="100" stroke="gray" stroke-width="1"/>
<path d="M 817.5055636028026 100 Q 433.7527818014013 80, 50.0 100" stroke="black" fill="none" marker-end="url(#arrowhead)"/>
<path d="M 829.5055636028026 100 Q 439.7527818014013 80, 50.0 100" stroke="black" fill="none" marker-end="url(#arrowhead)"/>
<path d="M 829.5055636028026 100 Q 823.5055636028026 80, 817.5055636028026 100" stroke="black" fill="none" marker-end="url(#arrowhead)"/>
<path d="M 841.5055636028026 100 Q 445.7527818014013 80, 50.0 100" stroke="black" fill="none" marker-end="url(#arrowhead)"/>
<path d="M 853.5055636028026 100 Q 841.5055636028026 80, 829.5055636028026 100" stroke="black" fill="none" marker-end="url(#arrowhead)"/>
<path d="M 865.5055636028026 100 Q 847.5055636028026 80, 829.5055636028026 100" stroke="black" fill="none" marker-end="url(#arrowhead)"/>
<path d="M 865.5055636028026 100 Q 859.5055636028026 80, 853.5055636028026 100" stroke="black" fill="none" marker-end="url(#arrowhead)"/>
<path d="M 865.5055636028026 100 Q 841.5055636028026 80, 817.5055636028026 100" stroke="black" fill="none" marker-end="url(#arrowhead)"/>
<path d="M 877.5055636028026 100 Q 871.5055636028026 80, 865.5055636028026 100" stroke="black" fill="none" marker-end="url(#arrowhead)"/>
<path d="M 889.5055636028026 100 Q 883.5055636028026 80, 877.5055636028026 100" stroke="black" fill="none" marker-end="url(#arrowhead)"/>
<path d="M 901.5055636028026 100 Q 895.5055636028026 80, 889.5055636028026 100" stroke="black" fill="none" marker-end="url(#arrowhead)"/>
<path d="M 901.5055636028026 100 Q 889.5055636028026 80, 877.5055636028026 100" stroke="black" fill="none" marker-end="url(#arrowhead)"/>
<path d="M 925.5055636028026 100 Q 919.5055636028026 80, 913.5055636028026 100" stroke="black" fill="none" marker-end="url(#arrowhead)"/>
<path d="M 937.5055636028026 100 Q 925.5055636028026 80, 913.5055636028026 100" stroke="black" fill="none" marker-end="url(#arrowhead)"/>
<path d="M 937.5055636028026 100 Q 931.5055636028026 80, 925.5055636028026 100" stroke="black" fill="none" marker-end="url(#arrowhead)"/>
<path d="M 949.5055636028026 100 Q 943.5055636028026 80, 937.5055636028026 100" stroke="black" fill="none" marker-end="url(#arrowhead)"/>
<path d="M 961.5055636028026 100 Q 949.5055636028026 80, 937.5055636028026 100" stroke="black" fill="none" marker-end="url(#arrowhead)"/>
<path d="M 961.5055636028026 100 Q 955.5055636028026 80, 949.5055636028026 100" stroke="black" fill="none" marker-end="url(#arrowhead)"/>

<defs>
  <marker id="arrowhead" markerWidth="5" markerHeight="5" 
          refX="2" refY="2" orient="auto" fill="black">
    <path d="M0,0 L0,4 L4,2 z" />
  </marker>
</defs>

<circle cx="50.0" cy="100" r="6" fill="none" stroke="blue" stroke-width="2" />
<circle cx="50.0" cy="100" r="3" fill="blue" />
<circle cx="817.5055636028026" cy="100" r="4" fill="red" />
<circle cx="829.5055636028026" cy="100" r="6" fill="none" stroke="black" stroke-width="2" />
<circle cx="829.5055636028026" cy="100" r="3" fill="black" />
<circle cx="841.5055636028026" cy="100" r="4" fill="blue" />
<circle cx="853.5055636028026" cy="100" r="4" fill="red" />
<circle cx="865.5055636028026" cy="100" r="6" fill="none" stroke="blue" stroke-width="2" />
<circle cx="865.5055636028026" cy="100" r="3" fill="blue" />
<circle cx="877.5055636028026" cy="100" r="4" fill="red" />
<circle cx="889.5055636028026" cy="100" r="4" fill="red" />
<circle cx="901.5055636028026" cy="100" r="6" fill="none" stroke="blue" stroke-width="2" />
<circle cx="901.5055636028026" cy="100" r="3" fill="blue" />
<circle cx="913.5055636028026" cy="100" r="4" fill="black" />
<circle cx="925.5055636028026" cy="100" r="4" fill="black" />
<circle cx="937.5055636028026" cy="100" r="4" fill="green" />
<circle cx="949.5055636028026" cy="100" r="4" fill="black" />
<circle cx="961.5055636028026" cy="100" r="6" fill="none" stroke="black" stroke-width="2" />
<circle cx="961.5055636028026" cy="100" r="3" fill="black" />
<text x="50" y="125" fill="gray" style="font-size:12px;">2024-11-05T17:36:47+00:00</text>
<text x="900" y="125" fill="gray" style="font-size:12px;">2025-02-04T21:41:37+00:00</text>
</svg>