<svg xmlns="http://www.w3.org/2000/svg" width="1000" height="400" style="background-color: white; font-family: sans-serif;">
<line x1="50" y1="200" x2="950" y2="200" stroke="gray" stroke-width="1"/>
<path d="M 101.44626120115497 200 Q 75.72313060057749 180, 50.0 200" stroke="black" fill="none" marker-end="url(#arrowhead)"/>
<path d="M 113.44626120115497 200 Q 107.44626120115497 180, 101.44626120115497 200" stroke="black" fill="none" marker-end="url(#arrowhead)"/>
<path d="M 185.00504644443035 200 Q 149.22565382279265 180, 113.44626120115497 200" stroke="black" fill="none" marker-end="url(#arrowhead)"/>
<path d="M 197.00504644443035 200 Q 191.00504644443035 180, 185.00504644443035 200" stroke="black" fill="none" marker-end="url(#arrowhead)"/>
<path d="M 209.00504644443035 200 Q 203.00504644443035 180, 197.00504644443035 200" stroke="black" fill="none" marker-end="url(#arrowhead)"/>
<path d="M 233.00504644443035 200 Q 141.5025232222152 180, 50.0 200" stroke="black" fill="none" marker-end="url(#arrowhead)"/>
<path d="M 257.0050464444304 200 Q 245.00504644443038 180, 233.00504644443035 200" stroke="black" fill="none" marker-end="url(#arrowhead)"/>
<path d="M 281.0050464444304 200 Q 275.0050464444304 180, 269.0050464444304 200" stroke="black" fill="none" marker-end="url(#arrowhead)"/>
<path d="M 293.0050464444304 200 Q 287.0050464444304 180, 281.0050464444304 200" stroke="black" fill="none" marker-end="url(#arrowhead)"/>
<path d="M 305.0050464444304 200 Q 299.0050464444304 180, 293.0050464444304 200" stroke="black" fill="none" marker-end="url(#arrowhead)"/>
<path d="M 317.0050464444304 200 Q 311.0050464444304 180, 305.0050464444304 200" stroke="black" fill="none" marker-end="url(#arrowhead)"/>
<path d="M 368.44989996949624 200 Q 294.7274732069633 180, 221.00504644443035 200" stroke="black" fill="none" marker-end="url(#arrowhead)"/>
<path d="M 496.84972624045776 200 Q 490.84972624045776 180, 484.84972624045776 200" stroke="black" fill="none" marker-end="url(#arrowhead)"/>
<path d="M 508.84972624045776 200 Q 496.84972624045776 180, 484.84972624045776 200" stroke="black" fill="none" marker-end="url(#arrowhead)"/>
<path d="M 520.8497262404578 200 Q 514.8497262404578 180, 508.84972624045776 200" stroke="black" fill="none" marker-end="url(#arrowhead)"/>
<path d="M 532.8497262404578 200 Q 520.8497262404578 180, 508.84972624045776 200" stroke="black" fill="none" marker-end="url(#arrowhead)"/>
<path d="M 568.8497262404578 200 Q 562.8497262404578 180, 556.8497262404578 200" stroke="black" fill="none" marker-end="url(#arrowhead)"/>
<path d="M 608.0994877554278 200 Q 602.0994877554278 180, 596.0994877554278 200" stroke="black" fill="none" marker-end="url(#arrowhead)"/>
<path d="M 632.0287966414038 200 Q 614.0641421984158 180, 596.0994877554278 200" stroke="black" fill="none" marker-end="url(#arrowhead)"/>
<path d="M 672.2469525650746 200 Q 658.1378746032392 180, 644.0287966414038 200" stroke="black" fill="none" marker-end="url(#arrowhead)"/>
<path d="M 684.2469525650746 200 Q 678.2469525650746 180, 672.2469525650746 200" stroke="black" fill="none" marker-end="url(#arrowhead)"/>
<path d="M 696.2469525650746 200 Q 678.2469525650746 180, 660.2469525650746 200" stroke="black" fill="none" marker-end="url(#arrowhead)"/>
<path d="M 718.7373438746574 200 Q 695.4921482198661 180, 672.2469525650746 200" stroke="black" fill="none" marker-end="url(#arrowhead)"/>
<path d="M 764.6938195047813 200 Q 758.6938195047813 180, 752.6938195047813 200" stroke="black" fill="none" marker-end="url(#arrowhead)"/>
<path d="M 788.6938195047813 200 Q 510.84943297460586 180, 233.00504644443035 200" stroke="black" fill="none" marker-end="url(#arrowhead)"/>
<path d="M 812.6938195047813 200 Q 800.6938195047813 180, 788.6938195047813 200" stroke="black" fill="none" marker-end="url(#arrowhead)"/>
<path d="M 824.6938195047813 200 Q 818.6938195047813 180, 812.6938195047813 200" stroke="black" fill="none" marker-end="url(#arrowhead)"/>
<path d="M 848.6938195047813 200 Q 842.6938195047813 180, 836.6938195047813 200" stroke="black" fill="none" marker-end="url(#arrowhead)"/>
<path d="M 860.6938195047813 200 Q 854.6938195047813 180, 848.6938195047813 200" stroke="black" fill="none" marker-end="url(#arrowhead)"/>
<path d="M 872.6938195047813 200 Q 866.6938195047813 180, 860.6938195047813 200" stroke="black" fill="none" marker-end="url(#arrowhead)"/>
<path d="M 884.6938195047813 200 Q 552.8494329746059 180, 221.00504644443035 200" stroke="black" fill="none" marker-end="url(#arrowhead)"/>
<path d="M 896.6938195047813 200 Q 890.6938195047813 180, 884.6938195047813 200" stroke="black" fill="none" marker-end="url(#arrowhead)"/>
<path d="M 908.6938195047813 200 Q 902.6938195047813 180, 896.6938195047813 200" stroke="black" fill="none" marker-end="url(#arrowhead)"/>
<path d="M 920.6938195047813 200 Q 860.6938195047813 180, 800.6938195047813 200" stroke="black" fill="none" marker-end="url(#arrowhead)"/>
<path d="M 932.6938195047813 200 Q 926.6938195047813 180, 920.6938195047813 200" stroke="black" fill="none" marker-end="url(#arrowhead)"/>
<path d="M 968.6938195047813 200 Q 962.6938195047813 180, 956.6938195047813 200" stroke="black" fill="none" marker-end="url(#arrowhead)"/>

<defs>
  <marker id="arrowhead" markerWidth="5" markerHeight="5" 
          refX="2" refY="2" orient="auto" fill="black">
    <path d="M0,0 L0,4 L4,2 z" />
  </marker>
</defs>

<circle cx="50.0" cy="200" r="6" fill="none" stroke="black" stroke-width="2" />
<circle cx="50.0" cy="200" r="3" fill="black" />
<circle cx="101.44626120115497" cy="200" r="6" fill="none" stroke="black" stroke-width="2" />
<circle cx="101.44626120115497" cy="200" r="3" fill="black" />
<circle cx="113.44626120115497" cy="200" r="4" fill="black" />
<circle cx="185.00504644443035" cy="200" r="6" fill="none" stroke="blue" stroke-width="2" />
<circle cx="185.00504644443035" cy="200" r="3" fill="blue" />
<circle cx="197.00504644443035" cy="200" r="4" fill="red" />
<circle cx="209.00504644443035" cy="200" r="4" fill="red" />
<circle cx="221.00504644443035" cy="200" r="4" fill="red" />
<circle cx="233.00504644443035" cy="200" r="4" fill="black" />
<circle cx="245.00504644443035" cy="200" r="6" fill="none" stroke="blue" stroke-width="2" />
<circle cx="245.00504644443035" cy="200" r="3" fill="blue" />
<circle cx="257.0050464444304" cy="200" r="6" fill="none" stroke="black" stroke-width="2" />
<circle cx="257.0050464444304" cy="200" r="3" fill="black" />
<circle cx="269.0050464444304" cy="200" r="4" fill="red" />
<circle cx="281.0050464444304" cy="200" r="6" fill="none" stroke="black" stroke-width="2" />
<circle cx="281.0050464444304" cy="200" r="3" fill="black" />
<circle cx="293.0050464444304" cy="200" r="4" fill="black" />
<circle cx="305.0050464444304" cy="200" r="4" fill="black" />
<circle cx="317.0050464444304" cy="200" r="4" fill="black" />
<circle cx="329.0050464444304" cy="200" r="6" fill="none" stroke="black" stroke-width="2" />
<circle cx="329.0050464444304" cy="200" r="3" fill="black" />
<circle cx="341.0050464444304" cy="200" r="4" fill="green" />
<circle cx="353.0050464444304" cy="200" r="6" fill="none" stroke="red" stroke-width="2" />
<circle cx="353.0050464444304" cy="200" r="3" fill="red" />
<circle cx="368.44989996949624" cy="200" r="4" fill="black" />
<circle cx="412.84972624045776" cy="200" r="6" fill="none" stroke="blue" stroke-width="2" />
<circle cx="412.84972624045776" cy="200" r="3" fill="blue" />
<circle cx="424.84972624045776" cy="200" r="4" fill="red" />
<circle cx="436.84972624045776" cy="200" r="6" fill="none" stroke="black" stroke-width="2" />
<circle cx="436.84972624045776" cy="200" r="3" fill="black" />
<circle cx="448.84972624045776" cy="200" r="6" fill="none" stroke="blue" stroke-width="2" />
<circle cx="448.84972624045776" cy="200" r="3" fill="blue" />
<circle cx="460.84972624045776" cy="200" r="4" fill="black" />
<circle cx="472.84972624045776" cy="200" r="6" fill="none" stroke="black" stroke-width="2" />
<circle cx="472.84972624045776" cy="200" r="3" fill="black" />
<circle cx="484.84972624045776" cy="200" r="4" fill="black" />
<circle cx="496.84972624045776" cy="200" r="6" fill="none" stroke="black" stroke-width="2" />
<circle cx="496.84972624045776" cy="200" r="3" fill="black" />
<circle cx="508.84972624045776" cy="200" r="4" fill="red" />
<circle cx="520.8497262404578" cy="200" r="6" fill="none" stroke="black" stroke-width="2" />
<circle cx="520.8497262404578" cy="200" r="3" fill="black" />
<circle cx="532.8497262404578" cy="200" r="4" fill="black" />
<circle cx="544.8497262404578" cy="200" r="6" fill="none" stroke="black" stroke-width="2" />
<circle cx="544.8497262404578" cy="200" r="3" fill="black" />
<circle cx="556.8497262404578" cy="200" r="6" fill="none" stroke="black" stroke-width="2" />
<circle cx="556.8497262404578" cy="200" r="3" fill="black" />
<circle cx="568.8497262404578" cy="200" r="4" fill="black" />
<circle cx="596.0994877554278" cy="200" r="4" fill="blue" />
<circle cx="608.0994877554278" cy="200" r="4" fill="black" />
<circle cx="632.0287966414038" cy="200" r="4" fill="blue" />
<circle cx="644.0287966414038" cy="200" r="4" fill="blue" />
<circle cx="660.2469525650746" cy="200" r="4" fill="red" />
<circle cx="672.2469525650746" cy="200" r="4" fill="red" />
<circle cx="684.2469525650746" cy="200" r="4" fill="red" />
<circle cx="696.2469525650746" cy="200" r="4" fill="blue" />
<circle cx="718.7373438746574" cy="200" r="4" fill="blue" />
<circle cx="740.6938195047813" cy="200" r="4" fill="red" />
<circle cx="752.6938195047813" cy="200" r="4" fill="blue" />
<circle cx="764.6938195047813" cy="200" r="4" fill="red" />
<circle cx="776.6938195047813" cy="200" r="4" fill="black" />
<circle cx="788.6938195047813" cy="200" r="4" fill="red" />
<circle cx="800.6938195047813" cy="200" r="4" fill="black" />
<circle cx="812.6938195047813" cy="200" r="4" fill="black" />
<circle cx="824.6938195047813" cy="200" r="4" fill="black" />
<circle cx="836.6938195047813" cy="200" r="4" fill="black" />
<circle cx="848.6938195047813" cy="200" r="4" fill="black" />
<circle cx="860.6938195047813" cy="200" r="4" fill="black" />
<circle cx="872.6938195047813" cy="200" r="4" fill="black" />
<circle cx="884.6938195047813" cy="200" r="4" fill="black" />
<circle cx="896.6938195047813" cy="200" r="4" fill="black" />
<circle cx="908.6938195047813" cy="200" r="4" fill="black" />
<circle cx="920.6938195047813" cy="200" r="4" fill="blue" />
<circle cx="932.6938195047813" cy="200" r="4" fill="black" />
<circle cx="944.6938195047813" cy="200" r="4" fill="red" />
<circle cx="956.6938195047813" cy="200" r="4" fill="red" />
<circle cx="968.6938195047813" cy="200" r="4" fill="red" />
<circle cx="980.6938195047813" cy="200" r="4" fill="blue" />
<text x="50" y="225" fill="gray" style="font-size:12px;">2024-05-01T15:56:08+00:00</text>
<text x="900" y="225" fill="gray" style="font-size:12px;">2025-02-05T20:58:03+00:00</text>
</svg>