<svg xmlns="http://www.w3.org/2000/svg" width="1000" height="200" style="background-color: white; font-family: sans-serif;">
<line x1="50" y1="100" x2="950" y2="100" stroke="gray" stroke-width="1"/>
<path d="M 62.0 100 Q 56.0 80, 50.0 100" stroke="black" fill="none" marker-end="url(#arrowhead)"/>
<path d="M 82.91938485521445 100 Q 72.45969242760722 80, 62.0 100" stroke="black" fill="none" marker-end="url(#arrowhead)"/>
<path d="M 82.91938485521445 100 Q 66.45969242760722 80, 50.0 100" stroke="black" fill="none" marker-end="url(#arrowhead)"/>
<path d="M 94.91938485521445 100 Q 88.91938485521445 80, 82.91938485521445 100" stroke="black" fill="none" marker-end="url(#arrowhead)"/>
<path d="M 108.71582366324144 100 Q 85.35791183162073 80, 62.0 100" stroke="black" fill="none" marker-end="url(#arrowhead)"/>
<path d="M 108.71582366324144 100 Q 79.35791183162073 80, 50.0 100" stroke="black" fill="none" marker-end="url(#arrowhead)"/>
<path d="M 120.71582366324144 100 Q 114.71582366324144 80, 108.71582366324144 100" stroke="black" fill="none" marker-end="url(#arrowhead)"/>
<path d="M 164.92179533240557 100 Q 136.8188094978235 80, 108.71582366324144 100" stroke="black" fill="none" marker-end="url(#arrowhead)"/>
<path d="M 176.92179533240557 100 Q 119.46089766620278 80, 62.0 100" stroke="black" fill="none" marker-end="url(#arrowhead)"/>
<path d="M 176.92179533240557 100 Q 142.8188094978235 80, 108.71582366324144 100" stroke="black" fill="none" marker-end="url(#arrowhead)"/>
<path d="M 176.92179533240557 100 Q 170.92179533240557 80, 164.92179533240557 100" stroke="black" fill="none" marker-end="url(#arrowhead)"/>
<path d="M 188.92179533240557 100 Q 182.92179533240557 80, 176.92179533240557 100" stroke="black" fill="none" marker-end="url(#arrowhead)"/>
<path d="M 188.92179533240557 100 Q 176.92179533240557 80, 164.92179533240557 100" stroke="black" fill="none" marker-end="url(#arrowhead)"/>
<path d="M 287.4652609765477 100 Q 232.19352815447664 80, 176.92179533240557 100" stroke="black" fill="none" marker-end="url(#arrowhead)"/>
<path d="M 287.4652609765477 100 Q 238.19352815447664 80, 188.92179533240557 100" stroke="black" fill="none" marker-end="url(#arrowhead)"/>
<path d="M 287.4652609765477 100 Q 226.19352815447664 80, 164.92179533240557 100" stroke="black" fill="none" marker-end="url(#arrowhead)"/>
<path d="M 311.4652609765477 100 Q 250.19352815447664 80, 188.92179533240557 100" stroke="black" fill="none" marker-end="url(#arrowhead)"/>
<path d="M 311.4652609765477 100 Q 299.4652609765477 80, 287.4652609765477 100" stroke="black" fill="none" marker-end="url(#arrowhead)"/>
<path d="M 323.4652609765477 100 Q 305.4652609765477 80, 287.4652609765477 100" stroke="black" fill="none" marker-end="url(#arrowhead)"/>
<path d="M 323.4652609765477 100 Q 311.4652609765477 80, 299.4652609765477 100" stroke="black" fill="none" marker-end="url(#arrowhead)"/>
<path d="M 323.4652609765477 100 Q 317.4652609765477 80, 311.4652609765477 100" stroke="black" fill="none" marker-end="url(#arrowhead)"/>
<path d="M 669.3609424937712 100 Q 496.41310173515944 80, 323.4652609765477 100" stroke="black" fill="none" marker-end="url(#arrowhead)"/>
<path d="M 669.3609424937712 100 Q 490.41310173515944 80, 311.4652609765477 100" stroke="black" fill="none" marker-end="url(#arrowhead)"/>
<path d="M 891.5641027202417 100 Q 780.4625226070065 80, 669.3609424937712 100" stroke="black" fill="none" marker-end="url(#arrowhead)"/>
<path d="M 920.2260461756744 100 Q 914.2260461756744 80, 908.2260461756744 100" stroke="black" fill="none" marker-end="url(#arrowhead)"/>
<path d="M 932.2260461756744 100 Q 926.2260461756744 80, 920.2260461756744 100" stroke="black" fill="none" marker-end="url(#arrowhead)"/>
<path d="M 944.2260461756744 100 Q 938.2260461756744 80, 932.2260461756744 100" stroke="black" fill="none" marker-end="url(#arrowhead)"/>
<path d="M 956.2260461756744 100 Q 950.2260461756744 80, 944.2260461756744 100" stroke="black" fill="none" marker-end="url(#arrowhead)"/>
<path d="M 956.2260461756744 100 Q 944.2260461756744 80, 932.2260461756744 100" stroke="black" fill="none" marker-end="url(#arrowhead)"/>
<path d="M 968.2260461756744 100 Q 956.2260461756744 80, 944.2260461756744 100" stroke="black" fill="none" marker-end="url(#arrowhead)"/>
<path d="M 980.2260461756744 100 Q 974.2260461756744 80, 968.2260461756744 100" stroke="black" fill="none" marker-end="url(#arrowhead)"/>
<path d="M 992.2260461756744 100 Q 986.2260461756744 80, 980.2260461756744 100" stroke="black" fill="none" marker-end="url(#arrowhead)"/>
<path d="M 1004.2260461756744 100 Q 998.2260461756744 80, 992.2260461756744 100" stroke="black" fill="none" marker-end="url(#arrowhead)"/>
<path d="M 1016.2260461756744 100 Q 1010.2260461756744 80, 1004.2260461756744 100" stroke="black" fill="none" marker-end="url(#arrowhead)"/>
<path d="M 1028.2260461756744 100 Q 1022.2260461756744 80, 1016.2260461756744 100" stroke="black" fill="none" marker-end="url(#arrowhead)"/>
<path d="M 1040.2260461756744 100 Q 1034.2260461756744 80, 1028.2260461756744 100" stroke="black" fill="none" marker-end="url(#arrowhead)"/>
<path d="M 1052.2260461756744 100 Q 1046.2260461756744 80, 1040.2260461756744 100" stroke="black" fill="none" marker-end="url(#arrowhead)"/>
<path d="M 1064.2260461756744 100 Q 1058.2260461756744 80, 1052.2260461756744 100" stroke="black" fill="none" marker-end="url(#arrowhead)"/>
<path d="M 1076.2260461756744 100 Q 1070.2260461756744 80, 1064.2260461756744 100" stroke="black" fill="none" marker-end="url(#arrowhead)"/>

<defs>
  <marker id="arrowhead" markerWidth="5" markerHeight="5" 
          refX="2" refY="2" orient="auto" fill="black">
    <path d="M0,0 L0,4 L4,2 z" />
  </marker>
</defs>

<circle cx="50.0" cy="100" r="6" fill="none" stroke="blue" stroke-width="2" />
<circle cx="50.0" cy="100" r="3" fill="blue" />
<circle cx="62.0" cy="100" r="4" fill="black" />
<circle cx="82.91938485521445" cy="100" r="6" fill="none" stroke="black" stroke-width="2" />
<circle cx="82.91938485521445" cy="100" r="3" fill="black" />
<circle cx="94.91938485521445" cy="100" r="4" fill="black" />
<circle cx="108.71582366324144" cy="100" r="4" fill="black" />
<circle cx="120.71582366324144" cy="100" r="4" fill="red" />
<circle cx="164.92179533240557" cy="100" r="4" fill="black" />
<circle cx="176.92179533240557" cy="100" r="4" fill="black" />
<circle cx="188.92179533240557" cy="100" r="4" fill="red" />
<circle cx="287.4652609765477" cy="100" r="6" fill="none" stroke="blue" stroke-width="2" />
<circle cx="287.4652609765477" cy="100" r="3" fill="blue" />
<circle cx="299.4652609765477" cy="100" r="4" fill="black" />
<circle cx="311.4652609765477" cy="100" r="4" fill="red" />
<circle cx="323.4652609765477" cy="100" r="4" fill="red" />
<circle cx="669.3609424937712" cy="100" r="6" fill="none" stroke="blue" stroke-width="2" />
<circle cx="669.3609424937712" cy="100" r="3" fill="blue" />
<circle cx="891.5641027202417" cy="100" r="4" fill="red" />
<circle cx="908.2260461756744" cy="100" r="4" fill="green" />
<circle cx="920.2260461756744" cy="100" r="4" fill="red" />
<circle cx="932.2260461756744" cy="100" r="4" fill="black" />
<circle cx="944.2260461756744" cy="100" r="4" fill="black" />
<circle cx="956.2260461756744" cy="100" r="6" fill="none" stroke="blue" stroke-width="2" />
<circle cx="956.2260461756744" cy="100" r="3" fill="blue" />
<circle cx="968.2260461756744" cy="100" r="4" fill="black" />
<circle cx="980.2260461756744" cy="100" r="4" fill="black" />
<circle cx="992.2260461756744" cy="100" r="4" fill="black" />
<circle cx="1004.2260461756744" cy="100" r="4" fill="black" />
<circle cx="1016.2260461756744" cy="100" r="4" fill="green" />
<circle cx="1028.2260461756744" cy="100" r="4" fill="black" />
<circle cx="1040.2260461756744" cy="100" r="4" fill="black" />
<circle cx="1052.2260461756744" cy="100" r="4" fill="black" />
<circle cx="1064.2260461756744" cy="100" r="4" fill="red" />
<circle cx="1076.2260461756744" cy="100" r="4" fill="black" />
<text x="50" y="125" fill="gray" style="font-size:12px;">2024-12-24T08:53:06+00:00</text>
<text x="900" y="125" fill="gray" style="font-size:12px;">2025-02-11T18:54:40+00:00</text>
</svg>