<svg xmlns="http://www.w3.org/2000/svg" width="1000" height="400" style="background-color: white; font-family: sans-serif;">
<line x1="50" y1="200" x2="950" y2="200" stroke="gray" stroke-width="1"/>
<path d="M 103.52022262840731 200 Q 82.76011131420366 180, 62.0 200" stroke="black" fill="none" marker-end="url(#arrowhead)"/>
<path d="M 871.2147477617953 200 Q 865.2147477617953 180, 859.2147477617953 200" stroke="black" fill="none" marker-end="url(#arrowhead)"/>
<path d="M 883.2147477617953 200 Q 877.2147477617953 180, 871.2147477617953 200" stroke="black" fill="none" marker-end="url(#arrowhead)"/>
<path d="M 895.2147477617953 200 Q 883.2147477617953 180, 871.2147477617953 200" stroke="black" fill="none" marker-end="url(#arrowhead)"/>
<path d="M 895.2147477617953 200 Q 889.2147477617953 180, 883.2147477617953 200" stroke="black" fill="none" marker-end="url(#arrowhead)"/>
<path d="M 907.2147477617953 200 Q 901.2147477617953 180, 895.2147477617953 200" stroke="black" fill="none" marker-end="url(#arrowhead)"/>
<path d="M 919.2147477617953 200 Q 907.2147477617953 180, 895.2147477617953 200" stroke="black" fill="none" marker-end="url(#arrowhead)"/>
<path d="M 919.2147477617953 200 Q 913.2147477617953 180, 907.2147477617953 200" stroke="black" fill="none" marker-end="url(#arrowhead)"/>
<path d="M 931.2147477617953 200 Q 925.2147477617953 180, 919.2147477617953 200" stroke="black" fill="none" marker-end="url(#arrowhead)"/>
<path d="M 943.2147477617953 200 Q 937.2147477617953 180, 931.2147477617953 200" stroke="black" fill="none" marker-end="url(#arrowhead)"/>
<path d="M 955.2147477617953 200 Q 943.2147477617953 180, 931.2147477617953 200" stroke="black" fill="none" marker-end="url(#arrowhead)"/>
<path d="M 955.2147477617953 200 Q 949.2147477617953 180, 943.2147477617953 200" stroke="black" fill="none" marker-end="url(#arrowhead)"/>
<path d="M 967.2147477617953 200 Q 961.2147477617953 180, 955.2147477617953 200" stroke="black" fill="none" marker-end="url(#arrowhead)"/>
<path d="M 979.2147477617953 200 Q 967.2147477617953 180, 955.2147477617953 200" stroke="black" fill="none" marker-end="url(#arrowhead)"/>
<path d="M 979.2147477617953 200 Q 973.2147477617953 180, 967.2147477617953 200" stroke="black" fill="none" marker-end="url(#arrowhead)"/>
<path d="M 991.2147477617953 200 Q 979.2147477617953 180, 967.2147477617953 200" stroke="black" fill="none" marker-end="url(#arrowhead)"/>
<path d="M 991.2147477617953 200 Q 985.2147477617953 180, 979.2147477617953 200" stroke="black" fill="none" marker-end="url(#arrowhead)"/>
<path d="M 1003.2147477617953 200 Q 997.2147477617953 180, 991.2147477617953 200" stroke="black" fill="none" marker-end="url(#arrowhead)"/>
<path d="M 1003.2147477617953 200 Q 979.2147477617953 180, 955.2147477617953 200" stroke="black" fill="none" marker-end="url(#arrowhead)"/>
<path d="M 1003.2147477617953 200 Q 991.2147477617953 180, 979.2147477617953 200" stroke="black" fill="none" marker-end="url(#arrowhead)"/>

<defs>
  <marker id="arrowhead" markerWidth="5" markerHeight="5" 
          refX="2" refY="2" orient="auto" fill="black">
    <path d="M0,0 L0,4 L4,2 z" />
  </marker>
</defs>

<circle cx="50.0" cy="200" r="6" fill="none" stroke="blue" stroke-width="2" />
<circle cx="50.0" cy="200" r="3" fill="blue" />
<circle cx="62.0" cy="200" r="4" fill="black" />
<circle cx="103.52022262840731" cy="200" r="6" fill="none" stroke="black" stroke-width="2" />
<circle cx="103.52022262840731" cy="200" r="3" fill="black" />
<circle cx="859.2147477617953" cy="200" r="4" fill="red" />
<circle cx="871.2147477617953" cy="200" r="6" fill="none" stroke="red" stroke-width="2" />
<circle cx="871.2147477617953" cy="200" r="3" fill="red" />
<circle cx="883.2147477617953" cy="200" r="4" fill="green" />
<circle cx="895.2147477617953" cy="200" r="6" fill="none" stroke="black" stroke-width="2" />
<circle cx="895.2147477617953" cy="200" r="3" fill="black" />
<circle cx="907.2147477617953" cy="200" r="4" fill="blue" />
<circle cx="919.2147477617953" cy="200" r="6" fill="none" stroke="black" stroke-width="2" />
<circle cx="919.2147477617953" cy="200" r="3" fill="black" />
<circle cx="931.2147477617953" cy="200" r="4" fill="red" />
<circle cx="943.2147477617953" cy="200" r="4" fill="blue" />
<circle cx="955.2147477617953" cy="200" r="6" fill="none" stroke="black" stroke-width="2" />
<circle cx="955.2147477617953" cy="200" r="3" fill="black" />
<circle cx="967.2147477617953" cy="200" r="4" fill="green" />
<circle cx="979.2147477617953" cy="200" r="4" fill="black" />
<circle cx="991.2147477617953" cy="200" r="6" fill="none" stroke="green" stroke-width="2" />
<circle cx="991.2147477617953" cy="200" r="3" fill="green" />
<circle cx="1003.2147477617953" cy="200" r="4" fill="green" />
<text x="50" y="225" fill="gray" style="font-size:12px;">2024-12-20T15:37:36+00:00</text>
<text x="900" y="225" fill="gray" style="font-size:12px;">2025-02-26T05:27:44+00:00</text>
</svg>