<svg xmlns="http://www.w3.org/2000/svg" width="1000" height="400" style="background-color: white; font-family: sans-serif;">
<line x1="50" y1="200" x2="950" y2="200" stroke="gray" stroke-width="1"/>
<path d="M 62.0 200 Q 56.0 180, 50.0 200" stroke="black" fill="none" marker-end="url(#arrowhead)"/>
<path d="M 74.0 200 Q 62.0 180, 50.0 200" stroke="black" fill="none" marker-end="url(#arrowhead)"/>
<path d="M 86.0 200 Q 74.0 180, 62.0 200" stroke="black" fill="none" marker-end="url(#arrowhead)"/>
<path d="M 98.0 200 Q 86.0 180, 74.0 200" stroke="black" fill="none" marker-end="url(#arrowhead)"/>
<path d="M 110.0 200 Q 98.0 180, 86.0 200" stroke="black" fill="none" marker-end="url(#arrowhead)"/>
<path d="M 122.0 200 Q 104.0 180, 86.0 200" stroke="black" fill="none" marker-end="url(#arrowhead)"/>
<path d="M 122.0 200 Q 116.0 180, 110.0 200" stroke="black" fill="none" marker-end="url(#arrowhead)"/>
<path d="M 134.0 200 Q 128.0 180, 122.0 200" stroke="black" fill="none" marker-end="url(#arrowhead)"/>
<path d="M 134.0 200 Q 122.0 180, 110.0 200" stroke="black" fill="none" marker-end="url(#arrowhead)"/>
<path d="M 146.0 200 Q 134.0 180, 122.0 200" stroke="black" fill="none" marker-end="url(#arrowhead)"/>
<path d="M 146.0 200 Q 140.0 180, 134.0 200" stroke="black" fill="none" marker-end="url(#arrowhead)"/>
<path d="M 146.0 200 Q 116.0 180, 86.0 200" stroke="black" fill="none" marker-end="url(#arrowhead)"/>
<path d="M 170.0 200 Q 128.0 180, 86.0 200" stroke="black" fill="none" marker-end="url(#arrowhead)"/>
<path d="M 170.0 200 Q 164.0 180, 158.0 200" stroke="black" fill="none" marker-end="url(#arrowhead)"/>
<path d="M 194.0 200 Q 188.0 180, 182.0 200" stroke="black" fill="none" marker-end="url(#arrowhead)"/>
<path d="M 194.0 200 Q 140.0 180, 86.0 200" stroke="black" fill="none" marker-end="url(#arrowhead)"/>
<path d="M 206.0 200 Q 200.0 180, 194.0 200" stroke="black" fill="none" marker-end="url(#arrowhead)"/>
<path d="M 230.0 200 Q 224.0 180, 218.0 200" stroke="black" fill="none" marker-end="url(#arrowhead)"/>
<path d="M 254.0 200 Q 242.0 180, 230.0 200" stroke="black" fill="none" marker-end="url(#arrowhead)"/>
<path d="M 278.0 200 Q 218.0 180, 158.0 200" stroke="black" fill="none" marker-end="url(#arrowhead)"/>
<path d="M 302.0 200 Q 176.0 180, 50.0 200" stroke="black" fill="none" marker-end="url(#arrowhead)"/>
<path d="M 302.0 200 Q 296.0 180, 290.0 200" stroke="black" fill="none" marker-end="url(#arrowhead)"/>
<path d="M 314.0 200 Q 308.0 180, 302.0 200" stroke="black" fill="none" marker-end="url(#arrowhead)"/>
<path d="M 350.0 200 Q 200.0 180, 50.0 200" stroke="black" fill="none" marker-end="url(#arrowhead)"/>
<path d="M 362.0 200 Q 356.0 180, 350.0 200" stroke="black" fill="none" marker-end="url(#arrowhead)"/>
<path d="M 374.0 200 Q 368.0 180, 362.0 200" stroke="black" fill="none" marker-end="url(#arrowhead)"/>
<path d="M 398.0 200 Q 392.0 180, 386.0 200" stroke="black" fill="none" marker-end="url(#arrowhead)"/>
<path d="M 398.0 200 Q 242.0 180, 86.0 200" stroke="black" fill="none" marker-end="url(#arrowhead)"/>
<path d="M 410.0 200 Q 398.0 180, 386.0 200" stroke="black" fill="none" marker-end="url(#arrowhead)"/>
<path d="M 410.0 200 Q 404.0 180, 398.0 200" stroke="black" fill="none" marker-end="url(#arrowhead)"/>
<path d="M 410.0 200 Q 248.0 180, 86.0 200" stroke="black" fill="none" marker-end="url(#arrowhead)"/>
<path d="M 422.0 200 Q 416.0 180, 410.0 200" stroke="black" fill="none" marker-end="url(#arrowhead)"/>
<path d="M 434.0 200 Q 368.0 180, 302.0 200" stroke="black" fill="none" marker-end="url(#arrowhead)"/>
<path d="M 458.0 200 Q 452.0 180, 446.0 200" stroke="black" fill="none" marker-end="url(#arrowhead)"/>
<path d="M 606.1371191102177 200 Q 598.0685595551088 180, 590.0 200" stroke="black" fill="none" marker-end="url(#arrowhead)"/>
<path d="M 618.1371191102177 200 Q 612.1371191102177 180, 606.1371191102177 200" stroke="black" fill="none" marker-end="url(#arrowhead)"/>
<path d="M 630.1371191102177 200 Q 624.1371191102177 180, 618.1371191102177 200" stroke="black" fill="none" marker-end="url(#arrowhead)"/>
<path d="M 714.1371191102177 200 Q 580.0685595551088 180, 446.0 200" stroke="black" fill="none" marker-end="url(#arrowhead)"/>
<path d="M 726.1371191102177 200 Q 550.0685595551088 180, 374.0 200" stroke="black" fill="none" marker-end="url(#arrowhead)"/>
<path d="M 738.1371191102177 200 Q 726.1371191102177 180, 714.1371191102177 200" stroke="black" fill="none" marker-end="url(#arrowhead)"/>
<path d="M 762.1371191102177 200 Q 756.1371191102177 180, 750.1371191102177 200" stroke="black" fill="none" marker-end="url(#arrowhead)"/>
<path d="M 798.1371191102177 200 Q 478.06855955510883 180, 158.0 200" stroke="black" fill="none" marker-end="url(#arrowhead)"/>
<path d="M 834.1371191102177 200 Q 822.1371191102177 180, 810.1371191102177 200" stroke="black" fill="none" marker-end="url(#arrowhead)"/>
<path d="M 858.1371191102177 200 Q 846.1371191102177 180, 834.1371191102177 200" stroke="black" fill="none" marker-end="url(#arrowhead)"/>
<path d="M 870.1371191102177 200 Q 864.1371191102177 180, 858.1371191102177 200" stroke="black" fill="none" marker-end="url(#arrowhead)"/>
<path d="M 882.1371191102177 200 Q 876.1371191102177 180, 870.1371191102177 200" stroke="black" fill="none" marker-end="url(#arrowhead)"/>
<path d="M 906.1371191102177 200 Q 870.1371191102177 180, 834.1371191102177 200" stroke="black" fill="none" marker-end="url(#arrowhead)"/>
<path d="M 918.1371191102177 200 Q 912.1371191102177 180, 906.1371191102177 200" stroke="black" fill="none" marker-end="url(#arrowhead)"/>
<path d="M 942.1371191102177 200 Q 936.1371191102177 180, 930.1371191102177 200" stroke="black" fill="none" marker-end="url(#arrowhead)"/>
<path d="M 954.1371191102177 200 Q 942.1371191102177 180, 930.1371191102177 200" stroke="black" fill="none" marker-end="url(#arrowhead)"/>
<path d="M 954.1371191102177 200 Q 948.1371191102177 180, 942.1371191102177 200" stroke="black" fill="none" marker-end="url(#arrowhead)"/>
<path d="M 966.1371191102177 200 Q 960.1371191102177 180, 954.1371191102177 200" stroke="black" fill="none" marker-end="url(#arrowhead)"/>
<path d="M 990.1371191102177 200 Q 984.1371191102177 180, 978.1371191102177 200" stroke="black" fill="none" marker-end="url(#arrowhead)"/>
<path d="M 1002.1371191102177 200 Q 996.1371191102177 180, 990.1371191102177 200" stroke="black" fill="none" marker-end="url(#arrowhead)"/>
<path d="M 1014.1371191102177 200 Q 1008.1371191102177 180, 1002.1371191102177 200" stroke="black" fill="none" marker-end="url(#arrowhead)"/>
<path d="M 1014.1371191102177 200 Q 1002.1371191102177 180, 990.1371191102177 200" stroke="black" fill="none" marker-end="url(#arrowhead)"/>
<path d="M 1038.1371191102176 200 Q 1002.1371191102176 180, 966.1371191102177 200" stroke="black" fill="none" marker-end="url(#arrowhead)"/>
<path d="M 1038.1371191102176 200 Q 1032.1371191102176 180, 1026.1371191102176 200" stroke="black" fill="none" marker-end="url(#arrowhead)"/>
<path d="M 1038.1371191102176 200 Q 996.1371191102176 180, 954.1371191102177 200" stroke="black" fill="none" marker-end="url(#arrowhead)"/>
<path d="M 1062.1371191102176 200 Q 1008.1371191102176 180, 954.1371191102177 200" stroke="black" fill="none" marker-end="url(#arrowhead)"/>
<path d="M 1062.1371191102176 200 Q 1014.1371191102176 180, 966.1371191102177 200" stroke="black" fill="none" marker-end="url(#arrowhead)"/>
<path d="M 1062.1371191102176 200 Q 1056.1371191102176 180, 1050.1371191102176 200" stroke="black" fill="none" marker-end="url(#arrowhead)"/>
<path d="M 1074.1371191102176 200 Q 1068.1371191102176 180, 1062.1371191102176 200" stroke="black" fill="none" marker-end="url(#arrowhead)"/>
<path d="M 1086.1371191102176 200 Q 1080.1371191102176 180, 1074.1371191102176 200" stroke="black" fill="none" marker-end="url(#arrowhead)"/>
<path d="M 1086.1371191102176 200 Q 1068.1371191102176 180, 1050.1371191102176 200" stroke="black" fill="none" marker-end="url(#arrowhead)"/>
<path d="M 1086.1371191102176 200 Q 1074.1371191102176 180, 1062.1371191102176 200" stroke="black" fill="none" marker-end="url(#arrowhead)"/>
<path d="M 1098.1371191102176 200 Q 1092.1371191102176 180, 1086.1371191102176 200" stroke="black" fill="none" marker-end="url(#arrowhead)"/>
<path d="M 1110.1371191102176 200 Q 1104.1371191102176 180, 1098.1371191102176 200" stroke="black" fill="none" marker-end="url(#arrowhead)"/>
<path d="M 1122.1371191102176 200 Q 1116.1371191102176 180, 1110.1371191102176 200" stroke="black" fill="none" marker-end="url(#arrowhead)"/>
<path d="M 1134.1371191102176 200 Q 1128.1371191102176 180, 1122.1371191102176 200" stroke="black" fill="none" marker-end="url(#arrowhead)"/>
<path d="M 1146.1371191102176 200 Q 1140.1371191102176 180, 1134.1371191102176 200" stroke="black" fill="none" marker-end="url(#arrowhead)"/>
<path d="M 1146.1371191102176 200 Q 1134.1371191102176 180, 1122.1371191102176 200" stroke="black" fill="none" marker-end="url(#arrowhead)"/>
<path d="M 1170.1371191102176 200 Q 1158.1371191102176 180, 1146.1371191102176 200" stroke="black" fill="none" marker-end="url(#arrowhead)"/>
<path d="M 1170.1371191102176 200 Q 1062.1371191102176 180, 954.1371191102177 200" stroke="black" fill="none" marker-end="url(#arrowhead)"/>
<path d="M 1182.1371191102176 200 Q 1170.1371191102176 180, 1158.1371191102176 200" stroke="black" fill="none" marker-end="url(#arrowhead)"/>
<path d="M 1194.1371191102176 200 Q 1188.1371191102176 180, 1182.1371191102176 200" stroke="black" fill="none" marker-end="url(#arrowhead)"/>
<path d="M 1206.1371191102176 200 Q 1194.1371191102176 180, 1182.1371191102176 200" stroke="black" fill="none" marker-end="url(#arrowhead)"/>
<path d="M 1206.1371191102176 200 Q 1200.1371191102176 180, 1194.1371191102176 200" stroke="black" fill="none" marker-end="url(#arrowhead)"/>
<path d="M 1230.1371191102176 200 Q 1206.1371191102176 180, 1182.1371191102176 200" stroke="black" fill="none" marker-end="url(#arrowhead)"/>
<path d="M 1254.1371191102176 200 Q 1224.1371191102176 180, 1194.1371191102176 200" stroke="black" fill="none" marker-end="url(#arrowhead)"/>
<path d="M 1266.1371191102176 200 Q 1242.1371191102176 180, 1218.1371191102176 200" stroke="black" fill="none" marker-end="url(#arrowhead)"/>
<path d="M 1278.1371191102176 200 Q 1176.1371191102176 180, 1074.1371191102176 200" stroke="black" fill="none" marker-end="url(#arrowhead)"/>
<path d="M 1290.1371191102176 200 Q 1272.1371191102176 180, 1254.1371191102176 200" stroke="black" fill="none" marker-end="url(#arrowhead)"/>
<path d="M 1302.1371191102176 200 Q 1296.1371191102176 180, 1290.1371191102176 200" stroke="black" fill="none" marker-end="url(#arrowhead)"/>
<path d="M 1314.1371191102176 200 Q 1302.1371191102176 180, 1290.1371191102176 200" stroke="black" fill="none" marker-end="url(#arrowhead)"/>
<path d="M 1314.1371191102176 200 Q 1308.1371191102176 180, 1302.1371191102176 200" stroke="black" fill="none" marker-end="url(#arrowhead)"/>
<path d="M 1326.1371191102176 200 Q 1320.1371191102176 180, 1314.1371191102176 200" stroke="black" fill="none" marker-end="url(#arrowhead)"/>
<path d="M 1338.1371191102176 200 Q 1332.1371191102176 180, 1326.1371191102176 200" stroke="black" fill="none" marker-end="url(#arrowhead)"/>
<path d="M 1350.1371191102176 200 Q 1332.1371191102176 180, 1314.1371191102176 200" stroke="black" fill="none" marker-end="url(#arrowhead)"/>
<path d="M 1362.1371191102176 200 Q 1350.1371191102176 180, 1338.1371191102176 200" stroke="black" fill="none" marker-end="url(#arrowhead)"/>
<path d="M 1374.1371191102176 200 Q 1368.1371191102176 180, 1362.1371191102176 200" stroke="black" fill="none" marker-end="url(#arrowhead)"/>
<path d="M 1386.1371191102176 200 Q 1368.1371191102176 180, 1350.1371191102176 200" stroke="black" fill="none" marker-end="url(#arrowhead)"/>
<path d="M 1398.1371191102176 200 Q 1380.1371191102176 180, 1362.1371191102176 200" stroke="black" fill="none" marker-end="url(#arrowhead)"/>
<path d="M 1410.1371191102176 200 Q 1386.1371191102176 180, 1362.1371191102176 200" stroke="black" fill="none" marker-end="url(#arrowhead)"/>
<path d="M 1422.1371191102176 200 Q 1404.1371191102176 180, 1386.1371191102176 200" stroke="black" fill="none" marker-end="url(#arrowhead)"/>
<path d="M 1434.1371191102176 200 Q 1344.1371191102176 180, 1254.1371191102176 200" stroke="black" fill="none" marker-end="url(#arrowhead)"/>
<path d="M 1434.1371191102176 200 Q 1314.1371191102176 180, 1194.1371191102176 200" stroke="black" fill="none" marker-end="url(#arrowhead)"/>
<path d="M 1446.1371191102176 200 Q 1440.1371191102176 180, 1434.1371191102176 200" stroke="black" fill="none" marker-end="url(#arrowhead)"/>
<path d="M 1458.1371191102176 200 Q 1446.1371191102176 180, 1434.1371191102176 200" stroke="black" fill="none" marker-end="url(#arrowhead)"/>
<path d="M 1458.1371191102176 200 Q 1452.1371191102176 180, 1446.1371191102176 200" stroke="black" fill="none" marker-end="url(#arrowhead)"/>
<path d="M 1470.1371191102176 200 Q 1212.1371191102176 180, 954.1371191102177 200" stroke="black" fill="none" marker-end="url(#arrowhead)"/>
<path d="M 1470.1371191102176 200 Q 1218.1371191102176 180, 966.1371191102177 200" stroke="black" fill="none" marker-end="url(#arrowhead)"/>
<path d="M 1470.1371191102176 200 Q 1260.1371191102176 180, 1050.1371191102176 200" stroke="black" fill="none" marker-end="url(#arrowhead)"/>
<path d="M 1482.1371191102176 200 Q 1470.1371191102176 180, 1458.1371191102176 200" stroke="black" fill="none" marker-end="url(#arrowhead)"/>
<path d="M 1482.1371191102176 200 Q 1338.1371191102176 180, 1194.1371191102176 200" stroke="black" fill="none" marker-end="url(#arrowhead)"/>
<path d="M 1494.1371191102176 200 Q 1482.1371191102176 180, 1470.1371191102176 200" stroke="black" fill="none" marker-end="url(#arrowhead)"/>
<path d="M 1506.1371191102176 200 Q 1500.1371191102176 180, 1494.1371191102176 200" stroke="black" fill="none" marker-end="url(#arrowhead)"/>
<path d="M 1518.1371191102176 200 Q 1512.1371191102176 180, 1506.1371191102176 200" stroke="black" fill="none" marker-end="url(#arrowhead)"/>
<path d="M 1530.1371191102176 200 Q 1524.1371191102176 180, 1518.1371191102176 200" stroke="black" fill="none" marker-end="url(#arrowhead)"/>
<path d="M 1542.1371191102176 200 Q 1512.1371191102176 180, 1482.1371191102176 200" stroke="black" fill="none" marker-end="url(#arrowhead)"/>
<path d="M 1542.1371191102176 200 Q 1368.1371191102176 180, 1194.1371191102176 200" stroke="black" fill="none" marker-end="url(#arrowhead)"/>
<path d="M 1554.1371191102176 200 Q 1542.1371191102176 180, 1530.1371191102176 200" stroke="black" fill="none" marker-end="url(#arrowhead)"/>
<path d="M 1566.1371191102176 200 Q 1560.1371191102176 180, 1554.1371191102176 200" stroke="black" fill="none" marker-end="url(#arrowhead)"/>
<path d="M 1590.1371191102176 200 Q 1584.1371191102176 180, 1578.1371191102176 200" stroke="black" fill="none" marker-end="url(#arrowhead)"/>
<path d="M 1626.1371191102176 200 Q 1620.1371191102176 180, 1614.1371191102176 200" stroke="black" fill="none" marker-end="url(#arrowhead)"/>
<path d="M 1638.1371191102176 200 Q 1632.1371191102176 180, 1626.1371191102176 200" stroke="black" fill="none" marker-end="url(#arrowhead)"/>
<path d="M 1650.1371191102176 200 Q 1608.1371191102176 180, 1566.1371191102176 200" stroke="black" fill="none" marker-end="url(#arrowhead)"/>
<path d="M 1662.1371191102176 200 Q 1656.1371191102176 180, 1650.1371191102176 200" stroke="black" fill="none" marker-end="url(#arrowhead)"/>
<path d="M 1674.1371191102176 200 Q 1668.1371191102176 180, 1662.1371191102176 200" stroke="black" fill="none" marker-end="url(#arrowhead)"/>
<path d="M 1686.1371191102176 200 Q 1680.1371191102176 180, 1674.1371191102176 200" stroke="black" fill="none" marker-end="url(#arrowhead)"/>
<path d="M 1686.1371191102176 200 Q 1674.1371191102176 180, 1662.1371191102176 200" stroke="black" fill="none" marker-end="url(#arrowhead)"/>
<path d="M 1710.1371191102176 200 Q 1704.1371191102176 180, 1698.1371191102176 200" stroke="black" fill="none" marker-end="url(#arrowhead)"/>
<path d="M 1722.1371191102176 200 Q 886.0685595551088 180, 50.0 200" stroke="black" fill="none" marker-end="url(#arrowhead)"/>
<path d="M 1722.1371191102176 200 Q 1716.1371191102176 180, 1710.1371191102176 200" stroke="black" fill="none" marker-end="url(#arrowhead)"/>
<path d="M 1734.1371191102176 200 Q 1626.1371191102176 180, 1518.1371191102176 200" stroke="black" fill="none" marker-end="url(#arrowhead)"/>
<path d="M 1746.1371191102176 200 Q 1740.1371191102176 180, 1734.1371191102176 200" stroke="black" fill="none" marker-end="url(#arrowhead)"/>
<path d="M 1758.1371191102176 200 Q 1740.1371191102176 180, 1722.1371191102176 200" stroke="black" fill="none" marker-end="url(#arrowhead)"/>
<path d="M 1782.1371191102176 200 Q 1776.1371191102176 180, 1770.1371191102176 200" stroke="black" fill="none" marker-end="url(#arrowhead)"/>
<path d="M 1794.1371191102176 200 Q 1782.1371191102176 180, 1770.1371191102176 200" stroke="black" fill="none" marker-end="url(#arrowhead)"/>
<path d="M 1806.1371191102176 200 Q 1800.1371191102176 180, 1794.1371191102176 200" stroke="black" fill="none" marker-end="url(#arrowhead)"/>
<path d="M 1818.1371191102176 200 Q 1812.1371191102176 180, 1806.1371191102176 200" stroke="black" fill="none" marker-end="url(#arrowhead)"/>
<path d="M 1830.1371191102176 200 Q 1824.1371191102176 180, 1818.1371191102176 200" stroke="black" fill="none" marker-end="url(#arrowhead)"/>
<path d="M 1842.1371191102176 200 Q 1836.1371191102176 180, 1830.1371191102176 200" stroke="black" fill="none" marker-end="url(#arrowhead)"/>
<path d="M 1854.1371191102176 200 Q 1842.1371191102176 180, 1830.1371191102176 200" stroke="black" fill="none" marker-end="url(#arrowhead)"/>
<path d="M 1854.1371191102176 200 Q 1848.1371191102176 180, 1842.1371191102176 200" stroke="black" fill="none" marker-end="url(#arrowhead)"/>
<path d="M 1866.1371191102176 200 Q 1854.1371191102176 180, 1842.1371191102176 200" stroke="black" fill="none" marker-end="url(#arrowhead)"/>
<path d="M 1866.1371191102176 200 Q 1860.1371191102176 180, 1854.1371191102176 200" stroke="black" fill="none" marker-end="url(#arrowhead)"/>
<path d="M 1878.1371191102176 200 Q 1866.1371191102176 180, 1854.1371191102176 200" stroke="black" fill="none" marker-end="url(#arrowhead)"/>
<path d="M 1902.1371191102176 200 Q 1896.1371191102176 180, 1890.1371191102176 200" stroke="black" fill="none" marker-end="url(#arrowhead)"/>
<path d="M 1914.1371191102176 200 Q 1902.1371191102176 180, 1890.1371191102176 200" stroke="black" fill="none" marker-end="url(#arrowhead)"/>
<path d="M 1926.1371191102176 200 Q 1920.1371191102176 180, 1914.1371191102176 200" stroke="black" fill="none" marker-end="url(#arrowhead)"/>
<path d="M 1938.1371191102176 200 Q 1932.1371191102176 180, 1926.1371191102176 200" stroke="black" fill="none" marker-end="url(#arrowhead)"/>
<path d="M 1962.1371191102176 200 Q 1956.1371191102176 180, 1950.1371191102176 200" stroke="black" fill="none" marker-end="url(#arrowhead)"/>
<path d="M 1986.1371191102176 200 Q 1980.1371191102176 180, 1974.1371191102176 200" stroke="black" fill="none" marker-end="url(#arrowhead)"/>
<path d="M 1998.1371191102176 200 Q 1992.1371191102176 180, 1986.1371191102176 200" stroke="black" fill="none" marker-end="url(#arrowhead)"/>
<path d="M 2022.1371191102176 200 Q 2016.1371191102176 180, 2010.1371191102176 200" stroke="black" fill="none" marker-end="url(#arrowhead)"/>
<path d="M 2034.1371191102176 200 Q 2016.1371191102176 180, 1998.1371191102176 200" stroke="black" fill="none" marker-end="url(#arrowhead)"/>
<path d="M 2046.1371191102176 200 Q 1986.1371191102176 180, 1926.1371191102176 200" stroke="black" fill="none" marker-end="url(#arrowhead)"/>
<path d="M 2058.1371191102176 200 Q 2028.1371191102176 180, 1998.1371191102176 200" stroke="black" fill="none" marker-end="url(#arrowhead)"/>
<path d="M 2070.1371191102176 200 Q 2052.1371191102176 180, 2034.1371191102176 200" stroke="black" fill="none" marker-end="url(#arrowhead)"/>
<path d="M 2070.1371191102176 200 Q 2064.1371191102176 180, 2058.1371191102176 200" stroke="black" fill="none" marker-end="url(#arrowhead)"/>

<defs>
  <marker id="arrowhead" markerWidth="5" markerHeight="5" 
          refX="2" refY="2" orient="auto" fill="black">
    <path d="M0,0 L0,4 L4,2 z" />
  </marker>
</defs>

<circle cx="50.0" cy="200" r="6" fill="none" stroke="black" stroke-width="2" />
<circle cx="50.0" cy="200" r="3" fill="black" />
<circle cx="62.0" cy="200" r="4" fill="black" />
<circle cx="74.0" cy="200" r="4" fill="black" />
<circle cx="86.0" cy="200" r="6" fill="none" stroke="blue" stroke-width="2" />
<circle cx="86.0" cy="200" r="3" fill="blue" />
<circle cx="98.0" cy="200" r="6" fill="none" stroke="black" stroke-width="2" />
<circle cx="98.0" cy="200" r="3" fill="black" />
<circle cx="110.0" cy="200" r="4" fill="red" />
<circle cx="122.0" cy="200" r="4" fill="red" />
<circle cx="134.0" cy="200" r="6" fill="none" stroke="blue" stroke-width="2" />
<circle cx="134.0" cy="200" r="3" fill="blue" />
<circle cx="146.0" cy="200" r="4" fill="black" />
<circle cx="158.0" cy="200" r="6" fill="none" stroke="blue" stroke-width="2" />
<circle cx="158.0" cy="200" r="3" fill="blue" />
<circle cx="170.0" cy="200" r="4" fill="blue" />
<circle cx="182.0" cy="200" r="6" fill="none" stroke="blue" stroke-width="2" />
<circle cx="182.0" cy="200" r="3" fill="blue" />
<circle cx="194.0" cy="200" r="4" fill="black" />
<circle cx="206.0" cy="200" r="6" fill="none" stroke="black" stroke-width="2" />
<circle cx="206.0" cy="200" r="3" fill="black" />
<circle cx="218.0" cy="200" r="4" fill="red" />
<circle cx="230.0" cy="200" r="6" fill="none" stroke="black" stroke-width="2" />
<circle cx="230.0" cy="200" r="3" fill="black" />
<circle cx="242.0" cy="200" r="6" fill="none" stroke="blue" stroke-width="2" />
<circle cx="242.0" cy="200" r="3" fill="blue" />
<circle cx="254.0" cy="200" r="6" fill="none" stroke="blue" stroke-width="2" />
<circle cx="254.0" cy="200" r="3" fill="blue" />
<circle cx="266.0" cy="200" r="6" fill="none" stroke="blue" stroke-width="2" />
<circle cx="266.0" cy="200" r="3" fill="blue" />
<circle cx="278.0" cy="200" r="4" fill="red" />
<circle cx="290.0" cy="200" r="6" fill="none" stroke="blue" stroke-width="2" />
<circle cx="290.0" cy="200" r="3" fill="blue" />
<circle cx="302.0" cy="200" r="4" fill="red" />
<circle cx="314.0" cy="200" r="4" fill="black" />
<circle cx="326.0" cy="200" r="6" fill="none" stroke="black" stroke-width="2" />
<circle cx="326.0" cy="200" r="3" fill="black" />
<circle cx="338.0" cy="200" r="6" fill="none" stroke="blue" stroke-width="2" />
<circle cx="338.0" cy="200" r="3" fill="blue" />
<circle cx="350.0" cy="200" r="4" fill="black" />
<circle cx="362.0" cy="200" r="6" fill="none" stroke="black" stroke-width="2" />
<circle cx="362.0" cy="200" r="3" fill="black" />
<circle cx="374.0" cy="200" r="4" fill="black" />
<circle cx="386.0" cy="200" r="6" fill="none" stroke="blue" stroke-width="2" />
<circle cx="386.0" cy="200" r="3" fill="blue" />
<circle cx="398.0" cy="200" r="4" fill="red" />
<circle cx="410.0" cy="200" r="4" fill="red" />
<circle cx="422.0" cy="200" r="6" fill="none" stroke="blue" stroke-width="2" />
<circle cx="422.0" cy="200" r="3" fill="blue" />
<circle cx="434.0" cy="200" r="6" fill="none" stroke="black" stroke-width="2" />
<circle cx="434.0" cy="200" r="3" fill="black" />
<circle cx="446.0" cy="200" r="4" fill="red" />
<circle cx="458.0" cy="200" r="6" fill="none" stroke="blue" stroke-width="2" />
<circle cx="458.0" cy="200" r="3" fill="blue" />
<circle cx="470.0" cy="200" r="4" fill="red" />
<circle cx="482.0" cy="200" r="6" fill="none" stroke="blue" stroke-width="2" />
<circle cx="482.0" cy="200" r="3" fill="blue" />
<circle cx="494.0" cy="200" r="4" fill="red" />
<circle cx="506.0" cy="200" r="6" fill="none" stroke="blue" stroke-width="2" />
<circle cx="506.0" cy="200" r="3" fill="blue" />
<circle cx="518.0" cy="200" r="4" fill="black" />
<circle cx="530.0" cy="200" r="6" fill="none" stroke="blue" stroke-width="2" />
<circle cx="530.0" cy="200" r="3" fill="blue" />
<circle cx="542.0" cy="200" r="4" fill="black" />
<circle cx="554.0" cy="200" r="6" fill="none" stroke="blue" stroke-width="2" />
<circle cx="554.0" cy="200" r="3" fill="blue" />
<circle cx="566.0" cy="200" r="4" fill="green" />
<circle cx="578.0" cy="200" r="6" fill="none" stroke="blue" stroke-width="2" />
<circle cx="578.0" cy="200" r="3" fill="blue" />
<circle cx="590.0" cy="200" r="6" fill="none" stroke="blue" stroke-width="2" />
<circle cx="590.0" cy="200" r="3" fill="blue" />
<circle cx="606.1371191102177" cy="200" r="4" fill="red" />
<circle cx="618.1371191102177" cy="200" r="4" fill="blue" />
<circle cx="630.1371191102177" cy="200" r="4" fill="black" />
<circle cx="642.1371191102177" cy="200" r="6" fill="none" stroke="blue" stroke-width="2" />
<circle cx="642.1371191102177" cy="200" r="3" fill="blue" />
<circle cx="654.1371191102177" cy="200" r="6" fill="none" stroke="blue" stroke-width="2" />
<circle cx="654.1371191102177" cy="200" r="3" fill="blue" />
<circle cx="666.1371191102177" cy="200" r="4" fill="black" />
<circle cx="678.1371191102177" cy="200" r="6" fill="none" stroke="blue" stroke-width="2" />
<circle cx="678.1371191102177" cy="200" r="3" fill="blue" />
<circle cx="690.1371191102177" cy="200" r="4" fill="red" />
<circle cx="702.1371191102177" cy="200" r="4" fill="black" />
<circle cx="714.1371191102177" cy="200" r="6" fill="none" stroke="black" stroke-width="2" />
<circle cx="714.1371191102177" cy="200" r="3" fill="black" />
<circle cx="726.1371191102177" cy="200" r="4" fill="black" />
<circle cx="738.1371191102177" cy="200" r="4" fill="blue" />
<circle cx="750.1371191102177" cy="200" r="6" fill="none" stroke="black" stroke-width="2" />
<circle cx="750.1371191102177" cy="200" r="3" fill="black" />
<circle cx="762.1371191102177" cy="200" r="4" fill="blue" />
<circle cx="774.1371191102177" cy="200" r="6" fill="none" stroke="blue" stroke-width="2" />
<circle cx="774.1371191102177" cy="200" r="3" fill="blue" />
<circle cx="786.1371191102177" cy="200" r="6" fill="none" stroke="blue" stroke-width="2" />
<circle cx="786.1371191102177" cy="200" r="3" fill="blue" />
<circle cx="798.1371191102177" cy="200" r="4" fill="blue" />
<circle cx="810.1371191102177" cy="200" r="6" fill="none" stroke="blue" stroke-width="2" />
<circle cx="810.1371191102177" cy="200" r="3" fill="blue" />
<circle cx="822.1371191102177" cy="200" r="4" fill="green" />
<circle cx="834.1371191102177" cy="200" r="4" fill="red" />
<circle cx="846.1371191102177" cy="200" r="6" fill="none" stroke="green" stroke-width="2" />
<circle cx="846.1371191102177" cy="200" r="3" fill="green" />
<circle cx="858.1371191102177" cy="200" r="4" fill="black" />
<circle cx="870.1371191102177" cy="200" r="4" fill="black" />
<circle cx="882.1371191102177" cy="200" r="4" fill="black" />
<circle cx="894.1371191102177" cy="200" r="6" fill="none" stroke="black" stroke-width="2" />
<circle cx="894.1371191102177" cy="200" r="3" fill="black" />
<circle cx="906.1371191102177" cy="200" r="4" fill="red" />
<circle cx="918.1371191102177" cy="200" r="4" fill="red" />
<circle cx="930.1371191102177" cy="200" r="6" fill="none" stroke="blue" stroke-width="2" />
<circle cx="930.1371191102177" cy="200" r="3" fill="blue" />
<circle cx="942.1371191102177" cy="200" r="4" fill="green" />
<circle cx="954.1371191102177" cy="200" r="4" fill="black" />
<circle cx="966.1371191102177" cy="200" r="4" fill="black" />
<circle cx="978.1371191102177" cy="200" r="6" fill="none" stroke="blue" stroke-width="2" />
<circle cx="978.1371191102177" cy="200" r="3" fill="blue" />
<circle cx="990.1371191102177" cy="200" r="4" fill="black" />
<circle cx="1002.1371191102177" cy="200" r="6" fill="none" stroke="blue" stroke-width="2" />
<circle cx="1002.1371191102177" cy="200" r="3" fill="blue" />
<circle cx="1014.1371191102177" cy="200" r="4" fill="red" />
<circle cx="1026.1371191102176" cy="200" r="6" fill="none" stroke="blue" stroke-width="2" />
<circle cx="1026.1371191102176" cy="200" r="3" fill="blue" />
<circle cx="1038.1371191102176" cy="200" r="4" fill="black" />
<circle cx="1050.1371191102176" cy="200" r="4" fill="red" />
<circle cx="1062.1371191102176" cy="200" r="4" fill="red" />
<circle cx="1074.1371191102176" cy="200" r="4" fill="red" />
<circle cx="1086.1371191102176" cy="200" r="6" fill="none" stroke="blue" stroke-width="2" />
<circle cx="1086.1371191102176" cy="200" r="3" fill="blue" />
<circle cx="1098.1371191102176" cy="200" r="4" fill="black" />
<circle cx="1110.1371191102176" cy="200" r="6" fill="none" stroke="blue" stroke-width="2" />
<circle cx="1110.1371191102176" cy="200" r="3" fill="blue" />
<circle cx="1122.1371191102176" cy="200" r="4" fill="blue" />
<circle cx="1134.1371191102176" cy="200" r="4" fill="red" />
<circle cx="1146.1371191102176" cy="200" r="4" fill="red" />
<circle cx="1158.1371191102176" cy="200" r="6" fill="none" stroke="blue" stroke-width="2" />
<circle cx="1158.1371191102176" cy="200" r="3" fill="blue" />
<circle cx="1170.1371191102176" cy="200" r="4" fill="red" />
<circle cx="1182.1371191102176" cy="200" r="4" fill="blue" />
<circle cx="1194.1371191102176" cy="200" r="4" fill="red" />
<circle cx="1206.1371191102176" cy="200" r="4" fill="blue" />
<circle cx="1218.1371191102176" cy="200" r="4" fill="black" />
<circle cx="1230.1371191102176" cy="200" r="4" fill="red" />
<circle cx="1242.1371191102176" cy="200" r="4" fill="blue" />
<circle cx="1254.1371191102176" cy="200" r="6" fill="none" stroke="blue" stroke-width="2" />
<circle cx="1254.1371191102176" cy="200" r="3" fill="blue" />
<circle cx="1266.1371191102176" cy="200" r="4" fill="black" />
<circle cx="1278.1371191102176" cy="200" r="4" fill="blue" />
<circle cx="1290.1371191102176" cy="200" r="4" fill="blue" />
<circle cx="1302.1371191102176" cy="200" r="4" fill="blue" />
<circle cx="1314.1371191102176" cy="200" r="4" fill="red" />
<circle cx="1326.1371191102176" cy="200" r="4" fill="red" />
<circle cx="1338.1371191102176" cy="200" r="4" fill="blue" />
<circle cx="1350.1371191102176" cy="200" r="4" fill="blue" />
<circle cx="1362.1371191102176" cy="200" r="4" fill="black" />
<circle cx="1374.1371191102176" cy="200" r="4" fill="blue" />
<circle cx="1386.1371191102176" cy="200" r="4" fill="blue" />
<circle cx="1398.1371191102176" cy="200" r="4" fill="black" />
<circle cx="1410.1371191102176" cy="200" r="4" fill="green" />
<circle cx="1422.1371191102176" cy="200" r="4" fill="black" />
<circle cx="1434.1371191102176" cy="200" r="4" fill="black" />
<circle cx="1446.1371191102176" cy="200" r="6" fill="none" stroke="blue" stroke-width="2" />
<circle cx="1446.1371191102176" cy="200" r="3" fill="blue" />
<circle cx="1458.1371191102176" cy="200" r="4" fill="black" />
<circle cx="1470.1371191102176" cy="200" r="4" fill="black" />
<circle cx="1482.1371191102176" cy="200" r="6" fill="none" stroke="black" stroke-width="2" />
<circle cx="1482.1371191102176" cy="200" r="3" fill="black" />
<circle cx="1494.1371191102176" cy="200" r="6" fill="none" stroke="black" stroke-width="2" />
<circle cx="1494.1371191102176" cy="200" r="3" fill="black" />
<circle cx="1506.1371191102176" cy="200" r="4" fill="black" />
<circle cx="1518.1371191102176" cy="200" r="4" fill="black" />
<circle cx="1530.1371191102176" cy="200" r="4" fill="blue" />
<circle cx="1542.1371191102176" cy="200" r="4" fill="black" />
<circle cx="1554.1371191102176" cy="200" r="4" fill="red" />
<circle cx="1566.1371191102176" cy="200" r="4" fill="red" />
<circle cx="1578.1371191102176" cy="200" r="4" fill="black" />
<circle cx="1590.1371191102176" cy="200" r="6" fill="none" stroke="black" stroke-width="2" />
<circle cx="1590.1371191102176" cy="200" r="3" fill="black" />
<circle cx="1602.1371191102176" cy="200" r="6" fill="none" stroke="blue" stroke-width="2" />
<circle cx="1602.1371191102176" cy="200" r="3" fill="blue" />
<circle cx="1614.1371191102176" cy="200" r="4" fill="red" />
<circle cx="1626.1371191102176" cy="200" r="6" fill="none" stroke="blue" stroke-width="2" />
<circle cx="1626.1371191102176" cy="200" r="3" fill="blue" />
<circle cx="1638.1371191102176" cy="200" r="4" fill="blue" />
<circle cx="1650.1371191102176" cy="200" r="4" fill="red" />
<circle cx="1662.1371191102176" cy="200" r="4" fill="blue" />
<circle cx="1674.1371191102176" cy="200" r="4" fill="red" />
<circle cx="1686.1371191102176" cy="200" r="4" fill="blue" />
<circle cx="1698.1371191102176" cy="200" r="4" fill="red" />
<circle cx="1710.1371191102176" cy="200" r="4" fill="black" />
<circle cx="1722.1371191102176" cy="200" r="4" fill="black" />
<circle cx="1734.1371191102176" cy="200" r="4" fill="black" />
<circle cx="1746.1371191102176" cy="200" r="4" fill="black" />
<circle cx="1758.1371191102176" cy="200" r="4" fill="green" />
<circle cx="1770.1371191102176" cy="200" r="4" fill="black" />
<circle cx="1782.1371191102176" cy="200" r="4" fill="black" />
<circle cx="1794.1371191102176" cy="200" r="6" fill="none" stroke="blue" stroke-width="2" />
<circle cx="1794.1371191102176" cy="200" r="3" fill="blue" />
<circle cx="1806.1371191102176" cy="200" r="4" fill="blue" />
<circle cx="1818.1371191102176" cy="200" r="6" fill="none" stroke="green" stroke-width="2" />
<circle cx="1818.1371191102176" cy="200" r="3" fill="green" />
<circle cx="1830.1371191102176" cy="200" r="4" fill="blue" />
<circle cx="1842.1371191102176" cy="200" r="4" fill="red" />
<circle cx="1854.1371191102176" cy="200" r="4" fill="blue" />
<circle cx="1866.1371191102176" cy="200" r="4" fill="red" />
<circle cx="1878.1371191102176" cy="200" r="4" fill="blue" />
<circle cx="1890.1371191102176" cy="200" r="4" fill="red" />
<circle cx="1902.1371191102176" cy="200" r="4" fill="black" />
<circle cx="1914.1371191102176" cy="200" r="4" fill="green" />
<circle cx="1926.1371191102176" cy="200" r="4" fill="red" />
<circle cx="1938.1371191102176" cy="200" r="4" fill="black" />
<circle cx="1950.1371191102176" cy="200" r="6" fill="none" stroke="blue" stroke-width="2" />
<circle cx="1950.1371191102176" cy="200" r="3" fill="blue" />
<circle cx="1962.1371191102176" cy="200" r="4" fill="black" />
<circle cx="1974.1371191102176" cy="200" r="6" fill="none" stroke="blue" stroke-width="2" />
<circle cx="1974.1371191102176" cy="200" r="3" fill="blue" />
<circle cx="1986.1371191102176" cy="200" r="4" fill="red" />
<circle cx="1998.1371191102176" cy="200" r="6" fill="none" stroke="blue" stroke-width="2" />
<circle cx="1998.1371191102176" cy="200" r="3" fill="blue" />
<circle cx="2010.1371191102176" cy="200" r="4" fill="black" />
<circle cx="2022.1371191102176" cy="200" r="6" fill="none" stroke="blue" stroke-width="2" />
<circle cx="2022.1371191102176" cy="200" r="3" fill="blue" />
<circle cx="2034.1371191102176" cy="200" r="4" fill="red" />
<circle cx="2046.1371191102176" cy="200" r="4" fill="black" />
<circle cx="2058.1371191102176" cy="200" r="4" fill="black" />
<circle cx="2070.1371191102176" cy="200" r="6" fill="none" stroke="black" stroke-width="2" />
<circle cx="2070.1371191102176" cy="200" r="3" fill="black" />
<circle cx="2082.1371191102176" cy="200" r="4" fill="red" />
<text x="50" y="225" fill="gray" style="font-size:12px;">2022-05-31T09:32:43+00:00</text>
<text x="900" y="225" fill="gray" style="font-size:12px;">2025-02-03T16:40:18+00:00</text>
</svg>