<svg xmlns="http://www.w3.org/2000/svg" width="1000" height="400" style="background-color: white; font-family: sans-serif;">
<line x1="50" y1="200" x2="950" y2="200" stroke="gray" stroke-width="1"/>
<path d="M 62.0 200 Q 56.0 180, 50.0 200" stroke="black" fill="none" marker-end="url(#arrowhead)"/>
<path d="M 95.72756532386691 200 Q 72.86378266193346 180, 50.0 200" stroke="black" fill="none" marker-end="url(#arrowhead)"/>
<path d="M 119.72756532386691 200 Q 84.86378266193346 180, 50.0 200" stroke="black" fill="none" marker-end="url(#arrowhead)"/>
<path d="M 119.72756532386691 200 Q 113.72756532386691 180, 107.72756532386691 200" stroke="black" fill="none" marker-end="url(#arrowhead)"/>
<path d="M 131.7275653238669 200 Q 90.86378266193346 180, 50.0 200" stroke="black" fill="none" marker-end="url(#arrowhead)"/>
<path d="M 143.7275653238669 200 Q 137.7275653238669 180, 131.7275653238669 200" stroke="black" fill="none" marker-end="url(#arrowhead)"/>
<path d="M 155.7275653238669 200 Q 149.7275653238669 180, 143.7275653238669 200" stroke="black" fill="none" marker-end="url(#arrowhead)"/>
<path d="M 155.7275653238669 200 Q 143.7275653238669 180, 131.7275653238669 200" stroke="black" fill="none" marker-end="url(#arrowhead)"/>
<path d="M 371.5474101641512 200 Q 363.021035874095 180, 354.4946615840388 200" stroke="black" fill="none" marker-end="url(#arrowhead)"/>
<path d="M 383.5474101641512 200 Q 377.5474101641512 180, 371.5474101641512 200" stroke="black" fill="none" marker-end="url(#arrowhead)"/>
<path d="M 395.5474101641512 200 Q 389.5474101641512 180, 383.5474101641512 200" stroke="black" fill="none" marker-end="url(#arrowhead)"/>
<path d="M 520.0084191691983 200 Q 437.25154037661855 180, 354.4946615840388 200" stroke="black" fill="none" marker-end="url(#arrowhead)"/>
<path d="M 586.2815888282595 200 Q 553.145003998729 180, 520.0084191691983 200" stroke="black" fill="none" marker-end="url(#arrowhead)"/>
<path d="M 586.2815888282595 200 Q 470.38812520614914 180, 354.4946615840388 200" stroke="black" fill="none" marker-end="url(#arrowhead)"/>
<path d="M 586.2815888282595 200 Q 478.91449949620534 180, 371.5474101641512 200" stroke="black" fill="none" marker-end="url(#arrowhead)"/>
<path d="M 613.2623000447315 200 Q 599.7719444364955 180, 586.2815888282595 200" stroke="black" fill="none" marker-end="url(#arrowhead)"/>
<path d="M 625.2623000447315 200 Q 619.2623000447315 180, 613.2623000447315 200" stroke="black" fill="none" marker-end="url(#arrowhead)"/>
<path d="M 671.0638576663388 200 Q 642.1630788555351 180, 613.2623000447315 200" stroke="black" fill="none" marker-end="url(#arrowhead)"/>
<path d="M 671.0638576663388 200 Q 648.1630788555351 180, 625.2623000447315 200" stroke="black" fill="none" marker-end="url(#arrowhead)"/>
<path d="M 700.3033762525208 200 Q 662.7828381486262 180, 625.2623000447315 200" stroke="black" fill="none" marker-end="url(#arrowhead)"/>
<path d="M 911.024186661566 200 Q 805.6637814570433 180, 700.3033762525208 200" stroke="black" fill="none" marker-end="url(#arrowhead)"/>
<path d="M 932.441107233708 200 Q 816.3722417431144 180, 700.3033762525208 200" stroke="black" fill="none" marker-end="url(#arrowhead)"/>
<path d="M 932.441107233708 200 Q 921.732646947637 180, 911.024186661566 200" stroke="black" fill="none" marker-end="url(#arrowhead)"/>
<path d="M 956.441107233708 200 Q 950.441107233708 180, 944.441107233708 200" stroke="black" fill="none" marker-end="url(#arrowhead)"/>

<defs>
  <marker id="arrowhead" markerWidth="5" markerHeight="5" 
          refX="2" refY="2" orient="auto" fill="black">
    <path d="M0,0 L0,4 L4,2 z" />
  </marker>
</defs>

<circle cx="50.0" cy="200" r="6" fill="none" stroke="blue" stroke-width="2" />
<circle cx="50.0" cy="200" r="3" fill="blue" />
<circle cx="62.0" cy="200" r="6" fill="none" stroke="black" stroke-width="2" />
<circle cx="62.0" cy="200" r="3" fill="black" />
<circle cx="95.72756532386691" cy="200" r="4" fill="black" />
<circle cx="107.72756532386691" cy="200" r="6" fill="none" stroke="black" stroke-width="2" />
<circle cx="107.72756532386691" cy="200" r="3" fill="black" />
<circle cx="119.72756532386691" cy="200" r="4" fill="black" />
<circle cx="131.7275653238669" cy="200" r="4" fill="blue" />
<circle cx="143.7275653238669" cy="200" r="6" fill="none" stroke="black" stroke-width="2" />
<circle cx="143.7275653238669" cy="200" r="3" fill="black" />
<circle cx="155.7275653238669" cy="200" r="4" fill="black" />
<circle cx="215.6178600851556" cy="200" r="6" fill="none" stroke="blue" stroke-width="2" />
<circle cx="215.6178600851556" cy="200" r="3" fill="blue" />
<circle cx="354.4946615840388" cy="200" r="4" fill="red" />
<circle cx="371.5474101641512" cy="200" r="6" fill="none" stroke="red" stroke-width="2" />
<circle cx="371.5474101641512" cy="200" r="3" fill="red" />
<circle cx="383.5474101641512" cy="200" r="4" fill="red" />
<circle cx="395.5474101641512" cy="200" r="6" fill="none" stroke="black" stroke-width="2" />
<circle cx="395.5474101641512" cy="200" r="3" fill="black" />
<circle cx="520.0084191691983" cy="200" r="6" fill="none" stroke="blue" stroke-width="2" />
<circle cx="520.0084191691983" cy="200" r="3" fill="blue" />
<circle cx="586.2815888282595" cy="200" r="4" fill="red" />
<circle cx="613.2623000447315" cy="200" r="6" fill="none" stroke="black" stroke-width="2" />
<circle cx="613.2623000447315" cy="200" r="3" fill="black" />
<circle cx="625.2623000447315" cy="200" r="4" fill="red" />
<circle cx="671.0638576663388" cy="200" r="4" fill="black" />
<circle cx="700.3033762525208" cy="200" r="6" fill="none" stroke="black" stroke-width="2" />
<circle cx="700.3033762525208" cy="200" r="3" fill="black" />
<circle cx="911.024186661566" cy="200" r="4" fill="black" />
<circle cx="932.441107233708" cy="200" r="4" fill="black" />
<circle cx="944.441107233708" cy="200" r="4" fill="red" />
<circle cx="956.441107233708" cy="200" r="4" fill="black" />
<text x="50" y="225" fill="gray" style="font-size:12px;">2024-12-31T16:06:35+00:00</text>
<text x="900" y="225" fill="gray" style="font-size:12px;">2025-02-08T02:16:40+00:00</text>
</svg>