<svg xmlns="http://www.w3.org/2000/svg" width="1000" height="200" style="background-color: white; font-family: sans-serif;">
<line x1="50" y1="100" x2="950" y2="100" stroke="gray" stroke-width="1"/>
<path d="M 94.89088730905395 100 Q 72.44544365452697 80, 50.0 100" stroke="black" fill="none" marker-end="url(#arrowhead)"/>
<path d="M 106.89088730905395 100 Q 100.89088730905395 80, 94.89088730905395 100" stroke="black" fill="none" marker-end="url(#arrowhead)"/>
<path d="M 541.0204512752282 100 Q 323.95566929214107 80, 106.89088730905395 100" stroke="black" fill="none" marker-end="url(#arrowhead)"/>
<path d="M 842.470005939051 100 Q 691.7452286071396 80, 541.0204512752282 100" stroke="black" fill="none" marker-end="url(#arrowhead)"/>
<path d="M 858.7847923231511 100 Q 850.6273991311011 80, 842.470005939051 100" stroke="black" fill="none" marker-end="url(#arrowhead)"/>
<path d="M 950.0 100 Q 904.3923961615756 80, 858.7847923231511 100" stroke="black" fill="none" marker-end="url(#arrowhead)"/>

<defs>
  <marker id="arrowhead" markerWidth="5" markerHeight="5" 
          refX="2" refY="2" orient="auto" fill="black">
    <path d="M0,0 L0,4 L4,2 z" />
  </marker>
</defs>

<circle cx="50.0" cy="100" r="6" fill="none" stroke="blue" stroke-width="2" />
<circle cx="50.0" cy="100" r="3" fill="blue" />
<circle cx="94.89088730905395" cy="100" r="4" fill="black" />
<circle cx="106.89088730905395" cy="100" r="6" fill="none" stroke="black" stroke-width="2" />
<circle cx="106.89088730905395" cy="100" r="3" fill="black" />
<circle cx="541.0204512752282" cy="100" r="4" fill="black" />
<circle cx="842.470005939051" cy="100" r="6" fill="none" stroke="blue" stroke-width="2" />
<circle cx="842.470005939051" cy="100" r="3" fill="blue" />
<circle cx="858.7847923231511" cy="100" r="4" fill="black" />
<circle cx="950.0" cy="100" r="6" fill="none" stroke="black" stroke-width="2" />
<circle cx="950.0" cy="100" r="3" fill="black" />
<text x="50" y="125" fill="gray" style="font-size:12px;">2025-01-07T19:44:55+00:00</text>
<text x="900" y="125" fill="gray" style="font-size:12px;">2025-01-20T07:33:12+00:00</text>
</svg>