<svg xmlns="http://www.w3.org/2000/svg" width="1000" height="200" style="background-color: white; font-family: sans-serif;">
<line x1="50" y1="100" x2="950" y2="100" stroke="gray" stroke-width="1"/>
<path d="M 127.40410370130436 100 Q 88.70205185065218 80, 50.0 100" stroke="black" fill="none" marker-end="url(#arrowhead)"/>
<path d="M 205.20063785521185 100 Q 127.60031892760593 80, 50.0 100" stroke="black" fill="none" marker-end="url(#arrowhead)"/>
<path d="M 232.3456128767021 100 Q 218.77312536595696 80, 205.20063785521185 100" stroke="black" fill="none" marker-end="url(#arrowhead)"/>
<path d="M 583.4699572686841 100 Q 407.90778507269306 80, 232.3456128767021 100" stroke="black" fill="none" marker-end="url(#arrowhead)"/>
<path d="M 937.6048038470642 100 Q 760.5373805578741 80, 583.4699572686841 100" stroke="black" fill="none" marker-end="url(#arrowhead)"/>
<path d="M 950.0 100 Q 943.8024019235321 80, 937.6048038470642 100" stroke="black" fill="none" marker-end="url(#arrowhead)"/>
<path d="M 950.0 100 Q 766.734978634342 80, 583.4699572686841 100" stroke="black" fill="none" marker-end="url(#arrowhead)"/>

<defs>
  <marker id="arrowhead" markerWidth="5" markerHeight="5" 
          refX="2" refY="2" orient="auto" fill="black">
    <path d="M0,0 L0,4 L4,2 z" />
  </marker>
</defs>

<circle cx="50.0" cy="100" r="6" fill="none" stroke="blue" stroke-width="2" />
<circle cx="50.0" cy="100" r="3" fill="blue" />
<circle cx="127.40410370130436" cy="100" r="6" fill="none" stroke="blue" stroke-width="2" />
<circle cx="127.40410370130436" cy="100" r="3" fill="blue" />
<circle cx="205.20063785521185" cy="100" r="4" fill="red" />
<circle cx="232.3456128767021" cy="100" r="6" fill="none" stroke="blue" stroke-width="2" />
<circle cx="232.3456128767021" cy="100" r="3" fill="blue" />
<circle cx="583.4699572686841" cy="100" r="4" fill="black" />
<circle cx="937.6048038470642" cy="100" r="4" fill="black" />
<circle cx="950.0" cy="100" r="4" fill="green" />
<text x="50" y="125" fill="gray" style="font-size:12px;">2025-01-17T22:11:56+00:00</text>
<text x="900" y="125" fill="gray" style="font-size:12px;">2025-01-19T18:47:34+00:00</text>
</svg>