<svg xmlns="http://www.w3.org/2000/svg" width="1000" height="400" style="background-color: white; font-family: sans-serif;">
<line x1="50" y1="200" x2="950" y2="200" stroke="gray" stroke-width="1"/>
<path d="M 127.40410370130436 200 Q 88.70205185065218 180, 50.0 200" stroke="black" fill="none" marker-end="url(#arrowhead)"/>
<path d="M 205.20063785521185 200 Q 127.60031892760593 180, 50.0 200" stroke="black" fill="none" marker-end="url(#arrowhead)"/>
<path d="M 232.3456128767021 200 Q 218.77312536595696 180, 205.20063785521185 200" stroke="black" fill="none" marker-end="url(#arrowhead)"/>
<path d="M 583.4699572686841 200 Q 407.90778507269306 180, 232.3456128767021 200" stroke="black" fill="none" marker-end="url(#arrowhead)"/>
<path d="M 937.6048038470642 200 Q 760.5373805578741 180, 583.4699572686841 200" stroke="black" fill="none" marker-end="url(#arrowhead)"/>
<path d="M 950.0 200 Q 943.8024019235321 180, 937.6048038470642 200" stroke="black" fill="none" marker-end="url(#arrowhead)"/>
<path d="M 950.0 200 Q 766.734978634342 180, 583.4699572686841 200" stroke="black" fill="none" marker-end="url(#arrowhead)"/>

<defs>
  <marker id="arrowhead" markerWidth="5" markerHeight="5" 
          refX="2" refY="2" orient="auto" fill="black">
    <path d="M0,0 L0,4 L4,2 z" />
  </marker>
</defs>

<circle cx="50.0" cy="200" r="6" fill="none" stroke="blue" stroke-width="2" />
<circle cx="50.0" cy="200" r="3" fill="blue" />
<circle cx="127.40410370130436" cy="200" r="6" fill="none" stroke="blue" stroke-width="2" />
<circle cx="127.40410370130436" cy="200" r="3" fill="blue" />
<circle cx="205.20063785521185" cy="200" r="4" fill="red" />
<circle cx="232.3456128767021" cy="200" r="6" fill="none" stroke="blue" stroke-width="2" />
<circle cx="232.3456128767021" cy="200" r="3" fill="blue" />
<circle cx="583.4699572686841" cy="200" r="4" fill="black" />
<circle cx="937.6048038470642" cy="200" r="4" fill="black" />
<circle cx="950.0" cy="200" r="4" fill="green" />
<text x="50" y="225" fill="gray" style="font-size:12px;">2025-01-17T22:11:56+00:00</text>
<text x="900" y="225" fill="gray" style="font-size:12px;">2025-01-19T18:47:34+00:00</text>
</svg>