<svg xmlns="http://www.w3.org/2000/svg" width="1000" height="200" style="background-color: white; font-family: sans-serif;">
<line x1="50" y1="100" x2="950" y2="100" stroke="gray" stroke-width="1"/>
<path d="M 86.0 100 Q 80.0 80, 74.0 100" stroke="black" fill="none" marker-end="url(#arrowhead)"/>
<path d="M 110.0 100 Q 98.0 80, 86.0 100" stroke="black" fill="none" marker-end="url(#arrowhead)"/>
<path d="M 122.0 100 Q 116.0 80, 110.0 100" stroke="black" fill="none" marker-end="url(#arrowhead)"/>
<path d="M 465.9786094385571 100 Q 287.98930471927855 80, 110.0 100" stroke="black" fill="none" marker-end="url(#arrowhead)"/>
<path d="M 465.9786094385571 100 Q 275.98930471927855 80, 86.0 100" stroke="black" fill="none" marker-end="url(#arrowhead)"/>
<path d="M 486.0811706664998 100 Q 476.02989005252846 80, 465.9786094385571 100" stroke="black" fill="none" marker-end="url(#arrowhead)"/>
<path d="M 498.0811706664998 100 Q 310.0405853332499 80, 122.0 100" stroke="black" fill="none" marker-end="url(#arrowhead)"/>
<path d="M 498.0811706664998 100 Q 492.0811706664998 80, 486.0811706664998 100" stroke="black" fill="none" marker-end="url(#arrowhead)"/>
<path d="M 510.0811706664998 100 Q 504.0811706664998 80, 498.0811706664998 100" stroke="black" fill="none" marker-end="url(#arrowhead)"/>
<path d="M 522.0811706664998 100 Q 516.0811706664998 80, 510.0811706664998 100" stroke="black" fill="none" marker-end="url(#arrowhead)"/>
<path d="M 522.0811706664998 100 Q 322.0405853332499 80, 122.0 100" stroke="black" fill="none" marker-end="url(#arrowhead)"/>
<path d="M 522.0811706664998 100 Q 304.0405853332499 80, 86.0 100" stroke="black" fill="none" marker-end="url(#arrowhead)"/>
<path d="M 534.0811706664998 100 Q 528.0811706664998 80, 522.0811706664998 100" stroke="black" fill="none" marker-end="url(#arrowhead)"/>
<path d="M 546.0811706664998 100 Q 540.0811706664998 80, 534.0811706664998 100" stroke="black" fill="none" marker-end="url(#arrowhead)"/>
<path d="M 558.0811706664998 100 Q 546.0811706664998 80, 534.0811706664998 100" stroke="black" fill="none" marker-end="url(#arrowhead)"/>
<path d="M 558.0811706664998 100 Q 552.0811706664998 80, 546.0811706664998 100" stroke="black" fill="none" marker-end="url(#arrowhead)"/>
<path d="M 570.0811706664998 100 Q 564.0811706664998 80, 558.0811706664998 100" stroke="black" fill="none" marker-end="url(#arrowhead)"/>
<path d="M 582.0811706664998 100 Q 564.0811706664998 80, 546.0811706664998 100" stroke="black" fill="none" marker-end="url(#arrowhead)"/>
<path d="M 929.2521979541846 100 Q 755.6666843103421 80, 582.0811706664998 100" stroke="black" fill="none" marker-end="url(#arrowhead)"/>
<path d="M 950.0 100 Q 939.6260989770923 80, 929.2521979541846 100" stroke="black" fill="none" marker-end="url(#arrowhead)"/>

<defs>
  <marker id="arrowhead" markerWidth="5" markerHeight="5" 
          refX="2" refY="2" orient="auto" fill="black">
    <path d="M0,0 L0,4 L4,2 z" />
  </marker>
</defs>

<circle cx="50.0" cy="100" r="6" fill="none" stroke="blue" stroke-width="2" />
<circle cx="50.0" cy="100" r="3" fill="blue" />
<circle cx="62.0" cy="100" r="4" fill="black" />
<circle cx="74.0" cy="100" r="4" fill="black" />
<circle cx="86.0" cy="100" r="4" fill="red" />
<circle cx="98.0" cy="100" r="4" fill="black" />
<circle cx="110.0" cy="100" r="4" fill="blue" />
<circle cx="122.0" cy="100" r="4" fill="red" />
<circle cx="465.9786094385571" cy="100" r="4" fill="red" />
<circle cx="486.0811706664998" cy="100" r="4" fill="red" />
<circle cx="498.0811706664998" cy="100" r="4" fill="blue" />
<circle cx="510.0811706664998" cy="100" r="4" fill="red" />
<circle cx="522.0811706664998" cy="100" r="4" fill="blue" />
<circle cx="534.0811706664998" cy="100" r="4" fill="red" />
<circle cx="546.0811706664998" cy="100" r="4" fill="black" />
<circle cx="558.0811706664998" cy="100" r="4" fill="red" />
<circle cx="570.0811706664998" cy="100" r="4" fill="black" />
<circle cx="582.0811706664998" cy="100" r="4" fill="red" />
<circle cx="929.2521979541846" cy="100" r="4" fill="blue" />
<circle cx="950.0" cy="100" r="4" fill="green" />
<text x="50" y="125" fill="gray" style="font-size:12px;">2024-09-26T18:30:08+00:00</text>
<text x="900" y="125" fill="gray" style="font-size:12px;">2025-02-03T10:31:07+00:00</text>
</svg>