<svg xmlns="http://www.w3.org/2000/svg" width="1000" height="200" style="background-color: white; font-family: sans-serif;">
<line x1="50" y1="100" x2="950" y2="100" stroke="gray" stroke-width="1"/>
<path d="M 291.46711825430555 100 Q 170.73355912715277 80, 50.0 100" stroke="black" fill="none" marker-end="url(#arrowhead)"/>
<path d="M 303.46711825430555 100 Q 297.46711825430555 80, 291.46711825430555 100" stroke="black" fill="none" marker-end="url(#arrowhead)"/>
<path d="M 315.46711825430555 100 Q 309.46711825430555 80, 303.46711825430555 100" stroke="black" fill="none" marker-end="url(#arrowhead)"/>
<path d="M 327.46711825430555 100 Q 321.46711825430555 80, 315.46711825430555 100" stroke="black" fill="none" marker-end="url(#arrowhead)"/>
<path d="M 490.5629014922389 100 Q 409.0150098732722 80, 327.46711825430555 100" stroke="black" fill="none" marker-end="url(#arrowhead)"/>
<path d="M 863.2748643987302 100 Q 577.3709913265179 80, 291.46711825430555 100" stroke="black" fill="none" marker-end="url(#arrowhead)"/>
<path d="M 950.0 100 Q 620.7335591271528 80, 291.46711825430555 100" stroke="black" fill="none" marker-end="url(#arrowhead)"/>
<path d="M 950.0 100 Q 906.6374321993651 80, 863.2748643987302 100" stroke="black" fill="none" marker-end="url(#arrowhead)"/>

<defs>
  <marker id="arrowhead" markerWidth="5" markerHeight="5" 
          refX="2" refY="2" orient="auto" fill="black">
    <path d="M0,0 L0,4 L4,2 z" />
  </marker>
</defs>

<circle cx="50.0" cy="100" r="6" fill="none" stroke="blue" stroke-width="2" />
<circle cx="50.0" cy="100" r="3" fill="blue" />
<circle cx="291.46711825430555" cy="100" r="4" fill="black" />
<circle cx="303.46711825430555" cy="100" r="6" fill="none" stroke="black" stroke-width="2" />
<circle cx="303.46711825430555" cy="100" r="3" fill="black" />
<circle cx="315.46711825430555" cy="100" r="4" fill="red" />
<circle cx="327.46711825430555" cy="100" r="6" fill="none" stroke="blue" stroke-width="2" />
<circle cx="327.46711825430555" cy="100" r="3" fill="blue" />
<circle cx="490.5629014922389" cy="100" r="4" fill="red" />
<circle cx="863.2748643987302" cy="100" r="4" fill="black" />
<circle cx="950.0" cy="100" r="4" fill="black" />
<text x="50" y="125" fill="gray" style="font-size:12px;">2025-02-11T00:12:17+00:00</text>
<text x="900" y="125" fill="gray" style="font-size:12px;">2025-02-14T17:06:33+00:00</text>
</svg>