<svg xmlns="http://www.w3.org/2000/svg" width="1000" height="400" style="background-color: white; font-family: sans-serif;">
<line x1="50" y1="200" x2="950" y2="200" stroke="gray" stroke-width="1"/>
<path d="M 291.46711825430555 200 Q 170.73355912715277 180, 50.0 200" stroke="black" fill="none" marker-end="url(#arrowhead)"/>
<path d="M 303.46711825430555 200 Q 297.46711825430555 180, 291.46711825430555 200" stroke="black" fill="none" marker-end="url(#arrowhead)"/>
<path d="M 315.46711825430555 200 Q 309.46711825430555 180, 303.46711825430555 200" stroke="black" fill="none" marker-end="url(#arrowhead)"/>
<path d="M 327.46711825430555 200 Q 321.46711825430555 180, 315.46711825430555 200" stroke="black" fill="none" marker-end="url(#arrowhead)"/>
<path d="M 490.5629014922389 200 Q 409.0150098732722 180, 327.46711825430555 200" stroke="black" fill="none" marker-end="url(#arrowhead)"/>
<path d="M 863.2748643987302 200 Q 577.3709913265179 180, 291.46711825430555 200" stroke="black" fill="none" marker-end="url(#arrowhead)"/>
<path d="M 950.0 200 Q 620.7335591271528 180, 291.46711825430555 200" stroke="black" fill="none" marker-end="url(#arrowhead)"/>
<path d="M 950.0 200 Q 906.6374321993651 180, 863.2748643987302 200" stroke="black" fill="none" marker-end="url(#arrowhead)"/>

<defs>
  <marker id="arrowhead" markerWidth="5" markerHeight="5" 
          refX="2" refY="2" orient="auto" fill="black">
    <path d="M0,0 L0,4 L4,2 z" />
  </marker>
</defs>

<circle cx="50.0" cy="200" r="6" fill="none" stroke="blue" stroke-width="2" />
<circle cx="50.0" cy="200" r="3" fill="blue" />
<circle cx="291.46711825430555" cy="200" r="4" fill="black" />
<circle cx="303.46711825430555" cy="200" r="6" fill="none" stroke="black" stroke-width="2" />
<circle cx="303.46711825430555" cy="200" r="3" fill="black" />
<circle cx="315.46711825430555" cy="200" r="4" fill="red" />
<circle cx="327.46711825430555" cy="200" r="6" fill="none" stroke="blue" stroke-width="2" />
<circle cx="327.46711825430555" cy="200" r="3" fill="blue" />
<circle cx="490.5629014922389" cy="200" r="4" fill="red" />
<circle cx="863.2748643987302" cy="200" r="4" fill="black" />
<circle cx="950.0" cy="200" r="4" fill="black" />
<text x="50" y="225" fill="gray" style="font-size:12px;">2025-02-11T00:12:17+00:00</text>
<text x="900" y="225" fill="gray" style="font-size:12px;">2025-02-14T17:06:33+00:00</text>
</svg>