<svg xmlns="http://www.w3.org/2000/svg" width="1000" height="400" style="background-color: white; font-family: sans-serif;">
<line x1="50" y1="200" x2="950" y2="200" stroke="gray" stroke-width="1"/>
<path d="M 74.0 200 Q 62.0 180, 50.0 200" stroke="black" fill="none" marker-end="url(#arrowhead)"/>
<path d="M 86.0 200 Q 80.0 180, 74.0 200" stroke="black" fill="none" marker-end="url(#arrowhead)"/>
<path d="M 98.0 200 Q 74.0 180, 50.0 200" stroke="black" fill="none" marker-end="url(#arrowhead)"/>
<path d="M 122.0 200 Q 110.0 180, 98.0 200" stroke="black" fill="none" marker-end="url(#arrowhead)"/>
<path d="M 134.0 200 Q 92.0 180, 50.0 200" stroke="black" fill="none" marker-end="url(#arrowhead)"/>
<path d="M 493.2920139597861 200 Q 301.64600697989306 180, 110.0 200" stroke="black" fill="none" marker-end="url(#arrowhead)"/>
<path d="M 676.677054613474 200 Q 584.98453428663 180, 493.2920139597861 200" stroke="black" fill="none" marker-end="url(#arrowhead)"/>
<path d="M 700.677054613474 200 Q 694.677054613474 180, 688.677054613474 200" stroke="black" fill="none" marker-end="url(#arrowhead)"/>
<path d="M 712.677054613474 200 Q 700.677054613474 180, 688.677054613474 200" stroke="black" fill="none" marker-end="url(#arrowhead)"/>
<path d="M 712.677054613474 200 Q 706.677054613474 180, 700.677054613474 200" stroke="black" fill="none" marker-end="url(#arrowhead)"/>
<path d="M 724.677054613474 200 Q 718.677054613474 180, 712.677054613474 200" stroke="black" fill="none" marker-end="url(#arrowhead)"/>
<path d="M 736.677054613474 200 Q 724.677054613474 180, 712.677054613474 200" stroke="black" fill="none" marker-end="url(#arrowhead)"/>
<path d="M 736.677054613474 200 Q 730.677054613474 180, 724.677054613474 200" stroke="black" fill="none" marker-end="url(#arrowhead)"/>
<path d="M 748.677054613474 200 Q 742.677054613474 180, 736.677054613474 200" stroke="black" fill="none" marker-end="url(#arrowhead)"/>
<path d="M 760.677054613474 200 Q 718.677054613474 180, 676.677054613474 200" stroke="black" fill="none" marker-end="url(#arrowhead)"/>
<path d="M 772.677054613474 200 Q 766.677054613474 180, 760.677054613474 200" stroke="black" fill="none" marker-end="url(#arrowhead)"/>
<path d="M 784.677054613474 200 Q 778.677054613474 180, 772.677054613474 200" stroke="black" fill="none" marker-end="url(#arrowhead)"/>
<path d="M 796.677054613474 200 Q 790.677054613474 180, 784.677054613474 200" stroke="black" fill="none" marker-end="url(#arrowhead)"/>
<path d="M 808.677054613474 200 Q 802.677054613474 180, 796.677054613474 200" stroke="black" fill="none" marker-end="url(#arrowhead)"/>
<path d="M 820.677054613474 200 Q 814.677054613474 180, 808.677054613474 200" stroke="black" fill="none" marker-end="url(#arrowhead)"/>
<path d="M 832.677054613474 200 Q 826.677054613474 180, 820.677054613474 200" stroke="black" fill="none" marker-end="url(#arrowhead)"/>
<path d="M 844.677054613474 200 Q 838.677054613474 180, 832.677054613474 200" stroke="black" fill="none" marker-end="url(#arrowhead)"/>
<path d="M 856.677054613474 200 Q 850.677054613474 180, 844.677054613474 200" stroke="black" fill="none" marker-end="url(#arrowhead)"/>
<path d="M 868.677054613474 200 Q 856.677054613474 180, 844.677054613474 200" stroke="black" fill="none" marker-end="url(#arrowhead)"/>
<path d="M 868.677054613474 200 Q 862.677054613474 180, 856.677054613474 200" stroke="black" fill="none" marker-end="url(#arrowhead)"/>

<defs>
  <marker id="arrowhead" markerWidth="5" markerHeight="5" 
          refX="2" refY="2" orient="auto" fill="black">
    <path d="M0,0 L0,4 L4,2 z" />
  </marker>
</defs>

<circle cx="50.0" cy="200" r="6" fill="none" stroke="blue" stroke-width="2" />
<circle cx="50.0" cy="200" r="3" fill="blue" />
<circle cx="62.0" cy="200" r="6" fill="none" stroke="black" stroke-width="2" />
<circle cx="62.0" cy="200" r="3" fill="black" />
<circle cx="74.0" cy="200" r="4" fill="black" />
<circle cx="86.0" cy="200" r="6" fill="none" stroke="blue" stroke-width="2" />
<circle cx="86.0" cy="200" r="3" fill="blue" />
<circle cx="98.0" cy="200" r="4" fill="red" />
<circle cx="110.0" cy="200" r="4" fill="black" />
<circle cx="122.0" cy="200" r="4" fill="black" />
<circle cx="134.0" cy="200" r="4" fill="black" />
<circle cx="493.2920139597861" cy="200" r="6" fill="none" stroke="blue" stroke-width="2" />
<circle cx="493.2920139597861" cy="200" r="3" fill="blue" />
<circle cx="505.2920139597861" cy="200" r="6" fill="none" stroke="blue" stroke-width="2" />
<circle cx="505.2920139597861" cy="200" r="3" fill="blue" />
<circle cx="676.677054613474" cy="200" r="4" fill="blue" />
<circle cx="688.677054613474" cy="200" r="4" fill="black" />
<circle cx="700.677054613474" cy="200" r="4" fill="black" />
<circle cx="712.677054613474" cy="200" r="4" fill="black" />
<circle cx="724.677054613474" cy="200" r="4" fill="black" />
<circle cx="736.677054613474" cy="200" r="4" fill="black" />
<circle cx="748.677054613474" cy="200" r="4" fill="black" />
<circle cx="760.677054613474" cy="200" r="4" fill="red" />
<circle cx="772.677054613474" cy="200" r="4" fill="red" />
<circle cx="784.677054613474" cy="200" r="4" fill="red" />
<circle cx="796.677054613474" cy="200" r="4" fill="blue" />
<circle cx="808.677054613474" cy="200" r="4" fill="red" />
<circle cx="820.677054613474" cy="200" r="4" fill="blue" />
<circle cx="832.677054613474" cy="200" r="4" fill="red" />
<circle cx="844.677054613474" cy="200" r="4" fill="blue" />
<circle cx="856.677054613474" cy="200" r="4" fill="red" />
<circle cx="868.677054613474" cy="200" r="4" fill="black" />
<circle cx="950.0" cy="200" r="4" fill="blue" />
<text x="50" y="225" fill="gray" style="font-size:12px;">2023-10-07T05:51:45+00:00</text>
<text x="900" y="225" fill="gray" style="font-size:12px;">2024-08-08T12:15:42+00:00</text>
</svg>