<svg xmlns="http://www.w3.org/2000/svg" width="1000" height="400" style="background-color: white; font-family: sans-serif;">
<line x1="50" y1="200" x2="950" y2="200" stroke="gray" stroke-width="1"/>
<path d="M 62.0 200 Q 56.0 180, 50.0 200" stroke="black" fill="none" marker-end="url(#arrowhead)"/>
<path d="M 74.0 200 Q 62.0 180, 50.0 200" stroke="black" fill="none" marker-end="url(#arrowhead)"/>
<path d="M 86.0 200 Q 74.0 180, 62.0 200" stroke="black" fill="none" marker-end="url(#arrowhead)"/>
<path d="M 860.4569799976457 200 Q 455.22848999882285 180, 50.0 200" stroke="black" fill="none" marker-end="url(#arrowhead)"/>
<path d="M 905.9828227858417 200 Q 883.2199013917436 180, 860.4569799976457 200" stroke="black" fill="none" marker-end="url(#arrowhead)"/>
<path d="M 949.3633247915101 200 Q 927.6730737886759 180, 905.9828227858417 200" stroke="black" fill="none" marker-end="url(#arrowhead)"/>
<path d="M 961.3633247915101 200 Q 933.6730737886759 180, 905.9828227858417 200" stroke="black" fill="none" marker-end="url(#arrowhead)"/>

<defs>
  <marker id="arrowhead" markerWidth="5" markerHeight="5" 
          refX="2" refY="2" orient="auto" fill="black">
    <path d="M0,0 L0,4 L4,2 z" />
  </marker>
</defs>

<circle cx="50.0" cy="200" r="6" fill="none" stroke="blue" stroke-width="2" />
<circle cx="50.0" cy="200" r="3" fill="blue" />
<circle cx="62.0" cy="200" r="4" fill="black" />
<circle cx="74.0" cy="200" r="6" fill="none" stroke="black" stroke-width="2" />
<circle cx="74.0" cy="200" r="3" fill="black" />
<circle cx="86.0" cy="200" r="6" fill="none" stroke="black" stroke-width="2" />
<circle cx="86.0" cy="200" r="3" fill="black" />
<circle cx="860.4569799976457" cy="200" r="4" fill="black" />
<circle cx="905.9828227858417" cy="200" r="6" fill="none" stroke="green" stroke-width="2" />
<circle cx="905.9828227858417" cy="200" r="3" fill="green" />
<circle cx="949.3633247915101" cy="200" r="6" fill="none" stroke="black" stroke-width="2" />
<circle cx="949.3633247915101" cy="200" r="3" fill="black" />
<circle cx="961.3633247915101" cy="200" r="4" fill="green" />
<text x="50" y="225" fill="gray" style="font-size:12px;">2025-02-17T04:55:09+00:00</text>
<text x="900" y="225" fill="gray" style="font-size:12px;">2025-02-27T10:20:05+00:00</text>
</svg>