<svg xmlns="http://www.w3.org/2000/svg" width="1000" height="400" style="background-color: white; font-family: sans-serif;">
<line x1="50" y1="200" x2="950" y2="200" stroke="gray" stroke-width="1"/>
<path d="M 100.60568651655306 200 Q 94.60568651655306 180, 88.60568651655306 200" stroke="black" fill="none" marker-end="url(#arrowhead)"/>
<path d="M 112.60568651655306 200 Q 100.60568651655306 180, 88.60568651655306 200" stroke="black" fill="none" marker-end="url(#arrowhead)"/>
<path d="M 112.60568651655306 200 Q 106.60568651655306 180, 100.60568651655306 200" stroke="black" fill="none" marker-end="url(#arrowhead)"/>
<path d="M 124.60568651655306 200 Q 118.60568651655306 180, 112.60568651655306 200" stroke="black" fill="none" marker-end="url(#arrowhead)"/>
<path d="M 136.60568651655308 200 Q 130.60568651655308 180, 124.60568651655306 200" stroke="black" fill="none" marker-end="url(#arrowhead)"/>
<path d="M 148.60568651655308 200 Q 142.60568651655308 180, 136.60568651655308 200" stroke="black" fill="none" marker-end="url(#arrowhead)"/>
<path d="M 148.60568651655308 200 Q 136.60568651655308 180, 124.60568651655306 200" stroke="black" fill="none" marker-end="url(#arrowhead)"/>
<path d="M 160.60568651655308 200 Q 148.60568651655308 180, 136.60568651655308 200" stroke="black" fill="none" marker-end="url(#arrowhead)"/>
<path d="M 160.60568651655308 200 Q 154.60568651655308 180, 148.60568651655308 200" stroke="black" fill="none" marker-end="url(#arrowhead)"/>
<path d="M 160.60568651655308 200 Q 142.60568651655308 180, 124.60568651655306 200" stroke="black" fill="none" marker-end="url(#arrowhead)"/>
<path d="M 172.60568651655308 200 Q 154.60568651655308 180, 136.60568651655308 200" stroke="black" fill="none" marker-end="url(#arrowhead)"/>
<path d="M 172.60568651655308 200 Q 160.60568651655308 180, 148.60568651655308 200" stroke="black" fill="none" marker-end="url(#arrowhead)"/>
<path d="M 172.60568651655308 200 Q 166.60568651655308 180, 160.60568651655308 200" stroke="black" fill="none" marker-end="url(#arrowhead)"/>
<path d="M 172.60568651655308 200 Q 148.60568651655308 180, 124.60568651655306 200" stroke="black" fill="none" marker-end="url(#arrowhead)"/>
<path d="M 198.62614780714048 200 Q 185.61591716184677 180, 172.60568651655308 200" stroke="black" fill="none" marker-end="url(#arrowhead)"/>
<path d="M 210.62614780714048 200 Q 204.62614780714048 180, 198.62614780714048 200" stroke="black" fill="none" marker-end="url(#arrowhead)"/>
<path d="M 916.3664407189023 200 Q 563.4962942630214 180, 210.62614780714048 200" stroke="black" fill="none" marker-end="url(#arrowhead)"/>
<path d="M 928.3664407189023 200 Q 922.3664407189023 180, 916.3664407189023 200" stroke="black" fill="none" marker-end="url(#arrowhead)"/>
<path d="M 940.3664407189023 200 Q 928.3664407189023 180, 916.3664407189023 200" stroke="black" fill="none" marker-end="url(#arrowhead)"/>
<path d="M 940.3664407189023 200 Q 934.3664407189023 180, 928.3664407189023 200" stroke="black" fill="none" marker-end="url(#arrowhead)"/>
<path d="M 952.3664407189023 200 Q 934.3664407189023 180, 916.3664407189023 200" stroke="black" fill="none" marker-end="url(#arrowhead)"/>
<path d="M 952.3664407189023 200 Q 940.3664407189023 180, 928.3664407189023 200" stroke="black" fill="none" marker-end="url(#arrowhead)"/>
<path d="M 952.3664407189023 200 Q 946.3664407189023 180, 940.3664407189023 200" stroke="black" fill="none" marker-end="url(#arrowhead)"/>
<path d="M 964.3664407189023 200 Q 952.3664407189023 180, 940.3664407189023 200" stroke="black" fill="none" marker-end="url(#arrowhead)"/>
<path d="M 976.3664407189023 200 Q 958.3664407189023 180, 940.3664407189023 200" stroke="black" fill="none" marker-end="url(#arrowhead)"/>
<path d="M 976.3664407189023 200 Q 970.3664407189023 180, 964.3664407189023 200" stroke="black" fill="none" marker-end="url(#arrowhead)"/>
<path d="M 988.3664407189023 200 Q 982.3664407189023 180, 976.3664407189023 200" stroke="black" fill="none" marker-end="url(#arrowhead)"/>
<path d="M 1000.3664407189023 200 Q 994.3664407189023 180, 988.3664407189023 200" stroke="black" fill="none" marker-end="url(#arrowhead)"/>

<defs>
  <marker id="arrowhead" markerWidth="5" markerHeight="5" 
          refX="2" refY="2" orient="auto" fill="black">
    <path d="M0,0 L0,4 L4,2 z" />
  </marker>
</defs>

<circle cx="50.0" cy="200" r="6" fill="none" stroke="black" stroke-width="2" />
<circle cx="50.0" cy="200" r="3" fill="black" />
<circle cx="88.60568651655306" cy="200" r="4" fill="blue" />
<circle cx="100.60568651655306" cy="200" r="4" fill="green" />
<circle cx="112.60568651655306" cy="200" r="4" fill="green" />
<circle cx="124.60568651655306" cy="200" r="4" fill="blue" />
<circle cx="136.60568651655308" cy="200" r="6" fill="none" stroke="green" stroke-width="2" />
<circle cx="136.60568651655308" cy="200" r="3" fill="green" />
<circle cx="148.60568651655308" cy="200" r="4" fill="red" />
<circle cx="160.60568651655308" cy="200" r="6" fill="none" stroke="green" stroke-width="2" />
<circle cx="160.60568651655308" cy="200" r="3" fill="green" />
<circle cx="172.60568651655308" cy="200" r="4" fill="blue" />
<circle cx="198.62614780714048" cy="200" r="4" fill="red" />
<circle cx="210.62614780714048" cy="200" r="4" fill="black" />
<circle cx="916.3664407189023" cy="200" r="4" fill="black" />
<circle cx="928.3664407189023" cy="200" r="6" fill="none" stroke="black" stroke-width="2" />
<circle cx="928.3664407189023" cy="200" r="3" fill="black" />
<circle cx="940.3664407189023" cy="200" r="4" fill="black" />
<circle cx="952.3664407189023" cy="200" r="6" fill="none" stroke="black" stroke-width="2" />
<circle cx="952.3664407189023" cy="200" r="3" fill="black" />
<circle cx="964.3664407189023" cy="200" r="4" fill="blue" />
<circle cx="976.3664407189023" cy="200" r="4" fill="blue" />
<circle cx="988.3664407189023" cy="200" r="4" fill="red" />
<circle cx="1000.3664407189023" cy="200" r="4" fill="black" />
<text x="50" y="225" fill="gray" style="font-size:12px;">2024-05-28T19:13:17+00:00</text>
<text x="900" y="225" fill="gray" style="font-size:12px;">2025-01-31T15:34:51+00:00</text>
</svg>