<svg xmlns="http://www.w3.org/2000/svg" width="1000" height="200" style="background-color: white; font-family: sans-serif;">
<line x1="50" y1="100" x2="950" y2="100" stroke="gray" stroke-width="1"/>
<path d="M 103.4054445777749 100 Q 76.70272228888746 80, 50.0 100" stroke="black" fill="none" marker-end="url(#arrowhead)"/>
<path d="M 127.4054445777749 100 Q 121.4054445777749 80, 115.4054445777749 100" stroke="black" fill="none" marker-end="url(#arrowhead)"/>
<path d="M 139.40544457777492 100 Q 121.40544457777492 80, 103.4054445777749 100" stroke="black" fill="none" marker-end="url(#arrowhead)"/>
<path d="M 151.40544457777492 100 Q 145.40544457777492 80, 139.40544457777492 100" stroke="black" fill="none" marker-end="url(#arrowhead)"/>
<path d="M 163.40544457777492 100 Q 157.40544457777492 80, 151.40544457777492 100" stroke="black" fill="none" marker-end="url(#arrowhead)"/>
<path d="M 175.40544457777492 100 Q 169.40544457777492 80, 163.40544457777492 100" stroke="black" fill="none" marker-end="url(#arrowhead)"/>
<path d="M 187.40544457777492 100 Q 181.40544457777492 80, 175.40544457777492 100" stroke="black" fill="none" marker-end="url(#arrowhead)"/>
<path d="M 199.40544457777492 100 Q 193.40544457777492 80, 187.40544457777492 100" stroke="black" fill="none" marker-end="url(#arrowhead)"/>
<path d="M 217.29513683860054 100 Q 208.35029070818774 80, 199.40544457777492 100" stroke="black" fill="none" marker-end="url(#arrowhead)"/>
<path d="M 229.29513683860054 100 Q 223.29513683860054 80, 217.29513683860054 100" stroke="black" fill="none" marker-end="url(#arrowhead)"/>
<path d="M 275.5773442235804 100 Q 252.43624053109045 80, 229.29513683860054 100" stroke="black" fill="none" marker-end="url(#arrowhead)"/>
<path d="M 287.5773442235804 100 Q 281.5773442235804 80, 275.5773442235804 100" stroke="black" fill="none" marker-end="url(#arrowhead)"/>
<path d="M 299.5773442235804 100 Q 293.5773442235804 80, 287.5773442235804 100" stroke="black" fill="none" marker-end="url(#arrowhead)"/>
<path d="M 328.10763851021534 100 Q 301.8424913668979 80, 275.5773442235804 100" stroke="black" fill="none" marker-end="url(#arrowhead)"/>
<path d="M 340.10763851021534 100 Q 307.8424913668979 80, 275.5773442235804 100" stroke="black" fill="none" marker-end="url(#arrowhead)"/>
<path d="M 340.10763851021534 100 Q 334.10763851021534 80, 328.10763851021534 100" stroke="black" fill="none" marker-end="url(#arrowhead)"/>
<path d="M 352.10763851021534 100 Q 340.10763851021534 80, 328.10763851021534 100" stroke="black" fill="none" marker-end="url(#arrowhead)"/>
<path d="M 352.10763851021534 100 Q 346.10763851021534 80, 340.10763851021534 100" stroke="black" fill="none" marker-end="url(#arrowhead)"/>
<path d="M 364.10763851021534 100 Q 346.10763851021534 80, 328.10763851021534 100" stroke="black" fill="none" marker-end="url(#arrowhead)"/>
<path d="M 376.10763851021534 100 Q 370.10763851021534 80, 364.10763851021534 100" stroke="black" fill="none" marker-end="url(#arrowhead)"/>
<path d="M 388.10763851021534 100 Q 382.10763851021534 80, 376.10763851021534 100" stroke="black" fill="none" marker-end="url(#arrowhead)"/>
<path d="M 400.10763851021534 100 Q 394.10763851021534 80, 388.10763851021534 100" stroke="black" fill="none" marker-end="url(#arrowhead)"/>
<path d="M 412.10763851021534 100 Q 406.10763851021534 80, 400.10763851021534 100" stroke="black" fill="none" marker-end="url(#arrowhead)"/>
<path d="M 424.10763851021534 100 Q 406.10763851021534 80, 388.10763851021534 100" stroke="black" fill="none" marker-end="url(#arrowhead)"/>
<path d="M 424.10763851021534 100 Q 376.10763851021534 80, 328.10763851021534 100" stroke="black" fill="none" marker-end="url(#arrowhead)"/>
<path d="M 436.10763851021534 100 Q 430.10763851021534 80, 424.10763851021534 100" stroke="black" fill="none" marker-end="url(#arrowhead)"/>
<path d="M 448.10763851021534 100 Q 442.10763851021534 80, 436.10763851021534 100" stroke="black" fill="none" marker-end="url(#arrowhead)"/>
<path d="M 460.10763851021534 100 Q 454.10763851021534 80, 448.10763851021534 100" stroke="black" fill="none" marker-end="url(#arrowhead)"/>
<path d="M 472.10763851021534 100 Q 466.10763851021534 80, 460.10763851021534 100" stroke="black" fill="none" marker-end="url(#arrowhead)"/>
<path d="M 484.10763851021534 100 Q 466.10763851021534 80, 448.10763851021534 100" stroke="black" fill="none" marker-end="url(#arrowhead)"/>
<path d="M 484.10763851021534 100 Q 472.10763851021534 80, 460.10763851021534 100" stroke="black" fill="none" marker-end="url(#arrowhead)"/>
<path d="M 496.10763851021534 100 Q 490.10763851021534 80, 484.10763851021534 100" stroke="black" fill="none" marker-end="url(#arrowhead)"/>
<path d="M 508.10763851021534 100 Q 496.10763851021534 80, 484.10763851021534 100" stroke="black" fill="none" marker-end="url(#arrowhead)"/>
<path d="M 508.10763851021534 100 Q 502.10763851021534 80, 496.10763851021534 100" stroke="black" fill="none" marker-end="url(#arrowhead)"/>
<path d="M 520.1076385102153 100 Q 514.1076385102153 80, 508.10763851021534 100" stroke="black" fill="none" marker-end="url(#arrowhead)"/>
<path d="M 520.1076385102153 100 Q 424.10763851021534 80, 328.10763851021534 100" stroke="black" fill="none" marker-end="url(#arrowhead)"/>
<path d="M 532.1076385102153 100 Q 526.1076385102153 80, 520.1076385102153 100" stroke="black" fill="none" marker-end="url(#arrowhead)"/>
<path d="M 544.1076385102153 100 Q 538.1076385102153 80, 532.1076385102153 100" stroke="black" fill="none" marker-end="url(#arrowhead)"/>
<path d="M 568.1076385102153 100 Q 562.1076385102153 80, 556.1076385102153 100" stroke="black" fill="none" marker-end="url(#arrowhead)"/>
<path d="M 580.1076385102153 100 Q 574.1076385102153 80, 568.1076385102153 100" stroke="black" fill="none" marker-end="url(#arrowhead)"/>
<path d="M 604.1076385102153 100 Q 598.1076385102153 80, 592.1076385102153 100" stroke="black" fill="none" marker-end="url(#arrowhead)"/>
<path d="M 616.1076385102153 100 Q 610.1076385102153 80, 604.1076385102153 100" stroke="black" fill="none" marker-end="url(#arrowhead)"/>
<path d="M 628.1076385102153 100 Q 622.1076385102153 80, 616.1076385102153 100" stroke="black" fill="none" marker-end="url(#arrowhead)"/>
<path d="M 652.1076385102153 100 Q 646.1076385102153 80, 640.1076385102153 100" stroke="black" fill="none" marker-end="url(#arrowhead)"/>
<path d="M 664.1076385102153 100 Q 658.1076385102153 80, 652.1076385102153 100" stroke="black" fill="none" marker-end="url(#arrowhead)"/>
<path d="M 676.1076385102153 100 Q 670.1076385102153 80, 664.1076385102153 100" stroke="black" fill="none" marker-end="url(#arrowhead)"/>
<path d="M 688.1076385102153 100 Q 682.1076385102153 80, 676.1076385102153 100" stroke="black" fill="none" marker-end="url(#arrowhead)"/>
<path d="M 700.1076385102153 100 Q 694.1076385102153 80, 688.1076385102153 100" stroke="black" fill="none" marker-end="url(#arrowhead)"/>
<path d="M 712.1076385102153 100 Q 706.1076385102153 80, 700.1076385102153 100" stroke="black" fill="none" marker-end="url(#arrowhead)"/>
<path d="M 712.1076385102153 100 Q 520.1076385102153 80, 328.10763851021534 100" stroke="black" fill="none" marker-end="url(#arrowhead)"/>
<path d="M 736.1076385102153 100 Q 730.1076385102153 80, 724.1076385102153 100" stroke="black" fill="none" marker-end="url(#arrowhead)"/>
<path d="M 748.1076385102153 100 Q 736.1076385102153 80, 724.1076385102153 100" stroke="black" fill="none" marker-end="url(#arrowhead)"/>
<path d="M 760.1076385102153 100 Q 748.1076385102153 80, 736.1076385102153 100" stroke="black" fill="none" marker-end="url(#arrowhead)"/>
<path d="M 772.1076385102153 100 Q 766.1076385102153 80, 760.1076385102153 100" stroke="black" fill="none" marker-end="url(#arrowhead)"/>
<path d="M 784.1076385102153 100 Q 778.1076385102153 80, 772.1076385102153 100" stroke="black" fill="none" marker-end="url(#arrowhead)"/>
<path d="M 796.1076385102153 100 Q 772.1076385102153 80, 748.1076385102153 100" stroke="black" fill="none" marker-end="url(#arrowhead)"/>
<path d="M 796.1076385102153 100 Q 760.1076385102153 80, 724.1076385102153 100" stroke="black" fill="none" marker-end="url(#arrowhead)"/>
<path d="M 808.1076385102153 100 Q 802.1076385102153 80, 796.1076385102153 100" stroke="black" fill="none" marker-end="url(#arrowhead)"/>
<path d="M 820.1076385102153 100 Q 814.1076385102153 80, 808.1076385102153 100" stroke="black" fill="none" marker-end="url(#arrowhead)"/>
<path d="M 832.1076385102153 100 Q 826.1076385102153 80, 820.1076385102153 100" stroke="black" fill="none" marker-end="url(#arrowhead)"/>
<path d="M 832.1076385102153 100 Q 820.1076385102153 80, 808.1076385102153 100" stroke="black" fill="none" marker-end="url(#arrowhead)"/>
<path d="M 844.1076385102153 100 Q 838.1076385102153 80, 832.1076385102153 100" stroke="black" fill="none" marker-end="url(#arrowhead)"/>
<path d="M 856.1076385102153 100 Q 820.1076385102153 80, 784.1076385102153 100" stroke="black" fill="none" marker-end="url(#arrowhead)"/>
<path d="M 868.1076385102153 100 Q 850.1076385102153 80, 832.1076385102153 100" stroke="black" fill="none" marker-end="url(#arrowhead)"/>
<path d="M 868.1076385102153 100 Q 856.1076385102153 80, 844.1076385102153 100" stroke="black" fill="none" marker-end="url(#arrowhead)"/>
<path d="M 880.1076385102153 100 Q 874.1076385102153 80, 868.1076385102153 100" stroke="black" fill="none" marker-end="url(#arrowhead)"/>
<path d="M 904.1076385102153 100 Q 898.1076385102153 80, 892.1076385102153 100" stroke="black" fill="none" marker-end="url(#arrowhead)"/>
<path d="M 916.1076385102153 100 Q 910.1076385102153 80, 904.1076385102153 100" stroke="black" fill="none" marker-end="url(#arrowhead)"/>
<path d="M 940.1076385102153 100 Q 934.1076385102153 80, 928.1076385102153 100" stroke="black" fill="none" marker-end="url(#arrowhead)"/>
<path d="M 988.1076385102153 100 Q 958.1076385102153 80, 928.1076385102153 100" stroke="black" fill="none" marker-end="url(#arrowhead)"/>
<path d="M 988.1076385102153 100 Q 964.1076385102153 80, 940.1076385102153 100" stroke="black" fill="none" marker-end="url(#arrowhead)"/>
<path d="M 1000.1076385102153 100 Q 994.1076385102153 80, 988.1076385102153 100" stroke="black" fill="none" marker-end="url(#arrowhead)"/>
<path d="M 1012.1076385102153 100 Q 976.1076385102153 80, 940.1076385102153 100" stroke="black" fill="none" marker-end="url(#arrowhead)"/>
<path d="M 1024.1076385102153 100 Q 1012.1076385102153 80, 1000.1076385102153 100" stroke="black" fill="none" marker-end="url(#arrowhead)"/>
<path d="M 1036.1076385102153 100 Q 1030.1076385102153 80, 1024.1076385102153 100" stroke="black" fill="none" marker-end="url(#arrowhead)"/>
<path d="M 1048.1076385102153 100 Q 1042.1076385102153 80, 1036.1076385102153 100" stroke="black" fill="none" marker-end="url(#arrowhead)"/>
<path d="M 1060.1076385102153 100 Q 1048.1076385102153 80, 1036.1076385102153 100" stroke="black" fill="none" marker-end="url(#arrowhead)"/>
<path d="M 1060.1076385102153 100 Q 1054.1076385102153 80, 1048.1076385102153 100" stroke="black" fill="none" marker-end="url(#arrowhead)"/>
<path d="M 1072.1076385102153 100 Q 1066.1076385102153 80, 1060.1076385102153 100" stroke="black" fill="none" marker-end="url(#arrowhead)"/>
<path d="M 1084.1076385102153 100 Q 1078.1076385102153 80, 1072.1076385102153 100" stroke="black" fill="none" marker-end="url(#arrowhead)"/>
<path d="M 1096.1076385102153 100 Q 1090.1076385102153 80, 1084.1076385102153 100" stroke="black" fill="none" marker-end="url(#arrowhead)"/>
<path d="M 1120.1076385102153 100 Q 1114.1076385102153 80, 1108.1076385102153 100" stroke="black" fill="none" marker-end="url(#arrowhead)"/>
<path d="M 1132.1076385102153 100 Q 1120.1076385102153 80, 1108.1076385102153 100" stroke="black" fill="none" marker-end="url(#arrowhead)"/>
<path d="M 1132.1076385102153 100 Q 1126.1076385102153 80, 1120.1076385102153 100" stroke="black" fill="none" marker-end="url(#arrowhead)"/>
<path d="M 1144.1076385102153 100 Q 1138.1076385102153 80, 1132.1076385102153 100" stroke="black" fill="none" marker-end="url(#arrowhead)"/>
<path d="M 1144.1076385102153 100 Q 736.1076385102153 80, 328.10763851021534 100" stroke="black" fill="none" marker-end="url(#arrowhead)"/>
<path d="M 1156.1076385102153 100 Q 1150.1076385102153 80, 1144.1076385102153 100" stroke="black" fill="none" marker-end="url(#arrowhead)"/>
<path d="M 1180.1076385102153 100 Q 1174.1076385102153 80, 1168.1076385102153 100" stroke="black" fill="none" marker-end="url(#arrowhead)"/>
<path d="M 1192.1076385102153 100 Q 1186.1076385102153 80, 1180.1076385102153 100" stroke="black" fill="none" marker-end="url(#arrowhead)"/>
<path d="M 1204.1076385102153 100 Q 1198.1076385102153 80, 1192.1076385102153 100" stroke="black" fill="none" marker-end="url(#arrowhead)"/>
<path d="M 1216.1076385102153 100 Q 1210.1076385102153 80, 1204.1076385102153 100" stroke="black" fill="none" marker-end="url(#arrowhead)"/>
<path d="M 1228.1076385102153 100 Q 1222.1076385102153 80, 1216.1076385102153 100" stroke="black" fill="none" marker-end="url(#arrowhead)"/>
<path d="M 1240.1076385102153 100 Q 1234.1076385102153 80, 1228.1076385102153 100" stroke="black" fill="none" marker-end="url(#arrowhead)"/>
<path d="M 1252.1076385102153 100 Q 1246.1076385102153 80, 1240.1076385102153 100" stroke="black" fill="none" marker-end="url(#arrowhead)"/>
<path d="M 1276.1076385102153 100 Q 1270.1076385102153 80, 1264.1076385102153 100" stroke="black" fill="none" marker-end="url(#arrowhead)"/>
<path d="M 1288.1076385102153 100 Q 1282.1076385102153 80, 1276.1076385102153 100" stroke="black" fill="none" marker-end="url(#arrowhead)"/>
<path d="M 1312.1076385102153 100 Q 1306.1076385102153 80, 1300.1076385102153 100" stroke="black" fill="none" marker-end="url(#arrowhead)"/>
<path d="M 1324.1076385102153 100 Q 1318.1076385102153 80, 1312.1076385102153 100" stroke="black" fill="none" marker-end="url(#arrowhead)"/>
<path d="M 1336.1076385102153 100 Q 1330.1076385102153 80, 1324.1076385102153 100" stroke="black" fill="none" marker-end="url(#arrowhead)"/>
<path d="M 1348.1076385102153 100 Q 1342.1076385102153 80, 1336.1076385102153 100" stroke="black" fill="none" marker-end="url(#arrowhead)"/>
<path d="M 1396.1076385102153 100 Q 1390.1076385102153 80, 1384.1076385102153 100" stroke="black" fill="none" marker-end="url(#arrowhead)"/>
<path d="M 1408.1076385102153 100 Q 1390.1076385102153 80, 1372.1076385102153 100" stroke="black" fill="none" marker-end="url(#arrowhead)"/>
<path d="M 1408.1076385102153 100 Q 1402.1076385102153 80, 1396.1076385102153 100" stroke="black" fill="none" marker-end="url(#arrowhead)"/>
<path d="M 1420.1076385102153 100 Q 1414.1076385102153 80, 1408.1076385102153 100" stroke="black" fill="none" marker-end="url(#arrowhead)"/>
<path d="M 1432.1076385102153 100 Q 1402.1076385102153 80, 1372.1076385102153 100" stroke="black" fill="none" marker-end="url(#arrowhead)"/>
<path d="M 1444.1076385102153 100 Q 1432.1076385102153 80, 1420.1076385102153 100" stroke="black" fill="none" marker-end="url(#arrowhead)"/>
<path d="M 1456.1076385102153 100 Q 1450.1076385102153 80, 1444.1076385102153 100" stroke="black" fill="none" marker-end="url(#arrowhead)"/>
<path d="M 1468.1076385102153 100 Q 1462.1076385102153 80, 1456.1076385102153 100" stroke="black" fill="none" marker-end="url(#arrowhead)"/>
<path d="M 1480.1076385102153 100 Q 1474.1076385102153 80, 1468.1076385102153 100" stroke="black" fill="none" marker-end="url(#arrowhead)"/>
<path d="M 1492.1076385102153 100 Q 1480.1076385102153 80, 1468.1076385102153 100" stroke="black" fill="none" marker-end="url(#arrowhead)"/>
<path d="M 1504.1076385102153 100 Q 1498.1076385102153 80, 1492.1076385102153 100" stroke="black" fill="none" marker-end="url(#arrowhead)"/>
<path d="M 1516.1076385102153 100 Q 1510.1076385102153 80, 1504.1076385102153 100" stroke="black" fill="none" marker-end="url(#arrowhead)"/>
<path d="M 1516.1076385102153 100 Q 1276.1076385102153 80, 1036.1076385102153 100" stroke="black" fill="none" marker-end="url(#arrowhead)"/>
<path d="M 1528.1076385102153 100 Q 1522.1076385102153 80, 1516.1076385102153 100" stroke="black" fill="none" marker-end="url(#arrowhead)"/>
<path d="M 1552.1076385102153 100 Q 1546.1076385102153 80, 1540.1076385102153 100" stroke="black" fill="none" marker-end="url(#arrowhead)"/>
<path d="M 1564.1076385102153 100 Q 1558.1076385102153 80, 1552.1076385102153 100" stroke="black" fill="none" marker-end="url(#arrowhead)"/>
<path d="M 1576.1076385102153 100 Q 1570.1076385102153 80, 1564.1076385102153 100" stroke="black" fill="none" marker-end="url(#arrowhead)"/>
<path d="M 1588.1076385102153 100 Q 1582.1076385102153 80, 1576.1076385102153 100" stroke="black" fill="none" marker-end="url(#arrowhead)"/>
<path d="M 1600.1076385102153 100 Q 1594.1076385102153 80, 1588.1076385102153 100" stroke="black" fill="none" marker-end="url(#arrowhead)"/>
<path d="M 1612.1076385102153 100 Q 1600.1076385102153 80, 1588.1076385102153 100" stroke="black" fill="none" marker-end="url(#arrowhead)"/>
<path d="M 1612.1076385102153 100 Q 1582.1076385102153 80, 1552.1076385102153 100" stroke="black" fill="none" marker-end="url(#arrowhead)"/>
<path d="M 1624.1076385102153 100 Q 1618.1076385102153 80, 1612.1076385102153 100" stroke="black" fill="none" marker-end="url(#arrowhead)"/>
<path d="M 1636.1076385102153 100 Q 1600.1076385102153 80, 1564.1076385102153 100" stroke="black" fill="none" marker-end="url(#arrowhead)"/>
<path d="M 1636.1076385102153 100 Q 1630.1076385102153 80, 1624.1076385102153 100" stroke="black" fill="none" marker-end="url(#arrowhead)"/>
<path d="M 1648.1076385102153 100 Q 1642.1076385102153 80, 1636.1076385102153 100" stroke="black" fill="none" marker-end="url(#arrowhead)"/>
<path d="M 1660.1076385102153 100 Q 1642.1076385102153 80, 1624.1076385102153 100" stroke="black" fill="none" marker-end="url(#arrowhead)"/>
<path d="M 1672.1076385102153 100 Q 1660.1076385102153 80, 1648.1076385102153 100" stroke="black" fill="none" marker-end="url(#arrowhead)"/>
<path d="M 1696.1076385102153 100 Q 1678.1076385102153 80, 1660.1076385102153 100" stroke="black" fill="none" marker-end="url(#arrowhead)"/>
<path d="M 1708.1076385102153 100 Q 1702.1076385102153 80, 1696.1076385102153 100" stroke="black" fill="none" marker-end="url(#arrowhead)"/>
<path d="M 1720.1076385102153 100 Q 1714.1076385102153 80, 1708.1076385102153 100" stroke="black" fill="none" marker-end="url(#arrowhead)"/>
<path d="M 1732.1076385102153 100 Q 1714.1076385102153 80, 1696.1076385102153 100" stroke="black" fill="none" marker-end="url(#arrowhead)"/>
<path d="M 1756.1076385102153 100 Q 1750.1076385102153 80, 1744.1076385102153 100" stroke="black" fill="none" marker-end="url(#arrowhead)"/>
<path d="M 1768.1076385102153 100 Q 1762.1076385102153 80, 1756.1076385102153 100" stroke="black" fill="none" marker-end="url(#arrowhead)"/>
<path d="M 1780.1076385102153 100 Q 1774.1076385102153 80, 1768.1076385102153 100" stroke="black" fill="none" marker-end="url(#arrowhead)"/>
<path d="M 1792.1076385102153 100 Q 1786.1076385102153 80, 1780.1076385102153 100" stroke="black" fill="none" marker-end="url(#arrowhead)"/>
<path d="M 1804.1076385102153 100 Q 1792.1076385102153 80, 1780.1076385102153 100" stroke="black" fill="none" marker-end="url(#arrowhead)"/>
<path d="M 1804.1076385102153 100 Q 1798.1076385102153 80, 1792.1076385102153 100" stroke="black" fill="none" marker-end="url(#arrowhead)"/>

<defs>
  <marker id="arrowhead" markerWidth="5" markerHeight="5" 
          refX="2" refY="2" orient="auto" fill="black">
    <path d="M0,0 L0,4 L4,2 z" />
  </marker>
</defs>

<circle cx="50.0" cy="100" r="6" fill="none" stroke="blue" stroke-width="2" />
<circle cx="50.0" cy="100" r="3" fill="blue" />
<circle cx="103.4054445777749" cy="100" r="6" fill="none" stroke="blue" stroke-width="2" />
<circle cx="103.4054445777749" cy="100" r="3" fill="blue" />
<circle cx="115.4054445777749" cy="100" r="4" fill="green" />
<circle cx="127.4054445777749" cy="100" r="6" fill="none" stroke="green" stroke-width="2" />
<circle cx="127.4054445777749" cy="100" r="3" fill="green" />
<circle cx="139.40544457777492" cy="100" r="6" fill="none" stroke="blue" stroke-width="2" />
<circle cx="139.40544457777492" cy="100" r="3" fill="blue" />
<circle cx="151.40544457777492" cy="100" r="4" fill="red" />
<circle cx="163.40544457777492" cy="100" r="6" fill="none" stroke="red" stroke-width="2" />
<circle cx="163.40544457777492" cy="100" r="3" fill="red" />
<circle cx="175.40544457777492" cy="100" r="4" fill="black" />
<circle cx="187.40544457777492" cy="100" r="4" fill="black" />
<circle cx="199.40544457777492" cy="100" r="6" fill="none" stroke="black" stroke-width="2" />
<circle cx="199.40544457777492" cy="100" r="3" fill="black" />
<circle cx="217.29513683860054" cy="100" r="6" fill="none" stroke="blue" stroke-width="2" />
<circle cx="217.29513683860054" cy="100" r="3" fill="blue" />
<circle cx="229.29513683860054" cy="100" r="6" fill="none" stroke="blue" stroke-width="2" />
<circle cx="229.29513683860054" cy="100" r="3" fill="blue" />
<circle cx="275.5773442235804" cy="100" r="6" fill="none" stroke="blue" stroke-width="2" />
<circle cx="275.5773442235804" cy="100" r="3" fill="blue" />
<circle cx="287.5773442235804" cy="100" r="4" fill="blue" />
<circle cx="299.5773442235804" cy="100" r="6" fill="none" stroke="black" stroke-width="2" />
<circle cx="299.5773442235804" cy="100" r="3" fill="black" />
<circle cx="328.10763851021534" cy="100" r="4" fill="red" />
<circle cx="340.10763851021534" cy="100" r="4" fill="red" />
<circle cx="352.10763851021534" cy="100" r="4" fill="red" />
<circle cx="364.10763851021534" cy="100" r="6" fill="none" stroke="black" stroke-width="2" />
<circle cx="364.10763851021534" cy="100" r="3" fill="black" />
<circle cx="376.10763851021534" cy="100" r="6" fill="none" stroke="black" stroke-width="2" />
<circle cx="376.10763851021534" cy="100" r="3" fill="black" />
<circle cx="388.10763851021534" cy="100" r="4" fill="red" />
<circle cx="400.10763851021534" cy="100" r="4" fill="red" />
<circle cx="412.10763851021534" cy="100" r="6" fill="none" stroke="black" stroke-width="2" />
<circle cx="412.10763851021534" cy="100" r="3" fill="black" />
<circle cx="424.10763851021534" cy="100" r="6" fill="none" stroke="blue" stroke-width="2" />
<circle cx="424.10763851021534" cy="100" r="3" fill="blue" />
<circle cx="436.10763851021534" cy="100" r="4" fill="red" />
<circle cx="448.10763851021534" cy="100" r="6" fill="none" stroke="black" stroke-width="2" />
<circle cx="448.10763851021534" cy="100" r="3" fill="black" />
<circle cx="460.10763851021534" cy="100" r="4" fill="red" />
<circle cx="472.10763851021534" cy="100" r="6" fill="none" stroke="black" stroke-width="2" />
<circle cx="472.10763851021534" cy="100" r="3" fill="black" />
<circle cx="484.10763851021534" cy="100" r="4" fill="red" />
<circle cx="496.10763851021534" cy="100" r="6" fill="none" stroke="black" stroke-width="2" />
<circle cx="496.10763851021534" cy="100" r="3" fill="black" />
<circle cx="508.10763851021534" cy="100" r="4" fill="black" />
<circle cx="520.1076385102153" cy="100" r="6" fill="none" stroke="blue" stroke-width="2" />
<circle cx="520.1076385102153" cy="100" r="3" fill="blue" />
<circle cx="532.1076385102153" cy="100" r="6" fill="none" stroke="blue" stroke-width="2" />
<circle cx="532.1076385102153" cy="100" r="3" fill="blue" />
<circle cx="544.1076385102153" cy="100" r="6" fill="none" stroke="blue" stroke-width="2" />
<circle cx="544.1076385102153" cy="100" r="3" fill="blue" />
<circle cx="556.1076385102153" cy="100" r="4" fill="red" />
<circle cx="568.1076385102153" cy="100" r="6" fill="none" stroke="red" stroke-width="2" />
<circle cx="568.1076385102153" cy="100" r="3" fill="red" />
<circle cx="580.1076385102153" cy="100" r="6" fill="none" stroke="blue" stroke-width="2" />
<circle cx="580.1076385102153" cy="100" r="3" fill="blue" />
<circle cx="592.1076385102153" cy="100" r="4" fill="red" />
<circle cx="604.1076385102153" cy="100" r="6" fill="none" stroke="blue" stroke-width="2" />
<circle cx="604.1076385102153" cy="100" r="3" fill="blue" />
<circle cx="616.1076385102153" cy="100" r="4" fill="red" />
<circle cx="628.1076385102153" cy="100" r="6" fill="none" stroke="green" stroke-width="2" />
<circle cx="628.1076385102153" cy="100" r="3" fill="green" />
<circle cx="640.1076385102153" cy="100" r="4" fill="red" />
<circle cx="652.1076385102153" cy="100" r="6" fill="none" stroke="black" stroke-width="2" />
<circle cx="652.1076385102153" cy="100" r="3" fill="black" />
<circle cx="664.1076385102153" cy="100" r="6" fill="none" stroke="blue" stroke-width="2" />
<circle cx="664.1076385102153" cy="100" r="3" fill="blue" />
<circle cx="676.1076385102153" cy="100" r="4" fill="red" />
<circle cx="688.1076385102153" cy="100" r="6" fill="none" stroke="black" stroke-width="2" />
<circle cx="688.1076385102153" cy="100" r="3" fill="black" />
<circle cx="700.1076385102153" cy="100" r="4" fill="black" />
<circle cx="712.1076385102153" cy="100" r="6" fill="none" stroke="black" stroke-width="2" />
<circle cx="712.1076385102153" cy="100" r="3" fill="black" />
<circle cx="724.1076385102153" cy="100" r="4" fill="black" />
<circle cx="736.1076385102153" cy="100" r="4" fill="black" />
<circle cx="748.1076385102153" cy="100" r="6" fill="none" stroke="red" stroke-width="2" />
<circle cx="748.1076385102153" cy="100" r="3" fill="red" />
<circle cx="760.1076385102153" cy="100" r="6" fill="none" stroke="black" stroke-width="2" />
<circle cx="760.1076385102153" cy="100" r="3" fill="black" />
<circle cx="772.1076385102153" cy="100" r="4" fill="black" />
<circle cx="784.1076385102153" cy="100" r="6" fill="none" stroke="black" stroke-width="2" />
<circle cx="784.1076385102153" cy="100" r="3" fill="black" />
<circle cx="796.1076385102153" cy="100" r="4" fill="red" />
<circle cx="808.1076385102153" cy="100" r="6" fill="none" stroke="black" stroke-width="2" />
<circle cx="808.1076385102153" cy="100" r="3" fill="black" />
<circle cx="820.1076385102153" cy="100" r="6" fill="none" stroke="black" stroke-width="2" />
<circle cx="820.1076385102153" cy="100" r="3" fill="black" />
<circle cx="832.1076385102153" cy="100" r="4" fill="red" />
<circle cx="844.1076385102153" cy="100" r="6" fill="none" stroke="black" stroke-width="2" />
<circle cx="844.1076385102153" cy="100" r="3" fill="black" />
<circle cx="856.1076385102153" cy="100" r="6" fill="none" stroke="blue" stroke-width="2" />
<circle cx="856.1076385102153" cy="100" r="3" fill="blue" />
<circle cx="868.1076385102153" cy="100" r="4" fill="red" />
<circle cx="880.1076385102153" cy="100" r="6" fill="none" stroke="black" stroke-width="2" />
<circle cx="880.1076385102153" cy="100" r="3" fill="black" />
<circle cx="892.1076385102153" cy="100" r="4" fill="black" />
<circle cx="904.1076385102153" cy="100" r="6" fill="none" stroke="black" stroke-width="2" />
<circle cx="904.1076385102153" cy="100" r="3" fill="black" />
<circle cx="916.1076385102153" cy="100" r="6" fill="none" stroke="blue" stroke-width="2" />
<circle cx="916.1076385102153" cy="100" r="3" fill="blue" />
<circle cx="928.1076385102153" cy="100" r="4" fill="red" />
<circle cx="940.1076385102153" cy="100" r="6" fill="none" stroke="black" stroke-width="2" />
<circle cx="940.1076385102153" cy="100" r="3" fill="black" />
<circle cx="952.1076385102153" cy="100" r="4" fill="black" />
<circle cx="964.1076385102153" cy="100" r="4" fill="black" />
<circle cx="976.1076385102153" cy="100" r="4" fill="blue" />
<circle cx="988.1076385102153" cy="100" r="4" fill="red" />
<circle cx="1000.1076385102153" cy="100" r="6" fill="none" stroke="blue" stroke-width="2" />
<circle cx="1000.1076385102153" cy="100" r="3" fill="blue" />
<circle cx="1012.1076385102153" cy="100" r="4" fill="black" />
<circle cx="1024.1076385102153" cy="100" r="6" fill="none" stroke="blue" stroke-width="2" />
<circle cx="1024.1076385102153" cy="100" r="3" fill="blue" />
<circle cx="1036.1076385102153" cy="100" r="4" fill="red" />
<circle cx="1048.1076385102153" cy="100" r="6" fill="none" stroke="red" stroke-width="2" />
<circle cx="1048.1076385102153" cy="100" r="3" fill="red" />
<circle cx="1060.1076385102153" cy="100" r="6" fill="none" stroke="black" stroke-width="2" />
<circle cx="1060.1076385102153" cy="100" r="3" fill="black" />
<circle cx="1072.1076385102153" cy="100" r="4" fill="black" />
<circle cx="1084.1076385102153" cy="100" r="6" fill="none" stroke="black" stroke-width="2" />
<circle cx="1084.1076385102153" cy="100" r="3" fill="black" />
<circle cx="1096.1076385102153" cy="100" r="6" fill="none" stroke="blue" stroke-width="2" />
<circle cx="1096.1076385102153" cy="100" r="3" fill="blue" />
<circle cx="1108.1076385102153" cy="100" r="4" fill="red" />
<circle cx="1120.1076385102153" cy="100" r="6" fill="none" stroke="blue" stroke-width="2" />
<circle cx="1120.1076385102153" cy="100" r="3" fill="blue" />
<circle cx="1132.1076385102153" cy="100" r="4" fill="black" />
<circle cx="1144.1076385102153" cy="100" r="6" fill="none" stroke="black" stroke-width="2" />
<circle cx="1144.1076385102153" cy="100" r="3" fill="black" />
<circle cx="1156.1076385102153" cy="100" r="6" fill="none" stroke="blue" stroke-width="2" />
<circle cx="1156.1076385102153" cy="100" r="3" fill="blue" />
<circle cx="1168.1076385102153" cy="100" r="4" fill="red" />
<circle cx="1180.1076385102153" cy="100" r="6" fill="none" stroke="black" stroke-width="2" />
<circle cx="1180.1076385102153" cy="100" r="3" fill="black" />
<circle cx="1192.1076385102153" cy="100" r="4" fill="red" />
<circle cx="1204.1076385102153" cy="100" r="6" fill="none" stroke="black" stroke-width="2" />
<circle cx="1204.1076385102153" cy="100" r="3" fill="black" />
<circle cx="1216.1076385102153" cy="100" r="4" fill="black" />
<circle cx="1228.1076385102153" cy="100" r="6" fill="none" stroke="black" stroke-width="2" />
<circle cx="1228.1076385102153" cy="100" r="3" fill="black" />
<circle cx="1240.1076385102153" cy="100" r="4" fill="black" />
<circle cx="1252.1076385102153" cy="100" r="6" fill="none" stroke="blue" stroke-width="2" />
<circle cx="1252.1076385102153" cy="100" r="3" fill="blue" />
<circle cx="1264.1076385102153" cy="100" r="4" fill="red" />
<circle cx="1276.1076385102153" cy="100" r="6" fill="none" stroke="red" stroke-width="2" />
<circle cx="1276.1076385102153" cy="100" r="3" fill="red" />
<circle cx="1288.1076385102153" cy="100" r="6" fill="none" stroke="blue" stroke-width="2" />
<circle cx="1288.1076385102153" cy="100" r="3" fill="blue" />
<circle cx="1300.1076385102153" cy="100" r="4" fill="black" />
<circle cx="1312.1076385102153" cy="100" r="6" fill="none" stroke="black" stroke-width="2" />
<circle cx="1312.1076385102153" cy="100" r="3" fill="black" />
<circle cx="1324.1076385102153" cy="100" r="6" fill="none" stroke="blue" stroke-width="2" />
<circle cx="1324.1076385102153" cy="100" r="3" fill="blue" />
<circle cx="1336.1076385102153" cy="100" r="4" fill="black" />
<circle cx="1348.1076385102153" cy="100" r="6" fill="none" stroke="blue" stroke-width="2" />
<circle cx="1348.1076385102153" cy="100" r="3" fill="blue" />
<circle cx="1360.1076385102153" cy="100" r="4" fill="green" />
<circle cx="1372.1076385102153" cy="100" r="4" fill="black" />
<circle cx="1384.1076385102153" cy="100" r="4" fill="black" />
<circle cx="1396.1076385102153" cy="100" r="4" fill="black" />
<circle cx="1408.1076385102153" cy="100" r="6" fill="none" stroke="black" stroke-width="2" />
<circle cx="1408.1076385102153" cy="100" r="3" fill="black" />
<circle cx="1420.1076385102153" cy="100" r="4" fill="red" />
<circle cx="1432.1076385102153" cy="100" r="4" fill="red" />
<circle cx="1444.1076385102153" cy="100" r="6" fill="none" stroke="red" stroke-width="2" />
<circle cx="1444.1076385102153" cy="100" r="3" fill="red" />
<circle cx="1456.1076385102153" cy="100" r="6" fill="none" stroke="black" stroke-width="2" />
<circle cx="1456.1076385102153" cy="100" r="3" fill="black" />
<circle cx="1468.1076385102153" cy="100" r="4" fill="red" />
<circle cx="1480.1076385102153" cy="100" r="4" fill="blue" />
<circle cx="1492.1076385102153" cy="100" r="6" fill="none" stroke="blue" stroke-width="2" />
<circle cx="1492.1076385102153" cy="100" r="3" fill="blue" />
<circle cx="1504.1076385102153" cy="100" r="6" fill="none" stroke="blue" stroke-width="2" />
<circle cx="1504.1076385102153" cy="100" r="3" fill="blue" />
<circle cx="1516.1076385102153" cy="100" r="4" fill="red" />
<circle cx="1528.1076385102153" cy="100" r="6" fill="none" stroke="blue" stroke-width="2" />
<circle cx="1528.1076385102153" cy="100" r="3" fill="blue" />
<circle cx="1540.1076385102153" cy="100" r="4" fill="red" />
<circle cx="1552.1076385102153" cy="100" r="6" fill="none" stroke="black" stroke-width="2" />
<circle cx="1552.1076385102153" cy="100" r="3" fill="black" />
<circle cx="1564.1076385102153" cy="100" r="4" fill="red" />
<circle cx="1576.1076385102153" cy="100" r="4" fill="black" />
<circle cx="1588.1076385102153" cy="100" r="4" fill="green" />
<circle cx="1600.1076385102153" cy="100" r="6" fill="none" stroke="blue" stroke-width="2" />
<circle cx="1600.1076385102153" cy="100" r="3" fill="blue" />
<circle cx="1612.1076385102153" cy="100" r="4" fill="red" />
<circle cx="1624.1076385102153" cy="100" r="6" fill="none" stroke="black" stroke-width="2" />
<circle cx="1624.1076385102153" cy="100" r="3" fill="black" />
<circle cx="1636.1076385102153" cy="100" r="4" fill="red" />
<circle cx="1648.1076385102153" cy="100" r="6" fill="none" stroke="blue" stroke-width="2" />
<circle cx="1648.1076385102153" cy="100" r="3" fill="blue" />
<circle cx="1660.1076385102153" cy="100" r="4" fill="red" />
<circle cx="1672.1076385102153" cy="100" r="4" fill="black" />
<circle cx="1684.1076385102153" cy="100" r="6" fill="none" stroke="blue" stroke-width="2" />
<circle cx="1684.1076385102153" cy="100" r="3" fill="blue" />
<circle cx="1696.1076385102153" cy="100" r="6" fill="none" stroke="black" stroke-width="2" />
<circle cx="1696.1076385102153" cy="100" r="3" fill="black" />
<circle cx="1708.1076385102153" cy="100" r="4" fill="black" />
<circle cx="1720.1076385102153" cy="100" r="4" fill="black" />
<circle cx="1732.1076385102153" cy="100" r="4" fill="blue" />
<circle cx="1744.1076385102153" cy="100" r="4" fill="red" />
<circle cx="1756.1076385102153" cy="100" r="6" fill="none" stroke="black" stroke-width="2" />
<circle cx="1756.1076385102153" cy="100" r="3" fill="black" />
<circle cx="1768.1076385102153" cy="100" r="4" fill="blue" />
<circle cx="1780.1076385102153" cy="100" r="6" fill="none" stroke="black" stroke-width="2" />
<circle cx="1780.1076385102153" cy="100" r="3" fill="black" />
<circle cx="1792.1076385102153" cy="100" r="4" fill="red" />
<circle cx="1804.1076385102153" cy="100" r="4" fill="black" />
<text x="50" y="125" fill="gray" style="font-size:12px;">2020-08-12T16:19:02+00:00</text>
<text x="900" y="125" fill="gray" style="font-size:12px;">2025-02-19T00:39:10+00:00</text>
</svg>