<svg xmlns="http://www.w3.org/2000/svg" width="1000" height="400" style="background-color: white; font-family: sans-serif;">
<line x1="50" y1="200" x2="950" y2="200" stroke="gray" stroke-width="1"/>
<path d="M 62.0 200 Q 56.0 180, 50.0 200" stroke="black" fill="none" marker-end="url(#arrowhead)"/>
<path d="M 74.0 200 Q 68.0 180, 62.0 200" stroke="black" fill="none" marker-end="url(#arrowhead)"/>
<path d="M 94.50901833058472 200 Q 84.25450916529236 180, 74.0 200" stroke="black" fill="none" marker-end="url(#arrowhead)"/>
<path d="M 94.50901833058472 200 Q 78.25450916529236 180, 62.0 200" stroke="black" fill="none" marker-end="url(#arrowhead)"/>
<path d="M 106.50901833058472 200 Q 100.50901833058472 180, 94.50901833058472 200" stroke="black" fill="none" marker-end="url(#arrowhead)"/>
<path d="M 118.50901833058472 200 Q 112.50901833058472 180, 106.50901833058472 200" stroke="black" fill="none" marker-end="url(#arrowhead)"/>
<path d="M 130.50901833058472 200 Q 118.50901833058472 180, 106.50901833058472 200" stroke="black" fill="none" marker-end="url(#arrowhead)"/>
<path d="M 142.50901833058472 200 Q 130.50901833058472 180, 118.50901833058472 200" stroke="black" fill="none" marker-end="url(#arrowhead)"/>
<path d="M 142.50901833058472 200 Q 136.50901833058472 180, 130.50901833058472 200" stroke="black" fill="none" marker-end="url(#arrowhead)"/>
<path d="M 154.50901833058472 200 Q 130.50901833058472 180, 106.50901833058472 200" stroke="black" fill="none" marker-end="url(#arrowhead)"/>
<path d="M 154.50901833058472 200 Q 148.50901833058472 180, 142.50901833058472 200" stroke="black" fill="none" marker-end="url(#arrowhead)"/>
<path d="M 166.50901833058472 200 Q 160.50901833058472 180, 154.50901833058472 200" stroke="black" fill="none" marker-end="url(#arrowhead)"/>
<path d="M 178.50901833058472 200 Q 166.50901833058472 180, 154.50901833058472 200" stroke="black" fill="none" marker-end="url(#arrowhead)"/>
<path d="M 178.50901833058472 200 Q 172.50901833058472 180, 166.50901833058472 200" stroke="black" fill="none" marker-end="url(#arrowhead)"/>
<path d="M 190.50901833058472 200 Q 184.50901833058472 180, 178.50901833058472 200" stroke="black" fill="none" marker-end="url(#arrowhead)"/>
<path d="M 214.50901833058472 200 Q 208.50901833058472 180, 202.50901833058472 200" stroke="black" fill="none" marker-end="url(#arrowhead)"/>
<path d="M 238.50901833058472 200 Q 232.50901833058472 180, 226.50901833058472 200" stroke="black" fill="none" marker-end="url(#arrowhead)"/>
<path d="M 250.50901833058472 200 Q 238.50901833058472 180, 226.50901833058472 200" stroke="black" fill="none" marker-end="url(#arrowhead)"/>
<path d="M 262.5090183305847 200 Q 250.5090183305847 180, 238.50901833058472 200" stroke="black" fill="none" marker-end="url(#arrowhead)"/>
<path d="M 274.5090183305847 200 Q 268.5090183305847 180, 262.5090183305847 200" stroke="black" fill="none" marker-end="url(#arrowhead)"/>
<path d="M 286.5090183305847 200 Q 280.5090183305847 180, 274.5090183305847 200" stroke="black" fill="none" marker-end="url(#arrowhead)"/>
<path d="M 298.5090183305847 200 Q 262.5090183305847 180, 226.50901833058472 200" stroke="black" fill="none" marker-end="url(#arrowhead)"/>
<path d="M 298.5090183305847 200 Q 274.5090183305847 180, 250.50901833058472 200" stroke="black" fill="none" marker-end="url(#arrowhead)"/>
<path d="M 310.5090183305847 200 Q 262.5090183305847 180, 214.50901833058472 200" stroke="black" fill="none" marker-end="url(#arrowhead)"/>
<path d="M 322.5090183305847 200 Q 274.5090183305847 180, 226.50901833058472 200" stroke="black" fill="none" marker-end="url(#arrowhead)"/>
<path d="M 322.5090183305847 200 Q 310.5090183305847 180, 298.5090183305847 200" stroke="black" fill="none" marker-end="url(#arrowhead)"/>
<path d="M 322.5090183305847 200 Q 286.5090183305847 180, 250.50901833058472 200" stroke="black" fill="none" marker-end="url(#arrowhead)"/>
<path d="M 502.62602550329797 200 Q 364.56752191694136 180, 226.50901833058472 200" stroke="black" fill="none" marker-end="url(#arrowhead)"/>
<path d="M 502.62602550329797 200 Q 400.56752191694136 180, 298.5090183305847 200" stroke="black" fill="none" marker-end="url(#arrowhead)"/>
<path d="M 502.62602550329797 200 Q 376.56752191694136 180, 250.50901833058472 200" stroke="black" fill="none" marker-end="url(#arrowhead)"/>
<path d="M 514.626025503298 200 Q 508.626025503298 180, 502.62602550329797 200" stroke="black" fill="none" marker-end="url(#arrowhead)"/>
<path d="M 544.1463635191926 200 Q 529.3861945112453 180, 514.626025503298 200" stroke="black" fill="none" marker-end="url(#arrowhead)"/>
<path d="M 556.1463635191926 200 Q 550.1463635191926 180, 544.1463635191926 200" stroke="black" fill="none" marker-end="url(#arrowhead)"/>
<path d="M 556.1463635191926 200 Q 535.3861945112453 180, 514.626025503298 200" stroke="black" fill="none" marker-end="url(#arrowhead)"/>
<path d="M 580.1463635191926 200 Q 568.1463635191926 180, 556.1463635191926 200" stroke="black" fill="none" marker-end="url(#arrowhead)"/>
<path d="M 604.1463635191926 200 Q 427.32769092488866 180, 250.50901833058472 200" stroke="black" fill="none" marker-end="url(#arrowhead)"/>
<path d="M 604.1463635191926 200 Q 592.1463635191926 180, 580.1463635191926 200" stroke="black" fill="none" marker-end="url(#arrowhead)"/>
<path d="M 616.1463635191926 200 Q 604.1463635191926 180, 592.1463635191926 200" stroke="black" fill="none" marker-end="url(#arrowhead)"/>
<path d="M 628.1463635191926 200 Q 622.1463635191926 180, 616.1463635191926 200" stroke="black" fill="none" marker-end="url(#arrowhead)"/>
<path d="M 640.1463635191926 200 Q 628.1463635191926 180, 616.1463635191926 200" stroke="black" fill="none" marker-end="url(#arrowhead)"/>
<path d="M 652.1463635191926 200 Q 646.1463635191926 180, 640.1463635191926 200" stroke="black" fill="none" marker-end="url(#arrowhead)"/>
<path d="M 664.1463635191926 200 Q 652.1463635191926 180, 640.1463635191926 200" stroke="black" fill="none" marker-end="url(#arrowhead)"/>
<path d="M 664.1463635191926 200 Q 658.1463635191926 180, 652.1463635191926 200" stroke="black" fill="none" marker-end="url(#arrowhead)"/>
<path d="M 676.1463635191926 200 Q 658.1463635191926 180, 640.1463635191926 200" stroke="black" fill="none" marker-end="url(#arrowhead)"/>
<path d="M 676.1463635191926 200 Q 664.1463635191926 180, 652.1463635191926 200" stroke="black" fill="none" marker-end="url(#arrowhead)"/>
<path d="M 676.1463635191926 200 Q 670.1463635191926 180, 664.1463635191926 200" stroke="black" fill="none" marker-end="url(#arrowhead)"/>
<path d="M 688.1463635191926 200 Q 676.1463635191926 180, 664.1463635191926 200" stroke="black" fill="none" marker-end="url(#arrowhead)"/>
<path d="M 712.1463635191926 200 Q 706.1463635191926 180, 700.1463635191926 200" stroke="black" fill="none" marker-end="url(#arrowhead)"/>
<path d="M 748.1463635191926 200 Q 718.1463635191926 180, 688.1463635191926 200" stroke="black" fill="none" marker-end="url(#arrowhead)"/>
<path d="M 760.1463635191926 200 Q 700.1463635191926 180, 640.1463635191926 200" stroke="black" fill="none" marker-end="url(#arrowhead)"/>
<path d="M 760.1463635191926 200 Q 748.1463635191926 180, 736.1463635191926 200" stroke="black" fill="none" marker-end="url(#arrowhead)"/>
<path d="M 772.1463635191926 200 Q 766.1463635191926 180, 760.1463635191926 200" stroke="black" fill="none" marker-end="url(#arrowhead)"/>
<path d="M 784.1463635191926 200 Q 772.1463635191926 180, 760.1463635191926 200" stroke="black" fill="none" marker-end="url(#arrowhead)"/>
<path d="M 796.1463635191926 200 Q 784.1463635191926 180, 772.1463635191926 200" stroke="black" fill="none" marker-end="url(#arrowhead)"/>
<path d="M 796.1463635191926 200 Q 790.1463635191926 180, 784.1463635191926 200" stroke="black" fill="none" marker-end="url(#arrowhead)"/>
<path d="M 808.1463635191926 200 Q 802.1463635191926 180, 796.1463635191926 200" stroke="black" fill="none" marker-end="url(#arrowhead)"/>
<path d="M 820.1463635191926 200 Q 802.1463635191926 180, 784.1463635191926 200" stroke="black" fill="none" marker-end="url(#arrowhead)"/>
<path d="M 820.1463635191926 200 Q 796.1463635191926 180, 772.1463635191926 200" stroke="black" fill="none" marker-end="url(#arrowhead)"/>
<path d="M 820.1463635191926 200 Q 814.1463635191926 180, 808.1463635191926 200" stroke="black" fill="none" marker-end="url(#arrowhead)"/>
<path d="M 820.1463635191926 200 Q 808.1463635191926 180, 796.1463635191926 200" stroke="black" fill="none" marker-end="url(#arrowhead)"/>
<path d="M 820.1463635191926 200 Q 441.0731817595963 180, 62.0 200" stroke="black" fill="none" marker-end="url(#arrowhead)"/>
<path d="M 832.1463635191926 200 Q 826.1463635191926 180, 820.1463635191926 200" stroke="black" fill="none" marker-end="url(#arrowhead)"/>
<path d="M 832.1463635191926 200 Q 802.1463635191926 180, 772.1463635191926 200" stroke="black" fill="none" marker-end="url(#arrowhead)"/>
<path d="M 832.1463635191926 200 Q 820.1463635191926 180, 808.1463635191926 200" stroke="black" fill="none" marker-end="url(#arrowhead)"/>
<path d="M 832.1463635191926 200 Q 814.1463635191926 180, 796.1463635191926 200" stroke="black" fill="none" marker-end="url(#arrowhead)"/>
<path d="M 832.1463635191926 200 Q 447.0731817595963 180, 62.0 200" stroke="black" fill="none" marker-end="url(#arrowhead)"/>
<path d="M 844.1463635191926 200 Q 742.1463635191926 180, 640.1463635191926 200" stroke="black" fill="none" marker-end="url(#arrowhead)"/>
<path d="M 844.1463635191926 200 Q 748.1463635191926 180, 652.1463635191926 200" stroke="black" fill="none" marker-end="url(#arrowhead)"/>
<path d="M 844.1463635191926 200 Q 754.1463635191926 180, 664.1463635191926 200" stroke="black" fill="none" marker-end="url(#arrowhead)"/>
<path d="M 856.1463635191926 200 Q 844.1463635191926 180, 832.1463635191926 200" stroke="black" fill="none" marker-end="url(#arrowhead)"/>
<path d="M 868.1463635191926 200 Q 850.1463635191926 180, 832.1463635191926 200" stroke="black" fill="none" marker-end="url(#arrowhead)"/>
<path d="M 868.1463635191926 200 Q 862.1463635191926 180, 856.1463635191926 200" stroke="black" fill="none" marker-end="url(#arrowhead)"/>
<path d="M 880.1463635191926 200 Q 850.1463635191926 180, 820.1463635191926 200" stroke="black" fill="none" marker-end="url(#arrowhead)"/>
<path d="M 916.1463635191926 200 Q 886.1463635191926 180, 856.1463635191926 200" stroke="black" fill="none" marker-end="url(#arrowhead)"/>
<path d="M 952.1463635191926 200 Q 922.1463635191926 180, 892.1463635191926 200" stroke="black" fill="none" marker-end="url(#arrowhead)"/>
<path d="M 952.1463635191926 200 Q 928.1463635191926 180, 904.1463635191926 200" stroke="black" fill="none" marker-end="url(#arrowhead)"/>
<path d="M 952.1463635191926 200 Q 940.1463635191926 180, 928.1463635191926 200" stroke="black" fill="none" marker-end="url(#arrowhead)"/>
<path d="M 976.1463635191926 200 Q 964.1463635191926 180, 952.1463635191926 200" stroke="black" fill="none" marker-end="url(#arrowhead)"/>
<path d="M 988.1463635191926 200 Q 982.1463635191926 180, 976.1463635191926 200" stroke="black" fill="none" marker-end="url(#arrowhead)"/>
<path d="M 1012.1463635191926 200 Q 994.1463635191926 180, 976.1463635191926 200" stroke="black" fill="none" marker-end="url(#arrowhead)"/>
<path d="M 1024.1463635191926 200 Q 982.1463635191926 180, 940.1463635191926 200" stroke="black" fill="none" marker-end="url(#arrowhead)"/>
<path d="M 1024.1463635191926 200 Q 862.1463635191926 180, 700.1463635191926 200" stroke="black" fill="none" marker-end="url(#arrowhead)"/>
<path d="M 1024.1463635191926 200 Q 976.1463635191926 180, 928.1463635191926 200" stroke="black" fill="none" marker-end="url(#arrowhead)"/>
<path d="M 1036.1463635191926 200 Q 1000.1463635191926 180, 964.1463635191926 200" stroke="black" fill="none" marker-end="url(#arrowhead)"/>
<path d="M 1048.1463635191926 200 Q 1036.1463635191926 180, 1024.1463635191926 200" stroke="black" fill="none" marker-end="url(#arrowhead)"/>
<path d="M 1072.1463635191926 200 Q 1066.1463635191926 180, 1060.1463635191926 200" stroke="black" fill="none" marker-end="url(#arrowhead)"/>
<path d="M 1084.1463635191926 200 Q 1042.1463635191926 180, 1000.1463635191926 200" stroke="black" fill="none" marker-end="url(#arrowhead)"/>
<path d="M 1096.1463635191926 200 Q 1084.1463635191926 180, 1072.1463635191926 200" stroke="black" fill="none" marker-end="url(#arrowhead)"/>
<path d="M 1108.1463635191926 200 Q 1096.1463635191926 180, 1084.1463635191926 200" stroke="black" fill="none" marker-end="url(#arrowhead)"/>
<path d="M 1120.1463635191926 200 Q 1108.1463635191926 180, 1096.1463635191926 200" stroke="black" fill="none" marker-end="url(#arrowhead)"/>
<path d="M 1132.1463635191926 200 Q 1108.1463635191926 180, 1084.1463635191926 200" stroke="black" fill="none" marker-end="url(#arrowhead)"/>
<path d="M 1156.1463635191926 200 Q 1138.1463635191926 180, 1120.1463635191926 200" stroke="black" fill="none" marker-end="url(#arrowhead)"/>
<path d="M 1180.1463635191926 200 Q 1174.1463635191926 180, 1168.1463635191926 200" stroke="black" fill="none" marker-end="url(#arrowhead)"/>
<path d="M 1192.1463635191926 200 Q 1168.1463635191926 180, 1144.1463635191926 200" stroke="black" fill="none" marker-end="url(#arrowhead)"/>
<path d="M 1192.1463635191926 200 Q 1120.1463635191926 180, 1048.1463635191926 200" stroke="black" fill="none" marker-end="url(#arrowhead)"/>
<path d="M 1192.1463635191926 200 Q 1162.1463635191926 180, 1132.1463635191926 200" stroke="black" fill="none" marker-end="url(#arrowhead)"/>
<path d="M 1204.1463635191926 200 Q 1192.1463635191926 180, 1180.1463635191926 200" stroke="black" fill="none" marker-end="url(#arrowhead)"/>
<path d="M 1204.1463635191926 200 Q 633.0731817595963 180, 62.0 200" stroke="black" fill="none" marker-end="url(#arrowhead)"/>
<path d="M 1216.1463635191926 200 Q 1210.1463635191926 180, 1204.1463635191926 200" stroke="black" fill="none" marker-end="url(#arrowhead)"/>
<path d="M 1228.1463635191926 200 Q 1210.1463635191926 180, 1192.1463635191926 200" stroke="black" fill="none" marker-end="url(#arrowhead)"/>
<path d="M 1240.1463635191926 200 Q 1228.1463635191926 180, 1216.1463635191926 200" stroke="black" fill="none" marker-end="url(#arrowhead)"/>
<path d="M 1252.1463635191926 200 Q 1222.1463635191926 180, 1192.1463635191926 200" stroke="black" fill="none" marker-end="url(#arrowhead)"/>
<path d="M 1276.1463635191926 200 Q 1270.1463635191926 180, 1264.1463635191926 200" stroke="black" fill="none" marker-end="url(#arrowhead)"/>
<path d="M 1288.1463635191926 200 Q 1096.1463635191926 180, 904.1463635191926 200" stroke="black" fill="none" marker-end="url(#arrowhead)"/>
<path d="M 1288.1463635191926 200 Q 1264.1463635191926 180, 1240.1463635191926 200" stroke="black" fill="none" marker-end="url(#arrowhead)"/>
<path d="M 1288.1463635191926 200 Q 1258.1463635191926 180, 1228.1463635191926 200" stroke="black" fill="none" marker-end="url(#arrowhead)"/>
<path d="M 1288.1463635191926 200 Q 1276.1463635191926 180, 1264.1463635191926 200" stroke="black" fill="none" marker-end="url(#arrowhead)"/>
<path d="M 1288.1463635191926 200 Q 1216.1463635191926 180, 1144.1463635191926 200" stroke="black" fill="none" marker-end="url(#arrowhead)"/>
<path d="M 1288.1463635191926 200 Q 1234.1463635191926 180, 1180.1463635191926 200" stroke="black" fill="none" marker-end="url(#arrowhead)"/>
<path d="M 1312.1463635191926 200 Q 1300.1463635191926 180, 1288.1463635191926 200" stroke="black" fill="none" marker-end="url(#arrowhead)"/>
<path d="M 1324.1463635191926 200 Q 1306.1463635191926 180, 1288.1463635191926 200" stroke="black" fill="none" marker-end="url(#arrowhead)"/>
<path d="M 1324.1463635191926 200 Q 1318.1463635191926 180, 1312.1463635191926 200" stroke="black" fill="none" marker-end="url(#arrowhead)"/>
<path d="M 1324.1463635191926 200 Q 1228.1463635191926 180, 1132.1463635191926 200" stroke="black" fill="none" marker-end="url(#arrowhead)"/>
<path d="M 1336.1463635191926 200 Q 1330.1463635191926 180, 1324.1463635191926 200" stroke="black" fill="none" marker-end="url(#arrowhead)"/>
<path d="M 1360.1463635191926 200 Q 1354.1463635191926 180, 1348.1463635191926 200" stroke="black" fill="none" marker-end="url(#arrowhead)"/>
<path d="M 1396.1463635191926 200 Q 1372.1463635191926 180, 1348.1463635191926 200" stroke="black" fill="none" marker-end="url(#arrowhead)"/>
<path d="M 1396.1463635191926 200 Q 1378.1463635191926 180, 1360.1463635191926 200" stroke="black" fill="none" marker-end="url(#arrowhead)"/>
<path d="M 1396.1463635191926 200 Q 1180.1463635191926 180, 964.1463635191926 200" stroke="black" fill="none" marker-end="url(#arrowhead)"/>
<path d="M 1396.1463635191926 200 Q 1384.1463635191926 180, 1372.1463635191926 200" stroke="black" fill="none" marker-end="url(#arrowhead)"/>
<path d="M 1408.1463635191926 200 Q 1396.1463635191926 180, 1384.1463635191926 200" stroke="black" fill="none" marker-end="url(#arrowhead)"/>
<path d="M 1432.1463635191926 200 Q 1426.1463635191926 180, 1420.1463635191926 200" stroke="black" fill="none" marker-end="url(#arrowhead)"/>
<path d="M 1444.1463635191926 200 Q 1432.1463635191926 180, 1420.1463635191926 200" stroke="black" fill="none" marker-end="url(#arrowhead)"/>
<path d="M 1444.1463635191926 200 Q 1438.1463635191926 180, 1432.1463635191926 200" stroke="black" fill="none" marker-end="url(#arrowhead)"/>
<path d="M 1468.1463635191926 200 Q 1456.1463635191926 180, 1444.1463635191926 200" stroke="black" fill="none" marker-end="url(#arrowhead)"/>
<path d="M 1492.1463635191926 200 Q 1486.1463635191926 180, 1480.1463635191926 200" stroke="black" fill="none" marker-end="url(#arrowhead)"/>
<path d="M 1492.1463635191926 200 Q 1468.1463635191926 180, 1444.1463635191926 200" stroke="black" fill="none" marker-end="url(#arrowhead)"/>
<path d="M 1492.1463635191926 200 Q 771.0731817595963 180, 50.0 200" stroke="black" fill="none" marker-end="url(#arrowhead)"/>
<path d="M 1492.1463635191926 200 Q 1480.1463635191926 180, 1468.1463635191926 200" stroke="black" fill="none" marker-end="url(#arrowhead)"/>
<path d="M 1492.1463635191926 200 Q 1474.1463635191926 180, 1456.1463635191926 200" stroke="black" fill="none" marker-end="url(#arrowhead)"/>
<path d="M 1492.1463635191926 200 Q 1432.1463635191926 180, 1372.1463635191926 200" stroke="black" fill="none" marker-end="url(#arrowhead)"/>
<path d="M 1528.1463635191926 200 Q 1234.1463635191926 180, 940.1463635191926 200" stroke="black" fill="none" marker-end="url(#arrowhead)"/>
<path d="M 1528.1463635191926 200 Q 1486.1463635191926 180, 1444.1463635191926 200" stroke="black" fill="none" marker-end="url(#arrowhead)"/>
<path d="M 1528.1463635191926 200 Q 1522.1463635191926 180, 1516.1463635191926 200" stroke="black" fill="none" marker-end="url(#arrowhead)"/>
<path d="M 1528.1463635191926 200 Q 1114.1463635191926 180, 700.1463635191926 200" stroke="black" fill="none" marker-end="url(#arrowhead)"/>
<path d="M 1528.1463635191926 200 Q 1228.1463635191926 180, 928.1463635191926 200" stroke="black" fill="none" marker-end="url(#arrowhead)"/>
<path d="M 1528.1463635191926 200 Q 1516.1463635191926 180, 1504.1463635191926 200" stroke="black" fill="none" marker-end="url(#arrowhead)"/>
<path d="M 1528.1463635191926 200 Q 1492.1463635191926 180, 1456.1463635191926 200" stroke="black" fill="none" marker-end="url(#arrowhead)"/>
<path d="M 1540.1463635191926 200 Q 1534.1463635191926 180, 1528.1463635191926 200" stroke="black" fill="none" marker-end="url(#arrowhead)"/>
<path d="M 1552.1463635191926 200 Q 1522.1463635191926 180, 1492.1463635191926 200" stroke="black" fill="none" marker-end="url(#arrowhead)"/>
<path d="M 1552.1463635191926 200 Q 1498.1463635191926 180, 1444.1463635191926 200" stroke="black" fill="none" marker-end="url(#arrowhead)"/>
<path d="M 1564.1463635191926 200 Q 1522.1463635191926 180, 1480.1463635191926 200" stroke="black" fill="none" marker-end="url(#arrowhead)"/>
<path d="M 1564.1463635191926 200 Q 1558.1463635191926 180, 1552.1463635191926 200" stroke="black" fill="none" marker-end="url(#arrowhead)"/>
<path d="M 1564.1463635191926 200 Q 1552.1463635191926 180, 1540.1463635191926 200" stroke="black" fill="none" marker-end="url(#arrowhead)"/>
<path d="M 1564.1463635191926 200 Q 1456.1463635191926 180, 1348.1463635191926 200" stroke="black" fill="none" marker-end="url(#arrowhead)"/>
<path d="M 1564.1463635191926 200 Q 1534.1463635191926 180, 1504.1463635191926 200" stroke="black" fill="none" marker-end="url(#arrowhead)"/>
<path d="M 1564.1463635191926 200 Q 1510.1463635191926 180, 1456.1463635191926 200" stroke="black" fill="none" marker-end="url(#arrowhead)"/>
<path d="M 1564.1463635191926 200 Q 1528.1463635191926 180, 1492.1463635191926 200" stroke="black" fill="none" marker-end="url(#arrowhead)"/>
<path d="M 1588.1463635191926 200 Q 1582.1463635191926 180, 1576.1463635191926 200" stroke="black" fill="none" marker-end="url(#arrowhead)"/>
<path d="M 1588.1463635191926 200 Q 1528.1463635191926 180, 1468.1463635191926 200" stroke="black" fill="none" marker-end="url(#arrowhead)"/>
<path d="M 1612.1463635191926 200 Q 1594.1463635191926 180, 1576.1463635191926 200" stroke="black" fill="none" marker-end="url(#arrowhead)"/>
<path d="M 1612.1463635191926 200 Q 1600.1463635191926 180, 1588.1463635191926 200" stroke="black" fill="none" marker-end="url(#arrowhead)"/>
<path d="M 1612.1463635191926 200 Q 1540.1463635191926 180, 1468.1463635191926 200" stroke="black" fill="none" marker-end="url(#arrowhead)"/>
<path d="M 1624.1463635191926 200 Q 1612.1463635191926 180, 1600.1463635191926 200" stroke="black" fill="none" marker-end="url(#arrowhead)"/>
<path d="M 1624.1463635191926 200 Q 1618.1463635191926 180, 1612.1463635191926 200" stroke="black" fill="none" marker-end="url(#arrowhead)"/>
<path d="M 1636.1463635191926 200 Q 1630.1463635191926 180, 1624.1463635191926 200" stroke="black" fill="none" marker-end="url(#arrowhead)"/>
<path d="M 1648.1463635191926 200 Q 1630.1463635191926 180, 1612.1463635191926 200" stroke="black" fill="none" marker-end="url(#arrowhead)"/>
<path d="M 1660.1463635191926 200 Q 1654.1463635191926 180, 1648.1463635191926 200" stroke="black" fill="none" marker-end="url(#arrowhead)"/>
<path d="M 1672.1463635191926 200 Q 1654.1463635191926 180, 1636.1463635191926 200" stroke="black" fill="none" marker-end="url(#arrowhead)"/>
<path d="M 1672.1463635191926 200 Q 1660.1463635191926 180, 1648.1463635191926 200" stroke="black" fill="none" marker-end="url(#arrowhead)"/>
<path d="M 1672.1463635191926 200 Q 1666.1463635191926 180, 1660.1463635191926 200" stroke="black" fill="none" marker-end="url(#arrowhead)"/>
<path d="M 1696.1463635191926 200 Q 1684.1463635191926 180, 1672.1463635191926 200" stroke="black" fill="none" marker-end="url(#arrowhead)"/>
<path d="M 1720.1463635191926 200 Q 1714.1463635191926 180, 1708.1463635191926 200" stroke="black" fill="none" marker-end="url(#arrowhead)"/>
<path d="M 1732.1463635191926 200 Q 1720.1463635191926 180, 1708.1463635191926 200" stroke="black" fill="none" marker-end="url(#arrowhead)"/>
<path d="M 1756.1463635191926 200 Q 1750.1463635191926 180, 1744.1463635191926 200" stroke="black" fill="none" marker-end="url(#arrowhead)"/>
<path d="M 1768.1463635191926 200 Q 1762.1463635191926 180, 1756.1463635191926 200" stroke="black" fill="none" marker-end="url(#arrowhead)"/>
<path d="M 1780.1463635191926 200 Q 1774.1463635191926 180, 1768.1463635191926 200" stroke="black" fill="none" marker-end="url(#arrowhead)"/>
<path d="M 1792.1463635191926 200 Q 1780.1463635191926 180, 1768.1463635191926 200" stroke="black" fill="none" marker-end="url(#arrowhead)"/>
<path d="M 1804.1463635191926 200 Q 1780.1463635191926 180, 1756.1463635191926 200" stroke="black" fill="none" marker-end="url(#arrowhead)"/>
<path d="M 1804.1463635191926 200 Q 1786.1463635191926 180, 1768.1463635191926 200" stroke="black" fill="none" marker-end="url(#arrowhead)"/>
<path d="M 1816.1463635191926 200 Q 1810.1463635191926 180, 1804.1463635191926 200" stroke="black" fill="none" marker-end="url(#arrowhead)"/>
<path d="M 1840.1463635191926 200 Q 1822.1463635191926 180, 1804.1463635191926 200" stroke="black" fill="none" marker-end="url(#arrowhead)"/>
<path d="M 1840.1463635191926 200 Q 1828.1463635191926 180, 1816.1463635191926 200" stroke="black" fill="none" marker-end="url(#arrowhead)"/>
<path d="M 1852.1463635191926 200 Q 1816.1463635191926 180, 1780.1463635191926 200" stroke="black" fill="none" marker-end="url(#arrowhead)"/>
<path d="M 1852.1463635191926 200 Q 1822.1463635191926 180, 1792.1463635191926 200" stroke="black" fill="none" marker-end="url(#arrowhead)"/>
<path d="M 1852.1463635191926 200 Q 957.0731817595963 180, 62.0 200" stroke="black" fill="none" marker-end="url(#arrowhead)"/>
<path d="M 1864.1463635191926 200 Q 1858.1463635191926 180, 1852.1463635191926 200" stroke="black" fill="none" marker-end="url(#arrowhead)"/>
<path d="M 1864.1463635191926 200 Q 1828.1463635191926 180, 1792.1463635191926 200" stroke="black" fill="none" marker-end="url(#arrowhead)"/>
<path d="M 1876.1463635191926 200 Q 1852.1463635191926 180, 1828.1463635191926 200" stroke="black" fill="none" marker-end="url(#arrowhead)"/>
<path d="M 1888.1463635191926 200 Q 1882.1463635191926 180, 1876.1463635191926 200" stroke="black" fill="none" marker-end="url(#arrowhead)"/>
<path d="M 1900.1463635191926 200 Q 1894.1463635191926 180, 1888.1463635191926 200" stroke="black" fill="none" marker-end="url(#arrowhead)"/>
<path d="M 1900.1463635191926 200 Q 1888.1463635191926 180, 1876.1463635191926 200" stroke="black" fill="none" marker-end="url(#arrowhead)"/>
<path d="M 1912.1463635191926 200 Q 1852.1463635191926 180, 1792.1463635191926 200" stroke="black" fill="none" marker-end="url(#arrowhead)"/>
<path d="M 1924.1463635191926 200 Q 1906.1463635191926 180, 1888.1463635191926 200" stroke="black" fill="none" marker-end="url(#arrowhead)"/>
<path d="M 1924.1463635191926 200 Q 1912.1463635191926 180, 1900.1463635191926 200" stroke="black" fill="none" marker-end="url(#arrowhead)"/>
<path d="M 1924.1463635191926 200 Q 1900.1463635191926 180, 1876.1463635191926 200" stroke="black" fill="none" marker-end="url(#arrowhead)"/>
<path d="M 1936.1463635191926 200 Q 1822.1463635191926 180, 1708.1463635191926 200" stroke="black" fill="none" marker-end="url(#arrowhead)"/>
<path d="M 1960.1463635191926 200 Q 1954.1463635191926 180, 1948.1463635191926 200" stroke="black" fill="none" marker-end="url(#arrowhead)"/>
<path d="M 1972.1463635191926 200 Q 1966.1463635191926 180, 1960.1463635191926 200" stroke="black" fill="none" marker-end="url(#arrowhead)"/>
<path d="M 1984.1463635191926 200 Q 1972.1463635191926 180, 1960.1463635191926 200" stroke="black" fill="none" marker-end="url(#arrowhead)"/>
<path d="M 1984.1463635191926 200 Q 1978.1463635191926 180, 1972.1463635191926 200" stroke="black" fill="none" marker-end="url(#arrowhead)"/>
<path d="M 1996.1463635191926 200 Q 1990.1463635191926 180, 1984.1463635191926 200" stroke="black" fill="none" marker-end="url(#arrowhead)"/>
<path d="M 2020.1463635191926 200 Q 2014.1463635191926 180, 2008.1463635191926 200" stroke="black" fill="none" marker-end="url(#arrowhead)"/>
<path d="M 2032.1463635191926 200 Q 2026.1463635191926 180, 2020.1463635191926 200" stroke="black" fill="none" marker-end="url(#arrowhead)"/>
<path d="M 2044.1463635191926 200 Q 2032.1463635191926 180, 2020.1463635191926 200" stroke="black" fill="none" marker-end="url(#arrowhead)"/>
<path d="M 2056.1463635191926 200 Q 2038.1463635191926 180, 2020.1463635191926 200" stroke="black" fill="none" marker-end="url(#arrowhead)"/>
<path d="M 2068.1463635191926 200 Q 1948.1463635191926 180, 1828.1463635191926 200" stroke="black" fill="none" marker-end="url(#arrowhead)"/>
<path d="M 2068.1463635191926 200 Q 1984.1463635191926 180, 1900.1463635191926 200" stroke="black" fill="none" marker-end="url(#arrowhead)"/>
<path d="M 2080.1463635191926 200 Q 2068.1463635191926 180, 2056.1463635191926 200" stroke="black" fill="none" marker-end="url(#arrowhead)"/>
<path d="M 2092.1463635191926 200 Q 2080.1463635191926 180, 2068.1463635191926 200" stroke="black" fill="none" marker-end="url(#arrowhead)"/>
<path d="M 2104.1463635191926 200 Q 2080.1463635191926 180, 2056.1463635191926 200" stroke="black" fill="none" marker-end="url(#arrowhead)"/>
<path d="M 2104.1463635191926 200 Q 2092.1463635191926 180, 2080.1463635191926 200" stroke="black" fill="none" marker-end="url(#arrowhead)"/>
<path d="M 2116.1463635191926 200 Q 2110.1463635191926 180, 2104.1463635191926 200" stroke="black" fill="none" marker-end="url(#arrowhead)"/>
<path d="M 2128.1463635191926 200 Q 2116.1463635191926 180, 2104.1463635191926 200" stroke="black" fill="none" marker-end="url(#arrowhead)"/>
<path d="M 2128.1463635191926 200 Q 2122.1463635191926 180, 2116.1463635191926 200" stroke="black" fill="none" marker-end="url(#arrowhead)"/>
<path d="M 2128.1463635191926 200 Q 1095.0731817595963 180, 62.0 200" stroke="black" fill="none" marker-end="url(#arrowhead)"/>
<path d="M 2140.1463635191926 200 Q 2098.1463635191926 180, 2056.1463635191926 200" stroke="black" fill="none" marker-end="url(#arrowhead)"/>
<path d="M 2152.1463635191926 200 Q 2104.1463635191926 180, 2056.1463635191926 200" stroke="black" fill="none" marker-end="url(#arrowhead)"/>
<path d="M 2152.1463635191926 200 Q 2146.1463635191926 180, 2140.1463635191926 200" stroke="black" fill="none" marker-end="url(#arrowhead)"/>
<path d="M 2164.1463635191926 200 Q 2158.1463635191926 180, 2152.1463635191926 200" stroke="black" fill="none" marker-end="url(#arrowhead)"/>
<path d="M 2176.1463635191926 200 Q 2170.1463635191926 180, 2164.1463635191926 200" stroke="black" fill="none" marker-end="url(#arrowhead)"/>
<path d="M 2188.1463635191926 200 Q 2182.1463635191926 180, 2176.1463635191926 200" stroke="black" fill="none" marker-end="url(#arrowhead)"/>
<path d="M 2200.1463635191926 200 Q 2188.1463635191926 180, 2176.1463635191926 200" stroke="black" fill="none" marker-end="url(#arrowhead)"/>
<path d="M 2212.1463635191926 200 Q 2206.1463635191926 180, 2200.1463635191926 200" stroke="black" fill="none" marker-end="url(#arrowhead)"/>
<path d="M 2224.1463635191926 200 Q 2218.1463635191926 180, 2212.1463635191926 200" stroke="black" fill="none" marker-end="url(#arrowhead)"/>
<path d="M 2236.1463635191926 200 Q 2230.1463635191926 180, 2224.1463635191926 200" stroke="black" fill="none" marker-end="url(#arrowhead)"/>
<path d="M 2236.1463635191926 200 Q 1149.0731817595963 180, 62.0 200" stroke="black" fill="none" marker-end="url(#arrowhead)"/>
<path d="M 2248.1463635191926 200 Q 2014.1463635191926 180, 1780.1463635191926 200" stroke="black" fill="none" marker-end="url(#arrowhead)"/>
<path d="M 2248.1463635191926 200 Q 1762.1463635191926 180, 1276.1463635191926 200" stroke="black" fill="none" marker-end="url(#arrowhead)"/>
<path d="M 2248.1463635191926 200 Q 1972.1463635191926 180, 1696.1463635191926 200" stroke="black" fill="none" marker-end="url(#arrowhead)"/>
<path d="M 2248.1463635191926 200 Q 1876.1463635191926 180, 1504.1463635191926 200" stroke="black" fill="none" marker-end="url(#arrowhead)"/>
<path d="M 2248.1463635191926 200 Q 2242.1463635191926 180, 2236.1463635191926 200" stroke="black" fill="none" marker-end="url(#arrowhead)"/>
<path d="M 2248.1463635191926 200 Q 1984.1463635191926 180, 1720.1463635191926 200" stroke="black" fill="none" marker-end="url(#arrowhead)"/>
<path d="M 2248.1463635191926 200 Q 2236.1463635191926 180, 2224.1463635191926 200" stroke="black" fill="none" marker-end="url(#arrowhead)"/>
<path d="M 2248.1463635191926 200 Q 1714.1463635191926 180, 1180.1463635191926 200" stroke="black" fill="none" marker-end="url(#arrowhead)"/>
<path d="M 2260.1463635191926 200 Q 2254.1463635191926 180, 2248.1463635191926 200" stroke="black" fill="none" marker-end="url(#arrowhead)"/>
<path d="M 2284.1463635191926 200 Q 2278.1463635191926 180, 2272.1463635191926 200" stroke="black" fill="none" marker-end="url(#arrowhead)"/>
<path d="M 2296.1463635191926 200 Q 1834.1463635191926 180, 1372.1463635191926 200" stroke="black" fill="none" marker-end="url(#arrowhead)"/>
<path d="M 2308.1463635191926 200 Q 2290.1463635191926 180, 2272.1463635191926 200" stroke="black" fill="none" marker-end="url(#arrowhead)"/>
<path d="M 2320.1463635191926 200 Q 2314.1463635191926 180, 2308.1463635191926 200" stroke="black" fill="none" marker-end="url(#arrowhead)"/>
<path d="M 2332.1463635191926 200 Q 2296.1463635191926 180, 2260.1463635191926 200" stroke="black" fill="none" marker-end="url(#arrowhead)"/>
<path d="M 2344.1463635191926 200 Q 2338.1463635191926 180, 2332.1463635191926 200" stroke="black" fill="none" marker-end="url(#arrowhead)"/>
<path d="M 2356.1463635191926 200 Q 2344.1463635191926 180, 2332.1463635191926 200" stroke="black" fill="none" marker-end="url(#arrowhead)"/>
<path d="M 2356.1463635191926 200 Q 2350.1463635191926 180, 2344.1463635191926 200" stroke="black" fill="none" marker-end="url(#arrowhead)"/>
<path d="M 2380.1463635191926 200 Q 2374.1463635191926 180, 2368.1463635191926 200" stroke="black" fill="none" marker-end="url(#arrowhead)"/>
<path d="M 2416.1463635191926 200 Q 2332.1463635191926 180, 2248.1463635191926 200" stroke="black" fill="none" marker-end="url(#arrowhead)"/>
<path d="M 2416.1463635191926 200 Q 2338.1463635191926 180, 2260.1463635191926 200" stroke="black" fill="none" marker-end="url(#arrowhead)"/>
<path d="M 2416.1463635191926 200 Q 1239.0731817595963 180, 62.0 200" stroke="black" fill="none" marker-end="url(#arrowhead)"/>
<path d="M 2428.1463635191926 200 Q 2410.1463635191926 180, 2392.1463635191926 200" stroke="black" fill="none" marker-end="url(#arrowhead)"/>
<path d="M 2440.1463635191926 200 Q 2410.1463635191926 180, 2380.1463635191926 200" stroke="black" fill="none" marker-end="url(#arrowhead)"/>
<path d="M 2452.1463635191926 200 Q 2422.1463635191926 180, 2392.1463635191926 200" stroke="black" fill="none" marker-end="url(#arrowhead)"/>
<path d="M 2464.1463635191926 200 Q 2458.1463635191926 180, 2452.1463635191926 200" stroke="black" fill="none" marker-end="url(#arrowhead)"/>
<path d="M 2476.1463635191926 200 Q 2458.1463635191926 180, 2440.1463635191926 200" stroke="black" fill="none" marker-end="url(#arrowhead)"/>
<path d="M 2476.1463635191926 200 Q 2428.1463635191926 180, 2380.1463635191926 200" stroke="black" fill="none" marker-end="url(#arrowhead)"/>
<path d="M 2476.1463635191926 200 Q 2422.1463635191926 180, 2368.1463635191926 200" stroke="black" fill="none" marker-end="url(#arrowhead)"/>
<path d="M 2488.1463635191926 200 Q 2458.1463635191926 180, 2428.1463635191926 200" stroke="black" fill="none" marker-end="url(#arrowhead)"/>
<path d="M 2488.1463635191926 200 Q 2440.1463635191926 180, 2392.1463635191926 200" stroke="black" fill="none" marker-end="url(#arrowhead)"/>
<path d="M 2512.1463635191926 200 Q 2470.1463635191926 180, 2428.1463635191926 200" stroke="black" fill="none" marker-end="url(#arrowhead)"/>
<path d="M 2512.1463635191926 200 Q 2452.1463635191926 180, 2392.1463635191926 200" stroke="black" fill="none" marker-end="url(#arrowhead)"/>
<path d="M 2512.1463635191926 200 Q 2458.1463635191926 180, 2404.1463635191926 200" stroke="black" fill="none" marker-end="url(#arrowhead)"/>
<path d="M 2524.1463635191926 200 Q 2458.1463635191926 180, 2392.1463635191926 200" stroke="black" fill="none" marker-end="url(#arrowhead)"/>
<path d="M 2536.1463635191926 200 Q 2530.1463635191926 180, 2524.1463635191926 200" stroke="black" fill="none" marker-end="url(#arrowhead)"/>
<path d="M 2560.1463635191926 200 Q 2548.1463635191926 180, 2536.1463635191926 200" stroke="black" fill="none" marker-end="url(#arrowhead)"/>
<path d="M 2572.1463635191926 200 Q 2566.1463635191926 180, 2560.1463635191926 200" stroke="black" fill="none" marker-end="url(#arrowhead)"/>
<path d="M 2572.1463635191926 200 Q 1858.1463635191926 180, 1144.1463635191926 200" stroke="black" fill="none" marker-end="url(#arrowhead)"/>
<path d="M 2584.1463635191926 200 Q 2578.1463635191926 180, 2572.1463635191926 200" stroke="black" fill="none" marker-end="url(#arrowhead)"/>
<path d="M 2596.1463635191926 200 Q 2584.1463635191926 180, 2572.1463635191926 200" stroke="black" fill="none" marker-end="url(#arrowhead)"/>
<path d="M 2596.1463635191926 200 Q 2590.1463635191926 180, 2584.1463635191926 200" stroke="black" fill="none" marker-end="url(#arrowhead)"/>
<path d="M 2608.1463635191926 200 Q 2590.1463635191926 180, 2572.1463635191926 200" stroke="black" fill="none" marker-end="url(#arrowhead)"/>
<path d="M 2608.1463635191926 200 Q 2596.1463635191926 180, 2584.1463635191926 200" stroke="black" fill="none" marker-end="url(#arrowhead)"/>
<path d="M 2608.1463635191926 200 Q 2602.1463635191926 180, 2596.1463635191926 200" stroke="black" fill="none" marker-end="url(#arrowhead)"/>
<path d="M 2620.1463635191926 200 Q 2614.1463635191926 180, 2608.1463635191926 200" stroke="black" fill="none" marker-end="url(#arrowhead)"/>
<path d="M 2632.1463635191926 200 Q 2626.1463635191926 180, 2620.1463635191926 200" stroke="black" fill="none" marker-end="url(#arrowhead)"/>
<path d="M 2644.1463635191926 200 Q 2638.1463635191926 180, 2632.1463635191926 200" stroke="black" fill="none" marker-end="url(#arrowhead)"/>
<path d="M 2656.1463635191926 200 Q 2644.1463635191926 180, 2632.1463635191926 200" stroke="black" fill="none" marker-end="url(#arrowhead)"/>
<path d="M 2656.1463635191926 200 Q 2650.1463635191926 180, 2644.1463635191926 200" stroke="black" fill="none" marker-end="url(#arrowhead)"/>
<path d="M 2656.1463635191926 200 Q 1678.1463635191926 180, 700.1463635191926 200" stroke="black" fill="none" marker-end="url(#arrowhead)"/>
<path d="M 2668.1463635191926 200 Q 2650.1463635191926 180, 2632.1463635191926 200" stroke="black" fill="none" marker-end="url(#arrowhead)"/>
<path d="M 2668.1463635191926 200 Q 2644.1463635191926 180, 2620.1463635191926 200" stroke="black" fill="none" marker-end="url(#arrowhead)"/>
<path d="M 2680.1463635191926 200 Q 2524.1463635191926 180, 2368.1463635191926 200" stroke="black" fill="none" marker-end="url(#arrowhead)"/>
<path d="M 2680.1463635191926 200 Q 2656.1463635191926 180, 2632.1463635191926 200" stroke="black" fill="none" marker-end="url(#arrowhead)"/>
<path d="M 2680.1463635191926 200 Q 1690.1463635191926 180, 700.1463635191926 200" stroke="black" fill="none" marker-end="url(#arrowhead)"/>
<path d="M 2680.1463635191926 200 Q 2668.1463635191926 180, 2656.1463635191926 200" stroke="black" fill="none" marker-end="url(#arrowhead)"/>
<path d="M 2680.1463635191926 200 Q 2662.1463635191926 180, 2644.1463635191926 200" stroke="black" fill="none" marker-end="url(#arrowhead)"/>
<path d="M 2692.1463635191926 200 Q 2686.1463635191926 180, 2680.1463635191926 200" stroke="black" fill="none" marker-end="url(#arrowhead)"/>
<path d="M 2704.1463635191926 200 Q 2692.1463635191926 180, 2680.1463635191926 200" stroke="black" fill="none" marker-end="url(#arrowhead)"/>
<path d="M 2704.1463635191926 200 Q 2698.1463635191926 180, 2692.1463635191926 200" stroke="black" fill="none" marker-end="url(#arrowhead)"/>
<path d="M 2716.1463635191926 200 Q 2710.1463635191926 180, 2704.1463635191926 200" stroke="black" fill="none" marker-end="url(#arrowhead)"/>
<path d="M 2716.1463635191926 200 Q 2704.1463635191926 180, 2692.1463635191926 200" stroke="black" fill="none" marker-end="url(#arrowhead)"/>
<path d="M 2728.1463635191926 200 Q 2716.1463635191926 180, 2704.1463635191926 200" stroke="black" fill="none" marker-end="url(#arrowhead)"/>
<path d="M 2728.1463635191926 200 Q 2722.1463635191926 180, 2716.1463635191926 200" stroke="black" fill="none" marker-end="url(#arrowhead)"/>
<path d="M 2728.1463635191926 200 Q 2710.1463635191926 180, 2692.1463635191926 200" stroke="black" fill="none" marker-end="url(#arrowhead)"/>
<path d="M 2752.1463635191926 200 Q 2734.1463635191926 180, 2716.1463635191926 200" stroke="black" fill="none" marker-end="url(#arrowhead)"/>
<path d="M 2752.1463635191926 200 Q 2740.1463635191926 180, 2728.1463635191926 200" stroke="black" fill="none" marker-end="url(#arrowhead)"/>
<path d="M 2752.1463635191926 200 Q 2746.1463635191926 180, 2740.1463635191926 200" stroke="black" fill="none" marker-end="url(#arrowhead)"/>
<path d="M 2776.1463635191926 200 Q 2770.1463635191926 180, 2764.1463635191926 200" stroke="black" fill="none" marker-end="url(#arrowhead)"/>
<path d="M 2788.1463635191926 200 Q 2776.1463635191926 180, 2764.1463635191926 200" stroke="black" fill="none" marker-end="url(#arrowhead)"/>
<path d="M 2788.1463635191926 200 Q 2782.1463635191926 180, 2776.1463635191926 200" stroke="black" fill="none" marker-end="url(#arrowhead)"/>
<path d="M 2800.1463635191926 200 Q 2794.1463635191926 180, 2788.1463635191926 200" stroke="black" fill="none" marker-end="url(#arrowhead)"/>
<path d="M 2812.1463635191926 200 Q 2740.1463635191926 180, 2668.1463635191926 200" stroke="black" fill="none" marker-end="url(#arrowhead)"/>
<path d="M 2824.1463635191926 200 Q 2746.1463635191926 180, 2668.1463635191926 200" stroke="black" fill="none" marker-end="url(#arrowhead)"/>
<path d="M 2824.1463635191926 200 Q 2818.1463635191926 180, 2812.1463635191926 200" stroke="black" fill="none" marker-end="url(#arrowhead)"/>
<path d="M 2836.1463635191926 200 Q 2752.1463635191926 180, 2668.1463635191926 200" stroke="black" fill="none" marker-end="url(#arrowhead)"/>
<path d="M 2836.1463635191926 200 Q 2824.1463635191926 180, 2812.1463635191926 200" stroke="black" fill="none" marker-end="url(#arrowhead)"/>
<path d="M 2848.1463635191926 200 Q 2842.1463635191926 180, 2836.1463635191926 200" stroke="black" fill="none" marker-end="url(#arrowhead)"/>

<defs>
  <marker id="arrowhead" markerWidth="5" markerHeight="5" 
          refX="2" refY="2" orient="auto" fill="black">
    <path d="M0,0 L0,4 L4,2 z" />
  </marker>
</defs>

<circle cx="50.0" cy="200" r="6" fill="none" stroke="blue" stroke-width="2" />
<circle cx="50.0" cy="200" r="3" fill="blue" />
<circle cx="62.0" cy="200" r="6" fill="none" stroke="blue" stroke-width="2" />
<circle cx="62.0" cy="200" r="3" fill="blue" />
<circle cx="74.0" cy="200" r="6" fill="none" stroke="blue" stroke-width="2" />
<circle cx="74.0" cy="200" r="3" fill="blue" />
<circle cx="94.50901833058472" cy="200" r="4" fill="red" />
<circle cx="106.50901833058472" cy="200" r="6" fill="none" stroke="blue" stroke-width="2" />
<circle cx="106.50901833058472" cy="200" r="3" fill="blue" />
<circle cx="118.50901833058472" cy="200" r="4" fill="red" />
<circle cx="130.50901833058472" cy="200" r="4" fill="red" />
<circle cx="142.50901833058472" cy="200" r="6" fill="none" stroke="blue" stroke-width="2" />
<circle cx="142.50901833058472" cy="200" r="3" fill="blue" />
<circle cx="154.50901833058472" cy="200" r="4" fill="black" />
<circle cx="166.50901833058472" cy="200" r="6" fill="none" stroke="black" stroke-width="2" />
<circle cx="166.50901833058472" cy="200" r="3" fill="black" />
<circle cx="178.50901833058472" cy="200" r="4" fill="blue" />
<circle cx="190.50901833058472" cy="200" r="6" fill="none" stroke="red" stroke-width="2" />
<circle cx="190.50901833058472" cy="200" r="3" fill="red" />
<circle cx="202.50901833058472" cy="200" r="4" fill="blue" />
<circle cx="214.50901833058472" cy="200" r="6" fill="none" stroke="blue" stroke-width="2" />
<circle cx="214.50901833058472" cy="200" r="3" fill="blue" />
<circle cx="226.50901833058472" cy="200" r="4" fill="red" />
<circle cx="238.50901833058472" cy="200" r="4" fill="black" />
<circle cx="250.50901833058472" cy="200" r="6" fill="none" stroke="black" stroke-width="2" />
<circle cx="250.50901833058472" cy="200" r="3" fill="black" />
<circle cx="262.5090183305847" cy="200" r="4" fill="black" />
<circle cx="274.5090183305847" cy="200" r="6" fill="none" stroke="black" stroke-width="2" />
<circle cx="274.5090183305847" cy="200" r="3" fill="black" />
<circle cx="286.5090183305847" cy="200" r="4" fill="black" />
<circle cx="298.5090183305847" cy="200" r="4" fill="red" />
<circle cx="310.5090183305847" cy="200" r="4" fill="red" />
<circle cx="322.5090183305847" cy="200" r="4" fill="black" />
<circle cx="502.62602550329797" cy="200" r="4" fill="blue" />
<circle cx="514.626025503298" cy="200" r="4" fill="blue" />
<circle cx="544.1463635191926" cy="200" r="4" fill="black" />
<circle cx="556.1463635191926" cy="200" r="4" fill="black" />
<circle cx="568.1463635191926" cy="200" r="4" fill="black" />
<circle cx="580.1463635191926" cy="200" r="6" fill="none" stroke="blue" stroke-width="2" />
<circle cx="580.1463635191926" cy="200" r="3" fill="blue" />
<circle cx="592.1463635191926" cy="200" r="4" fill="blue" />
<circle cx="604.1463635191926" cy="200" r="4" fill="red" />
<circle cx="616.1463635191926" cy="200" r="4" fill="blue" />
<circle cx="628.1463635191926" cy="200" r="4" fill="black" />
<circle cx="640.1463635191926" cy="200" r="4" fill="red" />
<circle cx="652.1463635191926" cy="200" r="4" fill="green" />
<circle cx="664.1463635191926" cy="200" r="4" fill="black" />
<circle cx="676.1463635191926" cy="200" r="4" fill="black" />
<circle cx="688.1463635191926" cy="200" r="4" fill="black" />
<circle cx="700.1463635191926" cy="200" r="4" fill="black" />
<circle cx="712.1463635191926" cy="200" r="6" fill="none" stroke="blue" stroke-width="2" />
<circle cx="712.1463635191926" cy="200" r="3" fill="blue" />
<circle cx="724.1463635191926" cy="200" r="4" fill="black" />
<circle cx="736.1463635191926" cy="200" r="4" fill="red" />
<circle cx="748.1463635191926" cy="200" r="4" fill="black" />
<circle cx="760.1463635191926" cy="200" r="4" fill="blue" />
<circle cx="772.1463635191926" cy="200" r="4" fill="red" />
<circle cx="784.1463635191926" cy="200" r="4" fill="blue" />
<circle cx="796.1463635191926" cy="200" r="4" fill="blue" />
<circle cx="808.1463635191926" cy="200" r="4" fill="red" />
<circle cx="820.1463635191926" cy="200" r="4" fill="blue" />
<circle cx="832.1463635191926" cy="200" r="4" fill="red" />
<circle cx="844.1463635191926" cy="200" r="4" fill="red" />
<circle cx="856.1463635191926" cy="200" r="4" fill="red" />
<circle cx="868.1463635191926" cy="200" r="4" fill="black" />
<circle cx="880.1463635191926" cy="200" r="4" fill="red" />
<circle cx="892.1463635191926" cy="200" r="4" fill="red" />
<circle cx="904.1463635191926" cy="200" r="4" fill="blue" />
<circle cx="916.1463635191926" cy="200" r="4" fill="blue" />
<circle cx="928.1463635191926" cy="200" r="4" fill="blue" />
<circle cx="940.1463635191926" cy="200" r="4" fill="blue" />
<circle cx="952.1463635191926" cy="200" r="4" fill="blue" />
<circle cx="964.1463635191926" cy="200" r="4" fill="red" />
<circle cx="976.1463635191926" cy="200" r="4" fill="blue" />
<circle cx="988.1463635191926" cy="200" r="4" fill="black" />
<circle cx="1000.1463635191926" cy="200" r="4" fill="red" />
<circle cx="1012.1463635191926" cy="200" r="4" fill="blue" />
<circle cx="1024.1463635191926" cy="200" r="6" fill="none" stroke="blue" stroke-width="2" />
<circle cx="1024.1463635191926" cy="200" r="3" fill="blue" />
<circle cx="1036.1463635191926" cy="200" r="6" fill="none" stroke="blue" stroke-width="2" />
<circle cx="1036.1463635191926" cy="200" r="3" fill="blue" />
<circle cx="1048.1463635191926" cy="200" r="4" fill="red" />
<circle cx="1060.1463635191926" cy="200" r="4" fill="black" />
<circle cx="1072.1463635191926" cy="200" r="4" fill="black" />
<circle cx="1084.1463635191926" cy="200" r="4" fill="blue" />
<circle cx="1096.1463635191926" cy="200" r="4" fill="red" />
<circle cx="1108.1463635191926" cy="200" r="4" fill="green" />
<circle cx="1120.1463635191926" cy="200" r="4" fill="black" />
<circle cx="1132.1463635191926" cy="200" r="4" fill="blue" />
<circle cx="1144.1463635191926" cy="200" r="4" fill="blue" />
<circle cx="1156.1463635191926" cy="200" r="4" fill="blue" />
<circle cx="1168.1463635191926" cy="200" r="4" fill="blue" />
<circle cx="1180.1463635191926" cy="200" r="4" fill="red" />
<circle cx="1192.1463635191926" cy="200" r="4" fill="blue" />
<circle cx="1204.1463635191926" cy="200" r="4" fill="red" />
<circle cx="1216.1463635191926" cy="200" r="4" fill="black" />
<circle cx="1228.1463635191926" cy="200" r="4" fill="red" />
<circle cx="1240.1463635191926" cy="200" r="4" fill="black" />
<circle cx="1252.1463635191926" cy="200" r="4" fill="black" />
<circle cx="1264.1463635191926" cy="200" r="4" fill="red" />
<circle cx="1276.1463635191926" cy="200" r="4" fill="blue" />
<circle cx="1288.1463635191926" cy="200" r="4" fill="blue" />
<circle cx="1300.1463635191926" cy="200" r="4" fill="red" />
<circle cx="1312.1463635191926" cy="200" r="4" fill="green" />
<circle cx="1324.1463635191926" cy="200" r="4" fill="blue" />
<circle cx="1336.1463635191926" cy="200" r="4" fill="blue" />
<circle cx="1348.1463635191926" cy="200" r="4" fill="blue" />
<circle cx="1360.1463635191926" cy="200" r="4" fill="blue" />
<circle cx="1372.1463635191926" cy="200" r="4" fill="red" />
<circle cx="1384.1463635191926" cy="200" r="4" fill="red" />
<circle cx="1396.1463635191926" cy="200" r="4" fill="blue" />
<circle cx="1408.1463635191926" cy="200" r="4" fill="blue" />
<circle cx="1420.1463635191926" cy="200" r="4" fill="blue" />
<circle cx="1432.1463635191926" cy="200" r="4" fill="blue" />
<circle cx="1444.1463635191926" cy="200" r="4" fill="red" />
<circle cx="1456.1463635191926" cy="200" r="4" fill="red" />
<circle cx="1468.1463635191926" cy="200" r="4" fill="red" />
<circle cx="1480.1463635191926" cy="200" r="4" fill="black" />
<circle cx="1492.1463635191926" cy="200" r="6" fill="none" stroke="blue" stroke-width="2" />
<circle cx="1492.1463635191926" cy="200" r="3" fill="blue" />
<circle cx="1504.1463635191926" cy="200" r="4" fill="red" />
<circle cx="1516.1463635191926" cy="200" r="4" fill="blue" />
<circle cx="1528.1463635191926" cy="200" r="4" fill="blue" />
<circle cx="1540.1463635191926" cy="200" r="4" fill="red" />
<circle cx="1552.1463635191926" cy="200" r="4" fill="black" />
<circle cx="1564.1463635191926" cy="200" r="4" fill="blue" />
<circle cx="1576.1463635191926" cy="200" r="4" fill="red" />
<circle cx="1588.1463635191926" cy="200" r="4" fill="blue" />
<circle cx="1600.1463635191926" cy="200" r="4" fill="blue" />
<circle cx="1612.1463635191926" cy="200" r="4" fill="red" />
<circle cx="1624.1463635191926" cy="200" r="4" fill="blue" />
<circle cx="1636.1463635191926" cy="200" r="4" fill="blue" />
<circle cx="1648.1463635191926" cy="200" r="4" fill="red" />
<circle cx="1660.1463635191926" cy="200" r="4" fill="black" />
<circle cx="1672.1463635191926" cy="200" r="4" fill="blue" />
<circle cx="1684.1463635191926" cy="200" r="4" fill="green" />
<circle cx="1696.1463635191926" cy="200" r="4" fill="red" />
<circle cx="1708.1463635191926" cy="200" r="4" fill="blue" />
<circle cx="1720.1463635191926" cy="200" r="4" fill="black" />
<circle cx="1732.1463635191926" cy="200" r="4" fill="black" />
<circle cx="1744.1463635191926" cy="200" r="4" fill="black" />
<circle cx="1756.1463635191926" cy="200" r="4" fill="black" />
<circle cx="1768.1463635191926" cy="200" r="4" fill="blue" />
<circle cx="1780.1463635191926" cy="200" r="4" fill="red" />
<circle cx="1792.1463635191926" cy="200" r="4" fill="blue" />
<circle cx="1804.1463635191926" cy="200" r="4" fill="red" />
<circle cx="1816.1463635191926" cy="200" r="4" fill="blue" />
<circle cx="1828.1463635191926" cy="200" r="4" fill="red" />
<circle cx="1840.1463635191926" cy="200" r="4" fill="blue" />
<circle cx="1852.1463635191926" cy="200" r="4" fill="red" />
<circle cx="1864.1463635191926" cy="200" r="4" fill="red" />
<circle cx="1876.1463635191926" cy="200" r="4" fill="black" />
<circle cx="1888.1463635191926" cy="200" r="4" fill="red" />
<circle cx="1900.1463635191926" cy="200" r="4" fill="red" />
<circle cx="1912.1463635191926" cy="200" r="4" fill="blue" />
<circle cx="1924.1463635191926" cy="200" r="4" fill="black" />
<circle cx="1936.1463635191926" cy="200" r="4" fill="red" />
<circle cx="1948.1463635191926" cy="200" r="4" fill="black" />
<circle cx="1960.1463635191926" cy="200" r="4" fill="red" />
<circle cx="1972.1463635191926" cy="200" r="4" fill="black" />
<circle cx="1984.1463635191926" cy="200" r="4" fill="blue" />
<circle cx="1996.1463635191926" cy="200" r="4" fill="black" />
<circle cx="2008.1463635191926" cy="200" r="4" fill="black" />
<circle cx="2020.1463635191926" cy="200" r="4" fill="black" />
<circle cx="2032.1463635191926" cy="200" r="4" fill="black" />
<circle cx="2044.1463635191926" cy="200" r="4" fill="black" />
<circle cx="2056.1463635191926" cy="200" r="4" fill="black" />
<circle cx="2068.1463635191926" cy="200" r="4" fill="black" />
<circle cx="2080.1463635191926" cy="200" r="4" fill="red" />
<circle cx="2092.1463635191926" cy="200" r="4" fill="red" />
<circle cx="2104.1463635191926" cy="200" r="4" fill="blue" />
<circle cx="2116.1463635191926" cy="200" r="4" fill="black" />
<circle cx="2128.1463635191926" cy="200" r="4" fill="blue" />
<circle cx="2140.1463635191926" cy="200" r="4" fill="blue" />
<circle cx="2152.1463635191926" cy="200" r="4" fill="red" />
<circle cx="2164.1463635191926" cy="200" r="4" fill="blue" />
<circle cx="2176.1463635191926" cy="200" r="4" fill="black" />
<circle cx="2188.1463635191926" cy="200" r="4" fill="black" />
<circle cx="2200.1463635191926" cy="200" r="4" fill="blue" />
<circle cx="2212.1463635191926" cy="200" r="4" fill="blue" />
<circle cx="2224.1463635191926" cy="200" r="4" fill="blue" />
<circle cx="2236.1463635191926" cy="200" r="4" fill="red" />
<circle cx="2248.1463635191926" cy="200" r="4" fill="blue" />
<circle cx="2260.1463635191926" cy="200" r="4" fill="red" />
<circle cx="2272.1463635191926" cy="200" r="4" fill="green" />
<circle cx="2284.1463635191926" cy="200" r="6" fill="none" stroke="green" stroke-width="2" />
<circle cx="2284.1463635191926" cy="200" r="3" fill="green" />
<circle cx="2296.1463635191926" cy="200" r="6" fill="none" stroke="black" stroke-width="2" />
<circle cx="2296.1463635191926" cy="200" r="3" fill="black" />
<circle cx="2308.1463635191926" cy="200" r="4" fill="black" />
<circle cx="2320.1463635191926" cy="200" r="6" fill="none" stroke="blue" stroke-width="2" />
<circle cx="2320.1463635191926" cy="200" r="3" fill="blue" />
<circle cx="2332.1463635191926" cy="200" r="4" fill="blue" />
<circle cx="2344.1463635191926" cy="200" r="4" fill="blue" />
<circle cx="2356.1463635191926" cy="200" r="4" fill="blue" />
<circle cx="2368.1463635191926" cy="200" r="4" fill="black" />
<circle cx="2380.1463635191926" cy="200" r="4" fill="blue" />
<circle cx="2392.1463635191926" cy="200" r="4" fill="blue" />
<circle cx="2404.1463635191926" cy="200" r="4" fill="red" />
<circle cx="2416.1463635191926" cy="200" r="4" fill="black" />
<circle cx="2428.1463635191926" cy="200" r="4" fill="red" />
<circle cx="2440.1463635191926" cy="200" r="4" fill="blue" />
<circle cx="2452.1463635191926" cy="200" r="4" fill="black" />
<circle cx="2464.1463635191926" cy="200" r="4" fill="blue" />
<circle cx="2476.1463635191926" cy="200" r="4" fill="blue" />
<circle cx="2488.1463635191926" cy="200" r="4" fill="green" />
<circle cx="2500.1463635191926" cy="200" r="4" fill="red" />
<circle cx="2512.1463635191926" cy="200" r="4" fill="blue" />
<circle cx="2524.1463635191926" cy="200" r="4" fill="blue" />
<circle cx="2536.1463635191926" cy="200" r="4" fill="blue" />
<circle cx="2548.1463635191926" cy="200" r="4" fill="black" />
<circle cx="2560.1463635191926" cy="200" r="4" fill="red" />
<circle cx="2572.1463635191926" cy="200" r="4" fill="blue" />
<circle cx="2584.1463635191926" cy="200" r="4" fill="green" />
<circle cx="2596.1463635191926" cy="200" r="4" fill="blue" />
<circle cx="2608.1463635191926" cy="200" r="4" fill="blue" />
<circle cx="2620.1463635191926" cy="200" r="4" fill="blue" />
<circle cx="2632.1463635191926" cy="200" r="4" fill="green" />
<circle cx="2644.1463635191926" cy="200" r="4" fill="black" />
<circle cx="2656.1463635191926" cy="200" r="4" fill="black" />
<circle cx="2668.1463635191926" cy="200" r="4" fill="red" />
<circle cx="2680.1463635191926" cy="200" r="4" fill="black" />
<circle cx="2692.1463635191926" cy="200" r="4" fill="black" />
<circle cx="2704.1463635191926" cy="200" r="4" fill="black" />
<circle cx="2716.1463635191926" cy="200" r="4" fill="black" />
<circle cx="2728.1463635191926" cy="200" r="4" fill="black" />
<circle cx="2740.1463635191926" cy="200" r="4" fill="black" />
<circle cx="2752.1463635191926" cy="200" r="4" fill="blue" />
<circle cx="2764.1463635191926" cy="200" r="4" fill="black" />
<circle cx="2776.1463635191926" cy="200" r="4" fill="black" />
<circle cx="2788.1463635191926" cy="200" r="4" fill="green" />
<circle cx="2800.1463635191926" cy="200" r="4" fill="black" />
<circle cx="2812.1463635191926" cy="200" r="4" fill="blue" />
<circle cx="2824.1463635191926" cy="200" r="4" fill="red" />
<circle cx="2836.1463635191926" cy="200" r="4" fill="red" />
<circle cx="2848.1463635191926" cy="200" r="4" fill="blue" />
<text x="50" y="225" fill="gray" style="font-size:12px;">2021-06-30T17:39:00+00:00</text>
<text x="900" y="225" fill="gray" style="font-size:12px;">2025-02-26T05:15:43+00:00</text>
</svg>