<svg xmlns="http://www.w3.org/2000/svg" width="1000" height="400" style="background-color: white; font-family: sans-serif;">
<line x1="50" y1="200" x2="950" y2="200" stroke="gray" stroke-width="1"/>
<path d="M 62.0 200 Q 56.0 180, 50.0 200" stroke="black" fill="none" marker-end="url(#arrowhead)"/>
<path d="M 859.9000645900037 200 Q 460.95003229500185 180, 62.0 200" stroke="black" fill="none" marker-end="url(#arrowhead)"/>
<path d="M 871.9000645900037 200 Q 865.9000645900037 180, 859.9000645900037 200" stroke="black" fill="none" marker-end="url(#arrowhead)"/>
<path d="M 883.9000645900037 200 Q 871.9000645900037 180, 859.9000645900037 200" stroke="black" fill="none" marker-end="url(#arrowhead)"/>
<path d="M 895.9000645900037 200 Q 889.9000645900037 180, 883.9000645900037 200" stroke="black" fill="none" marker-end="url(#arrowhead)"/>
<path d="M 907.9000645900037 200 Q 901.9000645900037 180, 895.9000645900037 200" stroke="black" fill="none" marker-end="url(#arrowhead)"/>
<path d="M 919.9000645900037 200 Q 913.9000645900037 180, 907.9000645900037 200" stroke="black" fill="none" marker-end="url(#arrowhead)"/>
<path d="M 931.9000645900037 200 Q 919.9000645900037 180, 907.9000645900037 200" stroke="black" fill="none" marker-end="url(#arrowhead)"/>
<path d="M 931.9000645900037 200 Q 925.9000645900037 180, 919.9000645900037 200" stroke="black" fill="none" marker-end="url(#arrowhead)"/>
<path d="M 943.9000645900037 200 Q 937.9000645900037 180, 931.9000645900037 200" stroke="black" fill="none" marker-end="url(#arrowhead)"/>
<path d="M 955.9000645900037 200 Q 949.9000645900037 180, 943.9000645900037 200" stroke="black" fill="none" marker-end="url(#arrowhead)"/>
<path d="M 979.9000645900037 200 Q 973.9000645900037 180, 967.9000645900037 200" stroke="black" fill="none" marker-end="url(#arrowhead)"/>

<defs>
  <marker id="arrowhead" markerWidth="5" markerHeight="5" 
          refX="2" refY="2" orient="auto" fill="black">
    <path d="M0,0 L0,4 L4,2 z" />
  </marker>
</defs>

<circle cx="50.0" cy="200" r="6" fill="none" stroke="blue" stroke-width="2" />
<circle cx="50.0" cy="200" r="3" fill="blue" />
<circle cx="62.0" cy="200" r="4" fill="black" />
<circle cx="859.9000645900037" cy="200" r="6" fill="none" stroke="black" stroke-width="2" />
<circle cx="859.9000645900037" cy="200" r="3" fill="black" />
<circle cx="871.9000645900037" cy="200" r="4" fill="black" />
<circle cx="883.9000645900037" cy="200" r="4" fill="black" />
<circle cx="895.9000645900037" cy="200" r="6" fill="none" stroke="black" stroke-width="2" />
<circle cx="895.9000645900037" cy="200" r="3" fill="black" />
<circle cx="907.9000645900037" cy="200" r="4" fill="red" />
<circle cx="919.9000645900037" cy="200" r="6" fill="none" stroke="blue" stroke-width="2" />
<circle cx="919.9000645900037" cy="200" r="3" fill="blue" />
<circle cx="931.9000645900037" cy="200" r="4" fill="red" />
<circle cx="943.9000645900037" cy="200" r="6" fill="none" stroke="blue" stroke-width="2" />
<circle cx="943.9000645900037" cy="200" r="3" fill="blue" />
<circle cx="955.9000645900037" cy="200" r="4" fill="red" />
<circle cx="967.9000645900037" cy="200" r="6" fill="none" stroke="blue" stroke-width="2" />
<circle cx="967.9000645900037" cy="200" r="3" fill="blue" />
<circle cx="979.9000645900037" cy="200" r="6" fill="none" stroke="green" stroke-width="2" />
<circle cx="979.9000645900037" cy="200" r="3" fill="green" />
<text x="50" y="225" fill="gray" style="font-size:12px;">2025-02-18T18:04:03+00:00</text>
<text x="900" y="225" fill="gray" style="font-size:12px;">2025-02-28T18:28:22+00:00</text>
</svg>