<svg xmlns="http://www.w3.org/2000/svg" width="1000" height="200" style="background-color: white; font-family: sans-serif;">
<line x1="50" y1="100" x2="950" y2="100" stroke="gray" stroke-width="1"/>
<path d="M 88.08237548501498 100 Q 69.04118774250749 80, 50.0 100" stroke="black" fill="none" marker-end="url(#arrowhead)"/>
<path d="M 277.32917462446096 100 Q 163.66458731223048 80, 50.0 100" stroke="black" fill="none" marker-end="url(#arrowhead)"/>
<path d="M 289.32917462446096 100 Q 277.32917462446096 80, 265.32917462446096 100" stroke="black" fill="none" marker-end="url(#arrowhead)"/>
<path d="M 301.32917462446096 100 Q 295.32917462446096 80, 289.32917462446096 100" stroke="black" fill="none" marker-end="url(#arrowhead)"/>
<path d="M 313.32917462446096 100 Q 295.32917462446096 80, 277.32917462446096 100" stroke="black" fill="none" marker-end="url(#arrowhead)"/>
<path d="M 349.1931511594281 100 Q 331.26116289194454 80, 313.32917462446096 100" stroke="black" fill="none" marker-end="url(#arrowhead)"/>
<path d="M 384.77267454978215 100 Q 366.98291285460516 80, 349.1931511594281 100" stroke="black" fill="none" marker-end="url(#arrowhead)"/>
<path d="M 400.97130109539506 100 Q 392.8719878225886 80, 384.77267454978215 100" stroke="black" fill="none" marker-end="url(#arrowhead)"/>
<path d="M 412.97130109539506 100 Q 406.97130109539506 80, 400.97130109539506 100" stroke="black" fill="none" marker-end="url(#arrowhead)"/>
<path d="M 456.4833911167182 100 Q 434.72734610605664 80, 412.97130109539506 100" stroke="black" fill="none" marker-end="url(#arrowhead)"/>
<path d="M 468.4833911167182 100 Q 462.4833911167182 80, 456.4833911167182 100" stroke="black" fill="none" marker-end="url(#arrowhead)"/>
<path d="M 527.0771034793966 100 Q 497.78024729805736 80, 468.4833911167182 100" stroke="black" fill="none" marker-end="url(#arrowhead)"/>
<path d="M 542.7002265786622 100 Q 534.8886650290294 80, 527.0771034793966 100" stroke="black" fill="none" marker-end="url(#arrowhead)"/>
<path d="M 641.6210384484606 100 Q 584.3490709639286 80, 527.0771034793966 100" stroke="black" fill="none" marker-end="url(#arrowhead)"/>
<path d="M 641.6210384484606 100 Q 592.1606325135614 80, 542.7002265786622 100" stroke="black" fill="none" marker-end="url(#arrowhead)"/>
<path d="M 656.2498212475491 100 Q 648.9354298480048 80, 641.6210384484606 100" stroke="black" fill="none" marker-end="url(#arrowhead)"/>
<path d="M 715.9347084825584 100 Q 686.0922648650537 80, 656.2498212475491 100" stroke="black" fill="none" marker-end="url(#arrowhead)"/>
<path d="M 730.822801503745 100 Q 723.3787549931517 80, 715.9347084825584 100" stroke="black" fill="none" marker-end="url(#arrowhead)"/>
<path d="M 742.822801503745 100 Q 729.3787549931517 80, 715.9347084825584 100" stroke="black" fill="none" marker-end="url(#arrowhead)"/>
<path d="M 754.822801503745 100 Q 735.3787549931517 80, 715.9347084825584 100" stroke="black" fill="none" marker-end="url(#arrowhead)"/>
<path d="M 754.822801503745 100 Q 748.822801503745 80, 742.822801503745 100" stroke="black" fill="none" marker-end="url(#arrowhead)"/>
<path d="M 950.0 100 Q 832.9673542412793 80, 715.9347084825584 100" stroke="black" fill="none" marker-end="url(#arrowhead)"/>
<path d="M 950.0 100 Q 846.4114007518725 80, 742.822801503745 100" stroke="black" fill="none" marker-end="url(#arrowhead)"/>
<path d="M 950.0 100 Q 852.4114007518725 80, 754.822801503745 100" stroke="black" fill="none" marker-end="url(#arrowhead)"/>

<defs>
  <marker id="arrowhead" markerWidth="5" markerHeight="5" 
          refX="2" refY="2" orient="auto" fill="black">
    <path d="M0,0 L0,4 L4,2 z" />
  </marker>
</defs>

<circle cx="50.0" cy="100" r="6" fill="none" stroke="blue" stroke-width="2" />
<circle cx="50.0" cy="100" r="3" fill="blue" />
<circle cx="88.08237548501498" cy="100" r="4" fill="black" />
<circle cx="265.32917462446096" cy="100" r="4" fill="blue" />
<circle cx="277.32917462446096" cy="100" r="4" fill="red" />
<circle cx="289.32917462446096" cy="100" r="6" fill="none" stroke="black" stroke-width="2" />
<circle cx="289.32917462446096" cy="100" r="3" fill="black" />
<circle cx="301.32917462446096" cy="100" r="6" fill="none" stroke="black" stroke-width="2" />
<circle cx="301.32917462446096" cy="100" r="3" fill="black" />
<circle cx="313.32917462446096" cy="100" r="6" fill="none" stroke="blue" stroke-width="2" />
<circle cx="313.32917462446096" cy="100" r="3" fill="blue" />
<circle cx="349.1931511594281" cy="100" r="4" fill="red" />
<circle cx="384.77267454978215" cy="100" r="6" fill="none" stroke="blue" stroke-width="2" />
<circle cx="384.77267454978215" cy="100" r="3" fill="blue" />
<circle cx="400.97130109539506" cy="100" r="4" fill="red" />
<circle cx="412.97130109539506" cy="100" r="6" fill="none" stroke="blue" stroke-width="2" />
<circle cx="412.97130109539506" cy="100" r="3" fill="blue" />
<circle cx="456.4833911167182" cy="100" r="4" fill="red" />
<circle cx="468.4833911167182" cy="100" r="6" fill="none" stroke="blue" stroke-width="2" />
<circle cx="468.4833911167182" cy="100" r="3" fill="blue" />
<circle cx="527.0771034793966" cy="100" r="4" fill="red" />
<circle cx="542.7002265786622" cy="100" r="6" fill="none" stroke="blue" stroke-width="2" />
<circle cx="542.7002265786622" cy="100" r="3" fill="blue" />
<circle cx="641.6210384484606" cy="100" r="4" fill="red" />
<circle cx="656.2498212475491" cy="100" r="6" fill="none" stroke="red" stroke-width="2" />
<circle cx="656.2498212475491" cy="100" r="3" fill="red" />
<circle cx="715.9347084825584" cy="100" r="4" fill="blue" />
<circle cx="730.822801503745" cy="100" r="4" fill="green" />
<circle cx="742.822801503745" cy="100" r="6" fill="none" stroke="green" stroke-width="2" />
<circle cx="742.822801503745" cy="100" r="3" fill="green" />
<circle cx="754.822801503745" cy="100" r="4" fill="blue" />
<circle cx="950.0" cy="100" r="4" fill="black" />
<text x="50" y="125" fill="gray" style="font-size:12px;">2025-01-02T18:24:06+00:00</text>
<text x="900" y="125" fill="gray" style="font-size:12px;">2025-02-04T13:06:15+00:00</text>
</svg>