<svg xmlns="http://www.w3.org/2000/svg" width="1000" height="200" style="background-color: white; font-family: sans-serif;">
<line x1="50" y1="100" x2="950" y2="100" stroke="gray" stroke-width="1"/>
<path d="M 62.0 100 Q 56.0 80, 50.0 100" stroke="black" fill="none" marker-end="url(#arrowhead)"/>
<path d="M 74.0 100 Q 68.0 80, 62.0 100" stroke="black" fill="none" marker-end="url(#arrowhead)"/>
<path d="M 114.14239433035698 100 Q 82.07119716517849 80, 50.0 100" stroke="black" fill="none" marker-end="url(#arrowhead)"/>
<path d="M 625.7296892862433 100 Q 369.93604180830016 80, 114.14239433035698 100" stroke="black" fill="none" marker-end="url(#arrowhead)"/>
<path d="M 625.7296892862433 100 Q 337.86484464312167 80, 50.0 100" stroke="black" fill="none" marker-end="url(#arrowhead)"/>
<path d="M 649.7296892862433 100 Q 381.93604180830016 80, 114.14239433035698 100" stroke="black" fill="none" marker-end="url(#arrowhead)"/>
<path d="M 649.7296892862433 100 Q 637.7296892862433 80, 625.7296892862433 100" stroke="black" fill="none" marker-end="url(#arrowhead)"/>
<path d="M 661.7296892862433 100 Q 655.7296892862433 80, 649.7296892862433 100" stroke="black" fill="none" marker-end="url(#arrowhead)"/>
<path d="M 673.7296892862433 100 Q 655.7296892862433 80, 637.7296892862433 100" stroke="black" fill="none" marker-end="url(#arrowhead)"/>
<path d="M 685.7296892862433 100 Q 679.7296892862433 80, 673.7296892862433 100" stroke="black" fill="none" marker-end="url(#arrowhead)"/>
<path d="M 887.1189189394487 100 Q 780.424304112846 80, 673.7296892862433 100" stroke="black" fill="none" marker-end="url(#arrowhead)"/>
<path d="M 887.1189189394487 100 Q 786.424304112846 80, 685.7296892862433 100" stroke="black" fill="none" marker-end="url(#arrowhead)"/>
<path d="M 899.1189189394487 100 Q 893.1189189394487 80, 887.1189189394487 100" stroke="black" fill="none" marker-end="url(#arrowhead)"/>
<path d="M 950.0 100 Q 924.5594594697243 80, 899.1189189394487 100" stroke="black" fill="none" marker-end="url(#arrowhead)"/>

<defs>
  <marker id="arrowhead" markerWidth="5" markerHeight="5" 
          refX="2" refY="2" orient="auto" fill="black">
    <path d="M0,0 L0,4 L4,2 z" />
  </marker>
</defs>

<circle cx="50.0" cy="100" r="6" fill="none" stroke="blue" stroke-width="2" />
<circle cx="50.0" cy="100" r="3" fill="blue" />
<circle cx="62.0" cy="100" r="4" fill="black" />
<circle cx="74.0" cy="100" r="6" fill="none" stroke="black" stroke-width="2" />
<circle cx="74.0" cy="100" r="3" fill="black" />
<circle cx="114.14239433035698" cy="100" r="4" fill="red" />
<circle cx="625.7296892862433" cy="100" r="6" fill="none" stroke="red" stroke-width="2" />
<circle cx="625.7296892862433" cy="100" r="3" fill="red" />
<circle cx="637.7296892862433" cy="100" r="6" fill="none" stroke="black" stroke-width="2" />
<circle cx="637.7296892862433" cy="100" r="3" fill="black" />
<circle cx="649.7296892862433" cy="100" r="4" fill="green" />
<circle cx="661.7296892862433" cy="100" r="6" fill="none" stroke="green" stroke-width="2" />
<circle cx="661.7296892862433" cy="100" r="3" fill="green" />
<circle cx="673.7296892862433" cy="100" r="4" fill="black" />
<circle cx="685.7296892862433" cy="100" r="6" fill="none" stroke="black" stroke-width="2" />
<circle cx="685.7296892862433" cy="100" r="3" fill="black" />
<circle cx="872.8411261807009" cy="100" r="4" fill="green" />
<circle cx="887.1189189394487" cy="100" r="4" fill="black" />
<circle cx="899.1189189394487" cy="100" r="6" fill="none" stroke="green" stroke-width="2" />
<circle cx="899.1189189394487" cy="100" r="3" fill="green" />
<circle cx="950.0" cy="100" r="4" fill="green" />
<text x="50" y="125" fill="gray" style="font-size:12px;">2025-02-03T20:18:21+00:00</text>
<text x="900" y="125" fill="gray" style="font-size:12px;">2025-02-06T21:26:38+00:00</text>
</svg>