<svg xmlns="http://www.w3.org/2000/svg" width="1000" height="400" style="background-color: white; font-family: sans-serif;">
<line x1="50" y1="200" x2="950" y2="200" stroke="gray" stroke-width="1"/>
<path d="M 87.92670372956954 200 Q 68.96335186478477 180, 50.0 200" stroke="black" fill="none" marker-end="url(#arrowhead)"/>
<path d="M 132.01989432862086 200 Q 109.9732990290952 180, 87.92670372956954 200" stroke="black" fill="none" marker-end="url(#arrowhead)"/>
<path d="M 198.7692725401059 200 Q 165.39458343436337 180, 132.01989432862086 200" stroke="black" fill="none" marker-end="url(#arrowhead)"/>
<path d="M 321.69784199820253 200 Q 226.8588681634117 180, 132.01989432862086 200" stroke="black" fill="none" marker-end="url(#arrowhead)"/>
<path d="M 321.69784199820253 200 Q 260.23355726915423 180, 198.7692725401059 200" stroke="black" fill="none" marker-end="url(#arrowhead)"/>
<path d="M 500.85656540431137 200 Q 411.27720370125695 180, 321.69784199820253 200" stroke="black" fill="none" marker-end="url(#arrowhead)"/>
<path d="M 600.0482766330932 200 Q 550.4524210187024 180, 500.85656540431137 200" stroke="black" fill="none" marker-end="url(#arrowhead)"/>

<defs>
  <marker id="arrowhead" markerWidth="5" markerHeight="5" 
          refX="2" refY="2" orient="auto" fill="black">
    <path d="M0,0 L0,4 L4,2 z" />
  </marker>
</defs>

<circle cx="50.0" cy="200" r="6" fill="none" stroke="black" stroke-width="2" />
<circle cx="50.0" cy="200" r="3" fill="black" />
<circle cx="87.92670372956954" cy="200" r="4" fill="black" />
<circle cx="132.01989432862086" cy="200" r="6" fill="none" stroke="black" stroke-width="2" />
<circle cx="132.01989432862086" cy="200" r="3" fill="black" />
<circle cx="198.7692725401059" cy="200" r="4" fill="black" />
<circle cx="321.69784199820253" cy="200" r="4" fill="black" />
<circle cx="500.85656540431137" cy="200" r="4" fill="black" />
<circle cx="600.0482766330932" cy="200" r="6" fill="none" stroke="black" stroke-width="2" />
<circle cx="600.0482766330932" cy="200" r="3" fill="black" />
<circle cx="950.0" cy="200" r="6" fill="none" stroke="blue" stroke-width="2" />
<circle cx="950.0" cy="200" r="3" fill="blue" />
<text x="50" y="225" fill="gray" style="font-size:12px;">2025-02-12T23:44:20+00:00</text>
<text x="900" y="225" fill="gray" style="font-size:12px;">2025-02-20T23:03:19+00:00</text>
</svg>