<svg xmlns="http://www.w3.org/2000/svg" width="1000" height="200" style="background-color: white; font-family: sans-serif;">
<line x1="50" y1="100" x2="950" y2="100" stroke="gray" stroke-width="1"/>
<path d="M 190.9732309723708 100 Q 120.4866154861854 80, 50.0 100" stroke="black" fill="none" marker-end="url(#arrowhead)"/>
<path d="M 202.9732309723708 100 Q 196.9732309723708 80, 190.9732309723708 100" stroke="black" fill="none" marker-end="url(#arrowhead)"/>
<path d="M 214.9732309723708 100 Q 208.9732309723708 80, 202.9732309723708 100" stroke="black" fill="none" marker-end="url(#arrowhead)"/>
<path d="M 226.9732309723708 100 Q 220.9732309723708 80, 214.9732309723708 100" stroke="black" fill="none" marker-end="url(#arrowhead)"/>
<path d="M 238.9732309723708 100 Q 232.9732309723708 80, 226.9732309723708 100" stroke="black" fill="none" marker-end="url(#arrowhead)"/>
<path d="M 250.9732309723708 100 Q 238.9732309723708 80, 226.9732309723708 100" stroke="black" fill="none" marker-end="url(#arrowhead)"/>
<path d="M 262.9732309723708 100 Q 250.9732309723708 80, 238.9732309723708 100" stroke="black" fill="none" marker-end="url(#arrowhead)"/>
<path d="M 274.9732309723708 100 Q 256.9732309723708 80, 238.9732309723708 100" stroke="black" fill="none" marker-end="url(#arrowhead)"/>
<path d="M 286.9732309723708 100 Q 280.9732309723708 80, 274.9732309723708 100" stroke="black" fill="none" marker-end="url(#arrowhead)"/>
<path d="M 298.9732309723708 100 Q 292.9732309723708 80, 286.9732309723708 100" stroke="black" fill="none" marker-end="url(#arrowhead)"/>
<path d="M 502.6135253054426 100 Q 496.6135253054426 80, 490.6135253054426 100" stroke="black" fill="none" marker-end="url(#arrowhead)"/>
<path d="M 514.6135253054426 100 Q 508.61352530544264 80, 502.6135253054426 100" stroke="black" fill="none" marker-end="url(#arrowhead)"/>
<path d="M 526.6135253054426 100 Q 520.6135253054426 80, 514.6135253054426 100" stroke="black" fill="none" marker-end="url(#arrowhead)"/>
<path d="M 538.6135253054426 100 Q 532.6135253054426 80, 526.6135253054426 100" stroke="black" fill="none" marker-end="url(#arrowhead)"/>
<path d="M 550.6135253054426 100 Q 544.6135253054426 80, 538.6135253054426 100" stroke="black" fill="none" marker-end="url(#arrowhead)"/>
<path d="M 578.4878323786487 100 Q 564.5506788420457 80, 550.6135253054426 100" stroke="black" fill="none" marker-end="url(#arrowhead)"/>

<defs>
  <marker id="arrowhead" markerWidth="5" markerHeight="5" 
          refX="2" refY="2" orient="auto" fill="black">
    <path d="M0,0 L0,4 L4,2 z" />
  </marker>
</defs>

<circle cx="50.0" cy="100" r="6" fill="none" stroke="blue" stroke-width="2" />
<circle cx="50.0" cy="100" r="3" fill="blue" />
<circle cx="190.9732309723708" cy="100" r="4" fill="red" />
<circle cx="202.9732309723708" cy="100" r="6" fill="none" stroke="blue" stroke-width="2" />
<circle cx="202.9732309723708" cy="100" r="3" fill="blue" />
<circle cx="214.9732309723708" cy="100" r="4" fill="red" />
<circle cx="226.9732309723708" cy="100" r="4" fill="red" />
<circle cx="238.9732309723708" cy="100" r="6" fill="none" stroke="black" stroke-width="2" />
<circle cx="238.9732309723708" cy="100" r="3" fill="black" />
<circle cx="250.9732309723708" cy="100" r="4" fill="black" />
<circle cx="262.9732309723708" cy="100" r="4" fill="black" />
<circle cx="274.9732309723708" cy="100" r="4" fill="black" />
<circle cx="286.9732309723708" cy="100" r="6" fill="none" stroke="black" stroke-width="2" />
<circle cx="286.9732309723708" cy="100" r="3" fill="black" />
<circle cx="298.9732309723708" cy="100" r="4" fill="black" />
<circle cx="490.6135253054426" cy="100" r="6" fill="none" stroke="blue" stroke-width="2" />
<circle cx="490.6135253054426" cy="100" r="3" fill="blue" />
<circle cx="502.6135253054426" cy="100" r="4" fill="black" />
<circle cx="514.6135253054426" cy="100" r="6" fill="none" stroke="black" stroke-width="2" />
<circle cx="514.6135253054426" cy="100" r="3" fill="black" />
<circle cx="526.6135253054426" cy="100" r="4" fill="black" />
<circle cx="538.6135253054426" cy="100" r="6" fill="none" stroke="red" stroke-width="2" />
<circle cx="538.6135253054426" cy="100" r="3" fill="red" />
<circle cx="550.6135253054426" cy="100" r="4" fill="black" />
<circle cx="578.4878323786487" cy="100" r="6" fill="none" stroke="black" stroke-width="2" />
<circle cx="578.4878323786487" cy="100" r="3" fill="black" />
<circle cx="950.0" cy="100" r="6" fill="none" stroke="black" stroke-width="2" />
<circle cx="950.0" cy="100" r="3" fill="black" />
<text x="50" y="125" fill="gray" style="font-size:12px;">2025-01-03T18:30:14+00:00</text>
<text x="900" y="125" fill="gray" style="font-size:12px;">2025-02-03T20:29:03+00:00</text>
</svg>