<svg xmlns="http://www.w3.org/2000/svg" width="1000" height="400" style="background-color: white; font-family: sans-serif;">
<line x1="50" y1="200" x2="950" y2="200" stroke="gray" stroke-width="1"/>
<path d="M 190.9732309723708 200 Q 120.4866154861854 180, 50.0 200" stroke="black" fill="none" marker-end="url(#arrowhead)"/>
<path d="M 202.9732309723708 200 Q 196.9732309723708 180, 190.9732309723708 200" stroke="black" fill="none" marker-end="url(#arrowhead)"/>
<path d="M 214.9732309723708 200 Q 208.9732309723708 180, 202.9732309723708 200" stroke="black" fill="none" marker-end="url(#arrowhead)"/>
<path d="M 226.9732309723708 200 Q 220.9732309723708 180, 214.9732309723708 200" stroke="black" fill="none" marker-end="url(#arrowhead)"/>
<path d="M 238.9732309723708 200 Q 232.9732309723708 180, 226.9732309723708 200" stroke="black" fill="none" marker-end="url(#arrowhead)"/>
<path d="M 250.9732309723708 200 Q 238.9732309723708 180, 226.9732309723708 200" stroke="black" fill="none" marker-end="url(#arrowhead)"/>
<path d="M 262.9732309723708 200 Q 250.9732309723708 180, 238.9732309723708 200" stroke="black" fill="none" marker-end="url(#arrowhead)"/>
<path d="M 274.9732309723708 200 Q 256.9732309723708 180, 238.9732309723708 200" stroke="black" fill="none" marker-end="url(#arrowhead)"/>
<path d="M 286.9732309723708 200 Q 280.9732309723708 180, 274.9732309723708 200" stroke="black" fill="none" marker-end="url(#arrowhead)"/>
<path d="M 298.9732309723708 200 Q 292.9732309723708 180, 286.9732309723708 200" stroke="black" fill="none" marker-end="url(#arrowhead)"/>
<path d="M 502.6135253054426 200 Q 496.6135253054426 180, 490.6135253054426 200" stroke="black" fill="none" marker-end="url(#arrowhead)"/>
<path d="M 514.6135253054426 200 Q 508.61352530544264 180, 502.6135253054426 200" stroke="black" fill="none" marker-end="url(#arrowhead)"/>
<path d="M 526.6135253054426 200 Q 520.6135253054426 180, 514.6135253054426 200" stroke="black" fill="none" marker-end="url(#arrowhead)"/>
<path d="M 538.6135253054426 200 Q 532.6135253054426 180, 526.6135253054426 200" stroke="black" fill="none" marker-end="url(#arrowhead)"/>
<path d="M 550.6135253054426 200 Q 544.6135253054426 180, 538.6135253054426 200" stroke="black" fill="none" marker-end="url(#arrowhead)"/>
<path d="M 578.4878323786487 200 Q 564.5506788420457 180, 550.6135253054426 200" stroke="black" fill="none" marker-end="url(#arrowhead)"/>

<defs>
  <marker id="arrowhead" markerWidth="5" markerHeight="5" 
          refX="2" refY="2" orient="auto" fill="black">
    <path d="M0,0 L0,4 L4,2 z" />
  </marker>
</defs>

<circle cx="50.0" cy="200" r="6" fill="none" stroke="blue" stroke-width="2" />
<circle cx="50.0" cy="200" r="3" fill="blue" />
<circle cx="190.9732309723708" cy="200" r="4" fill="red" />
<circle cx="202.9732309723708" cy="200" r="6" fill="none" stroke="blue" stroke-width="2" />
<circle cx="202.9732309723708" cy="200" r="3" fill="blue" />
<circle cx="214.9732309723708" cy="200" r="4" fill="red" />
<circle cx="226.9732309723708" cy="200" r="4" fill="red" />
<circle cx="238.9732309723708" cy="200" r="6" fill="none" stroke="black" stroke-width="2" />
<circle cx="238.9732309723708" cy="200" r="3" fill="black" />
<circle cx="250.9732309723708" cy="200" r="4" fill="black" />
<circle cx="262.9732309723708" cy="200" r="4" fill="black" />
<circle cx="274.9732309723708" cy="200" r="4" fill="black" />
<circle cx="286.9732309723708" cy="200" r="6" fill="none" stroke="black" stroke-width="2" />
<circle cx="286.9732309723708" cy="200" r="3" fill="black" />
<circle cx="298.9732309723708" cy="200" r="4" fill="black" />
<circle cx="490.6135253054426" cy="200" r="6" fill="none" stroke="blue" stroke-width="2" />
<circle cx="490.6135253054426" cy="200" r="3" fill="blue" />
<circle cx="502.6135253054426" cy="200" r="4" fill="black" />
<circle cx="514.6135253054426" cy="200" r="6" fill="none" stroke="black" stroke-width="2" />
<circle cx="514.6135253054426" cy="200" r="3" fill="black" />
<circle cx="526.6135253054426" cy="200" r="4" fill="black" />
<circle cx="538.6135253054426" cy="200" r="6" fill="none" stroke="red" stroke-width="2" />
<circle cx="538.6135253054426" cy="200" r="3" fill="red" />
<circle cx="550.6135253054426" cy="200" r="4" fill="black" />
<circle cx="578.4878323786487" cy="200" r="6" fill="none" stroke="black" stroke-width="2" />
<circle cx="578.4878323786487" cy="200" r="3" fill="black" />
<circle cx="950.0" cy="200" r="6" fill="none" stroke="black" stroke-width="2" />
<circle cx="950.0" cy="200" r="3" fill="black" />
<text x="50" y="225" fill="gray" style="font-size:12px;">2025-01-03T18:30:14+00:00</text>
<text x="900" y="225" fill="gray" style="font-size:12px;">2025-02-03T20:29:03+00:00</text>
</svg>