<svg xmlns="http://www.w3.org/2000/svg" width="1000" height="200" style="background-color: white; font-family: sans-serif;">
<line x1="50" y1="100" x2="950" y2="100" stroke="gray" stroke-width="1"/>
<path d="M 62.0 100 Q 56.0 80, 50.0 100" stroke="black" fill="none" marker-end="url(#arrowhead)"/>
<path d="M 74.0 100 Q 62.0 80, 50.0 100" stroke="black" fill="none" marker-end="url(#arrowhead)"/>
<path d="M 86.0 100 Q 80.0 80, 74.0 100" stroke="black" fill="none" marker-end="url(#arrowhead)"/>
<path d="M 210.51577518315037 100 Q 192.0106130942631 80, 173.50545100537585 100" stroke="black" fill="none" marker-end="url(#arrowhead)"/>
<path d="M 222.51577518315037 100 Q 198.0106130942631 80, 173.50545100537585 100" stroke="black" fill="none" marker-end="url(#arrowhead)"/>
<path d="M 275.17032845106775 100 Q 269.17032845106775 80, 263.17032845106775 100" stroke="black" fill="none" marker-end="url(#arrowhead)"/>
<path d="M 287.17032845106775 100 Q 281.17032845106775 80, 275.17032845106775 100" stroke="black" fill="none" marker-end="url(#arrowhead)"/>
<path d="M 299.17032845106775 100 Q 287.17032845106775 80, 275.17032845106775 100" stroke="black" fill="none" marker-end="url(#arrowhead)"/>
<path d="M 299.17032845106775 100 Q 293.17032845106775 80, 287.17032845106775 100" stroke="black" fill="none" marker-end="url(#arrowhead)"/>
<path d="M 383.0428464415781 100 Q 360.686102370998 80, 338.32935830041794 100" stroke="black" fill="none" marker-end="url(#arrowhead)"/>
<path d="M 412.31695504277775 100 Q 375.32315667159787 80, 338.32935830041794 100" stroke="black" fill="none" marker-end="url(#arrowhead)"/>
<path d="M 412.31695504277775 100 Q 397.6799007421779 80, 383.0428464415781 100" stroke="black" fill="none" marker-end="url(#arrowhead)"/>
<path d="M 961.7916119897877 100 Q 955.7916119897877 80, 949.7916119897877 100" stroke="black" fill="none" marker-end="url(#arrowhead)"/>
<path d="M 973.7916119897877 100 Q 967.7916119897877 80, 961.7916119897877 100" stroke="black" fill="none" marker-end="url(#arrowhead)"/>

<defs>
  <marker id="arrowhead" markerWidth="5" markerHeight="5" 
          refX="2" refY="2" orient="auto" fill="black">
    <path d="M0,0 L0,4 L4,2 z" />
  </marker>
</defs>

<circle cx="50.0" cy="100" r="6" fill="none" stroke="black" stroke-width="2" />
<circle cx="50.0" cy="100" r="3" fill="black" />
<circle cx="62.0" cy="100" r="4" fill="red" />
<circle cx="74.0" cy="100" r="6" fill="none" stroke="black" stroke-width="2" />
<circle cx="74.0" cy="100" r="3" fill="black" />
<circle cx="86.0" cy="100" r="4" fill="black" />
<circle cx="161.50545100537585" cy="100" r="6" fill="none" stroke="blue" stroke-width="2" />
<circle cx="161.50545100537585" cy="100" r="3" fill="blue" />
<circle cx="173.50545100537585" cy="100" r="4" fill="red" />
<circle cx="210.51577518315037" cy="100" r="4" fill="red" />
<circle cx="222.51577518315037" cy="100" r="4" fill="red" />
<circle cx="239.17032845106775" cy="100" r="6" fill="none" stroke="blue" stroke-width="2" />
<circle cx="239.17032845106775" cy="100" r="3" fill="blue" />
<circle cx="251.17032845106775" cy="100" r="4" fill="red" />
<circle cx="263.17032845106775" cy="100" r="6" fill="none" stroke="blue" stroke-width="2" />
<circle cx="263.17032845106775" cy="100" r="3" fill="blue" />
<circle cx="275.17032845106775" cy="100" r="4" fill="red" />
<circle cx="287.17032845106775" cy="100" r="4" fill="red" />
<circle cx="299.17032845106775" cy="100" r="4" fill="black" />
<circle cx="338.32935830041794" cy="100" r="6" fill="none" stroke="blue" stroke-width="2" />
<circle cx="338.32935830041794" cy="100" r="3" fill="blue" />
<circle cx="383.0428464415781" cy="100" r="4" fill="red" />
<circle cx="412.31695504277775" cy="100" r="4" fill="red" />
<circle cx="949.7916119897877" cy="100" r="6" fill="none" stroke="blue" stroke-width="2" />
<circle cx="949.7916119897877" cy="100" r="3" fill="blue" />
<circle cx="961.7916119897877" cy="100" r="4" fill="black" />
<circle cx="973.7916119897877" cy="100" r="4" fill="red" />
<text x="50" y="125" fill="gray" style="font-size:12px;">2022-07-12T13:52:58+00:00</text>
<text x="900" y="125" fill="gray" style="font-size:12px;">2025-02-28T15:01:23+00:00</text>
</svg>