<svg xmlns="http://www.w3.org/2000/svg" width="1000" height="400" style="background-color: white; font-family: sans-serif;">
<line x1="50" y1="200" x2="950" y2="200" stroke="gray" stroke-width="1"/>
<path d="M 62.0 200 Q 56.0 180, 50.0 200" stroke="black" fill="none" marker-end="url(#arrowhead)"/>
<path d="M 339.47499609534145 200 Q 206.73749804767073 180, 74.0 200" stroke="black" fill="none" marker-end="url(#arrowhead)"/>
<path d="M 351.47499609534145 200 Q 206.73749804767073 180, 62.0 200" stroke="black" fill="none" marker-end="url(#arrowhead)"/>
<path d="M 351.47499609534145 200 Q 345.47499609534145 180, 339.47499609534145 200" stroke="black" fill="none" marker-end="url(#arrowhead)"/>
<path d="M 401.9688235345885 200 Q 376.721909814965 180, 351.47499609534145 200" stroke="black" fill="none" marker-end="url(#arrowhead)"/>
<path d="M 401.9688235345885 200 Q 370.721909814965 180, 339.47499609534145 200" stroke="black" fill="none" marker-end="url(#arrowhead)"/>
<path d="M 413.9688235345885 200 Q 407.9688235345885 180, 401.9688235345885 200" stroke="black" fill="none" marker-end="url(#arrowhead)"/>
<path d="M 413.9688235345885 200 Q 237.98441176729426 180, 62.0 200" stroke="black" fill="none" marker-end="url(#arrowhead)"/>
<path d="M 413.9688235345885 200 Q 376.721909814965 180, 339.47499609534145 200" stroke="black" fill="none" marker-end="url(#arrowhead)"/>
<path d="M 950.0 200 Q 675.9844117672942 180, 401.9688235345885 200" stroke="black" fill="none" marker-end="url(#arrowhead)"/>
<path d="M 950.0 200 Q 644.7374980476707 180, 339.47499609534145 200" stroke="black" fill="none" marker-end="url(#arrowhead)"/>
<path d="M 950.0 200 Q 681.9844117672942 180, 413.9688235345885 200" stroke="black" fill="none" marker-end="url(#arrowhead)"/>
<path d="M 950.0 200 Q 506.0 180, 62.0 200" stroke="black" fill="none" marker-end="url(#arrowhead)"/>

<defs>
  <marker id="arrowhead" markerWidth="5" markerHeight="5" 
          refX="2" refY="2" orient="auto" fill="black">
    <path d="M0,0 L0,4 L4,2 z" />
  </marker>
</defs>

<circle cx="50.0" cy="200" r="6" fill="none" stroke="blue" stroke-width="2" />
<circle cx="50.0" cy="200" r="3" fill="blue" />
<circle cx="62.0" cy="200" r="4" fill="black" />
<circle cx="74.0" cy="200" r="6" fill="none" stroke="black" stroke-width="2" />
<circle cx="74.0" cy="200" r="3" fill="black" />
<circle cx="339.47499609534145" cy="200" r="4" fill="black" />
<circle cx="351.47499609534145" cy="200" r="6" fill="none" stroke="black" stroke-width="2" />
<circle cx="351.47499609534145" cy="200" r="3" fill="black" />
<circle cx="401.9688235345885" cy="200" r="4" fill="red" />
<circle cx="413.9688235345885" cy="200" r="6" fill="none" stroke="blue" stroke-width="2" />
<circle cx="413.9688235345885" cy="200" r="3" fill="blue" />
<circle cx="950.0" cy="200" r="6" fill="none" stroke="blue" stroke-width="2" />
<circle cx="950.0" cy="200" r="3" fill="blue" />
<text x="50" y="225" fill="gray" style="font-size:12px;">2024-08-19T08:43:09+00:00</text>
<text x="900" y="225" fill="gray" style="font-size:12px;">2024-12-27T13:32:52+00:00</text>
</svg>