<svg xmlns="http://www.w3.org/2000/svg" width="1000" height="400" style="background-color: white; font-family: sans-serif;">
<line x1="50" y1="200" x2="950" y2="200" stroke="gray" stroke-width="1"/>
<path d="M 62.0 200 Q 56.0 180, 50.0 200" stroke="black" fill="none" marker-end="url(#arrowhead)"/>
<path d="M 74.0 200 Q 62.0 180, 50.0 200" stroke="black" fill="none" marker-end="url(#arrowhead)"/>
<path d="M 74.0 200 Q 68.0 180, 62.0 200" stroke="black" fill="none" marker-end="url(#arrowhead)"/>
<path d="M 92.89840843105941 200 Q 77.4492042155297 180, 62.0 200" stroke="black" fill="none" marker-end="url(#arrowhead)"/>
<path d="M 104.89840843105941 200 Q 77.4492042155297 180, 50.0 200" stroke="black" fill="none" marker-end="url(#arrowhead)"/>
<path d="M 104.89840843105941 200 Q 83.4492042155297 180, 62.0 200" stroke="black" fill="none" marker-end="url(#arrowhead)"/>
<path d="M 104.89840843105941 200 Q 89.4492042155297 180, 74.0 200" stroke="black" fill="none" marker-end="url(#arrowhead)"/>
<path d="M 220.9702846192419 200 Q 156.93434652515066 180, 92.89840843105941 200" stroke="black" fill="none" marker-end="url(#arrowhead)"/>
<path d="M 284.3449125449058 200 Q 277.601627386616 180, 270.85834222832614 200" stroke="black" fill="none" marker-end="url(#arrowhead)"/>
<path d="M 296.3449125449058 200 Q 290.3449125449058 180, 284.3449125449058 200" stroke="black" fill="none" marker-end="url(#arrowhead)"/>
<path d="M 321.3002457967715 200 Q 315.3002457967715 180, 309.3002457967715 200" stroke="black" fill="none" marker-end="url(#arrowhead)"/>
<path d="M 403.63359782228537 200 Q 362.46692180952846 180, 321.3002457967715 200" stroke="black" fill="none" marker-end="url(#arrowhead)"/>
<path d="M 415.63359782228537 200 Q 368.46692180952846 180, 321.3002457967715 200" stroke="black" fill="none" marker-end="url(#arrowhead)"/>
<path d="M 415.63359782228537 200 Q 409.63359782228537 180, 403.63359782228537 200" stroke="black" fill="none" marker-end="url(#arrowhead)"/>
<path d="M 415.63359782228537 200 Q 362.46692180952846 180, 309.3002457967715 200" stroke="black" fill="none" marker-end="url(#arrowhead)"/>
<path d="M 439.63359782228537 200 Q 433.63359782228537 180, 427.63359782228537 200" stroke="black" fill="none" marker-end="url(#arrowhead)"/>
<path d="M 451.63359782228537 200 Q 439.63359782228537 180, 427.63359782228537 200" stroke="black" fill="none" marker-end="url(#arrowhead)"/>
<path d="M 451.63359782228537 200 Q 445.63359782228537 180, 439.63359782228537 200" stroke="black" fill="none" marker-end="url(#arrowhead)"/>
<path d="M 451.63359782228537 200 Q 380.46692180952846 180, 309.3002457967715 200" stroke="black" fill="none" marker-end="url(#arrowhead)"/>
<path d="M 463.63359782228537 200 Q 439.63359782228537 180, 415.63359782228537 200" stroke="black" fill="none" marker-end="url(#arrowhead)"/>
<path d="M 487.63359782228537 200 Q 451.63359782228537 180, 415.63359782228537 200" stroke="black" fill="none" marker-end="url(#arrowhead)"/>
<path d="M 499.63359782228537 200 Q 487.63359782228537 180, 475.63359782228537 200" stroke="black" fill="none" marker-end="url(#arrowhead)"/>
<path d="M 511.63359782228537 200 Q 499.63359782228537 180, 487.63359782228537 200" stroke="black" fill="none" marker-end="url(#arrowhead)"/>
<path d="M 535.6335978222853 200 Q 529.6335978222853 180, 523.6335978222853 200" stroke="black" fill="none" marker-end="url(#arrowhead)"/>
<path d="M 559.6335978222853 200 Q 553.6335978222853 180, 547.6335978222853 200" stroke="black" fill="none" marker-end="url(#arrowhead)"/>
<path d="M 571.6335978222853 200 Q 565.6335978222853 180, 559.6335978222853 200" stroke="black" fill="none" marker-end="url(#arrowhead)"/>
<path d="M 583.6335978222853 200 Q 577.6335978222853 180, 571.6335978222853 200" stroke="black" fill="none" marker-end="url(#arrowhead)"/>
<path d="M 628.5590614018682 200 Q 594.0963296120767 180, 559.6335978222853 200" stroke="black" fill="none" marker-end="url(#arrowhead)"/>
<path d="M 681.0561125213083 200 Q 671.905928684253 180, 662.7557448471979 200" stroke="black" fill="none" marker-end="url(#arrowhead)"/>
<path d="M 693.0561125213083 200 Q 687.0561125213083 180, 681.0561125213083 200" stroke="black" fill="none" marker-end="url(#arrowhead)"/>
<path d="M 705.0561125213083 200 Q 699.0561125213083 180, 693.0561125213083 200" stroke="black" fill="none" marker-end="url(#arrowhead)"/>
<path d="M 717.0561125213083 200 Q 711.0561125213083 180, 705.0561125213083 200" stroke="black" fill="none" marker-end="url(#arrowhead)"/>
<path d="M 756.1199765710264 200 Q 736.5880445461673 180, 717.0561125213083 200" stroke="black" fill="none" marker-end="url(#arrowhead)"/>
<path d="M 756.1199765710264 200 Q 730.5880445461673 180, 705.0561125213083 200" stroke="black" fill="none" marker-end="url(#arrowhead)"/>
<path d="M 768.1199765710264 200 Q 762.1199765710264 180, 756.1199765710264 200" stroke="black" fill="none" marker-end="url(#arrowhead)"/>
<path d="M 780.1199765710264 200 Q 768.1199765710264 180, 756.1199765710264 200" stroke="black" fill="none" marker-end="url(#arrowhead)"/>
<path d="M 780.1199765710264 200 Q 774.1199765710264 180, 768.1199765710264 200" stroke="black" fill="none" marker-end="url(#arrowhead)"/>
<path d="M 792.1199765710264 200 Q 780.1199765710264 180, 768.1199765710264 200" stroke="black" fill="none" marker-end="url(#arrowhead)"/>
<path d="M 792.1199765710264 200 Q 786.1199765710264 180, 780.1199765710264 200" stroke="black" fill="none" marker-end="url(#arrowhead)"/>
<path d="M 804.1199765710264 200 Q 798.1199765710264 180, 792.1199765710264 200" stroke="black" fill="none" marker-end="url(#arrowhead)"/>
<path d="M 840.1199765710264 200 Q 834.1199765710264 180, 828.1199765710264 200" stroke="black" fill="none" marker-end="url(#arrowhead)"/>
<path d="M 852.1199765710264 200 Q 834.1199765710264 180, 816.1199765710264 200" stroke="black" fill="none" marker-end="url(#arrowhead)"/>
<path d="M 864.1199765710264 200 Q 858.1199765710264 180, 852.1199765710264 200" stroke="black" fill="none" marker-end="url(#arrowhead)"/>
<path d="M 876.1199765710264 200 Q 870.1199765710264 180, 864.1199765710264 200" stroke="black" fill="none" marker-end="url(#arrowhead)"/>
<path d="M 888.1199765710264 200 Q 876.1199765710264 180, 864.1199765710264 200" stroke="black" fill="none" marker-end="url(#arrowhead)"/>
<path d="M 900.1199765710264 200 Q 894.1199765710264 180, 888.1199765710264 200" stroke="black" fill="none" marker-end="url(#arrowhead)"/>
<path d="M 912.1199765710264 200 Q 906.1199765710264 180, 900.1199765710264 200" stroke="black" fill="none" marker-end="url(#arrowhead)"/>
<path d="M 924.1199765710264 200 Q 906.1199765710264 180, 888.1199765710264 200" stroke="black" fill="none" marker-end="url(#arrowhead)"/>
<path d="M 924.1199765710264 200 Q 918.1199765710264 180, 912.1199765710264 200" stroke="black" fill="none" marker-end="url(#arrowhead)"/>
<path d="M 936.1199765710264 200 Q 888.1199765710264 180, 840.1199765710264 200" stroke="black" fill="none" marker-end="url(#arrowhead)"/>
<path d="M 948.1199765710264 200 Q 906.1199765710264 180, 864.1199765710264 200" stroke="black" fill="none" marker-end="url(#arrowhead)"/>
<path d="M 960.1199765710264 200 Q 924.1199765710264 180, 888.1199765710264 200" stroke="black" fill="none" marker-end="url(#arrowhead)"/>
<path d="M 960.1199765710264 200 Q 912.1199765710264 180, 864.1199765710264 200" stroke="black" fill="none" marker-end="url(#arrowhead)"/>
<path d="M 972.1199765710264 200 Q 930.1199765710264 180, 888.1199765710264 200" stroke="black" fill="none" marker-end="url(#arrowhead)"/>
<path d="M 972.1199765710264 200 Q 936.1199765710264 180, 900.1199765710264 200" stroke="black" fill="none" marker-end="url(#arrowhead)"/>
<path d="M 972.1199765710264 200 Q 942.1199765710264 180, 912.1199765710264 200" stroke="black" fill="none" marker-end="url(#arrowhead)"/>
<path d="M 984.1199765710264 200 Q 972.1199765710264 180, 960.1199765710264 200" stroke="black" fill="none" marker-end="url(#arrowhead)"/>
<path d="M 996.1199765710264 200 Q 972.1199765710264 180, 948.1199765710264 200" stroke="black" fill="none" marker-end="url(#arrowhead)"/>
<path d="M 1008.1199765710264 200 Q 1002.1199765710264 180, 996.1199765710264 200" stroke="black" fill="none" marker-end="url(#arrowhead)"/>
<path d="M 1032.1199765710264 200 Q 1026.1199765710264 180, 1020.1199765710264 200" stroke="black" fill="none" marker-end="url(#arrowhead)"/>
<path d="M 1044.1199765710264 200 Q 1038.1199765710264 180, 1032.1199765710264 200" stroke="black" fill="none" marker-end="url(#arrowhead)"/>
<path d="M 1056.1199765710264 200 Q 1044.1199765710264 180, 1032.1199765710264 200" stroke="black" fill="none" marker-end="url(#arrowhead)"/>
<path d="M 1068.1199765710264 200 Q 1062.1199765710264 180, 1056.1199765710264 200" stroke="black" fill="none" marker-end="url(#arrowhead)"/>
<path d="M 1080.1199765710264 200 Q 1050.1199765710264 180, 1020.1199765710264 200" stroke="black" fill="none" marker-end="url(#arrowhead)"/>
<path d="M 1080.1199765710264 200 Q 1056.1199765710264 180, 1032.1199765710264 200" stroke="black" fill="none" marker-end="url(#arrowhead)"/>
<path d="M 1092.1199765710264 200 Q 1074.1199765710264 180, 1056.1199765710264 200" stroke="black" fill="none" marker-end="url(#arrowhead)"/>
<path d="M 1092.1199765710264 200 Q 1080.1199765710264 180, 1068.1199765710264 200" stroke="black" fill="none" marker-end="url(#arrowhead)"/>
<path d="M 1104.1199765710264 200 Q 1098.1199765710264 180, 1092.1199765710264 200" stroke="black" fill="none" marker-end="url(#arrowhead)"/>
<path d="M 1116.1199765710264 200 Q 1110.1199765710264 180, 1104.1199765710264 200" stroke="black" fill="none" marker-end="url(#arrowhead)"/>
<path d="M 1128.1199765710264 200 Q 1122.1199765710264 180, 1116.1199765710264 200" stroke="black" fill="none" marker-end="url(#arrowhead)"/>
<path d="M 1140.1199765710264 200 Q 1134.1199765710264 180, 1128.1199765710264 200" stroke="black" fill="none" marker-end="url(#arrowhead)"/>
<path d="M 1152.1199765710264 200 Q 1140.1199765710264 180, 1128.1199765710264 200" stroke="black" fill="none" marker-end="url(#arrowhead)"/>
<path d="M 1164.1199765710264 200 Q 1086.1199765710264 180, 1008.1199765710264 200" stroke="black" fill="none" marker-end="url(#arrowhead)"/>
<path d="M 1176.1199765710264 200 Q 1170.1199765710264 180, 1164.1199765710264 200" stroke="black" fill="none" marker-end="url(#arrowhead)"/>
<path d="M 1188.1199765710264 200 Q 1182.1199765710264 180, 1176.1199765710264 200" stroke="black" fill="none" marker-end="url(#arrowhead)"/>
<path d="M 1200.1199765710264 200 Q 1194.1199765710264 180, 1188.1199765710264 200" stroke="black" fill="none" marker-end="url(#arrowhead)"/>
<path d="M 1212.1199765710264 200 Q 1206.1199765710264 180, 1200.1199765710264 200" stroke="black" fill="none" marker-end="url(#arrowhead)"/>
<path d="M 1224.1199765710264 200 Q 1218.1199765710264 180, 1212.1199765710264 200" stroke="black" fill="none" marker-end="url(#arrowhead)"/>
<path d="M 1236.1199765710264 200 Q 1230.1199765710264 180, 1224.1199765710264 200" stroke="black" fill="none" marker-end="url(#arrowhead)"/>

<defs>
  <marker id="arrowhead" markerWidth="5" markerHeight="5" 
          refX="2" refY="2" orient="auto" fill="black">
    <path d="M0,0 L0,4 L4,2 z" />
  </marker>
</defs>

<circle cx="50.0" cy="200" r="6" fill="none" stroke="blue" stroke-width="2" />
<circle cx="50.0" cy="200" r="3" fill="blue" />
<circle cx="62.0" cy="200" r="4" fill="green" />
<circle cx="74.0" cy="200" r="4" fill="black" />
<circle cx="92.89840843105941" cy="200" r="6" fill="none" stroke="green" stroke-width="2" />
<circle cx="92.89840843105941" cy="200" r="3" fill="green" />
<circle cx="104.89840843105941" cy="200" r="6" fill="none" stroke="green" stroke-width="2" />
<circle cx="104.89840843105941" cy="200" r="3" fill="green" />
<circle cx="220.9702846192419" cy="200" r="6" fill="none" stroke="blue" stroke-width="2" />
<circle cx="220.9702846192419" cy="200" r="3" fill="blue" />
<circle cx="270.85834222832614" cy="200" r="4" fill="red" />
<circle cx="284.3449125449058" cy="200" r="6" fill="none" stroke="blue" stroke-width="2" />
<circle cx="284.3449125449058" cy="200" r="3" fill="blue" />
<circle cx="296.3449125449058" cy="200" r="6" fill="none" stroke="blue" stroke-width="2" />
<circle cx="296.3449125449058" cy="200" r="3" fill="blue" />
<circle cx="309.3002457967715" cy="200" r="4" fill="blue" />
<circle cx="321.3002457967715" cy="200" r="4" fill="red" />
<circle cx="403.63359782228537" cy="200" r="6" fill="none" stroke="blue" stroke-width="2" />
<circle cx="403.63359782228537" cy="200" r="3" fill="blue" />
<circle cx="415.63359782228537" cy="200" r="4" fill="red" />
<circle cx="427.63359782228537" cy="200" r="4" fill="red" />
<circle cx="439.63359782228537" cy="200" r="4" fill="red" />
<circle cx="451.63359782228537" cy="200" r="6" fill="none" stroke="blue" stroke-width="2" />
<circle cx="451.63359782228537" cy="200" r="3" fill="blue" />
<circle cx="463.63359782228537" cy="200" r="6" fill="none" stroke="blue" stroke-width="2" />
<circle cx="463.63359782228537" cy="200" r="3" fill="blue" />
<circle cx="475.63359782228537" cy="200" r="4" fill="blue" />
<circle cx="487.63359782228537" cy="200" r="4" fill="red" />
<circle cx="499.63359782228537" cy="200" r="6" fill="none" stroke="red" stroke-width="2" />
<circle cx="499.63359782228537" cy="200" r="3" fill="red" />
<circle cx="511.63359782228537" cy="200" r="6" fill="none" stroke="blue" stroke-width="2" />
<circle cx="511.63359782228537" cy="200" r="3" fill="blue" />
<circle cx="523.6335978222853" cy="200" r="4" fill="blue" />
<circle cx="535.6335978222853" cy="200" r="6" fill="none" stroke="blue" stroke-width="2" />
<circle cx="535.6335978222853" cy="200" r="3" fill="blue" />
<circle cx="547.6335978222853" cy="200" r="4" fill="red" />
<circle cx="559.6335978222853" cy="200" r="6" fill="none" stroke="blue" stroke-width="2" />
<circle cx="559.6335978222853" cy="200" r="3" fill="blue" />
<circle cx="571.6335978222853" cy="200" r="4" fill="red" />
<circle cx="583.6335978222853" cy="200" r="6" fill="none" stroke="red" stroke-width="2" />
<circle cx="583.6335978222853" cy="200" r="3" fill="red" />
<circle cx="628.5590614018682" cy="200" r="4" fill="black" />
<circle cx="650.7557448471979" cy="200" r="4" fill="blue" />
<circle cx="662.7557448471979" cy="200" r="6" fill="none" stroke="green" stroke-width="2" />
<circle cx="662.7557448471979" cy="200" r="3" fill="green" />
<circle cx="681.0561125213083" cy="200" r="4" fill="black" />
<circle cx="693.0561125213083" cy="200" r="6" fill="none" stroke="black" stroke-width="2" />
<circle cx="693.0561125213083" cy="200" r="3" fill="black" />
<circle cx="705.0561125213083" cy="200" r="6" fill="none" stroke="blue" stroke-width="2" />
<circle cx="705.0561125213083" cy="200" r="3" fill="blue" />
<circle cx="717.0561125213083" cy="200" r="6" fill="none" stroke="blue" stroke-width="2" />
<circle cx="717.0561125213083" cy="200" r="3" fill="blue" />
<circle cx="756.1199765710264" cy="200" r="4" fill="red" />
<circle cx="768.1199765710264" cy="200" r="6" fill="none" stroke="red" stroke-width="2" />
<circle cx="768.1199765710264" cy="200" r="3" fill="red" />
<circle cx="780.1199765710264" cy="200" r="4" fill="red" />
<circle cx="792.1199765710264" cy="200" r="6" fill="none" stroke="blue" stroke-width="2" />
<circle cx="792.1199765710264" cy="200" r="3" fill="blue" />
<circle cx="804.1199765710264" cy="200" r="4" fill="black" />
<circle cx="816.1199765710264" cy="200" r="4" fill="black" />
<circle cx="828.1199765710264" cy="200" r="4" fill="red" />
<circle cx="840.1199765710264" cy="200" r="6" fill="none" stroke="black" stroke-width="2" />
<circle cx="840.1199765710264" cy="200" r="3" fill="black" />
<circle cx="852.1199765710264" cy="200" r="6" fill="none" stroke="black" stroke-width="2" />
<circle cx="852.1199765710264" cy="200" r="3" fill="black" />
<circle cx="864.1199765710264" cy="200" r="4" fill="black" />
<circle cx="876.1199765710264" cy="200" r="6" fill="none" stroke="green" stroke-width="2" />
<circle cx="876.1199765710264" cy="200" r="3" fill="green" />
<circle cx="888.1199765710264" cy="200" r="4" fill="red" />
<circle cx="900.1199765710264" cy="200" r="4" fill="black" />
<circle cx="912.1199765710264" cy="200" r="4" fill="red" />
<circle cx="924.1199765710264" cy="200" r="4" fill="black" />
<circle cx="936.1199765710264" cy="200" r="6" fill="none" stroke="blue" stroke-width="2" />
<circle cx="936.1199765710264" cy="200" r="3" fill="blue" />
<circle cx="948.1199765710264" cy="200" r="4" fill="green" />
<circle cx="960.1199765710264" cy="200" r="4" fill="black" />
<circle cx="972.1199765710264" cy="200" r="4" fill="black" />
<circle cx="984.1199765710264" cy="200" r="4" fill="red" />
<circle cx="996.1199765710264" cy="200" r="6" fill="none" stroke="blue" stroke-width="2" />
<circle cx="996.1199765710264" cy="200" r="3" fill="blue" />
<circle cx="1008.1199765710264" cy="200" r="4" fill="red" />
<circle cx="1020.1199765710264" cy="200" r="4" fill="red" />
<circle cx="1032.1199765710264" cy="200" r="4" fill="black" />
<circle cx="1044.1199765710264" cy="200" r="4" fill="red" />
<circle cx="1056.1199765710264" cy="200" r="4" fill="black" />
<circle cx="1068.1199765710264" cy="200" r="4" fill="black" />
<circle cx="1080.1199765710264" cy="200" r="4" fill="black" />
<circle cx="1092.1199765710264" cy="200" r="4" fill="red" />
<circle cx="1104.1199765710264" cy="200" r="4" fill="red" />
<circle cx="1116.1199765710264" cy="200" r="4" fill="black" />
<circle cx="1128.1199765710264" cy="200" r="4" fill="black" />
<circle cx="1140.1199765710264" cy="200" r="4" fill="red" />
<circle cx="1152.1199765710264" cy="200" r="6" fill="none" stroke="black" stroke-width="2" />
<circle cx="1152.1199765710264" cy="200" r="3" fill="black" />
<circle cx="1164.1199765710264" cy="200" r="6" fill="none" stroke="blue" stroke-width="2" />
<circle cx="1164.1199765710264" cy="200" r="3" fill="blue" />
<circle cx="1176.1199765710264" cy="200" r="4" fill="blue" />
<circle cx="1188.1199765710264" cy="200" r="6" fill="none" stroke="red" stroke-width="2" />
<circle cx="1188.1199765710264" cy="200" r="3" fill="red" />
<circle cx="1200.1199765710264" cy="200" r="4" fill="black" />
<circle cx="1212.1199765710264" cy="200" r="6" fill="none" stroke="blue" stroke-width="2" />
<circle cx="1212.1199765710264" cy="200" r="3" fill="blue" />
<circle cx="1224.1199765710264" cy="200" r="4" fill="red" />
<circle cx="1236.1199765710264" cy="200" r="6" fill="none" stroke="black" stroke-width="2" />
<circle cx="1236.1199765710264" cy="200" r="3" fill="black" />
<text x="50" y="225" fill="gray" style="font-size:12px;">2024-10-08T09:06:42+00:00</text>
<text x="900" y="225" fill="gray" style="font-size:12px;">2025-02-28T04:57:58+00:00</text>
</svg>