<svg xmlns="http://www.w3.org/2000/svg" width="1000" height="200" style="background-color: white; font-family: sans-serif;">
<line x1="50" y1="100" x2="950" y2="100" stroke="gray" stroke-width="1"/>
<path d="M 62.0 100 Q 56.0 80, 50.0 100" stroke="black" fill="none" marker-end="url(#arrowhead)"/>
<path d="M 74.0 100 Q 62.0 80, 50.0 100" stroke="black" fill="none" marker-end="url(#arrowhead)"/>
<path d="M 74.0 100 Q 68.0 80, 62.0 100" stroke="black" fill="none" marker-end="url(#arrowhead)"/>
<path d="M 92.89840843105941 100 Q 77.4492042155297 80, 62.0 100" stroke="black" fill="none" marker-end="url(#arrowhead)"/>
<path d="M 104.89840843105941 100 Q 77.4492042155297 80, 50.0 100" stroke="black" fill="none" marker-end="url(#arrowhead)"/>
<path d="M 104.89840843105941 100 Q 83.4492042155297 80, 62.0 100" stroke="black" fill="none" marker-end="url(#arrowhead)"/>
<path d="M 104.89840843105941 100 Q 89.4492042155297 80, 74.0 100" stroke="black" fill="none" marker-end="url(#arrowhead)"/>
<path d="M 220.9702846192419 100 Q 156.93434652515066 80, 92.89840843105941 100" stroke="black" fill="none" marker-end="url(#arrowhead)"/>
<path d="M 284.3449125449058 100 Q 277.601627386616 80, 270.85834222832614 100" stroke="black" fill="none" marker-end="url(#arrowhead)"/>
<path d="M 296.3449125449058 100 Q 290.3449125449058 80, 284.3449125449058 100" stroke="black" fill="none" marker-end="url(#arrowhead)"/>
<path d="M 321.3002457967715 100 Q 315.3002457967715 80, 309.3002457967715 100" stroke="black" fill="none" marker-end="url(#arrowhead)"/>
<path d="M 403.63359782228537 100 Q 362.46692180952846 80, 321.3002457967715 100" stroke="black" fill="none" marker-end="url(#arrowhead)"/>
<path d="M 415.63359782228537 100 Q 368.46692180952846 80, 321.3002457967715 100" stroke="black" fill="none" marker-end="url(#arrowhead)"/>
<path d="M 415.63359782228537 100 Q 409.63359782228537 80, 403.63359782228537 100" stroke="black" fill="none" marker-end="url(#arrowhead)"/>
<path d="M 415.63359782228537 100 Q 362.46692180952846 80, 309.3002457967715 100" stroke="black" fill="none" marker-end="url(#arrowhead)"/>
<path d="M 439.63359782228537 100 Q 433.63359782228537 80, 427.63359782228537 100" stroke="black" fill="none" marker-end="url(#arrowhead)"/>
<path d="M 451.63359782228537 100 Q 439.63359782228537 80, 427.63359782228537 100" stroke="black" fill="none" marker-end="url(#arrowhead)"/>
<path d="M 451.63359782228537 100 Q 445.63359782228537 80, 439.63359782228537 100" stroke="black" fill="none" marker-end="url(#arrowhead)"/>
<path d="M 451.63359782228537 100 Q 380.46692180952846 80, 309.3002457967715 100" stroke="black" fill="none" marker-end="url(#arrowhead)"/>
<path d="M 463.63359782228537 100 Q 439.63359782228537 80, 415.63359782228537 100" stroke="black" fill="none" marker-end="url(#arrowhead)"/>
<path d="M 487.63359782228537 100 Q 451.63359782228537 80, 415.63359782228537 100" stroke="black" fill="none" marker-end="url(#arrowhead)"/>
<path d="M 499.63359782228537 100 Q 487.63359782228537 80, 475.63359782228537 100" stroke="black" fill="none" marker-end="url(#arrowhead)"/>
<path d="M 511.63359782228537 100 Q 499.63359782228537 80, 487.63359782228537 100" stroke="black" fill="none" marker-end="url(#arrowhead)"/>
<path d="M 535.6335978222853 100 Q 529.6335978222853 80, 523.6335978222853 100" stroke="black" fill="none" marker-end="url(#arrowhead)"/>
<path d="M 559.6335978222853 100 Q 553.6335978222853 80, 547.6335978222853 100" stroke="black" fill="none" marker-end="url(#arrowhead)"/>
<path d="M 571.6335978222853 100 Q 565.6335978222853 80, 559.6335978222853 100" stroke="black" fill="none" marker-end="url(#arrowhead)"/>
<path d="M 583.6335978222853 100 Q 577.6335978222853 80, 571.6335978222853 100" stroke="black" fill="none" marker-end="url(#arrowhead)"/>
<path d="M 628.5590614018682 100 Q 594.0963296120767 80, 559.6335978222853 100" stroke="black" fill="none" marker-end="url(#arrowhead)"/>
<path d="M 681.0561125213083 100 Q 671.905928684253 80, 662.7557448471979 100" stroke="black" fill="none" marker-end="url(#arrowhead)"/>
<path d="M 693.0561125213083 100 Q 687.0561125213083 80, 681.0561125213083 100" stroke="black" fill="none" marker-end="url(#arrowhead)"/>
<path d="M 705.0561125213083 100 Q 699.0561125213083 80, 693.0561125213083 100" stroke="black" fill="none" marker-end="url(#arrowhead)"/>
<path d="M 717.0561125213083 100 Q 711.0561125213083 80, 705.0561125213083 100" stroke="black" fill="none" marker-end="url(#arrowhead)"/>
<path d="M 756.1199765710264 100 Q 736.5880445461673 80, 717.0561125213083 100" stroke="black" fill="none" marker-end="url(#arrowhead)"/>
<path d="M 756.1199765710264 100 Q 730.5880445461673 80, 705.0561125213083 100" stroke="black" fill="none" marker-end="url(#arrowhead)"/>
<path d="M 768.1199765710264 100 Q 762.1199765710264 80, 756.1199765710264 100" stroke="black" fill="none" marker-end="url(#arrowhead)"/>
<path d="M 780.1199765710264 100 Q 768.1199765710264 80, 756.1199765710264 100" stroke="black" fill="none" marker-end="url(#arrowhead)"/>
<path d="M 780.1199765710264 100 Q 774.1199765710264 80, 768.1199765710264 100" stroke="black" fill="none" marker-end="url(#arrowhead)"/>
<path d="M 792.1199765710264 100 Q 780.1199765710264 80, 768.1199765710264 100" stroke="black" fill="none" marker-end="url(#arrowhead)"/>
<path d="M 792.1199765710264 100 Q 786.1199765710264 80, 780.1199765710264 100" stroke="black" fill="none" marker-end="url(#arrowhead)"/>
<path d="M 804.1199765710264 100 Q 798.1199765710264 80, 792.1199765710264 100" stroke="black" fill="none" marker-end="url(#arrowhead)"/>
<path d="M 840.1199765710264 100 Q 834.1199765710264 80, 828.1199765710264 100" stroke="black" fill="none" marker-end="url(#arrowhead)"/>
<path d="M 852.1199765710264 100 Q 834.1199765710264 80, 816.1199765710264 100" stroke="black" fill="none" marker-end="url(#arrowhead)"/>
<path d="M 864.1199765710264 100 Q 858.1199765710264 80, 852.1199765710264 100" stroke="black" fill="none" marker-end="url(#arrowhead)"/>
<path d="M 876.1199765710264 100 Q 870.1199765710264 80, 864.1199765710264 100" stroke="black" fill="none" marker-end="url(#arrowhead)"/>
<path d="M 888.1199765710264 100 Q 876.1199765710264 80, 864.1199765710264 100" stroke="black" fill="none" marker-end="url(#arrowhead)"/>
<path d="M 900.1199765710264 100 Q 894.1199765710264 80, 888.1199765710264 100" stroke="black" fill="none" marker-end="url(#arrowhead)"/>
<path d="M 912.1199765710264 100 Q 906.1199765710264 80, 900.1199765710264 100" stroke="black" fill="none" marker-end="url(#arrowhead)"/>
<path d="M 924.1199765710264 100 Q 906.1199765710264 80, 888.1199765710264 100" stroke="black" fill="none" marker-end="url(#arrowhead)"/>
<path d="M 924.1199765710264 100 Q 918.1199765710264 80, 912.1199765710264 100" stroke="black" fill="none" marker-end="url(#arrowhead)"/>
<path d="M 936.1199765710264 100 Q 888.1199765710264 80, 840.1199765710264 100" stroke="black" fill="none" marker-end="url(#arrowhead)"/>
<path d="M 948.1199765710264 100 Q 906.1199765710264 80, 864.1199765710264 100" stroke="black" fill="none" marker-end="url(#arrowhead)"/>
<path d="M 960.1199765710264 100 Q 924.1199765710264 80, 888.1199765710264 100" stroke="black" fill="none" marker-end="url(#arrowhead)"/>
<path d="M 960.1199765710264 100 Q 912.1199765710264 80, 864.1199765710264 100" stroke="black" fill="none" marker-end="url(#arrowhead)"/>
<path d="M 972.1199765710264 100 Q 930.1199765710264 80, 888.1199765710264 100" stroke="black" fill="none" marker-end="url(#arrowhead)"/>
<path d="M 972.1199765710264 100 Q 936.1199765710264 80, 900.1199765710264 100" stroke="black" fill="none" marker-end="url(#arrowhead)"/>
<path d="M 972.1199765710264 100 Q 942.1199765710264 80, 912.1199765710264 100" stroke="black" fill="none" marker-end="url(#arrowhead)"/>
<path d="M 984.1199765710264 100 Q 972.1199765710264 80, 960.1199765710264 100" stroke="black" fill="none" marker-end="url(#arrowhead)"/>
<path d="M 996.1199765710264 100 Q 972.1199765710264 80, 948.1199765710264 100" stroke="black" fill="none" marker-end="url(#arrowhead)"/>
<path d="M 1008.1199765710264 100 Q 1002.1199765710264 80, 996.1199765710264 100" stroke="black" fill="none" marker-end="url(#arrowhead)"/>
<path d="M 1032.1199765710264 100 Q 1026.1199765710264 80, 1020.1199765710264 100" stroke="black" fill="none" marker-end="url(#arrowhead)"/>
<path d="M 1044.1199765710264 100 Q 1038.1199765710264 80, 1032.1199765710264 100" stroke="black" fill="none" marker-end="url(#arrowhead)"/>
<path d="M 1056.1199765710264 100 Q 1044.1199765710264 80, 1032.1199765710264 100" stroke="black" fill="none" marker-end="url(#arrowhead)"/>
<path d="M 1068.1199765710264 100 Q 1062.1199765710264 80, 1056.1199765710264 100" stroke="black" fill="none" marker-end="url(#arrowhead)"/>
<path d="M 1080.1199765710264 100 Q 1050.1199765710264 80, 1020.1199765710264 100" stroke="black" fill="none" marker-end="url(#arrowhead)"/>
<path d="M 1080.1199765710264 100 Q 1056.1199765710264 80, 1032.1199765710264 100" stroke="black" fill="none" marker-end="url(#arrowhead)"/>
<path d="M 1092.1199765710264 100 Q 1074.1199765710264 80, 1056.1199765710264 100" stroke="black" fill="none" marker-end="url(#arrowhead)"/>
<path d="M 1092.1199765710264 100 Q 1080.1199765710264 80, 1068.1199765710264 100" stroke="black" fill="none" marker-end="url(#arrowhead)"/>
<path d="M 1104.1199765710264 100 Q 1098.1199765710264 80, 1092.1199765710264 100" stroke="black" fill="none" marker-end="url(#arrowhead)"/>
<path d="M 1116.1199765710264 100 Q 1110.1199765710264 80, 1104.1199765710264 100" stroke="black" fill="none" marker-end="url(#arrowhead)"/>
<path d="M 1128.1199765710264 100 Q 1122.1199765710264 80, 1116.1199765710264 100" stroke="black" fill="none" marker-end="url(#arrowhead)"/>
<path d="M 1140.1199765710264 100 Q 1134.1199765710264 80, 1128.1199765710264 100" stroke="black" fill="none" marker-end="url(#arrowhead)"/>
<path d="M 1152.1199765710264 100 Q 1140.1199765710264 80, 1128.1199765710264 100" stroke="black" fill="none" marker-end="url(#arrowhead)"/>
<path d="M 1164.1199765710264 100 Q 1086.1199765710264 80, 1008.1199765710264 100" stroke="black" fill="none" marker-end="url(#arrowhead)"/>
<path d="M 1176.1199765710264 100 Q 1170.1199765710264 80, 1164.1199765710264 100" stroke="black" fill="none" marker-end="url(#arrowhead)"/>
<path d="M 1188.1199765710264 100 Q 1182.1199765710264 80, 1176.1199765710264 100" stroke="black" fill="none" marker-end="url(#arrowhead)"/>
<path d="M 1200.1199765710264 100 Q 1194.1199765710264 80, 1188.1199765710264 100" stroke="black" fill="none" marker-end="url(#arrowhead)"/>
<path d="M 1212.1199765710264 100 Q 1206.1199765710264 80, 1200.1199765710264 100" stroke="black" fill="none" marker-end="url(#arrowhead)"/>
<path d="M 1224.1199765710264 100 Q 1218.1199765710264 80, 1212.1199765710264 100" stroke="black" fill="none" marker-end="url(#arrowhead)"/>
<path d="M 1236.1199765710264 100 Q 1230.1199765710264 80, 1224.1199765710264 100" stroke="black" fill="none" marker-end="url(#arrowhead)"/>

<defs>
  <marker id="arrowhead" markerWidth="5" markerHeight="5" 
          refX="2" refY="2" orient="auto" fill="black">
    <path d="M0,0 L0,4 L4,2 z" />
  </marker>
</defs>

<circle cx="50.0" cy="100" r="6" fill="none" stroke="blue" stroke-width="2" />
<circle cx="50.0" cy="100" r="3" fill="blue" />
<circle cx="62.0" cy="100" r="4" fill="green" />
<circle cx="74.0" cy="100" r="4" fill="black" />
<circle cx="92.89840843105941" cy="100" r="6" fill="none" stroke="green" stroke-width="2" />
<circle cx="92.89840843105941" cy="100" r="3" fill="green" />
<circle cx="104.89840843105941" cy="100" r="6" fill="none" stroke="green" stroke-width="2" />
<circle cx="104.89840843105941" cy="100" r="3" fill="green" />
<circle cx="220.9702846192419" cy="100" r="6" fill="none" stroke="blue" stroke-width="2" />
<circle cx="220.9702846192419" cy="100" r="3" fill="blue" />
<circle cx="270.85834222832614" cy="100" r="4" fill="red" />
<circle cx="284.3449125449058" cy="100" r="6" fill="none" stroke="blue" stroke-width="2" />
<circle cx="284.3449125449058" cy="100" r="3" fill="blue" />
<circle cx="296.3449125449058" cy="100" r="6" fill="none" stroke="blue" stroke-width="2" />
<circle cx="296.3449125449058" cy="100" r="3" fill="blue" />
<circle cx="309.3002457967715" cy="100" r="4" fill="blue" />
<circle cx="321.3002457967715" cy="100" r="4" fill="red" />
<circle cx="403.63359782228537" cy="100" r="6" fill="none" stroke="blue" stroke-width="2" />
<circle cx="403.63359782228537" cy="100" r="3" fill="blue" />
<circle cx="415.63359782228537" cy="100" r="4" fill="red" />
<circle cx="427.63359782228537" cy="100" r="4" fill="red" />
<circle cx="439.63359782228537" cy="100" r="4" fill="red" />
<circle cx="451.63359782228537" cy="100" r="6" fill="none" stroke="blue" stroke-width="2" />
<circle cx="451.63359782228537" cy="100" r="3" fill="blue" />
<circle cx="463.63359782228537" cy="100" r="6" fill="none" stroke="blue" stroke-width="2" />
<circle cx="463.63359782228537" cy="100" r="3" fill="blue" />
<circle cx="475.63359782228537" cy="100" r="4" fill="blue" />
<circle cx="487.63359782228537" cy="100" r="4" fill="red" />
<circle cx="499.63359782228537" cy="100" r="6" fill="none" stroke="red" stroke-width="2" />
<circle cx="499.63359782228537" cy="100" r="3" fill="red" />
<circle cx="511.63359782228537" cy="100" r="6" fill="none" stroke="blue" stroke-width="2" />
<circle cx="511.63359782228537" cy="100" r="3" fill="blue" />
<circle cx="523.6335978222853" cy="100" r="4" fill="blue" />
<circle cx="535.6335978222853" cy="100" r="6" fill="none" stroke="blue" stroke-width="2" />
<circle cx="535.6335978222853" cy="100" r="3" fill="blue" />
<circle cx="547.6335978222853" cy="100" r="4" fill="red" />
<circle cx="559.6335978222853" cy="100" r="6" fill="none" stroke="blue" stroke-width="2" />
<circle cx="559.6335978222853" cy="100" r="3" fill="blue" />
<circle cx="571.6335978222853" cy="100" r="4" fill="red" />
<circle cx="583.6335978222853" cy="100" r="6" fill="none" stroke="red" stroke-width="2" />
<circle cx="583.6335978222853" cy="100" r="3" fill="red" />
<circle cx="628.5590614018682" cy="100" r="4" fill="black" />
<circle cx="650.7557448471979" cy="100" r="4" fill="blue" />
<circle cx="662.7557448471979" cy="100" r="6" fill="none" stroke="green" stroke-width="2" />
<circle cx="662.7557448471979" cy="100" r="3" fill="green" />
<circle cx="681.0561125213083" cy="100" r="4" fill="black" />
<circle cx="693.0561125213083" cy="100" r="6" fill="none" stroke="black" stroke-width="2" />
<circle cx="693.0561125213083" cy="100" r="3" fill="black" />
<circle cx="705.0561125213083" cy="100" r="6" fill="none" stroke="blue" stroke-width="2" />
<circle cx="705.0561125213083" cy="100" r="3" fill="blue" />
<circle cx="717.0561125213083" cy="100" r="6" fill="none" stroke="blue" stroke-width="2" />
<circle cx="717.0561125213083" cy="100" r="3" fill="blue" />
<circle cx="756.1199765710264" cy="100" r="4" fill="red" />
<circle cx="768.1199765710264" cy="100" r="6" fill="none" stroke="red" stroke-width="2" />
<circle cx="768.1199765710264" cy="100" r="3" fill="red" />
<circle cx="780.1199765710264" cy="100" r="4" fill="red" />
<circle cx="792.1199765710264" cy="100" r="6" fill="none" stroke="blue" stroke-width="2" />
<circle cx="792.1199765710264" cy="100" r="3" fill="blue" />
<circle cx="804.1199765710264" cy="100" r="4" fill="black" />
<circle cx="816.1199765710264" cy="100" r="4" fill="black" />
<circle cx="828.1199765710264" cy="100" r="4" fill="red" />
<circle cx="840.1199765710264" cy="100" r="6" fill="none" stroke="black" stroke-width="2" />
<circle cx="840.1199765710264" cy="100" r="3" fill="black" />
<circle cx="852.1199765710264" cy="100" r="6" fill="none" stroke="black" stroke-width="2" />
<circle cx="852.1199765710264" cy="100" r="3" fill="black" />
<circle cx="864.1199765710264" cy="100" r="4" fill="black" />
<circle cx="876.1199765710264" cy="100" r="6" fill="none" stroke="green" stroke-width="2" />
<circle cx="876.1199765710264" cy="100" r="3" fill="green" />
<circle cx="888.1199765710264" cy="100" r="4" fill="red" />
<circle cx="900.1199765710264" cy="100" r="4" fill="black" />
<circle cx="912.1199765710264" cy="100" r="4" fill="red" />
<circle cx="924.1199765710264" cy="100" r="4" fill="black" />
<circle cx="936.1199765710264" cy="100" r="6" fill="none" stroke="blue" stroke-width="2" />
<circle cx="936.1199765710264" cy="100" r="3" fill="blue" />
<circle cx="948.1199765710264" cy="100" r="4" fill="green" />
<circle cx="960.1199765710264" cy="100" r="4" fill="black" />
<circle cx="972.1199765710264" cy="100" r="4" fill="black" />
<circle cx="984.1199765710264" cy="100" r="4" fill="red" />
<circle cx="996.1199765710264" cy="100" r="6" fill="none" stroke="blue" stroke-width="2" />
<circle cx="996.1199765710264" cy="100" r="3" fill="blue" />
<circle cx="1008.1199765710264" cy="100" r="4" fill="red" />
<circle cx="1020.1199765710264" cy="100" r="4" fill="red" />
<circle cx="1032.1199765710264" cy="100" r="4" fill="black" />
<circle cx="1044.1199765710264" cy="100" r="4" fill="red" />
<circle cx="1056.1199765710264" cy="100" r="4" fill="black" />
<circle cx="1068.1199765710264" cy="100" r="4" fill="black" />
<circle cx="1080.1199765710264" cy="100" r="4" fill="black" />
<circle cx="1092.1199765710264" cy="100" r="4" fill="red" />
<circle cx="1104.1199765710264" cy="100" r="4" fill="red" />
<circle cx="1116.1199765710264" cy="100" r="4" fill="black" />
<circle cx="1128.1199765710264" cy="100" r="4" fill="black" />
<circle cx="1140.1199765710264" cy="100" r="4" fill="red" />
<circle cx="1152.1199765710264" cy="100" r="6" fill="none" stroke="black" stroke-width="2" />
<circle cx="1152.1199765710264" cy="100" r="3" fill="black" />
<circle cx="1164.1199765710264" cy="100" r="6" fill="none" stroke="blue" stroke-width="2" />
<circle cx="1164.1199765710264" cy="100" r="3" fill="blue" />
<circle cx="1176.1199765710264" cy="100" r="4" fill="blue" />
<circle cx="1188.1199765710264" cy="100" r="6" fill="none" stroke="red" stroke-width="2" />
<circle cx="1188.1199765710264" cy="100" r="3" fill="red" />
<circle cx="1200.1199765710264" cy="100" r="4" fill="black" />
<circle cx="1212.1199765710264" cy="100" r="6" fill="none" stroke="blue" stroke-width="2" />
<circle cx="1212.1199765710264" cy="100" r="3" fill="blue" />
<circle cx="1224.1199765710264" cy="100" r="4" fill="red" />
<circle cx="1236.1199765710264" cy="100" r="6" fill="none" stroke="black" stroke-width="2" />
<circle cx="1236.1199765710264" cy="100" r="3" fill="black" />
<text x="50" y="125" fill="gray" style="font-size:12px;">2024-10-08T09:06:42+00:00</text>
<text x="900" y="125" fill="gray" style="font-size:12px;">2025-02-28T04:57:58+00:00</text>
</svg>