<svg xmlns="http://www.w3.org/2000/svg" width="1000" height="400" style="background-color: white; font-family: sans-serif;">
<line x1="50" y1="200" x2="950" y2="200" stroke="gray" stroke-width="1"/>
<path d="M 62.0 200 Q 56.0 180, 50.0 200" stroke="black" fill="none" marker-end="url(#arrowhead)"/>
<path d="M 98.0 200 Q 86.0 180, 74.0 200" stroke="black" fill="none" marker-end="url(#arrowhead)"/>
<path d="M 98.0 200 Q 92.0 180, 86.0 200" stroke="black" fill="none" marker-end="url(#arrowhead)"/>
<path d="M 110.0 200 Q 92.0 180, 74.0 200" stroke="black" fill="none" marker-end="url(#arrowhead)"/>
<path d="M 122.0 200 Q 110.0 180, 98.0 200" stroke="black" fill="none" marker-end="url(#arrowhead)"/>
<path d="M 134.0 200 Q 104.0 180, 74.0 200" stroke="black" fill="none" marker-end="url(#arrowhead)"/>
<path d="M 134.0 200 Q 110.0 180, 86.0 200" stroke="black" fill="none" marker-end="url(#arrowhead)"/>
<path d="M 134.0 200 Q 116.0 180, 98.0 200" stroke="black" fill="none" marker-end="url(#arrowhead)"/>
<path d="M 134.0 200 Q 128.0 180, 122.0 200" stroke="black" fill="none" marker-end="url(#arrowhead)"/>
<path d="M 146.0 200 Q 140.0 180, 134.0 200" stroke="black" fill="none" marker-end="url(#arrowhead)"/>
<path d="M 158.0 200 Q 134.0 180, 110.0 200" stroke="black" fill="none" marker-end="url(#arrowhead)"/>
<path d="M 170.0 200 Q 164.0 180, 158.0 200" stroke="black" fill="none" marker-end="url(#arrowhead)"/>
<path d="M 182.0 200 Q 176.0 180, 170.0 200" stroke="black" fill="none" marker-end="url(#arrowhead)"/>
<path d="M 194.0 200 Q 188.0 180, 182.0 200" stroke="black" fill="none" marker-end="url(#arrowhead)"/>
<path d="M 206.0 200 Q 194.0 180, 182.0 200" stroke="black" fill="none" marker-end="url(#arrowhead)"/>
<path d="M 206.0 200 Q 134.0 180, 62.0 200" stroke="black" fill="none" marker-end="url(#arrowhead)"/>
<path d="M 218.0 200 Q 206.0 180, 194.0 200" stroke="black" fill="none" marker-end="url(#arrowhead)"/>
<path d="M 230.0 200 Q 224.0 180, 218.0 200" stroke="black" fill="none" marker-end="url(#arrowhead)"/>
<path d="M 242.0 200 Q 236.0 180, 230.0 200" stroke="black" fill="none" marker-end="url(#arrowhead)"/>
<path d="M 254.0 200 Q 248.0 180, 242.0 200" stroke="black" fill="none" marker-end="url(#arrowhead)"/>
<path d="M 266.0 200 Q 254.0 180, 242.0 200" stroke="black" fill="none" marker-end="url(#arrowhead)"/>
<path d="M 278.0 200 Q 266.0 180, 254.0 200" stroke="black" fill="none" marker-end="url(#arrowhead)"/>
<path d="M 290.0 200 Q 284.0 180, 278.0 200" stroke="black" fill="none" marker-end="url(#arrowhead)"/>
<path d="M 302.0 200 Q 296.0 180, 290.0 200" stroke="black" fill="none" marker-end="url(#arrowhead)"/>
<path d="M 314.0 200 Q 266.0 180, 218.0 200" stroke="black" fill="none" marker-end="url(#arrowhead)"/>
<path d="M 314.0 200 Q 272.0 180, 230.0 200" stroke="black" fill="none" marker-end="url(#arrowhead)"/>
<path d="M 326.0 200 Q 308.0 180, 290.0 200" stroke="black" fill="none" marker-end="url(#arrowhead)"/>
<path d="M 326.0 200 Q 194.0 180, 62.0 200" stroke="black" fill="none" marker-end="url(#arrowhead)"/>
<path d="M 338.0 200 Q 320.0 180, 302.0 200" stroke="black" fill="none" marker-end="url(#arrowhead)"/>
<path d="M 338.0 200 Q 332.0 180, 326.0 200" stroke="black" fill="none" marker-end="url(#arrowhead)"/>
<path d="M 350.0 200 Q 332.0 180, 314.0 200" stroke="black" fill="none" marker-end="url(#arrowhead)"/>
<path d="M 350.0 200 Q 296.0 180, 242.0 200" stroke="black" fill="none" marker-end="url(#arrowhead)"/>
<path d="M 362.0 200 Q 356.0 180, 350.0 200" stroke="black" fill="none" marker-end="url(#arrowhead)"/>
<path d="M 374.0 200 Q 290.0 180, 206.0 200" stroke="black" fill="none" marker-end="url(#arrowhead)"/>
<path d="M 386.0 200 Q 380.0 180, 374.0 200" stroke="black" fill="none" marker-end="url(#arrowhead)"/>
<path d="M 386.0 200 Q 224.0 180, 62.0 200" stroke="black" fill="none" marker-end="url(#arrowhead)"/>
<path d="M 398.0 200 Q 308.0 180, 218.0 200" stroke="black" fill="none" marker-end="url(#arrowhead)"/>
<path d="M 398.0 200 Q 320.0 180, 242.0 200" stroke="black" fill="none" marker-end="url(#arrowhead)"/>
<path d="M 398.0 200 Q 374.0 180, 350.0 200" stroke="black" fill="none" marker-end="url(#arrowhead)"/>
<path d="M 398.0 200 Q 356.0 180, 314.0 200" stroke="black" fill="none" marker-end="url(#arrowhead)"/>
<path d="M 398.0 200 Q 314.0 180, 230.0 200" stroke="black" fill="none" marker-end="url(#arrowhead)"/>
<path d="M 410.0 200 Q 404.0 180, 398.0 200" stroke="black" fill="none" marker-end="url(#arrowhead)"/>
<path d="M 422.0 200 Q 416.0 180, 410.0 200" stroke="black" fill="none" marker-end="url(#arrowhead)"/>
<path d="M 434.0 200 Q 428.0 180, 422.0 200" stroke="black" fill="none" marker-end="url(#arrowhead)"/>
<path d="M 446.0 200 Q 416.0 180, 386.0 200" stroke="black" fill="none" marker-end="url(#arrowhead)"/>
<path d="M 446.0 200 Q 254.0 180, 62.0 200" stroke="black" fill="none" marker-end="url(#arrowhead)"/>
<path d="M 458.0 200 Q 452.0 180, 446.0 200" stroke="black" fill="none" marker-end="url(#arrowhead)"/>
<path d="M 470.0 200 Q 464.0 180, 458.0 200" stroke="black" fill="none" marker-end="url(#arrowhead)"/>
<path d="M 470.0 200 Q 266.0 180, 62.0 200" stroke="black" fill="none" marker-end="url(#arrowhead)"/>
<path d="M 482.0 200 Q 476.0 180, 470.0 200" stroke="black" fill="none" marker-end="url(#arrowhead)"/>
<path d="M 494.0 200 Q 488.0 180, 482.0 200" stroke="black" fill="none" marker-end="url(#arrowhead)"/>
<path d="M 518.0 200 Q 512.0 180, 506.0 200" stroke="black" fill="none" marker-end="url(#arrowhead)"/>
<path d="M 530.0 200 Q 524.0 180, 518.0 200" stroke="black" fill="none" marker-end="url(#arrowhead)"/>
<path d="M 792.0671723193223 200 Q 655.0335861596611 180, 518.0 200" stroke="black" fill="none" marker-end="url(#arrowhead)"/>
<path d="M 792.0671723193223 200 Q 661.0335861596611 180, 530.0 200" stroke="black" fill="none" marker-end="url(#arrowhead)"/>
<path d="M 858.7539472575204 200 Q 825.4105597884213 180, 792.0671723193223 200" stroke="black" fill="none" marker-end="url(#arrowhead)"/>
<path d="M 870.7539472575204 200 Q 864.7539472575204 180, 858.7539472575204 200" stroke="black" fill="none" marker-end="url(#arrowhead)"/>
<path d="M 870.7539472575204 200 Q 831.4105597884213 180, 792.0671723193223 200" stroke="black" fill="none" marker-end="url(#arrowhead)"/>
<path d="M 882.7539472575204 200 Q 876.7539472575204 180, 870.7539472575204 200" stroke="black" fill="none" marker-end="url(#arrowhead)"/>
<path d="M 906.7539472575204 200 Q 888.7539472575204 180, 870.7539472575204 200" stroke="black" fill="none" marker-end="url(#arrowhead)"/>
<path d="M 906.7539472575204 200 Q 894.7539472575204 180, 882.7539472575204 200" stroke="black" fill="none" marker-end="url(#arrowhead)"/>
<path d="M 918.7539472575204 200 Q 894.7539472575204 180, 870.7539472575204 200" stroke="black" fill="none" marker-end="url(#arrowhead)"/>
<path d="M 930.7539472575204 200 Q 924.7539472575204 180, 918.7539472575204 200" stroke="black" fill="none" marker-end="url(#arrowhead)"/>
<path d="M 942.7539472575204 200 Q 936.7539472575204 180, 930.7539472575204 200" stroke="black" fill="none" marker-end="url(#arrowhead)"/>
<path d="M 942.7539472575204 200 Q 502.3769736287602 180, 62.0 200" stroke="black" fill="none" marker-end="url(#arrowhead)"/>
<path d="M 954.7539472575204 200 Q 948.7539472575204 180, 942.7539472575204 200" stroke="black" fill="none" marker-end="url(#arrowhead)"/>
<path d="M 954.7539472575204 200 Q 508.3769736287602 180, 62.0 200" stroke="black" fill="none" marker-end="url(#arrowhead)"/>
<path d="M 966.7539472575204 200 Q 954.7539472575204 180, 942.7539472575204 200" stroke="black" fill="none" marker-end="url(#arrowhead)"/>
<path d="M 966.7539472575204 200 Q 514.3769736287602 180, 62.0 200" stroke="black" fill="none" marker-end="url(#arrowhead)"/>
<path d="M 978.7539472575204 200 Q 972.7539472575204 180, 966.7539472575204 200" stroke="black" fill="none" marker-end="url(#arrowhead)"/>
<path d="M 990.7539472575204 200 Q 972.7539472575204 180, 954.7539472575204 200" stroke="black" fill="none" marker-end="url(#arrowhead)"/>
<path d="M 1002.7539472575204 200 Q 990.7539472575204 180, 978.7539472575204 200" stroke="black" fill="none" marker-end="url(#arrowhead)"/>
<path d="M 1014.7539472575204 200 Q 1002.7539472575204 180, 990.7539472575204 200" stroke="black" fill="none" marker-end="url(#arrowhead)"/>
<path d="M 1026.7539472575204 200 Q 1020.7539472575204 180, 1014.7539472575204 200" stroke="black" fill="none" marker-end="url(#arrowhead)"/>
<path d="M 1026.7539472575204 200 Q 990.7539472575204 180, 954.7539472575204 200" stroke="black" fill="none" marker-end="url(#arrowhead)"/>
<path d="M 1026.7539472575204 200 Q 544.3769736287602 180, 62.0 200" stroke="black" fill="none" marker-end="url(#arrowhead)"/>
<path d="M 1038.7539472575204 200 Q 1032.7539472575204 180, 1026.7539472575204 200" stroke="black" fill="none" marker-end="url(#arrowhead)"/>
<path d="M 1050.7539472575204 200 Q 1044.7539472575204 180, 1038.7539472575204 200" stroke="black" fill="none" marker-end="url(#arrowhead)"/>
<path d="M 1050.7539472575204 200 Q 556.3769736287602 180, 62.0 200" stroke="black" fill="none" marker-end="url(#arrowhead)"/>
<path d="M 1062.7539472575204 200 Q 1056.7539472575204 180, 1050.7539472575204 200" stroke="black" fill="none" marker-end="url(#arrowhead)"/>
<path d="M 1074.7539472575204 200 Q 1068.7539472575204 180, 1062.7539472575204 200" stroke="black" fill="none" marker-end="url(#arrowhead)"/>
<path d="M 1074.7539472575204 200 Q 568.3769736287602 180, 62.0 200" stroke="black" fill="none" marker-end="url(#arrowhead)"/>
<path d="M 1086.7539472575204 200 Q 1080.7539472575204 180, 1074.7539472575204 200" stroke="black" fill="none" marker-end="url(#arrowhead)"/>
<path d="M 1098.7539472575204 200 Q 1092.7539472575204 180, 1086.7539472575204 200" stroke="black" fill="none" marker-end="url(#arrowhead)"/>
<path d="M 1110.7539472575204 200 Q 1104.7539472575204 180, 1098.7539472575204 200" stroke="black" fill="none" marker-end="url(#arrowhead)"/>
<path d="M 1122.7539472575204 200 Q 1116.7539472575204 180, 1110.7539472575204 200" stroke="black" fill="none" marker-end="url(#arrowhead)"/>
<path d="M 1134.7539472575204 200 Q 1128.7539472575204 180, 1122.7539472575204 200" stroke="black" fill="none" marker-end="url(#arrowhead)"/>
<path d="M 1146.7539472575204 200 Q 1140.7539472575204 180, 1134.7539472575204 200" stroke="black" fill="none" marker-end="url(#arrowhead)"/>
<path d="M 1146.7539472575204 200 Q 1116.7539472575204 180, 1086.7539472575204 200" stroke="black" fill="none" marker-end="url(#arrowhead)"/>
<path d="M 1158.7539472575204 200 Q 1146.7539472575204 180, 1134.7539472575204 200" stroke="black" fill="none" marker-end="url(#arrowhead)"/>
<path d="M 1158.7539472575204 200 Q 1152.7539472575204 180, 1146.7539472575204 200" stroke="black" fill="none" marker-end="url(#arrowhead)"/>
<path d="M 1170.7539472575204 200 Q 1158.7539472575204 180, 1146.7539472575204 200" stroke="black" fill="none" marker-end="url(#arrowhead)"/>
<path d="M 1182.7539472575204 200 Q 1176.7539472575204 180, 1170.7539472575204 200" stroke="black" fill="none" marker-end="url(#arrowhead)"/>
<path d="M 1194.7539472575204 200 Q 1188.7539472575204 180, 1182.7539472575204 200" stroke="black" fill="none" marker-end="url(#arrowhead)"/>
<path d="M 1206.7539472575204 200 Q 1200.7539472575204 180, 1194.7539472575204 200" stroke="black" fill="none" marker-end="url(#arrowhead)"/>
<path d="M 1218.7539472575204 200 Q 1206.7539472575204 180, 1194.7539472575204 200" stroke="black" fill="none" marker-end="url(#arrowhead)"/>
<path d="M 1230.7539472575204 200 Q 1224.7539472575204 180, 1218.7539472575204 200" stroke="black" fill="none" marker-end="url(#arrowhead)"/>
<path d="M 1230.7539472575204 200 Q 1206.7539472575204 180, 1182.7539472575204 200" stroke="black" fill="none" marker-end="url(#arrowhead)"/>
<path d="M 1242.7539472575204 200 Q 1236.7539472575204 180, 1230.7539472575204 200" stroke="black" fill="none" marker-end="url(#arrowhead)"/>
<path d="M 1254.7539472575204 200 Q 1248.7539472575204 180, 1242.7539472575204 200" stroke="black" fill="none" marker-end="url(#arrowhead)"/>
<path d="M 1254.7539472575204 200 Q 658.3769736287602 180, 62.0 200" stroke="black" fill="none" marker-end="url(#arrowhead)"/>

<defs>
  <marker id="arrowhead" markerWidth="5" markerHeight="5" 
          refX="2" refY="2" orient="auto" fill="black">
    <path d="M0,0 L0,4 L4,2 z" />
  </marker>
</defs>

<circle cx="50.0" cy="200" r="6" fill="none" stroke="blue" stroke-width="2" />
<circle cx="50.0" cy="200" r="3" fill="blue" />
<circle cx="62.0" cy="200" r="6" fill="none" stroke="blue" stroke-width="2" />
<circle cx="62.0" cy="200" r="3" fill="blue" />
<circle cx="74.0" cy="200" r="4" fill="red" />
<circle cx="86.0" cy="200" r="4" fill="red" />
<circle cx="98.0" cy="200" r="4" fill="black" />
<circle cx="110.0" cy="200" r="6" fill="none" stroke="blue" stroke-width="2" />
<circle cx="110.0" cy="200" r="3" fill="blue" />
<circle cx="122.0" cy="200" r="6" fill="none" stroke="black" stroke-width="2" />
<circle cx="122.0" cy="200" r="3" fill="black" />
<circle cx="134.0" cy="200" r="4" fill="black" />
<circle cx="146.0" cy="200" r="6" fill="none" stroke="black" stroke-width="2" />
<circle cx="146.0" cy="200" r="3" fill="black" />
<circle cx="158.0" cy="200" r="4" fill="blue" />
<circle cx="170.0" cy="200" r="6" fill="none" stroke="blue" stroke-width="2" />
<circle cx="170.0" cy="200" r="3" fill="blue" />
<circle cx="182.0" cy="200" r="6" fill="none" stroke="blue" stroke-width="2" />
<circle cx="182.0" cy="200" r="3" fill="blue" />
<circle cx="194.0" cy="200" r="4" fill="blue" />
<circle cx="206.0" cy="200" r="6" fill="none" stroke="blue" stroke-width="2" />
<circle cx="206.0" cy="200" r="3" fill="blue" />
<circle cx="218.0" cy="200" r="6" fill="none" stroke="red" stroke-width="2" />
<circle cx="218.0" cy="200" r="3" fill="red" />
<circle cx="230.0" cy="200" r="6" fill="none" stroke="blue" stroke-width="2" />
<circle cx="230.0" cy="200" r="3" fill="blue" />
<circle cx="242.0" cy="200" r="4" fill="red" />
<circle cx="254.0" cy="200" r="4" fill="black" />
<circle cx="266.0" cy="200" r="6" fill="none" stroke="black" stroke-width="2" />
<circle cx="266.0" cy="200" r="3" fill="black" />
<circle cx="278.0" cy="200" r="6" fill="none" stroke="black" stroke-width="2" />
<circle cx="278.0" cy="200" r="3" fill="black" />
<circle cx="290.0" cy="200" r="4" fill="black" />
<circle cx="302.0" cy="200" r="4" fill="black" />
<circle cx="314.0" cy="200" r="4" fill="blue" />
<circle cx="326.0" cy="200" r="6" fill="none" stroke="black" stroke-width="2" />
<circle cx="326.0" cy="200" r="3" fill="black" />
<circle cx="338.0" cy="200" r="6" fill="none" stroke="black" stroke-width="2" />
<circle cx="338.0" cy="200" r="3" fill="black" />
<circle cx="350.0" cy="200" r="6" fill="none" stroke="red" stroke-width="2" />
<circle cx="350.0" cy="200" r="3" fill="red" />
<circle cx="362.0" cy="200" r="6" fill="none" stroke="black" stroke-width="2" />
<circle cx="362.0" cy="200" r="3" fill="black" />
<circle cx="374.0" cy="200" r="6" fill="none" stroke="black" stroke-width="2" />
<circle cx="374.0" cy="200" r="3" fill="black" />
<circle cx="386.0" cy="200" r="4" fill="black" />
<circle cx="398.0" cy="200" r="4" fill="blue" />
<circle cx="410.0" cy="200" r="6" fill="none" stroke="red" stroke-width="2" />
<circle cx="410.0" cy="200" r="3" fill="red" />
<circle cx="422.0" cy="200" r="4" fill="green" />
<circle cx="434.0" cy="200" r="6" fill="none" stroke="green" stroke-width="2" />
<circle cx="434.0" cy="200" r="3" fill="green" />
<circle cx="446.0" cy="200" r="6" fill="none" stroke="blue" stroke-width="2" />
<circle cx="446.0" cy="200" r="3" fill="blue" />
<circle cx="458.0" cy="200" r="4" fill="black" />
<circle cx="470.0" cy="200" r="6" fill="none" stroke="blue" stroke-width="2" />
<circle cx="470.0" cy="200" r="3" fill="blue" />
<circle cx="482.0" cy="200" r="4" fill="black" />
<circle cx="494.0" cy="200" r="6" fill="none" stroke="black" stroke-width="2" />
<circle cx="494.0" cy="200" r="3" fill="black" />
<circle cx="506.0" cy="200" r="4" fill="black" />
<circle cx="518.0" cy="200" r="4" fill="green" />
<circle cx="530.0" cy="200" r="4" fill="blue" />
<circle cx="792.0671723193223" cy="200" r="4" fill="black" />
<circle cx="858.7539472575204" cy="200" r="6" fill="none" stroke="blue" stroke-width="2" />
<circle cx="858.7539472575204" cy="200" r="3" fill="blue" />
<circle cx="870.7539472575204" cy="200" r="4" fill="black" />
<circle cx="882.7539472575204" cy="200" r="4" fill="black" />
<circle cx="894.7539472575204" cy="200" r="4" fill="blue" />
<circle cx="906.7539472575204" cy="200" r="4" fill="black" />
<circle cx="918.7539472575204" cy="200" r="6" fill="none" stroke="blue" stroke-width="2" />
<circle cx="918.7539472575204" cy="200" r="3" fill="blue" />
<circle cx="930.7539472575204" cy="200" r="6" fill="none" stroke="blue" stroke-width="2" />
<circle cx="930.7539472575204" cy="200" r="3" fill="blue" />
<circle cx="942.7539472575204" cy="200" r="6" fill="none" stroke="blue" stroke-width="2" />
<circle cx="942.7539472575204" cy="200" r="3" fill="blue" />
<circle cx="954.7539472575204" cy="200" r="4" fill="red" />
<circle cx="966.7539472575204" cy="200" r="6" fill="none" stroke="blue" stroke-width="2" />
<circle cx="966.7539472575204" cy="200" r="3" fill="blue" />
<circle cx="978.7539472575204" cy="200" r="4" fill="red" />
<circle cx="990.7539472575204" cy="200" r="6" fill="none" stroke="blue" stroke-width="2" />
<circle cx="990.7539472575204" cy="200" r="3" fill="blue" />
<circle cx="1002.7539472575204" cy="200" r="6" fill="none" stroke="blue" stroke-width="2" />
<circle cx="1002.7539472575204" cy="200" r="3" fill="blue" />
<circle cx="1014.7539472575204" cy="200" r="4" fill="red" />
<circle cx="1026.7539472575204" cy="200" r="6" fill="none" stroke="blue" stroke-width="2" />
<circle cx="1026.7539472575204" cy="200" r="3" fill="blue" />
<circle cx="1038.7539472575204" cy="200" r="6" fill="none" stroke="black" stroke-width="2" />
<circle cx="1038.7539472575204" cy="200" r="3" fill="black" />
<circle cx="1050.7539472575204" cy="200" r="6" fill="none" stroke="black" stroke-width="2" />
<circle cx="1050.7539472575204" cy="200" r="3" fill="black" />
<circle cx="1062.7539472575204" cy="200" r="4" fill="blue" />
<circle cx="1074.7539472575204" cy="200" r="4" fill="blue" />
<circle cx="1086.7539472575204" cy="200" r="4" fill="green" />
<circle cx="1098.7539472575204" cy="200" r="4" fill="black" />
<circle cx="1110.7539472575204" cy="200" r="6" fill="none" stroke="green" stroke-width="2" />
<circle cx="1110.7539472575204" cy="200" r="3" fill="green" />
<circle cx="1122.7539472575204" cy="200" r="4" fill="green" />
<circle cx="1134.7539472575204" cy="200" r="4" fill="red" />
<circle cx="1146.7539472575204" cy="200" r="6" fill="none" stroke="blue" stroke-width="2" />
<circle cx="1146.7539472575204" cy="200" r="3" fill="blue" />
<circle cx="1158.7539472575204" cy="200" r="4" fill="green" />
<circle cx="1170.7539472575204" cy="200" r="4" fill="blue" />
<circle cx="1182.7539472575204" cy="200" r="4" fill="red" />
<circle cx="1194.7539472575204" cy="200" r="4" fill="red" />
<circle cx="1206.7539472575204" cy="200" r="4" fill="black" />
<circle cx="1218.7539472575204" cy="200" r="4" fill="black" />
<circle cx="1230.7539472575204" cy="200" r="6" fill="none" stroke="green" stroke-width="2" />
<circle cx="1230.7539472575204" cy="200" r="3" fill="green" />
<circle cx="1242.7539472575204" cy="200" r="4" fill="blue" />
<circle cx="1254.7539472575204" cy="200" r="4" fill="blue" />
<text x="50" y="225" fill="gray" style="font-size:12px;">2023-12-31T18:28:16+00:00</text>
<text x="900" y="225" fill="gray" style="font-size:12px;">2025-02-28T02:13:46+00:00</text>
</svg>