<svg xmlns="http://www.w3.org/2000/svg" width="1000" height="400" style="background-color: white; font-family: sans-serif;">
<line x1="50" y1="200" x2="950" y2="200" stroke="gray" stroke-width="1"/>
<path d="M 62.0 200 Q 56.0 180, 50.0 200" stroke="black" fill="none" marker-end="url(#arrowhead)"/>
<path d="M 86.0 200 Q 80.0 180, 74.0 200" stroke="black" fill="none" marker-end="url(#arrowhead)"/>
<path d="M 649.6176889048019 200 Q 367.80884445240093 180, 86.0 200" stroke="black" fill="none" marker-end="url(#arrowhead)"/>
<path d="M 661.6176889048019 200 Q 655.6176889048019 180, 649.6176889048019 200" stroke="black" fill="none" marker-end="url(#arrowhead)"/>
<path d="M 661.6176889048019 200 Q 361.80884445240093 180, 62.0 200" stroke="black" fill="none" marker-end="url(#arrowhead)"/>
<path d="M 789.0115919339075 200 Q 725.3146404193546 180, 661.6176889048019 200" stroke="black" fill="none" marker-end="url(#arrowhead)"/>
<path d="M 789.0115919339075 200 Q 425.50579596695377 180, 62.0 200" stroke="black" fill="none" marker-end="url(#arrowhead)"/>
<path d="M 801.0115919339075 200 Q 795.0115919339075 180, 789.0115919339075 200" stroke="black" fill="none" marker-end="url(#arrowhead)"/>
<path d="M 801.0115919339075 200 Q 431.50579596695377 180, 62.0 200" stroke="black" fill="none" marker-end="url(#arrowhead)"/>
<path d="M 825.0115919339075 200 Q 819.0115919339075 180, 813.0115919339075 200" stroke="black" fill="none" marker-end="url(#arrowhead)"/>
<path d="M 837.0115919339075 200 Q 825.0115919339075 180, 813.0115919339075 200" stroke="black" fill="none" marker-end="url(#arrowhead)"/>
<path d="M 849.0115919339075 200 Q 449.50579596695377 180, 50.0 200" stroke="black" fill="none" marker-end="url(#arrowhead)"/>
<path d="M 861.0115919339075 200 Q 855.0115919339075 180, 849.0115919339075 200" stroke="black" fill="none" marker-end="url(#arrowhead)"/>
<path d="M 873.0115919339075 200 Q 861.0115919339075 180, 849.0115919339075 200" stroke="black" fill="none" marker-end="url(#arrowhead)"/>
<path d="M 873.0115919339075 200 Q 867.0115919339075 180, 861.0115919339075 200" stroke="black" fill="none" marker-end="url(#arrowhead)"/>
<path d="M 885.0115919339075 200 Q 879.0115919339075 180, 873.0115919339075 200" stroke="black" fill="none" marker-end="url(#arrowhead)"/>
<path d="M 897.0115919339075 200 Q 891.0115919339075 180, 885.0115919339075 200" stroke="black" fill="none" marker-end="url(#arrowhead)"/>
<path d="M 909.0115919339075 200 Q 903.0115919339075 180, 897.0115919339075 200" stroke="black" fill="none" marker-end="url(#arrowhead)"/>
<path d="M 921.0115919339075 200 Q 915.0115919339075 180, 909.0115919339075 200" stroke="black" fill="none" marker-end="url(#arrowhead)"/>
<path d="M 933.0115919339075 200 Q 921.0115919339075 180, 909.0115919339075 200" stroke="black" fill="none" marker-end="url(#arrowhead)"/>
<path d="M 933.0115919339075 200 Q 927.0115919339075 180, 921.0115919339075 200" stroke="black" fill="none" marker-end="url(#arrowhead)"/>
<path d="M 945.0115919339075 200 Q 939.0115919339075 180, 933.0115919339075 200" stroke="black" fill="none" marker-end="url(#arrowhead)"/>
<path d="M 957.0115919339075 200 Q 951.0115919339075 180, 945.0115919339075 200" stroke="black" fill="none" marker-end="url(#arrowhead)"/>
<path d="M 957.0115919339075 200 Q 945.0115919339075 180, 933.0115919339075 200" stroke="black" fill="none" marker-end="url(#arrowhead)"/>
<path d="M 969.0115919339075 200 Q 963.0115919339075 180, 957.0115919339075 200" stroke="black" fill="none" marker-end="url(#arrowhead)"/>
<path d="M 981.0115919339075 200 Q 975.0115919339075 180, 969.0115919339075 200" stroke="black" fill="none" marker-end="url(#arrowhead)"/>
<path d="M 993.0115919339075 200 Q 987.0115919339075 180, 981.0115919339075 200" stroke="black" fill="none" marker-end="url(#arrowhead)"/>
<path d="M 1005.0115919339075 200 Q 987.0115919339075 180, 969.0115919339075 200" stroke="black" fill="none" marker-end="url(#arrowhead)"/>
<path d="M 1017.0115919339075 200 Q 1011.0115919339075 180, 1005.0115919339075 200" stroke="black" fill="none" marker-end="url(#arrowhead)"/>
<path d="M 1017.0115919339075 200 Q 539.5057959669538 180, 62.0 200" stroke="black" fill="none" marker-end="url(#arrowhead)"/>
<path d="M 1029.0115919339075 200 Q 1017.0115919339075 180, 1005.0115919339075 200" stroke="black" fill="none" marker-end="url(#arrowhead)"/>
<path d="M 1029.0115919339075 200 Q 999.0115919339075 180, 969.0115919339075 200" stroke="black" fill="none" marker-end="url(#arrowhead)"/>
<path d="M 1029.0115919339075 200 Q 545.5057959669538 180, 62.0 200" stroke="black" fill="none" marker-end="url(#arrowhead)"/>
<path d="M 1041.0115919339075 200 Q 1029.0115919339075 180, 1017.0115919339075 200" stroke="black" fill="none" marker-end="url(#arrowhead)"/>
<path d="M 1065.0115919339075 200 Q 1053.0115919339075 180, 1041.0115919339075 200" stroke="black" fill="none" marker-end="url(#arrowhead)"/>
<path d="M 1077.0115919339075 200 Q 1059.0115919339075 180, 1041.0115919339075 200" stroke="black" fill="none" marker-end="url(#arrowhead)"/>
<path d="M 1077.0115919339075 200 Q 999.0115919339075 180, 921.0115919339075 200" stroke="black" fill="none" marker-end="url(#arrowhead)"/>
<path d="M 1077.0115919339075 200 Q 1071.0115919339075 180, 1065.0115919339075 200" stroke="black" fill="none" marker-end="url(#arrowhead)"/>
<path d="M 1089.0115919339075 200 Q 1053.0115919339075 180, 1017.0115919339075 200" stroke="black" fill="none" marker-end="url(#arrowhead)"/>
<path d="M 1101.0115919339075 200 Q 1095.0115919339075 180, 1089.0115919339075 200" stroke="black" fill="none" marker-end="url(#arrowhead)"/>
<path d="M 1125.0115919339075 200 Q 1107.0115919339075 180, 1089.0115919339075 200" stroke="black" fill="none" marker-end="url(#arrowhead)"/>
<path d="M 1125.0115919339075 200 Q 593.5057959669538 180, 62.0 200" stroke="black" fill="none" marker-end="url(#arrowhead)"/>
<path d="M 1137.0115919339075 200 Q 1119.0115919339075 180, 1101.0115919339075 200" stroke="black" fill="none" marker-end="url(#arrowhead)"/>
<path d="M 1149.0115919339075 200 Q 1143.0115919339075 180, 1137.0115919339075 200" stroke="black" fill="none" marker-end="url(#arrowhead)"/>
<path d="M 1161.0115919339075 200 Q 1137.0115919339075 180, 1113.0115919339075 200" stroke="black" fill="none" marker-end="url(#arrowhead)"/>
<path d="M 1173.0115919339075 200 Q 1167.0115919339075 180, 1161.0115919339075 200" stroke="black" fill="none" marker-end="url(#arrowhead)"/>
<path d="M 1185.0115919339075 200 Q 1179.0115919339075 180, 1173.0115919339075 200" stroke="black" fill="none" marker-end="url(#arrowhead)"/>
<path d="M 1197.0115919339075 200 Q 1017.0115919339075 180, 837.0115919339075 200" stroke="black" fill="none" marker-end="url(#arrowhead)"/>
<path d="M 1197.0115919339075 200 Q 1191.0115919339075 180, 1185.0115919339075 200" stroke="black" fill="none" marker-end="url(#arrowhead)"/>
<path d="M 1209.0115919339075 200 Q 1203.0115919339075 180, 1197.0115919339075 200" stroke="black" fill="none" marker-end="url(#arrowhead)"/>

<defs>
  <marker id="arrowhead" markerWidth="5" markerHeight="5" 
          refX="2" refY="2" orient="auto" fill="black">
    <path d="M0,0 L0,4 L4,2 z" />
  </marker>
</defs>

<circle cx="50.0" cy="200" r="6" fill="none" stroke="blue" stroke-width="2" />
<circle cx="50.0" cy="200" r="3" fill="blue" />
<circle cx="62.0" cy="200" r="6" fill="none" stroke="blue" stroke-width="2" />
<circle cx="62.0" cy="200" r="3" fill="blue" />
<circle cx="74.0" cy="200" r="4" fill="red" />
<circle cx="86.0" cy="200" r="6" fill="none" stroke="blue" stroke-width="2" />
<circle cx="86.0" cy="200" r="3" fill="blue" />
<circle cx="649.6176889048019" cy="200" r="6" fill="none" stroke="blue" stroke-width="2" />
<circle cx="649.6176889048019" cy="200" r="3" fill="blue" />
<circle cx="661.6176889048019" cy="200" r="6" fill="none" stroke="blue" stroke-width="2" />
<circle cx="661.6176889048019" cy="200" r="3" fill="blue" />
<circle cx="789.0115919339075" cy="200" r="6" fill="none" stroke="blue" stroke-width="2" />
<circle cx="789.0115919339075" cy="200" r="3" fill="blue" />
<circle cx="801.0115919339075" cy="200" r="4" fill="red" />
<circle cx="813.0115919339075" cy="200" r="6" fill="none" stroke="blue" stroke-width="2" />
<circle cx="813.0115919339075" cy="200" r="3" fill="blue" />
<circle cx="825.0115919339075" cy="200" r="4" fill="black" />
<circle cx="837.0115919339075" cy="200" r="4" fill="blue" />
<circle cx="849.0115919339075" cy="200" r="4" fill="black" />
<circle cx="861.0115919339075" cy="200" r="6" fill="none" stroke="black" stroke-width="2" />
<circle cx="861.0115919339075" cy="200" r="3" fill="black" />
<circle cx="873.0115919339075" cy="200" r="4" fill="black" />
<circle cx="885.0115919339075" cy="200" r="6" fill="none" stroke="black" stroke-width="2" />
<circle cx="885.0115919339075" cy="200" r="3" fill="black" />
<circle cx="897.0115919339075" cy="200" r="4" fill="black" />
<circle cx="909.0115919339075" cy="200" r="4" fill="black" />
<circle cx="921.0115919339075" cy="200" r="6" fill="none" stroke="black" stroke-width="2" />
<circle cx="921.0115919339075" cy="200" r="3" fill="black" />
<circle cx="933.0115919339075" cy="200" r="4" fill="black" />
<circle cx="945.0115919339075" cy="200" r="6" fill="none" stroke="blue" stroke-width="2" />
<circle cx="945.0115919339075" cy="200" r="3" fill="blue" />
<circle cx="957.0115919339075" cy="200" r="4" fill="red" />
<circle cx="969.0115919339075" cy="200" r="6" fill="none" stroke="blue" stroke-width="2" />
<circle cx="969.0115919339075" cy="200" r="3" fill="blue" />
<circle cx="981.0115919339075" cy="200" r="4" fill="black" />
<circle cx="993.0115919339075" cy="200" r="6" fill="none" stroke="blue" stroke-width="2" />
<circle cx="993.0115919339075" cy="200" r="3" fill="blue" />
<circle cx="1005.0115919339075" cy="200" r="4" fill="black" />
<circle cx="1017.0115919339075" cy="200" r="6" fill="none" stroke="black" stroke-width="2" />
<circle cx="1017.0115919339075" cy="200" r="3" fill="black" />
<circle cx="1029.0115919339075" cy="200" r="4" fill="black" />
<circle cx="1041.0115919339075" cy="200" r="4" fill="black" />
<circle cx="1053.0115919339075" cy="200" r="4" fill="black" />
<circle cx="1065.0115919339075" cy="200" r="4" fill="black" />
<circle cx="1077.0115919339075" cy="200" r="4" fill="black" />
<circle cx="1089.0115919339075" cy="200" r="4" fill="black" />
<circle cx="1101.0115919339075" cy="200" r="4" fill="black" />
<circle cx="1113.0115919339075" cy="200" r="6" fill="none" stroke="black" stroke-width="2" />
<circle cx="1113.0115919339075" cy="200" r="3" fill="black" />
<circle cx="1125.0115919339075" cy="200" r="6" fill="none" stroke="black" stroke-width="2" />
<circle cx="1125.0115919339075" cy="200" r="3" fill="black" />
<circle cx="1137.0115919339075" cy="200" r="6" fill="none" stroke="blue" stroke-width="2" />
<circle cx="1137.0115919339075" cy="200" r="3" fill="blue" />
<circle cx="1149.0115919339075" cy="200" r="4" fill="green" />
<circle cx="1161.0115919339075" cy="200" r="4" fill="red" />
<circle cx="1173.0115919339075" cy="200" r="4" fill="green" />
<circle cx="1185.0115919339075" cy="200" r="6" fill="none" stroke="blue" stroke-width="2" />
<circle cx="1185.0115919339075" cy="200" r="3" fill="blue" />
<circle cx="1197.0115919339075" cy="200" r="4" fill="red" />
<circle cx="1209.0115919339075" cy="200" r="4" fill="black" />
<text x="50" y="225" fill="gray" style="font-size:12px;">2024-10-22T19:12:53+00:00</text>
<text x="900" y="225" fill="gray" style="font-size:12px;">2025-03-01T00:57:52+00:00</text>
</svg>