<svg xmlns="http://www.w3.org/2000/svg" width="1000" height="200" style="background-color: white; font-family: sans-serif;">
<line x1="50" y1="100" x2="950" y2="100" stroke="gray" stroke-width="1"/>
<path d="M 62.0 100 Q 56.0 80, 50.0 100" stroke="black" fill="none" marker-end="url(#arrowhead)"/>
<path d="M 74.0 100 Q 68.0 80, 62.0 100" stroke="black" fill="none" marker-end="url(#arrowhead)"/>
<path d="M 86.0 100 Q 74.0 80, 62.0 100" stroke="black" fill="none" marker-end="url(#arrowhead)"/>
<path d="M 86.0 100 Q 80.0 80, 74.0 100" stroke="black" fill="none" marker-end="url(#arrowhead)"/>
<path d="M 98.0 100 Q 80.0 80, 62.0 100" stroke="black" fill="none" marker-end="url(#arrowhead)"/>
<path d="M 98.0 100 Q 92.0 80, 86.0 100" stroke="black" fill="none" marker-end="url(#arrowhead)"/>
<path d="M 110.0 100 Q 92.0 80, 74.0 100" stroke="black" fill="none" marker-end="url(#arrowhead)"/>
<path d="M 168.93055202397352 100 Q 133.46527601198676 80, 98.0 100" stroke="black" fill="none" marker-end="url(#arrowhead)"/>
<path d="M 180.93055202397352 100 Q 145.46527601198676 80, 110.0 100" stroke="black" fill="none" marker-end="url(#arrowhead)"/>
<path d="M 217.71164402900905 100 Q 193.32109802649128 80, 168.93055202397352 100" stroke="black" fill="none" marker-end="url(#arrowhead)"/>
<path d="M 255.79086205094526 100 Q 236.75125303997714 80, 217.71164402900905 100" stroke="black" fill="none" marker-end="url(#arrowhead)"/>
<path d="M 338.33594107085196 100 Q 297.0634015608986 80, 255.79086205094526 100" stroke="black" fill="none" marker-end="url(#arrowhead)"/>
<path d="M 950.0 100 Q 662.2896663395945 80, 374.579332679189 100" stroke="black" fill="none" marker-end="url(#arrowhead)"/>

<defs>
  <marker id="arrowhead" markerWidth="5" markerHeight="5" 
          refX="2" refY="2" orient="auto" fill="black">
    <path d="M0,0 L0,4 L4,2 z" />
  </marker>
</defs>

<circle cx="50.0" cy="100" r="6" fill="none" stroke="blue" stroke-width="2" />
<circle cx="50.0" cy="100" r="3" fill="blue" />
<circle cx="62.0" cy="100" r="4" fill="black" />
<circle cx="74.0" cy="100" r="6" fill="none" stroke="black" stroke-width="2" />
<circle cx="74.0" cy="100" r="3" fill="black" />
<circle cx="86.0" cy="100" r="4" fill="black" />
<circle cx="98.0" cy="100" r="6" fill="none" stroke="black" stroke-width="2" />
<circle cx="98.0" cy="100" r="3" fill="black" />
<circle cx="110.0" cy="100" r="4" fill="black" />
<circle cx="168.93055202397352" cy="100" r="4" fill="black" />
<circle cx="180.93055202397352" cy="100" r="4" fill="black" />
<circle cx="217.71164402900905" cy="100" r="4" fill="blue" />
<circle cx="255.79086205094526" cy="100" r="6" fill="none" stroke="red" stroke-width="2" />
<circle cx="255.79086205094526" cy="100" r="3" fill="red" />
<circle cx="338.33594107085196" cy="100" r="4" fill="blue" />
<circle cx="374.579332679189" cy="100" r="6" fill="none" stroke="blue" stroke-width="2" />
<circle cx="374.579332679189" cy="100" r="3" fill="blue" />
<circle cx="950.0" cy="100" r="4" fill="black" />
<text x="50" y="125" fill="gray" style="font-size:12px;">2025-01-01T22:55:32+00:00</text>
<text x="900" y="125" fill="gray" style="font-size:12px;">2025-02-08T01:15:37+00:00</text>
</svg>