<svg xmlns="http://www.w3.org/2000/svg" width="1000" height="400" style="background-color: white; font-family: sans-serif;">
<line x1="50" y1="200" x2="950" y2="200" stroke="gray" stroke-width="1"/>
<path d="M 62.0 200 Q 56.0 180, 50.0 200" stroke="black" fill="none" marker-end="url(#arrowhead)"/>
<path d="M 74.0 200 Q 68.0 180, 62.0 200" stroke="black" fill="none" marker-end="url(#arrowhead)"/>
<path d="M 86.0 200 Q 74.0 180, 62.0 200" stroke="black" fill="none" marker-end="url(#arrowhead)"/>
<path d="M 86.0 200 Q 80.0 180, 74.0 200" stroke="black" fill="none" marker-end="url(#arrowhead)"/>
<path d="M 98.0 200 Q 80.0 180, 62.0 200" stroke="black" fill="none" marker-end="url(#arrowhead)"/>
<path d="M 98.0 200 Q 92.0 180, 86.0 200" stroke="black" fill="none" marker-end="url(#arrowhead)"/>
<path d="M 110.0 200 Q 92.0 180, 74.0 200" stroke="black" fill="none" marker-end="url(#arrowhead)"/>
<path d="M 168.93055202397352 200 Q 133.46527601198676 180, 98.0 200" stroke="black" fill="none" marker-end="url(#arrowhead)"/>
<path d="M 180.93055202397352 200 Q 145.46527601198676 180, 110.0 200" stroke="black" fill="none" marker-end="url(#arrowhead)"/>
<path d="M 217.71164402900905 200 Q 193.32109802649128 180, 168.93055202397352 200" stroke="black" fill="none" marker-end="url(#arrowhead)"/>
<path d="M 255.79086205094526 200 Q 236.75125303997714 180, 217.71164402900905 200" stroke="black" fill="none" marker-end="url(#arrowhead)"/>
<path d="M 338.33594107085196 200 Q 297.0634015608986 180, 255.79086205094526 200" stroke="black" fill="none" marker-end="url(#arrowhead)"/>
<path d="M 950.0 200 Q 662.2896663395945 180, 374.579332679189 200" stroke="black" fill="none" marker-end="url(#arrowhead)"/>

<defs>
  <marker id="arrowhead" markerWidth="5" markerHeight="5" 
          refX="2" refY="2" orient="auto" fill="black">
    <path d="M0,0 L0,4 L4,2 z" />
  </marker>
</defs>

<circle cx="50.0" cy="200" r="6" fill="none" stroke="blue" stroke-width="2" />
<circle cx="50.0" cy="200" r="3" fill="blue" />
<circle cx="62.0" cy="200" r="4" fill="black" />
<circle cx="74.0" cy="200" r="6" fill="none" stroke="black" stroke-width="2" />
<circle cx="74.0" cy="200" r="3" fill="black" />
<circle cx="86.0" cy="200" r="4" fill="black" />
<circle cx="98.0" cy="200" r="6" fill="none" stroke="black" stroke-width="2" />
<circle cx="98.0" cy="200" r="3" fill="black" />
<circle cx="110.0" cy="200" r="4" fill="black" />
<circle cx="168.93055202397352" cy="200" r="4" fill="black" />
<circle cx="180.93055202397352" cy="200" r="4" fill="black" />
<circle cx="217.71164402900905" cy="200" r="4" fill="blue" />
<circle cx="255.79086205094526" cy="200" r="6" fill="none" stroke="red" stroke-width="2" />
<circle cx="255.79086205094526" cy="200" r="3" fill="red" />
<circle cx="338.33594107085196" cy="200" r="4" fill="blue" />
<circle cx="374.579332679189" cy="200" r="6" fill="none" stroke="blue" stroke-width="2" />
<circle cx="374.579332679189" cy="200" r="3" fill="blue" />
<circle cx="950.0" cy="200" r="4" fill="black" />
<text x="50" y="225" fill="gray" style="font-size:12px;">2025-01-01T22:55:32+00:00</text>
<text x="900" y="225" fill="gray" style="font-size:12px;">2025-02-08T01:15:37+00:00</text>
</svg>