<svg xmlns="http://www.w3.org/2000/svg" width="1000" height="200" style="background-color: white; font-family: sans-serif;">
<line x1="50" y1="100" x2="950" y2="100" stroke="gray" stroke-width="1"/>
<path d="M 64.07353680678378 100 Q 57.03676840339189 80, 50.0 100" stroke="black" fill="none" marker-end="url(#arrowhead)"/>
<path d="M 76.07353680678378 100 Q 70.07353680678378 80, 64.07353680678378 100" stroke="black" fill="none" marker-end="url(#arrowhead)"/>
<path d="M 88.07353680678378 100 Q 76.07353680678378 80, 64.07353680678378 100" stroke="black" fill="none" marker-end="url(#arrowhead)"/>
<path d="M 88.07353680678378 100 Q 82.07353680678378 80, 76.07353680678378 100" stroke="black" fill="none" marker-end="url(#arrowhead)"/>
<path d="M 100.07353680678378 100 Q 88.07353680678378 80, 76.07353680678378 100" stroke="black" fill="none" marker-end="url(#arrowhead)"/>
<path d="M 100.07353680678378 100 Q 94.07353680678378 80, 88.07353680678378 100" stroke="black" fill="none" marker-end="url(#arrowhead)"/>
<path d="M 143.9302605009501 100 Q 104.00189865386695 80, 64.07353680678378 100" stroke="black" fill="none" marker-end="url(#arrowhead)"/>
<path d="M 155.9302605009501 100 Q 149.9302605009501 80, 143.9302605009501 100" stroke="black" fill="none" marker-end="url(#arrowhead)"/>
<path d="M 174.74661116916036 100 Q 165.33843583505524 80, 155.9302605009501 100" stroke="black" fill="none" marker-end="url(#arrowhead)"/>
<path d="M 193.5260132811778 100 Q 174.72813689106397 80, 155.9302605009501 100" stroke="black" fill="none" marker-end="url(#arrowhead)"/>
<path d="M 193.5260132811778 100 Q 184.1363122251691 80, 174.74661116916036 100" stroke="black" fill="none" marker-end="url(#arrowhead)"/>
<path d="M 205.5260132811778 100 Q 180.72813689106397 80, 155.9302605009501 100" stroke="black" fill="none" marker-end="url(#arrowhead)"/>
<path d="M 205.5260132811778 100 Q 190.1363122251691 80, 174.74661116916036 100" stroke="black" fill="none" marker-end="url(#arrowhead)"/>
<path d="M 205.5260132811778 100 Q 199.5260132811778 80, 193.5260132811778 100" stroke="black" fill="none" marker-end="url(#arrowhead)"/>
<path d="M 217.5260132811778 100 Q 205.5260132811778 80, 193.5260132811778 100" stroke="black" fill="none" marker-end="url(#arrowhead)"/>
<path d="M 217.5260132811778 100 Q 211.5260132811778 80, 205.5260132811778 100" stroke="black" fill="none" marker-end="url(#arrowhead)"/>
<path d="M 950.0 100 Q 552.9651302504751 80, 155.9302605009501 100" stroke="black" fill="none" marker-end="url(#arrowhead)"/>
<path d="M 950.0 100 Q 562.3733055845802 80, 174.74661116916036 100" stroke="black" fill="none" marker-end="url(#arrowhead)"/>
<path d="M 950.0 100 Q 571.7630066405889 80, 193.5260132811778 100" stroke="black" fill="none" marker-end="url(#arrowhead)"/>

<defs>
  <marker id="arrowhead" markerWidth="5" markerHeight="5" 
          refX="2" refY="2" orient="auto" fill="black">
    <path d="M0,0 L0,4 L4,2 z" />
  </marker>
</defs>

<circle cx="50.0" cy="100" r="6" fill="none" stroke="blue" stroke-width="2" />
<circle cx="50.0" cy="100" r="3" fill="blue" />
<circle cx="64.07353680678378" cy="100" r="4" fill="blue" />
<circle cx="76.07353680678378" cy="100" r="6" fill="none" stroke="black" stroke-width="2" />
<circle cx="76.07353680678378" cy="100" r="3" fill="black" />
<circle cx="88.07353680678378" cy="100" r="4" fill="black" />
<circle cx="100.07353680678378" cy="100" r="6" fill="none" stroke="black" stroke-width="2" />
<circle cx="100.07353680678378" cy="100" r="3" fill="black" />
<circle cx="143.9302605009501" cy="100" r="4" fill="red" />
<circle cx="155.9302605009501" cy="100" r="4" fill="red" />
<circle cx="174.74661116916036" cy="100" r="6" fill="none" stroke="blue" stroke-width="2" />
<circle cx="174.74661116916036" cy="100" r="3" fill="blue" />
<circle cx="193.5260132811778" cy="100" r="6" fill="none" stroke="blue" stroke-width="2" />
<circle cx="193.5260132811778" cy="100" r="3" fill="blue" />
<circle cx="205.5260132811778" cy="100" r="4" fill="green" />
<circle cx="217.5260132811778" cy="100" r="6" fill="none" stroke="black" stroke-width="2" />
<circle cx="217.5260132811778" cy="100" r="3" fill="black" />
<circle cx="291.08932915796584" cy="100" r="4" fill="black" />
<circle cx="950.0" cy="100" r="4" fill="blue" />
<text x="50" y="125" fill="gray" style="font-size:12px;">2024-07-31T03:15:47+00:00</text>
<text x="900" y="125" fill="gray" style="font-size:12px;">2024-10-27T19:05:11+00:00</text>
</svg>