<svg xmlns="http://www.w3.org/2000/svg" width="1000" height="400" style="background-color: white; font-family: sans-serif;">
<line x1="50" y1="200" x2="950" y2="200" stroke="gray" stroke-width="1"/>
<path d="M 64.07353680678378 200 Q 57.03676840339189 180, 50.0 200" stroke="black" fill="none" marker-end="url(#arrowhead)"/>
<path d="M 76.07353680678378 200 Q 70.07353680678378 180, 64.07353680678378 200" stroke="black" fill="none" marker-end="url(#arrowhead)"/>
<path d="M 88.07353680678378 200 Q 76.07353680678378 180, 64.07353680678378 200" stroke="black" fill="none" marker-end="url(#arrowhead)"/>
<path d="M 88.07353680678378 200 Q 82.07353680678378 180, 76.07353680678378 200" stroke="black" fill="none" marker-end="url(#arrowhead)"/>
<path d="M 100.07353680678378 200 Q 88.07353680678378 180, 76.07353680678378 200" stroke="black" fill="none" marker-end="url(#arrowhead)"/>
<path d="M 100.07353680678378 200 Q 94.07353680678378 180, 88.07353680678378 200" stroke="black" fill="none" marker-end="url(#arrowhead)"/>
<path d="M 143.9302605009501 200 Q 104.00189865386695 180, 64.07353680678378 200" stroke="black" fill="none" marker-end="url(#arrowhead)"/>
<path d="M 155.9302605009501 200 Q 149.9302605009501 180, 143.9302605009501 200" stroke="black" fill="none" marker-end="url(#arrowhead)"/>
<path d="M 174.74661116916036 200 Q 165.33843583505524 180, 155.9302605009501 200" stroke="black" fill="none" marker-end="url(#arrowhead)"/>
<path d="M 193.5260132811778 200 Q 174.72813689106397 180, 155.9302605009501 200" stroke="black" fill="none" marker-end="url(#arrowhead)"/>
<path d="M 193.5260132811778 200 Q 184.1363122251691 180, 174.74661116916036 200" stroke="black" fill="none" marker-end="url(#arrowhead)"/>
<path d="M 205.5260132811778 200 Q 180.72813689106397 180, 155.9302605009501 200" stroke="black" fill="none" marker-end="url(#arrowhead)"/>
<path d="M 205.5260132811778 200 Q 190.1363122251691 180, 174.74661116916036 200" stroke="black" fill="none" marker-end="url(#arrowhead)"/>
<path d="M 205.5260132811778 200 Q 199.5260132811778 180, 193.5260132811778 200" stroke="black" fill="none" marker-end="url(#arrowhead)"/>
<path d="M 217.5260132811778 200 Q 205.5260132811778 180, 193.5260132811778 200" stroke="black" fill="none" marker-end="url(#arrowhead)"/>
<path d="M 217.5260132811778 200 Q 211.5260132811778 180, 205.5260132811778 200" stroke="black" fill="none" marker-end="url(#arrowhead)"/>
<path d="M 950.0 200 Q 552.9651302504751 180, 155.9302605009501 200" stroke="black" fill="none" marker-end="url(#arrowhead)"/>
<path d="M 950.0 200 Q 562.3733055845802 180, 174.74661116916036 200" stroke="black" fill="none" marker-end="url(#arrowhead)"/>
<path d="M 950.0 200 Q 571.7630066405889 180, 193.5260132811778 200" stroke="black" fill="none" marker-end="url(#arrowhead)"/>

<defs>
  <marker id="arrowhead" markerWidth="5" markerHeight="5" 
          refX="2" refY="2" orient="auto" fill="black">
    <path d="M0,0 L0,4 L4,2 z" />
  </marker>
</defs>

<circle cx="50.0" cy="200" r="6" fill="none" stroke="blue" stroke-width="2" />
<circle cx="50.0" cy="200" r="3" fill="blue" />
<circle cx="64.07353680678378" cy="200" r="4" fill="blue" />
<circle cx="76.07353680678378" cy="200" r="6" fill="none" stroke="black" stroke-width="2" />
<circle cx="76.07353680678378" cy="200" r="3" fill="black" />
<circle cx="88.07353680678378" cy="200" r="4" fill="black" />
<circle cx="100.07353680678378" cy="200" r="6" fill="none" stroke="black" stroke-width="2" />
<circle cx="100.07353680678378" cy="200" r="3" fill="black" />
<circle cx="143.9302605009501" cy="200" r="4" fill="red" />
<circle cx="155.9302605009501" cy="200" r="4" fill="red" />
<circle cx="174.74661116916036" cy="200" r="6" fill="none" stroke="blue" stroke-width="2" />
<circle cx="174.74661116916036" cy="200" r="3" fill="blue" />
<circle cx="193.5260132811778" cy="200" r="6" fill="none" stroke="blue" stroke-width="2" />
<circle cx="193.5260132811778" cy="200" r="3" fill="blue" />
<circle cx="205.5260132811778" cy="200" r="4" fill="green" />
<circle cx="217.5260132811778" cy="200" r="6" fill="none" stroke="black" stroke-width="2" />
<circle cx="217.5260132811778" cy="200" r="3" fill="black" />
<circle cx="291.08932915796584" cy="200" r="4" fill="black" />
<circle cx="950.0" cy="200" r="4" fill="blue" />
<text x="50" y="225" fill="gray" style="font-size:12px;">2024-07-31T03:15:47+00:00</text>
<text x="900" y="225" fill="gray" style="font-size:12px;">2024-10-27T19:05:11+00:00</text>
</svg>