<svg xmlns="http://www.w3.org/2000/svg" width="1000" height="200" style="background-color: white; font-family: sans-serif;">
<line x1="50" y1="100" x2="950" y2="100" stroke="gray" stroke-width="1"/>
<path d="M 62.0 100 Q 56.0 80, 50.0 100" stroke="black" fill="none" marker-end="url(#arrowhead)"/>
<path d="M 74.0 100 Q 62.0 80, 50.0 100" stroke="black" fill="none" marker-end="url(#arrowhead)"/>
<path d="M 132.1229957744032 100 Q 97.0614978872016 80, 62.0 100" stroke="black" fill="none" marker-end="url(#arrowhead)"/>
<path d="M 387.53606872855335 100 Q 259.82953225147827 80, 132.1229957744032 100" stroke="black" fill="none" marker-end="url(#arrowhead)"/>
<path d="M 387.53606872855335 100 Q 218.76803436427667 80, 50.0 100" stroke="black" fill="none" marker-end="url(#arrowhead)"/>
<path d="M 387.53606872855335 100 Q 224.76803436427667 80, 62.0 100" stroke="black" fill="none" marker-end="url(#arrowhead)"/>
<path d="M 387.53606872855335 100 Q 230.76803436427667 80, 74.0 100" stroke="black" fill="none" marker-end="url(#arrowhead)"/>
<path d="M 399.53606872855335 100 Q 265.82953225147827 80, 132.1229957744032 100" stroke="black" fill="none" marker-end="url(#arrowhead)"/>
<path d="M 909.9258659314926 100 Q 648.730967330023 80, 387.53606872855335 100" stroke="black" fill="none" marker-end="url(#arrowhead)"/>
<path d="M 921.9258659314926 100 Q 915.9258659314926 80, 909.9258659314926 100" stroke="black" fill="none" marker-end="url(#arrowhead)"/>
<path d="M 949.5790195622797 100 Q 929.7524427468861 80, 909.9258659314926 100" stroke="black" fill="none" marker-end="url(#arrowhead)"/>
<path d="M 949.5790195622797 100 Q 935.7524427468861 80, 921.9258659314926 100" stroke="black" fill="none" marker-end="url(#arrowhead)"/>
<path d="M 961.5790195622797 100 Q 955.5790195622797 80, 949.5790195622797 100" stroke="black" fill="none" marker-end="url(#arrowhead)"/>
<path d="M 973.5790195622797 100 Q 967.5790195622797 80, 961.5790195622797 100" stroke="black" fill="none" marker-end="url(#arrowhead)"/>

<defs>
  <marker id="arrowhead" markerWidth="5" markerHeight="5" 
          refX="2" refY="2" orient="auto" fill="black">
    <path d="M0,0 L0,4 L4,2 z" />
  </marker>
</defs>

<circle cx="50.0" cy="100" r="6" fill="none" stroke="blue" stroke-width="2" />
<circle cx="50.0" cy="100" r="3" fill="blue" />
<circle cx="62.0" cy="100" r="4" fill="green" />
<circle cx="74.0" cy="100" r="4" fill="red" />
<circle cx="132.1229957744032" cy="100" r="4" fill="red" />
<circle cx="387.53606872855335" cy="100" r="4" fill="red" />
<circle cx="399.53606872855335" cy="100" r="4" fill="green" />
<circle cx="909.9258659314926" cy="100" r="4" fill="blue" />
<circle cx="921.9258659314926" cy="100" r="4" fill="blue" />
<circle cx="949.5790195622797" cy="100" r="4" fill="black" />
<circle cx="961.5790195622797" cy="100" r="6" fill="none" stroke="black" stroke-width="2" />
<circle cx="961.5790195622797" cy="100" r="3" fill="black" />
<circle cx="973.5790195622797" cy="100" r="4" fill="black" />
<text x="50" y="125" fill="gray" style="font-size:12px;">2025-01-10T12:04:14+00:00</text>
<text x="900" y="125" fill="gray" style="font-size:12px;">2025-02-25T16:11:53+00:00</text>
</svg>