<svg xmlns="http://www.w3.org/2000/svg" width="1000" height="200" style="background-color: white; font-family: sans-serif;">
<line x1="50" y1="100" x2="950" y2="100" stroke="gray" stroke-width="1"/>
<path d="M 102.20208830026746 100 Q 96.20208830026746 80, 90.20208830026746 100" stroke="black" fill="none" marker-end="url(#arrowhead)"/>
<path d="M 114.20208830026746 100 Q 108.20208830026746 80, 102.20208830026746 100" stroke="black" fill="none" marker-end="url(#arrowhead)"/>
<path d="M 127.30937792425992 100 Q 120.7557331122637 80, 114.20208830026746 100" stroke="black" fill="none" marker-end="url(#arrowhead)"/>
<path d="M 751.9532253054214 100 Q 445.63130161484065 80, 139.30937792425993 100" stroke="black" fill="none" marker-end="url(#arrowhead)"/>
<path d="M 763.9532253054214 100 Q 757.9532253054214 80, 751.9532253054214 100" stroke="black" fill="none" marker-end="url(#arrowhead)"/>
<path d="M 934.7826442378434 100 Q 537.0460110810517 80, 139.30937792425993 100" stroke="black" fill="none" marker-end="url(#arrowhead)"/>
<path d="M 934.7826442378434 100 Q 849.3679347716325 80, 763.9532253054214 100" stroke="black" fill="none" marker-end="url(#arrowhead)"/>
<path d="M 946.7826442378434 100 Q 940.7826442378434 80, 934.7826442378434 100" stroke="black" fill="none" marker-end="url(#arrowhead)"/>
<path d="M 958.7826442378434 100 Q 946.7826442378434 80, 934.7826442378434 100" stroke="black" fill="none" marker-end="url(#arrowhead)"/>

<defs>
  <marker id="arrowhead" markerWidth="5" markerHeight="5" 
          refX="2" refY="2" orient="auto" fill="black">
    <path d="M0,0 L0,4 L4,2 z" />
  </marker>
</defs>

<circle cx="50.0" cy="100" r="6" fill="none" stroke="blue" stroke-width="2" />
<circle cx="50.0" cy="100" r="3" fill="blue" />
<circle cx="90.20208830026746" cy="100" r="4" fill="red" />
<circle cx="102.20208830026746" cy="100" r="6" fill="none" stroke="black" stroke-width="2" />
<circle cx="102.20208830026746" cy="100" r="3" fill="black" />
<circle cx="114.20208830026746" cy="100" r="4" fill="black" />
<circle cx="127.30937792425992" cy="100" r="6" fill="none" stroke="blue" stroke-width="2" />
<circle cx="127.30937792425992" cy="100" r="3" fill="blue" />
<circle cx="139.30937792425993" cy="100" r="4" fill="green" />
<circle cx="751.9532253054214" cy="100" r="4" fill="red" />
<circle cx="763.9532253054214" cy="100" r="4" fill="black" />
<circle cx="934.7826442378434" cy="100" r="4" fill="blue" />
<circle cx="946.7826442378434" cy="100" r="4" fill="black" />
<circle cx="958.7826442378434" cy="100" r="6" fill="none" stroke="blue" stroke-width="2" />
<circle cx="958.7826442378434" cy="100" r="3" fill="blue" />
<text x="50" y="125" fill="gray" style="font-size:12px;">2025-02-02T15:10:54+00:00</text>
<text x="900" y="125" fill="gray" style="font-size:12px;">2025-02-26T16:50:40+00:00</text>
</svg>