<svg xmlns="http://www.w3.org/2000/svg" width="1000" height="400" style="background-color: white; font-family: sans-serif;">
<line x1="50" y1="200" x2="950" y2="200" stroke="gray" stroke-width="1"/>
<path d="M 62.0 200 Q 56.0 180, 50.0 200" stroke="black" fill="none" marker-end="url(#arrowhead)"/>
<path d="M 74.0 200 Q 62.0 180, 50.0 200" stroke="black" fill="none" marker-end="url(#arrowhead)"/>
<path d="M 86.0 200 Q 74.0 180, 62.0 200" stroke="black" fill="none" marker-end="url(#arrowhead)"/>
<path d="M 98.0 200 Q 92.0 180, 86.0 200" stroke="black" fill="none" marker-end="url(#arrowhead)"/>
<path d="M 98.0 200 Q 80.0 180, 62.0 200" stroke="black" fill="none" marker-end="url(#arrowhead)"/>
<path d="M 500.301301456814 200 Q 494.301301456814 180, 488.301301456814 200" stroke="black" fill="none" marker-end="url(#arrowhead)"/>
<path d="M 536.3013014568139 200 Q 530.3013014568139 180, 524.3013014568139 200" stroke="black" fill="none" marker-end="url(#arrowhead)"/>
<path d="M 548.3013014568139 200 Q 536.3013014568139 180, 524.3013014568139 200" stroke="black" fill="none" marker-end="url(#arrowhead)"/>
<path d="M 644.6051622943262 200 Q 638.6051622943262 180, 632.6051622943262 200" stroke="black" fill="none" marker-end="url(#arrowhead)"/>
<path d="M 668.6051622943262 200 Q 662.6051622943262 180, 656.6051622943262 200" stroke="black" fill="none" marker-end="url(#arrowhead)"/>
<path d="M 688.1342415135994 200 Q 678.3697019039628 180, 668.6051622943262 200" stroke="black" fill="none" marker-end="url(#arrowhead)"/>
<path d="M 700.1342415135994 200 Q 694.1342415135994 180, 688.1342415135994 200" stroke="black" fill="none" marker-end="url(#arrowhead)"/>
<path d="M 712.1342415135994 200 Q 706.1342415135994 180, 700.1342415135994 200" stroke="black" fill="none" marker-end="url(#arrowhead)"/>
<path d="M 736.1342415135994 200 Q 724.1342415135994 180, 712.1342415135994 200" stroke="black" fill="none" marker-end="url(#arrowhead)"/>
<path d="M 736.1342415135994 200 Q 718.1342415135994 180, 700.1342415135994 200" stroke="black" fill="none" marker-end="url(#arrowhead)"/>
<path d="M 748.1342415135994 200 Q 742.1342415135994 180, 736.1342415135994 200" stroke="black" fill="none" marker-end="url(#arrowhead)"/>
<path d="M 815.098302812475 200 Q 793.6162721630371 180, 772.1342415135994 200" stroke="black" fill="none" marker-end="url(#arrowhead)"/>
<path d="M 844.8071568992553 200 Q 829.9527298558652 180, 815.098302812475 200" stroke="black" fill="none" marker-end="url(#arrowhead)"/>
<path d="M 861.4805406198902 200 Q 838.2894217161827 180, 815.098302812475 200" stroke="black" fill="none" marker-end="url(#arrowhead)"/>
<path d="M 861.4805406198902 200 Q 853.1438487595728 180, 844.8071568992553 200" stroke="black" fill="none" marker-end="url(#arrowhead)"/>
<path d="M 879.1066732507925 200 Q 870.2936069353414 180, 861.4805406198902 200" stroke="black" fill="none" marker-end="url(#arrowhead)"/>
<path d="M 923.0011263497399 200 Q 915.6636670867551 180, 908.3262078237703 200" stroke="black" fill="none" marker-end="url(#arrowhead)"/>

<defs>
  <marker id="arrowhead" markerWidth="5" markerHeight="5" 
          refX="2" refY="2" orient="auto" fill="black">
    <path d="M0,0 L0,4 L4,2 z" />
  </marker>
</defs>

<circle cx="50.0" cy="200" r="6" fill="none" stroke="blue" stroke-width="2" />
<circle cx="50.0" cy="200" r="3" fill="blue" />
<circle cx="62.0" cy="200" r="4" fill="black" />
<circle cx="74.0" cy="200" r="4" fill="black" />
<circle cx="86.0" cy="200" r="4" fill="black" />
<circle cx="98.0" cy="200" r="6" fill="none" stroke="black" stroke-width="2" />
<circle cx="98.0" cy="200" r="3" fill="black" />
<circle cx="412.5651291190895" cy="200" r="6" fill="none" stroke="blue" stroke-width="2" />
<circle cx="412.5651291190895" cy="200" r="3" fill="blue" />
<circle cx="476.301301456814" cy="200" r="6" fill="none" stroke="blue" stroke-width="2" />
<circle cx="476.301301456814" cy="200" r="3" fill="blue" />
<circle cx="488.301301456814" cy="200" r="4" fill="black" />
<circle cx="500.301301456814" cy="200" r="6" fill="none" stroke="black" stroke-width="2" />
<circle cx="500.301301456814" cy="200" r="3" fill="black" />
<circle cx="512.3013014568139" cy="200" r="6" fill="none" stroke="blue" stroke-width="2" />
<circle cx="512.3013014568139" cy="200" r="3" fill="blue" />
<circle cx="524.3013014568139" cy="200" r="4" fill="black" />
<circle cx="536.3013014568139" cy="200" r="4" fill="red" />
<circle cx="548.3013014568139" cy="200" r="4" fill="black" />
<circle cx="632.6051622943262" cy="200" r="4" fill="red" />
<circle cx="644.6051622943262" cy="200" r="6" fill="none" stroke="black" stroke-width="2" />
<circle cx="644.6051622943262" cy="200" r="3" fill="black" />
<circle cx="656.6051622943262" cy="200" r="6" fill="none" stroke="blue" stroke-width="2" />
<circle cx="656.6051622943262" cy="200" r="3" fill="blue" />
<circle cx="668.6051622943262" cy="200" r="4" fill="red" />
<circle cx="688.1342415135994" cy="200" r="6" fill="none" stroke="blue" stroke-width="2" />
<circle cx="688.1342415135994" cy="200" r="3" fill="blue" />
<circle cx="700.1342415135994" cy="200" r="4" fill="red" />
<circle cx="712.1342415135994" cy="200" r="6" fill="none" stroke="blue" stroke-width="2" />
<circle cx="712.1342415135994" cy="200" r="3" fill="blue" />
<circle cx="724.1342415135994" cy="200" r="6" fill="none" stroke="blue" stroke-width="2" />
<circle cx="724.1342415135994" cy="200" r="3" fill="blue" />
<circle cx="736.1342415135994" cy="200" r="4" fill="red" />
<circle cx="748.1342415135994" cy="200" r="6" fill="none" stroke="black" stroke-width="2" />
<circle cx="748.1342415135994" cy="200" r="3" fill="black" />
<circle cx="760.1342415135994" cy="200" r="6" fill="none" stroke="blue" stroke-width="2" />
<circle cx="760.1342415135994" cy="200" r="3" fill="blue" />
<circle cx="772.1342415135994" cy="200" r="6" fill="none" stroke="blue" stroke-width="2" />
<circle cx="772.1342415135994" cy="200" r="3" fill="blue" />
<circle cx="815.098302812475" cy="200" r="4" fill="blue" />
<circle cx="844.8071568992553" cy="200" r="6" fill="none" stroke="blue" stroke-width="2" />
<circle cx="844.8071568992553" cy="200" r="3" fill="blue" />
<circle cx="861.4805406198902" cy="200" r="4" fill="red" />
<circle cx="879.1066732507925" cy="200" r="6" fill="none" stroke="black" stroke-width="2" />
<circle cx="879.1066732507925" cy="200" r="3" fill="black" />
<circle cx="908.3262078237703" cy="200" r="6" fill="none" stroke="blue" stroke-width="2" />
<circle cx="908.3262078237703" cy="200" r="3" fill="blue" />
<circle cx="923.0011263497399" cy="200" r="4" fill="blue" />
<circle cx="950.0" cy="200" r="6" fill="none" stroke="blue" stroke-width="2" />
<circle cx="950.0" cy="200" r="3" fill="blue" />
<text x="50" y="225" fill="gray" style="font-size:12px;">2024-04-23T08:23:41+00:00</text>
<text x="900" y="225" fill="gray" style="font-size:12px;">2025-01-29T14:04:28+00:00</text>
</svg>