<svg xmlns="http://www.w3.org/2000/svg" width="1000" height="200" style="background-color: white; font-family: sans-serif;">
<line x1="50" y1="100" x2="950" y2="100" stroke="gray" stroke-width="1"/>
<path d="M 66.52324674887097 100 Q 58.26162337443549 80, 50.0 100" stroke="black" fill="none" marker-end="url(#arrowhead)"/>
<path d="M 78.52324674887097 100 Q 72.52324674887097 80, 66.52324674887097 100" stroke="black" fill="none" marker-end="url(#arrowhead)"/>
<path d="M 950.0 100 Q 704.7377370306297 80, 459.4754740612593 100" stroke="black" fill="none" marker-end="url(#arrowhead)"/>

<defs>
  <marker id="arrowhead" markerWidth="5" markerHeight="5" 
          refX="2" refY="2" orient="auto" fill="black">
    <path d="M0,0 L0,4 L4,2 z" />
  </marker>
</defs>

<circle cx="50.0" cy="100" r="6" fill="none" stroke="blue" stroke-width="2" />
<circle cx="50.0" cy="100" r="3" fill="blue" />
<circle cx="66.52324674887097" cy="100" r="4" fill="black" />
<circle cx="78.52324674887097" cy="100" r="6" fill="none" stroke="black" stroke-width="2" />
<circle cx="78.52324674887097" cy="100" r="3" fill="black" />
<circle cx="459.4754740612593" cy="100" r="6" fill="none" stroke="black" stroke-width="2" />
<circle cx="459.4754740612593" cy="100" r="3" fill="black" />
<circle cx="950.0" cy="100" r="6" fill="none" stroke="blue" stroke-width="2" />
<circle cx="950.0" cy="100" r="3" fill="blue" />
<text x="50" y="125" fill="gray" style="font-size:12px;">2024-12-19T06:28:21+00:00</text>
<text x="900" y="125" fill="gray" style="font-size:12px;">2025-01-28T02:48:25+00:00</text>
</svg>