<svg xmlns="http://www.w3.org/2000/svg" width="1000" height="400" style="background-color: white; font-family: sans-serif;">
<line x1="50" y1="200" x2="950" y2="200" stroke="gray" stroke-width="1"/>
<path d="M 612.587492744082 200 Q 331.293746372041 180, 50.0 200" stroke="black" fill="none" marker-end="url(#arrowhead)"/>
<path d="M 698.6916423072564 200 Q 655.6395675256692 180, 612.587492744082 200" stroke="black" fill="none" marker-end="url(#arrowhead)"/>
<path d="M 698.6916423072564 200 Q 374.3458211536282 180, 50.0 200" stroke="black" fill="none" marker-end="url(#arrowhead)"/>
<path d="M 711.80660026835 200 Q 662.1970465062161 180, 612.587492744082 200" stroke="black" fill="none" marker-end="url(#arrowhead)"/>
<path d="M 946.3075920906819 200 Q 822.4996171989692 180, 698.6916423072564 200" stroke="black" fill="none" marker-end="url(#arrowhead)"/>
<path d="M 958.3075920906819 200 Q 828.4996171989692 180, 698.6916423072564 200" stroke="black" fill="none" marker-end="url(#arrowhead)"/>

<defs>
  <marker id="arrowhead" markerWidth="5" markerHeight="5" 
          refX="2" refY="2" orient="auto" fill="black">
    <path d="M0,0 L0,4 L4,2 z" />
  </marker>
</defs>

<circle cx="50.0" cy="200" r="6" fill="none" stroke="blue" stroke-width="2" />
<circle cx="50.0" cy="200" r="3" fill="blue" />
<circle cx="612.587492744082" cy="200" r="4" fill="black" />
<circle cx="698.6916423072564" cy="200" r="6" fill="none" stroke="black" stroke-width="2" />
<circle cx="698.6916423072564" cy="200" r="3" fill="black" />
<circle cx="711.80660026835" cy="200" r="4" fill="black" />
<circle cx="946.3075920906819" cy="200" r="4" fill="black" />
<circle cx="958.3075920906819" cy="200" r="4" fill="black" />
<text x="50" y="225" fill="gray" style="font-size:12px;">2024-12-19T12:02:20+00:00</text>
<text x="900" y="225" fill="gray" style="font-size:12px;">2025-02-11T00:25:52+00:00</text>
</svg>