<svg xmlns="http://www.w3.org/2000/svg" width="1000" height="200" style="background-color: white; font-family: sans-serif;">
<line x1="50" y1="100" x2="950" y2="100" stroke="gray" stroke-width="1"/>
<path d="M 511.35396580059995 100 Q 280.6769829003 80, 50.0 100" stroke="black" fill="none" marker-end="url(#arrowhead)"/>
<path d="M 612.5917740403644 100 Q 561.9728699204821 80, 511.35396580059995 100" stroke="black" fill="none" marker-end="url(#arrowhead)"/>
<path d="M 831.8085350840481 100 Q 671.5812504423241 80, 511.35396580059995 100" stroke="black" fill="none" marker-end="url(#arrowhead)"/>
<path d="M 831.8085350840481 100 Q 722.2001545622063 80, 612.5917740403644 100" stroke="black" fill="none" marker-end="url(#arrowhead)"/>
<path d="M 910.3621006305684 100 Q 871.0853178573083 80, 831.8085350840481 100" stroke="black" fill="none" marker-end="url(#arrowhead)"/>
<path d="M 922.3621006305684 100 Q 767.4769373354663 80, 612.5917740403644 100" stroke="black" fill="none" marker-end="url(#arrowhead)"/>
<path d="M 922.3621006305684 100 Q 916.3621006305684 80, 910.3621006305684 100" stroke="black" fill="none" marker-end="url(#arrowhead)"/>
<path d="M 934.3621006305684 100 Q 922.3621006305684 80, 910.3621006305684 100" stroke="black" fill="none" marker-end="url(#arrowhead)"/>
<path d="M 934.3621006305684 100 Q 928.3621006305684 80, 922.3621006305684 100" stroke="black" fill="none" marker-end="url(#arrowhead)"/>
<path d="M 946.3621006305684 100 Q 889.0853178573083 80, 831.8085350840481 100" stroke="black" fill="none" marker-end="url(#arrowhead)"/>
<path d="M 946.3621006305684 100 Q 928.3621006305684 80, 910.3621006305684 100" stroke="black" fill="none" marker-end="url(#arrowhead)"/>
<path d="M 958.3621006305684 100 Q 946.3621006305684 80, 934.3621006305684 100" stroke="black" fill="none" marker-end="url(#arrowhead)"/>
<path d="M 970.3621006305684 100 Q 791.4769373354663 80, 612.5917740403644 100" stroke="black" fill="none" marker-end="url(#arrowhead)"/>
<path d="M 970.3621006305684 100 Q 964.3621006305684 80, 958.3621006305684 100" stroke="black" fill="none" marker-end="url(#arrowhead)"/>
<path d="M 982.3621006305684 100 Q 976.3621006305684 80, 970.3621006305684 100" stroke="black" fill="none" marker-end="url(#arrowhead)"/>

<defs>
  <marker id="arrowhead" markerWidth="5" markerHeight="5" 
          refX="2" refY="2" orient="auto" fill="black">
    <path d="M0,0 L0,4 L4,2 z" />
  </marker>
</defs>

<circle cx="50.0" cy="100" r="6" fill="none" stroke="blue" stroke-width="2" />
<circle cx="50.0" cy="100" r="3" fill="blue" />
<circle cx="511.35396580059995" cy="100" r="4" fill="red" />
<circle cx="612.5917740403644" cy="100" r="6" fill="none" stroke="blue" stroke-width="2" />
<circle cx="612.5917740403644" cy="100" r="3" fill="blue" />
<circle cx="831.8085350840481" cy="100" r="4" fill="red" />
<circle cx="910.3621006305684" cy="100" r="6" fill="none" stroke="blue" stroke-width="2" />
<circle cx="910.3621006305684" cy="100" r="3" fill="blue" />
<circle cx="922.3621006305684" cy="100" r="4" fill="red" />
<circle cx="934.3621006305684" cy="100" r="4" fill="red" />
<circle cx="946.3621006305684" cy="100" r="4" fill="red" />
<circle cx="958.3621006305684" cy="100" r="6" fill="none" stroke="blue" stroke-width="2" />
<circle cx="958.3621006305684" cy="100" r="3" fill="blue" />
<circle cx="970.3621006305684" cy="100" r="4" fill="red" />
<circle cx="982.3621006305684" cy="100" r="4" fill="green" />
<text x="50" y="125" fill="gray" style="font-size:12px;">2024-02-03T06:22:34+00:00</text>
<text x="900" y="125" fill="gray" style="font-size:12px;">2024-12-17T04:31:46+00:00</text>
</svg>