<svg xmlns="http://www.w3.org/2000/svg" width="1000" height="200" style="background-color: white; font-family: sans-serif;">
<line x1="50" y1="100" x2="950" y2="100" stroke="gray" stroke-width="1"/>
<path d="M 612.587492744082 100 Q 331.293746372041 80, 50.0 100" stroke="black" fill="none" marker-end="url(#arrowhead)"/>
<path d="M 698.6916423072564 100 Q 655.6395675256692 80, 612.587492744082 100" stroke="black" fill="none" marker-end="url(#arrowhead)"/>
<path d="M 698.6916423072564 100 Q 374.3458211536282 80, 50.0 100" stroke="black" fill="none" marker-end="url(#arrowhead)"/>
<path d="M 711.80660026835 100 Q 662.1970465062161 80, 612.587492744082 100" stroke="black" fill="none" marker-end="url(#arrowhead)"/>
<path d="M 946.3075920906819 100 Q 822.4996171989692 80, 698.6916423072564 100" stroke="black" fill="none" marker-end="url(#arrowhead)"/>
<path d="M 958.3075920906819 100 Q 828.4996171989692 80, 698.6916423072564 100" stroke="black" fill="none" marker-end="url(#arrowhead)"/>

<defs>
  <marker id="arrowhead" markerWidth="5" markerHeight="5" 
          refX="2" refY="2" orient="auto" fill="black">
    <path d="M0,0 L0,4 L4,2 z" />
  </marker>
</defs>

<circle cx="50.0" cy="100" r="6" fill="none" stroke="blue" stroke-width="2" />
<circle cx="50.0" cy="100" r="3" fill="blue" />
<circle cx="612.587492744082" cy="100" r="4" fill="black" />
<circle cx="698.6916423072564" cy="100" r="6" fill="none" stroke="black" stroke-width="2" />
<circle cx="698.6916423072564" cy="100" r="3" fill="black" />
<circle cx="711.80660026835" cy="100" r="4" fill="black" />
<circle cx="946.3075920906819" cy="100" r="4" fill="black" />
<circle cx="958.3075920906819" cy="100" r="4" fill="black" />
<text x="50" y="125" fill="gray" style="font-size:12px;">2024-12-19T12:02:20+00:00</text>
<text x="900" y="125" fill="gray" style="font-size:12px;">2025-02-11T00:25:52+00:00</text>
</svg>