<svg xmlns="http://www.w3.org/2000/svg" width="1000" height="400" style="background-color: white; font-family: sans-serif;">
<line x1="50" y1="200" x2="950" y2="200" stroke="gray" stroke-width="1"/>
<path d="M 62.0 200 Q 56.0 180, 50.0 200" stroke="black" fill="none" marker-end="url(#arrowhead)"/>
<path d="M 74.0 200 Q 68.0 180, 62.0 200" stroke="black" fill="none" marker-end="url(#arrowhead)"/>
<path d="M 86.0 200 Q 80.0 180, 74.0 200" stroke="black" fill="none" marker-end="url(#arrowhead)"/>
<path d="M 86.0 200 Q 74.0 180, 62.0 200" stroke="black" fill="none" marker-end="url(#arrowhead)"/>
<path d="M 98.0 200 Q 80.0 180, 62.0 200" stroke="black" fill="none" marker-end="url(#arrowhead)"/>
<path d="M 110.0 200 Q 92.0 180, 74.0 200" stroke="black" fill="none" marker-end="url(#arrowhead)"/>
<path d="M 110.0 200 Q 104.0 180, 98.0 200" stroke="black" fill="none" marker-end="url(#arrowhead)"/>
<path d="M 110.0 200 Q 86.0 180, 62.0 200" stroke="black" fill="none" marker-end="url(#arrowhead)"/>
<path d="M 122.0 200 Q 116.0 180, 110.0 200" stroke="black" fill="none" marker-end="url(#arrowhead)"/>
<path d="M 122.0 200 Q 92.0 180, 62.0 200" stroke="black" fill="none" marker-end="url(#arrowhead)"/>
<path d="M 134.0 200 Q 128.0 180, 122.0 200" stroke="black" fill="none" marker-end="url(#arrowhead)"/>
<path d="M 146.0 200 Q 140.0 180, 134.0 200" stroke="black" fill="none" marker-end="url(#arrowhead)"/>
<path d="M 146.0 200 Q 104.0 180, 62.0 200" stroke="black" fill="none" marker-end="url(#arrowhead)"/>
<path d="M 158.0 200 Q 152.0 180, 146.0 200" stroke="black" fill="none" marker-end="url(#arrowhead)"/>
<path d="M 170.0 200 Q 152.0 180, 134.0 200" stroke="black" fill="none" marker-end="url(#arrowhead)"/>
<path d="M 182.0 200 Q 170.0 180, 158.0 200" stroke="black" fill="none" marker-end="url(#arrowhead)"/>
<path d="M 182.0 200 Q 122.0 180, 62.0 200" stroke="black" fill="none" marker-end="url(#arrowhead)"/>
<path d="M 194.0 200 Q 176.0 180, 158.0 200" stroke="black" fill="none" marker-end="url(#arrowhead)"/>
<path d="M 194.0 200 Q 188.0 180, 182.0 200" stroke="black" fill="none" marker-end="url(#arrowhead)"/>
<path d="M 206.0 200 Q 188.0 180, 170.0 200" stroke="black" fill="none" marker-end="url(#arrowhead)"/>
<path d="M 218.0 200 Q 212.0 180, 206.0 200" stroke="black" fill="none" marker-end="url(#arrowhead)"/>
<path d="M 218.0 200 Q 194.0 180, 170.0 200" stroke="black" fill="none" marker-end="url(#arrowhead)"/>
<path d="M 230.0 200 Q 224.0 180, 218.0 200" stroke="black" fill="none" marker-end="url(#arrowhead)"/>
<path d="M 242.0 200 Q 218.0 180, 194.0 200" stroke="black" fill="none" marker-end="url(#arrowhead)"/>
<path d="M 242.0 200 Q 152.0 180, 62.0 200" stroke="black" fill="none" marker-end="url(#arrowhead)"/>
<path d="M 254.0 200 Q 242.0 180, 230.0 200" stroke="black" fill="none" marker-end="url(#arrowhead)"/>
<path d="M 266.0 200 Q 206.0 180, 146.0 200" stroke="black" fill="none" marker-end="url(#arrowhead)"/>
<path d="M 266.0 200 Q 254.0 180, 242.0 200" stroke="black" fill="none" marker-end="url(#arrowhead)"/>
<path d="M 278.0 200 Q 266.0 180, 254.0 200" stroke="black" fill="none" marker-end="url(#arrowhead)"/>
<path d="M 290.0 200 Q 218.0 180, 146.0 200" stroke="black" fill="none" marker-end="url(#arrowhead)"/>
<path d="M 290.0 200 Q 278.0 180, 266.0 200" stroke="black" fill="none" marker-end="url(#arrowhead)"/>
<path d="M 290.0 200 Q 176.0 180, 62.0 200" stroke="black" fill="none" marker-end="url(#arrowhead)"/>
<path d="M 302.0 200 Q 290.0 180, 278.0 200" stroke="black" fill="none" marker-end="url(#arrowhead)"/>
<path d="M 302.0 200 Q 182.0 180, 62.0 200" stroke="black" fill="none" marker-end="url(#arrowhead)"/>
<path d="M 314.0 200 Q 296.0 180, 278.0 200" stroke="black" fill="none" marker-end="url(#arrowhead)"/>
<path d="M 314.0 200 Q 308.0 180, 302.0 200" stroke="black" fill="none" marker-end="url(#arrowhead)"/>
<path d="M 314.0 200 Q 188.0 180, 62.0 200" stroke="black" fill="none" marker-end="url(#arrowhead)"/>
<path d="M 326.0 200 Q 320.0 180, 314.0 200" stroke="black" fill="none" marker-end="url(#arrowhead)"/>
<path d="M 338.0 200 Q 332.0 180, 326.0 200" stroke="black" fill="none" marker-end="url(#arrowhead)"/>
<path d="M 350.0 200 Q 344.0 180, 338.0 200" stroke="black" fill="none" marker-end="url(#arrowhead)"/>
<path d="M 350.0 200 Q 338.0 180, 326.0 200" stroke="black" fill="none" marker-end="url(#arrowhead)"/>
<path d="M 362.0 200 Q 350.0 180, 338.0 200" stroke="black" fill="none" marker-end="url(#arrowhead)"/>
<path d="M 362.0 200 Q 356.0 180, 350.0 200" stroke="black" fill="none" marker-end="url(#arrowhead)"/>
<path d="M 374.0 200 Q 368.0 180, 362.0 200" stroke="black" fill="none" marker-end="url(#arrowhead)"/>
<path d="M 386.0 200 Q 374.0 180, 362.0 200" stroke="black" fill="none" marker-end="url(#arrowhead)"/>
<path d="M 386.0 200 Q 380.0 180, 374.0 200" stroke="black" fill="none" marker-end="url(#arrowhead)"/>
<path d="M 410.0 200 Q 398.0 180, 386.0 200" stroke="black" fill="none" marker-end="url(#arrowhead)"/>
<path d="M 422.0 200 Q 410.0 180, 398.0 200" stroke="black" fill="none" marker-end="url(#arrowhead)"/>
<path d="M 422.0 200 Q 242.0 180, 62.0 200" stroke="black" fill="none" marker-end="url(#arrowhead)"/>
<path d="M 434.0 200 Q 428.0 180, 422.0 200" stroke="black" fill="none" marker-end="url(#arrowhead)"/>
<path d="M 509.575026686334 200 Q 471.787513343167 180, 434.0 200" stroke="black" fill="none" marker-end="url(#arrowhead)"/>
<path d="M 543.0760888948387 200 Q 526.3255577905863 180, 509.575026686334 200" stroke="black" fill="none" marker-end="url(#arrowhead)"/>
<path d="M 543.0760888948387 200 Q 302.53804444741934 180, 62.0 200" stroke="black" fill="none" marker-end="url(#arrowhead)"/>
<path d="M 555.0760888948387 200 Q 488.53804444741934 180, 422.0 200" stroke="black" fill="none" marker-end="url(#arrowhead)"/>
<path d="M 555.0760888948387 200 Q 532.3255577905863 180, 509.575026686334 200" stroke="black" fill="none" marker-end="url(#arrowhead)"/>
<path d="M 555.0760888948387 200 Q 549.0760888948387 180, 543.0760888948387 200" stroke="black" fill="none" marker-end="url(#arrowhead)"/>
<path d="M 567.0760888948387 200 Q 561.0760888948387 180, 555.0760888948387 200" stroke="black" fill="none" marker-end="url(#arrowhead)"/>
<path d="M 567.0760888948387 200 Q 314.53804444741934 180, 62.0 200" stroke="black" fill="none" marker-end="url(#arrowhead)"/>
<path d="M 579.0760888948387 200 Q 573.0760888948387 180, 567.0760888948387 200" stroke="black" fill="none" marker-end="url(#arrowhead)"/>
<path d="M 579.0760888948387 200 Q 567.0760888948387 180, 555.0760888948387 200" stroke="black" fill="none" marker-end="url(#arrowhead)"/>
<path d="M 640.4264268884359 200 Q 501.21321344421796 180, 362.0 200" stroke="black" fill="none" marker-end="url(#arrowhead)"/>
<path d="M 652.4264268884359 200 Q 646.4264268884359 180, 640.4264268884359 200" stroke="black" fill="none" marker-end="url(#arrowhead)"/>
<path d="M 664.4264268884359 200 Q 658.4264268884359 180, 652.4264268884359 200" stroke="black" fill="none" marker-end="url(#arrowhead)"/>
<path d="M 664.4264268884359 200 Q 363.21321344421796 180, 62.0 200" stroke="black" fill="none" marker-end="url(#arrowhead)"/>
<path d="M 772.9644833241007 200 Q 749.6681004275308 180, 726.371717530961 200" stroke="black" fill="none" marker-end="url(#arrowhead)"/>
<path d="M 784.9644833241007 200 Q 778.9644833241007 180, 772.9644833241007 200" stroke="black" fill="none" marker-end="url(#arrowhead)"/>
<path d="M 821.2253895055898 200 Q 815.2253895055898 180, 809.2253895055898 200" stroke="black" fill="none" marker-end="url(#arrowhead)"/>
<path d="M 833.2253895055898 200 Q 821.2253895055898 180, 809.2253895055898 200" stroke="black" fill="none" marker-end="url(#arrowhead)"/>
<path d="M 833.2253895055898 200 Q 827.2253895055898 180, 821.2253895055898 200" stroke="black" fill="none" marker-end="url(#arrowhead)"/>
<path d="M 845.2253895055898 200 Q 833.2253895055898 180, 821.2253895055898 200" stroke="black" fill="none" marker-end="url(#arrowhead)"/>
<path d="M 845.2253895055898 200 Q 839.2253895055898 180, 833.2253895055898 200" stroke="black" fill="none" marker-end="url(#arrowhead)"/>
<path d="M 857.2253895055898 200 Q 851.2253895055898 180, 845.2253895055898 200" stroke="black" fill="none" marker-end="url(#arrowhead)"/>
<path d="M 857.2253895055898 200 Q 839.2253895055898 180, 821.2253895055898 200" stroke="black" fill="none" marker-end="url(#arrowhead)"/>
<path d="M 869.2253895055898 200 Q 863.2253895055898 180, 857.2253895055898 200" stroke="black" fill="none" marker-end="url(#arrowhead)"/>
<path d="M 881.2253895055898 200 Q 875.2253895055898 180, 869.2253895055898 200" stroke="black" fill="none" marker-end="url(#arrowhead)"/>
<path d="M 893.2253895055898 200 Q 887.2253895055898 180, 881.2253895055898 200" stroke="black" fill="none" marker-end="url(#arrowhead)"/>
<path d="M 905.2253895055898 200 Q 893.2253895055898 180, 881.2253895055898 200" stroke="black" fill="none" marker-end="url(#arrowhead)"/>
<path d="M 917.2253895055898 200 Q 899.2253895055898 180, 881.2253895055898 200" stroke="black" fill="none" marker-end="url(#arrowhead)"/>
<path d="M 917.2253895055898 200 Q 905.2253895055898 180, 893.2253895055898 200" stroke="black" fill="none" marker-end="url(#arrowhead)"/>
<path d="M 929.2253895055898 200 Q 917.2253895055898 180, 905.2253895055898 200" stroke="black" fill="none" marker-end="url(#arrowhead)"/>
<path d="M 941.2253895055898 200 Q 929.2253895055898 180, 917.2253895055898 200" stroke="black" fill="none" marker-end="url(#arrowhead)"/>
<path d="M 953.2253895055898 200 Q 941.2253895055898 180, 929.2253895055898 200" stroke="black" fill="none" marker-end="url(#arrowhead)"/>
<path d="M 965.2253895055898 200 Q 947.2253895055898 180, 929.2253895055898 200" stroke="black" fill="none" marker-end="url(#arrowhead)"/>
<path d="M 965.2253895055898 200 Q 959.2253895055898 180, 953.2253895055898 200" stroke="black" fill="none" marker-end="url(#arrowhead)"/>
<path d="M 977.2253895055898 200 Q 971.2253895055898 180, 965.2253895055898 200" stroke="black" fill="none" marker-end="url(#arrowhead)"/>
<path d="M 989.2253895055898 200 Q 977.2253895055898 180, 965.2253895055898 200" stroke="black" fill="none" marker-end="url(#arrowhead)"/>
<path d="M 1001.2253895055898 200 Q 935.2253895055898 180, 869.2253895055898 200" stroke="black" fill="none" marker-end="url(#arrowhead)"/>
<path d="M 1001.2253895055898 200 Q 971.2253895055898 180, 941.2253895055898 200" stroke="black" fill="none" marker-end="url(#arrowhead)"/>
<path d="M 1013.2253895055898 200 Q 1001.2253895055898 180, 989.2253895055898 200" stroke="black" fill="none" marker-end="url(#arrowhead)"/>
<path d="M 1025.2253895055896 200 Q 1019.2253895055896 180, 1013.2253895055898 200" stroke="black" fill="none" marker-end="url(#arrowhead)"/>
<path d="M 1037.2253895055896 200 Q 1025.2253895055896 180, 1013.2253895055898 200" stroke="black" fill="none" marker-end="url(#arrowhead)"/>
<path d="M 1037.2253895055896 200 Q 1031.2253895055896 180, 1025.2253895055896 200" stroke="black" fill="none" marker-end="url(#arrowhead)"/>
<path d="M 1049.2253895055896 200 Q 935.2253895055896 180, 821.2253895055898 200" stroke="black" fill="none" marker-end="url(#arrowhead)"/>
<path d="M 1049.2253895055896 200 Q 1043.2253895055896 180, 1037.2253895055896 200" stroke="black" fill="none" marker-end="url(#arrowhead)"/>

<defs>
  <marker id="arrowhead" markerWidth="5" markerHeight="5" 
          refX="2" refY="2" orient="auto" fill="black">
    <path d="M0,0 L0,4 L4,2 z" />
  </marker>
</defs>

<circle cx="50.0" cy="200" r="6" fill="none" stroke="black" stroke-width="2" />
<circle cx="50.0" cy="200" r="3" fill="black" />
<circle cx="62.0" cy="200" r="4" fill="black" />
<circle cx="74.0" cy="200" r="6" fill="none" stroke="black" stroke-width="2" />
<circle cx="74.0" cy="200" r="3" fill="black" />
<circle cx="86.0" cy="200" r="4" fill="black" />
<circle cx="98.0" cy="200" r="6" fill="none" stroke="red" stroke-width="2" />
<circle cx="98.0" cy="200" r="3" fill="red" />
<circle cx="110.0" cy="200" r="4" fill="blue" />
<circle cx="122.0" cy="200" r="6" fill="none" stroke="blue" stroke-width="2" />
<circle cx="122.0" cy="200" r="3" fill="blue" />
<circle cx="134.0" cy="200" r="4" fill="blue" />
<circle cx="146.0" cy="200" r="6" fill="none" stroke="black" stroke-width="2" />
<circle cx="146.0" cy="200" r="3" fill="black" />
<circle cx="158.0" cy="200" r="4" fill="black" />
<circle cx="170.0" cy="200" r="4" fill="black" />
<circle cx="182.0" cy="200" r="6" fill="none" stroke="black" stroke-width="2" />
<circle cx="182.0" cy="200" r="3" fill="black" />
<circle cx="194.0" cy="200" r="4" fill="red" />
<circle cx="206.0" cy="200" r="6" fill="none" stroke="black" stroke-width="2" />
<circle cx="206.0" cy="200" r="3" fill="black" />
<circle cx="218.0" cy="200" r="4" fill="black" />
<circle cx="230.0" cy="200" r="4" fill="black" />
<circle cx="242.0" cy="200" r="6" fill="none" stroke="black" stroke-width="2" />
<circle cx="242.0" cy="200" r="3" fill="black" />
<circle cx="254.0" cy="200" r="6" fill="none" stroke="black" stroke-width="2" />
<circle cx="254.0" cy="200" r="3" fill="black" />
<circle cx="266.0" cy="200" r="4" fill="red" />
<circle cx="278.0" cy="200" r="4" fill="blue" />
<circle cx="290.0" cy="200" r="6" fill="none" stroke="black" stroke-width="2" />
<circle cx="290.0" cy="200" r="3" fill="black" />
<circle cx="302.0" cy="200" r="6" fill="none" stroke="black" stroke-width="2" />
<circle cx="302.0" cy="200" r="3" fill="black" />
<circle cx="314.0" cy="200" r="6" fill="none" stroke="green" stroke-width="2" />
<circle cx="314.0" cy="200" r="3" fill="green" />
<circle cx="326.0" cy="200" r="6" fill="none" stroke="black" stroke-width="2" />
<circle cx="326.0" cy="200" r="3" fill="black" />
<circle cx="338.0" cy="200" r="6" fill="none" stroke="blue" stroke-width="2" />
<circle cx="338.0" cy="200" r="3" fill="blue" />
<circle cx="350.0" cy="200" r="4" fill="black" />
<circle cx="362.0" cy="200" r="4" fill="black" />
<circle cx="374.0" cy="200" r="6" fill="none" stroke="blue" stroke-width="2" />
<circle cx="374.0" cy="200" r="3" fill="blue" />
<circle cx="386.0" cy="200" r="6" fill="none" stroke="blue" stroke-width="2" />
<circle cx="386.0" cy="200" r="3" fill="blue" />
<circle cx="398.0" cy="200" r="4" fill="blue" />
<circle cx="410.0" cy="200" r="4" fill="red" />
<circle cx="422.0" cy="200" r="6" fill="none" stroke="black" stroke-width="2" />
<circle cx="422.0" cy="200" r="3" fill="black" />
<circle cx="434.0" cy="200" r="6" fill="none" stroke="black" stroke-width="2" />
<circle cx="434.0" cy="200" r="3" fill="black" />
<circle cx="509.575026686334" cy="200" r="4" fill="black" />
<circle cx="543.0760888948387" cy="200" r="6" fill="none" stroke="black" stroke-width="2" />
<circle cx="543.0760888948387" cy="200" r="3" fill="black" />
<circle cx="555.0760888948387" cy="200" r="4" fill="red" />
<circle cx="567.0760888948387" cy="200" r="6" fill="none" stroke="black" stroke-width="2" />
<circle cx="567.0760888948387" cy="200" r="3" fill="black" />
<circle cx="579.0760888948387" cy="200" r="4" fill="green" />
<circle cx="640.4264268884359" cy="200" r="6" fill="none" stroke="black" stroke-width="2" />
<circle cx="640.4264268884359" cy="200" r="3" fill="black" />
<circle cx="652.4264268884359" cy="200" r="4" fill="red" />
<circle cx="664.4264268884359" cy="200" r="6" fill="none" stroke="black" stroke-width="2" />
<circle cx="664.4264268884359" cy="200" r="3" fill="black" />
<circle cx="726.371717530961" cy="200" r="4" fill="blue" />
<circle cx="772.9644833241007" cy="200" r="6" fill="none" stroke="green" stroke-width="2" />
<circle cx="772.9644833241007" cy="200" r="3" fill="green" />
<circle cx="784.9644833241007" cy="200" r="4" fill="black" />
<circle cx="809.2253895055898" cy="200" r="4" fill="black" />
<circle cx="821.2253895055898" cy="200" r="4" fill="black" />
<circle cx="833.2253895055898" cy="200" r="4" fill="black" />
<circle cx="845.2253895055898" cy="200" r="4" fill="black" />
<circle cx="857.2253895055898" cy="200" r="4" fill="red" />
<circle cx="869.2253895055898" cy="200" r="4" fill="blue" />
<circle cx="881.2253895055898" cy="200" r="4" fill="blue" />
<circle cx="893.2253895055898" cy="200" r="6" fill="none" stroke="green" stroke-width="2" />
<circle cx="893.2253895055898" cy="200" r="3" fill="green" />
<circle cx="905.2253895055898" cy="200" r="4" fill="green" />
<circle cx="917.2253895055898" cy="200" r="4" fill="red" />
<circle cx="929.2253895055898" cy="200" r="4" fill="blue" />
<circle cx="941.2253895055898" cy="200" r="4" fill="red" />
<circle cx="953.2253895055898" cy="200" r="4" fill="blue" />
<circle cx="965.2253895055898" cy="200" r="4" fill="black" />
<circle cx="977.2253895055898" cy="200" r="4" fill="green" />
<circle cx="989.2253895055898" cy="200" r="4" fill="black" />
<circle cx="1001.2253895055898" cy="200" r="4" fill="green" />
<circle cx="1013.2253895055898" cy="200" r="4" fill="black" />
<circle cx="1025.2253895055896" cy="200" r="4" fill="green" />
<circle cx="1037.2253895055896" cy="200" r="4" fill="green" />
<circle cx="1049.2253895055896" cy="200" r="4" fill="green" />
<text x="50" y="225" fill="gray" style="font-size:12px;">2024-10-20T16:32:13+00:00</text>
<text x="900" y="225" fill="gray" style="font-size:12px;">2025-02-13T13:02:18+00:00</text>
</svg>