<svg xmlns="http://www.w3.org/2000/svg" width="1000" height="200" style="background-color: white; font-family: sans-serif;">
<line x1="50" y1="100" x2="950" y2="100" stroke="gray" stroke-width="1"/>
<path d="M 62.0 100 Q 56.0 80, 50.0 100" stroke="black" fill="none" marker-end="url(#arrowhead)"/>
<path d="M 74.0 100 Q 68.0 80, 62.0 100" stroke="black" fill="none" marker-end="url(#arrowhead)"/>
<path d="M 86.0 100 Q 80.0 80, 74.0 100" stroke="black" fill="none" marker-end="url(#arrowhead)"/>
<path d="M 86.0 100 Q 74.0 80, 62.0 100" stroke="black" fill="none" marker-end="url(#arrowhead)"/>
<path d="M 98.0 100 Q 80.0 80, 62.0 100" stroke="black" fill="none" marker-end="url(#arrowhead)"/>
<path d="M 110.0 100 Q 92.0 80, 74.0 100" stroke="black" fill="none" marker-end="url(#arrowhead)"/>
<path d="M 110.0 100 Q 104.0 80, 98.0 100" stroke="black" fill="none" marker-end="url(#arrowhead)"/>
<path d="M 110.0 100 Q 86.0 80, 62.0 100" stroke="black" fill="none" marker-end="url(#arrowhead)"/>
<path d="M 122.0 100 Q 116.0 80, 110.0 100" stroke="black" fill="none" marker-end="url(#arrowhead)"/>
<path d="M 122.0 100 Q 92.0 80, 62.0 100" stroke="black" fill="none" marker-end="url(#arrowhead)"/>
<path d="M 134.0 100 Q 128.0 80, 122.0 100" stroke="black" fill="none" marker-end="url(#arrowhead)"/>
<path d="M 146.0 100 Q 140.0 80, 134.0 100" stroke="black" fill="none" marker-end="url(#arrowhead)"/>
<path d="M 146.0 100 Q 104.0 80, 62.0 100" stroke="black" fill="none" marker-end="url(#arrowhead)"/>
<path d="M 158.0 100 Q 152.0 80, 146.0 100" stroke="black" fill="none" marker-end="url(#arrowhead)"/>
<path d="M 170.0 100 Q 152.0 80, 134.0 100" stroke="black" fill="none" marker-end="url(#arrowhead)"/>
<path d="M 182.0 100 Q 170.0 80, 158.0 100" stroke="black" fill="none" marker-end="url(#arrowhead)"/>
<path d="M 182.0 100 Q 122.0 80, 62.0 100" stroke="black" fill="none" marker-end="url(#arrowhead)"/>
<path d="M 194.0 100 Q 176.0 80, 158.0 100" stroke="black" fill="none" marker-end="url(#arrowhead)"/>
<path d="M 194.0 100 Q 188.0 80, 182.0 100" stroke="black" fill="none" marker-end="url(#arrowhead)"/>
<path d="M 206.0 100 Q 188.0 80, 170.0 100" stroke="black" fill="none" marker-end="url(#arrowhead)"/>
<path d="M 218.0 100 Q 212.0 80, 206.0 100" stroke="black" fill="none" marker-end="url(#arrowhead)"/>
<path d="M 218.0 100 Q 194.0 80, 170.0 100" stroke="black" fill="none" marker-end="url(#arrowhead)"/>
<path d="M 230.0 100 Q 224.0 80, 218.0 100" stroke="black" fill="none" marker-end="url(#arrowhead)"/>
<path d="M 242.0 100 Q 218.0 80, 194.0 100" stroke="black" fill="none" marker-end="url(#arrowhead)"/>
<path d="M 242.0 100 Q 152.0 80, 62.0 100" stroke="black" fill="none" marker-end="url(#arrowhead)"/>
<path d="M 254.0 100 Q 242.0 80, 230.0 100" stroke="black" fill="none" marker-end="url(#arrowhead)"/>
<path d="M 266.0 100 Q 206.0 80, 146.0 100" stroke="black" fill="none" marker-end="url(#arrowhead)"/>
<path d="M 266.0 100 Q 254.0 80, 242.0 100" stroke="black" fill="none" marker-end="url(#arrowhead)"/>
<path d="M 278.0 100 Q 266.0 80, 254.0 100" stroke="black" fill="none" marker-end="url(#arrowhead)"/>
<path d="M 290.0 100 Q 218.0 80, 146.0 100" stroke="black" fill="none" marker-end="url(#arrowhead)"/>
<path d="M 290.0 100 Q 278.0 80, 266.0 100" stroke="black" fill="none" marker-end="url(#arrowhead)"/>
<path d="M 290.0 100 Q 176.0 80, 62.0 100" stroke="black" fill="none" marker-end="url(#arrowhead)"/>
<path d="M 302.0 100 Q 290.0 80, 278.0 100" stroke="black" fill="none" marker-end="url(#arrowhead)"/>
<path d="M 302.0 100 Q 182.0 80, 62.0 100" stroke="black" fill="none" marker-end="url(#arrowhead)"/>
<path d="M 314.0 100 Q 296.0 80, 278.0 100" stroke="black" fill="none" marker-end="url(#arrowhead)"/>
<path d="M 314.0 100 Q 308.0 80, 302.0 100" stroke="black" fill="none" marker-end="url(#arrowhead)"/>
<path d="M 314.0 100 Q 188.0 80, 62.0 100" stroke="black" fill="none" marker-end="url(#arrowhead)"/>
<path d="M 326.0 100 Q 320.0 80, 314.0 100" stroke="black" fill="none" marker-end="url(#arrowhead)"/>
<path d="M 338.0 100 Q 332.0 80, 326.0 100" stroke="black" fill="none" marker-end="url(#arrowhead)"/>
<path d="M 350.0 100 Q 344.0 80, 338.0 100" stroke="black" fill="none" marker-end="url(#arrowhead)"/>
<path d="M 350.0 100 Q 338.0 80, 326.0 100" stroke="black" fill="none" marker-end="url(#arrowhead)"/>
<path d="M 362.0 100 Q 350.0 80, 338.0 100" stroke="black" fill="none" marker-end="url(#arrowhead)"/>
<path d="M 362.0 100 Q 356.0 80, 350.0 100" stroke="black" fill="none" marker-end="url(#arrowhead)"/>
<path d="M 374.0 100 Q 368.0 80, 362.0 100" stroke="black" fill="none" marker-end="url(#arrowhead)"/>
<path d="M 386.0 100 Q 374.0 80, 362.0 100" stroke="black" fill="none" marker-end="url(#arrowhead)"/>
<path d="M 386.0 100 Q 380.0 80, 374.0 100" stroke="black" fill="none" marker-end="url(#arrowhead)"/>
<path d="M 410.0 100 Q 398.0 80, 386.0 100" stroke="black" fill="none" marker-end="url(#arrowhead)"/>
<path d="M 422.0 100 Q 410.0 80, 398.0 100" stroke="black" fill="none" marker-end="url(#arrowhead)"/>
<path d="M 422.0 100 Q 242.0 80, 62.0 100" stroke="black" fill="none" marker-end="url(#arrowhead)"/>
<path d="M 434.0 100 Q 428.0 80, 422.0 100" stroke="black" fill="none" marker-end="url(#arrowhead)"/>
<path d="M 509.575026686334 100 Q 471.787513343167 80, 434.0 100" stroke="black" fill="none" marker-end="url(#arrowhead)"/>
<path d="M 543.0760888948387 100 Q 526.3255577905863 80, 509.575026686334 100" stroke="black" fill="none" marker-end="url(#arrowhead)"/>
<path d="M 543.0760888948387 100 Q 302.53804444741934 80, 62.0 100" stroke="black" fill="none" marker-end="url(#arrowhead)"/>
<path d="M 555.0760888948387 100 Q 488.53804444741934 80, 422.0 100" stroke="black" fill="none" marker-end="url(#arrowhead)"/>
<path d="M 555.0760888948387 100 Q 532.3255577905863 80, 509.575026686334 100" stroke="black" fill="none" marker-end="url(#arrowhead)"/>
<path d="M 555.0760888948387 100 Q 549.0760888948387 80, 543.0760888948387 100" stroke="black" fill="none" marker-end="url(#arrowhead)"/>
<path d="M 567.0760888948387 100 Q 561.0760888948387 80, 555.0760888948387 100" stroke="black" fill="none" marker-end="url(#arrowhead)"/>
<path d="M 567.0760888948387 100 Q 314.53804444741934 80, 62.0 100" stroke="black" fill="none" marker-end="url(#arrowhead)"/>
<path d="M 579.0760888948387 100 Q 573.0760888948387 80, 567.0760888948387 100" stroke="black" fill="none" marker-end="url(#arrowhead)"/>
<path d="M 579.0760888948387 100 Q 567.0760888948387 80, 555.0760888948387 100" stroke="black" fill="none" marker-end="url(#arrowhead)"/>
<path d="M 640.4264268884359 100 Q 501.21321344421796 80, 362.0 100" stroke="black" fill="none" marker-end="url(#arrowhead)"/>
<path d="M 652.4264268884359 100 Q 646.4264268884359 80, 640.4264268884359 100" stroke="black" fill="none" marker-end="url(#arrowhead)"/>
<path d="M 664.4264268884359 100 Q 658.4264268884359 80, 652.4264268884359 100" stroke="black" fill="none" marker-end="url(#arrowhead)"/>
<path d="M 664.4264268884359 100 Q 363.21321344421796 80, 62.0 100" stroke="black" fill="none" marker-end="url(#arrowhead)"/>
<path d="M 772.9644833241007 100 Q 749.6681004275308 80, 726.371717530961 100" stroke="black" fill="none" marker-end="url(#arrowhead)"/>
<path d="M 784.9644833241007 100 Q 778.9644833241007 80, 772.9644833241007 100" stroke="black" fill="none" marker-end="url(#arrowhead)"/>
<path d="M 821.2253895055898 100 Q 815.2253895055898 80, 809.2253895055898 100" stroke="black" fill="none" marker-end="url(#arrowhead)"/>
<path d="M 833.2253895055898 100 Q 821.2253895055898 80, 809.2253895055898 100" stroke="black" fill="none" marker-end="url(#arrowhead)"/>
<path d="M 833.2253895055898 100 Q 827.2253895055898 80, 821.2253895055898 100" stroke="black" fill="none" marker-end="url(#arrowhead)"/>
<path d="M 845.2253895055898 100 Q 833.2253895055898 80, 821.2253895055898 100" stroke="black" fill="none" marker-end="url(#arrowhead)"/>
<path d="M 845.2253895055898 100 Q 839.2253895055898 80, 833.2253895055898 100" stroke="black" fill="none" marker-end="url(#arrowhead)"/>
<path d="M 857.2253895055898 100 Q 851.2253895055898 80, 845.2253895055898 100" stroke="black" fill="none" marker-end="url(#arrowhead)"/>
<path d="M 857.2253895055898 100 Q 839.2253895055898 80, 821.2253895055898 100" stroke="black" fill="none" marker-end="url(#arrowhead)"/>
<path d="M 869.2253895055898 100 Q 863.2253895055898 80, 857.2253895055898 100" stroke="black" fill="none" marker-end="url(#arrowhead)"/>
<path d="M 881.2253895055898 100 Q 875.2253895055898 80, 869.2253895055898 100" stroke="black" fill="none" marker-end="url(#arrowhead)"/>
<path d="M 893.2253895055898 100 Q 887.2253895055898 80, 881.2253895055898 100" stroke="black" fill="none" marker-end="url(#arrowhead)"/>
<path d="M 905.2253895055898 100 Q 893.2253895055898 80, 881.2253895055898 100" stroke="black" fill="none" marker-end="url(#arrowhead)"/>
<path d="M 917.2253895055898 100 Q 899.2253895055898 80, 881.2253895055898 100" stroke="black" fill="none" marker-end="url(#arrowhead)"/>
<path d="M 917.2253895055898 100 Q 905.2253895055898 80, 893.2253895055898 100" stroke="black" fill="none" marker-end="url(#arrowhead)"/>
<path d="M 929.2253895055898 100 Q 917.2253895055898 80, 905.2253895055898 100" stroke="black" fill="none" marker-end="url(#arrowhead)"/>
<path d="M 941.2253895055898 100 Q 929.2253895055898 80, 917.2253895055898 100" stroke="black" fill="none" marker-end="url(#arrowhead)"/>
<path d="M 953.2253895055898 100 Q 941.2253895055898 80, 929.2253895055898 100" stroke="black" fill="none" marker-end="url(#arrowhead)"/>
<path d="M 965.2253895055898 100 Q 947.2253895055898 80, 929.2253895055898 100" stroke="black" fill="none" marker-end="url(#arrowhead)"/>
<path d="M 965.2253895055898 100 Q 959.2253895055898 80, 953.2253895055898 100" stroke="black" fill="none" marker-end="url(#arrowhead)"/>
<path d="M 977.2253895055898 100 Q 971.2253895055898 80, 965.2253895055898 100" stroke="black" fill="none" marker-end="url(#arrowhead)"/>
<path d="M 989.2253895055898 100 Q 977.2253895055898 80, 965.2253895055898 100" stroke="black" fill="none" marker-end="url(#arrowhead)"/>
<path d="M 1001.2253895055898 100 Q 935.2253895055898 80, 869.2253895055898 100" stroke="black" fill="none" marker-end="url(#arrowhead)"/>
<path d="M 1001.2253895055898 100 Q 971.2253895055898 80, 941.2253895055898 100" stroke="black" fill="none" marker-end="url(#arrowhead)"/>
<path d="M 1013.2253895055898 100 Q 1001.2253895055898 80, 989.2253895055898 100" stroke="black" fill="none" marker-end="url(#arrowhead)"/>
<path d="M 1025.2253895055896 100 Q 1019.2253895055896 80, 1013.2253895055898 100" stroke="black" fill="none" marker-end="url(#arrowhead)"/>
<path d="M 1037.2253895055896 100 Q 1025.2253895055896 80, 1013.2253895055898 100" stroke="black" fill="none" marker-end="url(#arrowhead)"/>
<path d="M 1037.2253895055896 100 Q 1031.2253895055896 80, 1025.2253895055896 100" stroke="black" fill="none" marker-end="url(#arrowhead)"/>
<path d="M 1049.2253895055896 100 Q 935.2253895055896 80, 821.2253895055898 100" stroke="black" fill="none" marker-end="url(#arrowhead)"/>
<path d="M 1049.2253895055896 100 Q 1043.2253895055896 80, 1037.2253895055896 100" stroke="black" fill="none" marker-end="url(#arrowhead)"/>

<defs>
  <marker id="arrowhead" markerWidth="5" markerHeight="5" 
          refX="2" refY="2" orient="auto" fill="black">
    <path d="M0,0 L0,4 L4,2 z" />
  </marker>
</defs>

<circle cx="50.0" cy="100" r="6" fill="none" stroke="black" stroke-width="2" />
<circle cx="50.0" cy="100" r="3" fill="black" />
<circle cx="62.0" cy="100" r="4" fill="black" />
<circle cx="74.0" cy="100" r="6" fill="none" stroke="black" stroke-width="2" />
<circle cx="74.0" cy="100" r="3" fill="black" />
<circle cx="86.0" cy="100" r="4" fill="black" />
<circle cx="98.0" cy="100" r="6" fill="none" stroke="red" stroke-width="2" />
<circle cx="98.0" cy="100" r="3" fill="red" />
<circle cx="110.0" cy="100" r="4" fill="blue" />
<circle cx="122.0" cy="100" r="6" fill="none" stroke="blue" stroke-width="2" />
<circle cx="122.0" cy="100" r="3" fill="blue" />
<circle cx="134.0" cy="100" r="4" fill="blue" />
<circle cx="146.0" cy="100" r="6" fill="none" stroke="black" stroke-width="2" />
<circle cx="146.0" cy="100" r="3" fill="black" />
<circle cx="158.0" cy="100" r="4" fill="black" />
<circle cx="170.0" cy="100" r="4" fill="black" />
<circle cx="182.0" cy="100" r="6" fill="none" stroke="black" stroke-width="2" />
<circle cx="182.0" cy="100" r="3" fill="black" />
<circle cx="194.0" cy="100" r="4" fill="red" />
<circle cx="206.0" cy="100" r="6" fill="none" stroke="black" stroke-width="2" />
<circle cx="206.0" cy="100" r="3" fill="black" />
<circle cx="218.0" cy="100" r="4" fill="black" />
<circle cx="230.0" cy="100" r="4" fill="black" />
<circle cx="242.0" cy="100" r="6" fill="none" stroke="black" stroke-width="2" />
<circle cx="242.0" cy="100" r="3" fill="black" />
<circle cx="254.0" cy="100" r="6" fill="none" stroke="black" stroke-width="2" />
<circle cx="254.0" cy="100" r="3" fill="black" />
<circle cx="266.0" cy="100" r="4" fill="red" />
<circle cx="278.0" cy="100" r="4" fill="blue" />
<circle cx="290.0" cy="100" r="6" fill="none" stroke="black" stroke-width="2" />
<circle cx="290.0" cy="100" r="3" fill="black" />
<circle cx="302.0" cy="100" r="6" fill="none" stroke="black" stroke-width="2" />
<circle cx="302.0" cy="100" r="3" fill="black" />
<circle cx="314.0" cy="100" r="6" fill="none" stroke="green" stroke-width="2" />
<circle cx="314.0" cy="100" r="3" fill="green" />
<circle cx="326.0" cy="100" r="6" fill="none" stroke="black" stroke-width="2" />
<circle cx="326.0" cy="100" r="3" fill="black" />
<circle cx="338.0" cy="100" r="6" fill="none" stroke="blue" stroke-width="2" />
<circle cx="338.0" cy="100" r="3" fill="blue" />
<circle cx="350.0" cy="100" r="4" fill="black" />
<circle cx="362.0" cy="100" r="4" fill="black" />
<circle cx="374.0" cy="100" r="6" fill="none" stroke="blue" stroke-width="2" />
<circle cx="374.0" cy="100" r="3" fill="blue" />
<circle cx="386.0" cy="100" r="6" fill="none" stroke="blue" stroke-width="2" />
<circle cx="386.0" cy="100" r="3" fill="blue" />
<circle cx="398.0" cy="100" r="4" fill="blue" />
<circle cx="410.0" cy="100" r="4" fill="red" />
<circle cx="422.0" cy="100" r="6" fill="none" stroke="black" stroke-width="2" />
<circle cx="422.0" cy="100" r="3" fill="black" />
<circle cx="434.0" cy="100" r="6" fill="none" stroke="black" stroke-width="2" />
<circle cx="434.0" cy="100" r="3" fill="black" />
<circle cx="509.575026686334" cy="100" r="4" fill="black" />
<circle cx="543.0760888948387" cy="100" r="6" fill="none" stroke="black" stroke-width="2" />
<circle cx="543.0760888948387" cy="100" r="3" fill="black" />
<circle cx="555.0760888948387" cy="100" r="4" fill="red" />
<circle cx="567.0760888948387" cy="100" r="6" fill="none" stroke="black" stroke-width="2" />
<circle cx="567.0760888948387" cy="100" r="3" fill="black" />
<circle cx="579.0760888948387" cy="100" r="4" fill="green" />
<circle cx="640.4264268884359" cy="100" r="6" fill="none" stroke="black" stroke-width="2" />
<circle cx="640.4264268884359" cy="100" r="3" fill="black" />
<circle cx="652.4264268884359" cy="100" r="4" fill="red" />
<circle cx="664.4264268884359" cy="100" r="6" fill="none" stroke="black" stroke-width="2" />
<circle cx="664.4264268884359" cy="100" r="3" fill="black" />
<circle cx="726.371717530961" cy="100" r="4" fill="blue" />
<circle cx="772.9644833241007" cy="100" r="6" fill="none" stroke="green" stroke-width="2" />
<circle cx="772.9644833241007" cy="100" r="3" fill="green" />
<circle cx="784.9644833241007" cy="100" r="4" fill="black" />
<circle cx="809.2253895055898" cy="100" r="4" fill="black" />
<circle cx="821.2253895055898" cy="100" r="4" fill="black" />
<circle cx="833.2253895055898" cy="100" r="4" fill="black" />
<circle cx="845.2253895055898" cy="100" r="4" fill="black" />
<circle cx="857.2253895055898" cy="100" r="4" fill="red" />
<circle cx="869.2253895055898" cy="100" r="4" fill="blue" />
<circle cx="881.2253895055898" cy="100" r="4" fill="blue" />
<circle cx="893.2253895055898" cy="100" r="6" fill="none" stroke="green" stroke-width="2" />
<circle cx="893.2253895055898" cy="100" r="3" fill="green" />
<circle cx="905.2253895055898" cy="100" r="4" fill="green" />
<circle cx="917.2253895055898" cy="100" r="4" fill="red" />
<circle cx="929.2253895055898" cy="100" r="4" fill="blue" />
<circle cx="941.2253895055898" cy="100" r="4" fill="red" />
<circle cx="953.2253895055898" cy="100" r="4" fill="blue" />
<circle cx="965.2253895055898" cy="100" r="4" fill="black" />
<circle cx="977.2253895055898" cy="100" r="4" fill="green" />
<circle cx="989.2253895055898" cy="100" r="4" fill="black" />
<circle cx="1001.2253895055898" cy="100" r="4" fill="green" />
<circle cx="1013.2253895055898" cy="100" r="4" fill="black" />
<circle cx="1025.2253895055896" cy="100" r="4" fill="green" />
<circle cx="1037.2253895055896" cy="100" r="4" fill="green" />
<circle cx="1049.2253895055896" cy="100" r="4" fill="green" />
<text x="50" y="125" fill="gray" style="font-size:12px;">2024-10-20T16:32:13+00:00</text>
<text x="900" y="125" fill="gray" style="font-size:12px;">2025-02-13T13:02:18+00:00</text>
</svg>