<svg xmlns="http://www.w3.org/2000/svg" width="1000" height="400" style="background-color: white; font-family: sans-serif;">
<line x1="50" y1="200" x2="950" y2="200" stroke="gray" stroke-width="1"/>
<path d="M 62.0 200 Q 56.0 180, 50.0 200" stroke="black" fill="none" marker-end="url(#arrowhead)"/>
<path d="M 74.0 200 Q 68.0 180, 62.0 200" stroke="black" fill="none" marker-end="url(#arrowhead)"/>
<path d="M 86.0 200 Q 80.0 180, 74.0 200" stroke="black" fill="none" marker-end="url(#arrowhead)"/>
<path d="M 98.0 200 Q 92.0 180, 86.0 200" stroke="black" fill="none" marker-end="url(#arrowhead)"/>
<path d="M 110.0 200 Q 104.0 180, 98.0 200" stroke="black" fill="none" marker-end="url(#arrowhead)"/>
<path d="M 122.0 200 Q 86.0 180, 50.0 200" stroke="black" fill="none" marker-end="url(#arrowhead)"/>
<path d="M 134.0 200 Q 128.0 180, 122.0 200" stroke="black" fill="none" marker-end="url(#arrowhead)"/>
<path d="M 220.1067828213823 200 Q 177.05339141069115 180, 134.0 200" stroke="black" fill="none" marker-end="url(#arrowhead)"/>
<path d="M 397.5486958006696 200 Q 308.82773931102594 180, 220.1067828213823 200" stroke="black" fill="none" marker-end="url(#arrowhead)"/>
<path d="M 417.43316704090995 200 Q 407.49093142078976 180, 397.5486958006696 200" stroke="black" fill="none" marker-end="url(#arrowhead)"/>
<path d="M 459.7911723209253 200 Q 254.89558616046264 180, 50.0 200" stroke="black" fill="none" marker-end="url(#arrowhead)"/>
<path d="M 459.7911723209253 200 Q 438.61216968091765 180, 417.43316704090995 200" stroke="black" fill="none" marker-end="url(#arrowhead)"/>
<path d="M 471.7911723209253 200 Q 465.7911723209253 180, 459.7911723209253 200" stroke="black" fill="none" marker-end="url(#arrowhead)"/>
<path d="M 471.7911723209253 200 Q 260.89558616046264 180, 50.0 200" stroke="black" fill="none" marker-end="url(#arrowhead)"/>
<path d="M 471.7911723209253 200 Q 444.61216968091765 180, 417.43316704090995 200" stroke="black" fill="none" marker-end="url(#arrowhead)"/>
<path d="M 483.7911723209253 200 Q 477.7911723209253 180, 471.7911723209253 200" stroke="black" fill="none" marker-end="url(#arrowhead)"/>
<path d="M 495.7911723209253 200 Q 483.7911723209253 180, 471.7911723209253 200" stroke="black" fill="none" marker-end="url(#arrowhead)"/>
<path d="M 495.7911723209253 200 Q 489.7911723209253 180, 483.7911723209253 200" stroke="black" fill="none" marker-end="url(#arrowhead)"/>
<path d="M 794.5038096465769 200 Q 692.233313257067 180, 589.9628168675573 200" stroke="black" fill="none" marker-end="url(#arrowhead)"/>
<path d="M 806.5038096465769 200 Q 639.1474909837511 180, 471.7911723209253 200" stroke="black" fill="none" marker-end="url(#arrowhead)"/>
<path d="M 806.5038096465769 200 Q 645.1474909837511 180, 483.7911723209253 200" stroke="black" fill="none" marker-end="url(#arrowhead)"/>
<path d="M 830.5038096465769 200 Q 824.5038096465769 180, 818.5038096465769 200" stroke="black" fill="none" marker-end="url(#arrowhead)"/>
<path d="M 830.5038096465769 200 Q 710.233313257067 180, 589.9628168675573 200" stroke="black" fill="none" marker-end="url(#arrowhead)"/>
<path d="M 842.5038096465769 200 Q 836.5038096465769 180, 830.5038096465769 200" stroke="black" fill="none" marker-end="url(#arrowhead)"/>
<path d="M 854.5038096465769 200 Q 842.5038096465769 180, 830.5038096465769 200" stroke="black" fill="none" marker-end="url(#arrowhead)"/>
<path d="M 854.5038096465769 200 Q 824.5038096465769 180, 794.5038096465769 200" stroke="black" fill="none" marker-end="url(#arrowhead)"/>
<path d="M 866.5038096465769 200 Q 842.5038096465769 180, 818.5038096465769 200" stroke="black" fill="none" marker-end="url(#arrowhead)"/>
<path d="M 866.5038096465769 200 Q 854.5038096465769 180, 842.5038096465769 200" stroke="black" fill="none" marker-end="url(#arrowhead)"/>
<path d="M 866.5038096465769 200 Q 728.233313257067 180, 589.9628168675573 200" stroke="black" fill="none" marker-end="url(#arrowhead)"/>
<path d="M 878.5038096465769 200 Q 866.5038096465769 180, 854.5038096465769 200" stroke="black" fill="none" marker-end="url(#arrowhead)"/>
<path d="M 902.5038096465769 200 Q 884.5038096465769 180, 866.5038096465769 200" stroke="black" fill="none" marker-end="url(#arrowhead)"/>
<path d="M 902.5038096465769 200 Q 746.233313257067 180, 589.9628168675573 200" stroke="black" fill="none" marker-end="url(#arrowhead)"/>
<path d="M 902.5038096465769 200 Q 860.5038096465769 180, 818.5038096465769 200" stroke="black" fill="none" marker-end="url(#arrowhead)"/>
<path d="M 902.5038096465769 200 Q 896.5038096465769 180, 890.5038096465769 200" stroke="black" fill="none" marker-end="url(#arrowhead)"/>
<path d="M 902.5038096465769 200 Q 872.5038096465769 180, 842.5038096465769 200" stroke="black" fill="none" marker-end="url(#arrowhead)"/>
<path d="M 926.5038096465769 200 Q 872.5038096465769 180, 818.5038096465769 200" stroke="black" fill="none" marker-end="url(#arrowhead)"/>
<path d="M 926.5038096465769 200 Q 914.5038096465769 180, 902.5038096465769 200" stroke="black" fill="none" marker-end="url(#arrowhead)"/>
<path d="M 926.5038096465769 200 Q 920.5038096465769 180, 914.5038096465769 200" stroke="black" fill="none" marker-end="url(#arrowhead)"/>
<path d="M 926.5038096465769 200 Q 758.233313257067 180, 589.9628168675573 200" stroke="black" fill="none" marker-end="url(#arrowhead)"/>
<path d="M 938.5038096465769 200 Q 932.5038096465769 180, 926.5038096465769 200" stroke="black" fill="none" marker-end="url(#arrowhead)"/>
<path d="M 962.5038096465769 200 Q 950.5038096465769 180, 938.5038096465769 200" stroke="black" fill="none" marker-end="url(#arrowhead)"/>
<path d="M 974.5038096465769 200 Q 896.5038096465769 180, 818.5038096465769 200" stroke="black" fill="none" marker-end="url(#arrowhead)"/>
<path d="M 974.5038096465769 200 Q 962.5038096465769 180, 950.5038096465769 200" stroke="black" fill="none" marker-end="url(#arrowhead)"/>
<path d="M 974.5038096465769 200 Q 944.5038096465769 180, 914.5038096465769 200" stroke="black" fill="none" marker-end="url(#arrowhead)"/>
<path d="M 974.5038096465769 200 Q 782.233313257067 180, 589.9628168675573 200" stroke="black" fill="none" marker-end="url(#arrowhead)"/>
<path d="M 986.5038096465769 200 Q 974.5038096465769 180, 962.5038096465769 200" stroke="black" fill="none" marker-end="url(#arrowhead)"/>
<path d="M 986.5038096465769 200 Q 890.5038096465769 180, 794.5038096465769 200" stroke="black" fill="none" marker-end="url(#arrowhead)"/>
<path d="M 998.5038096465769 200 Q 992.5038096465769 180, 986.5038096465769 200" stroke="black" fill="none" marker-end="url(#arrowhead)"/>
<path d="M 1010.5038096465769 200 Q 992.5038096465769 180, 974.5038096465769 200" stroke="black" fill="none" marker-end="url(#arrowhead)"/>
<path d="M 1022.5038096465769 200 Q 998.5038096465769 180, 974.5038096465769 200" stroke="black" fill="none" marker-end="url(#arrowhead)"/>
<path d="M 1034.5038096465769 200 Q 1028.5038096465769 180, 1022.5038096465769 200" stroke="black" fill="none" marker-end="url(#arrowhead)"/>
<path d="M 1046.5038096465769 200 Q 1028.5038096465769 180, 1010.5038096465769 200" stroke="black" fill="none" marker-end="url(#arrowhead)"/>
<path d="M 1058.5038096465769 200 Q 1046.5038096465769 180, 1034.5038096465769 200" stroke="black" fill="none" marker-end="url(#arrowhead)"/>
<path d="M 1070.5038096465769 200 Q 1064.5038096465769 180, 1058.5038096465769 200" stroke="black" fill="none" marker-end="url(#arrowhead)"/>
<path d="M 1082.5038096465769 200 Q 1076.5038096465769 180, 1070.5038096465769 200" stroke="black" fill="none" marker-end="url(#arrowhead)"/>
<path d="M 1094.5038096465769 200 Q 1088.5038096465769 180, 1082.5038096465769 200" stroke="black" fill="none" marker-end="url(#arrowhead)"/>
<path d="M 1106.5038096465769 200 Q 1100.5038096465769 180, 1094.5038096465769 200" stroke="black" fill="none" marker-end="url(#arrowhead)"/>
<path d="M 1118.5038096465769 200 Q 1112.5038096465769 180, 1106.5038096465769 200" stroke="black" fill="none" marker-end="url(#arrowhead)"/>
<path d="M 1130.5038096465769 200 Q 1124.5038096465769 180, 1118.5038096465769 200" stroke="black" fill="none" marker-end="url(#arrowhead)"/>
<path d="M 1142.5038096465769 200 Q 1136.5038096465769 180, 1130.5038096465769 200" stroke="black" fill="none" marker-end="url(#arrowhead)"/>
<path d="M 1154.5038096465769 200 Q 1082.5038096465769 180, 1010.5038096465769 200" stroke="black" fill="none" marker-end="url(#arrowhead)"/>
<path d="M 1154.5038096465769 200 Q 1034.5038096465769 180, 914.5038096465769 200" stroke="black" fill="none" marker-end="url(#arrowhead)"/>
<path d="M 1154.5038096465769 200 Q 872.233313257067 180, 589.9628168675573 200" stroke="black" fill="none" marker-end="url(#arrowhead)"/>
<path d="M 1166.5038096465769 200 Q 1160.5038096465769 180, 1154.5038096465769 200" stroke="black" fill="none" marker-end="url(#arrowhead)"/>
<path d="M 1166.5038096465769 200 Q 980.5038096465769 180, 794.5038096465769 200" stroke="black" fill="none" marker-end="url(#arrowhead)"/>
<path d="M 1178.5038096465769 200 Q 1010.5038096465769 180, 842.5038096465769 200" stroke="black" fill="none" marker-end="url(#arrowhead)"/>
<path d="M 1178.5038096465769 200 Q 1034.5038096465769 180, 890.5038096465769 200" stroke="black" fill="none" marker-end="url(#arrowhead)"/>
<path d="M 1178.5038096465769 200 Q 1172.5038096465769 180, 1166.5038096465769 200" stroke="black" fill="none" marker-end="url(#arrowhead)"/>
<path d="M 1178.5038096465769 200 Q 1046.5038096465769 180, 914.5038096465769 200" stroke="black" fill="none" marker-end="url(#arrowhead)"/>
<path d="M 1190.5038096465769 200 Q 1184.5038096465769 180, 1178.5038096465769 200" stroke="black" fill="none" marker-end="url(#arrowhead)"/>
<path d="M 1202.5038096465769 200 Q 1196.5038096465769 180, 1190.5038096465769 200" stroke="black" fill="none" marker-end="url(#arrowhead)"/>
<path d="M 1226.5038096465769 200 Q 1220.5038096465769 180, 1214.5038096465769 200" stroke="black" fill="none" marker-end="url(#arrowhead)"/>
<path d="M 1226.5038096465769 200 Q 908.233313257067 180, 589.9628168675573 200" stroke="black" fill="none" marker-end="url(#arrowhead)"/>
<path d="M 1238.5038096465769 200 Q 1232.5038096465769 180, 1226.5038096465769 200" stroke="black" fill="none" marker-end="url(#arrowhead)"/>
<path d="M 1250.5038096465769 200 Q 1232.5038096465769 180, 1214.5038096465769 200" stroke="black" fill="none" marker-end="url(#arrowhead)"/>
<path d="M 1250.5038096465769 200 Q 920.233313257067 180, 589.9628168675573 200" stroke="black" fill="none" marker-end="url(#arrowhead)"/>
<path d="M 1250.5038096465769 200 Q 1130.5038096465769 180, 1010.5038096465769 200" stroke="black" fill="none" marker-end="url(#arrowhead)"/>
<path d="M 1250.5038096465769 200 Q 1208.5038096465769 180, 1166.5038096465769 200" stroke="black" fill="none" marker-end="url(#arrowhead)"/>
<path d="M 1250.5038096465769 200 Q 1046.5038096465769 180, 842.5038096465769 200" stroke="black" fill="none" marker-end="url(#arrowhead)"/>
<path d="M 1250.5038096465769 200 Q 1082.5038096465769 180, 914.5038096465769 200" stroke="black" fill="none" marker-end="url(#arrowhead)"/>
<path d="M 1262.5038096465769 200 Q 1256.5038096465769 180, 1250.5038096465769 200" stroke="black" fill="none" marker-end="url(#arrowhead)"/>
<path d="M 1262.5038096465769 200 Q 1028.5038096465769 180, 794.5038096465769 200" stroke="black" fill="none" marker-end="url(#arrowhead)"/>
<path d="M 1286.5038096465769 200 Q 1280.5038096465769 180, 1274.5038096465769 200" stroke="black" fill="none" marker-end="url(#arrowhead)"/>
<path d="M 1298.5038096465769 200 Q 944.233313257067 180, 589.9628168675573 200" stroke="black" fill="none" marker-end="url(#arrowhead)"/>
<path d="M 1298.5038096465769 200 Q 1280.5038096465769 180, 1262.5038096465769 200" stroke="black" fill="none" marker-end="url(#arrowhead)"/>
<path d="M 1310.5038096465769 200 Q 1298.5038096465769 180, 1286.5038096465769 200" stroke="black" fill="none" marker-end="url(#arrowhead)"/>
<path d="M 1322.5038096465769 200 Q 1316.5038096465769 180, 1310.5038096465769 200" stroke="black" fill="none" marker-end="url(#arrowhead)"/>
<path d="M 1334.5038096465769 200 Q 1328.5038096465769 180, 1322.5038096465769 200" stroke="black" fill="none" marker-end="url(#arrowhead)"/>
<path d="M 1346.5038096465769 200 Q 1340.5038096465769 180, 1334.5038096465769 200" stroke="black" fill="none" marker-end="url(#arrowhead)"/>
<path d="M 1358.5038096465769 200 Q 1352.5038096465769 180, 1346.5038096465769 200" stroke="black" fill="none" marker-end="url(#arrowhead)"/>
<path d="M 1370.5038096465769 200 Q 1364.5038096465769 180, 1358.5038096465769 200" stroke="black" fill="none" marker-end="url(#arrowhead)"/>
<path d="M 1382.5038096465769 200 Q 1376.5038096465769 180, 1370.5038096465769 200" stroke="black" fill="none" marker-end="url(#arrowhead)"/>
<path d="M 1394.5038096465769 200 Q 1370.5038096465769 180, 1346.5038096465769 200" stroke="black" fill="none" marker-end="url(#arrowhead)"/>
<path d="M 1394.5038096465769 200 Q 1388.5038096465769 180, 1382.5038096465769 200" stroke="black" fill="none" marker-end="url(#arrowhead)"/>
<path d="M 1406.5038096465769 200 Q 1400.5038096465769 180, 1394.5038096465769 200" stroke="black" fill="none" marker-end="url(#arrowhead)"/>
<path d="M 1418.5038096465769 200 Q 1412.5038096465769 180, 1406.5038096465769 200" stroke="black" fill="none" marker-end="url(#arrowhead)"/>
<path d="M 1430.5038096465769 200 Q 1424.5038096465769 180, 1418.5038096465769 200" stroke="black" fill="none" marker-end="url(#arrowhead)"/>
<path d="M 1442.5038096465769 200 Q 1436.5038096465769 180, 1430.5038096465769 200" stroke="black" fill="none" marker-end="url(#arrowhead)"/>
<path d="M 1454.5038096465769 200 Q 1448.5038096465769 180, 1442.5038096465769 200" stroke="black" fill="none" marker-end="url(#arrowhead)"/>
<path d="M 1466.5038096465769 200 Q 1460.5038096465769 180, 1454.5038096465769 200" stroke="black" fill="none" marker-end="url(#arrowhead)"/>
<path d="M 1466.5038096465769 200 Q 1028.233313257067 180, 589.9628168675573 200" stroke="black" fill="none" marker-end="url(#arrowhead)"/>
<path d="M 1490.5038096465769 200 Q 1478.5038096465769 180, 1466.5038096465769 200" stroke="black" fill="none" marker-end="url(#arrowhead)"/>
<path d="M 1502.5038096465769 200 Q 1490.5038096465769 180, 1478.5038096465769 200" stroke="black" fill="none" marker-end="url(#arrowhead)"/>
<path d="M 1502.5038096465769 200 Q 1358.5038096465769 180, 1214.5038096465769 200" stroke="black" fill="none" marker-end="url(#arrowhead)"/>
<path d="M 1502.5038096465769 200 Q 1160.5038096465769 180, 818.5038096465769 200" stroke="black" fill="none" marker-end="url(#arrowhead)"/>
<path d="M 1502.5038096465769 200 Q 1046.233313257067 180, 589.9628168675573 200" stroke="black" fill="none" marker-end="url(#arrowhead)"/>
<path d="M 1514.5038096465769 200 Q 1508.5038096465769 180, 1502.5038096465769 200" stroke="black" fill="none" marker-end="url(#arrowhead)"/>
<path d="M 1526.5038096465769 200 Q 1508.5038096465769 180, 1490.5038096465769 200" stroke="black" fill="none" marker-end="url(#arrowhead)"/>
<path d="M 1526.5038096465769 200 Q 1454.5038096465769 180, 1382.5038096465769 200" stroke="black" fill="none" marker-end="url(#arrowhead)"/>
<path d="M 1526.5038096465769 200 Q 1058.233313257067 180, 589.9628168675573 200" stroke="black" fill="none" marker-end="url(#arrowhead)"/>
<path d="M 1526.5038096465769 200 Q 1490.5038096465769 180, 1454.5038096465769 200" stroke="black" fill="none" marker-end="url(#arrowhead)"/>
<path d="M 1538.5038096465769 200 Q 1526.5038096465769 180, 1514.5038096465769 200" stroke="black" fill="none" marker-end="url(#arrowhead)"/>
<path d="M 1550.5038096465769 200 Q 1424.5038096465769 180, 1298.5038096465769 200" stroke="black" fill="none" marker-end="url(#arrowhead)"/>
<path d="M 1550.5038096465769 200 Q 1538.5038096465769 180, 1526.5038096465769 200" stroke="black" fill="none" marker-end="url(#arrowhead)"/>
<path d="M 1550.5038096465769 200 Q 1508.5038096465769 180, 1466.5038096465769 200" stroke="black" fill="none" marker-end="url(#arrowhead)"/>
<path d="M 1574.5038096465769 200 Q 1568.5038096465769 180, 1562.5038096465769 200" stroke="black" fill="none" marker-end="url(#arrowhead)"/>

<defs>
  <marker id="arrowhead" markerWidth="5" markerHeight="5" 
          refX="2" refY="2" orient="auto" fill="black">
    <path d="M0,0 L0,4 L4,2 z" />
  </marker>
</defs>

<circle cx="50.0" cy="200" r="6" fill="none" stroke="blue" stroke-width="2" />
<circle cx="50.0" cy="200" r="3" fill="blue" />
<circle cx="62.0" cy="200" r="4" fill="red" />
<circle cx="74.0" cy="200" r="6" fill="none" stroke="red" stroke-width="2" />
<circle cx="74.0" cy="200" r="3" fill="red" />
<circle cx="86.0" cy="200" r="4" fill="black" />
<circle cx="98.0" cy="200" r="6" fill="none" stroke="black" stroke-width="2" />
<circle cx="98.0" cy="200" r="3" fill="black" />
<circle cx="110.0" cy="200" r="4" fill="black" />
<circle cx="122.0" cy="200" r="4" fill="black" />
<circle cx="134.0" cy="200" r="6" fill="none" stroke="blue" stroke-width="2" />
<circle cx="134.0" cy="200" r="3" fill="blue" />
<circle cx="220.1067828213823" cy="200" r="4" fill="red" />
<circle cx="397.5486958006696" cy="200" r="4" fill="red" />
<circle cx="417.43316704090995" cy="200" r="6" fill="none" stroke="blue" stroke-width="2" />
<circle cx="417.43316704090995" cy="200" r="3" fill="blue" />
<circle cx="459.7911723209253" cy="200" r="4" fill="red" />
<circle cx="471.7911723209253" cy="200" r="6" fill="none" stroke="blue" stroke-width="2" />
<circle cx="471.7911723209253" cy="200" r="3" fill="blue" />
<circle cx="483.7911723209253" cy="200" r="4" fill="red" />
<circle cx="495.7911723209253" cy="200" r="6" fill="none" stroke="black" stroke-width="2" />
<circle cx="495.7911723209253" cy="200" r="3" fill="black" />
<circle cx="589.9628168675573" cy="200" r="4" fill="red" />
<circle cx="794.5038096465769" cy="200" r="6" fill="none" stroke="blue" stroke-width="2" />
<circle cx="794.5038096465769" cy="200" r="3" fill="blue" />
<circle cx="806.5038096465769" cy="200" r="6" fill="none" stroke="black" stroke-width="2" />
<circle cx="806.5038096465769" cy="200" r="3" fill="black" />
<circle cx="818.5038096465769" cy="200" r="4" fill="red" />
<circle cx="830.5038096465769" cy="200" r="6" fill="none" stroke="blue" stroke-width="2" />
<circle cx="830.5038096465769" cy="200" r="3" fill="blue" />
<circle cx="842.5038096465769" cy="200" r="4" fill="red" />
<circle cx="854.5038096465769" cy="200" r="4" fill="blue" />
<circle cx="866.5038096465769" cy="200" r="6" fill="none" stroke="blue" stroke-width="2" />
<circle cx="866.5038096465769" cy="200" r="3" fill="blue" />
<circle cx="878.5038096465769" cy="200" r="6" fill="none" stroke="green" stroke-width="2" />
<circle cx="878.5038096465769" cy="200" r="3" fill="green" />
<circle cx="890.5038096465769" cy="200" r="4" fill="red" />
<circle cx="902.5038096465769" cy="200" r="6" fill="none" stroke="blue" stroke-width="2" />
<circle cx="902.5038096465769" cy="200" r="3" fill="blue" />
<circle cx="914.5038096465769" cy="200" r="4" fill="red" />
<circle cx="926.5038096465769" cy="200" r="6" fill="none" stroke="red" stroke-width="2" />
<circle cx="926.5038096465769" cy="200" r="3" fill="red" />
<circle cx="938.5038096465769" cy="200" r="4" fill="red" />
<circle cx="950.5038096465769" cy="200" r="4" fill="red" />
<circle cx="962.5038096465769" cy="200" r="6" fill="none" stroke="blue" stroke-width="2" />
<circle cx="962.5038096465769" cy="200" r="3" fill="blue" />
<circle cx="974.5038096465769" cy="200" r="6" fill="none" stroke="blue" stroke-width="2" />
<circle cx="974.5038096465769" cy="200" r="3" fill="blue" />
<circle cx="986.5038096465769" cy="200" r="4" fill="green" />
<circle cx="998.5038096465769" cy="200" r="6" fill="none" stroke="black" stroke-width="2" />
<circle cx="998.5038096465769" cy="200" r="3" fill="black" />
<circle cx="1010.5038096465769" cy="200" r="4" fill="red" />
<circle cx="1022.5038096465769" cy="200" r="4" fill="red" />
<circle cx="1034.5038096465769" cy="200" r="4" fill="black" />
<circle cx="1046.5038096465769" cy="200" r="4" fill="red" />
<circle cx="1058.5038096465769" cy="200" r="4" fill="red" />
<circle cx="1070.5038096465769" cy="200" r="6" fill="none" stroke="black" stroke-width="2" />
<circle cx="1070.5038096465769" cy="200" r="3" fill="black" />
<circle cx="1082.5038096465769" cy="200" r="4" fill="black" />
<circle cx="1094.5038096465769" cy="200" r="4" fill="black" />
<circle cx="1106.5038096465769" cy="200" r="4" fill="black" />
<circle cx="1118.5038096465769" cy="200" r="6" fill="none" stroke="black" stroke-width="2" />
<circle cx="1118.5038096465769" cy="200" r="3" fill="black" />
<circle cx="1130.5038096465769" cy="200" r="4" fill="black" />
<circle cx="1142.5038096465769" cy="200" r="4" fill="red" />
<circle cx="1154.5038096465769" cy="200" r="6" fill="none" stroke="blue" stroke-width="2" />
<circle cx="1154.5038096465769" cy="200" r="3" fill="blue" />
<circle cx="1166.5038096465769" cy="200" r="4" fill="red" />
<circle cx="1178.5038096465769" cy="200" r="6" fill="none" stroke="red" stroke-width="2" />
<circle cx="1178.5038096465769" cy="200" r="3" fill="red" />
<circle cx="1190.5038096465769" cy="200" r="4" fill="red" />
<circle cx="1202.5038096465769" cy="200" r="6" fill="none" stroke="blue" stroke-width="2" />
<circle cx="1202.5038096465769" cy="200" r="3" fill="blue" />
<circle cx="1214.5038096465769" cy="200" r="4" fill="red" />
<circle cx="1226.5038096465769" cy="200" r="4" fill="red" />
<circle cx="1238.5038096465769" cy="200" r="6" fill="none" stroke="red" stroke-width="2" />
<circle cx="1238.5038096465769" cy="200" r="3" fill="red" />
<circle cx="1250.5038096465769" cy="200" r="6" fill="none" stroke="blue" stroke-width="2" />
<circle cx="1250.5038096465769" cy="200" r="3" fill="blue" />
<circle cx="1262.5038096465769" cy="200" r="4" fill="red" />
<circle cx="1274.5038096465769" cy="200" r="4" fill="red" />
<circle cx="1286.5038096465769" cy="200" r="4" fill="red" />
<circle cx="1298.5038096465769" cy="200" r="6" fill="none" stroke="blue" stroke-width="2" />
<circle cx="1298.5038096465769" cy="200" r="3" fill="blue" />
<circle cx="1310.5038096465769" cy="200" r="6" fill="none" stroke="red" stroke-width="2" />
<circle cx="1310.5038096465769" cy="200" r="3" fill="red" />
<circle cx="1322.5038096465769" cy="200" r="4" fill="green" />
<circle cx="1334.5038096465769" cy="200" r="4" fill="black" />
<circle cx="1346.5038096465769" cy="200" r="6" fill="none" stroke="red" stroke-width="2" />
<circle cx="1346.5038096465769" cy="200" r="3" fill="red" />
<circle cx="1358.5038096465769" cy="200" r="4" fill="red" />
<circle cx="1370.5038096465769" cy="200" r="6" fill="none" stroke="blue" stroke-width="2" />
<circle cx="1370.5038096465769" cy="200" r="3" fill="blue" />
<circle cx="1382.5038096465769" cy="200" r="4" fill="red" />
<circle cx="1394.5038096465769" cy="200" r="4" fill="black" />
<circle cx="1406.5038096465769" cy="200" r="4" fill="red" />
<circle cx="1418.5038096465769" cy="200" r="6" fill="none" stroke="red" stroke-width="2" />
<circle cx="1418.5038096465769" cy="200" r="3" fill="red" />
<circle cx="1430.5038096465769" cy="200" r="4" fill="red" />
<circle cx="1442.5038096465769" cy="200" r="6" fill="none" stroke="blue" stroke-width="2" />
<circle cx="1442.5038096465769" cy="200" r="3" fill="blue" />
<circle cx="1454.5038096465769" cy="200" r="4" fill="red" />
<circle cx="1466.5038096465769" cy="200" r="6" fill="none" stroke="blue" stroke-width="2" />
<circle cx="1466.5038096465769" cy="200" r="3" fill="blue" />
<circle cx="1478.5038096465769" cy="200" r="4" fill="red" />
<circle cx="1490.5038096465769" cy="200" r="4" fill="red" />
<circle cx="1502.5038096465769" cy="200" r="6" fill="none" stroke="black" stroke-width="2" />
<circle cx="1502.5038096465769" cy="200" r="3" fill="black" />
<circle cx="1514.5038096465769" cy="200" r="4" fill="black" />
<circle cx="1526.5038096465769" cy="200" r="6" fill="none" stroke="blue" stroke-width="2" />
<circle cx="1526.5038096465769" cy="200" r="3" fill="blue" />
<circle cx="1538.5038096465769" cy="200" r="6" fill="none" stroke="blue" stroke-width="2" />
<circle cx="1538.5038096465769" cy="200" r="3" fill="blue" />
<circle cx="1550.5038096465769" cy="200" r="6" fill="none" stroke="blue" stroke-width="2" />
<circle cx="1550.5038096465769" cy="200" r="3" fill="blue" />
<circle cx="1562.5038096465769" cy="200" r="4" fill="red" />
<circle cx="1574.5038096465769" cy="200" r="6" fill="none" stroke="black" stroke-width="2" />
<circle cx="1574.5038096465769" cy="200" r="3" fill="black" />
<text x="50" y="225" fill="gray" style="font-size:12px;">2023-06-09T05:16:44+00:00</text>
<text x="900" y="225" fill="gray" style="font-size:12px;">2025-02-13T01:58:12+00:00</text>
</svg>