<svg xmlns="http://www.w3.org/2000/svg" width="1000" height="200" style="background-color: white; font-family: sans-serif;">
<line x1="50" y1="100" x2="950" y2="100" stroke="gray" stroke-width="1"/>
<path d="M 62.0 100 Q 56.0 80, 50.0 100" stroke="black" fill="none" marker-end="url(#arrowhead)"/>
<path d="M 76.8108012534948 100 Q 63.4054006267474 80, 50.0 100" stroke="black" fill="none" marker-end="url(#arrowhead)"/>
<path d="M 88.8108012534948 100 Q 82.8108012534948 80, 76.8108012534948 100" stroke="black" fill="none" marker-end="url(#arrowhead)"/>
<path d="M 100.8108012534948 100 Q 81.4054006267474 80, 62.0 100" stroke="black" fill="none" marker-end="url(#arrowhead)"/>
<path d="M 150.94537299000353 100 Q 119.87808712174916 80, 88.8108012534948 100" stroke="black" fill="none" marker-end="url(#arrowhead)"/>
<path d="M 162.94537299000353 100 Q 156.94537299000353 80, 150.94537299000353 100" stroke="black" fill="none" marker-end="url(#arrowhead)"/>
<path d="M 174.94537299000353 100 Q 168.94537299000353 80, 162.94537299000353 100" stroke="black" fill="none" marker-end="url(#arrowhead)"/>
<path d="M 482.92047084928777 100 Q 328.93292191964565 80, 174.94537299000353 100" stroke="black" fill="none" marker-end="url(#arrowhead)"/>
<path d="M 494.92047084928777 100 Q 488.92047084928777 80, 482.92047084928777 100" stroke="black" fill="none" marker-end="url(#arrowhead)"/>
<path d="M 494.92047084928777 100 Q 291.8656360513913 80, 88.8108012534948 100" stroke="black" fill="none" marker-end="url(#arrowhead)"/>
<path d="M 511.54637566193674 100 Q 503.23342325561225 80, 494.92047084928777 100" stroke="black" fill="none" marker-end="url(#arrowhead)"/>
<path d="M 555.3757350913969 100 Q 533.4610553766668 80, 511.54637566193674 100" stroke="black" fill="none" marker-end="url(#arrowhead)"/>
<path d="M 567.3757350913969 100 Q 561.3757350913969 80, 555.3757350913969 100" stroke="black" fill="none" marker-end="url(#arrowhead)"/>
<path d="M 579.3757350913969 100 Q 545.4610553766668 80, 511.54637566193674 100" stroke="black" fill="none" marker-end="url(#arrowhead)"/>
<path d="M 591.3757350913969 100 Q 579.3757350913969 80, 567.3757350913969 100" stroke="black" fill="none" marker-end="url(#arrowhead)"/>
<path d="M 603.3757350913969 100 Q 597.3757350913969 80, 591.3757350913969 100" stroke="black" fill="none" marker-end="url(#arrowhead)"/>
<path d="M 615.3757350913969 100 Q 597.3757350913969 80, 579.3757350913969 100" stroke="black" fill="none" marker-end="url(#arrowhead)"/>
<path d="M 627.3757350913969 100 Q 621.3757350913969 80, 615.3757350913969 100" stroke="black" fill="none" marker-end="url(#arrowhead)"/>
<path d="M 693.7804854278013 100 Q 687.7804854278013 80, 681.7804854278013 100" stroke="black" fill="none" marker-end="url(#arrowhead)"/>
<path d="M 705.7804854278013 100 Q 693.7804854278013 80, 681.7804854278013 100" stroke="black" fill="none" marker-end="url(#arrowhead)"/>
<path d="M 717.7804854278013 100 Q 699.7804854278013 80, 681.7804854278013 100" stroke="black" fill="none" marker-end="url(#arrowhead)"/>
<path d="M 729.7804854278013 100 Q 723.7804854278013 80, 717.7804854278013 100" stroke="black" fill="none" marker-end="url(#arrowhead)"/>
<path d="M 741.7804854278013 100 Q 729.7804854278013 80, 717.7804854278013 100" stroke="black" fill="none" marker-end="url(#arrowhead)"/>
<path d="M 753.7804854278013 100 Q 741.7804854278013 80, 729.7804854278013 100" stroke="black" fill="none" marker-end="url(#arrowhead)"/>
<path d="M 753.7804854278013 100 Q 747.7804854278013 80, 741.7804854278013 100" stroke="black" fill="none" marker-end="url(#arrowhead)"/>
<path d="M 765.7804854278013 100 Q 735.7804854278013 80, 705.7804854278013 100" stroke="black" fill="none" marker-end="url(#arrowhead)"/>
<path d="M 789.7804854278013 100 Q 753.7804854278013 80, 717.7804854278013 100" stroke="black" fill="none" marker-end="url(#arrowhead)"/>
<path d="M 789.7804854278013 100 Q 759.7804854278013 80, 729.7804854278013 100" stroke="black" fill="none" marker-end="url(#arrowhead)"/>
<path d="M 789.7804854278013 100 Q 765.7804854278013 80, 741.7804854278013 100" stroke="black" fill="none" marker-end="url(#arrowhead)"/>
<path d="M 789.7804854278013 100 Q 771.7804854278013 80, 753.7804854278013 100" stroke="black" fill="none" marker-end="url(#arrowhead)"/>
<path d="M 801.7804854278013 100 Q 795.7804854278013 80, 789.7804854278013 100" stroke="black" fill="none" marker-end="url(#arrowhead)"/>
<path d="M 813.7804854278013 100 Q 807.7804854278013 80, 801.7804854278013 100" stroke="black" fill="none" marker-end="url(#arrowhead)"/>
<path d="M 825.7804854278013 100 Q 819.7804854278013 80, 813.7804854278013 100" stroke="black" fill="none" marker-end="url(#arrowhead)"/>
<path d="M 849.7804854278013 100 Q 837.7804854278013 80, 825.7804854278013 100" stroke="black" fill="none" marker-end="url(#arrowhead)"/>
<path d="M 861.7804854278013 100 Q 855.7804854278013 80, 849.7804854278013 100" stroke="black" fill="none" marker-end="url(#arrowhead)"/>
<path d="M 861.7804854278013 100 Q 849.7804854278013 80, 837.7804854278013 100" stroke="black" fill="none" marker-end="url(#arrowhead)"/>
<path d="M 885.7804854278013 100 Q 879.7804854278013 80, 873.7804854278013 100" stroke="black" fill="none" marker-end="url(#arrowhead)"/>
<path d="M 901.4819018407101 100 Q 893.6311936342556 80, 885.7804854278013 100" stroke="black" fill="none" marker-end="url(#arrowhead)"/>
<path d="M 913.4819018407101 100 Q 907.4819018407101 80, 901.4819018407101 100" stroke="black" fill="none" marker-end="url(#arrowhead)"/>
<path d="M 925.4819018407101 100 Q 919.4819018407101 80, 913.4819018407101 100" stroke="black" fill="none" marker-end="url(#arrowhead)"/>
<path d="M 937.4819018407101 100 Q 919.4819018407101 80, 901.4819018407101 100" stroke="black" fill="none" marker-end="url(#arrowhead)"/>
<path d="M 949.4819018407101 100 Q 943.4819018407101 80, 937.4819018407101 100" stroke="black" fill="none" marker-end="url(#arrowhead)"/>
<path d="M 961.4819018407101 100 Q 955.4819018407101 80, 949.4819018407101 100" stroke="black" fill="none" marker-end="url(#arrowhead)"/>
<path d="M 973.4819018407101 100 Q 967.4819018407101 80, 961.4819018407101 100" stroke="black" fill="none" marker-end="url(#arrowhead)"/>
<path d="M 985.4819018407101 100 Q 740.2011863449989 80, 494.92047084928777 100" stroke="black" fill="none" marker-end="url(#arrowhead)"/>
<path d="M 985.4819018407101 100 Q 967.4819018407101 80, 949.4819018407101 100" stroke="black" fill="none" marker-end="url(#arrowhead)"/>
<path d="M 985.4819018407101 100 Q 537.1463515471024 80, 88.8108012534948 100" stroke="black" fill="none" marker-end="url(#arrowhead)"/>
<path d="M 985.4819018407101 100 Q 776.4288184660535 80, 567.3757350913969 100" stroke="black" fill="none" marker-end="url(#arrowhead)"/>
<path d="M 997.4819018407101 100 Q 973.4819018407101 80, 949.4819018407101 100" stroke="black" fill="none" marker-end="url(#arrowhead)"/>
<path d="M 1009.4819018407101 100 Q 997.4819018407101 80, 985.4819018407101 100" stroke="black" fill="none" marker-end="url(#arrowhead)"/>
<path d="M 1021.4819018407101 100 Q 1015.4819018407101 80, 1009.4819018407101 100" stroke="black" fill="none" marker-end="url(#arrowhead)"/>
<path d="M 1033.4819018407102 100 Q 1027.4819018407102 80, 1021.4819018407101 100" stroke="black" fill="none" marker-end="url(#arrowhead)"/>
<path d="M 1045.4819018407102 100 Q 1039.4819018407102 80, 1033.4819018407102 100" stroke="black" fill="none" marker-end="url(#arrowhead)"/>
<path d="M 1057.4819018407102 100 Q 1051.4819018407102 80, 1045.4819018407102 100" stroke="black" fill="none" marker-end="url(#arrowhead)"/>

<defs>
  <marker id="arrowhead" markerWidth="5" markerHeight="5" 
          refX="2" refY="2" orient="auto" fill="black">
    <path d="M0,0 L0,4 L4,2 z" />
  </marker>
</defs>

<circle cx="50.0" cy="100" r="6" fill="none" stroke="blue" stroke-width="2" />
<circle cx="50.0" cy="100" r="3" fill="blue" />
<circle cx="62.0" cy="100" r="4" fill="red" />
<circle cx="76.8108012534948" cy="100" r="4" fill="black" />
<circle cx="88.8108012534948" cy="100" r="6" fill="none" stroke="blue" stroke-width="2" />
<circle cx="88.8108012534948" cy="100" r="3" fill="blue" />
<circle cx="100.8108012534948" cy="100" r="6" fill="none" stroke="blue" stroke-width="2" />
<circle cx="100.8108012534948" cy="100" r="3" fill="blue" />
<circle cx="150.94537299000353" cy="100" r="4" fill="red" />
<circle cx="162.94537299000353" cy="100" r="6" fill="none" stroke="blue" stroke-width="2" />
<circle cx="162.94537299000353" cy="100" r="3" fill="blue" />
<circle cx="174.94537299000353" cy="100" r="4" fill="red" />
<circle cx="482.92047084928777" cy="100" r="6" fill="none" stroke="blue" stroke-width="2" />
<circle cx="482.92047084928777" cy="100" r="3" fill="blue" />
<circle cx="494.92047084928777" cy="100" r="6" fill="none" stroke="blue" stroke-width="2" />
<circle cx="494.92047084928777" cy="100" r="3" fill="blue" />
<circle cx="511.54637566193674" cy="100" r="6" fill="none" stroke="blue" stroke-width="2" />
<circle cx="511.54637566193674" cy="100" r="3" fill="blue" />
<circle cx="555.3757350913969" cy="100" r="4" fill="black" />
<circle cx="567.3757350913969" cy="100" r="6" fill="none" stroke="black" stroke-width="2" />
<circle cx="567.3757350913969" cy="100" r="3" fill="black" />
<circle cx="579.3757350913969" cy="100" r="4" fill="red" />
<circle cx="591.3757350913969" cy="100" r="4" fill="red" />
<circle cx="603.3757350913969" cy="100" r="6" fill="none" stroke="red" stroke-width="2" />
<circle cx="603.3757350913969" cy="100" r="3" fill="red" />
<circle cx="615.3757350913969" cy="100" r="6" fill="none" stroke="red" stroke-width="2" />
<circle cx="615.3757350913969" cy="100" r="3" fill="red" />
<circle cx="627.3757350913969" cy="100" r="4" fill="black" />
<circle cx="645.7804854278013" cy="100" r="4" fill="red" />
<circle cx="657.7804854278013" cy="100" r="4" fill="red" />
<circle cx="669.7804854278013" cy="100" r="4" fill="red" />
<circle cx="681.7804854278013" cy="100" r="4" fill="red" />
<circle cx="693.7804854278013" cy="100" r="4" fill="black" />
<circle cx="705.7804854278013" cy="100" r="6" fill="none" stroke="black" stroke-width="2" />
<circle cx="705.7804854278013" cy="100" r="3" fill="black" />
<circle cx="717.7804854278013" cy="100" r="4" fill="black" />
<circle cx="729.7804854278013" cy="100" r="4" fill="blue" />
<circle cx="741.7804854278013" cy="100" r="4" fill="black" />
<circle cx="753.7804854278013" cy="100" r="6" fill="none" stroke="black" stroke-width="2" />
<circle cx="753.7804854278013" cy="100" r="3" fill="black" />
<circle cx="765.7804854278013" cy="100" r="6" fill="none" stroke="blue" stroke-width="2" />
<circle cx="765.7804854278013" cy="100" r="3" fill="blue" />
<circle cx="777.7804854278013" cy="100" r="4" fill="blue" />
<circle cx="789.7804854278013" cy="100" r="4" fill="black" />
<circle cx="801.7804854278013" cy="100" r="6" fill="none" stroke="blue" stroke-width="2" />
<circle cx="801.7804854278013" cy="100" r="3" fill="blue" />
<circle cx="813.7804854278013" cy="100" r="6" fill="none" stroke="blue" stroke-width="2" />
<circle cx="813.7804854278013" cy="100" r="3" fill="blue" />
<circle cx="825.7804854278013" cy="100" r="6" fill="none" stroke="blue" stroke-width="2" />
<circle cx="825.7804854278013" cy="100" r="3" fill="blue" />
<circle cx="837.7804854278013" cy="100" r="4" fill="black" />
<circle cx="849.7804854278013" cy="100" r="6" fill="none" stroke="black" stroke-width="2" />
<circle cx="849.7804854278013" cy="100" r="3" fill="black" />
<circle cx="861.7804854278013" cy="100" r="4" fill="black" />
<circle cx="873.7804854278013" cy="100" r="4" fill="blue" />
<circle cx="885.7804854278013" cy="100" r="6" fill="none" stroke="black" stroke-width="2" />
<circle cx="885.7804854278013" cy="100" r="3" fill="black" />
<circle cx="901.4819018407101" cy="100" r="6" fill="none" stroke="black" stroke-width="2" />
<circle cx="901.4819018407101" cy="100" r="3" fill="black" />
<circle cx="913.4819018407101" cy="100" r="4" fill="black" />
<circle cx="925.4819018407101" cy="100" r="6" fill="none" stroke="black" stroke-width="2" />
<circle cx="925.4819018407101" cy="100" r="3" fill="black" />
<circle cx="937.4819018407101" cy="100" r="4" fill="black" />
<circle cx="949.4819018407101" cy="100" r="6" fill="none" stroke="blue" stroke-width="2" />
<circle cx="949.4819018407101" cy="100" r="3" fill="blue" />
<circle cx="961.4819018407101" cy="100" r="4" fill="green" />
<circle cx="973.4819018407101" cy="100" r="6" fill="none" stroke="blue" stroke-width="2" />
<circle cx="973.4819018407101" cy="100" r="3" fill="blue" />
<circle cx="985.4819018407101" cy="100" r="4" fill="red" />
<circle cx="997.4819018407101" cy="100" r="4" fill="black" />
<circle cx="1009.4819018407101" cy="100" r="6" fill="none" stroke="blue" stroke-width="2" />
<circle cx="1009.4819018407101" cy="100" r="3" fill="blue" />
<circle cx="1021.4819018407101" cy="100" r="4" fill="black" />
<circle cx="1033.4819018407102" cy="100" r="6" fill="none" stroke="black" stroke-width="2" />
<circle cx="1033.4819018407102" cy="100" r="3" fill="black" />
<circle cx="1045.4819018407102" cy="100" r="4" fill="black" />
<circle cx="1057.4819018407102" cy="100" r="6" fill="none" stroke="blue" stroke-width="2" />
<circle cx="1057.4819018407102" cy="100" r="3" fill="blue" />
<text x="50" y="125" fill="gray" style="font-size:12px;">2024-06-28T04:13:25+00:00</text>
<text x="900" y="125" fill="gray" style="font-size:12px;">2025-02-26T00:49:00+00:00</text>
</svg>