<svg xmlns="http://www.w3.org/2000/svg" width="1000" height="400" style="background-color: white; font-family: sans-serif;">
<line x1="50" y1="200" x2="950" y2="200" stroke="gray" stroke-width="1"/>
<path d="M 74.0 200 Q 62.0 180, 50.0 200" stroke="black" fill="none" marker-end="url(#arrowhead)"/>
<path d="M 86.0 200 Q 74.0 180, 62.0 200" stroke="black" fill="none" marker-end="url(#arrowhead)"/>
<path d="M 122.0 200 Q 110.0 180, 98.0 200" stroke="black" fill="none" marker-end="url(#arrowhead)"/>
<path d="M 134.0 200 Q 122.0 180, 110.0 200" stroke="black" fill="none" marker-end="url(#arrowhead)"/>
<path d="M 146.0 200 Q 140.0 180, 134.0 200" stroke="black" fill="none" marker-end="url(#arrowhead)"/>
<path d="M 146.0 200 Q 128.0 180, 110.0 200" stroke="black" fill="none" marker-end="url(#arrowhead)"/>
<path d="M 158.0 200 Q 152.0 180, 146.0 200" stroke="black" fill="none" marker-end="url(#arrowhead)"/>
<path d="M 170.0 200 Q 164.0 180, 158.0 200" stroke="black" fill="none" marker-end="url(#arrowhead)"/>
<path d="M 603.5159240890273 200 Q 368.75796204451365 180, 134.0 200" stroke="black" fill="none" marker-end="url(#arrowhead)"/>
<path d="M 603.5159240890273 200 Q 597.5159240890273 180, 591.5159240890273 200" stroke="black" fill="none" marker-end="url(#arrowhead)"/>
<path d="M 767.1373529532319 200 Q 752.7063541860443 180, 738.2753554188566 200" stroke="black" fill="none" marker-end="url(#arrowhead)"/>
<path d="M 888.5728384006861 200 Q 827.8550956769591 180, 767.1373529532319 200" stroke="black" fill="none" marker-end="url(#arrowhead)"/>

<defs>
  <marker id="arrowhead" markerWidth="5" markerHeight="5" 
          refX="2" refY="2" orient="auto" fill="black">
    <path d="M0,0 L0,4 L4,2 z" />
  </marker>
</defs>

<circle cx="50.0" cy="200" r="6" fill="none" stroke="blue" stroke-width="2" />
<circle cx="50.0" cy="200" r="3" fill="blue" />
<circle cx="62.0" cy="200" r="6" fill="none" stroke="blue" stroke-width="2" />
<circle cx="62.0" cy="200" r="3" fill="blue" />
<circle cx="74.0" cy="200" r="4" fill="red" />
<circle cx="86.0" cy="200" r="6" fill="none" stroke="blue" stroke-width="2" />
<circle cx="86.0" cy="200" r="3" fill="blue" />
<circle cx="98.0" cy="200" r="6" fill="none" stroke="black" stroke-width="2" />
<circle cx="98.0" cy="200" r="3" fill="black" />
<circle cx="110.0" cy="200" r="6" fill="none" stroke="black" stroke-width="2" />
<circle cx="110.0" cy="200" r="3" fill="black" />
<circle cx="122.0" cy="200" r="4" fill="red" />
<circle cx="134.0" cy="200" r="4" fill="black" />
<circle cx="146.0" cy="200" r="4" fill="red" />
<circle cx="158.0" cy="200" r="4" fill="black" />
<circle cx="170.0" cy="200" r="4" fill="black" />
<circle cx="182.0" cy="200" r="6" fill="none" stroke="green" stroke-width="2" />
<circle cx="182.0" cy="200" r="3" fill="green" />
<circle cx="235.20656701170697" cy="200" r="4" fill="black" />
<circle cx="579.5159240890273" cy="200" r="6" fill="none" stroke="blue" stroke-width="2" />
<circle cx="579.5159240890273" cy="200" r="3" fill="blue" />
<circle cx="591.5159240890273" cy="200" r="4" fill="red" />
<circle cx="603.5159240890273" cy="200" r="6" fill="none" stroke="blue" stroke-width="2" />
<circle cx="603.5159240890273" cy="200" r="3" fill="blue" />
<circle cx="738.2753554188566" cy="200" r="4" fill="red" />
<circle cx="767.1373529532319" cy="200" r="6" fill="none" stroke="blue" stroke-width="2" />
<circle cx="767.1373529532319" cy="200" r="3" fill="blue" />
<circle cx="888.5728384006861" cy="200" r="4" fill="blue" />
<circle cx="950.0" cy="200" r="6" fill="none" stroke="red" stroke-width="2" />
<circle cx="950.0" cy="200" r="3" fill="red" />
<text x="50" y="225" fill="gray" style="font-size:12px;">2025-02-23T19:38:45+00:00</text>
<text x="900" y="225" fill="gray" style="font-size:12px;">2025-02-27T11:44:46+00:00</text>
</svg>