<svg xmlns="http://www.w3.org/2000/svg" width="1000" height="400" style="background-color: white; font-family: sans-serif;">
<line x1="50" y1="200" x2="950" y2="200" stroke="gray" stroke-width="1"/>
<path d="M 62.0 200 Q 56.0 180, 50.0 200" stroke="black" fill="none" marker-end="url(#arrowhead)"/>
<path d="M 74.0 200 Q 68.0 180, 62.0 200" stroke="black" fill="none" marker-end="url(#arrowhead)"/>
<path d="M 150.29110292012757 200 Q 112.14555146006379 180, 74.0 200" stroke="black" fill="none" marker-end="url(#arrowhead)"/>
<path d="M 162.29110292012757 200 Q 156.29110292012757 180, 150.29110292012757 200" stroke="black" fill="none" marker-end="url(#arrowhead)"/>
<path d="M 174.29110292012757 200 Q 168.29110292012757 180, 162.29110292012757 200" stroke="black" fill="none" marker-end="url(#arrowhead)"/>
<path d="M 186.29110292012757 200 Q 174.29110292012757 180, 162.29110292012757 200" stroke="black" fill="none" marker-end="url(#arrowhead)"/>
<path d="M 186.29110292012757 200 Q 180.29110292012757 180, 174.29110292012757 200" stroke="black" fill="none" marker-end="url(#arrowhead)"/>
<path d="M 198.29110292012757 200 Q 174.29110292012757 180, 150.29110292012757 200" stroke="black" fill="none" marker-end="url(#arrowhead)"/>
<path d="M 210.29110292012757 200 Q 180.29110292012757 180, 150.29110292012757 200" stroke="black" fill="none" marker-end="url(#arrowhead)"/>
<path d="M 222.29110292012757 200 Q 204.29110292012757 180, 186.29110292012757 200" stroke="black" fill="none" marker-end="url(#arrowhead)"/>
<path d="M 246.29110292012757 200 Q 240.29110292012757 180, 234.29110292012757 200" stroke="black" fill="none" marker-end="url(#arrowhead)"/>
<path d="M 270.29110292012757 200 Q 264.29110292012757 180, 258.29110292012757 200" stroke="black" fill="none" marker-end="url(#arrowhead)"/>
<path d="M 282.29110292012757 200 Q 276.29110292012757 180, 270.29110292012757 200" stroke="black" fill="none" marker-end="url(#arrowhead)"/>
<path d="M 294.29110292012757 200 Q 288.29110292012757 180, 282.29110292012757 200" stroke="black" fill="none" marker-end="url(#arrowhead)"/>
<path d="M 294.29110292012757 200 Q 282.29110292012757 180, 270.29110292012757 200" stroke="black" fill="none" marker-end="url(#arrowhead)"/>
<path d="M 306.29110292012757 200 Q 300.29110292012757 180, 294.29110292012757 200" stroke="black" fill="none" marker-end="url(#arrowhead)"/>
<path d="M 318.29110292012757 200 Q 288.29110292012757 180, 258.29110292012757 200" stroke="black" fill="none" marker-end="url(#arrowhead)"/>
<path d="M 330.29110292012757 200 Q 306.29110292012757 180, 282.29110292012757 200" stroke="black" fill="none" marker-end="url(#arrowhead)"/>
<path d="M 342.29110292012757 200 Q 318.29110292012757 180, 294.29110292012757 200" stroke="black" fill="none" marker-end="url(#arrowhead)"/>
<path d="M 354.29110292012757 200 Q 348.29110292012757 180, 342.29110292012757 200" stroke="black" fill="none" marker-end="url(#arrowhead)"/>
<path d="M 366.29110292012757 200 Q 312.29110292012757 180, 258.29110292012757 200" stroke="black" fill="none" marker-end="url(#arrowhead)"/>
<path d="M 378.29110292012757 200 Q 366.29110292012757 180, 354.29110292012757 200" stroke="black" fill="none" marker-end="url(#arrowhead)"/>
<path d="M 390.29110292012757 200 Q 372.29110292012757 180, 354.29110292012757 200" stroke="black" fill="none" marker-end="url(#arrowhead)"/>
<path d="M 390.29110292012757 200 Q 384.29110292012757 180, 378.29110292012757 200" stroke="black" fill="none" marker-end="url(#arrowhead)"/>
<path d="M 402.29110292012757 200 Q 312.29110292012757 180, 222.29110292012757 200" stroke="black" fill="none" marker-end="url(#arrowhead)"/>
<path d="M 402.29110292012757 200 Q 294.29110292012757 180, 186.29110292012757 200" stroke="black" fill="none" marker-end="url(#arrowhead)"/>
<path d="M 414.29110292012757 200 Q 408.29110292012757 180, 402.29110292012757 200" stroke="black" fill="none" marker-end="url(#arrowhead)"/>
<path d="M 426.29110292012757 200 Q 420.29110292012757 180, 414.29110292012757 200" stroke="black" fill="none" marker-end="url(#arrowhead)"/>
<path d="M 426.29110292012757 200 Q 414.29110292012757 180, 402.29110292012757 200" stroke="black" fill="none" marker-end="url(#arrowhead)"/>
<path d="M 450.29110292012757 200 Q 444.29110292012757 180, 438.29110292012757 200" stroke="black" fill="none" marker-end="url(#arrowhead)"/>
<path d="M 462.29110292012757 200 Q 450.29110292012757 180, 438.29110292012757 200" stroke="black" fill="none" marker-end="url(#arrowhead)"/>
<path d="M 474.29110292012757 200 Q 462.29110292012757 180, 450.29110292012757 200" stroke="black" fill="none" marker-end="url(#arrowhead)"/>
<path d="M 474.29110292012757 200 Q 468.29110292012757 180, 462.29110292012757 200" stroke="black" fill="none" marker-end="url(#arrowhead)"/>
<path d="M 486.29110292012757 200 Q 480.29110292012757 180, 474.29110292012757 200" stroke="black" fill="none" marker-end="url(#arrowhead)"/>
<path d="M 510.29110292012757 200 Q 504.29110292012757 180, 498.29110292012757 200" stroke="black" fill="none" marker-end="url(#arrowhead)"/>
<path d="M 522.2911029201275 200 Q 516.2911029201275 180, 510.29110292012757 200" stroke="black" fill="none" marker-end="url(#arrowhead)"/>
<path d="M 534.2911029201275 200 Q 528.2911029201275 180, 522.2911029201275 200" stroke="black" fill="none" marker-end="url(#arrowhead)"/>
<path d="M 546.2911029201275 200 Q 534.2911029201275 180, 522.2911029201275 200" stroke="black" fill="none" marker-end="url(#arrowhead)"/>
<path d="M 546.2911029201275 200 Q 540.2911029201275 180, 534.2911029201275 200" stroke="black" fill="none" marker-end="url(#arrowhead)"/>
<path d="M 558.2911029201275 200 Q 552.2911029201275 180, 546.2911029201275 200" stroke="black" fill="none" marker-end="url(#arrowhead)"/>
<path d="M 570.2911029201275 200 Q 558.2911029201275 180, 546.2911029201275 200" stroke="black" fill="none" marker-end="url(#arrowhead)"/>
<path d="M 570.2911029201275 200 Q 564.2911029201275 180, 558.2911029201275 200" stroke="black" fill="none" marker-end="url(#arrowhead)"/>
<path d="M 582.2911029201275 200 Q 576.2911029201275 180, 570.2911029201275 200" stroke="black" fill="none" marker-end="url(#arrowhead)"/>
<path d="M 594.2911029201275 200 Q 552.2911029201275 180, 510.29110292012757 200" stroke="black" fill="none" marker-end="url(#arrowhead)"/>
<path d="M 606.2911029201275 200 Q 582.2911029201275 180, 558.2911029201275 200" stroke="black" fill="none" marker-end="url(#arrowhead)"/>
<path d="M 618.2911029201275 200 Q 582.2911029201275 180, 546.2911029201275 200" stroke="black" fill="none" marker-end="url(#arrowhead)"/>
<path d="M 618.2911029201275 200 Q 612.2911029201275 180, 606.2911029201275 200" stroke="black" fill="none" marker-end="url(#arrowhead)"/>
<path d="M 630.2911029201275 200 Q 618.2911029201275 180, 606.2911029201275 200" stroke="black" fill="none" marker-end="url(#arrowhead)"/>
<path d="M 642.2911029201275 200 Q 636.2911029201275 180, 630.2911029201275 200" stroke="black" fill="none" marker-end="url(#arrowhead)"/>
<path d="M 654.2911029201275 200 Q 630.2911029201275 180, 606.2911029201275 200" stroke="black" fill="none" marker-end="url(#arrowhead)"/>
<path d="M 666.2911029201275 200 Q 654.2911029201275 180, 642.2911029201275 200" stroke="black" fill="none" marker-end="url(#arrowhead)"/>
<path d="M 678.2911029201275 200 Q 672.2911029201275 180, 666.2911029201275 200" stroke="black" fill="none" marker-end="url(#arrowhead)"/>
<path d="M 690.2911029201275 200 Q 684.2911029201275 180, 678.2911029201275 200" stroke="black" fill="none" marker-end="url(#arrowhead)"/>
<path d="M 702.2911029201275 200 Q 684.2911029201275 180, 666.2911029201275 200" stroke="black" fill="none" marker-end="url(#arrowhead)"/>
<path d="M 714.2911029201275 200 Q 708.2911029201275 180, 702.2911029201275 200" stroke="black" fill="none" marker-end="url(#arrowhead)"/>
<path d="M 726.2911029201275 200 Q 696.2911029201275 180, 666.2911029201275 200" stroke="black" fill="none" marker-end="url(#arrowhead)"/>
<path d="M 738.2911029201275 200 Q 714.2911029201275 180, 690.2911029201275 200" stroke="black" fill="none" marker-end="url(#arrowhead)"/>
<path d="M 750.2911029201275 200 Q 744.2911029201275 180, 738.2911029201275 200" stroke="black" fill="none" marker-end="url(#arrowhead)"/>
<path d="M 762.2911029201275 200 Q 756.2911029201275 180, 750.2911029201275 200" stroke="black" fill="none" marker-end="url(#arrowhead)"/>
<path d="M 762.2911029201275 200 Q 744.2911029201275 180, 726.2911029201275 200" stroke="black" fill="none" marker-end="url(#arrowhead)"/>
<path d="M 774.2911029201275 200 Q 768.2911029201275 180, 762.2911029201275 200" stroke="black" fill="none" marker-end="url(#arrowhead)"/>
<path d="M 786.2911029201275 200 Q 780.2911029201275 180, 774.2911029201275 200" stroke="black" fill="none" marker-end="url(#arrowhead)"/>
<path d="M 798.2911029201275 200 Q 792.2911029201275 180, 786.2911029201275 200" stroke="black" fill="none" marker-end="url(#arrowhead)"/>
<path d="M 810.2911029201275 200 Q 804.2911029201275 180, 798.2911029201275 200" stroke="black" fill="none" marker-end="url(#arrowhead)"/>
<path d="M 822.2911029201275 200 Q 816.2911029201275 180, 810.2911029201275 200" stroke="black" fill="none" marker-end="url(#arrowhead)"/>
<path d="M 834.2911029201275 200 Q 828.2911029201275 180, 822.2911029201275 200" stroke="black" fill="none" marker-end="url(#arrowhead)"/>
<path d="M 846.2911029201275 200 Q 840.2911029201275 180, 834.2911029201275 200" stroke="black" fill="none" marker-end="url(#arrowhead)"/>
<path d="M 858.2911029201275 200 Q 852.2911029201275 180, 846.2911029201275 200" stroke="black" fill="none" marker-end="url(#arrowhead)"/>
<path d="M 870.2911029201275 200 Q 864.2911029201275 180, 858.2911029201275 200" stroke="black" fill="none" marker-end="url(#arrowhead)"/>
<path d="M 882.2911029201275 200 Q 876.2911029201275 180, 870.2911029201275 200" stroke="black" fill="none" marker-end="url(#arrowhead)"/>
<path d="M 894.2911029201275 200 Q 888.2911029201275 180, 882.2911029201275 200" stroke="black" fill="none" marker-end="url(#arrowhead)"/>
<path d="M 930.2911029201275 200 Q 924.2911029201275 180, 918.2911029201275 200" stroke="black" fill="none" marker-end="url(#arrowhead)"/>
<path d="M 942.2911029201275 200 Q 936.2911029201275 180, 930.2911029201275 200" stroke="black" fill="none" marker-end="url(#arrowhead)"/>
<path d="M 954.2911029201275 200 Q 948.2911029201275 180, 942.2911029201275 200" stroke="black" fill="none" marker-end="url(#arrowhead)"/>
<path d="M 978.2911029201275 200 Q 972.2911029201275 180, 966.2911029201275 200" stroke="black" fill="none" marker-end="url(#arrowhead)"/>
<path d="M 1014.2911029201275 200 Q 1002.2911029201275 180, 990.2911029201275 200" stroke="black" fill="none" marker-end="url(#arrowhead)"/>
<path d="M 1026.2911029201275 200 Q 1014.2911029201275 180, 1002.2911029201275 200" stroke="black" fill="none" marker-end="url(#arrowhead)"/>
<path d="M 1038.2911029201275 200 Q 1026.2911029201275 180, 1014.2911029201275 200" stroke="black" fill="none" marker-end="url(#arrowhead)"/>
<path d="M 1038.2911029201275 200 Q 1014.2911029201275 180, 990.2911029201275 200" stroke="black" fill="none" marker-end="url(#arrowhead)"/>
<path d="M 1050.2911029201275 200 Q 1038.2911029201275 180, 1026.2911029201275 200" stroke="black" fill="none" marker-end="url(#arrowhead)"/>
<path d="M 1062.2911029201275 200 Q 672.2911029201275 180, 282.29110292012757 200" stroke="black" fill="none" marker-end="url(#arrowhead)"/>
<path d="M 1074.2911029201275 200 Q 1050.2911029201275 180, 1026.2911029201275 200" stroke="black" fill="none" marker-end="url(#arrowhead)"/>
<path d="M 1086.2911029201275 200 Q 1080.2911029201275 180, 1074.2911029201275 200" stroke="black" fill="none" marker-end="url(#arrowhead)"/>
<path d="M 1098.2911029201275 200 Q 1092.2911029201275 180, 1086.2911029201275 200" stroke="black" fill="none" marker-end="url(#arrowhead)"/>
<path d="M 1110.2911029201275 200 Q 1104.2911029201275 180, 1098.2911029201275 200" stroke="black" fill="none" marker-end="url(#arrowhead)"/>
<path d="M 1122.2911029201275 200 Q 1110.2911029201275 180, 1098.2911029201275 200" stroke="black" fill="none" marker-end="url(#arrowhead)"/>
<path d="M 1146.2911029201275 200 Q 1140.2911029201275 180, 1134.2911029201275 200" stroke="black" fill="none" marker-end="url(#arrowhead)"/>
<path d="M 1158.2911029201275 200 Q 1146.2911029201275 180, 1134.2911029201275 200" stroke="black" fill="none" marker-end="url(#arrowhead)"/>
<path d="M 1170.2911029201275 200 Q 1158.2911029201275 180, 1146.2911029201275 200" stroke="black" fill="none" marker-end="url(#arrowhead)"/>
<path d="M 1182.2911029201275 200 Q 1158.2911029201275 180, 1134.2911029201275 200" stroke="black" fill="none" marker-end="url(#arrowhead)"/>
<path d="M 1206.2911029201275 200 Q 1200.2911029201275 180, 1194.2911029201275 200" stroke="black" fill="none" marker-end="url(#arrowhead)"/>
<path d="M 1218.2911029201275 200 Q 1188.2911029201275 180, 1158.2911029201275 200" stroke="black" fill="none" marker-end="url(#arrowhead)"/>
<path d="M 1218.2911029201275 200 Q 1176.2911029201275 180, 1134.2911029201275 200" stroke="black" fill="none" marker-end="url(#arrowhead)"/>
<path d="M 1242.2911029201275 200 Q 1236.2911029201275 180, 1230.2911029201275 200" stroke="black" fill="none" marker-end="url(#arrowhead)"/>
<path d="M 1254.2911029201275 200 Q 1248.2911029201275 180, 1242.2911029201275 200" stroke="black" fill="none" marker-end="url(#arrowhead)"/>
<path d="M 1266.2911029201275 200 Q 1254.2911029201275 180, 1242.2911029201275 200" stroke="black" fill="none" marker-end="url(#arrowhead)"/>
<path d="M 1266.2911029201275 200 Q 1260.2911029201275 180, 1254.2911029201275 200" stroke="black" fill="none" marker-end="url(#arrowhead)"/>
<path d="M 1278.2911029201275 200 Q 1272.2911029201275 180, 1266.2911029201275 200" stroke="black" fill="none" marker-end="url(#arrowhead)"/>
<path d="M 1290.2911029201275 200 Q 1254.2911029201275 180, 1218.2911029201275 200" stroke="black" fill="none" marker-end="url(#arrowhead)"/>
<path d="M 1302.2911029201275 200 Q 1284.2911029201275 180, 1266.2911029201275 200" stroke="black" fill="none" marker-end="url(#arrowhead)"/>
<path d="M 1314.2911029201275 200 Q 1308.2911029201275 180, 1302.2911029201275 200" stroke="black" fill="none" marker-end="url(#arrowhead)"/>
<path d="M 1314.2911029201275 200 Q 1290.2911029201275 180, 1266.2911029201275 200" stroke="black" fill="none" marker-end="url(#arrowhead)"/>
<path d="M 1326.2911029201275 200 Q 1272.2911029201275 180, 1218.2911029201275 200" stroke="black" fill="none" marker-end="url(#arrowhead)"/>
<path d="M 1338.2911029201275 200 Q 1332.2911029201275 180, 1326.2911029201275 200" stroke="black" fill="none" marker-end="url(#arrowhead)"/>
<path d="M 1362.2911029201275 200 Q 858.2911029201275 180, 354.29110292012757 200" stroke="black" fill="none" marker-end="url(#arrowhead)"/>
<path d="M 1362.2911029201275 200 Q 1350.2911029201275 180, 1338.2911029201275 200" stroke="black" fill="none" marker-end="url(#arrowhead)"/>
<path d="M 1374.2911029201275 200 Q 1368.2911029201275 180, 1362.2911029201275 200" stroke="black" fill="none" marker-end="url(#arrowhead)"/>
<path d="M 1374.2911029201275 200 Q 1356.2911029201275 180, 1338.2911029201275 200" stroke="black" fill="none" marker-end="url(#arrowhead)"/>
<path d="M 1386.2911029201275 200 Q 1380.2911029201275 180, 1374.2911029201275 200" stroke="black" fill="none" marker-end="url(#arrowhead)"/>
<path d="M 1398.2911029201275 200 Q 1386.2911029201275 180, 1374.2911029201275 200" stroke="black" fill="none" marker-end="url(#arrowhead)"/>
<path d="M 1398.2911029201275 200 Q 1392.2911029201275 180, 1386.2911029201275 200" stroke="black" fill="none" marker-end="url(#arrowhead)"/>
<path d="M 1410.2911029201275 200 Q 1380.2911029201275 180, 1350.2911029201275 200" stroke="black" fill="none" marker-end="url(#arrowhead)"/>
<path d="M 1422.2911029201275 200 Q 1416.2911029201275 180, 1410.2911029201275 200" stroke="black" fill="none" marker-end="url(#arrowhead)"/>
<path d="M 1422.2911029201275 200 Q 1386.2911029201275 180, 1350.2911029201275 200" stroke="black" fill="none" marker-end="url(#arrowhead)"/>
<path d="M 1434.2911029201275 200 Q 1428.2911029201275 180, 1422.2911029201275 200" stroke="black" fill="none" marker-end="url(#arrowhead)"/>
<path d="M 1446.2911029201275 200 Q 1230.2911029201275 180, 1014.2911029201275 200" stroke="black" fill="none" marker-end="url(#arrowhead)"/>
<path d="M 1446.2911029201275 200 Q 1182.2911029201275 180, 918.2911029201275 200" stroke="black" fill="none" marker-end="url(#arrowhead)"/>
<path d="M 1470.2911029201275 200 Q 1446.2911029201275 180, 1422.2911029201275 200" stroke="black" fill="none" marker-end="url(#arrowhead)"/>
<path d="M 1470.2911029201275 200 Q 1452.2911029201275 180, 1434.2911029201275 200" stroke="black" fill="none" marker-end="url(#arrowhead)"/>
<path d="M 1482.2911029201275 200 Q 1398.2911029201275 180, 1314.2911029201275 200" stroke="black" fill="none" marker-end="url(#arrowhead)"/>
<path d="M 1506.2911029201275 200 Q 1410.2911029201275 180, 1314.2911029201275 200" stroke="black" fill="none" marker-end="url(#arrowhead)"/>
<path d="M 1506.2911029201275 200 Q 1494.2911029201275 180, 1482.2911029201275 200" stroke="black" fill="none" marker-end="url(#arrowhead)"/>
<path d="M 1518.2911029201275 200 Q 1506.2911029201275 180, 1494.2911029201275 200" stroke="black" fill="none" marker-end="url(#arrowhead)"/>
<path d="M 1530.2911029201275 200 Q 1512.2911029201275 180, 1494.2911029201275 200" stroke="black" fill="none" marker-end="url(#arrowhead)"/>
<path d="M 1542.2911029201275 200 Q 948.2911029201275 180, 354.29110292012757 200" stroke="black" fill="none" marker-end="url(#arrowhead)"/>
<path d="M 1542.2911029201275 200 Q 1470.2911029201275 180, 1398.2911029201275 200" stroke="black" fill="none" marker-end="url(#arrowhead)"/>
<path d="M 1554.2911029201275 200 Q 1452.2911029201275 180, 1350.2911029201275 200" stroke="black" fill="none" marker-end="url(#arrowhead)"/>
<path d="M 1566.2911029201275 200 Q 1530.2911029201275 180, 1494.2911029201275 200" stroke="black" fill="none" marker-end="url(#arrowhead)"/>
<path d="M 1566.2911029201275 200 Q 1548.2911029201275 180, 1530.2911029201275 200" stroke="black" fill="none" marker-end="url(#arrowhead)"/>
<path d="M 1578.2911029201275 200 Q 1566.2911029201275 180, 1554.2911029201275 200" stroke="black" fill="none" marker-end="url(#arrowhead)"/>
<path d="M 1578.2911029201275 200 Q 1464.2911029201275 180, 1350.2911029201275 200" stroke="black" fill="none" marker-end="url(#arrowhead)"/>
<path d="M 1590.2911029201275 200 Q 1530.2911029201275 180, 1470.2911029201275 200" stroke="black" fill="none" marker-end="url(#arrowhead)"/>
<path d="M 1602.2911029201275 200 Q 1572.2911029201275 180, 1542.2911029201275 200" stroke="black" fill="none" marker-end="url(#arrowhead)"/>
<path d="M 1614.2911029201275 200 Q 1596.2911029201275 180, 1578.2911029201275 200" stroke="black" fill="none" marker-end="url(#arrowhead)"/>
<path d="M 1626.2911029201275 200 Q 1620.2911029201275 180, 1614.2911029201275 200" stroke="black" fill="none" marker-end="url(#arrowhead)"/>
<path d="M 1638.2911029201275 200 Q 1632.2911029201275 180, 1626.2911029201275 200" stroke="black" fill="none" marker-end="url(#arrowhead)"/>
<path d="M 1650.2911029201275 200 Q 1644.2911029201275 180, 1638.2911029201275 200" stroke="black" fill="none" marker-end="url(#arrowhead)"/>
<path d="M 1662.2911029201275 200 Q 1656.2911029201275 180, 1650.2911029201275 200" stroke="black" fill="none" marker-end="url(#arrowhead)"/>
<path d="M 1674.2911029201275 200 Q 1668.2911029201275 180, 1662.2911029201275 200" stroke="black" fill="none" marker-end="url(#arrowhead)"/>
<path d="M 1698.2911029201275 200 Q 1692.2911029201275 180, 1686.2911029201275 200" stroke="black" fill="none" marker-end="url(#arrowhead)"/>
<path d="M 1734.2911029201275 200 Q 1728.2911029201275 180, 1722.2911029201275 200" stroke="black" fill="none" marker-end="url(#arrowhead)"/>
<path d="M 1746.2911029201275 200 Q 1740.2911029201275 180, 1734.2911029201275 200" stroke="black" fill="none" marker-end="url(#arrowhead)"/>
<path d="M 1770.2911029201275 200 Q 1764.2911029201275 180, 1758.2911029201275 200" stroke="black" fill="none" marker-end="url(#arrowhead)"/>
<path d="M 1782.2911029201275 200 Q 1776.2911029201275 180, 1770.2911029201275 200" stroke="black" fill="none" marker-end="url(#arrowhead)"/>
<path d="M 1806.2911029201275 200 Q 1800.2911029201275 180, 1794.2911029201275 200" stroke="black" fill="none" marker-end="url(#arrowhead)"/>
<path d="M 1818.2911029201275 200 Q 1812.2911029201275 180, 1806.2911029201275 200" stroke="black" fill="none" marker-end="url(#arrowhead)"/>
<path d="M 1830.2911029201275 200 Q 1818.2911029201275 180, 1806.2911029201275 200" stroke="black" fill="none" marker-end="url(#arrowhead)"/>
<path d="M 1830.2911029201275 200 Q 1824.2911029201275 180, 1818.2911029201275 200" stroke="black" fill="none" marker-end="url(#arrowhead)"/>
<path d="M 1842.2911029201275 200 Q 1680.2911029201275 180, 1518.2911029201275 200" stroke="black" fill="none" marker-end="url(#arrowhead)"/>
<path d="M 1854.2911029201275 200 Q 1842.2911029201275 180, 1830.2911029201275 200" stroke="black" fill="none" marker-end="url(#arrowhead)"/>
<path d="M 1866.2911029201275 200 Q 1662.2911029201275 180, 1458.2911029201275 200" stroke="black" fill="none" marker-end="url(#arrowhead)"/>
<path d="M 1878.2911029201275 200 Q 1668.2911029201275 180, 1458.2911029201275 200" stroke="black" fill="none" marker-end="url(#arrowhead)"/>
<path d="M 1878.2911029201275 200 Q 1872.2911029201275 180, 1866.2911029201275 200" stroke="black" fill="none" marker-end="url(#arrowhead)"/>
<path d="M 1890.2911029201275 200 Q 1884.2911029201275 180, 1878.2911029201275 200" stroke="black" fill="none" marker-end="url(#arrowhead)"/>
<path d="M 1902.2911029201275 200 Q 1680.2911029201275 180, 1458.2911029201275 200" stroke="black" fill="none" marker-end="url(#arrowhead)"/>
<path d="M 1902.2911029201275 200 Q 1884.2911029201275 180, 1866.2911029201275 200" stroke="black" fill="none" marker-end="url(#arrowhead)"/>
<path d="M 1902.2911029201275 200 Q 1896.2911029201275 180, 1890.2911029201275 200" stroke="black" fill="none" marker-end="url(#arrowhead)"/>
<path d="M 1914.2911029201275 200 Q 1884.2911029201275 180, 1854.2911029201275 200" stroke="black" fill="none" marker-end="url(#arrowhead)"/>
<path d="M 1926.2911029201275 200 Q 1920.2911029201275 180, 1914.2911029201275 200" stroke="black" fill="none" marker-end="url(#arrowhead)"/>
<path d="M 1938.2911029201275 200 Q 1932.2911029201275 180, 1926.2911029201275 200" stroke="black" fill="none" marker-end="url(#arrowhead)"/>
<path d="M 1950.2911029201275 200 Q 1938.2911029201275 180, 1926.2911029201275 200" stroke="black" fill="none" marker-end="url(#arrowhead)"/>
<path d="M 1950.2911029201275 200 Q 1944.2911029201275 180, 1938.2911029201275 200" stroke="black" fill="none" marker-end="url(#arrowhead)"/>
<path d="M 1962.2911029201275 200 Q 1956.2911029201275 180, 1950.2911029201275 200" stroke="black" fill="none" marker-end="url(#arrowhead)"/>
<path d="M 1986.2911029201275 200 Q 1980.2911029201275 180, 1974.2911029201275 200" stroke="black" fill="none" marker-end="url(#arrowhead)"/>
<path d="M 1998.2911029201275 200 Q 1992.2911029201275 180, 1986.2911029201275 200" stroke="black" fill="none" marker-end="url(#arrowhead)"/>
<path d="M 2010.2911029201275 200 Q 1998.2911029201275 180, 1986.2911029201275 200" stroke="black" fill="none" marker-end="url(#arrowhead)"/>
<path d="M 2010.2911029201275 200 Q 2004.2911029201275 180, 1998.2911029201275 200" stroke="black" fill="none" marker-end="url(#arrowhead)"/>
<path d="M 2022.2911029201275 200 Q 2016.2911029201275 180, 2010.2911029201275 200" stroke="black" fill="none" marker-end="url(#arrowhead)"/>
<path d="M 2022.2911029201275 200 Q 1584.2911029201275 180, 1146.2911029201275 200" stroke="black" fill="none" marker-end="url(#arrowhead)"/>
<path d="M 2034.2911029201275 200 Q 2028.2911029201275 180, 2022.2911029201275 200" stroke="black" fill="none" marker-end="url(#arrowhead)"/>
<path d="M 2046.2911029201275 200 Q 2034.2911029201275 180, 2022.2911029201275 200" stroke="black" fill="none" marker-end="url(#arrowhead)"/>
<path d="M 2058.2911029201277 200 Q 2052.2911029201277 180, 2046.2911029201275 200" stroke="black" fill="none" marker-end="url(#arrowhead)"/>
<path d="M 2070.2911029201277 200 Q 2064.2911029201277 180, 2058.2911029201277 200" stroke="black" fill="none" marker-end="url(#arrowhead)"/>
<path d="M 2082.2911029201277 200 Q 2076.2911029201277 180, 2070.2911029201277 200" stroke="black" fill="none" marker-end="url(#arrowhead)"/>
<path d="M 2106.2911029201277 200 Q 2100.2911029201277 180, 2094.2911029201277 200" stroke="black" fill="none" marker-end="url(#arrowhead)"/>
<path d="M 2118.2911029201277 200 Q 2112.2911029201277 180, 2106.2911029201277 200" stroke="black" fill="none" marker-end="url(#arrowhead)"/>
<path d="M 2130.2911029201277 200 Q 2124.2911029201277 180, 2118.2911029201277 200" stroke="black" fill="none" marker-end="url(#arrowhead)"/>
<path d="M 2166.2911029201277 200 Q 2160.2911029201277 180, 2154.2911029201277 200" stroke="black" fill="none" marker-end="url(#arrowhead)"/>
<path d="M 2190.2911029201277 200 Q 2184.2911029201277 180, 2178.2911029201277 200" stroke="black" fill="none" marker-end="url(#arrowhead)"/>
<path d="M 2202.2911029201277 200 Q 2196.2911029201277 180, 2190.2911029201277 200" stroke="black" fill="none" marker-end="url(#arrowhead)"/>
<path d="M 2226.2911029201277 200 Q 2220.2911029201277 180, 2214.2911029201277 200" stroke="black" fill="none" marker-end="url(#arrowhead)"/>
<path d="M 2250.2911029201277 200 Q 2244.2911029201277 180, 2238.2911029201277 200" stroke="black" fill="none" marker-end="url(#arrowhead)"/>
<path d="M 2262.2911029201277 200 Q 2256.2911029201277 180, 2250.2911029201277 200" stroke="black" fill="none" marker-end="url(#arrowhead)"/>
<path d="M 2262.2911029201277 200 Q 2196.2911029201277 180, 2130.2911029201277 200" stroke="black" fill="none" marker-end="url(#arrowhead)"/>
<path d="M 2262.2911029201277 200 Q 1626.2911029201277 180, 990.2911029201275 200" stroke="black" fill="none" marker-end="url(#arrowhead)"/>
<path d="M 2274.2911029201277 200 Q 2268.2911029201277 180, 2262.2911029201277 200" stroke="black" fill="none" marker-end="url(#arrowhead)"/>
<path d="M 2310.2911029201277 200 Q 2304.2911029201277 180, 2298.2911029201277 200" stroke="black" fill="none" marker-end="url(#arrowhead)"/>
<path d="M 2322.2911029201277 200 Q 2316.2911029201277 180, 2310.2911029201277 200" stroke="black" fill="none" marker-end="url(#arrowhead)"/>
<path d="M 2346.2911029201277 200 Q 2340.2911029201277 180, 2334.2911029201277 200" stroke="black" fill="none" marker-end="url(#arrowhead)"/>
<path d="M 2358.2911029201277 200 Q 2346.2911029201277 180, 2334.2911029201277 200" stroke="black" fill="none" marker-end="url(#arrowhead)"/>
<path d="M 2370.2911029201277 200 Q 2358.2911029201277 180, 2346.2911029201277 200" stroke="black" fill="none" marker-end="url(#arrowhead)"/>
<path d="M 2382.2911029201277 200 Q 2364.2911029201277 180, 2346.2911029201277 200" stroke="black" fill="none" marker-end="url(#arrowhead)"/>
<path d="M 2394.2911029201277 200 Q 2388.2911029201277 180, 2382.2911029201277 200" stroke="black" fill="none" marker-end="url(#arrowhead)"/>
<path d="M 2394.2911029201277 200 Q 1692.2911029201277 180, 990.2911029201275 200" stroke="black" fill="none" marker-end="url(#arrowhead)"/>
<path d="M 2406.2911029201277 200 Q 2394.2911029201277 180, 2382.2911029201277 200" stroke="black" fill="none" marker-end="url(#arrowhead)"/>
<path d="M 2418.2911029201277 200 Q 2400.2911029201277 180, 2382.2911029201277 200" stroke="black" fill="none" marker-end="url(#arrowhead)"/>
<path d="M 2418.2911029201277 200 Q 2412.2911029201277 180, 2406.2911029201277 200" stroke="black" fill="none" marker-end="url(#arrowhead)"/>
<path d="M 2442.2911029201277 200 Q 2436.2911029201277 180, 2430.2911029201277 200" stroke="black" fill="none" marker-end="url(#arrowhead)"/>
<path d="M 2454.2911029201277 200 Q 2448.2911029201277 180, 2442.2911029201277 200" stroke="black" fill="none" marker-end="url(#arrowhead)"/>
<path d="M 2454.2911029201277 200 Q 2442.2911029201277 180, 2430.2911029201277 200" stroke="black" fill="none" marker-end="url(#arrowhead)"/>
<path d="M 2466.2911029201277 200 Q 2436.2911029201277 180, 2406.2911029201277 200" stroke="black" fill="none" marker-end="url(#arrowhead)"/>
<path d="M 2478.2911029201277 200 Q 2442.2911029201277 180, 2406.2911029201277 200" stroke="black" fill="none" marker-end="url(#arrowhead)"/>
<path d="M 2490.2911029201277 200 Q 2484.2911029201277 180, 2478.2911029201277 200" stroke="black" fill="none" marker-end="url(#arrowhead)"/>
<path d="M 2502.2911029201277 200 Q 2490.2911029201277 180, 2478.2911029201277 200" stroke="black" fill="none" marker-end="url(#arrowhead)"/>
<path d="M 2502.2911029201277 200 Q 2496.2911029201277 180, 2490.2911029201277 200" stroke="black" fill="none" marker-end="url(#arrowhead)"/>
<path d="M 2526.2911029201277 200 Q 2520.2911029201277 180, 2514.2911029201277 200" stroke="black" fill="none" marker-end="url(#arrowhead)"/>
<path d="M 2538.2911029201277 200 Q 2526.2911029201277 180, 2514.2911029201277 200" stroke="black" fill="none" marker-end="url(#arrowhead)"/>
<path d="M 2538.2911029201277 200 Q 2532.2911029201277 180, 2526.2911029201277 200" stroke="black" fill="none" marker-end="url(#arrowhead)"/>
<path d="M 2550.2911029201277 200 Q 2544.2911029201277 180, 2538.2911029201277 200" stroke="black" fill="none" marker-end="url(#arrowhead)"/>
<path d="M 2562.2911029201277 200 Q 2550.2911029201277 180, 2538.2911029201277 200" stroke="black" fill="none" marker-end="url(#arrowhead)"/>
<path d="M 2562.2911029201277 200 Q 2556.2911029201277 180, 2550.2911029201277 200" stroke="black" fill="none" marker-end="url(#arrowhead)"/>
<path d="M 2574.2911029201277 200 Q 2568.2911029201277 180, 2562.2911029201277 200" stroke="black" fill="none" marker-end="url(#arrowhead)"/>
<path d="M 2586.2911029201277 200 Q 2580.2911029201277 180, 2574.2911029201277 200" stroke="black" fill="none" marker-end="url(#arrowhead)"/>
<path d="M 2598.2911029201277 200 Q 2592.2911029201277 180, 2586.2911029201277 200" stroke="black" fill="none" marker-end="url(#arrowhead)"/>
<path d="M 2622.2911029201277 200 Q 2616.2911029201277 180, 2610.2911029201277 200" stroke="black" fill="none" marker-end="url(#arrowhead)"/>
<path d="M 2646.2911029201277 200 Q 2640.2911029201277 180, 2634.2911029201277 200" stroke="black" fill="none" marker-end="url(#arrowhead)"/>
<path d="M 2658.2911029201277 200 Q 2652.2911029201277 180, 2646.2911029201277 200" stroke="black" fill="none" marker-end="url(#arrowhead)"/>
<path d="M 2682.2911029201277 200 Q 2676.2911029201277 180, 2670.2911029201277 200" stroke="black" fill="none" marker-end="url(#arrowhead)"/>
<path d="M 2694.2911029201277 200 Q 2472.2911029201277 180, 2250.2911029201277 200" stroke="black" fill="none" marker-end="url(#arrowhead)"/>
<path d="M 2694.2911029201277 200 Q 2688.2911029201277 180, 2682.2911029201277 200" stroke="black" fill="none" marker-end="url(#arrowhead)"/>
<path d="M 2706.2911029201277 200 Q 2688.2911029201277 180, 2670.2911029201277 200" stroke="black" fill="none" marker-end="url(#arrowhead)"/>
<path d="M 2718.2911029201277 200 Q 2712.2911029201277 180, 2706.2911029201277 200" stroke="black" fill="none" marker-end="url(#arrowhead)"/>
<path d="M 2718.2911029201277 200 Q 2694.2911029201277 180, 2670.2911029201277 200" stroke="black" fill="none" marker-end="url(#arrowhead)"/>
<path d="M 2730.2911029201277 200 Q 2724.2911029201277 180, 2718.2911029201277 200" stroke="black" fill="none" marker-end="url(#arrowhead)"/>
<path d="M 2742.2911029201277 200 Q 2688.2911029201277 180, 2634.2911029201277 200" stroke="black" fill="none" marker-end="url(#arrowhead)"/>
<path d="M 2754.2911029201277 200 Q 2748.2911029201277 180, 2742.2911029201277 200" stroke="black" fill="none" marker-end="url(#arrowhead)"/>
<path d="M 2766.2911029201277 200 Q 2760.2911029201277 180, 2754.2911029201277 200" stroke="black" fill="none" marker-end="url(#arrowhead)"/>
<path d="M 2778.2911029201277 200 Q 2748.2911029201277 180, 2718.2911029201277 200" stroke="black" fill="none" marker-end="url(#arrowhead)"/>
<path d="M 2790.2911029201277 200 Q 2754.2911029201277 180, 2718.2911029201277 200" stroke="black" fill="none" marker-end="url(#arrowhead)"/>
<path d="M 2802.2911029201277 200 Q 2796.2911029201277 180, 2790.2911029201277 200" stroke="black" fill="none" marker-end="url(#arrowhead)"/>
<path d="M 2814.2911029201277 200 Q 2808.2911029201277 180, 2802.2911029201277 200" stroke="black" fill="none" marker-end="url(#arrowhead)"/>
<path d="M 2826.2911029201277 200 Q 2802.2911029201277 180, 2778.2911029201277 200" stroke="black" fill="none" marker-end="url(#arrowhead)"/>
<path d="M 2826.2911029201277 200 Q 2076.2911029201277 180, 1326.2911029201275 200" stroke="black" fill="none" marker-end="url(#arrowhead)"/>
<path d="M 2838.2911029201277 200 Q 2808.2911029201277 180, 2778.2911029201277 200" stroke="black" fill="none" marker-end="url(#arrowhead)"/>
<path d="M 2838.2911029201277 200 Q 2832.2911029201277 180, 2826.2911029201277 200" stroke="black" fill="none" marker-end="url(#arrowhead)"/>
<path d="M 2850.2911029201277 200 Q 2844.2911029201277 180, 2838.2911029201277 200" stroke="black" fill="none" marker-end="url(#arrowhead)"/>
<path d="M 2862.2911029201277 200 Q 2850.2911029201277 180, 2838.2911029201277 200" stroke="black" fill="none" marker-end="url(#arrowhead)"/>
<path d="M 2862.2911029201277 200 Q 2844.2911029201277 180, 2826.2911029201277 200" stroke="black" fill="none" marker-end="url(#arrowhead)"/>
<path d="M 2874.2911029201277 200 Q 2868.2911029201277 180, 2862.2911029201277 200" stroke="black" fill="none" marker-end="url(#arrowhead)"/>
<path d="M 2886.2911029201277 200 Q 2874.2911029201277 180, 2862.2911029201277 200" stroke="black" fill="none" marker-end="url(#arrowhead)"/>
<path d="M 2886.2911029201277 200 Q 2880.2911029201277 180, 2874.2911029201277 200" stroke="black" fill="none" marker-end="url(#arrowhead)"/>
<path d="M 2898.2911029201277 200 Q 2892.2911029201277 180, 2886.2911029201277 200" stroke="black" fill="none" marker-end="url(#arrowhead)"/>
<path d="M 2934.2911029201277 200 Q 2928.2911029201277 180, 2922.2911029201277 200" stroke="black" fill="none" marker-end="url(#arrowhead)"/>
<path d="M 2946.2911029201277 200 Q 2934.2911029201277 180, 2922.2911029201277 200" stroke="black" fill="none" marker-end="url(#arrowhead)"/>
<path d="M 2946.2911029201277 200 Q 2940.2911029201277 180, 2934.2911029201277 200" stroke="black" fill="none" marker-end="url(#arrowhead)"/>
<path d="M 2970.2911029201277 200 Q 2964.2911029201277 180, 2958.2911029201277 200" stroke="black" fill="none" marker-end="url(#arrowhead)"/>
<path d="M 2982.2911029201277 200 Q 2976.2911029201277 180, 2970.2911029201277 200" stroke="black" fill="none" marker-end="url(#arrowhead)"/>
<path d="M 2994.2911029201277 200 Q 2922.2911029201277 180, 2850.2911029201277 200" stroke="black" fill="none" marker-end="url(#arrowhead)"/>
<path d="M 3018.2911029201277 200 Q 3012.2911029201277 180, 3006.2911029201277 200" stroke="black" fill="none" marker-end="url(#arrowhead)"/>
<path d="M 3030.2911029201277 200 Q 3018.2911029201277 180, 3006.2911029201277 200" stroke="black" fill="none" marker-end="url(#arrowhead)"/>
<path d="M 3030.2911029201277 200 Q 3024.2911029201277 180, 3018.2911029201277 200" stroke="black" fill="none" marker-end="url(#arrowhead)"/>
<path d="M 3042.2911029201277 200 Q 3036.2911029201277 180, 3030.2911029201277 200" stroke="black" fill="none" marker-end="url(#arrowhead)"/>
<path d="M 3054.2911029201277 200 Q 3048.2911029201277 180, 3042.2911029201277 200" stroke="black" fill="none" marker-end="url(#arrowhead)"/>
<path d="M 3066.2911029201277 200 Q 3054.2911029201277 180, 3042.2911029201277 200" stroke="black" fill="none" marker-end="url(#arrowhead)"/>
<path d="M 3066.2911029201277 200 Q 3060.2911029201277 180, 3054.2911029201277 200" stroke="black" fill="none" marker-end="url(#arrowhead)"/>
<path d="M 3066.2911029201277 200 Q 3042.2911029201277 180, 3018.2911029201277 200" stroke="black" fill="none" marker-end="url(#arrowhead)"/>
<path d="M 3078.2911029201277 200 Q 3060.2911029201277 180, 3042.2911029201277 200" stroke="black" fill="none" marker-end="url(#arrowhead)"/>
<path d="M 3078.2911029201277 200 Q 3066.2911029201277 180, 3054.2911029201277 200" stroke="black" fill="none" marker-end="url(#arrowhead)"/>
<path d="M 3078.2911029201277 200 Q 3048.2911029201277 180, 3018.2911029201277 200" stroke="black" fill="none" marker-end="url(#arrowhead)"/>
<path d="M 3090.2911029201277 200 Q 3072.2911029201277 180, 3054.2911029201277 200" stroke="black" fill="none" marker-end="url(#arrowhead)"/>
<path d="M 3090.2911029201277 200 Q 3054.2911029201277 180, 3018.2911029201277 200" stroke="black" fill="none" marker-end="url(#arrowhead)"/>
<path d="M 3102.2911029201277 200 Q 3090.2911029201277 180, 3078.2911029201277 200" stroke="black" fill="none" marker-end="url(#arrowhead)"/>
<path d="M 3114.2911029201277 200 Q 3096.2911029201277 180, 3078.2911029201277 200" stroke="black" fill="none" marker-end="url(#arrowhead)"/>
<path d="M 3114.2911029201277 200 Q 3108.2911029201277 180, 3102.2911029201277 200" stroke="black" fill="none" marker-end="url(#arrowhead)"/>
<path d="M 3126.2911029201277 200 Q 3102.2911029201277 180, 3078.2911029201277 200" stroke="black" fill="none" marker-end="url(#arrowhead)"/>
<path d="M 3138.2911029201277 200 Q 3126.2911029201277 180, 3114.2911029201277 200" stroke="black" fill="none" marker-end="url(#arrowhead)"/>
<path d="M 3150.2911029201277 200 Q 3132.2911029201277 180, 3114.2911029201277 200" stroke="black" fill="none" marker-end="url(#arrowhead)"/>
<path d="M 3150.2911029201277 200 Q 3144.2911029201277 180, 3138.2911029201277 200" stroke="black" fill="none" marker-end="url(#arrowhead)"/>
<path d="M 3162.2911029201277 200 Q 3072.2911029201277 180, 2982.2911029201277 200" stroke="black" fill="none" marker-end="url(#arrowhead)"/>
<path d="M 3186.2911029201277 200 Q 3180.2911029201277 180, 3174.2911029201277 200" stroke="black" fill="none" marker-end="url(#arrowhead)"/>
<path d="M 3210.2911029201277 200 Q 3204.2911029201277 180, 3198.2911029201277 200" stroke="black" fill="none" marker-end="url(#arrowhead)"/>
<path d="M 3222.2911029201277 200 Q 3210.2911029201277 180, 3198.2911029201277 200" stroke="black" fill="none" marker-end="url(#arrowhead)"/>
<path d="M 3222.2911029201277 200 Q 3216.2911029201277 180, 3210.2911029201277 200" stroke="black" fill="none" marker-end="url(#arrowhead)"/>
<path d="M 3234.2911029201277 200 Q 3228.2911029201277 180, 3222.2911029201277 200" stroke="black" fill="none" marker-end="url(#arrowhead)"/>
<path d="M 3246.2911029201277 200 Q 3240.2911029201277 180, 3234.2911029201277 200" stroke="black" fill="none" marker-end="url(#arrowhead)"/>
<path d="M 3270.2911029201277 200 Q 3264.2911029201277 180, 3258.2911029201277 200" stroke="black" fill="none" marker-end="url(#arrowhead)"/>
<path d="M 3282.2911029201277 200 Q 3258.2911029201277 180, 3234.2911029201277 200" stroke="black" fill="none" marker-end="url(#arrowhead)"/>
<path d="M 3294.2911029201277 200 Q 2952.2911029201277 180, 2610.2911029201277 200" stroke="black" fill="none" marker-end="url(#arrowhead)"/>
<path d="M 3306.2911029201277 200 Q 3300.2911029201277 180, 3294.2911029201277 200" stroke="black" fill="none" marker-end="url(#arrowhead)"/>
<path d="M 3318.2911029201277 200 Q 3312.2911029201277 180, 3306.2911029201277 200" stroke="black" fill="none" marker-end="url(#arrowhead)"/>
<path d="M 3330.2911029201277 200 Q 3324.2911029201277 180, 3318.2911029201277 200" stroke="black" fill="none" marker-end="url(#arrowhead)"/>
<path d="M 3330.2911029201277 200 Q 3318.2911029201277 180, 3306.2911029201277 200" stroke="black" fill="none" marker-end="url(#arrowhead)"/>
<path d="M 3342.2911029201277 200 Q 3336.2911029201277 180, 3330.2911029201277 200" stroke="black" fill="none" marker-end="url(#arrowhead)"/>
<path d="M 3354.2911029201277 200 Q 3348.2911029201277 180, 3342.2911029201277 200" stroke="black" fill="none" marker-end="url(#arrowhead)"/>
<path d="M 3366.2911029201277 200 Q 3360.2911029201277 180, 3354.2911029201277 200" stroke="black" fill="none" marker-end="url(#arrowhead)"/>
<path d="M 3390.2911029201277 200 Q 3384.2911029201277 180, 3378.2911029201277 200" stroke="black" fill="none" marker-end="url(#arrowhead)"/>
<path d="M 3414.2911029201277 200 Q 3396.2911029201277 180, 3378.2911029201277 200" stroke="black" fill="none" marker-end="url(#arrowhead)"/>
<path d="M 3414.2911029201277 200 Q 3408.2911029201277 180, 3402.2911029201277 200" stroke="black" fill="none" marker-end="url(#arrowhead)"/>
<path d="M 3426.2911029201277 200 Q 3414.2911029201277 180, 3402.2911029201277 200" stroke="black" fill="none" marker-end="url(#arrowhead)"/>
<path d="M 3426.2911029201277 200 Q 3420.2911029201277 180, 3414.2911029201277 200" stroke="black" fill="none" marker-end="url(#arrowhead)"/>
<path d="M 3438.2911029201277 200 Q 3396.2911029201277 180, 3354.2911029201277 200" stroke="black" fill="none" marker-end="url(#arrowhead)"/>
<path d="M 3438.2911029201277 200 Q 3402.2911029201277 180, 3366.2911029201277 200" stroke="black" fill="none" marker-end="url(#arrowhead)"/>
<path d="M 3450.2911029201277 200 Q 3408.2911029201277 180, 3366.2911029201277 200" stroke="black" fill="none" marker-end="url(#arrowhead)"/>
<path d="M 3450.2911029201277 200 Q 3444.2911029201277 180, 3438.2911029201277 200" stroke="black" fill="none" marker-end="url(#arrowhead)"/>
<path d="M 3474.2911029201277 200 Q 3450.2911029201277 180, 3426.2911029201277 200" stroke="black" fill="none" marker-end="url(#arrowhead)"/>
<path d="M 3486.2911029201277 200 Q 3474.2911029201277 180, 3462.2911029201277 200" stroke="black" fill="none" marker-end="url(#arrowhead)"/>
<path d="M 3510.2911029201277 200 Q 3498.2911029201277 180, 3486.2911029201277 200" stroke="black" fill="none" marker-end="url(#arrowhead)"/>
<path d="M 3522.2911029201277 200 Q 3510.2911029201277 180, 3498.2911029201277 200" stroke="black" fill="none" marker-end="url(#arrowhead)"/>
<path d="M 3534.2911029201277 200 Q 3528.2911029201277 180, 3522.2911029201277 200" stroke="black" fill="none" marker-end="url(#arrowhead)"/>
<path d="M 3546.2911029201277 200 Q 3540.2911029201277 180, 3534.2911029201277 200" stroke="black" fill="none" marker-end="url(#arrowhead)"/>
<path d="M 3570.2911029201277 200 Q 3564.2911029201277 180, 3558.2911029201277 200" stroke="black" fill="none" marker-end="url(#arrowhead)"/>
<path d="M 3582.2911029201277 200 Q 3570.2911029201277 180, 3558.2911029201277 200" stroke="black" fill="none" marker-end="url(#arrowhead)"/>
<path d="M 3582.2911029201277 200 Q 3576.2911029201277 180, 3570.2911029201277 200" stroke="black" fill="none" marker-end="url(#arrowhead)"/>
<path d="M 3594.2911029201277 200 Q 3576.2911029201277 180, 3558.2911029201277 200" stroke="black" fill="none" marker-end="url(#arrowhead)"/>
<path d="M 3606.2911029201277 200 Q 3600.2911029201277 180, 3594.2911029201277 200" stroke="black" fill="none" marker-end="url(#arrowhead)"/>
<path d="M 3618.2911029201277 200 Q 3612.2911029201277 180, 3606.2911029201277 200" stroke="black" fill="none" marker-end="url(#arrowhead)"/>
<path d="M 3642.2911029201277 200 Q 3618.2911029201277 180, 3594.2911029201277 200" stroke="black" fill="none" marker-end="url(#arrowhead)"/>
<path d="M 3642.2911029201277 200 Q 3636.2911029201277 180, 3630.2911029201277 200" stroke="black" fill="none" marker-end="url(#arrowhead)"/>
<path d="M 3654.2911029201277 200 Q 3648.2911029201277 180, 3642.2911029201277 200" stroke="black" fill="none" marker-end="url(#arrowhead)"/>
<path d="M 3666.2911029201277 200 Q 3588.2911029201277 180, 3510.2911029201277 200" stroke="black" fill="none" marker-end="url(#arrowhead)"/>
<path d="M 3678.2911029201277 200 Q 3672.2911029201277 180, 3666.2911029201277 200" stroke="black" fill="none" marker-end="url(#arrowhead)"/>
<path d="M 3702.2911029201277 200 Q 3684.2911029201277 180, 3666.2911029201277 200" stroke="black" fill="none" marker-end="url(#arrowhead)"/>
<path d="M 3702.2911029201277 200 Q 3690.2911029201277 180, 3678.2911029201277 200" stroke="black" fill="none" marker-end="url(#arrowhead)"/>
<path d="M 3714.2911029201277 200 Q 3684.2911029201277 180, 3654.2911029201277 200" stroke="black" fill="none" marker-end="url(#arrowhead)"/>
<path d="M 3726.2911029201277 200 Q 3720.2911029201277 180, 3714.2911029201277 200" stroke="black" fill="none" marker-end="url(#arrowhead)"/>
<path d="M 3738.2911029201277 200 Q 3726.2911029201277 180, 3714.2911029201277 200" stroke="black" fill="none" marker-end="url(#arrowhead)"/>
<path d="M 3750.2911029201277 200 Q 3744.2911029201277 180, 3738.2911029201277 200" stroke="black" fill="none" marker-end="url(#arrowhead)"/>
<path d="M 3786.2911029201277 200 Q 3780.2911029201277 180, 3774.2911029201277 200" stroke="black" fill="none" marker-end="url(#arrowhead)"/>
<path d="M 3798.2911029201277 200 Q 3792.2911029201277 180, 3786.2911029201277 200" stroke="black" fill="none" marker-end="url(#arrowhead)"/>
<path d="M 3810.2911029201277 200 Q 3804.2911029201277 180, 3798.2911029201277 200" stroke="black" fill="none" marker-end="url(#arrowhead)"/>
<path d="M 3822.2911029201277 200 Q 3816.2911029201277 180, 3810.2911029201277 200" stroke="black" fill="none" marker-end="url(#arrowhead)"/>
<path d="M 3834.2911029201277 200 Q 3816.2911029201277 180, 3798.2911029201277 200" stroke="black" fill="none" marker-end="url(#arrowhead)"/>
<path d="M 3834.2911029201277 200 Q 3822.2911029201277 180, 3810.2911029201277 200" stroke="black" fill="none" marker-end="url(#arrowhead)"/>
<path d="M 3858.2911029201277 200 Q 3834.2911029201277 180, 3810.2911029201277 200" stroke="black" fill="none" marker-end="url(#arrowhead)"/>
<path d="M 3870.2911029201277 200 Q 3864.2911029201277 180, 3858.2911029201277 200" stroke="black" fill="none" marker-end="url(#arrowhead)"/>
<path d="M 3882.2911029201277 200 Q 3870.2911029201277 180, 3858.2911029201277 200" stroke="black" fill="none" marker-end="url(#arrowhead)"/>
<path d="M 3894.2911029201277 200 Q 3882.2911029201277 180, 3870.2911029201277 200" stroke="black" fill="none" marker-end="url(#arrowhead)"/>
<path d="M 3906.2911029201277 200 Q 3894.2911029201277 180, 3882.2911029201277 200" stroke="black" fill="none" marker-end="url(#arrowhead)"/>
<path d="M 3918.2911029201277 200 Q 3912.2911029201277 180, 3906.2911029201277 200" stroke="black" fill="none" marker-end="url(#arrowhead)"/>
<path d="M 3930.2911029201277 200 Q 3924.2911029201277 180, 3918.2911029201277 200" stroke="black" fill="none" marker-end="url(#arrowhead)"/>
<path d="M 3930.2911029201277 200 Q 3918.2911029201277 180, 3906.2911029201277 200" stroke="black" fill="none" marker-end="url(#arrowhead)"/>
<path d="M 3942.2911029201277 200 Q 3924.2911029201277 180, 3906.2911029201277 200" stroke="black" fill="none" marker-end="url(#arrowhead)"/>
<path d="M 3954.2911029201277 200 Q 3948.2911029201277 180, 3942.2911029201277 200" stroke="black" fill="none" marker-end="url(#arrowhead)"/>
<path d="M 3966.2911029201277 200 Q 3960.2911029201277 180, 3954.2911029201277 200" stroke="black" fill="none" marker-end="url(#arrowhead)"/>
<path d="M 4014.2911029201277 200 Q 4008.2911029201277 180, 4002.2911029201277 200" stroke="black" fill="none" marker-end="url(#arrowhead)"/>
<path d="M 4026.2911029201277 200 Q 4020.2911029201277 180, 4014.2911029201277 200" stroke="black" fill="none" marker-end="url(#arrowhead)"/>
<path d="M 4038.2911029201277 200 Q 4026.2911029201277 180, 4014.2911029201277 200" stroke="black" fill="none" marker-end="url(#arrowhead)"/>
<path d="M 4050.2911029201277 200 Q 4044.2911029201277 180, 4038.2911029201277 200" stroke="black" fill="none" marker-end="url(#arrowhead)"/>
<path d="M 4062.2911029201277 200 Q 3732.2911029201277 180, 3402.2911029201277 200" stroke="black" fill="none" marker-end="url(#arrowhead)"/>
<path d="M 4062.2911029201277 200 Q 4056.2911029201277 180, 4050.2911029201277 200" stroke="black" fill="none" marker-end="url(#arrowhead)"/>
<path d="M 4074.2911029201277 200 Q 4068.2911029201277 180, 4062.2911029201277 200" stroke="black" fill="none" marker-end="url(#arrowhead)"/>
<path d="M 4086.2911029201277 200 Q 4074.2911029201277 180, 4062.2911029201277 200" stroke="black" fill="none" marker-end="url(#arrowhead)"/>
<path d="M 4086.2911029201277 200 Q 4068.2911029201277 180, 4050.2911029201277 200" stroke="black" fill="none" marker-end="url(#arrowhead)"/>
<path d="M 4098.291102920128 200 Q 4080.2911029201277 180, 4062.2911029201277 200" stroke="black" fill="none" marker-end="url(#arrowhead)"/>
<path d="M 4110.291102920128 200 Q 4098.291102920128 180, 4086.2911029201277 200" stroke="black" fill="none" marker-end="url(#arrowhead)"/>
<path d="M 4122.291102920128 200 Q 3996.2911029201277 180, 3870.2911029201277 200" stroke="black" fill="none" marker-end="url(#arrowhead)"/>
<path d="M 4122.291102920128 200 Q 4104.291102920128 180, 4086.2911029201277 200" stroke="black" fill="none" marker-end="url(#arrowhead)"/>
<path d="M 4146.291102920128 200 Q 4140.291102920128 180, 4134.291102920128 200" stroke="black" fill="none" marker-end="url(#arrowhead)"/>
<path d="M 4158.291102920128 200 Q 4146.291102920128 180, 4134.291102920128 200" stroke="black" fill="none" marker-end="url(#arrowhead)"/>
<path d="M 4170.291102920128 200 Q 4158.291102920128 180, 4146.291102920128 200" stroke="black" fill="none" marker-end="url(#arrowhead)"/>
<path d="M 4194.291102920128 200 Q 4188.291102920128 180, 4182.291102920128 200" stroke="black" fill="none" marker-end="url(#arrowhead)"/>
<path d="M 4206.291102920128 200 Q 4200.291102920128 180, 4194.291102920128 200" stroke="black" fill="none" marker-end="url(#arrowhead)"/>
<path d="M 4206.291102920128 200 Q 2676.2911029201277 180, 1146.2911029201275 200" stroke="black" fill="none" marker-end="url(#arrowhead)"/>
<path d="M 4218.291102920128 200 Q 4170.291102920128 180, 4122.291102920128 200" stroke="black" fill="none" marker-end="url(#arrowhead)"/>
<path d="M 4230.291102920128 200 Q 4218.291102920128 180, 4206.291102920128 200" stroke="black" fill="none" marker-end="url(#arrowhead)"/>
<path d="M 4242.291102920128 200 Q 2298.2911029201277 180, 354.29110292012757 200" stroke="black" fill="none" marker-end="url(#arrowhead)"/>
<path d="M 4242.291102920128 200 Q 4206.291102920128 180, 4170.291102920128 200" stroke="black" fill="none" marker-end="url(#arrowhead)"/>
<path d="M 4266.291102920128 200 Q 4242.291102920128 180, 4218.291102920128 200" stroke="black" fill="none" marker-end="url(#arrowhead)"/>
<path d="M 4278.291102920128 200 Q 4272.291102920128 180, 4266.291102920128 200" stroke="black" fill="none" marker-end="url(#arrowhead)"/>
<path d="M 4290.291102920128 200 Q 4230.291102920128 180, 4170.291102920128 200" stroke="black" fill="none" marker-end="url(#arrowhead)"/>
<path d="M 4290.291102920128 200 Q 4266.291102920128 180, 4242.291102920128 200" stroke="black" fill="none" marker-end="url(#arrowhead)"/>
<path d="M 4302.291102920128 200 Q 4290.291102920128 180, 4278.291102920128 200" stroke="black" fill="none" marker-end="url(#arrowhead)"/>
<path d="M 4314.291102920128 200 Q 4296.291102920128 180, 4278.291102920128 200" stroke="black" fill="none" marker-end="url(#arrowhead)"/>
<path d="M 4326.291102920128 200 Q 4278.291102920128 180, 4230.291102920128 200" stroke="black" fill="none" marker-end="url(#arrowhead)"/>
<path d="M 4338.291102920128 200 Q 4332.291102920128 180, 4326.291102920128 200" stroke="black" fill="none" marker-end="url(#arrowhead)"/>
<path d="M 4350.291102920128 200 Q 4320.291102920128 180, 4290.291102920128 200" stroke="black" fill="none" marker-end="url(#arrowhead)"/>
<path d="M 4362.291102920128 200 Q 4356.291102920128 180, 4350.291102920128 200" stroke="black" fill="none" marker-end="url(#arrowhead)"/>
<path d="M 4374.291102920128 200 Q 4368.291102920128 180, 4362.291102920128 200" stroke="black" fill="none" marker-end="url(#arrowhead)"/>
<path d="M 4410.291102920128 200 Q 4404.291102920128 180, 4398.291102920128 200" stroke="black" fill="none" marker-end="url(#arrowhead)"/>
<path d="M 4422.291102920128 200 Q 4386.291102920128 180, 4350.291102920128 200" stroke="black" fill="none" marker-end="url(#arrowhead)"/>
<path d="M 4446.291102920128 200 Q 4374.291102920128 180, 4302.291102920128 200" stroke="black" fill="none" marker-end="url(#arrowhead)"/>
<path d="M 4470.291102920128 200 Q 4458.291102920128 180, 4446.291102920128 200" stroke="black" fill="none" marker-end="url(#arrowhead)"/>
<path d="M 4482.291102920128 200 Q 4284.291102920128 180, 4086.2911029201277 200" stroke="black" fill="none" marker-end="url(#arrowhead)"/>
<path d="M 4494.291102920128 200 Q 4488.291102920128 180, 4482.291102920128 200" stroke="black" fill="none" marker-end="url(#arrowhead)"/>
<path d="M 4494.291102920128 200 Q 4302.291102920128 180, 4110.291102920128 200" stroke="black" fill="none" marker-end="url(#arrowhead)"/>
<path d="M 4506.291102920128 200 Q 4500.291102920128 180, 4494.291102920128 200" stroke="black" fill="none" marker-end="url(#arrowhead)"/>
<path d="M 4518.291102920128 200 Q 4506.291102920128 180, 4494.291102920128 200" stroke="black" fill="none" marker-end="url(#arrowhead)"/>
<path d="M 4542.291102920128 200 Q 4536.291102920128 180, 4530.291102920128 200" stroke="black" fill="none" marker-end="url(#arrowhead)"/>
<path d="M 4542.291102920128 200 Q 4308.291102920128 180, 4074.2911029201277 200" stroke="black" fill="none" marker-end="url(#arrowhead)"/>
<path d="M 4554.291102920128 200 Q 4548.291102920128 180, 4542.291102920128 200" stroke="black" fill="none" marker-end="url(#arrowhead)"/>
<path d="M 4566.291102920128 200 Q 4560.291102920128 180, 4554.291102920128 200" stroke="black" fill="none" marker-end="url(#arrowhead)"/>
<path d="M 4578.291102920128 200 Q 4566.291102920128 180, 4554.291102920128 200" stroke="black" fill="none" marker-end="url(#arrowhead)"/>
<path d="M 4590.291102920128 200 Q 4584.291102920128 180, 4578.291102920128 200" stroke="black" fill="none" marker-end="url(#arrowhead)"/>
<path d="M 4602.291102920128 200 Q 2478.2911029201277 180, 354.29110292012757 200" stroke="black" fill="none" marker-end="url(#arrowhead)"/>
<path d="M 4602.291102920128 200 Q 4596.291102920128 180, 4590.291102920128 200" stroke="black" fill="none" marker-end="url(#arrowhead)"/>
<path d="M 4614.291102920128 200 Q 4608.291102920128 180, 4602.291102920128 200" stroke="black" fill="none" marker-end="url(#arrowhead)"/>
<path d="M 4626.291102920128 200 Q 2490.2911029201277 180, 354.29110292012757 200" stroke="black" fill="none" marker-end="url(#arrowhead)"/>
<path d="M 4626.291102920128 200 Q 4620.291102920128 180, 4614.291102920128 200" stroke="black" fill="none" marker-end="url(#arrowhead)"/>
<path d="M 4638.291102920128 200 Q 4632.291102920128 180, 4626.291102920128 200" stroke="black" fill="none" marker-end="url(#arrowhead)"/>
<path d="M 4662.291102920128 200 Q 4656.291102920128 180, 4650.291102920128 200" stroke="black" fill="none" marker-end="url(#arrowhead)"/>
<path d="M 4674.291102920128 200 Q 4668.291102920128 180, 4662.291102920128 200" stroke="black" fill="none" marker-end="url(#arrowhead)"/>
<path d="M 4674.291102920128 200 Q 2910.2911029201277 180, 1146.2911029201275 200" stroke="black" fill="none" marker-end="url(#arrowhead)"/>
<path d="M 4686.291102920128 200 Q 4656.291102920128 180, 4626.291102920128 200" stroke="black" fill="none" marker-end="url(#arrowhead)"/>
<path d="M 4698.291102920128 200 Q 4692.291102920128 180, 4686.291102920128 200" stroke="black" fill="none" marker-end="url(#arrowhead)"/>
<path d="M 4710.291102920128 200 Q 4704.291102920128 180, 4698.291102920128 200" stroke="black" fill="none" marker-end="url(#arrowhead)"/>
<path d="M 4710.291102920128 200 Q 2928.2911029201277 180, 1146.2911029201275 200" stroke="black" fill="none" marker-end="url(#arrowhead)"/>
<path d="M 4734.291102920128 200 Q 4476.291102920128 180, 4218.291102920128 200" stroke="black" fill="none" marker-end="url(#arrowhead)"/>
<path d="M 4746.291102920128 200 Q 4740.291102920128 180, 4734.291102920128 200" stroke="black" fill="none" marker-end="url(#arrowhead)"/>
<path d="M 4758.291102920128 200 Q 4752.291102920128 180, 4746.291102920128 200" stroke="black" fill="none" marker-end="url(#arrowhead)"/>
<path d="M 4770.291102920128 200 Q 4764.291102920128 180, 4758.291102920128 200" stroke="black" fill="none" marker-end="url(#arrowhead)"/>
<path d="M 4782.291102920128 200 Q 4776.291102920128 180, 4770.291102920128 200" stroke="black" fill="none" marker-end="url(#arrowhead)"/>
<path d="M 4794.291102920128 200 Q 4758.291102920128 180, 4722.291102920128 200" stroke="black" fill="none" marker-end="url(#arrowhead)"/>
<path d="M 4806.291102920128 200 Q 4764.291102920128 180, 4722.291102920128 200" stroke="black" fill="none" marker-end="url(#arrowhead)"/>
<path d="M 4818.291102920128 200 Q 4806.291102920128 180, 4794.291102920128 200" stroke="black" fill="none" marker-end="url(#arrowhead)"/>
<path d="M 4830.291102920128 200 Q 4812.291102920128 180, 4794.291102920128 200" stroke="black" fill="none" marker-end="url(#arrowhead)"/>
<path d="M 4842.291102920128 200 Q 4818.291102920128 180, 4794.291102920128 200" stroke="black" fill="none" marker-end="url(#arrowhead)"/>
<path d="M 4854.291102920128 200 Q 4656.291102920128 180, 4458.291102920128 200" stroke="black" fill="none" marker-end="url(#arrowhead)"/>
<path d="M 4866.291102920128 200 Q 4854.291102920128 180, 4842.291102920128 200" stroke="black" fill="none" marker-end="url(#arrowhead)"/>
<path d="M 4890.291102920128 200 Q 4878.291102920128 180, 4866.291102920128 200" stroke="black" fill="none" marker-end="url(#arrowhead)"/>
<path d="M 4890.291102920128 200 Q 4866.291102920128 180, 4842.291102920128 200" stroke="black" fill="none" marker-end="url(#arrowhead)"/>
<path d="M 4902.291102920128 200 Q 4878.291102920128 180, 4854.291102920128 200" stroke="black" fill="none" marker-end="url(#arrowhead)"/>
<path d="M 4914.291102920128 200 Q 4908.291102920128 180, 4902.291102920128 200" stroke="black" fill="none" marker-end="url(#arrowhead)"/>
<path d="M 4926.291102920128 200 Q 4902.291102920128 180, 4878.291102920128 200" stroke="black" fill="none" marker-end="url(#arrowhead)"/>
<path d="M 4938.291102920128 200 Q 4932.291102920128 180, 4926.291102920128 200" stroke="black" fill="none" marker-end="url(#arrowhead)"/>
<path d="M 4950.291102920128 200 Q 4944.291102920128 180, 4938.291102920128 200" stroke="black" fill="none" marker-end="url(#arrowhead)"/>
<path d="M 4962.291102920128 200 Q 4956.291102920128 180, 4950.291102920128 200" stroke="black" fill="none" marker-end="url(#arrowhead)"/>
<path d="M 4974.291102920128 200 Q 4962.291102920128 180, 4950.291102920128 200" stroke="black" fill="none" marker-end="url(#arrowhead)"/>
<path d="M 4974.291102920128 200 Q 4968.291102920128 180, 4962.291102920128 200" stroke="black" fill="none" marker-end="url(#arrowhead)"/>

<defs>
  <marker id="arrowhead" markerWidth="5" markerHeight="5" 
          refX="2" refY="2" orient="auto" fill="black">
    <path d="M0,0 L0,4 L4,2 z" />
  </marker>
</defs>

<circle cx="50.0" cy="200" r="6" fill="none" stroke="black" stroke-width="2" />
<circle cx="50.0" cy="200" r="3" fill="black" />
<circle cx="62.0" cy="200" r="4" fill="black" />
<circle cx="74.0" cy="200" r="6" fill="none" stroke="black" stroke-width="2" />
<circle cx="74.0" cy="200" r="3" fill="black" />
<circle cx="150.29110292012757" cy="200" r="6" fill="none" stroke="blue" stroke-width="2" />
<circle cx="150.29110292012757" cy="200" r="3" fill="blue" />
<circle cx="162.29110292012757" cy="200" r="4" fill="black" />
<circle cx="174.29110292012757" cy="200" r="6" fill="none" stroke="black" stroke-width="2" />
<circle cx="174.29110292012757" cy="200" r="3" fill="black" />
<circle cx="186.29110292012757" cy="200" r="4" fill="black" />
<circle cx="198.29110292012757" cy="200" r="4" fill="red" />
<circle cx="210.29110292012757" cy="200" r="4" fill="black" />
<circle cx="222.29110292012757" cy="200" r="6" fill="none" stroke="blue" stroke-width="2" />
<circle cx="222.29110292012757" cy="200" r="3" fill="blue" />
<circle cx="234.29110292012757" cy="200" r="4" fill="red" />
<circle cx="246.29110292012757" cy="200" r="6" fill="none" stroke="black" stroke-width="2" />
<circle cx="246.29110292012757" cy="200" r="3" fill="black" />
<circle cx="258.29110292012757" cy="200" r="4" fill="red" />
<circle cx="270.29110292012757" cy="200" r="4" fill="red" />
<circle cx="282.29110292012757" cy="200" r="4" fill="red" />
<circle cx="294.29110292012757" cy="200" r="4" fill="red" />
<circle cx="306.29110292012757" cy="200" r="4" fill="black" />
<circle cx="318.29110292012757" cy="200" r="6" fill="none" stroke="red" stroke-width="2" />
<circle cx="318.29110292012757" cy="200" r="3" fill="red" />
<circle cx="330.29110292012757" cy="200" r="6" fill="none" stroke="black" stroke-width="2" />
<circle cx="330.29110292012757" cy="200" r="3" fill="black" />
<circle cx="342.29110292012757" cy="200" r="6" fill="none" stroke="black" stroke-width="2" />
<circle cx="342.29110292012757" cy="200" r="3" fill="black" />
<circle cx="354.29110292012757" cy="200" r="4" fill="red" />
<circle cx="366.29110292012757" cy="200" r="4" fill="black" />
<circle cx="378.29110292012757" cy="200" r="6" fill="none" stroke="black" stroke-width="2" />
<circle cx="378.29110292012757" cy="200" r="3" fill="black" />
<circle cx="390.29110292012757" cy="200" r="4" fill="black" />
<circle cx="402.29110292012757" cy="200" r="4" fill="black" />
<circle cx="414.29110292012757" cy="200" r="6" fill="none" stroke="black" stroke-width="2" />
<circle cx="414.29110292012757" cy="200" r="3" fill="black" />
<circle cx="426.29110292012757" cy="200" r="4" fill="black" />
<circle cx="438.29110292012757" cy="200" r="4" fill="red" />
<circle cx="450.29110292012757" cy="200" r="6" fill="none" stroke="blue" stroke-width="2" />
<circle cx="450.29110292012757" cy="200" r="3" fill="blue" />
<circle cx="462.29110292012757" cy="200" r="6" fill="none" stroke="blue" stroke-width="2" />
<circle cx="462.29110292012757" cy="200" r="3" fill="blue" />
<circle cx="474.29110292012757" cy="200" r="4" fill="red" />
<circle cx="486.29110292012757" cy="200" r="6" fill="none" stroke="black" stroke-width="2" />
<circle cx="486.29110292012757" cy="200" r="3" fill="black" />
<circle cx="498.29110292012757" cy="200" r="6" fill="none" stroke="blue" stroke-width="2" />
<circle cx="498.29110292012757" cy="200" r="3" fill="blue" />
<circle cx="510.29110292012757" cy="200" r="6" fill="none" stroke="blue" stroke-width="2" />
<circle cx="510.29110292012757" cy="200" r="3" fill="blue" />
<circle cx="522.2911029201275" cy="200" r="4" fill="red" />
<circle cx="534.2911029201275" cy="200" r="6" fill="none" stroke="red" stroke-width="2" />
<circle cx="534.2911029201275" cy="200" r="3" fill="red" />
<circle cx="546.2911029201275" cy="200" r="4" fill="red" />
<circle cx="558.2911029201275" cy="200" r="6" fill="none" stroke="black" stroke-width="2" />
<circle cx="558.2911029201275" cy="200" r="3" fill="black" />
<circle cx="570.2911029201275" cy="200" r="4" fill="green" />
<circle cx="582.2911029201275" cy="200" r="4" fill="black" />
<circle cx="594.2911029201275" cy="200" r="4" fill="black" />
<circle cx="606.2911029201275" cy="200" r="4" fill="black" />
<circle cx="618.2911029201275" cy="200" r="4" fill="black" />
<circle cx="630.2911029201275" cy="200" r="4" fill="black" />
<circle cx="642.2911029201275" cy="200" r="4" fill="black" />
<circle cx="654.2911029201275" cy="200" r="6" fill="none" stroke="black" stroke-width="2" />
<circle cx="654.2911029201275" cy="200" r="3" fill="black" />
<circle cx="666.2911029201275" cy="200" r="6" fill="none" stroke="blue" stroke-width="2" />
<circle cx="666.2911029201275" cy="200" r="3" fill="blue" />
<circle cx="678.2911029201275" cy="200" r="4" fill="red" />
<circle cx="690.2911029201275" cy="200" r="6" fill="none" stroke="red" stroke-width="2" />
<circle cx="690.2911029201275" cy="200" r="3" fill="red" />
<circle cx="702.2911029201275" cy="200" r="4" fill="red" />
<circle cx="714.2911029201275" cy="200" r="6" fill="none" stroke="black" stroke-width="2" />
<circle cx="714.2911029201275" cy="200" r="3" fill="black" />
<circle cx="726.2911029201275" cy="200" r="4" fill="red" />
<circle cx="738.2911029201275" cy="200" r="4" fill="red" />
<circle cx="750.2911029201275" cy="200" r="6" fill="none" stroke="blue" stroke-width="2" />
<circle cx="750.2911029201275" cy="200" r="3" fill="blue" />
<circle cx="762.2911029201275" cy="200" r="4" fill="red" />
<circle cx="774.2911029201275" cy="200" r="6" fill="none" stroke="red" stroke-width="2" />
<circle cx="774.2911029201275" cy="200" r="3" fill="red" />
<circle cx="786.2911029201275" cy="200" r="4" fill="black" />
<circle cx="798.2911029201275" cy="200" r="6" fill="none" stroke="green" stroke-width="2" />
<circle cx="798.2911029201275" cy="200" r="3" fill="green" />
<circle cx="810.2911029201275" cy="200" r="4" fill="black" />
<circle cx="822.2911029201275" cy="200" r="6" fill="none" stroke="black" stroke-width="2" />
<circle cx="822.2911029201275" cy="200" r="3" fill="black" />
<circle cx="834.2911029201275" cy="200" r="6" fill="none" stroke="blue" stroke-width="2" />
<circle cx="834.2911029201275" cy="200" r="3" fill="blue" />
<circle cx="846.2911029201275" cy="200" r="4" fill="red" />
<circle cx="858.2911029201275" cy="200" r="4" fill="red" />
<circle cx="870.2911029201275" cy="200" r="6" fill="none" stroke="blue" stroke-width="2" />
<circle cx="870.2911029201275" cy="200" r="3" fill="blue" />
<circle cx="882.2911029201275" cy="200" r="4" fill="red" />
<circle cx="894.2911029201275" cy="200" r="6" fill="none" stroke="red" stroke-width="2" />
<circle cx="894.2911029201275" cy="200" r="3" fill="red" />
<circle cx="906.2911029201275" cy="200" r="6" fill="none" stroke="blue" stroke-width="2" />
<circle cx="906.2911029201275" cy="200" r="3" fill="blue" />
<circle cx="918.2911029201275" cy="200" r="4" fill="red" />
<circle cx="930.2911029201275" cy="200" r="6" fill="none" stroke="red" stroke-width="2" />
<circle cx="930.2911029201275" cy="200" r="3" fill="red" />
<circle cx="942.2911029201275" cy="200" r="4" fill="red" />
<circle cx="954.2911029201275" cy="200" r="6" fill="none" stroke="blue" stroke-width="2" />
<circle cx="954.2911029201275" cy="200" r="3" fill="blue" />
<circle cx="966.2911029201275" cy="200" r="4" fill="black" />
<circle cx="978.2911029201275" cy="200" r="6" fill="none" stroke="blue" stroke-width="2" />
<circle cx="978.2911029201275" cy="200" r="3" fill="blue" />
<circle cx="990.2911029201275" cy="200" r="6" fill="none" stroke="blue" stroke-width="2" />
<circle cx="990.2911029201275" cy="200" r="3" fill="blue" />
<circle cx="1002.2911029201275" cy="200" r="6" fill="none" stroke="blue" stroke-width="2" />
<circle cx="1002.2911029201275" cy="200" r="3" fill="blue" />
<circle cx="1014.2911029201275" cy="200" r="4" fill="red" />
<circle cx="1026.2911029201275" cy="200" r="4" fill="red" />
<circle cx="1038.2911029201275" cy="200" r="6" fill="none" stroke="black" stroke-width="2" />
<circle cx="1038.2911029201275" cy="200" r="3" fill="black" />
<circle cx="1050.2911029201275" cy="200" r="6" fill="none" stroke="red" stroke-width="2" />
<circle cx="1050.2911029201275" cy="200" r="3" fill="red" />
<circle cx="1062.2911029201275" cy="200" r="4" fill="red" />
<circle cx="1074.2911029201275" cy="200" r="4" fill="blue" />
<circle cx="1086.2911029201275" cy="200" r="6" fill="none" stroke="blue" stroke-width="2" />
<circle cx="1086.2911029201275" cy="200" r="3" fill="blue" />
<circle cx="1098.2911029201275" cy="200" r="4" fill="red" />
<circle cx="1110.2911029201275" cy="200" r="4" fill="black" />
<circle cx="1122.2911029201275" cy="200" r="6" fill="none" stroke="black" stroke-width="2" />
<circle cx="1122.2911029201275" cy="200" r="3" fill="black" />
<circle cx="1134.2911029201275" cy="200" r="4" fill="red" />
<circle cx="1146.2911029201275" cy="200" r="4" fill="black" />
<circle cx="1158.2911029201275" cy="200" r="6" fill="none" stroke="black" stroke-width="2" />
<circle cx="1158.2911029201275" cy="200" r="3" fill="black" />
<circle cx="1170.2911029201275" cy="200" r="6" fill="none" stroke="black" stroke-width="2" />
<circle cx="1170.2911029201275" cy="200" r="3" fill="black" />
<circle cx="1182.2911029201275" cy="200" r="4" fill="black" />
<circle cx="1194.2911029201275" cy="200" r="4" fill="black" />
<circle cx="1206.2911029201275" cy="200" r="6" fill="none" stroke="blue" stroke-width="2" />
<circle cx="1206.2911029201275" cy="200" r="3" fill="blue" />
<circle cx="1218.2911029201275" cy="200" r="4" fill="red" />
<circle cx="1230.2911029201275" cy="200" r="4" fill="black" />
<circle cx="1242.2911029201275" cy="200" r="4" fill="red" />
<circle cx="1254.2911029201275" cy="200" r="4" fill="black" />
<circle cx="1266.2911029201275" cy="200" r="4" fill="black" />
<circle cx="1278.2911029201275" cy="200" r="4" fill="black" />
<circle cx="1290.2911029201275" cy="200" r="6" fill="none" stroke="black" stroke-width="2" />
<circle cx="1290.2911029201275" cy="200" r="3" fill="black" />
<circle cx="1302.2911029201275" cy="200" r="6" fill="none" stroke="black" stroke-width="2" />
<circle cx="1302.2911029201275" cy="200" r="3" fill="black" />
<circle cx="1314.2911029201275" cy="200" r="4" fill="black" />
<circle cx="1326.2911029201275" cy="200" r="6" fill="none" stroke="black" stroke-width="2" />
<circle cx="1326.2911029201275" cy="200" r="3" fill="black" />
<circle cx="1338.2911029201275" cy="200" r="4" fill="red" />
<circle cx="1350.2911029201275" cy="200" r="4" fill="red" />
<circle cx="1362.2911029201275" cy="200" r="6" fill="none" stroke="black" stroke-width="2" />
<circle cx="1362.2911029201275" cy="200" r="3" fill="black" />
<circle cx="1374.2911029201275" cy="200" r="4" fill="black" />
<circle cx="1386.2911029201275" cy="200" r="6" fill="none" stroke="black" stroke-width="2" />
<circle cx="1386.2911029201275" cy="200" r="3" fill="black" />
<circle cx="1398.2911029201275" cy="200" r="4" fill="black" />
<circle cx="1410.2911029201275" cy="200" r="6" fill="none" stroke="red" stroke-width="2" />
<circle cx="1410.2911029201275" cy="200" r="3" fill="red" />
<circle cx="1422.2911029201275" cy="200" r="4" fill="red" />
<circle cx="1434.2911029201275" cy="200" r="6" fill="none" stroke="black" stroke-width="2" />
<circle cx="1434.2911029201275" cy="200" r="3" fill="black" />
<circle cx="1446.2911029201275" cy="200" r="4" fill="green" />
<circle cx="1458.2911029201275" cy="200" r="4" fill="blue" />
<circle cx="1470.2911029201275" cy="200" r="4" fill="black" />
<circle cx="1482.2911029201275" cy="200" r="4" fill="black" />
<circle cx="1494.2911029201275" cy="200" r="4" fill="black" />
<circle cx="1506.2911029201275" cy="200" r="4" fill="black" />
<circle cx="1518.2911029201275" cy="200" r="4" fill="black" />
<circle cx="1530.2911029201275" cy="200" r="4" fill="black" />
<circle cx="1542.2911029201275" cy="200" r="4" fill="black" />
<circle cx="1554.2911029201275" cy="200" r="4" fill="black" />
<circle cx="1566.2911029201275" cy="200" r="4" fill="black" />
<circle cx="1578.2911029201275" cy="200" r="4" fill="black" />
<circle cx="1590.2911029201275" cy="200" r="6" fill="none" stroke="black" stroke-width="2" />
<circle cx="1590.2911029201275" cy="200" r="3" fill="black" />
<circle cx="1602.2911029201275" cy="200" r="6" fill="none" stroke="black" stroke-width="2" />
<circle cx="1602.2911029201275" cy="200" r="3" fill="black" />
<circle cx="1614.2911029201275" cy="200" r="6" fill="none" stroke="black" stroke-width="2" />
<circle cx="1614.2911029201275" cy="200" r="3" fill="black" />
<circle cx="1626.2911029201275" cy="200" r="4" fill="black" />
<circle cx="1638.2911029201275" cy="200" r="6" fill="none" stroke="black" stroke-width="2" />
<circle cx="1638.2911029201275" cy="200" r="3" fill="black" />
<circle cx="1650.2911029201275" cy="200" r="4" fill="black" />
<circle cx="1662.2911029201275" cy="200" r="6" fill="none" stroke="green" stroke-width="2" />
<circle cx="1662.2911029201275" cy="200" r="3" fill="green" />
<circle cx="1674.2911029201275" cy="200" r="4" fill="green" />
<circle cx="1686.2911029201275" cy="200" r="6" fill="none" stroke="blue" stroke-width="2" />
<circle cx="1686.2911029201275" cy="200" r="3" fill="blue" />
<circle cx="1698.2911029201275" cy="200" r="4" fill="red" />
<circle cx="1710.2911029201275" cy="200" r="6" fill="none" stroke="black" stroke-width="2" />
<circle cx="1710.2911029201275" cy="200" r="3" fill="black" />
<circle cx="1722.2911029201275" cy="200" r="4" fill="black" />
<circle cx="1734.2911029201275" cy="200" r="4" fill="black" />
<circle cx="1746.2911029201275" cy="200" r="6" fill="none" stroke="black" stroke-width="2" />
<circle cx="1746.2911029201275" cy="200" r="3" fill="black" />
<circle cx="1758.2911029201275" cy="200" r="4" fill="black" />
<circle cx="1770.2911029201275" cy="200" r="4" fill="black" />
<circle cx="1782.2911029201275" cy="200" r="6" fill="none" stroke="black" stroke-width="2" />
<circle cx="1782.2911029201275" cy="200" r="3" fill="black" />
<circle cx="1794.2911029201275" cy="200" r="6" fill="none" stroke="blue" stroke-width="2" />
<circle cx="1794.2911029201275" cy="200" r="3" fill="blue" />
<circle cx="1806.2911029201275" cy="200" r="4" fill="black" />
<circle cx="1818.2911029201275" cy="200" r="6" fill="none" stroke="black" stroke-width="2" />
<circle cx="1818.2911029201275" cy="200" r="3" fill="black" />
<circle cx="1830.2911029201275" cy="200" r="4" fill="green" />
<circle cx="1842.2911029201275" cy="200" r="4" fill="black" />
<circle cx="1854.2911029201275" cy="200" r="6" fill="none" stroke="blue" stroke-width="2" />
<circle cx="1854.2911029201275" cy="200" r="3" fill="blue" />
<circle cx="1866.2911029201275" cy="200" r="6" fill="none" stroke="black" stroke-width="2" />
<circle cx="1866.2911029201275" cy="200" r="3" fill="black" />
<circle cx="1878.2911029201275" cy="200" r="4" fill="red" />
<circle cx="1890.2911029201275" cy="200" r="4" fill="black" />
<circle cx="1902.2911029201275" cy="200" r="4" fill="red" />
<circle cx="1914.2911029201275" cy="200" r="4" fill="red" />
<circle cx="1926.2911029201275" cy="200" r="4" fill="red" />
<circle cx="1938.2911029201275" cy="200" r="6" fill="none" stroke="black" stroke-width="2" />
<circle cx="1938.2911029201275" cy="200" r="3" fill="black" />
<circle cx="1950.2911029201275" cy="200" r="6" fill="none" stroke="blue" stroke-width="2" />
<circle cx="1950.2911029201275" cy="200" r="3" fill="blue" />
<circle cx="1962.2911029201275" cy="200" r="4" fill="black" />
<circle cx="1974.2911029201275" cy="200" r="4" fill="black" />
<circle cx="1986.2911029201275" cy="200" r="4" fill="black" />
<circle cx="1998.2911029201275" cy="200" r="4" fill="black" />
<circle cx="2010.2911029201275" cy="200" r="4" fill="black" />
<circle cx="2022.2911029201275" cy="200" r="4" fill="black" />
<circle cx="2034.2911029201275" cy="200" r="6" fill="none" stroke="blue" stroke-width="2" />
<circle cx="2034.2911029201275" cy="200" r="3" fill="blue" />
<circle cx="2046.2911029201275" cy="200" r="4" fill="black" />
<circle cx="2058.2911029201277" cy="200" r="4" fill="black" />
<circle cx="2070.2911029201277" cy="200" r="6" fill="none" stroke="blue" stroke-width="2" />
<circle cx="2070.2911029201277" cy="200" r="3" fill="blue" />
<circle cx="2082.2911029201277" cy="200" r="6" fill="none" stroke="blue" stroke-width="2" />
<circle cx="2082.2911029201277" cy="200" r="3" fill="blue" />
<circle cx="2094.2911029201277" cy="200" r="4" fill="black" />
<circle cx="2106.2911029201277" cy="200" r="6" fill="none" stroke="black" stroke-width="2" />
<circle cx="2106.2911029201277" cy="200" r="3" fill="black" />
<circle cx="2118.2911029201277" cy="200" r="4" fill="black" />
<circle cx="2130.2911029201277" cy="200" r="6" fill="none" stroke="blue" stroke-width="2" />
<circle cx="2130.2911029201277" cy="200" r="3" fill="blue" />
<circle cx="2142.2911029201277" cy="200" r="6" fill="none" stroke="blue" stroke-width="2" />
<circle cx="2142.2911029201277" cy="200" r="3" fill="blue" />
<circle cx="2154.2911029201277" cy="200" r="4" fill="red" />
<circle cx="2166.2911029201277" cy="200" r="6" fill="none" stroke="red" stroke-width="2" />
<circle cx="2166.2911029201277" cy="200" r="3" fill="red" />
<circle cx="2178.2911029201277" cy="200" r="6" fill="none" stroke="blue" stroke-width="2" />
<circle cx="2178.2911029201277" cy="200" r="3" fill="blue" />
<circle cx="2190.2911029201277" cy="200" r="4" fill="red" />
<circle cx="2202.2911029201277" cy="200" r="6" fill="none" stroke="red" stroke-width="2" />
<circle cx="2202.2911029201277" cy="200" r="3" fill="red" />
<circle cx="2214.2911029201277" cy="200" r="6" fill="none" stroke="blue" stroke-width="2" />
<circle cx="2214.2911029201277" cy="200" r="3" fill="blue" />
<circle cx="2226.2911029201277" cy="200" r="6" fill="none" stroke="black" stroke-width="2" />
<circle cx="2226.2911029201277" cy="200" r="3" fill="black" />
<circle cx="2238.2911029201277" cy="200" r="4" fill="red" />
<circle cx="2250.2911029201277" cy="200" r="6" fill="none" stroke="blue" stroke-width="2" />
<circle cx="2250.2911029201277" cy="200" r="3" fill="blue" />
<circle cx="2262.2911029201277" cy="200" r="4" fill="red" />
<circle cx="2274.2911029201277" cy="200" r="6" fill="none" stroke="black" stroke-width="2" />
<circle cx="2274.2911029201277" cy="200" r="3" fill="black" />
<circle cx="2286.2911029201277" cy="200" r="4" fill="blue" />
<circle cx="2298.2911029201277" cy="200" r="4" fill="blue" />
<circle cx="2310.2911029201277" cy="200" r="4" fill="blue" />
<circle cx="2322.2911029201277" cy="200" r="6" fill="none" stroke="black" stroke-width="2" />
<circle cx="2322.2911029201277" cy="200" r="3" fill="black" />
<circle cx="2334.2911029201277" cy="200" r="4" fill="blue" />
<circle cx="2346.2911029201277" cy="200" r="4" fill="red" />
<circle cx="2358.2911029201277" cy="200" r="6" fill="none" stroke="black" stroke-width="2" />
<circle cx="2358.2911029201277" cy="200" r="3" fill="black" />
<circle cx="2370.2911029201277" cy="200" r="6" fill="none" stroke="black" stroke-width="2" />
<circle cx="2370.2911029201277" cy="200" r="3" fill="black" />
<circle cx="2382.2911029201277" cy="200" r="4" fill="blue" />
<circle cx="2394.2911029201277" cy="200" r="6" fill="none" stroke="blue" stroke-width="2" />
<circle cx="2394.2911029201277" cy="200" r="3" fill="blue" />
<circle cx="2406.2911029201277" cy="200" r="4" fill="red" />
<circle cx="2418.2911029201277" cy="200" r="4" fill="black" />
<circle cx="2430.2911029201277" cy="200" r="4" fill="red" />
<circle cx="2442.2911029201277" cy="200" r="6" fill="none" stroke="red" stroke-width="2" />
<circle cx="2442.2911029201277" cy="200" r="3" fill="red" />
<circle cx="2454.2911029201277" cy="200" r="4" fill="black" />
<circle cx="2466.2911029201277" cy="200" r="4" fill="black" />
<circle cx="2478.2911029201277" cy="200" r="4" fill="blue" />
<circle cx="2490.2911029201277" cy="200" r="6" fill="none" stroke="black" stroke-width="2" />
<circle cx="2490.2911029201277" cy="200" r="3" fill="black" />
<circle cx="2502.2911029201277" cy="200" r="6" fill="none" stroke="black" stroke-width="2" />
<circle cx="2502.2911029201277" cy="200" r="3" fill="black" />
<circle cx="2514.2911029201277" cy="200" r="4" fill="black" />
<circle cx="2526.2911029201277" cy="200" r="6" fill="none" stroke="blue" stroke-width="2" />
<circle cx="2526.2911029201277" cy="200" r="3" fill="blue" />
<circle cx="2538.2911029201277" cy="200" r="6" fill="none" stroke="blue" stroke-width="2" />
<circle cx="2538.2911029201277" cy="200" r="3" fill="blue" />
<circle cx="2550.2911029201277" cy="200" r="6" fill="none" stroke="blue" stroke-width="2" />
<circle cx="2550.2911029201277" cy="200" r="3" fill="blue" />
<circle cx="2562.2911029201277" cy="200" r="6" fill="none" stroke="black" stroke-width="2" />
<circle cx="2562.2911029201277" cy="200" r="3" fill="black" />
<circle cx="2574.2911029201277" cy="200" r="4" fill="black" />
<circle cx="2586.2911029201277" cy="200" r="6" fill="none" stroke="blue" stroke-width="2" />
<circle cx="2586.2911029201277" cy="200" r="3" fill="blue" />
<circle cx="2598.2911029201277" cy="200" r="6" fill="none" stroke="blue" stroke-width="2" />
<circle cx="2598.2911029201277" cy="200" r="3" fill="blue" />
<circle cx="2610.2911029201277" cy="200" r="4" fill="blue" />
<circle cx="2622.2911029201277" cy="200" r="6" fill="none" stroke="black" stroke-width="2" />
<circle cx="2622.2911029201277" cy="200" r="3" fill="black" />
<circle cx="2634.2911029201277" cy="200" r="4" fill="black" />
<circle cx="2646.2911029201277" cy="200" r="4" fill="blue" />
<circle cx="2658.2911029201277" cy="200" r="4" fill="blue" />
<circle cx="2670.2911029201277" cy="200" r="4" fill="red" />
<circle cx="2682.2911029201277" cy="200" r="4" fill="black" />
<circle cx="2694.2911029201277" cy="200" r="4" fill="blue" />
<circle cx="2706.2911029201277" cy="200" r="6" fill="none" stroke="red" stroke-width="2" />
<circle cx="2706.2911029201277" cy="200" r="3" fill="red" />
<circle cx="2718.2911029201277" cy="200" r="6" fill="none" stroke="blue" stroke-width="2" />
<circle cx="2718.2911029201277" cy="200" r="3" fill="blue" />
<circle cx="2730.2911029201277" cy="200" r="6" fill="none" stroke="blue" stroke-width="2" />
<circle cx="2730.2911029201277" cy="200" r="3" fill="blue" />
<circle cx="2742.2911029201277" cy="200" r="4" fill="red" />
<circle cx="2754.2911029201277" cy="200" r="6" fill="none" stroke="green" stroke-width="2" />
<circle cx="2754.2911029201277" cy="200" r="3" fill="green" />
<circle cx="2766.2911029201277" cy="200" r="4" fill="red" />
<circle cx="2778.2911029201277" cy="200" r="4" fill="red" />
<circle cx="2790.2911029201277" cy="200" r="4" fill="black" />
<circle cx="2802.2911029201277" cy="200" r="4" fill="black" />
<circle cx="2814.2911029201277" cy="200" r="6" fill="none" stroke="black" stroke-width="2" />
<circle cx="2814.2911029201277" cy="200" r="3" fill="black" />
<circle cx="2826.2911029201277" cy="200" r="6" fill="none" stroke="blue" stroke-width="2" />
<circle cx="2826.2911029201277" cy="200" r="3" fill="blue" />
<circle cx="2838.2911029201277" cy="200" r="4" fill="red" />
<circle cx="2850.2911029201277" cy="200" r="4" fill="black" />
<circle cx="2862.2911029201277" cy="200" r="4" fill="black" />
<circle cx="2874.2911029201277" cy="200" r="6" fill="none" stroke="black" stroke-width="2" />
<circle cx="2874.2911029201277" cy="200" r="3" fill="black" />
<circle cx="2886.2911029201277" cy="200" r="4" fill="black" />
<circle cx="2898.2911029201277" cy="200" r="4" fill="black" />
<circle cx="2910.2911029201277" cy="200" r="4" fill="green" />
<circle cx="2922.2911029201277" cy="200" r="4" fill="black" />
<circle cx="2934.2911029201277" cy="200" r="4" fill="black" />
<circle cx="2946.2911029201277" cy="200" r="4" fill="green" />
<circle cx="2958.2911029201277" cy="200" r="4" fill="red" />
<circle cx="2970.2911029201277" cy="200" r="6" fill="none" stroke="red" stroke-width="2" />
<circle cx="2970.2911029201277" cy="200" r="3" fill="red" />
<circle cx="2982.2911029201277" cy="200" r="6" fill="none" stroke="blue" stroke-width="2" />
<circle cx="2982.2911029201277" cy="200" r="3" fill="blue" />
<circle cx="2994.2911029201277" cy="200" r="4" fill="red" />
<circle cx="3006.2911029201277" cy="200" r="4" fill="green" />
<circle cx="3018.2911029201277" cy="200" r="4" fill="red" />
<circle cx="3030.2911029201277" cy="200" r="4" fill="black" />
<circle cx="3042.2911029201277" cy="200" r="4" fill="black" />
<circle cx="3054.2911029201277" cy="200" r="4" fill="black" />
<circle cx="3066.2911029201277" cy="200" r="4" fill="black" />
<circle cx="3078.2911029201277" cy="200" r="4" fill="red" />
<circle cx="3090.2911029201277" cy="200" r="4" fill="black" />
<circle cx="3102.2911029201277" cy="200" r="4" fill="red" />
<circle cx="3114.2911029201277" cy="200" r="4" fill="red" />
<circle cx="3126.2911029201277" cy="200" r="4" fill="black" />
<circle cx="3138.2911029201277" cy="200" r="6" fill="none" stroke="black" stroke-width="2" />
<circle cx="3138.2911029201277" cy="200" r="3" fill="black" />
<circle cx="3150.2911029201277" cy="200" r="4" fill="red" />
<circle cx="3162.2911029201277" cy="200" r="4" fill="blue" />
<circle cx="3174.2911029201277" cy="200" r="4" fill="red" />
<circle cx="3186.2911029201277" cy="200" r="6" fill="none" stroke="red" stroke-width="2" />
<circle cx="3186.2911029201277" cy="200" r="3" fill="red" />
<circle cx="3198.2911029201277" cy="200" r="4" fill="green" />
<circle cx="3210.2911029201277" cy="200" r="6" fill="none" stroke="blue" stroke-width="2" />
<circle cx="3210.2911029201277" cy="200" r="3" fill="blue" />
<circle cx="3222.2911029201277" cy="200" r="6" fill="none" stroke="blue" stroke-width="2" />
<circle cx="3222.2911029201277" cy="200" r="3" fill="blue" />
<circle cx="3234.2911029201277" cy="200" r="4" fill="blue" />
<circle cx="3246.2911029201277" cy="200" r="6" fill="none" stroke="green" stroke-width="2" />
<circle cx="3246.2911029201277" cy="200" r="3" fill="green" />
<circle cx="3258.2911029201277" cy="200" r="4" fill="red" />
<circle cx="3270.2911029201277" cy="200" r="6" fill="none" stroke="black" stroke-width="2" />
<circle cx="3270.2911029201277" cy="200" r="3" fill="black" />
<circle cx="3282.2911029201277" cy="200" r="4" fill="red" />
<circle cx="3294.2911029201277" cy="200" r="4" fill="red" />
<circle cx="3306.2911029201277" cy="200" r="4" fill="red" />
<circle cx="3318.2911029201277" cy="200" r="4" fill="green" />
<circle cx="3330.2911029201277" cy="200" r="4" fill="black" />
<circle cx="3342.2911029201277" cy="200" r="6" fill="none" stroke="blue" stroke-width="2" />
<circle cx="3342.2911029201277" cy="200" r="3" fill="blue" />
<circle cx="3354.2911029201277" cy="200" r="4" fill="red" />
<circle cx="3366.2911029201277" cy="200" r="6" fill="none" stroke="blue" stroke-width="2" />
<circle cx="3366.2911029201277" cy="200" r="3" fill="blue" />
<circle cx="3378.2911029201277" cy="200" r="4" fill="red" />
<circle cx="3390.2911029201277" cy="200" r="6" fill="none" stroke="black" stroke-width="2" />
<circle cx="3390.2911029201277" cy="200" r="3" fill="black" />
<circle cx="3402.2911029201277" cy="200" r="4" fill="blue" />
<circle cx="3414.2911029201277" cy="200" r="4" fill="red" />
<circle cx="3426.2911029201277" cy="200" r="4" fill="black" />
<circle cx="3438.2911029201277" cy="200" r="4" fill="blue" />
<circle cx="3450.2911029201277" cy="200" r="6" fill="none" stroke="blue" stroke-width="2" />
<circle cx="3450.2911029201277" cy="200" r="3" fill="blue" />
<circle cx="3462.2911029201277" cy="200" r="4" fill="black" />
<circle cx="3474.2911029201277" cy="200" r="6" fill="none" stroke="blue" stroke-width="2" />
<circle cx="3474.2911029201277" cy="200" r="3" fill="blue" />
<circle cx="3486.2911029201277" cy="200" r="6" fill="none" stroke="black" stroke-width="2" />
<circle cx="3486.2911029201277" cy="200" r="3" fill="black" />
<circle cx="3498.2911029201277" cy="200" r="4" fill="red" />
<circle cx="3510.2911029201277" cy="200" r="4" fill="black" />
<circle cx="3522.2911029201277" cy="200" r="6" fill="none" stroke="blue" stroke-width="2" />
<circle cx="3522.2911029201277" cy="200" r="3" fill="blue" />
<circle cx="3534.2911029201277" cy="200" r="4" fill="red" />
<circle cx="3546.2911029201277" cy="200" r="6" fill="none" stroke="red" stroke-width="2" />
<circle cx="3546.2911029201277" cy="200" r="3" fill="red" />
<circle cx="3558.2911029201277" cy="200" r="4" fill="black" />
<circle cx="3570.2911029201277" cy="200" r="6" fill="none" stroke="black" stroke-width="2" />
<circle cx="3570.2911029201277" cy="200" r="3" fill="black" />
<circle cx="3582.2911029201277" cy="200" r="6" fill="none" stroke="blue" stroke-width="2" />
<circle cx="3582.2911029201277" cy="200" r="3" fill="blue" />
<circle cx="3594.2911029201277" cy="200" r="4" fill="red" />
<circle cx="3606.2911029201277" cy="200" r="6" fill="none" stroke="red" stroke-width="2" />
<circle cx="3606.2911029201277" cy="200" r="3" fill="red" />
<circle cx="3618.2911029201277" cy="200" r="6" fill="none" stroke="blue" stroke-width="2" />
<circle cx="3618.2911029201277" cy="200" r="3" fill="blue" />
<circle cx="3630.2911029201277" cy="200" r="4" fill="red" />
<circle cx="3642.2911029201277" cy="200" r="6" fill="none" stroke="blue" stroke-width="2" />
<circle cx="3642.2911029201277" cy="200" r="3" fill="blue" />
<circle cx="3654.2911029201277" cy="200" r="4" fill="blue" />
<circle cx="3666.2911029201277" cy="200" r="4" fill="black" />
<circle cx="3678.2911029201277" cy="200" r="6" fill="none" stroke="black" stroke-width="2" />
<circle cx="3678.2911029201277" cy="200" r="3" fill="black" />
<circle cx="3690.2911029201277" cy="200" r="6" fill="none" stroke="blue" stroke-width="2" />
<circle cx="3690.2911029201277" cy="200" r="3" fill="blue" />
<circle cx="3702.2911029201277" cy="200" r="6" fill="none" stroke="blue" stroke-width="2" />
<circle cx="3702.2911029201277" cy="200" r="3" fill="blue" />
<circle cx="3714.2911029201277" cy="200" r="4" fill="green" />
<circle cx="3726.2911029201277" cy="200" r="6" fill="none" stroke="blue" stroke-width="2" />
<circle cx="3726.2911029201277" cy="200" r="3" fill="blue" />
<circle cx="3738.2911029201277" cy="200" r="4" fill="red" />
<circle cx="3750.2911029201277" cy="200" r="6" fill="none" stroke="blue" stroke-width="2" />
<circle cx="3750.2911029201277" cy="200" r="3" fill="blue" />
<circle cx="3762.2911029201277" cy="200" r="4" fill="green" />
<circle cx="3774.2911029201277" cy="200" r="4" fill="red" />
<circle cx="3786.2911029201277" cy="200" r="6" fill="none" stroke="black" stroke-width="2" />
<circle cx="3786.2911029201277" cy="200" r="3" fill="black" />
<circle cx="3798.2911029201277" cy="200" r="4" fill="black" />
<circle cx="3810.2911029201277" cy="200" r="4" fill="blue" />
<circle cx="3822.2911029201277" cy="200" r="4" fill="black" />
<circle cx="3834.2911029201277" cy="200" r="4" fill="red" />
<circle cx="3846.2911029201277" cy="200" r="4" fill="black" />
<circle cx="3858.2911029201277" cy="200" r="4" fill="red" />
<circle cx="3870.2911029201277" cy="200" r="4" fill="red" />
<circle cx="3882.2911029201277" cy="200" r="4" fill="red" />
<circle cx="3894.2911029201277" cy="200" r="4" fill="black" />
<circle cx="3906.2911029201277" cy="200" r="4" fill="red" />
<circle cx="3918.2911029201277" cy="200" r="6" fill="none" stroke="black" stroke-width="2" />
<circle cx="3918.2911029201277" cy="200" r="3" fill="black" />
<circle cx="3930.2911029201277" cy="200" r="4" fill="black" />
<circle cx="3942.2911029201277" cy="200" r="4" fill="black" />
<circle cx="3954.2911029201277" cy="200" r="4" fill="black" />
<circle cx="3966.2911029201277" cy="200" r="6" fill="none" stroke="blue" stroke-width="2" />
<circle cx="3966.2911029201277" cy="200" r="3" fill="blue" />
<circle cx="3978.2911029201277" cy="200" r="4" fill="blue" />
<circle cx="3990.2911029201277" cy="200" r="4" fill="black" />
<circle cx="4002.2911029201277" cy="200" r="4" fill="blue" />
<circle cx="4014.2911029201277" cy="200" r="6" fill="none" stroke="red" stroke-width="2" />
<circle cx="4014.2911029201277" cy="200" r="3" fill="red" />
<circle cx="4026.2911029201277" cy="200" r="4" fill="red" />
<circle cx="4038.2911029201277" cy="200" r="4" fill="green" />
<circle cx="4050.2911029201277" cy="200" r="6" fill="none" stroke="blue" stroke-width="2" />
<circle cx="4050.2911029201277" cy="200" r="3" fill="blue" />
<circle cx="4062.2911029201277" cy="200" r="4" fill="red" />
<circle cx="4074.2911029201277" cy="200" r="4" fill="black" />
<circle cx="4086.2911029201277" cy="200" r="4" fill="blue" />
<circle cx="4098.291102920128" cy="200" r="6" fill="none" stroke="red" stroke-width="2" />
<circle cx="4098.291102920128" cy="200" r="3" fill="red" />
<circle cx="4110.291102920128" cy="200" r="4" fill="red" />
<circle cx="4122.291102920128" cy="200" r="6" fill="none" stroke="black" stroke-width="2" />
<circle cx="4122.291102920128" cy="200" r="3" fill="black" />
<circle cx="4134.291102920128" cy="200" r="4" fill="green" />
<circle cx="4146.291102920128" cy="200" r="6" fill="none" stroke="black" stroke-width="2" />
<circle cx="4146.291102920128" cy="200" r="3" fill="black" />
<circle cx="4158.291102920128" cy="200" r="4" fill="black" />
<circle cx="4170.291102920128" cy="200" r="4" fill="black" />
<circle cx="4182.291102920128" cy="200" r="4" fill="black" />
<circle cx="4194.291102920128" cy="200" r="4" fill="black" />
<circle cx="4206.291102920128" cy="200" r="4" fill="blue" />
<circle cx="4218.291102920128" cy="200" r="4" fill="red" />
<circle cx="4230.291102920128" cy="200" r="4" fill="red" />
<circle cx="4242.291102920128" cy="200" r="6" fill="none" stroke="black" stroke-width="2" />
<circle cx="4242.291102920128" cy="200" r="3" fill="black" />
<circle cx="4254.291102920128" cy="200" r="4" fill="black" />
<circle cx="4266.291102920128" cy="200" r="6" fill="none" stroke="red" stroke-width="2" />
<circle cx="4266.291102920128" cy="200" r="3" fill="red" />
<circle cx="4278.291102920128" cy="200" r="4" fill="red" />
<circle cx="4290.291102920128" cy="200" r="4" fill="black" />
<circle cx="4302.291102920128" cy="200" r="4" fill="black" />
<circle cx="4314.291102920128" cy="200" r="6" fill="none" stroke="black" stroke-width="2" />
<circle cx="4314.291102920128" cy="200" r="3" fill="black" />
<circle cx="4326.291102920128" cy="200" r="4" fill="red" />
<circle cx="4338.291102920128" cy="200" r="6" fill="none" stroke="red" stroke-width="2" />
<circle cx="4338.291102920128" cy="200" r="3" fill="red" />
<circle cx="4350.291102920128" cy="200" r="4" fill="red" />
<circle cx="4362.291102920128" cy="200" r="6" fill="none" stroke="green" stroke-width="2" />
<circle cx="4362.291102920128" cy="200" r="3" fill="green" />
<circle cx="4374.291102920128" cy="200" r="4" fill="black" />
<circle cx="4386.291102920128" cy="200" r="6" fill="none" stroke="black" stroke-width="2" />
<circle cx="4386.291102920128" cy="200" r="3" fill="black" />
<circle cx="4398.291102920128" cy="200" r="4" fill="black" />
<circle cx="4410.291102920128" cy="200" r="4" fill="black" />
<circle cx="4422.291102920128" cy="200" r="6" fill="none" stroke="black" stroke-width="2" />
<circle cx="4422.291102920128" cy="200" r="3" fill="black" />
<circle cx="4434.291102920128" cy="200" r="4" fill="black" />
<circle cx="4446.291102920128" cy="200" r="4" fill="red" />
<circle cx="4458.291102920128" cy="200" r="4" fill="red" />
<circle cx="4470.291102920128" cy="200" r="4" fill="red" />
<circle cx="4482.291102920128" cy="200" r="4" fill="blue" />
<circle cx="4494.291102920128" cy="200" r="6" fill="none" stroke="red" stroke-width="2" />
<circle cx="4494.291102920128" cy="200" r="3" fill="red" />
<circle cx="4506.291102920128" cy="200" r="6" fill="none" stroke="blue" stroke-width="2" />
<circle cx="4506.291102920128" cy="200" r="3" fill="blue" />
<circle cx="4518.291102920128" cy="200" r="4" fill="green" />
<circle cx="4530.291102920128" cy="200" r="4" fill="black" />
<circle cx="4542.291102920128" cy="200" r="6" fill="none" stroke="black" stroke-width="2" />
<circle cx="4542.291102920128" cy="200" r="3" fill="black" />
<circle cx="4554.291102920128" cy="200" r="4" fill="black" />
<circle cx="4566.291102920128" cy="200" r="4" fill="green" />
<circle cx="4578.291102920128" cy="200" r="6" fill="none" stroke="black" stroke-width="2" />
<circle cx="4578.291102920128" cy="200" r="3" fill="black" />
<circle cx="4590.291102920128" cy="200" r="4" fill="red" />
<circle cx="4602.291102920128" cy="200" r="6" fill="none" stroke="black" stroke-width="2" />
<circle cx="4602.291102920128" cy="200" r="3" fill="black" />
<circle cx="4614.291102920128" cy="200" r="4" fill="black" />
<circle cx="4626.291102920128" cy="200" r="6" fill="none" stroke="blue" stroke-width="2" />
<circle cx="4626.291102920128" cy="200" r="3" fill="blue" />
<circle cx="4638.291102920128" cy="200" r="4" fill="black" />
<circle cx="4650.291102920128" cy="200" r="4" fill="black" />
<circle cx="4662.291102920128" cy="200" r="4" fill="red" />
<circle cx="4674.291102920128" cy="200" r="6" fill="none" stroke="black" stroke-width="2" />
<circle cx="4674.291102920128" cy="200" r="3" fill="black" />
<circle cx="4686.291102920128" cy="200" r="4" fill="red" />
<circle cx="4698.291102920128" cy="200" r="4" fill="green" />
<circle cx="4710.291102920128" cy="200" r="4" fill="blue" />
<circle cx="4722.291102920128" cy="200" r="4" fill="black" />
<circle cx="4734.291102920128" cy="200" r="4" fill="red" />
<circle cx="4746.291102920128" cy="200" r="4" fill="black" />
<circle cx="4758.291102920128" cy="200" r="4" fill="black" />
<circle cx="4770.291102920128" cy="200" r="4" fill="black" />
<circle cx="4782.291102920128" cy="200" r="4" fill="black" />
<circle cx="4794.291102920128" cy="200" r="4" fill="green" />
<circle cx="4806.291102920128" cy="200" r="6" fill="none" stroke="black" stroke-width="2" />
<circle cx="4806.291102920128" cy="200" r="3" fill="black" />
<circle cx="4818.291102920128" cy="200" r="6" fill="none" stroke="green" stroke-width="2" />
<circle cx="4818.291102920128" cy="200" r="3" fill="green" />
<circle cx="4830.291102920128" cy="200" r="6" fill="none" stroke="black" stroke-width="2" />
<circle cx="4830.291102920128" cy="200" r="3" fill="black" />
<circle cx="4842.291102920128" cy="200" r="4" fill="red" />
<circle cx="4854.291102920128" cy="200" r="4" fill="blue" />
<circle cx="4866.291102920128" cy="200" r="6" fill="none" stroke="black" stroke-width="2" />
<circle cx="4866.291102920128" cy="200" r="3" fill="black" />
<circle cx="4878.291102920128" cy="200" r="4" fill="red" />
<circle cx="4890.291102920128" cy="200" r="6" fill="none" stroke="blue" stroke-width="2" />
<circle cx="4890.291102920128" cy="200" r="3" fill="blue" />
<circle cx="4902.291102920128" cy="200" r="4" fill="red" />
<circle cx="4914.291102920128" cy="200" r="4" fill="blue" />
<circle cx="4926.291102920128" cy="200" r="4" fill="black" />
<circle cx="4938.291102920128" cy="200" r="4" fill="black" />
<circle cx="4950.291102920128" cy="200" r="4" fill="black" />
<circle cx="4962.291102920128" cy="200" r="6" fill="none" stroke="black" stroke-width="2" />
<circle cx="4962.291102920128" cy="200" r="3" fill="black" />
<circle cx="4974.291102920128" cy="200" r="4" fill="black" />
<text x="50" y="225" fill="gray" style="font-size:12px;">2023-08-31T06:47:31+00:00</text>
<text x="900" y="225" fill="gray" style="font-size:12px;">2025-02-28T22:11:46+00:00</text>
</svg>