<svg xmlns="http://www.w3.org/2000/svg" width="1000" height="400" style="background-color: white; font-family: sans-serif;">
<line x1="50" y1="200" x2="950" y2="200" stroke="gray" stroke-width="1"/>
<path d="M 269.51562772846586 200 Q 159.75781386423293 180, 50.0 200" stroke="black" fill="none" marker-end="url(#arrowhead)"/>
<path d="M 281.51562772846586 200 Q 165.75781386423293 180, 50.0 200" stroke="black" fill="none" marker-end="url(#arrowhead)"/>
<path d="M 293.51562772846586 200 Q 287.51562772846586 180, 281.51562772846586 200" stroke="black" fill="none" marker-end="url(#arrowhead)"/>
<path d="M 312.2366467437651 200 Q 181.11832337188255 180, 50.0 200" stroke="black" fill="none" marker-end="url(#arrowhead)"/>
<path d="M 312.2366467437651 200 Q 296.8761372361155 180, 281.51562772846586 200" stroke="black" fill="none" marker-end="url(#arrowhead)"/>
<path d="M 312.2366467437651 200 Q 302.8761372361155 180, 293.51562772846586 200" stroke="black" fill="none" marker-end="url(#arrowhead)"/>
<path d="M 324.2366467437651 200 Q 318.2366467437651 180, 312.2366467437651 200" stroke="black" fill="none" marker-end="url(#arrowhead)"/>
<path d="M 336.2366467437651 200 Q 324.2366467437651 180, 312.2366467437651 200" stroke="black" fill="none" marker-end="url(#arrowhead)"/>
<path d="M 348.2366467437651 200 Q 320.8761372361155 180, 293.51562772846586 200" stroke="black" fill="none" marker-end="url(#arrowhead)"/>
<path d="M 360.2366467437651 200 Q 354.2366467437651 180, 348.2366467437651 200" stroke="black" fill="none" marker-end="url(#arrowhead)"/>
<path d="M 372.2366467437651 200 Q 354.2366467437651 180, 336.2366467437651 200" stroke="black" fill="none" marker-end="url(#arrowhead)"/>
<path d="M 384.2366467437651 200 Q 360.2366467437651 180, 336.2366467437651 200" stroke="black" fill="none" marker-end="url(#arrowhead)"/>
<path d="M 384.2366467437651 200 Q 378.2366467437651 180, 372.2366467437651 200" stroke="black" fill="none" marker-end="url(#arrowhead)"/>
<path d="M 396.2366467437651 200 Q 390.2366467437651 180, 384.2366467437651 200" stroke="black" fill="none" marker-end="url(#arrowhead)"/>
<path d="M 396.2366467437651 200 Q 384.2366467437651 180, 372.2366467437651 200" stroke="black" fill="none" marker-end="url(#arrowhead)"/>
<path d="M 408.2366467437651 200 Q 366.2366467437651 180, 324.2366467437651 200" stroke="black" fill="none" marker-end="url(#arrowhead)"/>
<path d="M 420.2366467437651 200 Q 402.2366467437651 180, 384.2366467437651 200" stroke="black" fill="none" marker-end="url(#arrowhead)"/>
<path d="M 433.35038744792524 200 Q 426.7935170958452 180, 420.2366467437651 200" stroke="black" fill="none" marker-end="url(#arrowhead)"/>
<path d="M 525.8810317285065 200 Q 479.61570958821585 180, 433.35038744792524 200" stroke="black" fill="none" marker-end="url(#arrowhead)"/>
<path d="M 650.7873919354288 200 Q 588.3342118319677 180, 525.8810317285065 200" stroke="black" fill="none" marker-end="url(#arrowhead)"/>
<path d="M 771.3591813655427 200 Q 711.0732866504857 180, 650.7873919354288 200" stroke="black" fill="none" marker-end="url(#arrowhead)"/>
<path d="M 950.0 200 Q 860.6795906827713 180, 771.3591813655427 200" stroke="black" fill="none" marker-end="url(#arrowhead)"/>

<defs>
  <marker id="arrowhead" markerWidth="5" markerHeight="5" 
          refX="2" refY="2" orient="auto" fill="black">
    <path d="M0,0 L0,4 L4,2 z" />
  </marker>
</defs>

<circle cx="50.0" cy="200" r="6" fill="none" stroke="black" stroke-width="2" />
<circle cx="50.0" cy="200" r="3" fill="black" />
<circle cx="269.51562772846586" cy="200" r="6" fill="none" stroke="black" stroke-width="2" />
<circle cx="269.51562772846586" cy="200" r="3" fill="black" />
<circle cx="281.51562772846586" cy="200" r="4" fill="black" />
<circle cx="293.51562772846586" cy="200" r="6" fill="none" stroke="black" stroke-width="2" />
<circle cx="293.51562772846586" cy="200" r="3" fill="black" />
<circle cx="312.2366467437651" cy="200" r="4" fill="black" />
<circle cx="324.2366467437651" cy="200" r="4" fill="black" />
<circle cx="336.2366467437651" cy="200" r="4" fill="black" />
<circle cx="348.2366467437651" cy="200" r="4" fill="black" />
<circle cx="360.2366467437651" cy="200" r="4" fill="black" />
<circle cx="372.2366467437651" cy="200" r="4" fill="black" />
<circle cx="384.2366467437651" cy="200" r="4" fill="green" />
<circle cx="396.2366467437651" cy="200" r="4" fill="black" />
<circle cx="408.2366467437651" cy="200" r="4" fill="black" />
<circle cx="420.2366467437651" cy="200" r="6" fill="none" stroke="blue" stroke-width="2" />
<circle cx="420.2366467437651" cy="200" r="3" fill="blue" />
<circle cx="433.35038744792524" cy="200" r="6" fill="none" stroke="blue" stroke-width="2" />
<circle cx="433.35038744792524" cy="200" r="3" fill="blue" />
<circle cx="525.8810317285065" cy="200" r="4" fill="red" />
<circle cx="650.7873919354288" cy="200" r="6" fill="none" stroke="red" stroke-width="2" />
<circle cx="650.7873919354288" cy="200" r="3" fill="red" />
<circle cx="771.3591813655427" cy="200" r="6" fill="none" stroke="blue" stroke-width="2" />
<circle cx="771.3591813655427" cy="200" r="3" fill="blue" />
<circle cx="950.0" cy="200" r="6" fill="none" stroke="black" stroke-width="2" />
<circle cx="950.0" cy="200" r="3" fill="black" />
<text x="50" y="225" fill="gray" style="font-size:12px;">2025-01-09T05:31:03+00:00</text>
<text x="900" y="225" fill="gray" style="font-size:12px;">2025-02-28T08:06:59+00:00</text>
</svg>