<svg xmlns="http://www.w3.org/2000/svg" width="1000" height="400" style="background-color: white; font-family: sans-serif;">
<line x1="50" y1="200" x2="950" y2="200" stroke="gray" stroke-width="1"/>
<path d="M 62.0 200 Q 56.0 180, 50.0 200" stroke="black" fill="none" marker-end="url(#arrowhead)"/>
<path d="M 74.0 200 Q 68.0 180, 62.0 200" stroke="black" fill="none" marker-end="url(#arrowhead)"/>
<path d="M 86.0 200 Q 80.0 180, 74.0 200" stroke="black" fill="none" marker-end="url(#arrowhead)"/>
<path d="M 98.0 200 Q 92.0 180, 86.0 200" stroke="black" fill="none" marker-end="url(#arrowhead)"/>
<path d="M 110.0 200 Q 98.0 180, 86.0 200" stroke="black" fill="none" marker-end="url(#arrowhead)"/>
<path d="M 110.0 200 Q 104.0 180, 98.0 200" stroke="black" fill="none" marker-end="url(#arrowhead)"/>
<path d="M 122.0 200 Q 116.0 180, 110.0 200" stroke="black" fill="none" marker-end="url(#arrowhead)"/>
<path d="M 134.0 200 Q 128.0 180, 122.0 200" stroke="black" fill="none" marker-end="url(#arrowhead)"/>
<path d="M 146.0 200 Q 140.0 180, 134.0 200" stroke="black" fill="none" marker-end="url(#arrowhead)"/>
<path d="M 158.0 200 Q 152.0 180, 146.0 200" stroke="black" fill="none" marker-end="url(#arrowhead)"/>
<path d="M 170.0 200 Q 164.0 180, 158.0 200" stroke="black" fill="none" marker-end="url(#arrowhead)"/>
<path d="M 182.0 200 Q 176.0 180, 170.0 200" stroke="black" fill="none" marker-end="url(#arrowhead)"/>
<path d="M 194.0 200 Q 188.0 180, 182.0 200" stroke="black" fill="none" marker-end="url(#arrowhead)"/>
<path d="M 206.0 200 Q 200.0 180, 194.0 200" stroke="black" fill="none" marker-end="url(#arrowhead)"/>
<path d="M 230.0 200 Q 224.0 180, 218.0 200" stroke="black" fill="none" marker-end="url(#arrowhead)"/>
<path d="M 242.0 200 Q 236.0 180, 230.0 200" stroke="black" fill="none" marker-end="url(#arrowhead)"/>
<path d="M 323.78452605571744 200 Q 282.8922630278587 180, 242.0 200" stroke="black" fill="none" marker-end="url(#arrowhead)"/>
<path d="M 335.78452605571744 200 Q 329.78452605571744 180, 323.78452605571744 200" stroke="black" fill="none" marker-end="url(#arrowhead)"/>
<path d="M 347.78452605571744 200 Q 246.89226302785872 180, 146.0 200" stroke="black" fill="none" marker-end="url(#arrowhead)"/>
<path d="M 347.78452605571744 200 Q 341.78452605571744 180, 335.78452605571744 200" stroke="black" fill="none" marker-end="url(#arrowhead)"/>
<path d="M 359.78452605571744 200 Q 300.8922630278587 180, 242.0 200" stroke="black" fill="none" marker-end="url(#arrowhead)"/>
<path d="M 371.78452605571744 200 Q 365.78452605571744 180, 359.78452605571744 200" stroke="black" fill="none" marker-end="url(#arrowhead)"/>
<path d="M 383.78452605571744 200 Q 371.78452605571744 180, 359.78452605571744 200" stroke="black" fill="none" marker-end="url(#arrowhead)"/>
<path d="M 395.78452605571744 200 Q 389.78452605571744 180, 383.78452605571744 200" stroke="black" fill="none" marker-end="url(#arrowhead)"/>
<path d="M 407.78452605571744 200 Q 401.78452605571744 180, 395.78452605571744 200" stroke="black" fill="none" marker-end="url(#arrowhead)"/>
<path d="M 419.78452605571744 200 Q 413.78452605571744 180, 407.78452605571744 200" stroke="black" fill="none" marker-end="url(#arrowhead)"/>
<path d="M 443.78452605571744 200 Q 437.78452605571744 180, 431.78452605571744 200" stroke="black" fill="none" marker-end="url(#arrowhead)"/>
<path d="M 455.78452605571744 200 Q 449.78452605571744 180, 443.78452605571744 200" stroke="black" fill="none" marker-end="url(#arrowhead)"/>
<path d="M 467.78452605571744 200 Q 270.8922630278587 180, 74.0 200" stroke="black" fill="none" marker-end="url(#arrowhead)"/>
<path d="M 467.78452605571744 200 Q 461.78452605571744 180, 455.78452605571744 200" stroke="black" fill="none" marker-end="url(#arrowhead)"/>
<path d="M 479.78452605571744 200 Q 473.78452605571744 180, 467.78452605571744 200" stroke="black" fill="none" marker-end="url(#arrowhead)"/>
<path d="M 491.78452605571744 200 Q 485.78452605571744 180, 479.78452605571744 200" stroke="black" fill="none" marker-end="url(#arrowhead)"/>
<path d="M 503.78452605571744 200 Q 485.78452605571744 180, 467.78452605571744 200" stroke="black" fill="none" marker-end="url(#arrowhead)"/>
<path d="M 515.7845260557174 200 Q 509.7845260557174 180, 503.78452605571744 200" stroke="black" fill="none" marker-end="url(#arrowhead)"/>
<path d="M 527.7845260557174 200 Q 521.7845260557174 180, 515.7845260557174 200" stroke="black" fill="none" marker-end="url(#arrowhead)"/>
<path d="M 539.7845260557174 200 Q 491.7845260557174 180, 443.78452605571744 200" stroke="black" fill="none" marker-end="url(#arrowhead)"/>
<path d="M 539.7845260557174 200 Q 533.7845260557174 180, 527.7845260557174 200" stroke="black" fill="none" marker-end="url(#arrowhead)"/>
<path d="M 551.7845260557174 200 Q 545.7845260557174 180, 539.7845260557174 200" stroke="black" fill="none" marker-end="url(#arrowhead)"/>
<path d="M 563.7845260557174 200 Q 557.7845260557174 180, 551.7845260557174 200" stroke="black" fill="none" marker-end="url(#arrowhead)"/>
<path d="M 575.7845260557174 200 Q 569.7845260557174 180, 563.7845260557174 200" stroke="black" fill="none" marker-end="url(#arrowhead)"/>
<path d="M 599.7845260557174 200 Q 587.7845260557174 180, 575.7845260557174 200" stroke="black" fill="none" marker-end="url(#arrowhead)"/>
<path d="M 611.7845260557174 200 Q 599.7845260557174 180, 587.7845260557174 200" stroke="black" fill="none" marker-end="url(#arrowhead)"/>
<path d="M 623.7845260557174 200 Q 617.7845260557174 180, 611.7845260557174 200" stroke="black" fill="none" marker-end="url(#arrowhead)"/>
<path d="M 635.7845260557174 200 Q 629.7845260557174 180, 623.7845260557174 200" stroke="black" fill="none" marker-end="url(#arrowhead)"/>
<path d="M 647.7845260557174 200 Q 605.7845260557174 180, 563.7845260557174 200" stroke="black" fill="none" marker-end="url(#arrowhead)"/>
<path d="M 659.7845260557174 200 Q 629.7845260557174 180, 599.7845260557174 200" stroke="black" fill="none" marker-end="url(#arrowhead)"/>
<path d="M 671.7845260557174 200 Q 641.7845260557174 180, 611.7845260557174 200" stroke="black" fill="none" marker-end="url(#arrowhead)"/>
<path d="M 683.7845260557174 200 Q 665.7845260557174 180, 647.7845260557174 200" stroke="black" fill="none" marker-end="url(#arrowhead)"/>
<path d="M 695.7845260557174 200 Q 689.7845260557174 180, 683.7845260557174 200" stroke="black" fill="none" marker-end="url(#arrowhead)"/>
<path d="M 707.7845260557174 200 Q 695.7845260557174 180, 683.7845260557174 200" stroke="black" fill="none" marker-end="url(#arrowhead)"/>
<path d="M 719.7845260557174 200 Q 689.7845260557174 180, 659.7845260557174 200" stroke="black" fill="none" marker-end="url(#arrowhead)"/>
<path d="M 731.7845260557174 200 Q 725.7845260557174 180, 719.7845260557174 200" stroke="black" fill="none" marker-end="url(#arrowhead)"/>
<path d="M 731.7845260557174 200 Q 695.7845260557174 180, 659.7845260557174 200" stroke="black" fill="none" marker-end="url(#arrowhead)"/>
<path d="M 743.7845260557174 200 Q 731.7845260557174 180, 719.7845260557174 200" stroke="black" fill="none" marker-end="url(#arrowhead)"/>

<defs>
  <marker id="arrowhead" markerWidth="5" markerHeight="5" 
          refX="2" refY="2" orient="auto" fill="black">
    <path d="M0,0 L0,4 L4,2 z" />
  </marker>
</defs>

<circle cx="50.0" cy="200" r="6" fill="none" stroke="blue" stroke-width="2" />
<circle cx="50.0" cy="200" r="3" fill="blue" />
<circle cx="62.0" cy="200" r="6" fill="none" stroke="blue" stroke-width="2" />
<circle cx="62.0" cy="200" r="3" fill="blue" />
<circle cx="74.0" cy="200" r="4" fill="blue" />
<circle cx="86.0" cy="200" r="6" fill="none" stroke="black" stroke-width="2" />
<circle cx="86.0" cy="200" r="3" fill="black" />
<circle cx="98.0" cy="200" r="4" fill="red" />
<circle cx="110.0" cy="200" r="6" fill="none" stroke="blue" stroke-width="2" />
<circle cx="110.0" cy="200" r="3" fill="blue" />
<circle cx="122.0" cy="200" r="4" fill="red" />
<circle cx="134.0" cy="200" r="6" fill="none" stroke="blue" stroke-width="2" />
<circle cx="134.0" cy="200" r="3" fill="blue" />
<circle cx="146.0" cy="200" r="4" fill="red" />
<circle cx="158.0" cy="200" r="6" fill="none" stroke="blue" stroke-width="2" />
<circle cx="158.0" cy="200" r="3" fill="blue" />
<circle cx="170.0" cy="200" r="4" fill="blue" />
<circle cx="182.0" cy="200" r="6" fill="none" stroke="blue" stroke-width="2" />
<circle cx="182.0" cy="200" r="3" fill="blue" />
<circle cx="194.0" cy="200" r="6" fill="none" stroke="blue" stroke-width="2" />
<circle cx="194.0" cy="200" r="3" fill="blue" />
<circle cx="206.0" cy="200" r="6" fill="none" stroke="black" stroke-width="2" />
<circle cx="206.0" cy="200" r="3" fill="black" />
<circle cx="218.0" cy="200" r="4" fill="black" />
<circle cx="230.0" cy="200" r="6" fill="none" stroke="black" stroke-width="2" />
<circle cx="230.0" cy="200" r="3" fill="black" />
<circle cx="242.0" cy="200" r="4" fill="red" />
<circle cx="323.78452605571744" cy="200" r="6" fill="none" stroke="blue" stroke-width="2" />
<circle cx="323.78452605571744" cy="200" r="3" fill="blue" />
<circle cx="335.78452605571744" cy="200" r="4" fill="red" />
<circle cx="347.78452605571744" cy="200" r="6" fill="none" stroke="red" stroke-width="2" />
<circle cx="347.78452605571744" cy="200" r="3" fill="red" />
<circle cx="359.78452605571744" cy="200" r="4" fill="black" />
<circle cx="371.78452605571744" cy="200" r="4" fill="black" />
<circle cx="383.78452605571744" cy="200" r="4" fill="black" />
<circle cx="395.78452605571744" cy="200" r="4" fill="black" />
<circle cx="407.78452605571744" cy="200" r="4" fill="red" />
<circle cx="419.78452605571744" cy="200" r="4" fill="red" />
<circle cx="431.78452605571744" cy="200" r="4" fill="black" />
<circle cx="443.78452605571744" cy="200" r="6" fill="none" stroke="blue" stroke-width="2" />
<circle cx="443.78452605571744" cy="200" r="3" fill="blue" />
<circle cx="455.78452605571744" cy="200" r="6" fill="none" stroke="blue" stroke-width="2" />
<circle cx="455.78452605571744" cy="200" r="3" fill="blue" />
<circle cx="467.78452605571744" cy="200" r="4" fill="red" />
<circle cx="479.78452605571744" cy="200" r="4" fill="red" />
<circle cx="491.78452605571744" cy="200" r="4" fill="black" />
<circle cx="503.78452605571744" cy="200" r="6" fill="none" stroke="red" stroke-width="2" />
<circle cx="503.78452605571744" cy="200" r="3" fill="red" />
<circle cx="515.7845260557174" cy="200" r="4" fill="red" />
<circle cx="527.7845260557174" cy="200" r="6" fill="none" stroke="black" stroke-width="2" />
<circle cx="527.7845260557174" cy="200" r="3" fill="black" />
<circle cx="539.7845260557174" cy="200" r="6" fill="none" stroke="blue" stroke-width="2" />
<circle cx="539.7845260557174" cy="200" r="3" fill="blue" />
<circle cx="551.7845260557174" cy="200" r="6" fill="none" stroke="blue" stroke-width="2" />
<circle cx="551.7845260557174" cy="200" r="3" fill="blue" />
<circle cx="563.7845260557174" cy="200" r="4" fill="red" />
<circle cx="575.7845260557174" cy="200" r="4" fill="red" />
<circle cx="587.7845260557174" cy="200" r="4" fill="red" />
<circle cx="599.7845260557174" cy="200" r="4" fill="black" />
<circle cx="611.7845260557174" cy="200" r="4" fill="blue" />
<circle cx="623.7845260557174" cy="200" r="6" fill="none" stroke="red" stroke-width="2" />
<circle cx="623.7845260557174" cy="200" r="3" fill="red" />
<circle cx="635.7845260557174" cy="200" r="4" fill="red" />
<circle cx="647.7845260557174" cy="200" r="6" fill="none" stroke="blue" stroke-width="2" />
<circle cx="647.7845260557174" cy="200" r="3" fill="blue" />
<circle cx="659.7845260557174" cy="200" r="6" fill="none" stroke="black" stroke-width="2" />
<circle cx="659.7845260557174" cy="200" r="3" fill="black" />
<circle cx="671.7845260557174" cy="200" r="6" fill="none" stroke="blue" stroke-width="2" />
<circle cx="671.7845260557174" cy="200" r="3" fill="blue" />
<circle cx="683.7845260557174" cy="200" r="4" fill="green" />
<circle cx="695.7845260557174" cy="200" r="6" fill="none" stroke="black" stroke-width="2" />
<circle cx="695.7845260557174" cy="200" r="3" fill="black" />
<circle cx="707.7845260557174" cy="200" r="4" fill="green" />
<circle cx="719.7845260557174" cy="200" r="4" fill="red" />
<circle cx="731.7845260557174" cy="200" r="6" fill="none" stroke="blue" stroke-width="2" />
<circle cx="731.7845260557174" cy="200" r="3" fill="blue" />
<circle cx="743.7845260557174" cy="200" r="4" fill="black" />
<circle cx="950.0" cy="200" r="4" fill="blue" />
<text x="50" y="225" fill="gray" style="font-size:12px;">2024-09-27T13:15:45+00:00</text>
<text x="900" y="225" fill="gray" style="font-size:12px;">2024-12-22T04:28:25+00:00</text>
</svg>