<svg xmlns="http://www.w3.org/2000/svg" width="1000" height="400" style="background-color: white; font-family: sans-serif;">
<line x1="50" y1="200" x2="950" y2="200" stroke="gray" stroke-width="1"/>
<path d="M 216.82682960699904 200 Q 133.4134148034995 180, 50.0 200" stroke="black" fill="none" marker-end="url(#arrowhead)"/>
<path d="M 821.5303430079156 200 Q 519.1785863074573 180, 216.82682960699904 200" stroke="black" fill="none" marker-end="url(#arrowhead)"/>
<path d="M 850.7387862796834 200 Q 533.7828079433413 180, 216.82682960699904 200" stroke="black" fill="none" marker-end="url(#arrowhead)"/>
<path d="M 850.7387862796834 200 Q 836.1345646437994 180, 821.5303430079156 200" stroke="black" fill="none" marker-end="url(#arrowhead)"/>
<path d="M 950.0 200 Q 900.3693931398417 180, 850.7387862796834 200" stroke="black" fill="none" marker-end="url(#arrowhead)"/>

<defs>
  <marker id="arrowhead" markerWidth="5" markerHeight="5" 
          refX="2" refY="2" orient="auto" fill="black">
    <path d="M0,0 L0,4 L4,2 z" />
  </marker>
</defs>

<circle cx="50.0" cy="200" r="6" fill="none" stroke="blue" stroke-width="2" />
<circle cx="50.0" cy="200" r="3" fill="blue" />
<circle cx="216.82682960699904" cy="200" r="4" fill="black" />
<circle cx="821.5303430079156" cy="200" r="4" fill="black" />
<circle cx="850.7387862796834" cy="200" r="4" fill="black" />
<circle cx="950.0" cy="200" r="4" fill="black" />
<text x="50" y="225" fill="gray" style="font-size:12px;">2025-02-16T07:05:18+00:00</text>
<text x="900" y="225" fill="gray" style="font-size:12px;">2025-02-17T03:05:28+00:00</text>
</svg>