<svg xmlns="http://www.w3.org/2000/svg" width="1000" height="400" style="background-color: white; font-family: sans-serif;">
<line x1="50" y1="200" x2="950" y2="200" stroke="gray" stroke-width="1"/>
<path d="M 62.0 200 Q 56.0 180, 50.0 200" stroke="black" fill="none" marker-end="url(#arrowhead)"/>
<path d="M 74.0 200 Q 68.0 180, 62.0 200" stroke="black" fill="none" marker-end="url(#arrowhead)"/>
<path d="M 86.0 200 Q 68.0 180, 50.0 200" stroke="black" fill="none" marker-end="url(#arrowhead)"/>
<path d="M 86.0 200 Q 74.0 180, 62.0 200" stroke="black" fill="none" marker-end="url(#arrowhead)"/>
<path d="M 98.0 200 Q 74.0 180, 50.0 200" stroke="black" fill="none" marker-end="url(#arrowhead)"/>
<path d="M 98.0 200 Q 80.0 180, 62.0 200" stroke="black" fill="none" marker-end="url(#arrowhead)"/>
<path d="M 98.0 200 Q 92.0 180, 86.0 200" stroke="black" fill="none" marker-end="url(#arrowhead)"/>
<path d="M 110.0 200 Q 92.0 180, 74.0 200" stroke="black" fill="none" marker-end="url(#arrowhead)"/>
<path d="M 122.0 200 Q 104.0 180, 86.0 200" stroke="black" fill="none" marker-end="url(#arrowhead)"/>
<path d="M 134.0 200 Q 128.0 180, 122.0 200" stroke="black" fill="none" marker-end="url(#arrowhead)"/>
<path d="M 410.83089964253577 200 Q 266.4154498212679 180, 122.0 200" stroke="black" fill="none" marker-end="url(#arrowhead)"/>
<path d="M 410.83089964253577 200 Q 272.4154498212679 180, 134.0 200" stroke="black" fill="none" marker-end="url(#arrowhead)"/>
<path d="M 480.03490108203545 200 Q 474.03490108203545 180, 468.03490108203545 200" stroke="black" fill="none" marker-end="url(#arrowhead)"/>
<path d="M 492.03490108203545 200 Q 486.03490108203545 180, 480.03490108203545 200" stroke="black" fill="none" marker-end="url(#arrowhead)"/>
<path d="M 504.03490108203545 200 Q 498.03490108203545 180, 492.03490108203545 200" stroke="black" fill="none" marker-end="url(#arrowhead)"/>
<path d="M 516.0349010820355 200 Q 504.0349010820355 180, 492.03490108203545 200" stroke="black" fill="none" marker-end="url(#arrowhead)"/>
<path d="M 528.0349010820355 200 Q 522.0349010820355 180, 516.0349010820355 200" stroke="black" fill="none" marker-end="url(#arrowhead)"/>
<path d="M 540.0349010820355 200 Q 475.43290036228564 180, 410.83089964253577 200" stroke="black" fill="none" marker-end="url(#arrowhead)"/>
<path d="M 540.0349010820355 200 Q 534.0349010820355 180, 528.0349010820355 200" stroke="black" fill="none" marker-end="url(#arrowhead)"/>
<path d="M 552.0349010820355 200 Q 546.0349010820355 180, 540.0349010820355 200" stroke="black" fill="none" marker-end="url(#arrowhead)"/>
<path d="M 576.0349010820355 200 Q 570.0349010820355 180, 564.0349010820355 200" stroke="black" fill="none" marker-end="url(#arrowhead)"/>
<path d="M 588.0349010820355 200 Q 570.0349010820355 180, 552.0349010820355 200" stroke="black" fill="none" marker-end="url(#arrowhead)"/>
<path d="M 622.6207511699544 200 Q 593.327826125995 180, 564.0349010820355 200" stroke="black" fill="none" marker-end="url(#arrowhead)"/>
<path d="M 622.6207511699544 200 Q 605.327826125995 180, 588.0349010820355 200" stroke="black" fill="none" marker-end="url(#arrowhead)"/>
<path d="M 673.5347488605765 200 Q 667.5347488605765 180, 661.5347488605765 200" stroke="black" fill="none" marker-end="url(#arrowhead)"/>
<path d="M 685.5347488605765 200 Q 679.5347488605765 180, 673.5347488605765 200" stroke="black" fill="none" marker-end="url(#arrowhead)"/>
<path d="M 697.5347488605765 200 Q 554.1828242515562 180, 410.83089964253577 200" stroke="black" fill="none" marker-end="url(#arrowhead)"/>
<path d="M 697.5347488605765 200 Q 660.0777500152655 180, 622.6207511699544 200" stroke="black" fill="none" marker-end="url(#arrowhead)"/>
<path d="M 709.5347488605765 200 Q 697.5347488605765 180, 685.5347488605765 200" stroke="black" fill="none" marker-end="url(#arrowhead)"/>
<path d="M 721.5347488605765 200 Q 709.5347488605765 180, 697.5347488605765 200" stroke="black" fill="none" marker-end="url(#arrowhead)"/>
<path d="M 733.5347488605765 200 Q 721.5347488605765 180, 709.5347488605765 200" stroke="black" fill="none" marker-end="url(#arrowhead)"/>
<path d="M 733.5347488605765 200 Q 727.5347488605765 180, 721.5347488605765 200" stroke="black" fill="none" marker-end="url(#arrowhead)"/>
<path d="M 733.5347488605765 200 Q 572.1828242515562 180, 410.83089964253577 200" stroke="black" fill="none" marker-end="url(#arrowhead)"/>
<path d="M 745.5347488605765 200 Q 739.5347488605765 180, 733.5347488605765 200" stroke="black" fill="none" marker-end="url(#arrowhead)"/>
<path d="M 757.5347488605765 200 Q 584.1828242515562 180, 410.83089964253577 200" stroke="black" fill="none" marker-end="url(#arrowhead)"/>
<path d="M 757.5347488605765 200 Q 751.5347488605765 180, 745.5347488605765 200" stroke="black" fill="none" marker-end="url(#arrowhead)"/>
<path d="M 950.0 200 Q 853.7673744302883 180, 757.5347488605765 200" stroke="black" fill="none" marker-end="url(#arrowhead)"/>
<path d="M 950.0 200 Q 680.4154498212679 180, 410.83089964253577 200" stroke="black" fill="none" marker-end="url(#arrowhead)"/>

<defs>
  <marker id="arrowhead" markerWidth="5" markerHeight="5" 
          refX="2" refY="2" orient="auto" fill="black">
    <path d="M0,0 L0,4 L4,2 z" />
  </marker>
</defs>

<circle cx="50.0" cy="200" r="6" fill="none" stroke="black" stroke-width="2" />
<circle cx="50.0" cy="200" r="3" fill="black" />
<circle cx="62.0" cy="200" r="4" fill="black" />
<circle cx="74.0" cy="200" r="4" fill="black" />
<circle cx="86.0" cy="200" r="4" fill="black" />
<circle cx="98.0" cy="200" r="4" fill="green" />
<circle cx="110.0" cy="200" r="4" fill="black" />
<circle cx="122.0" cy="200" r="4" fill="black" />
<circle cx="134.0" cy="200" r="6" fill="none" stroke="black" stroke-width="2" />
<circle cx="134.0" cy="200" r="3" fill="black" />
<circle cx="410.83089964253577" cy="200" r="4" fill="black" />
<circle cx="468.03490108203545" cy="200" r="4" fill="blue" />
<circle cx="480.03490108203545" cy="200" r="4" fill="red" />
<circle cx="492.03490108203545" cy="200" r="4" fill="black" />
<circle cx="504.03490108203545" cy="200" r="4" fill="black" />
<circle cx="516.0349010820355" cy="200" r="6" fill="none" stroke="black" stroke-width="2" />
<circle cx="516.0349010820355" cy="200" r="3" fill="black" />
<circle cx="528.0349010820355" cy="200" r="4" fill="blue" />
<circle cx="540.0349010820355" cy="200" r="6" fill="none" stroke="red" stroke-width="2" />
<circle cx="540.0349010820355" cy="200" r="3" fill="red" />
<circle cx="552.0349010820355" cy="200" r="4" fill="blue" />
<circle cx="564.0349010820355" cy="200" r="4" fill="black" />
<circle cx="576.0349010820355" cy="200" r="6" fill="none" stroke="black" stroke-width="2" />
<circle cx="576.0349010820355" cy="200" r="3" fill="black" />
<circle cx="588.0349010820355" cy="200" r="6" fill="none" stroke="red" stroke-width="2" />
<circle cx="588.0349010820355" cy="200" r="3" fill="red" />
<circle cx="622.6207511699544" cy="200" r="4" fill="black" />
<circle cx="661.5347488605765" cy="200" r="4" fill="red" />
<circle cx="673.5347488605765" cy="200" r="4" fill="blue" />
<circle cx="685.5347488605765" cy="200" r="4" fill="green" />
<circle cx="697.5347488605765" cy="200" r="6" fill="none" stroke="black" stroke-width="2" />
<circle cx="697.5347488605765" cy="200" r="3" fill="black" />
<circle cx="709.5347488605765" cy="200" r="4" fill="green" />
<circle cx="721.5347488605765" cy="200" r="4" fill="black" />
<circle cx="733.5347488605765" cy="200" r="6" fill="none" stroke="black" stroke-width="2" />
<circle cx="733.5347488605765" cy="200" r="3" fill="black" />
<circle cx="745.5347488605765" cy="200" r="6" fill="none" stroke="black" stroke-width="2" />
<circle cx="745.5347488605765" cy="200" r="3" fill="black" />
<circle cx="757.5347488605765" cy="200" r="4" fill="black" />
<circle cx="950.0" cy="200" r="6" fill="none" stroke="black" stroke-width="2" />
<circle cx="950.0" cy="200" r="3" fill="black" />
<text x="50" y="225" fill="gray" style="font-size:12px;">2024-05-31T17:01:48+00:00</text>
<text x="900" y="225" fill="gray" style="font-size:12px;">2025-01-27T05:52:09+00:00</text>
</svg>