<svg xmlns="http://www.w3.org/2000/svg" width="1000" height="400" style="background-color: white; font-family: sans-serif;">
<line x1="50" y1="200" x2="950" y2="200" stroke="gray" stroke-width="1"/>
<path d="M 68.43301879390857 200 Q 59.21650939695429 180, 50.0 200" stroke="black" fill="none" marker-end="url(#arrowhead)"/>
<path d="M 80.43301879390857 200 Q 74.43301879390857 180, 68.43301879390857 200" stroke="black" fill="none" marker-end="url(#arrowhead)"/>
<path d="M 92.43301879390857 200 Q 71.21650939695428 180, 50.0 200" stroke="black" fill="none" marker-end="url(#arrowhead)"/>
<path d="M 104.43301879390857 200 Q 98.43301879390857 180, 92.43301879390857 200" stroke="black" fill="none" marker-end="url(#arrowhead)"/>
<path d="M 116.43301879390857 200 Q 83.21650939695428 180, 50.0 200" stroke="black" fill="none" marker-end="url(#arrowhead)"/>
<path d="M 128.43301879390856 200 Q 122.43301879390856 180, 116.43301879390857 200" stroke="black" fill="none" marker-end="url(#arrowhead)"/>
<path d="M 198.68505501460808 200 Q 163.55903690425833 180, 128.43301879390856 200" stroke="black" fill="none" marker-end="url(#arrowhead)"/>
<path d="M 248.3261604844462 200 Q 242.3261604844462 180, 236.3261604844462 200" stroke="black" fill="none" marker-end="url(#arrowhead)"/>
<path d="M 260.3261604844462 200 Q 248.32616048444618 180, 236.3261604844462 200" stroke="black" fill="none" marker-end="url(#arrowhead)"/>
<path d="M 260.3261604844462 200 Q 254.32616048444618 180, 248.3261604844462 200" stroke="black" fill="none" marker-end="url(#arrowhead)"/>
<path d="M 335.34912604522236 200 Q 267.0170905299152 180, 198.68505501460808 200" stroke="black" fill="none" marker-end="url(#arrowhead)"/>
<path d="M 335.34912604522236 200 Q 213.89107241956546 180, 92.43301879390857 200" stroke="black" fill="none" marker-end="url(#arrowhead)"/>
<path d="M 347.34912604522236 200 Q 341.34912604522236 180, 335.34912604522236 200" stroke="black" fill="none" marker-end="url(#arrowhead)"/>
<path d="M 347.34912604522236 200 Q 219.89107241956546 180, 92.43301879390857 200" stroke="black" fill="none" marker-end="url(#arrowhead)"/>
<path d="M 382.8598205376193 200 Q 376.8598205376193 180, 370.8598205376193 200" stroke="black" fill="none" marker-end="url(#arrowhead)"/>
<path d="M 394.8598205376193 200 Q 382.8598205376193 180, 370.8598205376193 200" stroke="black" fill="none" marker-end="url(#arrowhead)"/>
<path d="M 526.6564004882082 200 Q 460.75811051291373 180, 394.8598205376193 200" stroke="black" fill="none" marker-end="url(#arrowhead)"/>
<path d="M 654.7385993354436 200 Q 590.6974999118258 180, 526.6564004882082 200" stroke="black" fill="none" marker-end="url(#arrowhead)"/>
<path d="M 666.7385993354436 200 Q 660.7385993354436 180, 654.7385993354436 200" stroke="black" fill="none" marker-end="url(#arrowhead)"/>
<path d="M 666.7385993354436 200 Q 379.5858090646761 180, 92.43301879390857 200" stroke="black" fill="none" marker-end="url(#arrowhead)"/>
<path d="M 805.5670934930431 200 Q 770.5396287764586 180, 735.512164059874 200" stroke="black" fill="none" marker-end="url(#arrowhead)"/>
<path d="M 817.5670934930431 200 Q 811.5670934930431 180, 805.5670934930431 200" stroke="black" fill="none" marker-end="url(#arrowhead)"/>
<path d="M 923.2003055260775 200 Q 917.2003055260775 180, 911.2003055260775 200" stroke="black" fill="none" marker-end="url(#arrowhead)"/>
<path d="M 935.2003055260775 200 Q 929.2003055260775 180, 923.2003055260775 200" stroke="black" fill="none" marker-end="url(#arrowhead)"/>
<path d="M 947.2003055260775 200 Q 929.2003055260775 180, 911.2003055260775 200" stroke="black" fill="none" marker-end="url(#arrowhead)"/>
<path d="M 959.2003055260775 200 Q 953.2003055260775 180, 947.2003055260775 200" stroke="black" fill="none" marker-end="url(#arrowhead)"/>
<path d="M 971.2003055260775 200 Q 894.3836995095603 180, 817.5670934930431 200" stroke="black" fill="none" marker-end="url(#arrowhead)"/>
<path d="M 983.2003055260775 200 Q 537.816662159993 180, 92.43301879390857 200" stroke="black" fill="none" marker-end="url(#arrowhead)"/>
<path d="M 983.2003055260775 200 Q 971.2003055260775 180, 959.2003055260775 200" stroke="black" fill="none" marker-end="url(#arrowhead)"/>

<defs>
  <marker id="arrowhead" markerWidth="5" markerHeight="5" 
          refX="2" refY="2" orient="auto" fill="black">
    <path d="M0,0 L0,4 L4,2 z" />
  </marker>
</defs>

<circle cx="50.0" cy="200" r="6" fill="none" stroke="blue" stroke-width="2" />
<circle cx="50.0" cy="200" r="3" fill="blue" />
<circle cx="68.43301879390857" cy="200" r="4" fill="red" />
<circle cx="80.43301879390857" cy="200" r="6" fill="none" stroke="blue" stroke-width="2" />
<circle cx="80.43301879390857" cy="200" r="3" fill="blue" />
<circle cx="92.43301879390857" cy="200" r="4" fill="red" />
<circle cx="104.43301879390857" cy="200" r="6" fill="none" stroke="black" stroke-width="2" />
<circle cx="104.43301879390857" cy="200" r="3" fill="black" />
<circle cx="116.43301879390857" cy="200" r="6" fill="none" stroke="black" stroke-width="2" />
<circle cx="116.43301879390857" cy="200" r="3" fill="black" />
<circle cx="128.43301879390856" cy="200" r="6" fill="none" stroke="blue" stroke-width="2" />
<circle cx="128.43301879390856" cy="200" r="3" fill="blue" />
<circle cx="198.68505501460808" cy="200" r="6" fill="none" stroke="blue" stroke-width="2" />
<circle cx="198.68505501460808" cy="200" r="3" fill="blue" />
<circle cx="236.3261604844462" cy="200" r="4" fill="black" />
<circle cx="248.3261604844462" cy="200" r="4" fill="black" />
<circle cx="260.3261604844462" cy="200" r="6" fill="none" stroke="black" stroke-width="2" />
<circle cx="260.3261604844462" cy="200" r="3" fill="black" />
<circle cx="335.34912604522236" cy="200" r="4" fill="red" />
<circle cx="347.34912604522236" cy="200" r="6" fill="none" stroke="blue" stroke-width="2" />
<circle cx="347.34912604522236" cy="200" r="3" fill="blue" />
<circle cx="370.8598205376193" cy="200" r="4" fill="black" />
<circle cx="382.8598205376193" cy="200" r="4" fill="black" />
<circle cx="394.8598205376193" cy="200" r="6" fill="none" stroke="black" stroke-width="2" />
<circle cx="394.8598205376193" cy="200" r="3" fill="black" />
<circle cx="526.6564004882082" cy="200" r="6" fill="none" stroke="red" stroke-width="2" />
<circle cx="526.6564004882082" cy="200" r="3" fill="red" />
<circle cx="654.7385993354436" cy="200" r="6" fill="none" stroke="black" stroke-width="2" />
<circle cx="654.7385993354436" cy="200" r="3" fill="black" />
<circle cx="666.7385993354436" cy="200" r="6" fill="none" stroke="black" stroke-width="2" />
<circle cx="666.7385993354436" cy="200" r="3" fill="black" />
<circle cx="735.512164059874" cy="200" r="6" fill="none" stroke="blue" stroke-width="2" />
<circle cx="735.512164059874" cy="200" r="3" fill="blue" />
<circle cx="805.5670934930431" cy="200" r="4" fill="black" />
<circle cx="817.5670934930431" cy="200" r="6" fill="none" stroke="black" stroke-width="2" />
<circle cx="817.5670934930431" cy="200" r="3" fill="black" />
<circle cx="911.2003055260775" cy="200" r="4" fill="black" />
<circle cx="923.2003055260775" cy="200" r="4" fill="black" />
<circle cx="935.2003055260775" cy="200" r="6" fill="none" stroke="green" stroke-width="2" />
<circle cx="935.2003055260775" cy="200" r="3" fill="green" />
<circle cx="947.2003055260775" cy="200" r="6" fill="none" stroke="red" stroke-width="2" />
<circle cx="947.2003055260775" cy="200" r="3" fill="red" />
<circle cx="959.2003055260775" cy="200" r="6" fill="none" stroke="blue" stroke-width="2" />
<circle cx="959.2003055260775" cy="200" r="3" fill="blue" />
<circle cx="971.2003055260775" cy="200" r="4" fill="black" />
<circle cx="983.2003055260775" cy="200" r="6" fill="none" stroke="blue" stroke-width="2" />
<circle cx="983.2003055260775" cy="200" r="3" fill="blue" />
<text x="50" y="225" fill="gray" style="font-size:12px;">2023-07-27T14:05:52+00:00</text>
<text x="900" y="225" fill="gray" style="font-size:12px;">2025-02-25T11:04:28+00:00</text>
</svg>