<svg xmlns="http://www.w3.org/2000/svg" width="1000" height="200" style="background-color: white; font-family: sans-serif;">
<line x1="50" y1="100" x2="950" y2="100" stroke="gray" stroke-width="1"/>
<path d="M 62.0 100 Q 56.0 80, 50.0 100" stroke="black" fill="none" marker-end="url(#arrowhead)"/>
<path d="M 74.0 100 Q 68.0 80, 62.0 100" stroke="black" fill="none" marker-end="url(#arrowhead)"/>
<path d="M 86.0 100 Q 68.0 80, 50.0 100" stroke="black" fill="none" marker-end="url(#arrowhead)"/>
<path d="M 86.0 100 Q 74.0 80, 62.0 100" stroke="black" fill="none" marker-end="url(#arrowhead)"/>
<path d="M 110.0 100 Q 104.0 80, 98.0 100" stroke="black" fill="none" marker-end="url(#arrowhead)"/>
<path d="M 122.0 100 Q 110.0 80, 98.0 100" stroke="black" fill="none" marker-end="url(#arrowhead)"/>
<path d="M 122.0 100 Q 116.0 80, 110.0 100" stroke="black" fill="none" marker-end="url(#arrowhead)"/>
<path d="M 134.0 100 Q 122.0 80, 110.0 100" stroke="black" fill="none" marker-end="url(#arrowhead)"/>
<path d="M 134.0 100 Q 128.0 80, 122.0 100" stroke="black" fill="none" marker-end="url(#arrowhead)"/>
<path d="M 146.0 100 Q 116.0 80, 86.0 100" stroke="black" fill="none" marker-end="url(#arrowhead)"/>
<path d="M 158.0 100 Q 146.0 80, 134.0 100" stroke="black" fill="none" marker-end="url(#arrowhead)"/>
<path d="M 170.0 100 Q 158.0 80, 146.0 100" stroke="black" fill="none" marker-end="url(#arrowhead)"/>
<path d="M 208.75511807720494 100 Q 189.37755903860247 80, 170.0 100" stroke="black" fill="none" marker-end="url(#arrowhead)"/>
<path d="M 302.1877061413548 100 Q 255.47141210927987 80, 208.75511807720494 100" stroke="black" fill="none" marker-end="url(#arrowhead)"/>
<path d="M 314.1877061413548 100 Q 308.1877061413548 80, 302.1877061413548 100" stroke="black" fill="none" marker-end="url(#arrowhead)"/>
<path d="M 326.1877061413548 100 Q 320.1877061413548 80, 314.1877061413548 100" stroke="black" fill="none" marker-end="url(#arrowhead)"/>
<path d="M 361.93931311131513 100 Q 344.06350962633496 80, 326.1877061413548 100" stroke="black" fill="none" marker-end="url(#arrowhead)"/>
<path d="M 378.25631899356705 100 Q 370.0978160524411 80, 361.93931311131513 100" stroke="black" fill="none" marker-end="url(#arrowhead)"/>
<path d="M 390.25631899356705 100 Q 384.25631899356705 80, 378.25631899356705 100" stroke="black" fill="none" marker-end="url(#arrowhead)"/>
<path d="M 402.25631899356705 100 Q 396.25631899356705 80, 390.25631899356705 100" stroke="black" fill="none" marker-end="url(#arrowhead)"/>
<path d="M 414.25631899356705 100 Q 408.25631899356705 80, 402.25631899356705 100" stroke="black" fill="none" marker-end="url(#arrowhead)"/>
<path d="M 539.2833382743911 100 Q 476.76982863397905 80, 414.25631899356705 100" stroke="black" fill="none" marker-end="url(#arrowhead)"/>
<path d="M 665.3396899831102 100 Q 602.3115141287507 80, 539.2833382743911 100" stroke="black" fill="none" marker-end="url(#arrowhead)"/>
<path d="M 677.3396899831102 100 Q 671.3396899831102 80, 665.3396899831102 100" stroke="black" fill="none" marker-end="url(#arrowhead)"/>
<path d="M 689.3396899831102 100 Q 683.3396899831102 80, 677.3396899831102 100" stroke="black" fill="none" marker-end="url(#arrowhead)"/>
<path d="M 701.3396899831102 100 Q 683.3396899831102 80, 665.3396899831102 100" stroke="black" fill="none" marker-end="url(#arrowhead)"/>
<path d="M 701.3396899831102 100 Q 695.3396899831102 80, 689.3396899831102 100" stroke="black" fill="none" marker-end="url(#arrowhead)"/>
<path d="M 713.3396899831102 100 Q 707.3396899831102 80, 701.3396899831102 100" stroke="black" fill="none" marker-end="url(#arrowhead)"/>
<path d="M 782.6611242356494 100 Q 748.0004071093798 80, 713.3396899831102 100" stroke="black" fill="none" marker-end="url(#arrowhead)"/>
<path d="M 794.6611242356494 100 Q 788.6611242356494 80, 782.6611242356494 100" stroke="black" fill="none" marker-end="url(#arrowhead)"/>
<path d="M 806.6611242356494 100 Q 800.6611242356494 80, 794.6611242356494 100" stroke="black" fill="none" marker-end="url(#arrowhead)"/>
<path d="M 818.6611242356494 100 Q 806.6611242356494 80, 794.6611242356494 100" stroke="black" fill="none" marker-end="url(#arrowhead)"/>
<path d="M 818.6611242356494 100 Q 812.6611242356494 80, 806.6611242356494 100" stroke="black" fill="none" marker-end="url(#arrowhead)"/>
<path d="M 830.6611242356494 100 Q 824.6611242356494 80, 818.6611242356494 100" stroke="black" fill="none" marker-end="url(#arrowhead)"/>
<path d="M 850.8756511708899 100 Q 840.7683877032696 80, 830.6611242356494 100" stroke="black" fill="none" marker-end="url(#arrowhead)"/>
<path d="M 879.7702816346653 100 Q 865.3229664027776 80, 850.8756511708899 100" stroke="black" fill="none" marker-end="url(#arrowhead)"/>
<path d="M 879.7702816346653 100 Q 709.5268099545282 80, 539.2833382743911 100" stroke="black" fill="none" marker-end="url(#arrowhead)"/>
<path d="M 901.3473321525472 100 Q 890.5588068936063 80, 879.7702816346653 100" stroke="black" fill="none" marker-end="url(#arrowhead)"/>
<path d="M 913.3473321525472 100 Q 907.3473321525472 80, 901.3473321525472 100" stroke="black" fill="none" marker-end="url(#arrowhead)"/>
<path d="M 925.3473321525472 100 Q 919.3473321525472 80, 913.3473321525472 100" stroke="black" fill="none" marker-end="url(#arrowhead)"/>
<path d="M 937.3473321525472 100 Q 931.3473321525472 80, 925.3473321525472 100" stroke="black" fill="none" marker-end="url(#arrowhead)"/>
<path d="M 949.3473321525472 100 Q 943.3473321525472 80, 937.3473321525472 100" stroke="black" fill="none" marker-end="url(#arrowhead)"/>
<path d="M 961.3473321525472 100 Q 937.3473321525472 80, 913.3473321525472 100" stroke="black" fill="none" marker-end="url(#arrowhead)"/>
<path d="M 973.3473321525472 100 Q 961.3473321525472 80, 949.3473321525472 100" stroke="black" fill="none" marker-end="url(#arrowhead)"/>
<path d="M 973.3473321525472 100 Q 943.3473321525472 80, 913.3473321525472 100" stroke="black" fill="none" marker-end="url(#arrowhead)"/>
<path d="M 985.3473321525472 100 Q 973.3473321525472 80, 961.3473321525472 100" stroke="black" fill="none" marker-end="url(#arrowhead)"/>
<path d="M 997.3473321525472 100 Q 991.3473321525472 80, 985.3473321525472 100" stroke="black" fill="none" marker-end="url(#arrowhead)"/>
<path d="M 1009.3473321525472 100 Q 991.3473321525472 80, 973.3473321525472 100" stroke="black" fill="none" marker-end="url(#arrowhead)"/>

<defs>
  <marker id="arrowhead" markerWidth="5" markerHeight="5" 
          refX="2" refY="2" orient="auto" fill="black">
    <path d="M0,0 L0,4 L4,2 z" />
  </marker>
</defs>

<circle cx="50.0" cy="100" r="6" fill="none" stroke="blue" stroke-width="2" />
<circle cx="50.0" cy="100" r="3" fill="blue" />
<circle cx="62.0" cy="100" r="4" fill="black" />
<circle cx="74.0" cy="100" r="6" fill="none" stroke="black" stroke-width="2" />
<circle cx="74.0" cy="100" r="3" fill="black" />
<circle cx="86.0" cy="100" r="4" fill="black" />
<circle cx="98.0" cy="100" r="4" fill="black" />
<circle cx="110.0" cy="100" r="6" fill="none" stroke="red" stroke-width="2" />
<circle cx="110.0" cy="100" r="3" fill="red" />
<circle cx="122.0" cy="100" r="4" fill="black" />
<circle cx="134.0" cy="100" r="4" fill="black" />
<circle cx="146.0" cy="100" r="4" fill="black" />
<circle cx="158.0" cy="100" r="6" fill="none" stroke="green" stroke-width="2" />
<circle cx="158.0" cy="100" r="3" fill="green" />
<circle cx="170.0" cy="100" r="6" fill="none" stroke="black" stroke-width="2" />
<circle cx="170.0" cy="100" r="3" fill="black" />
<circle cx="208.75511807720494" cy="100" r="6" fill="none" stroke="blue" stroke-width="2" />
<circle cx="208.75511807720494" cy="100" r="3" fill="blue" />
<circle cx="302.1877061413548" cy="100" r="4" fill="red" />
<circle cx="314.1877061413548" cy="100" r="6" fill="none" stroke="black" stroke-width="2" />
<circle cx="314.1877061413548" cy="100" r="3" fill="black" />
<circle cx="326.1877061413548" cy="100" r="4" fill="black" />
<circle cx="361.93931311131513" cy="100" r="6" fill="none" stroke="blue" stroke-width="2" />
<circle cx="361.93931311131513" cy="100" r="3" fill="blue" />
<circle cx="378.25631899356705" cy="100" r="4" fill="red" />
<circle cx="390.25631899356705" cy="100" r="6" fill="none" stroke="red" stroke-width="2" />
<circle cx="390.25631899356705" cy="100" r="3" fill="red" />
<circle cx="402.25631899356705" cy="100" r="4" fill="black" />
<circle cx="414.25631899356705" cy="100" r="6" fill="none" stroke="blue" stroke-width="2" />
<circle cx="414.25631899356705" cy="100" r="3" fill="blue" />
<circle cx="539.2833382743911" cy="100" r="6" fill="none" stroke="blue" stroke-width="2" />
<circle cx="539.2833382743911" cy="100" r="3" fill="blue" />
<circle cx="665.3396899831102" cy="100" r="4" fill="red" />
<circle cx="677.3396899831102" cy="100" r="4" fill="black" />
<circle cx="689.3396899831102" cy="100" r="4" fill="black" />
<circle cx="701.3396899831102" cy="100" r="6" fill="none" stroke="red" stroke-width="2" />
<circle cx="701.3396899831102" cy="100" r="3" fill="red" />
<circle cx="713.3396899831102" cy="100" r="6" fill="none" stroke="blue" stroke-width="2" />
<circle cx="713.3396899831102" cy="100" r="3" fill="blue" />
<circle cx="782.6611242356494" cy="100" r="6" fill="none" stroke="blue" stroke-width="2" />
<circle cx="782.6611242356494" cy="100" r="3" fill="blue" />
<circle cx="794.6611242356494" cy="100" r="4" fill="red" />
<circle cx="806.6611242356494" cy="100" r="6" fill="none" stroke="blue" stroke-width="2" />
<circle cx="806.6611242356494" cy="100" r="3" fill="blue" />
<circle cx="818.6611242356494" cy="100" r="4" fill="black" />
<circle cx="830.6611242356494" cy="100" r="6" fill="none" stroke="blue" stroke-width="2" />
<circle cx="830.6611242356494" cy="100" r="3" fill="blue" />
<circle cx="850.8756511708899" cy="100" r="6" fill="none" stroke="blue" stroke-width="2" />
<circle cx="850.8756511708899" cy="100" r="3" fill="blue" />
<circle cx="879.7702816346653" cy="100" r="6" fill="none" stroke="blue" stroke-width="2" />
<circle cx="879.7702816346653" cy="100" r="3" fill="blue" />
<circle cx="901.3473321525472" cy="100" r="4" fill="red" />
<circle cx="913.3473321525472" cy="100" r="4" fill="blue" />
<circle cx="925.3473321525472" cy="100" r="4" fill="black" />
<circle cx="937.3473321525472" cy="100" r="4" fill="black" />
<circle cx="949.3473321525472" cy="100" r="4" fill="green" />
<circle cx="961.3473321525472" cy="100" r="6" fill="none" stroke="black" stroke-width="2" />
<circle cx="961.3473321525472" cy="100" r="3" fill="black" />
<circle cx="973.3473321525472" cy="100" r="6" fill="none" stroke="blue" stroke-width="2" />
<circle cx="973.3473321525472" cy="100" r="3" fill="blue" />
<circle cx="985.3473321525472" cy="100" r="4" fill="black" />
<circle cx="997.3473321525472" cy="100" r="6" fill="none" stroke="green" stroke-width="2" />
<circle cx="997.3473321525472" cy="100" r="3" fill="green" />
<circle cx="1009.3473321525472" cy="100" r="6" fill="none" stroke="blue" stroke-width="2" />
<circle cx="1009.3473321525472" cy="100" r="3" fill="blue" />
<text x="50" y="125" fill="gray" style="font-size:12px;">2024-02-21T06:48:45+00:00</text>
<text x="900" y="125" fill="gray" style="font-size:12px;">2025-02-25T06:29:24+00:00</text>
</svg>