<svg xmlns="http://www.w3.org/2000/svg" width="1000" height="400" style="background-color: white; font-family: sans-serif;">
<line x1="50" y1="200" x2="950" y2="200" stroke="gray" stroke-width="1"/>
<path d="M 62.0 200 Q 56.0 180, 50.0 200" stroke="black" fill="none" marker-end="url(#arrowhead)"/>
<path d="M 74.0 200 Q 68.0 180, 62.0 200" stroke="black" fill="none" marker-end="url(#arrowhead)"/>
<path d="M 86.0 200 Q 68.0 180, 50.0 200" stroke="black" fill="none" marker-end="url(#arrowhead)"/>
<path d="M 86.0 200 Q 74.0 180, 62.0 200" stroke="black" fill="none" marker-end="url(#arrowhead)"/>
<path d="M 110.0 200 Q 104.0 180, 98.0 200" stroke="black" fill="none" marker-end="url(#arrowhead)"/>
<path d="M 122.0 200 Q 110.0 180, 98.0 200" stroke="black" fill="none" marker-end="url(#arrowhead)"/>
<path d="M 122.0 200 Q 116.0 180, 110.0 200" stroke="black" fill="none" marker-end="url(#arrowhead)"/>
<path d="M 134.0 200 Q 122.0 180, 110.0 200" stroke="black" fill="none" marker-end="url(#arrowhead)"/>
<path d="M 134.0 200 Q 128.0 180, 122.0 200" stroke="black" fill="none" marker-end="url(#arrowhead)"/>
<path d="M 146.0 200 Q 116.0 180, 86.0 200" stroke="black" fill="none" marker-end="url(#arrowhead)"/>
<path d="M 158.0 200 Q 146.0 180, 134.0 200" stroke="black" fill="none" marker-end="url(#arrowhead)"/>
<path d="M 170.0 200 Q 158.0 180, 146.0 200" stroke="black" fill="none" marker-end="url(#arrowhead)"/>
<path d="M 208.75511807720494 200 Q 189.37755903860247 180, 170.0 200" stroke="black" fill="none" marker-end="url(#arrowhead)"/>
<path d="M 302.1877061413548 200 Q 255.47141210927987 180, 208.75511807720494 200" stroke="black" fill="none" marker-end="url(#arrowhead)"/>
<path d="M 314.1877061413548 200 Q 308.1877061413548 180, 302.1877061413548 200" stroke="black" fill="none" marker-end="url(#arrowhead)"/>
<path d="M 326.1877061413548 200 Q 320.1877061413548 180, 314.1877061413548 200" stroke="black" fill="none" marker-end="url(#arrowhead)"/>
<path d="M 361.93931311131513 200 Q 344.06350962633496 180, 326.1877061413548 200" stroke="black" fill="none" marker-end="url(#arrowhead)"/>
<path d="M 378.25631899356705 200 Q 370.0978160524411 180, 361.93931311131513 200" stroke="black" fill="none" marker-end="url(#arrowhead)"/>
<path d="M 390.25631899356705 200 Q 384.25631899356705 180, 378.25631899356705 200" stroke="black" fill="none" marker-end="url(#arrowhead)"/>
<path d="M 402.25631899356705 200 Q 396.25631899356705 180, 390.25631899356705 200" stroke="black" fill="none" marker-end="url(#arrowhead)"/>
<path d="M 414.25631899356705 200 Q 408.25631899356705 180, 402.25631899356705 200" stroke="black" fill="none" marker-end="url(#arrowhead)"/>
<path d="M 539.2833382743911 200 Q 476.76982863397905 180, 414.25631899356705 200" stroke="black" fill="none" marker-end="url(#arrowhead)"/>
<path d="M 665.3396899831102 200 Q 602.3115141287507 180, 539.2833382743911 200" stroke="black" fill="none" marker-end="url(#arrowhead)"/>
<path d="M 677.3396899831102 200 Q 671.3396899831102 180, 665.3396899831102 200" stroke="black" fill="none" marker-end="url(#arrowhead)"/>
<path d="M 689.3396899831102 200 Q 683.3396899831102 180, 677.3396899831102 200" stroke="black" fill="none" marker-end="url(#arrowhead)"/>
<path d="M 701.3396899831102 200 Q 683.3396899831102 180, 665.3396899831102 200" stroke="black" fill="none" marker-end="url(#arrowhead)"/>
<path d="M 701.3396899831102 200 Q 695.3396899831102 180, 689.3396899831102 200" stroke="black" fill="none" marker-end="url(#arrowhead)"/>
<path d="M 713.3396899831102 200 Q 707.3396899831102 180, 701.3396899831102 200" stroke="black" fill="none" marker-end="url(#arrowhead)"/>
<path d="M 782.6611242356494 200 Q 748.0004071093798 180, 713.3396899831102 200" stroke="black" fill="none" marker-end="url(#arrowhead)"/>
<path d="M 794.6611242356494 200 Q 788.6611242356494 180, 782.6611242356494 200" stroke="black" fill="none" marker-end="url(#arrowhead)"/>
<path d="M 806.6611242356494 200 Q 800.6611242356494 180, 794.6611242356494 200" stroke="black" fill="none" marker-end="url(#arrowhead)"/>
<path d="M 818.6611242356494 200 Q 806.6611242356494 180, 794.6611242356494 200" stroke="black" fill="none" marker-end="url(#arrowhead)"/>
<path d="M 818.6611242356494 200 Q 812.6611242356494 180, 806.6611242356494 200" stroke="black" fill="none" marker-end="url(#arrowhead)"/>
<path d="M 830.6611242356494 200 Q 824.6611242356494 180, 818.6611242356494 200" stroke="black" fill="none" marker-end="url(#arrowhead)"/>
<path d="M 850.8756511708899 200 Q 840.7683877032696 180, 830.6611242356494 200" stroke="black" fill="none" marker-end="url(#arrowhead)"/>
<path d="M 879.7702816346653 200 Q 865.3229664027776 180, 850.8756511708899 200" stroke="black" fill="none" marker-end="url(#arrowhead)"/>
<path d="M 879.7702816346653 200 Q 709.5268099545282 180, 539.2833382743911 200" stroke="black" fill="none" marker-end="url(#arrowhead)"/>
<path d="M 901.3473321525472 200 Q 890.5588068936063 180, 879.7702816346653 200" stroke="black" fill="none" marker-end="url(#arrowhead)"/>
<path d="M 913.3473321525472 200 Q 907.3473321525472 180, 901.3473321525472 200" stroke="black" fill="none" marker-end="url(#arrowhead)"/>
<path d="M 925.3473321525472 200 Q 919.3473321525472 180, 913.3473321525472 200" stroke="black" fill="none" marker-end="url(#arrowhead)"/>
<path d="M 937.3473321525472 200 Q 931.3473321525472 180, 925.3473321525472 200" stroke="black" fill="none" marker-end="url(#arrowhead)"/>
<path d="M 949.3473321525472 200 Q 943.3473321525472 180, 937.3473321525472 200" stroke="black" fill="none" marker-end="url(#arrowhead)"/>
<path d="M 961.3473321525472 200 Q 937.3473321525472 180, 913.3473321525472 200" stroke="black" fill="none" marker-end="url(#arrowhead)"/>
<path d="M 973.3473321525472 200 Q 961.3473321525472 180, 949.3473321525472 200" stroke="black" fill="none" marker-end="url(#arrowhead)"/>
<path d="M 973.3473321525472 200 Q 943.3473321525472 180, 913.3473321525472 200" stroke="black" fill="none" marker-end="url(#arrowhead)"/>
<path d="M 985.3473321525472 200 Q 973.3473321525472 180, 961.3473321525472 200" stroke="black" fill="none" marker-end="url(#arrowhead)"/>
<path d="M 997.3473321525472 200 Q 991.3473321525472 180, 985.3473321525472 200" stroke="black" fill="none" marker-end="url(#arrowhead)"/>
<path d="M 1009.3473321525472 200 Q 991.3473321525472 180, 973.3473321525472 200" stroke="black" fill="none" marker-end="url(#arrowhead)"/>

<defs>
  <marker id="arrowhead" markerWidth="5" markerHeight="5" 
          refX="2" refY="2" orient="auto" fill="black">
    <path d="M0,0 L0,4 L4,2 z" />
  </marker>
</defs>

<circle cx="50.0" cy="200" r="6" fill="none" stroke="blue" stroke-width="2" />
<circle cx="50.0" cy="200" r="3" fill="blue" />
<circle cx="62.0" cy="200" r="4" fill="black" />
<circle cx="74.0" cy="200" r="6" fill="none" stroke="black" stroke-width="2" />
<circle cx="74.0" cy="200" r="3" fill="black" />
<circle cx="86.0" cy="200" r="4" fill="black" />
<circle cx="98.0" cy="200" r="4" fill="black" />
<circle cx="110.0" cy="200" r="6" fill="none" stroke="red" stroke-width="2" />
<circle cx="110.0" cy="200" r="3" fill="red" />
<circle cx="122.0" cy="200" r="4" fill="black" />
<circle cx="134.0" cy="200" r="4" fill="black" />
<circle cx="146.0" cy="200" r="4" fill="black" />
<circle cx="158.0" cy="200" r="6" fill="none" stroke="green" stroke-width="2" />
<circle cx="158.0" cy="200" r="3" fill="green" />
<circle cx="170.0" cy="200" r="6" fill="none" stroke="black" stroke-width="2" />
<circle cx="170.0" cy="200" r="3" fill="black" />
<circle cx="208.75511807720494" cy="200" r="6" fill="none" stroke="blue" stroke-width="2" />
<circle cx="208.75511807720494" cy="200" r="3" fill="blue" />
<circle cx="302.1877061413548" cy="200" r="4" fill="red" />
<circle cx="314.1877061413548" cy="200" r="6" fill="none" stroke="black" stroke-width="2" />
<circle cx="314.1877061413548" cy="200" r="3" fill="black" />
<circle cx="326.1877061413548" cy="200" r="4" fill="black" />
<circle cx="361.93931311131513" cy="200" r="6" fill="none" stroke="blue" stroke-width="2" />
<circle cx="361.93931311131513" cy="200" r="3" fill="blue" />
<circle cx="378.25631899356705" cy="200" r="4" fill="red" />
<circle cx="390.25631899356705" cy="200" r="6" fill="none" stroke="red" stroke-width="2" />
<circle cx="390.25631899356705" cy="200" r="3" fill="red" />
<circle cx="402.25631899356705" cy="200" r="4" fill="black" />
<circle cx="414.25631899356705" cy="200" r="6" fill="none" stroke="blue" stroke-width="2" />
<circle cx="414.25631899356705" cy="200" r="3" fill="blue" />
<circle cx="539.2833382743911" cy="200" r="6" fill="none" stroke="blue" stroke-width="2" />
<circle cx="539.2833382743911" cy="200" r="3" fill="blue" />
<circle cx="665.3396899831102" cy="200" r="4" fill="red" />
<circle cx="677.3396899831102" cy="200" r="4" fill="black" />
<circle cx="689.3396899831102" cy="200" r="4" fill="black" />
<circle cx="701.3396899831102" cy="200" r="6" fill="none" stroke="red" stroke-width="2" />
<circle cx="701.3396899831102" cy="200" r="3" fill="red" />
<circle cx="713.3396899831102" cy="200" r="6" fill="none" stroke="blue" stroke-width="2" />
<circle cx="713.3396899831102" cy="200" r="3" fill="blue" />
<circle cx="782.6611242356494" cy="200" r="6" fill="none" stroke="blue" stroke-width="2" />
<circle cx="782.6611242356494" cy="200" r="3" fill="blue" />
<circle cx="794.6611242356494" cy="200" r="4" fill="red" />
<circle cx="806.6611242356494" cy="200" r="6" fill="none" stroke="blue" stroke-width="2" />
<circle cx="806.6611242356494" cy="200" r="3" fill="blue" />
<circle cx="818.6611242356494" cy="200" r="4" fill="black" />
<circle cx="830.6611242356494" cy="200" r="6" fill="none" stroke="blue" stroke-width="2" />
<circle cx="830.6611242356494" cy="200" r="3" fill="blue" />
<circle cx="850.8756511708899" cy="200" r="6" fill="none" stroke="blue" stroke-width="2" />
<circle cx="850.8756511708899" cy="200" r="3" fill="blue" />
<circle cx="879.7702816346653" cy="200" r="6" fill="none" stroke="blue" stroke-width="2" />
<circle cx="879.7702816346653" cy="200" r="3" fill="blue" />
<circle cx="901.3473321525472" cy="200" r="4" fill="red" />
<circle cx="913.3473321525472" cy="200" r="4" fill="blue" />
<circle cx="925.3473321525472" cy="200" r="4" fill="black" />
<circle cx="937.3473321525472" cy="200" r="4" fill="black" />
<circle cx="949.3473321525472" cy="200" r="4" fill="green" />
<circle cx="961.3473321525472" cy="200" r="6" fill="none" stroke="black" stroke-width="2" />
<circle cx="961.3473321525472" cy="200" r="3" fill="black" />
<circle cx="973.3473321525472" cy="200" r="6" fill="none" stroke="blue" stroke-width="2" />
<circle cx="973.3473321525472" cy="200" r="3" fill="blue" />
<circle cx="985.3473321525472" cy="200" r="4" fill="black" />
<circle cx="997.3473321525472" cy="200" r="6" fill="none" stroke="green" stroke-width="2" />
<circle cx="997.3473321525472" cy="200" r="3" fill="green" />
<circle cx="1009.3473321525472" cy="200" r="6" fill="none" stroke="blue" stroke-width="2" />
<circle cx="1009.3473321525472" cy="200" r="3" fill="blue" />
<text x="50" y="225" fill="gray" style="font-size:12px;">2024-02-21T06:48:45+00:00</text>
<text x="900" y="225" fill="gray" style="font-size:12px;">2025-02-25T06:29:24+00:00</text>
</svg>