<svg xmlns="http://www.w3.org/2000/svg" width="1000" height="200" style="background-color: white; font-family: sans-serif;">
<line x1="50" y1="100" x2="950" y2="100" stroke="gray" stroke-width="1"/>
<path d="M 917.3878662033202 100 Q 483.6939331016601 80, 50.0 100" stroke="black" fill="none" marker-end="url(#arrowhead)"/>
<path d="M 937.8730889646788 100 Q 927.6304775839994 80, 917.3878662033202 100" stroke="black" fill="none" marker-end="url(#arrowhead)"/>
<path d="M 949.8730889646788 100 Q 943.8730889646788 80, 937.8730889646788 100" stroke="black" fill="none" marker-end="url(#arrowhead)"/>
<path d="M 961.8730889646788 100 Q 939.6304775839994 80, 917.3878662033202 100" stroke="black" fill="none" marker-end="url(#arrowhead)"/>
<path d="M 961.8730889646788 100 Q 955.8730889646788 80, 949.8730889646788 100" stroke="black" fill="none" marker-end="url(#arrowhead)"/>

<defs>
  <marker id="arrowhead" markerWidth="5" markerHeight="5" 
          refX="2" refY="2" orient="auto" fill="black">
    <path d="M0,0 L0,4 L4,2 z" />
  </marker>
</defs>

<circle cx="50.0" cy="100" r="6" fill="none" stroke="black" stroke-width="2" />
<circle cx="50.0" cy="100" r="3" fill="black" />
<circle cx="917.3878662033202" cy="100" r="4" fill="red" />
<circle cx="937.8730889646788" cy="100" r="6" fill="none" stroke="black" stroke-width="2" />
<circle cx="937.8730889646788" cy="100" r="3" fill="black" />
<circle cx="949.8730889646788" cy="100" r="4" fill="black" />
<circle cx="961.8730889646788" cy="100" r="6" fill="none" stroke="black" stroke-width="2" />
<circle cx="961.8730889646788" cy="100" r="3" fill="black" />
<text x="50" y="125" fill="gray" style="font-size:12px;">2024-10-11T14:27:09+00:00</text>
<text x="900" y="125" fill="gray" style="font-size:12px;">2024-10-16T23:32:44+00:00</text>
</svg>