<svg xmlns="http://www.w3.org/2000/svg" width="1000" height="400" style="background-color: white; font-family: sans-serif;">
<line x1="50" y1="200" x2="950" y2="200" stroke="gray" stroke-width="1"/>
<path d="M 292.2303541460858 200 Q 171.1151770730429 180, 50.0 200" stroke="black" fill="none" marker-end="url(#arrowhead)"/>
<path d="M 316.2303541460858 200 Q 310.2303541460858 180, 304.2303541460858 200" stroke="black" fill="none" marker-end="url(#arrowhead)"/>
<path d="M 328.2303541460858 200 Q 316.2303541460858 180, 304.2303541460858 200" stroke="black" fill="none" marker-end="url(#arrowhead)"/>
<path d="M 449.2535604180317 200 Q 400.89270144551153 180, 352.5318424729913 200" stroke="black" fill="none" marker-end="url(#arrowhead)"/>
<path d="M 742.3234871702712 200 Q 547.4276648216312 180, 352.5318424729913 200" stroke="black" fill="none" marker-end="url(#arrowhead)"/>
<path d="M 864.8651610945564 200 Q 803.5943241324137 180, 742.3234871702712 200" stroke="black" fill="none" marker-end="url(#arrowhead)"/>
<path d="M 961.9209488531668 200 Q 852.122218011719 180, 742.3234871702712 200" stroke="black" fill="none" marker-end="url(#arrowhead)"/>

<defs>
  <marker id="arrowhead" markerWidth="5" markerHeight="5" 
          refX="2" refY="2" orient="auto" fill="black">
    <path d="M0,0 L0,4 L4,2 z" />
  </marker>
</defs>

<circle cx="50.0" cy="200" r="6" fill="none" stroke="blue" stroke-width="2" />
<circle cx="50.0" cy="200" r="3" fill="blue" />
<circle cx="62.0" cy="200" r="4" fill="red" />
<circle cx="74.0" cy="200" r="4" fill="red" />
<circle cx="175.37042789108693" cy="200" r="4" fill="blue" />
<circle cx="292.2303541460858" cy="200" r="4" fill="black" />
<circle cx="304.2303541460858" cy="200" r="6" fill="none" stroke="black" stroke-width="2" />
<circle cx="304.2303541460858" cy="200" r="3" fill="black" />
<circle cx="316.2303541460858" cy="200" r="4" fill="red" />
<circle cx="328.2303541460858" cy="200" r="6" fill="none" stroke="black" stroke-width="2" />
<circle cx="328.2303541460858" cy="200" r="3" fill="black" />
<circle cx="352.5318424729913" cy="200" r="4" fill="blue" />
<circle cx="449.2535604180317" cy="200" r="4" fill="red" />
<circle cx="742.3234871702712" cy="200" r="4" fill="red" />
<circle cx="864.8651610945564" cy="200" r="4" fill="black" />
<circle cx="949.9209488531668" cy="200" r="4" fill="blue" />
<circle cx="961.9209488531668" cy="200" r="4" fill="red" />
<text x="50" y="225" fill="gray" style="font-size:12px;">2023-06-30T12:26:44+00:00</text>
<text x="900" y="225" fill="gray" style="font-size:12px;">2025-02-03T12:41:15+00:00</text>
</svg>