<svg xmlns="http://www.w3.org/2000/svg" width="1000" height="400" style="background-color: white; font-family: sans-serif;">
<line x1="50" y1="200" x2="950" y2="200" stroke="gray" stroke-width="1"/>
<path d="M 917.3878662033202 200 Q 483.6939331016601 180, 50.0 200" stroke="black" fill="none" marker-end="url(#arrowhead)"/>
<path d="M 937.8730889646788 200 Q 927.6304775839994 180, 917.3878662033202 200" stroke="black" fill="none" marker-end="url(#arrowhead)"/>
<path d="M 949.8730889646788 200 Q 943.8730889646788 180, 937.8730889646788 200" stroke="black" fill="none" marker-end="url(#arrowhead)"/>
<path d="M 961.8730889646788 200 Q 939.6304775839994 180, 917.3878662033202 200" stroke="black" fill="none" marker-end="url(#arrowhead)"/>
<path d="M 961.8730889646788 200 Q 955.8730889646788 180, 949.8730889646788 200" stroke="black" fill="none" marker-end="url(#arrowhead)"/>

<defs>
  <marker id="arrowhead" markerWidth="5" markerHeight="5" 
          refX="2" refY="2" orient="auto" fill="black">
    <path d="M0,0 L0,4 L4,2 z" />
  </marker>
</defs>

<circle cx="50.0" cy="200" r="6" fill="none" stroke="black" stroke-width="2" />
<circle cx="50.0" cy="200" r="3" fill="black" />
<circle cx="917.3878662033202" cy="200" r="4" fill="red" />
<circle cx="937.8730889646788" cy="200" r="6" fill="none" stroke="black" stroke-width="2" />
<circle cx="937.8730889646788" cy="200" r="3" fill="black" />
<circle cx="949.8730889646788" cy="200" r="4" fill="black" />
<circle cx="961.8730889646788" cy="200" r="6" fill="none" stroke="black" stroke-width="2" />
<circle cx="961.8730889646788" cy="200" r="3" fill="black" />
<text x="50" y="225" fill="gray" style="font-size:12px;">2024-10-11T14:27:09+00:00</text>
<text x="900" y="225" fill="gray" style="font-size:12px;">2024-10-16T23:32:44+00:00</text>
</svg>