<svg xmlns="http://www.w3.org/2000/svg" width="1000" height="200" style="background-color: white; font-family: sans-serif;">
<line x1="50" y1="100" x2="950" y2="100" stroke="gray" stroke-width="1"/>
<path d="M 62.0 100 Q 56.0 80, 50.0 100" stroke="black" fill="none" marker-end="url(#arrowhead)"/>
<path d="M 86.0 100 Q 68.0 80, 50.0 100" stroke="black" fill="none" marker-end="url(#arrowhead)"/>
<path d="M 98.0 100 Q 92.0 80, 86.0 100" stroke="black" fill="none" marker-end="url(#arrowhead)"/>
<path d="M 110.0 100 Q 104.0 80, 98.0 100" stroke="black" fill="none" marker-end="url(#arrowhead)"/>
<path d="M 400.0292613555427 100 Q 225.01463067777135 80, 50.0 100" stroke="black" fill="none" marker-end="url(#arrowhead)"/>
<path d="M 480.5914541579445 100 Q 440.3103577567436 80, 400.0292613555427 100" stroke="black" fill="none" marker-end="url(#arrowhead)"/>
<path d="M 492.5914541579445 100 Q 446.3103577567436 80, 400.0292613555427 100" stroke="black" fill="none" marker-end="url(#arrowhead)"/>
<path d="M 492.5914541579445 100 Q 486.5914541579445 80, 480.5914541579445 100" stroke="black" fill="none" marker-end="url(#arrowhead)"/>
<path d="M 504.5914541579445 100 Q 498.5914541579445 80, 492.5914541579445 100" stroke="black" fill="none" marker-end="url(#arrowhead)"/>
<path d="M 516.5914541579446 100 Q 504.59145415794455 80, 492.5914541579445 100" stroke="black" fill="none" marker-end="url(#arrowhead)"/>
<path d="M 960.319613027688 100 Q 720.4555335928162 80, 480.5914541579445 100" stroke="black" fill="none" marker-end="url(#arrowhead)"/>
<path d="M 960.319613027688 100 Q 954.319613027688 80, 948.319613027688 100" stroke="black" fill="none" marker-end="url(#arrowhead)"/>

<defs>
  <marker id="arrowhead" markerWidth="5" markerHeight="5" 
          refX="2" refY="2" orient="auto" fill="black">
    <path d="M0,0 L0,4 L4,2 z" />
  </marker>
</defs>

<circle cx="50.0" cy="100" r="6" fill="none" stroke="blue" stroke-width="2" />
<circle cx="50.0" cy="100" r="3" fill="blue" />
<circle cx="62.0" cy="100" r="4" fill="black" />
<circle cx="74.0" cy="100" r="4" fill="black" />
<circle cx="86.0" cy="100" r="4" fill="red" />
<circle cx="98.0" cy="100" r="4" fill="black" />
<circle cx="110.0" cy="100" r="6" fill="none" stroke="black" stroke-width="2" />
<circle cx="110.0" cy="100" r="3" fill="black" />
<circle cx="400.0292613555427" cy="100" r="4" fill="red" />
<circle cx="480.5914541579445" cy="100" r="6" fill="none" stroke="blue" stroke-width="2" />
<circle cx="480.5914541579445" cy="100" r="3" fill="blue" />
<circle cx="492.5914541579445" cy="100" r="4" fill="red" />
<circle cx="504.5914541579445" cy="100" r="4" fill="black" />
<circle cx="516.5914541579446" cy="100" r="6" fill="none" stroke="blue" stroke-width="2" />
<circle cx="516.5914541579446" cy="100" r="3" fill="blue" />
<circle cx="528.5914541579446" cy="100" r="6" fill="none" stroke="blue" stroke-width="2" />
<circle cx="528.5914541579446" cy="100" r="3" fill="blue" />
<circle cx="948.319613027688" cy="100" r="4" fill="black" />
<circle cx="960.319613027688" cy="100" r="6" fill="none" stroke="black" stroke-width="2" />
<circle cx="960.319613027688" cy="100" r="3" fill="black" />
<text x="50" y="125" fill="gray" style="font-size:12px;">2024-07-01T10:33:35+00:00</text>
<text x="900" y="125" fill="gray" style="font-size:12px;">2024-11-14T22:35:27+00:00</text>
</svg>