<svg xmlns="http://www.w3.org/2000/svg" width="1000" height="400" style="background-color: white; font-family: sans-serif;">
<line x1="50" y1="200" x2="950" y2="200" stroke="gray" stroke-width="1"/>
<path d="M 120.3206567675834 200 Q 85.1603283837917 180, 50.0 200" stroke="black" fill="none" marker-end="url(#arrowhead)"/>
<path d="M 139.86823712557424 200 Q 94.93411856278712 180, 50.0 200" stroke="black" fill="none" marker-end="url(#arrowhead)"/>
<path d="M 220.87394705413155 200 Q 180.37109208985288 180, 139.86823712557424 200" stroke="black" fill="none" marker-end="url(#arrowhead)"/>
<path d="M 288.9110403965376 200 Q 214.38963876105592 180, 139.86823712557424 200" stroke="black" fill="none" marker-end="url(#arrowhead)"/>
<path d="M 288.9110403965376 200 Q 254.8924937253346 180, 220.87394705413155 200" stroke="black" fill="none" marker-end="url(#arrowhead)"/>
<path d="M 949.2372482002198 200 Q 619.0741442983788 180, 288.9110403965376 200" stroke="black" fill="none" marker-end="url(#arrowhead)"/>
<path d="M 949.2372482002198 200 Q 544.552742662897 180, 139.86823712557424 200" stroke="black" fill="none" marker-end="url(#arrowhead)"/>
<path d="M 949.2372482002198 200 Q 585.0555976271756 180, 220.87394705413155 200" stroke="black" fill="none" marker-end="url(#arrowhead)"/>
<path d="M 961.2372482002198 200 Q 955.2372482002198 180, 949.2372482002198 200" stroke="black" fill="none" marker-end="url(#arrowhead)"/>
<path d="M 961.2372482002198 200 Q 550.552742662897 180, 139.86823712557424 200" stroke="black" fill="none" marker-end="url(#arrowhead)"/>
<path d="M 961.2372482002198 200 Q 591.0555976271756 180, 220.87394705413155 200" stroke="black" fill="none" marker-end="url(#arrowhead)"/>

<defs>
  <marker id="arrowhead" markerWidth="5" markerHeight="5" 
          refX="2" refY="2" orient="auto" fill="black">
    <path d="M0,0 L0,4 L4,2 z" />
  </marker>
</defs>

<circle cx="50.0" cy="200" r="6" fill="none" stroke="blue" stroke-width="2" />
<circle cx="50.0" cy="200" r="3" fill="blue" />
<circle cx="120.3206567675834" cy="200" r="6" fill="none" stroke="blue" stroke-width="2" />
<circle cx="120.3206567675834" cy="200" r="3" fill="blue" />
<circle cx="139.86823712557424" cy="200" r="4" fill="red" />
<circle cx="220.87394705413155" cy="200" r="6" fill="none" stroke="blue" stroke-width="2" />
<circle cx="220.87394705413155" cy="200" r="3" fill="blue" />
<circle cx="288.9110403965376" cy="200" r="6" fill="none" stroke="blue" stroke-width="2" />
<circle cx="288.9110403965376" cy="200" r="3" fill="blue" />
<circle cx="949.2372482002198" cy="200" r="6" fill="none" stroke="blue" stroke-width="2" />
<circle cx="949.2372482002198" cy="200" r="3" fill="blue" />
<circle cx="961.2372482002198" cy="200" r="6" fill="none" stroke="blue" stroke-width="2" />
<circle cx="961.2372482002198" cy="200" r="3" fill="blue" />
<text x="50" y="225" fill="gray" style="font-size:12px;">2024-11-14T22:13:16+00:00</text>
<text x="900" y="225" fill="gray" style="font-size:12px;">2025-01-04T23:43:05+00:00</text>
</svg>