<svg xmlns="http://www.w3.org/2000/svg" width="1000" height="400" style="background-color: white; font-family: sans-serif;">
<line x1="50" y1="200" x2="950" y2="200" stroke="gray" stroke-width="1"/>
<path d="M 62.0 200 Q 56.0 180, 50.0 200" stroke="black" fill="none" marker-end="url(#arrowhead)"/>
<path d="M 74.0 200 Q 68.0 180, 62.0 200" stroke="black" fill="none" marker-end="url(#arrowhead)"/>
<path d="M 86.0 200 Q 80.0 180, 74.0 200" stroke="black" fill="none" marker-end="url(#arrowhead)"/>
<path d="M 98.0 200 Q 92.0 180, 86.0 200" stroke="black" fill="none" marker-end="url(#arrowhead)"/>
<path d="M 110.0 200 Q 104.0 180, 98.0 200" stroke="black" fill="none" marker-end="url(#arrowhead)"/>
<path d="M 122.0 200 Q 116.0 180, 110.0 200" stroke="black" fill="none" marker-end="url(#arrowhead)"/>
<path d="M 122.0 200 Q 104.0 180, 86.0 200" stroke="black" fill="none" marker-end="url(#arrowhead)"/>
<path d="M 134.0 200 Q 110.0 180, 86.0 200" stroke="black" fill="none" marker-end="url(#arrowhead)"/>
<path d="M 146.0 200 Q 140.0 180, 134.0 200" stroke="black" fill="none" marker-end="url(#arrowhead)"/>
<path d="M 158.0 200 Q 152.0 180, 146.0 200" stroke="black" fill="none" marker-end="url(#arrowhead)"/>
<path d="M 170.0 200 Q 164.0 180, 158.0 200" stroke="black" fill="none" marker-end="url(#arrowhead)"/>
<path d="M 419.425985433582 200 Q 282.712992716791 180, 146.0 200" stroke="black" fill="none" marker-end="url(#arrowhead)"/>
<path d="M 431.425985433582 200 Q 425.425985433582 180, 419.425985433582 200" stroke="black" fill="none" marker-end="url(#arrowhead)"/>
<path d="M 431.425985433582 200 Q 282.712992716791 180, 134.0 200" stroke="black" fill="none" marker-end="url(#arrowhead)"/>
<path d="M 443.425985433582 200 Q 431.425985433582 180, 419.425985433582 200" stroke="black" fill="none" marker-end="url(#arrowhead)"/>
<path d="M 443.425985433582 200 Q 288.712992716791 180, 134.0 200" stroke="black" fill="none" marker-end="url(#arrowhead)"/>
<path d="M 455.425985433582 200 Q 449.425985433582 180, 443.425985433582 200" stroke="black" fill="none" marker-end="url(#arrowhead)"/>
<path d="M 467.425985433582 200 Q 443.425985433582 180, 419.425985433582 200" stroke="black" fill="none" marker-end="url(#arrowhead)"/>
<path d="M 479.425985433582 200 Q 473.425985433582 180, 467.425985433582 200" stroke="black" fill="none" marker-end="url(#arrowhead)"/>
<path d="M 491.425985433582 200 Q 479.425985433582 180, 467.425985433582 200" stroke="black" fill="none" marker-end="url(#arrowhead)"/>
<path d="M 503.425985433582 200 Q 497.425985433582 180, 491.425985433582 200" stroke="black" fill="none" marker-end="url(#arrowhead)"/>
<path d="M 515.425985433582 200 Q 300.712992716791 180, 86.0 200" stroke="black" fill="none" marker-end="url(#arrowhead)"/>
<path d="M 527.425985433582 200 Q 521.425985433582 180, 515.425985433582 200" stroke="black" fill="none" marker-end="url(#arrowhead)"/>
<path d="M 539.425985433582 200 Q 503.425985433582 180, 467.425985433582 200" stroke="black" fill="none" marker-end="url(#arrowhead)"/>
<path d="M 551.425985433582 200 Q 539.425985433582 180, 527.425985433582 200" stroke="black" fill="none" marker-end="url(#arrowhead)"/>
<path d="M 551.425985433582 200 Q 545.425985433582 180, 539.425985433582 200" stroke="black" fill="none" marker-end="url(#arrowhead)"/>
<path d="M 563.425985433582 200 Q 557.425985433582 180, 551.425985433582 200" stroke="black" fill="none" marker-end="url(#arrowhead)"/>
<path d="M 575.425985433582 200 Q 569.425985433582 180, 563.425985433582 200" stroke="black" fill="none" marker-end="url(#arrowhead)"/>
<path d="M 575.425985433582 200 Q 551.425985433582 180, 527.425985433582 200" stroke="black" fill="none" marker-end="url(#arrowhead)"/>
<path d="M 587.425985433582 200 Q 581.425985433582 180, 575.425985433582 200" stroke="black" fill="none" marker-end="url(#arrowhead)"/>
<path d="M 611.425985433582 200 Q 593.425985433582 180, 575.425985433582 200" stroke="black" fill="none" marker-end="url(#arrowhead)"/>
<path d="M 611.425985433582 200 Q 599.425985433582 180, 587.425985433582 200" stroke="black" fill="none" marker-end="url(#arrowhead)"/>
<path d="M 629.8100834705348 200 Q 620.6180344520584 180, 611.425985433582 200" stroke="black" fill="none" marker-end="url(#arrowhead)"/>
<path d="M 774.7027583597383 200 Q 768.7027583597383 180, 762.7027583597383 200" stroke="black" fill="none" marker-end="url(#arrowhead)"/>
<path d="M 840.5425945501868 200 Q 807.6226764549625 180, 774.7027583597383 200" stroke="black" fill="none" marker-end="url(#arrowhead)"/>
<path d="M 852.5425945501868 200 Q 846.5425945501868 180, 840.5425945501868 200" stroke="black" fill="none" marker-end="url(#arrowhead)"/>
<path d="M 852.5425945501868 200 Q 511.2712972750934 180, 170.0 200" stroke="black" fill="none" marker-end="url(#arrowhead)"/>
<path d="M 864.5425945501868 200 Q 852.5425945501868 180, 840.5425945501868 200" stroke="black" fill="none" marker-end="url(#arrowhead)"/>
<path d="M 876.5425945501868 200 Q 870.5425945501868 180, 864.5425945501868 200" stroke="black" fill="none" marker-end="url(#arrowhead)"/>
<path d="M 888.5425945501868 200 Q 864.5425945501868 180, 840.5425945501868 200" stroke="black" fill="none" marker-end="url(#arrowhead)"/>
<path d="M 888.5425945501868 200 Q 870.5425945501868 180, 852.5425945501868 200" stroke="black" fill="none" marker-end="url(#arrowhead)"/>
<path d="M 900.5425945501868 200 Q 894.5425945501868 180, 888.5425945501868 200" stroke="black" fill="none" marker-end="url(#arrowhead)"/>
<path d="M 912.5425945501868 200 Q 876.5425945501868 180, 840.5425945501868 200" stroke="black" fill="none" marker-end="url(#arrowhead)"/>
<path d="M 924.5425945501868 200 Q 918.5425945501868 180, 912.5425945501868 200" stroke="black" fill="none" marker-end="url(#arrowhead)"/>
<path d="M 936.5425945501868 200 Q 906.5425945501868 180, 876.5425945501868 200" stroke="black" fill="none" marker-end="url(#arrowhead)"/>
<path d="M 948.5425945501868 200 Q 930.5425945501868 180, 912.5425945501868 200" stroke="black" fill="none" marker-end="url(#arrowhead)"/>
<path d="M 960.5425945501868 200 Q 954.5425945501868 180, 948.5425945501868 200" stroke="black" fill="none" marker-end="url(#arrowhead)"/>
<path d="M 972.5425945501868 200 Q 960.5425945501868 180, 948.5425945501868 200" stroke="black" fill="none" marker-end="url(#arrowhead)"/>
<path d="M 972.5425945501868 200 Q 966.5425945501868 180, 960.5425945501868 200" stroke="black" fill="none" marker-end="url(#arrowhead)"/>
<path d="M 972.5425945501868 200 Q 906.5425945501868 180, 840.5425945501868 200" stroke="black" fill="none" marker-end="url(#arrowhead)"/>
<path d="M 972.5425945501868 200 Q 942.5425945501868 180, 912.5425945501868 200" stroke="black" fill="none" marker-end="url(#arrowhead)"/>
<path d="M 984.5425945501868 200 Q 960.5425945501868 180, 936.5425945501868 200" stroke="black" fill="none" marker-end="url(#arrowhead)"/>
<path d="M 984.5425945501868 200 Q 559.2712972750934 180, 134.0 200" stroke="black" fill="none" marker-end="url(#arrowhead)"/>
<path d="M 996.5425945501868 200 Q 990.5425945501868 180, 984.5425945501868 200" stroke="black" fill="none" marker-end="url(#arrowhead)"/>
<path d="M 1008.5425945501868 200 Q 1002.5425945501868 180, 996.5425945501868 200" stroke="black" fill="none" marker-end="url(#arrowhead)"/>
<path d="M 1020.5425945501868 200 Q 1014.5425945501868 180, 1008.5425945501868 200" stroke="black" fill="none" marker-end="url(#arrowhead)"/>
<path d="M 1032.5425945501868 200 Q 1026.5425945501868 180, 1020.5425945501868 200" stroke="black" fill="none" marker-end="url(#arrowhead)"/>
<path d="M 1044.5425945501868 200 Q 589.2712972750934 180, 134.0 200" stroke="black" fill="none" marker-end="url(#arrowhead)"/>
<path d="M 1044.5425945501868 200 Q 1038.5425945501868 180, 1032.5425945501868 200" stroke="black" fill="none" marker-end="url(#arrowhead)"/>
<path d="M 1056.5425945501868 200 Q 1026.5425945501868 180, 996.5425945501868 200" stroke="black" fill="none" marker-end="url(#arrowhead)"/>
<path d="M 1068.5425945501868 200 Q 1062.5425945501868 180, 1056.5425945501868 200" stroke="black" fill="none" marker-end="url(#arrowhead)"/>
<path d="M 1080.5425945501868 200 Q 1074.5425945501868 180, 1068.5425945501868 200" stroke="black" fill="none" marker-end="url(#arrowhead)"/>
<path d="M 1092.5425945501868 200 Q 1086.5425945501868 180, 1080.5425945501868 200" stroke="black" fill="none" marker-end="url(#arrowhead)"/>
<path d="M 1092.5425945501868 200 Q 1056.5425945501868 180, 1020.5425945501868 200" stroke="black" fill="none" marker-end="url(#arrowhead)"/>
<path d="M 1116.5425945501868 200 Q 1110.5425945501868 180, 1104.5425945501868 200" stroke="black" fill="none" marker-end="url(#arrowhead)"/>
<path d="M 1128.5425945501868 200 Q 631.2712972750934 180, 134.0 200" stroke="black" fill="none" marker-end="url(#arrowhead)"/>
<path d="M 1128.5425945501868 200 Q 1122.5425945501868 180, 1116.5425945501868 200" stroke="black" fill="none" marker-end="url(#arrowhead)"/>
<path d="M 1140.5425945501868 200 Q 1068.5425945501868 180, 996.5425945501868 200" stroke="black" fill="none" marker-end="url(#arrowhead)"/>
<path d="M 1152.5425945501868 200 Q 1074.5425945501868 180, 996.5425945501868 200" stroke="black" fill="none" marker-end="url(#arrowhead)"/>
<path d="M 1164.5425945501868 200 Q 1158.5425945501868 180, 1152.5425945501868 200" stroke="black" fill="none" marker-end="url(#arrowhead)"/>
<path d="M 1164.5425945501868 200 Q 649.2712972750934 180, 134.0 200" stroke="black" fill="none" marker-end="url(#arrowhead)"/>
<path d="M 1176.5425945501868 200 Q 1170.5425945501868 180, 1164.5425945501868 200" stroke="black" fill="none" marker-end="url(#arrowhead)"/>

<defs>
  <marker id="arrowhead" markerWidth="5" markerHeight="5" 
          refX="2" refY="2" orient="auto" fill="black">
    <path d="M0,0 L0,4 L4,2 z" />
  </marker>
</defs>

<circle cx="50.0" cy="200" r="6" fill="none" stroke="black" stroke-width="2" />
<circle cx="50.0" cy="200" r="3" fill="black" />
<circle cx="62.0" cy="200" r="4" fill="black" />
<circle cx="74.0" cy="200" r="6" fill="none" stroke="black" stroke-width="2" />
<circle cx="74.0" cy="200" r="3" fill="black" />
<circle cx="86.0" cy="200" r="4" fill="black" />
<circle cx="98.0" cy="200" r="6" fill="none" stroke="black" stroke-width="2" />
<circle cx="98.0" cy="200" r="3" fill="black" />
<circle cx="110.0" cy="200" r="4" fill="black" />
<circle cx="122.0" cy="200" r="4" fill="black" />
<circle cx="134.0" cy="200" r="4" fill="black" />
<circle cx="146.0" cy="200" r="4" fill="black" />
<circle cx="158.0" cy="200" r="4" fill="black" />
<circle cx="170.0" cy="200" r="4" fill="black" />
<circle cx="419.425985433582" cy="200" r="4" fill="blue" />
<circle cx="431.425985433582" cy="200" r="4" fill="blue" />
<circle cx="443.425985433582" cy="200" r="4" fill="black" />
<circle cx="455.425985433582" cy="200" r="4" fill="black" />
<circle cx="467.425985433582" cy="200" r="4" fill="red" />
<circle cx="479.425985433582" cy="200" r="6" fill="none" stroke="black" stroke-width="2" />
<circle cx="479.425985433582" cy="200" r="3" fill="black" />
<circle cx="491.425985433582" cy="200" r="4" fill="black" />
<circle cx="503.425985433582" cy="200" r="4" fill="black" />
<circle cx="515.425985433582" cy="200" r="4" fill="black" />
<circle cx="527.425985433582" cy="200" r="4" fill="black" />
<circle cx="539.425985433582" cy="200" r="4" fill="black" />
<circle cx="551.425985433582" cy="200" r="4" fill="red" />
<circle cx="563.425985433582" cy="200" r="4" fill="blue" />
<circle cx="575.425985433582" cy="200" r="4" fill="blue" />
<circle cx="587.425985433582" cy="200" r="4" fill="blue" />
<circle cx="599.425985433582" cy="200" r="4" fill="blue" />
<circle cx="611.425985433582" cy="200" r="4" fill="black" />
<circle cx="629.8100834705348" cy="200" r="4" fill="blue" />
<circle cx="762.7027583597383" cy="200" r="4" fill="blue" />
<circle cx="774.7027583597383" cy="200" r="4" fill="blue" />
<circle cx="840.5425945501868" cy="200" r="4" fill="blue" />
<circle cx="852.5425945501868" cy="200" r="6" fill="none" stroke="black" stroke-width="2" />
<circle cx="852.5425945501868" cy="200" r="3" fill="black" />
<circle cx="864.5425945501868" cy="200" r="4" fill="black" />
<circle cx="876.5425945501868" cy="200" r="4" fill="blue" />
<circle cx="888.5425945501868" cy="200" r="4" fill="black" />
<circle cx="900.5425945501868" cy="200" r="4" fill="black" />
<circle cx="912.5425945501868" cy="200" r="4" fill="black" />
<circle cx="924.5425945501868" cy="200" r="4" fill="black" />
<circle cx="936.5425945501868" cy="200" r="4" fill="blue" />
<circle cx="948.5425945501868" cy="200" r="4" fill="black" />
<circle cx="960.5425945501868" cy="200" r="4" fill="black" />
<circle cx="972.5425945501868" cy="200" r="4" fill="black" />
<circle cx="984.5425945501868" cy="200" r="4" fill="black" />
<circle cx="996.5425945501868" cy="200" r="4" fill="black" />
<circle cx="1008.5425945501868" cy="200" r="4" fill="blue" />
<circle cx="1020.5425945501868" cy="200" r="4" fill="black" />
<circle cx="1032.5425945501868" cy="200" r="4" fill="black" />
<circle cx="1044.5425945501868" cy="200" r="4" fill="green" />
<circle cx="1056.5425945501868" cy="200" r="4" fill="red" />
<circle cx="1068.5425945501868" cy="200" r="4" fill="black" />
<circle cx="1080.5425945501868" cy="200" r="4" fill="red" />
<circle cx="1092.5425945501868" cy="200" r="4" fill="black" />
<circle cx="1104.5425945501868" cy="200" r="4" fill="red" />
<circle cx="1116.5425945501868" cy="200" r="4" fill="red" />
<circle cx="1128.5425945501868" cy="200" r="4" fill="blue" />
<circle cx="1140.5425945501868" cy="200" r="4" fill="black" />
<circle cx="1152.5425945501868" cy="200" r="4" fill="blue" />
<circle cx="1164.5425945501868" cy="200" r="4" fill="blue" />
<circle cx="1176.5425945501868" cy="200" r="4" fill="blue" />
<text x="50" y="225" fill="gray" style="font-size:12px;">2024-01-30T08:01:57+00:00</text>
<text x="900" y="225" fill="gray" style="font-size:12px;">2025-02-26T08:48:08+00:00</text>
</svg>