<svg xmlns="http://www.w3.org/2000/svg" width="1000" height="200" style="background-color: white; font-family: sans-serif;">
<line x1="50" y1="100" x2="950" y2="100" stroke="gray" stroke-width="1"/>
<path d="M 62.0 100 Q 56.0 80, 50.0 100" stroke="black" fill="none" marker-end="url(#arrowhead)"/>
<path d="M 74.0 100 Q 62.0 80, 50.0 100" stroke="black" fill="none" marker-end="url(#arrowhead)"/>
<path d="M 74.0 100 Q 68.0 80, 62.0 100" stroke="black" fill="none" marker-end="url(#arrowhead)"/>
<path d="M 86.0 100 Q 80.0 80, 74.0 100" stroke="black" fill="none" marker-end="url(#arrowhead)"/>
<path d="M 98.0 100 Q 92.0 80, 86.0 100" stroke="black" fill="none" marker-end="url(#arrowhead)"/>
<path d="M 98.0 100 Q 86.0 80, 74.0 100" stroke="black" fill="none" marker-end="url(#arrowhead)"/>
<path d="M 122.0 100 Q 116.0 80, 110.0 100" stroke="black" fill="none" marker-end="url(#arrowhead)"/>
<path d="M 334.83536954909493 100 Q 192.41768477454747 80, 50.0 100" stroke="black" fill="none" marker-end="url(#arrowhead)"/>
<path d="M 949.8575982189948 100 Q 915.0409932195439 80, 880.224388220093 100" stroke="black" fill="none" marker-end="url(#arrowhead)"/>
<path d="M 961.8575982189948 100 Q 955.8575982189948 80, 949.8575982189948 100" stroke="black" fill="none" marker-end="url(#arrowhead)"/>

<defs>
  <marker id="arrowhead" markerWidth="5" markerHeight="5" 
          refX="2" refY="2" orient="auto" fill="black">
    <path d="M0,0 L0,4 L4,2 z" />
  </marker>
</defs>

<circle cx="50.0" cy="100" r="6" fill="none" stroke="blue" stroke-width="2" />
<circle cx="50.0" cy="100" r="3" fill="blue" />
<circle cx="62.0" cy="100" r="4" fill="red" />
<circle cx="74.0" cy="100" r="6" fill="none" stroke="black" stroke-width="2" />
<circle cx="74.0" cy="100" r="3" fill="black" />
<circle cx="86.0" cy="100" r="4" fill="black" />
<circle cx="98.0" cy="100" r="6" fill="none" stroke="black" stroke-width="2" />
<circle cx="98.0" cy="100" r="3" fill="black" />
<circle cx="110.0" cy="100" r="4" fill="black" />
<circle cx="122.0" cy="100" r="6" fill="none" stroke="black" stroke-width="2" />
<circle cx="122.0" cy="100" r="3" fill="black" />
<circle cx="334.83536954909493" cy="100" r="6" fill="none" stroke="blue" stroke-width="2" />
<circle cx="334.83536954909493" cy="100" r="3" fill="blue" />
<circle cx="512.8822565184439" cy="100" r="6" fill="none" stroke="blue" stroke-width="2" />
<circle cx="512.8822565184439" cy="100" r="3" fill="blue" />
<circle cx="790.8334903824905" cy="100" r="6" fill="none" stroke="blue" stroke-width="2" />
<circle cx="790.8334903824905" cy="100" r="3" fill="blue" />
<circle cx="880.224388220093" cy="100" r="6" fill="none" stroke="blue" stroke-width="2" />
<circle cx="880.224388220093" cy="100" r="3" fill="blue" />
<circle cx="949.8575982189948" cy="100" r="4" fill="red" />
<circle cx="961.8575982189948" cy="100" r="6" fill="none" stroke="green" stroke-width="2" />
<circle cx="961.8575982189948" cy="100" r="3" fill="green" />
<text x="50" y="125" fill="gray" style="font-size:12px;">2024-06-16T14:11:22+00:00</text>
<text x="900" y="125" fill="gray" style="font-size:12px;">2025-02-27T16:31:52+00:00</text>
</svg>