<svg xmlns="http://www.w3.org/2000/svg" width="1000" height="400" style="background-color: white; font-family: sans-serif;">
<line x1="50" y1="200" x2="950" y2="200" stroke="gray" stroke-width="1"/>
<path d="M 630.9424871666678 200 Q 340.4712435833339 180, 50.0 200" stroke="black" fill="none" marker-end="url(#arrowhead)"/>
<path d="M 686.603126718965 200 Q 658.7728069428164 180, 630.9424871666678 200" stroke="black" fill="none" marker-end="url(#arrowhead)"/>
<path d="M 720.9903281177664 200 Q 703.7967274183657 180, 686.603126718965 200" stroke="black" fill="none" marker-end="url(#arrowhead)"/>
<path d="M 896.594025721016 200 Q 808.7921769193912 180, 720.9903281177664 200" stroke="black" fill="none" marker-end="url(#arrowhead)"/>
<path d="M 908.594025721016 200 Q 902.594025721016 180, 896.594025721016 200" stroke="black" fill="none" marker-end="url(#arrowhead)"/>
<path d="M 950.0 200 Q 835.4951640588831 180, 720.9903281177664 200" stroke="black" fill="none" marker-end="url(#arrowhead)"/>
<path d="M 950.0 200 Q 929.297012860508 180, 908.594025721016 200" stroke="black" fill="none" marker-end="url(#arrowhead)"/>

<defs>
  <marker id="arrowhead" markerWidth="5" markerHeight="5" 
          refX="2" refY="2" orient="auto" fill="black">
    <path d="M0,0 L0,4 L4,2 z" />
  </marker>
</defs>

<circle cx="50.0" cy="200" r="6" fill="none" stroke="blue" stroke-width="2" />
<circle cx="50.0" cy="200" r="3" fill="blue" />
<circle cx="630.9424871666678" cy="200" r="4" fill="red" />
<circle cx="686.603126718965" cy="200" r="6" fill="none" stroke="blue" stroke-width="2" />
<circle cx="686.603126718965" cy="200" r="3" fill="blue" />
<circle cx="720.9903281177664" cy="200" r="4" fill="red" />
<circle cx="896.594025721016" cy="200" r="6" fill="none" stroke="black" stroke-width="2" />
<circle cx="896.594025721016" cy="200" r="3" fill="black" />
<circle cx="908.594025721016" cy="200" r="4" fill="red" />
<circle cx="950.0" cy="200" r="6" fill="none" stroke="blue" stroke-width="2" />
<circle cx="950.0" cy="200" r="3" fill="blue" />
<text x="50" y="225" fill="gray" style="font-size:12px;">2025-01-22T14:10:38+00:00</text>
<text x="900" y="225" fill="gray" style="font-size:12px;">2025-02-21T14:47:39+00:00</text>
</svg>