<svg xmlns="http://www.w3.org/2000/svg" width="1000" height="200" style="background-color: white; font-family: sans-serif;">
<line x1="50" y1="100" x2="950" y2="100" stroke="gray" stroke-width="1"/>
<path d="M 630.9424871666678 100 Q 340.4712435833339 80, 50.0 100" stroke="black" fill="none" marker-end="url(#arrowhead)"/>
<path d="M 686.603126718965 100 Q 658.7728069428164 80, 630.9424871666678 100" stroke="black" fill="none" marker-end="url(#arrowhead)"/>
<path d="M 720.9903281177664 100 Q 703.7967274183657 80, 686.603126718965 100" stroke="black" fill="none" marker-end="url(#arrowhead)"/>
<path d="M 896.594025721016 100 Q 808.7921769193912 80, 720.9903281177664 100" stroke="black" fill="none" marker-end="url(#arrowhead)"/>
<path d="M 908.594025721016 100 Q 902.594025721016 80, 896.594025721016 100" stroke="black" fill="none" marker-end="url(#arrowhead)"/>
<path d="M 950.0 100 Q 835.4951640588831 80, 720.9903281177664 100" stroke="black" fill="none" marker-end="url(#arrowhead)"/>
<path d="M 950.0 100 Q 929.297012860508 80, 908.594025721016 100" stroke="black" fill="none" marker-end="url(#arrowhead)"/>

<defs>
  <marker id="arrowhead" markerWidth="5" markerHeight="5" 
          refX="2" refY="2" orient="auto" fill="black">
    <path d="M0,0 L0,4 L4,2 z" />
  </marker>
</defs>

<circle cx="50.0" cy="100" r="6" fill="none" stroke="blue" stroke-width="2" />
<circle cx="50.0" cy="100" r="3" fill="blue" />
<circle cx="630.9424871666678" cy="100" r="4" fill="red" />
<circle cx="686.603126718965" cy="100" r="6" fill="none" stroke="blue" stroke-width="2" />
<circle cx="686.603126718965" cy="100" r="3" fill="blue" />
<circle cx="720.9903281177664" cy="100" r="4" fill="red" />
<circle cx="896.594025721016" cy="100" r="6" fill="none" stroke="black" stroke-width="2" />
<circle cx="896.594025721016" cy="100" r="3" fill="black" />
<circle cx="908.594025721016" cy="100" r="4" fill="red" />
<circle cx="950.0" cy="100" r="6" fill="none" stroke="blue" stroke-width="2" />
<circle cx="950.0" cy="100" r="3" fill="blue" />
<text x="50" y="125" fill="gray" style="font-size:12px;">2025-01-22T14:10:38+00:00</text>
<text x="900" y="125" fill="gray" style="font-size:12px;">2025-02-21T14:47:39+00:00</text>
</svg>