<svg xmlns="http://www.w3.org/2000/svg" width="1000" height="200" style="background-color: white; font-family: sans-serif;">
<line x1="50" y1="100" x2="950" y2="100" stroke="gray" stroke-width="1"/>
<path d="M 62.0 100 Q 56.0 80, 50.0 100" stroke="black" fill="none" marker-end="url(#arrowhead)"/>
<path d="M 74.0 100 Q 68.0 80, 62.0 100" stroke="black" fill="none" marker-end="url(#arrowhead)"/>
<path d="M 814.4321312324473 100 Q 444.21606561622366 80, 74.0 100" stroke="black" fill="none" marker-end="url(#arrowhead)"/>
<path d="M 826.4321312324473 100 Q 820.4321312324473 80, 814.4321312324473 100" stroke="black" fill="none" marker-end="url(#arrowhead)"/>
<path d="M 950.0 100 Q 888.2160656162237 80, 826.4321312324473 100" stroke="black" fill="none" marker-end="url(#arrowhead)"/>

<defs>
  <marker id="arrowhead" markerWidth="5" markerHeight="5" 
          refX="2" refY="2" orient="auto" fill="black">
    <path d="M0,0 L0,4 L4,2 z" />
  </marker>
</defs>

<circle cx="50.0" cy="100" r="6" fill="none" stroke="blue" stroke-width="2" />
<circle cx="50.0" cy="100" r="3" fill="blue" />
<circle cx="62.0" cy="100" r="4" fill="red" />
<circle cx="74.0" cy="100" r="6" fill="none" stroke="blue" stroke-width="2" />
<circle cx="74.0" cy="100" r="3" fill="blue" />
<circle cx="814.4321312324473" cy="100" r="4" fill="blue" />
<circle cx="826.4321312324473" cy="100" r="6" fill="none" stroke="blue" stroke-width="2" />
<circle cx="826.4321312324473" cy="100" r="3" fill="blue" />
<circle cx="950.0" cy="100" r="4" fill="red" />
<text x="50" y="125" fill="gray" style="font-size:12px;">2025-01-02T15:29:30+00:00</text>
<text x="900" y="125" fill="gray" style="font-size:12px;">2025-02-18T07:20:12+00:00</text>
</svg>