<svg xmlns="http://www.w3.org/2000/svg" width="1000" height="200" style="background-color: white; font-family: sans-serif;">
<line x1="50" y1="100" x2="950" y2="100" stroke="gray" stroke-width="1"/>
<path d="M 62.0 100 Q 56.0 80, 50.0 100" stroke="black" fill="none" marker-end="url(#arrowhead)"/>
<path d="M 74.0 100 Q 62.0 80, 50.0 100" stroke="black" fill="none" marker-end="url(#arrowhead)"/>
<path d="M 98.0 100 Q 80.0 80, 62.0 100" stroke="black" fill="none" marker-end="url(#arrowhead)"/>
<path d="M 98.0 100 Q 86.0 80, 74.0 100" stroke="black" fill="none" marker-end="url(#arrowhead)"/>
<path d="M 98.0 100 Q 92.0 80, 86.0 100" stroke="black" fill="none" marker-end="url(#arrowhead)"/>
<path d="M 219.3016578059014 100 Q 134.6508289029507 80, 50.0 100" stroke="black" fill="none" marker-end="url(#arrowhead)"/>
<path d="M 330.89293279940955 100 Q 190.44646639970478 80, 50.0 100" stroke="black" fill="none" marker-end="url(#arrowhead)"/>
<path d="M 593.4549467670735 100 Q 406.37830228648744 80, 219.3016578059014 100" stroke="black" fill="none" marker-end="url(#arrowhead)"/>
<path d="M 593.4549467670735 100 Q 462.1739397832415 80, 330.89293279940955 100" stroke="black" fill="none" marker-end="url(#arrowhead)"/>
<path d="M 960.3189602153918 100 Q 954.3189602153918 80, 948.3189602153918 100" stroke="black" fill="none" marker-end="url(#arrowhead)"/>

<defs>
  <marker id="arrowhead" markerWidth="5" markerHeight="5" 
          refX="2" refY="2" orient="auto" fill="black">
    <path d="M0,0 L0,4 L4,2 z" />
  </marker>
</defs>

<circle cx="50.0" cy="100" r="6" fill="none" stroke="blue" stroke-width="2" />
<circle cx="50.0" cy="100" r="3" fill="blue" />
<circle cx="62.0" cy="100" r="4" fill="red" />
<circle cx="74.0" cy="100" r="4" fill="red" />
<circle cx="86.0" cy="100" r="4" fill="black" />
<circle cx="98.0" cy="100" r="6" fill="none" stroke="blue" stroke-width="2" />
<circle cx="98.0" cy="100" r="3" fill="blue" />
<circle cx="110.0" cy="100" r="4" fill="red" />
<circle cx="207.3016578059014" cy="100" r="6" fill="none" stroke="blue" stroke-width="2" />
<circle cx="207.3016578059014" cy="100" r="3" fill="blue" />
<circle cx="219.3016578059014" cy="100" r="4" fill="red" />
<circle cx="330.89293279940955" cy="100" r="4" fill="black" />
<circle cx="593.4549467670735" cy="100" r="6" fill="none" stroke="blue" stroke-width="2" />
<circle cx="593.4549467670735" cy="100" r="3" fill="blue" />
<circle cx="948.3189602153918" cy="100" r="6" fill="none" stroke="blue" stroke-width="2" />
<circle cx="948.3189602153918" cy="100" r="3" fill="blue" />
<circle cx="960.3189602153918" cy="100" r="6" fill="none" stroke="blue" stroke-width="2" />
<circle cx="960.3189602153918" cy="100" r="3" fill="blue" />
<text x="50" y="125" fill="gray" style="font-size:12px;">2024-12-30T01:18:58+00:00</text>
<text x="900" y="125" fill="gray" style="font-size:12px;">2025-02-18T20:47:58+00:00</text>
</svg>