<svg xmlns="http://www.w3.org/2000/svg" width="1000" height="400" style="background-color: white; font-family: sans-serif;">
<line x1="50" y1="200" x2="950" y2="200" stroke="gray" stroke-width="1"/>
<path d="M 62.0 200 Q 56.0 180, 50.0 200" stroke="black" fill="none" marker-end="url(#arrowhead)"/>
<path d="M 74.0 200 Q 62.0 180, 50.0 200" stroke="black" fill="none" marker-end="url(#arrowhead)"/>
<path d="M 98.0 200 Q 80.0 180, 62.0 200" stroke="black" fill="none" marker-end="url(#arrowhead)"/>
<path d="M 98.0 200 Q 86.0 180, 74.0 200" stroke="black" fill="none" marker-end="url(#arrowhead)"/>
<path d="M 98.0 200 Q 92.0 180, 86.0 200" stroke="black" fill="none" marker-end="url(#arrowhead)"/>
<path d="M 219.3016578059014 200 Q 134.6508289029507 180, 50.0 200" stroke="black" fill="none" marker-end="url(#arrowhead)"/>
<path d="M 330.89293279940955 200 Q 190.44646639970478 180, 50.0 200" stroke="black" fill="none" marker-end="url(#arrowhead)"/>
<path d="M 593.4549467670735 200 Q 406.37830228648744 180, 219.3016578059014 200" stroke="black" fill="none" marker-end="url(#arrowhead)"/>
<path d="M 593.4549467670735 200 Q 462.1739397832415 180, 330.89293279940955 200" stroke="black" fill="none" marker-end="url(#arrowhead)"/>
<path d="M 960.3189602153918 200 Q 954.3189602153918 180, 948.3189602153918 200" stroke="black" fill="none" marker-end="url(#arrowhead)"/>

<defs>
  <marker id="arrowhead" markerWidth="5" markerHeight="5" 
          refX="2" refY="2" orient="auto" fill="black">
    <path d="M0,0 L0,4 L4,2 z" />
  </marker>
</defs>

<circle cx="50.0" cy="200" r="6" fill="none" stroke="blue" stroke-width="2" />
<circle cx="50.0" cy="200" r="3" fill="blue" />
<circle cx="62.0" cy="200" r="4" fill="red" />
<circle cx="74.0" cy="200" r="4" fill="red" />
<circle cx="86.0" cy="200" r="4" fill="black" />
<circle cx="98.0" cy="200" r="6" fill="none" stroke="blue" stroke-width="2" />
<circle cx="98.0" cy="200" r="3" fill="blue" />
<circle cx="110.0" cy="200" r="4" fill="red" />
<circle cx="207.3016578059014" cy="200" r="6" fill="none" stroke="blue" stroke-width="2" />
<circle cx="207.3016578059014" cy="200" r="3" fill="blue" />
<circle cx="219.3016578059014" cy="200" r="4" fill="red" />
<circle cx="330.89293279940955" cy="200" r="4" fill="black" />
<circle cx="593.4549467670735" cy="200" r="6" fill="none" stroke="blue" stroke-width="2" />
<circle cx="593.4549467670735" cy="200" r="3" fill="blue" />
<circle cx="948.3189602153918" cy="200" r="6" fill="none" stroke="blue" stroke-width="2" />
<circle cx="948.3189602153918" cy="200" r="3" fill="blue" />
<circle cx="960.3189602153918" cy="200" r="6" fill="none" stroke="blue" stroke-width="2" />
<circle cx="960.3189602153918" cy="200" r="3" fill="blue" />
<text x="50" y="225" fill="gray" style="font-size:12px;">2024-12-30T01:18:58+00:00</text>
<text x="900" y="225" fill="gray" style="font-size:12px;">2025-02-18T20:47:58+00:00</text>
</svg>