<svg xmlns="http://www.w3.org/2000/svg" width="1000" height="200" style="background-color: white; font-family: sans-serif;">
<line x1="50" y1="100" x2="950" y2="100" stroke="gray" stroke-width="1"/>
<path d="M 62.0 100 Q 56.0 80, 50.0 100" stroke="black" fill="none" marker-end="url(#arrowhead)"/>
<path d="M 74.0 100 Q 62.0 80, 50.0 100" stroke="black" fill="none" marker-end="url(#arrowhead)"/>
<path d="M 86.0 100 Q 68.0 80, 50.0 100" stroke="black" fill="none" marker-end="url(#arrowhead)"/>
<path d="M 110.0 100 Q 104.0 80, 98.0 100" stroke="black" fill="none" marker-end="url(#arrowhead)"/>
<path d="M 122.0 100 Q 98.0 80, 74.0 100" stroke="black" fill="none" marker-end="url(#arrowhead)"/>
<path d="M 134.0 100 Q 122.0 80, 110.0 100" stroke="black" fill="none" marker-end="url(#arrowhead)"/>
<path d="M 134.0 100 Q 110.0 80, 86.0 100" stroke="black" fill="none" marker-end="url(#arrowhead)"/>
<path d="M 158.0 100 Q 152.0 80, 146.0 100" stroke="black" fill="none" marker-end="url(#arrowhead)"/>
<path d="M 170.0 100 Q 164.0 80, 158.0 100" stroke="black" fill="none" marker-end="url(#arrowhead)"/>
<path d="M 182.0 100 Q 152.0 80, 122.0 100" stroke="black" fill="none" marker-end="url(#arrowhead)"/>
<path d="M 194.0 100 Q 140.0 80, 86.0 100" stroke="black" fill="none" marker-end="url(#arrowhead)"/>
<path d="M 206.0 100 Q 200.0 80, 194.0 100" stroke="black" fill="none" marker-end="url(#arrowhead)"/>
<path d="M 218.0 100 Q 212.0 80, 206.0 100" stroke="black" fill="none" marker-end="url(#arrowhead)"/>
<path d="M 254.0 100 Q 248.0 80, 242.0 100" stroke="black" fill="none" marker-end="url(#arrowhead)"/>
<path d="M 254.0 100 Q 230.0 80, 206.0 100" stroke="black" fill="none" marker-end="url(#arrowhead)"/>
<path d="M 266.0 100 Q 260.0 80, 254.0 100" stroke="black" fill="none" marker-end="url(#arrowhead)"/>
<path d="M 278.0 100 Q 272.0 80, 266.0 100" stroke="black" fill="none" marker-end="url(#arrowhead)"/>
<path d="M 290.0 100 Q 284.0 80, 278.0 100" stroke="black" fill="none" marker-end="url(#arrowhead)"/>
<path d="M 302.0 100 Q 296.0 80, 290.0 100" stroke="black" fill="none" marker-end="url(#arrowhead)"/>
<path d="M 314.0 100 Q 284.0 80, 254.0 100" stroke="black" fill="none" marker-end="url(#arrowhead)"/>
<path d="M 326.0 100 Q 296.0 80, 266.0 100" stroke="black" fill="none" marker-end="url(#arrowhead)"/>
<path d="M 326.0 100 Q 302.0 80, 278.0 100" stroke="black" fill="none" marker-end="url(#arrowhead)"/>
<path d="M 338.0 100 Q 332.0 80, 326.0 100" stroke="black" fill="none" marker-end="url(#arrowhead)"/>
<path d="M 350.0 100 Q 302.0 80, 254.0 100" stroke="black" fill="none" marker-end="url(#arrowhead)"/>
<path d="M 374.0 100 Q 362.0 80, 350.0 100" stroke="black" fill="none" marker-end="url(#arrowhead)"/>
<path d="M 386.0 100 Q 380.0 80, 374.0 100" stroke="black" fill="none" marker-end="url(#arrowhead)"/>
<path d="M 398.0 100 Q 392.0 80, 386.0 100" stroke="black" fill="none" marker-end="url(#arrowhead)"/>
<path d="M 410.0 100 Q 404.0 80, 398.0 100" stroke="black" fill="none" marker-end="url(#arrowhead)"/>
<path d="M 422.0 100 Q 416.0 80, 410.0 100" stroke="black" fill="none" marker-end="url(#arrowhead)"/>
<path d="M 434.0 100 Q 428.0 80, 422.0 100" stroke="black" fill="none" marker-end="url(#arrowhead)"/>
<path d="M 446.0 100 Q 440.0 80, 434.0 100" stroke="black" fill="none" marker-end="url(#arrowhead)"/>
<path d="M 458.0 100 Q 452.0 80, 446.0 100" stroke="black" fill="none" marker-end="url(#arrowhead)"/>
<path d="M 482.0 100 Q 476.0 80, 470.0 100" stroke="black" fill="none" marker-end="url(#arrowhead)"/>
<path d="M 530.0 100 Q 524.0 80, 518.0 100" stroke="black" fill="none" marker-end="url(#arrowhead)"/>
<path d="M 542.0 100 Q 524.0 80, 506.0 100" stroke="black" fill="none" marker-end="url(#arrowhead)"/>
<path d="M 554.0 100 Q 548.0 80, 542.0 100" stroke="black" fill="none" marker-end="url(#arrowhead)"/>
<path d="M 566.0 100 Q 560.0 80, 554.0 100" stroke="black" fill="none" marker-end="url(#arrowhead)"/>
<path d="M 578.0 100 Q 572.0 80, 566.0 100" stroke="black" fill="none" marker-end="url(#arrowhead)"/>
<path d="M 590.0 100 Q 578.0 80, 566.0 100" stroke="black" fill="none" marker-end="url(#arrowhead)"/>
<path d="M 602.0 100 Q 590.0 80, 578.0 100" stroke="black" fill="none" marker-end="url(#arrowhead)"/>
<path d="M 626.0 100 Q 614.0 80, 602.0 100" stroke="black" fill="none" marker-end="url(#arrowhead)"/>
<path d="M 638.0 100 Q 608.0 80, 578.0 100" stroke="black" fill="none" marker-end="url(#arrowhead)"/>
<path d="M 650.0 100 Q 620.0 80, 590.0 100" stroke="black" fill="none" marker-end="url(#arrowhead)"/>
<path d="M 662.0 100 Q 638.0 80, 614.0 100" stroke="black" fill="none" marker-end="url(#arrowhead)"/>
<path d="M 674.0 100 Q 668.0 80, 662.0 100" stroke="black" fill="none" marker-end="url(#arrowhead)"/>
<path d="M 686.0 100 Q 668.0 80, 650.0 100" stroke="black" fill="none" marker-end="url(#arrowhead)"/>
<path d="M 698.0 100 Q 692.0 80, 686.0 100" stroke="black" fill="none" marker-end="url(#arrowhead)"/>
<path d="M 710.0 100 Q 698.0 80, 686.0 100" stroke="black" fill="none" marker-end="url(#arrowhead)"/>
<path d="M 710.0 100 Q 704.0 80, 698.0 100" stroke="black" fill="none" marker-end="url(#arrowhead)"/>
<path d="M 722.0 100 Q 704.0 80, 686.0 100" stroke="black" fill="none" marker-end="url(#arrowhead)"/>
<path d="M 734.0 100 Q 716.0 80, 698.0 100" stroke="black" fill="none" marker-end="url(#arrowhead)"/>
<path d="M 746.0 100 Q 728.0 80, 710.0 100" stroke="black" fill="none" marker-end="url(#arrowhead)"/>
<path d="M 758.0 100 Q 740.0 80, 722.0 100" stroke="black" fill="none" marker-end="url(#arrowhead)"/>
<path d="M 770.0 100 Q 746.0 80, 722.0 100" stroke="black" fill="none" marker-end="url(#arrowhead)"/>
<path d="M 782.0 100 Q 710.0 80, 638.0 100" stroke="black" fill="none" marker-end="url(#arrowhead)"/>
<path d="M 794.0 100 Q 782.0 80, 770.0 100" stroke="black" fill="none" marker-end="url(#arrowhead)"/>
<path d="M 806.0 100 Q 800.0 80, 794.0 100" stroke="black" fill="none" marker-end="url(#arrowhead)"/>
<path d="M 818.0 100 Q 806.0 80, 794.0 100" stroke="black" fill="none" marker-end="url(#arrowhead)"/>
<path d="M 818.0 100 Q 812.0 80, 806.0 100" stroke="black" fill="none" marker-end="url(#arrowhead)"/>
<path d="M 830.0 100 Q 824.0 80, 818.0 100" stroke="black" fill="none" marker-end="url(#arrowhead)"/>
<path d="M 842.0 100 Q 830.0 80, 818.0 100" stroke="black" fill="none" marker-end="url(#arrowhead)"/>
<path d="M 854.0 100 Q 848.0 80, 842.0 100" stroke="black" fill="none" marker-end="url(#arrowhead)"/>
<path d="M 866.0 100 Q 860.0 80, 854.0 100" stroke="black" fill="none" marker-end="url(#arrowhead)"/>
<path d="M 878.0 100 Q 872.0 80, 866.0 100" stroke="black" fill="none" marker-end="url(#arrowhead)"/>
<path d="M 890.0 100 Q 878.0 80, 866.0 100" stroke="black" fill="none" marker-end="url(#arrowhead)"/>
<path d="M 902.0 100 Q 896.0 80, 890.0 100" stroke="black" fill="none" marker-end="url(#arrowhead)"/>
<path d="M 902.0 100 Q 872.0 80, 842.0 100" stroke="black" fill="none" marker-end="url(#arrowhead)"/>
<path d="M 914.0 100 Q 908.0 80, 902.0 100" stroke="black" fill="none" marker-end="url(#arrowhead)"/>
<path d="M 926.0 100 Q 914.0 80, 902.0 100" stroke="black" fill="none" marker-end="url(#arrowhead)"/>
<path d="M 938.0 100 Q 926.0 80, 914.0 100" stroke="black" fill="none" marker-end="url(#arrowhead)"/>
<path d="M 950.0 100 Q 938.0 80, 926.0 100" stroke="black" fill="none" marker-end="url(#arrowhead)"/>
<path d="M 962.0 100 Q 824.0 80, 686.0 100" stroke="black" fill="none" marker-end="url(#arrowhead)"/>
<path d="M 962.0 100 Q 830.0 80, 698.0 100" stroke="black" fill="none" marker-end="url(#arrowhead)"/>
<path d="M 974.0 100 Q 968.0 80, 962.0 100" stroke="black" fill="none" marker-end="url(#arrowhead)"/>
<path d="M 986.0 100 Q 980.0 80, 974.0 100" stroke="black" fill="none" marker-end="url(#arrowhead)"/>
<path d="M 998.0 100 Q 992.0 80, 986.0 100" stroke="black" fill="none" marker-end="url(#arrowhead)"/>
<path d="M 1010.0 100 Q 1004.0 80, 998.0 100" stroke="black" fill="none" marker-end="url(#arrowhead)"/>
<path d="M 1022.0 100 Q 1010.0 80, 998.0 100" stroke="black" fill="none" marker-end="url(#arrowhead)"/>
<path d="M 1034.0 100 Q 1022.0 80, 1010.0 100" stroke="black" fill="none" marker-end="url(#arrowhead)"/>
<path d="M 1046.0 100 Q 1040.0 80, 1034.0 100" stroke="black" fill="none" marker-end="url(#arrowhead)"/>
<path d="M 1058.0 100 Q 1052.0 80, 1046.0 100" stroke="black" fill="none" marker-end="url(#arrowhead)"/>
<path d="M 1070.0 100 Q 1064.0 80, 1058.0 100" stroke="black" fill="none" marker-end="url(#arrowhead)"/>
<path d="M 1082.0 100 Q 1070.0 80, 1058.0 100" stroke="black" fill="none" marker-end="url(#arrowhead)"/>
<path d="M 1082.0 100 Q 1076.0 80, 1070.0 100" stroke="black" fill="none" marker-end="url(#arrowhead)"/>
<path d="M 1094.0 100 Q 1088.0 80, 1082.0 100" stroke="black" fill="none" marker-end="url(#arrowhead)"/>
<path d="M 1106.0 100 Q 1100.0 80, 1094.0 100" stroke="black" fill="none" marker-end="url(#arrowhead)"/>
<path d="M 1118.0 100 Q 1100.0 80, 1082.0 100" stroke="black" fill="none" marker-end="url(#arrowhead)"/>
<path d="M 1130.0 100 Q 1124.0 80, 1118.0 100" stroke="black" fill="none" marker-end="url(#arrowhead)"/>
<path d="M 1142.0 100 Q 1136.0 80, 1130.0 100" stroke="black" fill="none" marker-end="url(#arrowhead)"/>
<path d="M 1154.0 100 Q 1148.0 80, 1142.0 100" stroke="black" fill="none" marker-end="url(#arrowhead)"/>
<path d="M 1166.0 100 Q 1136.0 80, 1106.0 100" stroke="black" fill="none" marker-end="url(#arrowhead)"/>
<path d="M 1178.0 100 Q 1130.0 80, 1082.0 100" stroke="black" fill="none" marker-end="url(#arrowhead)"/>
<path d="M 1178.0 100 Q 632.0 80, 86.0 100" stroke="black" fill="none" marker-end="url(#arrowhead)"/>
<path d="M 1190.0 100 Q 1184.0 80, 1178.0 100" stroke="black" fill="none" marker-end="url(#arrowhead)"/>
<path d="M 1202.0 100 Q 1190.0 80, 1178.0 100" stroke="black" fill="none" marker-end="url(#arrowhead)"/>
<path d="M 1214.0 100 Q 1184.0 80, 1154.0 100" stroke="black" fill="none" marker-end="url(#arrowhead)"/>
<path d="M 1226.0 100 Q 1202.0 80, 1178.0 100" stroke="black" fill="none" marker-end="url(#arrowhead)"/>
<path d="M 1238.0 100 Q 1226.0 80, 1214.0 100" stroke="black" fill="none" marker-end="url(#arrowhead)"/>
<path d="M 1238.0 100 Q 1232.0 80, 1226.0 100" stroke="black" fill="none" marker-end="url(#arrowhead)"/>
<path d="M 1250.0 100 Q 1244.0 80, 1238.0 100" stroke="black" fill="none" marker-end="url(#arrowhead)"/>
<path d="M 1262.0 100 Q 1256.0 80, 1250.0 100" stroke="black" fill="none" marker-end="url(#arrowhead)"/>
<path d="M 1274.0 100 Q 1268.0 80, 1262.0 100" stroke="black" fill="none" marker-end="url(#arrowhead)"/>
<path d="M 1286.0 100 Q 1280.0 80, 1274.0 100" stroke="black" fill="none" marker-end="url(#arrowhead)"/>
<path d="M 1298.0 100 Q 1292.0 80, 1286.0 100" stroke="black" fill="none" marker-end="url(#arrowhead)"/>
<path d="M 1310.0 100 Q 1304.0 80, 1298.0 100" stroke="black" fill="none" marker-end="url(#arrowhead)"/>
<path d="M 1322.0 100 Q 1310.0 80, 1298.0 100" stroke="black" fill="none" marker-end="url(#arrowhead)"/>
<path d="M 1334.0 100 Q 1328.0 80, 1322.0 100" stroke="black" fill="none" marker-end="url(#arrowhead)"/>
<path d="M 1346.0 100 Q 1340.0 80, 1334.0 100" stroke="black" fill="none" marker-end="url(#arrowhead)"/>
<path d="M 1358.0 100 Q 1352.0 80, 1346.0 100" stroke="black" fill="none" marker-end="url(#arrowhead)"/>
<path d="M 1370.0 100 Q 1304.0 80, 1238.0 100" stroke="black" fill="none" marker-end="url(#arrowhead)"/>
<path d="M 1382.0 100 Q 1376.0 80, 1370.0 100" stroke="black" fill="none" marker-end="url(#arrowhead)"/>
<path d="M 1394.0 100 Q 1388.0 80, 1382.0 100" stroke="black" fill="none" marker-end="url(#arrowhead)"/>
<path d="M 1406.0 100 Q 1394.0 80, 1382.0 100" stroke="black" fill="none" marker-end="url(#arrowhead)"/>
<path d="M 1418.0 100 Q 1412.0 80, 1406.0 100" stroke="black" fill="none" marker-end="url(#arrowhead)"/>
<path d="M 1430.0 100 Q 1424.0 80, 1418.0 100" stroke="black" fill="none" marker-end="url(#arrowhead)"/>
<path d="M 1442.0 100 Q 1418.0 80, 1394.0 100" stroke="black" fill="none" marker-end="url(#arrowhead)"/>
<path d="M 1442.0 100 Q 1424.0 80, 1406.0 100" stroke="black" fill="none" marker-end="url(#arrowhead)"/>
<path d="M 1442.0 100 Q 1430.0 80, 1418.0 100" stroke="black" fill="none" marker-end="url(#arrowhead)"/>
<path d="M 1442.0 100 Q 1412.0 80, 1382.0 100" stroke="black" fill="none" marker-end="url(#arrowhead)"/>
<path d="M 1454.0 100 Q 1448.0 80, 1442.0 100" stroke="black" fill="none" marker-end="url(#arrowhead)"/>
<path d="M 1466.0 100 Q 1460.0 80, 1454.0 100" stroke="black" fill="none" marker-end="url(#arrowhead)"/>
<path d="M 1478.0 100 Q 1460.0 80, 1442.0 100" stroke="black" fill="none" marker-end="url(#arrowhead)"/>
<path d="M 1490.0 100 Q 1484.0 80, 1478.0 100" stroke="black" fill="none" marker-end="url(#arrowhead)"/>
<path d="M 1490.0 100 Q 1466.0 80, 1442.0 100" stroke="black" fill="none" marker-end="url(#arrowhead)"/>
<path d="M 1502.0 100 Q 1496.0 80, 1490.0 100" stroke="black" fill="none" marker-end="url(#arrowhead)"/>
<path d="M 1514.0 100 Q 1502.0 80, 1490.0 100" stroke="black" fill="none" marker-end="url(#arrowhead)"/>
<path d="M 1526.0 100 Q 1496.0 80, 1466.0 100" stroke="black" fill="none" marker-end="url(#arrowhead)"/>
<path d="M 1526.0 100 Q 1238.0 80, 950.0 100" stroke="black" fill="none" marker-end="url(#arrowhead)"/>
<path d="M 1550.0 100 Q 1544.0 80, 1538.0 100" stroke="black" fill="none" marker-end="url(#arrowhead)"/>
<path d="M 1550.0 100 Q 1250.0 80, 950.0 100" stroke="black" fill="none" marker-end="url(#arrowhead)"/>
<path d="M 1562.0 100 Q 1556.0 80, 1550.0 100" stroke="black" fill="none" marker-end="url(#arrowhead)"/>
<path d="M 1574.0 100 Q 1562.0 80, 1550.0 100" stroke="black" fill="none" marker-end="url(#arrowhead)"/>
<path d="M 1574.0 100 Q 1568.0 80, 1562.0 100" stroke="black" fill="none" marker-end="url(#arrowhead)"/>
<path d="M 1586.0 100 Q 1580.0 80, 1574.0 100" stroke="black" fill="none" marker-end="url(#arrowhead)"/>
<path d="M 1598.0 100 Q 1592.0 80, 1586.0 100" stroke="black" fill="none" marker-end="url(#arrowhead)"/>
<path d="M 1610.0 100 Q 1568.0 80, 1526.0 100" stroke="black" fill="none" marker-end="url(#arrowhead)"/>
<path d="M 1622.0 100 Q 1616.0 80, 1610.0 100" stroke="black" fill="none" marker-end="url(#arrowhead)"/>
<path d="M 1634.0 100 Q 1628.0 80, 1622.0 100" stroke="black" fill="none" marker-end="url(#arrowhead)"/>
<path d="M 1646.0 100 Q 1634.0 80, 1622.0 100" stroke="black" fill="none" marker-end="url(#arrowhead)"/>
<path d="M 1658.0 100 Q 1652.0 80, 1646.0 100" stroke="black" fill="none" marker-end="url(#arrowhead)"/>
<path d="M 1670.0 100 Q 1664.0 80, 1658.0 100" stroke="black" fill="none" marker-end="url(#arrowhead)"/>
<path d="M 1682.0 100 Q 1676.0 80, 1670.0 100" stroke="black" fill="none" marker-end="url(#arrowhead)"/>
<path d="M 1694.0 100 Q 1688.0 80, 1682.0 100" stroke="black" fill="none" marker-end="url(#arrowhead)"/>
<path d="M 1706.0 100 Q 1688.0 80, 1670.0 100" stroke="black" fill="none" marker-end="url(#arrowhead)"/>
<path d="M 1706.0 100 Q 1694.0 80, 1682.0 100" stroke="black" fill="none" marker-end="url(#arrowhead)"/>
<path d="M 1718.0 100 Q 1712.0 80, 1706.0 100" stroke="black" fill="none" marker-end="url(#arrowhead)"/>
<path d="M 1730.0 100 Q 1724.0 80, 1718.0 100" stroke="black" fill="none" marker-end="url(#arrowhead)"/>
<path d="M 1742.0 100 Q 1736.0 80, 1730.0 100" stroke="black" fill="none" marker-end="url(#arrowhead)"/>
<path d="M 1754.0 100 Q 1748.0 80, 1742.0 100" stroke="black" fill="none" marker-end="url(#arrowhead)"/>
<path d="M 1790.0 100 Q 1778.0 80, 1766.0 100" stroke="black" fill="none" marker-end="url(#arrowhead)"/>
<path d="M 1802.0 100 Q 1202.0 80, 602.0 100" stroke="black" fill="none" marker-end="url(#arrowhead)"/>
<path d="M 1802.0 100 Q 1748.0 80, 1694.0 100" stroke="black" fill="none" marker-end="url(#arrowhead)"/>
<path d="M 1826.0 100 Q 1814.0 80, 1802.0 100" stroke="black" fill="none" marker-end="url(#arrowhead)"/>
<path d="M 1838.0 100 Q 1772.0 80, 1706.0 100" stroke="black" fill="none" marker-end="url(#arrowhead)"/>
<path d="M 1850.0 100 Q 1844.0 80, 1838.0 100" stroke="black" fill="none" marker-end="url(#arrowhead)"/>
<path d="M 1874.0 100 Q 1868.0 80, 1862.0 100" stroke="black" fill="none" marker-end="url(#arrowhead)"/>
<path d="M 1874.0 100 Q 1820.0 80, 1766.0 100" stroke="black" fill="none" marker-end="url(#arrowhead)"/>
<path d="M 1898.0 100 Q 1868.0 80, 1838.0 100" stroke="black" fill="none" marker-end="url(#arrowhead)"/>
<path d="M 1910.0 100 Q 1904.0 80, 1898.0 100" stroke="black" fill="none" marker-end="url(#arrowhead)"/>
<path d="M 1922.0 100 Q 1916.0 80, 1910.0 100" stroke="black" fill="none" marker-end="url(#arrowhead)"/>
<path d="M 1934.0 100 Q 1442.0 80, 950.0 100" stroke="black" fill="none" marker-end="url(#arrowhead)"/>
<path d="M 1934.0 100 Q 1928.0 80, 1922.0 100" stroke="black" fill="none" marker-end="url(#arrowhead)"/>
<path d="M 1946.0 100 Q 1940.0 80, 1934.0 100" stroke="black" fill="none" marker-end="url(#arrowhead)"/>
<path d="M 1958.0 100 Q 1952.0 80, 1946.0 100" stroke="black" fill="none" marker-end="url(#arrowhead)"/>
<path d="M 1970.0 100 Q 1964.0 80, 1958.0 100" stroke="black" fill="none" marker-end="url(#arrowhead)"/>
<path d="M 1982.0 100 Q 1976.0 80, 1970.0 100" stroke="black" fill="none" marker-end="url(#arrowhead)"/>
<path d="M 1994.0 100 Q 1472.0 80, 950.0 100" stroke="black" fill="none" marker-end="url(#arrowhead)"/>
<path d="M 1994.0 100 Q 1988.0 80, 1982.0 100" stroke="black" fill="none" marker-end="url(#arrowhead)"/>
<path d="M 2006.0 100 Q 2000.0 80, 1994.0 100" stroke="black" fill="none" marker-end="url(#arrowhead)"/>
<path d="M 2030.0 100 Q 2024.0 80, 2018.0 100" stroke="black" fill="none" marker-end="url(#arrowhead)"/>

<defs>
  <marker id="arrowhead" markerWidth="5" markerHeight="5" 
          refX="2" refY="2" orient="auto" fill="black">
    <path d="M0,0 L0,4 L4,2 z" />
  </marker>
</defs>

<circle cx="50.0" cy="100" r="6" fill="none" stroke="blue" stroke-width="2" />
<circle cx="50.0" cy="100" r="3" fill="blue" />
<circle cx="62.0" cy="100" r="4" fill="black" />
<circle cx="74.0" cy="100" r="4" fill="black" />
<circle cx="86.0" cy="100" r="4" fill="red" />
<circle cx="98.0" cy="100" r="4" fill="black" />
<circle cx="110.0" cy="100" r="4" fill="black" />
<circle cx="122.0" cy="100" r="6" fill="none" stroke="blue" stroke-width="2" />
<circle cx="122.0" cy="100" r="3" fill="blue" />
<circle cx="134.0" cy="100" r="6" fill="none" stroke="red" stroke-width="2" />
<circle cx="134.0" cy="100" r="3" fill="red" />
<circle cx="146.0" cy="100" r="6" fill="none" stroke="black" stroke-width="2" />
<circle cx="146.0" cy="100" r="3" fill="black" />
<circle cx="158.0" cy="100" r="4" fill="black" />
<circle cx="170.0" cy="100" r="6" fill="none" stroke="red" stroke-width="2" />
<circle cx="170.0" cy="100" r="3" fill="red" />
<circle cx="182.0" cy="100" r="6" fill="none" stroke="blue" stroke-width="2" />
<circle cx="182.0" cy="100" r="3" fill="blue" />
<circle cx="194.0" cy="100" r="4" fill="black" />
<circle cx="206.0" cy="100" r="6" fill="none" stroke="black" stroke-width="2" />
<circle cx="206.0" cy="100" r="3" fill="black" />
<circle cx="218.0" cy="100" r="4" fill="black" />
<circle cx="230.0" cy="100" r="6" fill="none" stroke="blue" stroke-width="2" />
<circle cx="230.0" cy="100" r="3" fill="blue" />
<circle cx="242.0" cy="100" r="6" fill="none" stroke="blue" stroke-width="2" />
<circle cx="242.0" cy="100" r="3" fill="blue" />
<circle cx="254.0" cy="100" r="4" fill="red" />
<circle cx="266.0" cy="100" r="4" fill="black" />
<circle cx="278.0" cy="100" r="4" fill="black" />
<circle cx="290.0" cy="100" r="6" fill="none" stroke="black" stroke-width="2" />
<circle cx="290.0" cy="100" r="3" fill="black" />
<circle cx="302.0" cy="100" r="4" fill="black" />
<circle cx="314.0" cy="100" r="6" fill="none" stroke="black" stroke-width="2" />
<circle cx="314.0" cy="100" r="3" fill="black" />
<circle cx="326.0" cy="100" r="4" fill="black" />
<circle cx="338.0" cy="100" r="4" fill="black" />
<circle cx="350.0" cy="100" r="6" fill="none" stroke="blue" stroke-width="2" />
<circle cx="350.0" cy="100" r="3" fill="blue" />
<circle cx="362.0" cy="100" r="6" fill="none" stroke="blue" stroke-width="2" />
<circle cx="362.0" cy="100" r="3" fill="blue" />
<circle cx="374.0" cy="100" r="4" fill="black" />
<circle cx="386.0" cy="100" r="6" fill="none" stroke="black" stroke-width="2" />
<circle cx="386.0" cy="100" r="3" fill="black" />
<circle cx="398.0" cy="100" r="6" fill="none" stroke="black" stroke-width="2" />
<circle cx="398.0" cy="100" r="3" fill="black" />
<circle cx="410.0" cy="100" r="6" fill="none" stroke="blue" stroke-width="2" />
<circle cx="410.0" cy="100" r="3" fill="blue" />
<circle cx="422.0" cy="100" r="4" fill="red" />
<circle cx="434.0" cy="100" r="6" fill="none" stroke="red" stroke-width="2" />
<circle cx="434.0" cy="100" r="3" fill="red" />
<circle cx="446.0" cy="100" r="4" fill="red" />
<circle cx="458.0" cy="100" r="6" fill="none" stroke="black" stroke-width="2" />
<circle cx="458.0" cy="100" r="3" fill="black" />
<circle cx="470.0" cy="100" r="4" fill="red" />
<circle cx="482.0" cy="100" r="6" fill="none" stroke="blue" stroke-width="2" />
<circle cx="482.0" cy="100" r="3" fill="blue" />
<circle cx="494.0" cy="100" r="6" fill="none" stroke="blue" stroke-width="2" />
<circle cx="494.0" cy="100" r="3" fill="blue" />
<circle cx="506.0" cy="100" r="6" fill="none" stroke="blue" stroke-width="2" />
<circle cx="506.0" cy="100" r="3" fill="blue" />
<circle cx="518.0" cy="100" r="6" fill="none" stroke="blue" stroke-width="2" />
<circle cx="518.0" cy="100" r="3" fill="blue" />
<circle cx="530.0" cy="100" r="6" fill="none" stroke="blue" stroke-width="2" />
<circle cx="530.0" cy="100" r="3" fill="blue" />
<circle cx="542.0" cy="100" r="4" fill="red" />
<circle cx="554.0" cy="100" r="6" fill="none" stroke="black" stroke-width="2" />
<circle cx="554.0" cy="100" r="3" fill="black" />
<circle cx="566.0" cy="100" r="4" fill="red" />
<circle cx="578.0" cy="100" r="4" fill="black" />
<circle cx="590.0" cy="100" r="6" fill="none" stroke="red" stroke-width="2" />
<circle cx="590.0" cy="100" r="3" fill="red" />
<circle cx="602.0" cy="100" r="6" fill="none" stroke="red" stroke-width="2" />
<circle cx="602.0" cy="100" r="3" fill="red" />
<circle cx="614.0" cy="100" r="6" fill="none" stroke="blue" stroke-width="2" />
<circle cx="614.0" cy="100" r="3" fill="blue" />
<circle cx="626.0" cy="100" r="4" fill="black" />
<circle cx="638.0" cy="100" r="4" fill="black" />
<circle cx="650.0" cy="100" r="4" fill="black" />
<circle cx="662.0" cy="100" r="4" fill="blue" />
<circle cx="674.0" cy="100" r="6" fill="none" stroke="green" stroke-width="2" />
<circle cx="674.0" cy="100" r="3" fill="green" />
<circle cx="686.0" cy="100" r="6" fill="none" stroke="red" stroke-width="2" />
<circle cx="686.0" cy="100" r="3" fill="red" />
<circle cx="698.0" cy="100" r="4" fill="black" />
<circle cx="710.0" cy="100" r="4" fill="red" />
<circle cx="722.0" cy="100" r="4" fill="black" />
<circle cx="734.0" cy="100" r="6" fill="none" stroke="black" stroke-width="2" />
<circle cx="734.0" cy="100" r="3" fill="black" />
<circle cx="746.0" cy="100" r="6" fill="none" stroke="black" stroke-width="2" />
<circle cx="746.0" cy="100" r="3" fill="black" />
<circle cx="758.0" cy="100" r="4" fill="black" />
<circle cx="770.0" cy="100" r="6" fill="none" stroke="black" stroke-width="2" />
<circle cx="770.0" cy="100" r="3" fill="black" />
<circle cx="782.0" cy="100" r="4" fill="blue" />
<circle cx="794.0" cy="100" r="4" fill="black" />
<circle cx="806.0" cy="100" r="4" fill="red" />
<circle cx="818.0" cy="100" r="6" fill="none" stroke="black" stroke-width="2" />
<circle cx="818.0" cy="100" r="3" fill="black" />
<circle cx="830.0" cy="100" r="4" fill="black" />
<circle cx="842.0" cy="100" r="6" fill="none" stroke="black" stroke-width="2" />
<circle cx="842.0" cy="100" r="3" fill="black" />
<circle cx="854.0" cy="100" r="4" fill="black" />
<circle cx="866.0" cy="100" r="6" fill="none" stroke="black" stroke-width="2" />
<circle cx="866.0" cy="100" r="3" fill="black" />
<circle cx="878.0" cy="100" r="6" fill="none" stroke="black" stroke-width="2" />
<circle cx="878.0" cy="100" r="3" fill="black" />
<circle cx="890.0" cy="100" r="4" fill="black" />
<circle cx="902.0" cy="100" r="6" fill="none" stroke="black" stroke-width="2" />
<circle cx="902.0" cy="100" r="3" fill="black" />
<circle cx="914.0" cy="100" r="4" fill="black" />
<circle cx="926.0" cy="100" r="4" fill="black" />
<circle cx="938.0" cy="100" r="6" fill="none" stroke="black" stroke-width="2" />
<circle cx="938.0" cy="100" r="3" fill="black" />
<circle cx="950.0" cy="100" r="6" fill="none" stroke="black" stroke-width="2" />
<circle cx="950.0" cy="100" r="3" fill="black" />
<circle cx="962.0" cy="100" r="6" fill="none" stroke="black" stroke-width="2" />
<circle cx="962.0" cy="100" r="3" fill="black" />
<circle cx="974.0" cy="100" r="4" fill="black" />
<circle cx="986.0" cy="100" r="6" fill="none" stroke="red" stroke-width="2" />
<circle cx="986.0" cy="100" r="3" fill="red" />
<circle cx="998.0" cy="100" r="4" fill="black" />
<circle cx="1010.0" cy="100" r="4" fill="black" />
<circle cx="1022.0" cy="100" r="6" fill="none" stroke="black" stroke-width="2" />
<circle cx="1022.0" cy="100" r="3" fill="black" />
<circle cx="1034.0" cy="100" r="4" fill="black" />
<circle cx="1046.0" cy="100" r="4" fill="black" />
<circle cx="1058.0" cy="100" r="4" fill="red" />
<circle cx="1070.0" cy="100" r="6" fill="none" stroke="black" stroke-width="2" />
<circle cx="1070.0" cy="100" r="3" fill="black" />
<circle cx="1082.0" cy="100" r="4" fill="red" />
<circle cx="1094.0" cy="100" r="4" fill="black" />
<circle cx="1106.0" cy="100" r="4" fill="black" />
<circle cx="1118.0" cy="100" r="4" fill="black" />
<circle cx="1130.0" cy="100" r="4" fill="red" />
<circle cx="1142.0" cy="100" r="4" fill="black" />
<circle cx="1154.0" cy="100" r="6" fill="none" stroke="black" stroke-width="2" />
<circle cx="1154.0" cy="100" r="3" fill="black" />
<circle cx="1166.0" cy="100" r="6" fill="none" stroke="black" stroke-width="2" />
<circle cx="1166.0" cy="100" r="3" fill="black" />
<circle cx="1178.0" cy="100" r="6" fill="none" stroke="black" stroke-width="2" />
<circle cx="1178.0" cy="100" r="3" fill="black" />
<circle cx="1190.0" cy="100" r="6" fill="none" stroke="green" stroke-width="2" />
<circle cx="1190.0" cy="100" r="3" fill="green" />
<circle cx="1202.0" cy="100" r="4" fill="black" />
<circle cx="1214.0" cy="100" r="4" fill="red" />
<circle cx="1226.0" cy="100" r="4" fill="black" />
<circle cx="1238.0" cy="100" r="6" fill="none" stroke="blue" stroke-width="2" />
<circle cx="1238.0" cy="100" r="3" fill="blue" />
<circle cx="1250.0" cy="100" r="4" fill="black" />
<circle cx="1262.0" cy="100" r="6" fill="none" stroke="black" stroke-width="2" />
<circle cx="1262.0" cy="100" r="3" fill="black" />
<circle cx="1274.0" cy="100" r="4" fill="black" />
<circle cx="1286.0" cy="100" r="6" fill="none" stroke="black" stroke-width="2" />
<circle cx="1286.0" cy="100" r="3" fill="black" />
<circle cx="1298.0" cy="100" r="4" fill="black" />
<circle cx="1310.0" cy="100" r="4" fill="red" />
<circle cx="1322.0" cy="100" r="6" fill="none" stroke="black" stroke-width="2" />
<circle cx="1322.0" cy="100" r="3" fill="black" />
<circle cx="1334.0" cy="100" r="4" fill="black" />
<circle cx="1346.0" cy="100" r="6" fill="none" stroke="black" stroke-width="2" />
<circle cx="1346.0" cy="100" r="3" fill="black" />
<circle cx="1358.0" cy="100" r="4" fill="black" />
<circle cx="1370.0" cy="100" r="4" fill="red" />
<circle cx="1382.0" cy="100" r="6" fill="none" stroke="blue" stroke-width="2" />
<circle cx="1382.0" cy="100" r="3" fill="blue" />
<circle cx="1394.0" cy="100" r="4" fill="black" />
<circle cx="1406.0" cy="100" r="4" fill="red" />
<circle cx="1418.0" cy="100" r="6" fill="none" stroke="blue" stroke-width="2" />
<circle cx="1418.0" cy="100" r="3" fill="blue" />
<circle cx="1430.0" cy="100" r="4" fill="green" />
<circle cx="1442.0" cy="100" r="4" fill="red" />
<circle cx="1454.0" cy="100" r="4" fill="red" />
<circle cx="1466.0" cy="100" r="6" fill="none" stroke="black" stroke-width="2" />
<circle cx="1466.0" cy="100" r="3" fill="black" />
<circle cx="1478.0" cy="100" r="4" fill="black" />
<circle cx="1490.0" cy="100" r="4" fill="black" />
<circle cx="1502.0" cy="100" r="6" fill="none" stroke="green" stroke-width="2" />
<circle cx="1502.0" cy="100" r="3" fill="green" />
<circle cx="1514.0" cy="100" r="4" fill="black" />
<circle cx="1526.0" cy="100" r="4" fill="red" />
<circle cx="1538.0" cy="100" r="4" fill="red" />
<circle cx="1550.0" cy="100" r="4" fill="green" />
<circle cx="1562.0" cy="100" r="4" fill="black" />
<circle cx="1574.0" cy="100" r="4" fill="black" />
<circle cx="1586.0" cy="100" r="4" fill="black" />
<circle cx="1598.0" cy="100" r="4" fill="black" />
<circle cx="1610.0" cy="100" r="6" fill="none" stroke="red" stroke-width="2" />
<circle cx="1610.0" cy="100" r="3" fill="red" />
<circle cx="1622.0" cy="100" r="4" fill="red" />
<circle cx="1634.0" cy="100" r="4" fill="black" />
<circle cx="1646.0" cy="100" r="6" fill="none" stroke="red" stroke-width="2" />
<circle cx="1646.0" cy="100" r="3" fill="red" />
<circle cx="1658.0" cy="100" r="4" fill="red" />
<circle cx="1670.0" cy="100" r="6" fill="none" stroke="black" stroke-width="2" />
<circle cx="1670.0" cy="100" r="3" fill="black" />
<circle cx="1682.0" cy="100" r="4" fill="black" />
<circle cx="1694.0" cy="100" r="6" fill="none" stroke="black" stroke-width="2" />
<circle cx="1694.0" cy="100" r="3" fill="black" />
<circle cx="1706.0" cy="100" r="4" fill="black" />
<circle cx="1718.0" cy="100" r="4" fill="black" />
<circle cx="1730.0" cy="100" r="6" fill="none" stroke="green" stroke-width="2" />
<circle cx="1730.0" cy="100" r="3" fill="green" />
<circle cx="1742.0" cy="100" r="4" fill="black" />
<circle cx="1754.0" cy="100" r="4" fill="red" />
<circle cx="1766.0" cy="100" r="4" fill="black" />
<circle cx="1778.0" cy="100" r="6" fill="none" stroke="red" stroke-width="2" />
<circle cx="1778.0" cy="100" r="3" fill="red" />
<circle cx="1790.0" cy="100" r="4" fill="black" />
<circle cx="1802.0" cy="100" r="4" fill="red" />
<circle cx="1814.0" cy="100" r="4" fill="red" />
<circle cx="1826.0" cy="100" r="4" fill="red" />
<circle cx="1838.0" cy="100" r="4" fill="black" />
<circle cx="1850.0" cy="100" r="4" fill="black" />
<circle cx="1862.0" cy="100" r="4" fill="black" />
<circle cx="1874.0" cy="100" r="4" fill="black" />
<circle cx="1886.0" cy="100" r="6" fill="none" stroke="red" stroke-width="2" />
<circle cx="1886.0" cy="100" r="3" fill="red" />
<circle cx="1898.0" cy="100" r="6" fill="none" stroke="black" stroke-width="2" />
<circle cx="1898.0" cy="100" r="3" fill="black" />
<circle cx="1910.0" cy="100" r="4" fill="black" />
<circle cx="1922.0" cy="100" r="6" fill="none" stroke="black" stroke-width="2" />
<circle cx="1922.0" cy="100" r="3" fill="black" />
<circle cx="1934.0" cy="100" r="4" fill="black" />
<circle cx="1946.0" cy="100" r="4" fill="red" />
<circle cx="1958.0" cy="100" r="6" fill="none" stroke="blue" stroke-width="2" />
<circle cx="1958.0" cy="100" r="3" fill="blue" />
<circle cx="1970.0" cy="100" r="4" fill="blue" />
<circle cx="1982.0" cy="100" r="4" fill="green" />
<circle cx="1994.0" cy="100" r="4" fill="green" />
<circle cx="2006.0" cy="100" r="6" fill="none" stroke="blue" stroke-width="2" />
<circle cx="2006.0" cy="100" r="3" fill="blue" />
<circle cx="2018.0" cy="100" r="6" fill="none" stroke="blue" stroke-width="2" />
<circle cx="2018.0" cy="100" r="3" fill="blue" />
<circle cx="2030.0" cy="100" r="6" fill="none" stroke="blue" stroke-width="2" />
<circle cx="2030.0" cy="100" r="3" fill="blue" />
<text x="50" y="125" fill="gray" style="font-size:12px;">2023-12-29T17:29:06+00:00</text>
<text x="900" y="125" fill="gray" style="font-size:12px;">2025-02-22T15:05:14+00:00</text>
</svg>