<svg xmlns="http://www.w3.org/2000/svg" width="1000" height="400" style="background-color: white; font-family: sans-serif;">
<line x1="50" y1="200" x2="950" y2="200" stroke="gray" stroke-width="1"/>
<path d="M 62.0 200 Q 56.0 180, 50.0 200" stroke="black" fill="none" marker-end="url(#arrowhead)"/>
<path d="M 74.0 200 Q 62.0 180, 50.0 200" stroke="black" fill="none" marker-end="url(#arrowhead)"/>
<path d="M 86.0 200 Q 74.0 180, 62.0 200" stroke="black" fill="none" marker-end="url(#arrowhead)"/>
<path d="M 110.0 200 Q 86.0 180, 62.0 200" stroke="black" fill="none" marker-end="url(#arrowhead)"/>
<path d="M 110.0 200 Q 80.0 180, 50.0 200" stroke="black" fill="none" marker-end="url(#arrowhead)"/>
<path d="M 122.0 200 Q 116.0 180, 110.0 200" stroke="black" fill="none" marker-end="url(#arrowhead)"/>
<path d="M 134.0 200 Q 122.0 180, 110.0 200" stroke="black" fill="none" marker-end="url(#arrowhead)"/>
<path d="M 146.0 200 Q 140.0 180, 134.0 200" stroke="black" fill="none" marker-end="url(#arrowhead)"/>
<path d="M 158.0 200 Q 152.0 180, 146.0 200" stroke="black" fill="none" marker-end="url(#arrowhead)"/>
<path d="M 158.0 200 Q 128.0 180, 98.0 200" stroke="black" fill="none" marker-end="url(#arrowhead)"/>
<path d="M 170.0 200 Q 140.0 180, 110.0 200" stroke="black" fill="none" marker-end="url(#arrowhead)"/>
<path d="M 170.0 200 Q 146.0 180, 122.0 200" stroke="black" fill="none" marker-end="url(#arrowhead)"/>
<path d="M 182.0 200 Q 158.0 180, 134.0 200" stroke="black" fill="none" marker-end="url(#arrowhead)"/>
<path d="M 182.0 200 Q 146.0 180, 110.0 200" stroke="black" fill="none" marker-end="url(#arrowhead)"/>
<path d="M 194.0 200 Q 176.0 180, 158.0 200" stroke="black" fill="none" marker-end="url(#arrowhead)"/>
<path d="M 206.0 200 Q 188.0 180, 170.0 200" stroke="black" fill="none" marker-end="url(#arrowhead)"/>
<path d="M 206.0 200 Q 164.0 180, 122.0 200" stroke="black" fill="none" marker-end="url(#arrowhead)"/>
<path d="M 218.0 200 Q 158.0 180, 98.0 200" stroke="black" fill="none" marker-end="url(#arrowhead)"/>
<path d="M 218.0 200 Q 206.0 180, 194.0 200" stroke="black" fill="none" marker-end="url(#arrowhead)"/>
<path d="M 230.0 200 Q 188.0 180, 146.0 200" stroke="black" fill="none" marker-end="url(#arrowhead)"/>
<path d="M 230.0 200 Q 164.0 180, 98.0 200" stroke="black" fill="none" marker-end="url(#arrowhead)"/>
<path d="M 471.78661096655344 200 Q 260.8933054832767 180, 50.0 200" stroke="black" fill="none" marker-end="url(#arrowhead)"/>
<path d="M 483.78661096655344 200 Q 477.78661096655344 180, 471.78661096655344 200" stroke="black" fill="none" marker-end="url(#arrowhead)"/>
<path d="M 495.78661096655344 200 Q 483.78661096655344 180, 471.78661096655344 200" stroke="black" fill="none" marker-end="url(#arrowhead)"/>
<path d="M 635.1881111798128 200 Q 565.4873610731831 180, 495.78661096655344 200" stroke="black" fill="none" marker-end="url(#arrowhead)"/>
<path d="M 946.8090557132041 200 Q 790.9985834465085 180, 635.1881111798128 200" stroke="black" fill="none" marker-end="url(#arrowhead)"/>
<path d="M 958.8090557132041 200 Q 952.8090557132041 180, 946.8090557132041 200" stroke="black" fill="none" marker-end="url(#arrowhead)"/>
<path d="M 970.8090557132041 200 Q 964.8090557132041 180, 958.8090557132041 200" stroke="black" fill="none" marker-end="url(#arrowhead)"/>

<defs>
  <marker id="arrowhead" markerWidth="5" markerHeight="5" 
          refX="2" refY="2" orient="auto" fill="black">
    <path d="M0,0 L0,4 L4,2 z" />
  </marker>
</defs>

<circle cx="50.0" cy="200" r="6" fill="none" stroke="blue" stroke-width="2" />
<circle cx="50.0" cy="200" r="3" fill="blue" />
<circle cx="62.0" cy="200" r="4" fill="red" />
<circle cx="74.0" cy="200" r="4" fill="red" />
<circle cx="86.0" cy="200" r="4" fill="black" />
<circle cx="98.0" cy="200" r="4" fill="green" />
<circle cx="110.0" cy="200" r="4" fill="black" />
<circle cx="122.0" cy="200" r="4" fill="red" />
<circle cx="134.0" cy="200" r="4" fill="black" />
<circle cx="146.0" cy="200" r="4" fill="black" />
<circle cx="158.0" cy="200" r="4" fill="black" />
<circle cx="170.0" cy="200" r="4" fill="black" />
<circle cx="182.0" cy="200" r="4" fill="black" />
<circle cx="194.0" cy="200" r="4" fill="red" />
<circle cx="206.0" cy="200" r="4" fill="red" />
<circle cx="218.0" cy="200" r="4" fill="black" />
<circle cx="230.0" cy="200" r="6" fill="none" stroke="blue" stroke-width="2" />
<circle cx="230.0" cy="200" r="3" fill="blue" />
<circle cx="471.78661096655344" cy="200" r="4" fill="red" />
<circle cx="483.78661096655344" cy="200" r="4" fill="red" />
<circle cx="495.78661096655344" cy="200" r="6" fill="none" stroke="blue" stroke-width="2" />
<circle cx="495.78661096655344" cy="200" r="3" fill="blue" />
<circle cx="635.1881111798128" cy="200" r="4" fill="blue" />
<circle cx="946.8090557132041" cy="200" r="4" fill="blue" />
<circle cx="958.8090557132041" cy="200" r="4" fill="blue" />
<circle cx="970.8090557132041" cy="200" r="4" fill="blue" />
<text x="50" y="225" fill="gray" style="font-size:12px;">2025-02-11T18:52:34+00:00</text>
<text x="900" y="225" fill="gray" style="font-size:12px;">2025-02-24T11:01:05+00:00</text>
</svg>