<svg xmlns="http://www.w3.org/2000/svg" width="1000" height="200" style="background-color: white; font-family: sans-serif;">
<line x1="50" y1="100" x2="950" y2="100" stroke="gray" stroke-width="1"/>
<path d="M 62.0 100 Q 56.0 80, 50.0 100" stroke="black" fill="none" marker-end="url(#arrowhead)"/>
<path d="M 74.0 100 Q 68.0 80, 62.0 100" stroke="black" fill="none" marker-end="url(#arrowhead)"/>
<path d="M 86.0 100 Q 74.0 80, 62.0 100" stroke="black" fill="none" marker-end="url(#arrowhead)"/>
<path d="M 110.0 100 Q 92.0 80, 74.0 100" stroke="black" fill="none" marker-end="url(#arrowhead)"/>
<path d="M 574.29667362908 100 Q 336.14833681454 80, 98.0 100" stroke="black" fill="none" marker-end="url(#arrowhead)"/>
<path d="M 586.29667362908 100 Q 580.29667362908 80, 574.29667362908 100" stroke="black" fill="none" marker-end="url(#arrowhead)"/>
<path d="M 586.29667362908 100 Q 342.14833681454 80, 98.0 100" stroke="black" fill="none" marker-end="url(#arrowhead)"/>
<path d="M 949.9349066309193 100 Q 762.1157901299996 80, 574.29667362908 100" stroke="black" fill="none" marker-end="url(#arrowhead)"/>
<path d="M 949.9349066309193 100 Q 523.9674533154596 80, 98.0 100" stroke="black" fill="none" marker-end="url(#arrowhead)"/>

<defs>
  <marker id="arrowhead" markerWidth="5" markerHeight="5" 
          refX="2" refY="2" orient="auto" fill="black">
    <path d="M0,0 L0,4 L4,2 z" />
  </marker>
</defs>

<circle cx="50.0" cy="100" r="6" fill="none" stroke="blue" stroke-width="2" />
<circle cx="50.0" cy="100" r="3" fill="blue" />
<circle cx="62.0" cy="100" r="4" fill="black" />
<circle cx="74.0" cy="100" r="4" fill="black" />
<circle cx="86.0" cy="100" r="4" fill="green" />
<circle cx="98.0" cy="100" r="6" fill="none" stroke="black" stroke-width="2" />
<circle cx="98.0" cy="100" r="3" fill="black" />
<circle cx="110.0" cy="100" r="6" fill="none" stroke="black" stroke-width="2" />
<circle cx="110.0" cy="100" r="3" fill="black" />
<circle cx="574.29667362908" cy="100" r="6" fill="none" stroke="red" stroke-width="2" />
<circle cx="574.29667362908" cy="100" r="3" fill="red" />
<circle cx="586.29667362908" cy="100" r="4" fill="red" />
<circle cx="949.9349066309193" cy="100" r="4" fill="black" />
<circle cx="961.9349066309193" cy="100" r="4" fill="green" />
<text x="50" y="125" fill="gray" style="font-size:12px;">2024-10-30T13:58:44+00:00</text>
<text x="900" y="125" fill="gray" style="font-size:12px;">2025-01-31T09:32:54+00:00</text>
</svg>