<svg xmlns="http://www.w3.org/2000/svg" width="1000" height="400" style="background-color: white; font-family: sans-serif;">
<line x1="50" y1="200" x2="950" y2="200" stroke="gray" stroke-width="1"/>
<path d="M 62.0 200 Q 56.0 180, 50.0 200" stroke="black" fill="none" marker-end="url(#arrowhead)"/>
<path d="M 74.0 200 Q 68.0 180, 62.0 200" stroke="black" fill="none" marker-end="url(#arrowhead)"/>
<path d="M 86.0 200 Q 74.0 180, 62.0 200" stroke="black" fill="none" marker-end="url(#arrowhead)"/>
<path d="M 110.0 200 Q 92.0 180, 74.0 200" stroke="black" fill="none" marker-end="url(#arrowhead)"/>
<path d="M 574.29667362908 200 Q 336.14833681454 180, 98.0 200" stroke="black" fill="none" marker-end="url(#arrowhead)"/>
<path d="M 586.29667362908 200 Q 580.29667362908 180, 574.29667362908 200" stroke="black" fill="none" marker-end="url(#arrowhead)"/>
<path d="M 586.29667362908 200 Q 342.14833681454 180, 98.0 200" stroke="black" fill="none" marker-end="url(#arrowhead)"/>
<path d="M 949.9349066309193 200 Q 762.1157901299996 180, 574.29667362908 200" stroke="black" fill="none" marker-end="url(#arrowhead)"/>
<path d="M 949.9349066309193 200 Q 523.9674533154596 180, 98.0 200" stroke="black" fill="none" marker-end="url(#arrowhead)"/>

<defs>
  <marker id="arrowhead" markerWidth="5" markerHeight="5" 
          refX="2" refY="2" orient="auto" fill="black">
    <path d="M0,0 L0,4 L4,2 z" />
  </marker>
</defs>

<circle cx="50.0" cy="200" r="6" fill="none" stroke="blue" stroke-width="2" />
<circle cx="50.0" cy="200" r="3" fill="blue" />
<circle cx="62.0" cy="200" r="4" fill="black" />
<circle cx="74.0" cy="200" r="4" fill="black" />
<circle cx="86.0" cy="200" r="4" fill="green" />
<circle cx="98.0" cy="200" r="6" fill="none" stroke="black" stroke-width="2" />
<circle cx="98.0" cy="200" r="3" fill="black" />
<circle cx="110.0" cy="200" r="6" fill="none" stroke="black" stroke-width="2" />
<circle cx="110.0" cy="200" r="3" fill="black" />
<circle cx="574.29667362908" cy="200" r="6" fill="none" stroke="red" stroke-width="2" />
<circle cx="574.29667362908" cy="200" r="3" fill="red" />
<circle cx="586.29667362908" cy="200" r="4" fill="red" />
<circle cx="949.9349066309193" cy="200" r="4" fill="black" />
<circle cx="961.9349066309193" cy="200" r="4" fill="green" />
<text x="50" y="225" fill="gray" style="font-size:12px;">2024-10-30T13:58:44+00:00</text>
<text x="900" y="225" fill="gray" style="font-size:12px;">2025-01-31T09:32:54+00:00</text>
</svg>