<svg xmlns="http://www.w3.org/2000/svg" width="1000" height="400" style="background-color: white; font-family: sans-serif;">
<line x1="50" y1="200" x2="950" y2="200" stroke="gray" stroke-width="1"/>
<path d="M 62.0 200 Q 56.0 180, 50.0 200" stroke="black" fill="none" marker-end="url(#arrowhead)"/>
<path d="M 74.0 200 Q 62.0 180, 50.0 200" stroke="black" fill="none" marker-end="url(#arrowhead)"/>
<path d="M 86.0 200 Q 68.0 180, 50.0 200" stroke="black" fill="none" marker-end="url(#arrowhead)"/>
<path d="M 110.0 200 Q 104.0 180, 98.0 200" stroke="black" fill="none" marker-end="url(#arrowhead)"/>
<path d="M 122.0 200 Q 98.0 180, 74.0 200" stroke="black" fill="none" marker-end="url(#arrowhead)"/>
<path d="M 134.0 200 Q 122.0 180, 110.0 200" stroke="black" fill="none" marker-end="url(#arrowhead)"/>
<path d="M 134.0 200 Q 110.0 180, 86.0 200" stroke="black" fill="none" marker-end="url(#arrowhead)"/>
<path d="M 158.0 200 Q 152.0 180, 146.0 200" stroke="black" fill="none" marker-end="url(#arrowhead)"/>
<path d="M 170.0 200 Q 164.0 180, 158.0 200" stroke="black" fill="none" marker-end="url(#arrowhead)"/>
<path d="M 182.0 200 Q 152.0 180, 122.0 200" stroke="black" fill="none" marker-end="url(#arrowhead)"/>
<path d="M 194.0 200 Q 140.0 180, 86.0 200" stroke="black" fill="none" marker-end="url(#arrowhead)"/>
<path d="M 206.0 200 Q 200.0 180, 194.0 200" stroke="black" fill="none" marker-end="url(#arrowhead)"/>
<path d="M 218.0 200 Q 212.0 180, 206.0 200" stroke="black" fill="none" marker-end="url(#arrowhead)"/>
<path d="M 254.0 200 Q 248.0 180, 242.0 200" stroke="black" fill="none" marker-end="url(#arrowhead)"/>
<path d="M 254.0 200 Q 230.0 180, 206.0 200" stroke="black" fill="none" marker-end="url(#arrowhead)"/>
<path d="M 266.0 200 Q 260.0 180, 254.0 200" stroke="black" fill="none" marker-end="url(#arrowhead)"/>
<path d="M 278.0 200 Q 272.0 180, 266.0 200" stroke="black" fill="none" marker-end="url(#arrowhead)"/>
<path d="M 290.0 200 Q 284.0 180, 278.0 200" stroke="black" fill="none" marker-end="url(#arrowhead)"/>
<path d="M 302.0 200 Q 296.0 180, 290.0 200" stroke="black" fill="none" marker-end="url(#arrowhead)"/>
<path d="M 314.0 200 Q 284.0 180, 254.0 200" stroke="black" fill="none" marker-end="url(#arrowhead)"/>
<path d="M 326.0 200 Q 296.0 180, 266.0 200" stroke="black" fill="none" marker-end="url(#arrowhead)"/>
<path d="M 326.0 200 Q 302.0 180, 278.0 200" stroke="black" fill="none" marker-end="url(#arrowhead)"/>
<path d="M 338.0 200 Q 332.0 180, 326.0 200" stroke="black" fill="none" marker-end="url(#arrowhead)"/>
<path d="M 350.0 200 Q 302.0 180, 254.0 200" stroke="black" fill="none" marker-end="url(#arrowhead)"/>
<path d="M 374.0 200 Q 362.0 180, 350.0 200" stroke="black" fill="none" marker-end="url(#arrowhead)"/>
<path d="M 386.0 200 Q 380.0 180, 374.0 200" stroke="black" fill="none" marker-end="url(#arrowhead)"/>
<path d="M 398.0 200 Q 392.0 180, 386.0 200" stroke="black" fill="none" marker-end="url(#arrowhead)"/>
<path d="M 410.0 200 Q 404.0 180, 398.0 200" stroke="black" fill="none" marker-end="url(#arrowhead)"/>
<path d="M 422.0 200 Q 416.0 180, 410.0 200" stroke="black" fill="none" marker-end="url(#arrowhead)"/>
<path d="M 434.0 200 Q 428.0 180, 422.0 200" stroke="black" fill="none" marker-end="url(#arrowhead)"/>
<path d="M 446.0 200 Q 440.0 180, 434.0 200" stroke="black" fill="none" marker-end="url(#arrowhead)"/>
<path d="M 458.0 200 Q 452.0 180, 446.0 200" stroke="black" fill="none" marker-end="url(#arrowhead)"/>
<path d="M 482.0 200 Q 476.0 180, 470.0 200" stroke="black" fill="none" marker-end="url(#arrowhead)"/>
<path d="M 530.0 200 Q 524.0 180, 518.0 200" stroke="black" fill="none" marker-end="url(#arrowhead)"/>
<path d="M 542.0 200 Q 524.0 180, 506.0 200" stroke="black" fill="none" marker-end="url(#arrowhead)"/>
<path d="M 554.0 200 Q 548.0 180, 542.0 200" stroke="black" fill="none" marker-end="url(#arrowhead)"/>
<path d="M 566.0 200 Q 560.0 180, 554.0 200" stroke="black" fill="none" marker-end="url(#arrowhead)"/>
<path d="M 578.0 200 Q 572.0 180, 566.0 200" stroke="black" fill="none" marker-end="url(#arrowhead)"/>
<path d="M 590.0 200 Q 578.0 180, 566.0 200" stroke="black" fill="none" marker-end="url(#arrowhead)"/>
<path d="M 602.0 200 Q 590.0 180, 578.0 200" stroke="black" fill="none" marker-end="url(#arrowhead)"/>
<path d="M 626.0 200 Q 614.0 180, 602.0 200" stroke="black" fill="none" marker-end="url(#arrowhead)"/>
<path d="M 638.0 200 Q 608.0 180, 578.0 200" stroke="black" fill="none" marker-end="url(#arrowhead)"/>
<path d="M 650.0 200 Q 620.0 180, 590.0 200" stroke="black" fill="none" marker-end="url(#arrowhead)"/>
<path d="M 662.0 200 Q 638.0 180, 614.0 200" stroke="black" fill="none" marker-end="url(#arrowhead)"/>
<path d="M 674.0 200 Q 668.0 180, 662.0 200" stroke="black" fill="none" marker-end="url(#arrowhead)"/>
<path d="M 686.0 200 Q 668.0 180, 650.0 200" stroke="black" fill="none" marker-end="url(#arrowhead)"/>
<path d="M 698.0 200 Q 692.0 180, 686.0 200" stroke="black" fill="none" marker-end="url(#arrowhead)"/>
<path d="M 710.0 200 Q 698.0 180, 686.0 200" stroke="black" fill="none" marker-end="url(#arrowhead)"/>
<path d="M 710.0 200 Q 704.0 180, 698.0 200" stroke="black" fill="none" marker-end="url(#arrowhead)"/>
<path d="M 722.0 200 Q 704.0 180, 686.0 200" stroke="black" fill="none" marker-end="url(#arrowhead)"/>
<path d="M 734.0 200 Q 716.0 180, 698.0 200" stroke="black" fill="none" marker-end="url(#arrowhead)"/>
<path d="M 746.0 200 Q 728.0 180, 710.0 200" stroke="black" fill="none" marker-end="url(#arrowhead)"/>
<path d="M 758.0 200 Q 740.0 180, 722.0 200" stroke="black" fill="none" marker-end="url(#arrowhead)"/>
<path d="M 770.0 200 Q 746.0 180, 722.0 200" stroke="black" fill="none" marker-end="url(#arrowhead)"/>
<path d="M 782.0 200 Q 710.0 180, 638.0 200" stroke="black" fill="none" marker-end="url(#arrowhead)"/>
<path d="M 794.0 200 Q 782.0 180, 770.0 200" stroke="black" fill="none" marker-end="url(#arrowhead)"/>
<path d="M 806.0 200 Q 800.0 180, 794.0 200" stroke="black" fill="none" marker-end="url(#arrowhead)"/>
<path d="M 818.0 200 Q 806.0 180, 794.0 200" stroke="black" fill="none" marker-end="url(#arrowhead)"/>
<path d="M 818.0 200 Q 812.0 180, 806.0 200" stroke="black" fill="none" marker-end="url(#arrowhead)"/>
<path d="M 830.0 200 Q 824.0 180, 818.0 200" stroke="black" fill="none" marker-end="url(#arrowhead)"/>
<path d="M 842.0 200 Q 830.0 180, 818.0 200" stroke="black" fill="none" marker-end="url(#arrowhead)"/>
<path d="M 854.0 200 Q 848.0 180, 842.0 200" stroke="black" fill="none" marker-end="url(#arrowhead)"/>
<path d="M 866.0 200 Q 860.0 180, 854.0 200" stroke="black" fill="none" marker-end="url(#arrowhead)"/>
<path d="M 878.0 200 Q 872.0 180, 866.0 200" stroke="black" fill="none" marker-end="url(#arrowhead)"/>
<path d="M 890.0 200 Q 878.0 180, 866.0 200" stroke="black" fill="none" marker-end="url(#arrowhead)"/>
<path d="M 902.0 200 Q 896.0 180, 890.0 200" stroke="black" fill="none" marker-end="url(#arrowhead)"/>
<path d="M 902.0 200 Q 872.0 180, 842.0 200" stroke="black" fill="none" marker-end="url(#arrowhead)"/>
<path d="M 914.0 200 Q 908.0 180, 902.0 200" stroke="black" fill="none" marker-end="url(#arrowhead)"/>
<path d="M 926.0 200 Q 914.0 180, 902.0 200" stroke="black" fill="none" marker-end="url(#arrowhead)"/>
<path d="M 938.0 200 Q 926.0 180, 914.0 200" stroke="black" fill="none" marker-end="url(#arrowhead)"/>
<path d="M 950.0 200 Q 938.0 180, 926.0 200" stroke="black" fill="none" marker-end="url(#arrowhead)"/>
<path d="M 962.0 200 Q 824.0 180, 686.0 200" stroke="black" fill="none" marker-end="url(#arrowhead)"/>
<path d="M 962.0 200 Q 830.0 180, 698.0 200" stroke="black" fill="none" marker-end="url(#arrowhead)"/>
<path d="M 974.0 200 Q 968.0 180, 962.0 200" stroke="black" fill="none" marker-end="url(#arrowhead)"/>
<path d="M 986.0 200 Q 980.0 180, 974.0 200" stroke="black" fill="none" marker-end="url(#arrowhead)"/>
<path d="M 998.0 200 Q 992.0 180, 986.0 200" stroke="black" fill="none" marker-end="url(#arrowhead)"/>
<path d="M 1010.0 200 Q 1004.0 180, 998.0 200" stroke="black" fill="none" marker-end="url(#arrowhead)"/>
<path d="M 1022.0 200 Q 1010.0 180, 998.0 200" stroke="black" fill="none" marker-end="url(#arrowhead)"/>
<path d="M 1034.0 200 Q 1022.0 180, 1010.0 200" stroke="black" fill="none" marker-end="url(#arrowhead)"/>
<path d="M 1046.0 200 Q 1040.0 180, 1034.0 200" stroke="black" fill="none" marker-end="url(#arrowhead)"/>
<path d="M 1058.0 200 Q 1052.0 180, 1046.0 200" stroke="black" fill="none" marker-end="url(#arrowhead)"/>
<path d="M 1070.0 200 Q 1064.0 180, 1058.0 200" stroke="black" fill="none" marker-end="url(#arrowhead)"/>
<path d="M 1082.0 200 Q 1070.0 180, 1058.0 200" stroke="black" fill="none" marker-end="url(#arrowhead)"/>
<path d="M 1082.0 200 Q 1076.0 180, 1070.0 200" stroke="black" fill="none" marker-end="url(#arrowhead)"/>
<path d="M 1094.0 200 Q 1088.0 180, 1082.0 200" stroke="black" fill="none" marker-end="url(#arrowhead)"/>
<path d="M 1106.0 200 Q 1100.0 180, 1094.0 200" stroke="black" fill="none" marker-end="url(#arrowhead)"/>
<path d="M 1118.0 200 Q 1100.0 180, 1082.0 200" stroke="black" fill="none" marker-end="url(#arrowhead)"/>
<path d="M 1130.0 200 Q 1124.0 180, 1118.0 200" stroke="black" fill="none" marker-end="url(#arrowhead)"/>
<path d="M 1142.0 200 Q 1136.0 180, 1130.0 200" stroke="black" fill="none" marker-end="url(#arrowhead)"/>
<path d="M 1154.0 200 Q 1148.0 180, 1142.0 200" stroke="black" fill="none" marker-end="url(#arrowhead)"/>
<path d="M 1166.0 200 Q 1136.0 180, 1106.0 200" stroke="black" fill="none" marker-end="url(#arrowhead)"/>
<path d="M 1178.0 200 Q 1130.0 180, 1082.0 200" stroke="black" fill="none" marker-end="url(#arrowhead)"/>
<path d="M 1178.0 200 Q 632.0 180, 86.0 200" stroke="black" fill="none" marker-end="url(#arrowhead)"/>
<path d="M 1190.0 200 Q 1184.0 180, 1178.0 200" stroke="black" fill="none" marker-end="url(#arrowhead)"/>
<path d="M 1202.0 200 Q 1190.0 180, 1178.0 200" stroke="black" fill="none" marker-end="url(#arrowhead)"/>
<path d="M 1214.0 200 Q 1184.0 180, 1154.0 200" stroke="black" fill="none" marker-end="url(#arrowhead)"/>
<path d="M 1226.0 200 Q 1202.0 180, 1178.0 200" stroke="black" fill="none" marker-end="url(#arrowhead)"/>
<path d="M 1238.0 200 Q 1226.0 180, 1214.0 200" stroke="black" fill="none" marker-end="url(#arrowhead)"/>
<path d="M 1238.0 200 Q 1232.0 180, 1226.0 200" stroke="black" fill="none" marker-end="url(#arrowhead)"/>
<path d="M 1250.0 200 Q 1244.0 180, 1238.0 200" stroke="black" fill="none" marker-end="url(#arrowhead)"/>
<path d="M 1262.0 200 Q 1256.0 180, 1250.0 200" stroke="black" fill="none" marker-end="url(#arrowhead)"/>
<path d="M 1274.0 200 Q 1268.0 180, 1262.0 200" stroke="black" fill="none" marker-end="url(#arrowhead)"/>
<path d="M 1286.0 200 Q 1280.0 180, 1274.0 200" stroke="black" fill="none" marker-end="url(#arrowhead)"/>
<path d="M 1298.0 200 Q 1292.0 180, 1286.0 200" stroke="black" fill="none" marker-end="url(#arrowhead)"/>
<path d="M 1310.0 200 Q 1304.0 180, 1298.0 200" stroke="black" fill="none" marker-end="url(#arrowhead)"/>
<path d="M 1322.0 200 Q 1310.0 180, 1298.0 200" stroke="black" fill="none" marker-end="url(#arrowhead)"/>
<path d="M 1334.0 200 Q 1328.0 180, 1322.0 200" stroke="black" fill="none" marker-end="url(#arrowhead)"/>
<path d="M 1346.0 200 Q 1340.0 180, 1334.0 200" stroke="black" fill="none" marker-end="url(#arrowhead)"/>
<path d="M 1358.0 200 Q 1352.0 180, 1346.0 200" stroke="black" fill="none" marker-end="url(#arrowhead)"/>
<path d="M 1370.0 200 Q 1304.0 180, 1238.0 200" stroke="black" fill="none" marker-end="url(#arrowhead)"/>
<path d="M 1382.0 200 Q 1376.0 180, 1370.0 200" stroke="black" fill="none" marker-end="url(#arrowhead)"/>
<path d="M 1394.0 200 Q 1388.0 180, 1382.0 200" stroke="black" fill="none" marker-end="url(#arrowhead)"/>
<path d="M 1406.0 200 Q 1394.0 180, 1382.0 200" stroke="black" fill="none" marker-end="url(#arrowhead)"/>
<path d="M 1418.0 200 Q 1412.0 180, 1406.0 200" stroke="black" fill="none" marker-end="url(#arrowhead)"/>
<path d="M 1430.0 200 Q 1424.0 180, 1418.0 200" stroke="black" fill="none" marker-end="url(#arrowhead)"/>
<path d="M 1442.0 200 Q 1418.0 180, 1394.0 200" stroke="black" fill="none" marker-end="url(#arrowhead)"/>
<path d="M 1442.0 200 Q 1424.0 180, 1406.0 200" stroke="black" fill="none" marker-end="url(#arrowhead)"/>
<path d="M 1442.0 200 Q 1430.0 180, 1418.0 200" stroke="black" fill="none" marker-end="url(#arrowhead)"/>
<path d="M 1442.0 200 Q 1412.0 180, 1382.0 200" stroke="black" fill="none" marker-end="url(#arrowhead)"/>
<path d="M 1454.0 200 Q 1448.0 180, 1442.0 200" stroke="black" fill="none" marker-end="url(#arrowhead)"/>
<path d="M 1466.0 200 Q 1460.0 180, 1454.0 200" stroke="black" fill="none" marker-end="url(#arrowhead)"/>
<path d="M 1478.0 200 Q 1460.0 180, 1442.0 200" stroke="black" fill="none" marker-end="url(#arrowhead)"/>
<path d="M 1490.0 200 Q 1484.0 180, 1478.0 200" stroke="black" fill="none" marker-end="url(#arrowhead)"/>
<path d="M 1490.0 200 Q 1466.0 180, 1442.0 200" stroke="black" fill="none" marker-end="url(#arrowhead)"/>
<path d="M 1502.0 200 Q 1496.0 180, 1490.0 200" stroke="black" fill="none" marker-end="url(#arrowhead)"/>
<path d="M 1514.0 200 Q 1502.0 180, 1490.0 200" stroke="black" fill="none" marker-end="url(#arrowhead)"/>
<path d="M 1526.0 200 Q 1496.0 180, 1466.0 200" stroke="black" fill="none" marker-end="url(#arrowhead)"/>
<path d="M 1526.0 200 Q 1238.0 180, 950.0 200" stroke="black" fill="none" marker-end="url(#arrowhead)"/>
<path d="M 1550.0 200 Q 1544.0 180, 1538.0 200" stroke="black" fill="none" marker-end="url(#arrowhead)"/>
<path d="M 1550.0 200 Q 1250.0 180, 950.0 200" stroke="black" fill="none" marker-end="url(#arrowhead)"/>
<path d="M 1562.0 200 Q 1556.0 180, 1550.0 200" stroke="black" fill="none" marker-end="url(#arrowhead)"/>
<path d="M 1574.0 200 Q 1562.0 180, 1550.0 200" stroke="black" fill="none" marker-end="url(#arrowhead)"/>
<path d="M 1574.0 200 Q 1568.0 180, 1562.0 200" stroke="black" fill="none" marker-end="url(#arrowhead)"/>
<path d="M 1586.0 200 Q 1580.0 180, 1574.0 200" stroke="black" fill="none" marker-end="url(#arrowhead)"/>
<path d="M 1598.0 200 Q 1592.0 180, 1586.0 200" stroke="black" fill="none" marker-end="url(#arrowhead)"/>
<path d="M 1610.0 200 Q 1568.0 180, 1526.0 200" stroke="black" fill="none" marker-end="url(#arrowhead)"/>
<path d="M 1622.0 200 Q 1616.0 180, 1610.0 200" stroke="black" fill="none" marker-end="url(#arrowhead)"/>
<path d="M 1634.0 200 Q 1628.0 180, 1622.0 200" stroke="black" fill="none" marker-end="url(#arrowhead)"/>
<path d="M 1646.0 200 Q 1634.0 180, 1622.0 200" stroke="black" fill="none" marker-end="url(#arrowhead)"/>
<path d="M 1658.0 200 Q 1652.0 180, 1646.0 200" stroke="black" fill="none" marker-end="url(#arrowhead)"/>
<path d="M 1670.0 200 Q 1664.0 180, 1658.0 200" stroke="black" fill="none" marker-end="url(#arrowhead)"/>
<path d="M 1682.0 200 Q 1676.0 180, 1670.0 200" stroke="black" fill="none" marker-end="url(#arrowhead)"/>
<path d="M 1694.0 200 Q 1688.0 180, 1682.0 200" stroke="black" fill="none" marker-end="url(#arrowhead)"/>
<path d="M 1706.0 200 Q 1688.0 180, 1670.0 200" stroke="black" fill="none" marker-end="url(#arrowhead)"/>
<path d="M 1706.0 200 Q 1694.0 180, 1682.0 200" stroke="black" fill="none" marker-end="url(#arrowhead)"/>
<path d="M 1718.0 200 Q 1712.0 180, 1706.0 200" stroke="black" fill="none" marker-end="url(#arrowhead)"/>
<path d="M 1730.0 200 Q 1724.0 180, 1718.0 200" stroke="black" fill="none" marker-end="url(#arrowhead)"/>
<path d="M 1742.0 200 Q 1736.0 180, 1730.0 200" stroke="black" fill="none" marker-end="url(#arrowhead)"/>
<path d="M 1754.0 200 Q 1748.0 180, 1742.0 200" stroke="black" fill="none" marker-end="url(#arrowhead)"/>
<path d="M 1790.0 200 Q 1778.0 180, 1766.0 200" stroke="black" fill="none" marker-end="url(#arrowhead)"/>
<path d="M 1802.0 200 Q 1202.0 180, 602.0 200" stroke="black" fill="none" marker-end="url(#arrowhead)"/>
<path d="M 1802.0 200 Q 1748.0 180, 1694.0 200" stroke="black" fill="none" marker-end="url(#arrowhead)"/>
<path d="M 1826.0 200 Q 1814.0 180, 1802.0 200" stroke="black" fill="none" marker-end="url(#arrowhead)"/>
<path d="M 1838.0 200 Q 1772.0 180, 1706.0 200" stroke="black" fill="none" marker-end="url(#arrowhead)"/>
<path d="M 1850.0 200 Q 1844.0 180, 1838.0 200" stroke="black" fill="none" marker-end="url(#arrowhead)"/>
<path d="M 1874.0 200 Q 1868.0 180, 1862.0 200" stroke="black" fill="none" marker-end="url(#arrowhead)"/>
<path d="M 1874.0 200 Q 1820.0 180, 1766.0 200" stroke="black" fill="none" marker-end="url(#arrowhead)"/>
<path d="M 1898.0 200 Q 1868.0 180, 1838.0 200" stroke="black" fill="none" marker-end="url(#arrowhead)"/>
<path d="M 1910.0 200 Q 1904.0 180, 1898.0 200" stroke="black" fill="none" marker-end="url(#arrowhead)"/>
<path d="M 1922.0 200 Q 1916.0 180, 1910.0 200" stroke="black" fill="none" marker-end="url(#arrowhead)"/>
<path d="M 1934.0 200 Q 1442.0 180, 950.0 200" stroke="black" fill="none" marker-end="url(#arrowhead)"/>
<path d="M 1934.0 200 Q 1928.0 180, 1922.0 200" stroke="black" fill="none" marker-end="url(#arrowhead)"/>
<path d="M 1946.0 200 Q 1940.0 180, 1934.0 200" stroke="black" fill="none" marker-end="url(#arrowhead)"/>
<path d="M 1958.0 200 Q 1952.0 180, 1946.0 200" stroke="black" fill="none" marker-end="url(#arrowhead)"/>
<path d="M 1970.0 200 Q 1964.0 180, 1958.0 200" stroke="black" fill="none" marker-end="url(#arrowhead)"/>
<path d="M 1982.0 200 Q 1976.0 180, 1970.0 200" stroke="black" fill="none" marker-end="url(#arrowhead)"/>
<path d="M 1994.0 200 Q 1472.0 180, 950.0 200" stroke="black" fill="none" marker-end="url(#arrowhead)"/>
<path d="M 1994.0 200 Q 1988.0 180, 1982.0 200" stroke="black" fill="none" marker-end="url(#arrowhead)"/>
<path d="M 2006.0 200 Q 2000.0 180, 1994.0 200" stroke="black" fill="none" marker-end="url(#arrowhead)"/>
<path d="M 2030.0 200 Q 2024.0 180, 2018.0 200" stroke="black" fill="none" marker-end="url(#arrowhead)"/>

<defs>
  <marker id="arrowhead" markerWidth="5" markerHeight="5" 
          refX="2" refY="2" orient="auto" fill="black">
    <path d="M0,0 L0,4 L4,2 z" />
  </marker>
</defs>

<circle cx="50.0" cy="200" r="6" fill="none" stroke="blue" stroke-width="2" />
<circle cx="50.0" cy="200" r="3" fill="blue" />
<circle cx="62.0" cy="200" r="4" fill="black" />
<circle cx="74.0" cy="200" r="4" fill="black" />
<circle cx="86.0" cy="200" r="4" fill="red" />
<circle cx="98.0" cy="200" r="4" fill="black" />
<circle cx="110.0" cy="200" r="4" fill="black" />
<circle cx="122.0" cy="200" r="6" fill="none" stroke="blue" stroke-width="2" />
<circle cx="122.0" cy="200" r="3" fill="blue" />
<circle cx="134.0" cy="200" r="6" fill="none" stroke="red" stroke-width="2" />
<circle cx="134.0" cy="200" r="3" fill="red" />
<circle cx="146.0" cy="200" r="6" fill="none" stroke="black" stroke-width="2" />
<circle cx="146.0" cy="200" r="3" fill="black" />
<circle cx="158.0" cy="200" r="4" fill="black" />
<circle cx="170.0" cy="200" r="6" fill="none" stroke="red" stroke-width="2" />
<circle cx="170.0" cy="200" r="3" fill="red" />
<circle cx="182.0" cy="200" r="6" fill="none" stroke="blue" stroke-width="2" />
<circle cx="182.0" cy="200" r="3" fill="blue" />
<circle cx="194.0" cy="200" r="4" fill="black" />
<circle cx="206.0" cy="200" r="6" fill="none" stroke="black" stroke-width="2" />
<circle cx="206.0" cy="200" r="3" fill="black" />
<circle cx="218.0" cy="200" r="4" fill="black" />
<circle cx="230.0" cy="200" r="6" fill="none" stroke="blue" stroke-width="2" />
<circle cx="230.0" cy="200" r="3" fill="blue" />
<circle cx="242.0" cy="200" r="6" fill="none" stroke="blue" stroke-width="2" />
<circle cx="242.0" cy="200" r="3" fill="blue" />
<circle cx="254.0" cy="200" r="4" fill="red" />
<circle cx="266.0" cy="200" r="4" fill="black" />
<circle cx="278.0" cy="200" r="4" fill="black" />
<circle cx="290.0" cy="200" r="6" fill="none" stroke="black" stroke-width="2" />
<circle cx="290.0" cy="200" r="3" fill="black" />
<circle cx="302.0" cy="200" r="4" fill="black" />
<circle cx="314.0" cy="200" r="6" fill="none" stroke="black" stroke-width="2" />
<circle cx="314.0" cy="200" r="3" fill="black" />
<circle cx="326.0" cy="200" r="4" fill="black" />
<circle cx="338.0" cy="200" r="4" fill="black" />
<circle cx="350.0" cy="200" r="6" fill="none" stroke="blue" stroke-width="2" />
<circle cx="350.0" cy="200" r="3" fill="blue" />
<circle cx="362.0" cy="200" r="6" fill="none" stroke="blue" stroke-width="2" />
<circle cx="362.0" cy="200" r="3" fill="blue" />
<circle cx="374.0" cy="200" r="4" fill="black" />
<circle cx="386.0" cy="200" r="6" fill="none" stroke="black" stroke-width="2" />
<circle cx="386.0" cy="200" r="3" fill="black" />
<circle cx="398.0" cy="200" r="6" fill="none" stroke="black" stroke-width="2" />
<circle cx="398.0" cy="200" r="3" fill="black" />
<circle cx="410.0" cy="200" r="6" fill="none" stroke="blue" stroke-width="2" />
<circle cx="410.0" cy="200" r="3" fill="blue" />
<circle cx="422.0" cy="200" r="4" fill="red" />
<circle cx="434.0" cy="200" r="6" fill="none" stroke="red" stroke-width="2" />
<circle cx="434.0" cy="200" r="3" fill="red" />
<circle cx="446.0" cy="200" r="4" fill="red" />
<circle cx="458.0" cy="200" r="6" fill="none" stroke="black" stroke-width="2" />
<circle cx="458.0" cy="200" r="3" fill="black" />
<circle cx="470.0" cy="200" r="4" fill="red" />
<circle cx="482.0" cy="200" r="6" fill="none" stroke="blue" stroke-width="2" />
<circle cx="482.0" cy="200" r="3" fill="blue" />
<circle cx="494.0" cy="200" r="6" fill="none" stroke="blue" stroke-width="2" />
<circle cx="494.0" cy="200" r="3" fill="blue" />
<circle cx="506.0" cy="200" r="6" fill="none" stroke="blue" stroke-width="2" />
<circle cx="506.0" cy="200" r="3" fill="blue" />
<circle cx="518.0" cy="200" r="6" fill="none" stroke="blue" stroke-width="2" />
<circle cx="518.0" cy="200" r="3" fill="blue" />
<circle cx="530.0" cy="200" r="6" fill="none" stroke="blue" stroke-width="2" />
<circle cx="530.0" cy="200" r="3" fill="blue" />
<circle cx="542.0" cy="200" r="4" fill="red" />
<circle cx="554.0" cy="200" r="6" fill="none" stroke="black" stroke-width="2" />
<circle cx="554.0" cy="200" r="3" fill="black" />
<circle cx="566.0" cy="200" r="4" fill="red" />
<circle cx="578.0" cy="200" r="4" fill="black" />
<circle cx="590.0" cy="200" r="6" fill="none" stroke="red" stroke-width="2" />
<circle cx="590.0" cy="200" r="3" fill="red" />
<circle cx="602.0" cy="200" r="6" fill="none" stroke="red" stroke-width="2" />
<circle cx="602.0" cy="200" r="3" fill="red" />
<circle cx="614.0" cy="200" r="6" fill="none" stroke="blue" stroke-width="2" />
<circle cx="614.0" cy="200" r="3" fill="blue" />
<circle cx="626.0" cy="200" r="4" fill="black" />
<circle cx="638.0" cy="200" r="4" fill="black" />
<circle cx="650.0" cy="200" r="4" fill="black" />
<circle cx="662.0" cy="200" r="4" fill="blue" />
<circle cx="674.0" cy="200" r="6" fill="none" stroke="green" stroke-width="2" />
<circle cx="674.0" cy="200" r="3" fill="green" />
<circle cx="686.0" cy="200" r="6" fill="none" stroke="red" stroke-width="2" />
<circle cx="686.0" cy="200" r="3" fill="red" />
<circle cx="698.0" cy="200" r="4" fill="black" />
<circle cx="710.0" cy="200" r="4" fill="red" />
<circle cx="722.0" cy="200" r="4" fill="black" />
<circle cx="734.0" cy="200" r="6" fill="none" stroke="black" stroke-width="2" />
<circle cx="734.0" cy="200" r="3" fill="black" />
<circle cx="746.0" cy="200" r="6" fill="none" stroke="black" stroke-width="2" />
<circle cx="746.0" cy="200" r="3" fill="black" />
<circle cx="758.0" cy="200" r="4" fill="black" />
<circle cx="770.0" cy="200" r="6" fill="none" stroke="black" stroke-width="2" />
<circle cx="770.0" cy="200" r="3" fill="black" />
<circle cx="782.0" cy="200" r="4" fill="blue" />
<circle cx="794.0" cy="200" r="4" fill="black" />
<circle cx="806.0" cy="200" r="4" fill="red" />
<circle cx="818.0" cy="200" r="6" fill="none" stroke="black" stroke-width="2" />
<circle cx="818.0" cy="200" r="3" fill="black" />
<circle cx="830.0" cy="200" r="4" fill="black" />
<circle cx="842.0" cy="200" r="6" fill="none" stroke="black" stroke-width="2" />
<circle cx="842.0" cy="200" r="3" fill="black" />
<circle cx="854.0" cy="200" r="4" fill="black" />
<circle cx="866.0" cy="200" r="6" fill="none" stroke="black" stroke-width="2" />
<circle cx="866.0" cy="200" r="3" fill="black" />
<circle cx="878.0" cy="200" r="6" fill="none" stroke="black" stroke-width="2" />
<circle cx="878.0" cy="200" r="3" fill="black" />
<circle cx="890.0" cy="200" r="4" fill="black" />
<circle cx="902.0" cy="200" r="6" fill="none" stroke="black" stroke-width="2" />
<circle cx="902.0" cy="200" r="3" fill="black" />
<circle cx="914.0" cy="200" r="4" fill="black" />
<circle cx="926.0" cy="200" r="4" fill="black" />
<circle cx="938.0" cy="200" r="6" fill="none" stroke="black" stroke-width="2" />
<circle cx="938.0" cy="200" r="3" fill="black" />
<circle cx="950.0" cy="200" r="6" fill="none" stroke="black" stroke-width="2" />
<circle cx="950.0" cy="200" r="3" fill="black" />
<circle cx="962.0" cy="200" r="6" fill="none" stroke="black" stroke-width="2" />
<circle cx="962.0" cy="200" r="3" fill="black" />
<circle cx="974.0" cy="200" r="4" fill="black" />
<circle cx="986.0" cy="200" r="6" fill="none" stroke="red" stroke-width="2" />
<circle cx="986.0" cy="200" r="3" fill="red" />
<circle cx="998.0" cy="200" r="4" fill="black" />
<circle cx="1010.0" cy="200" r="4" fill="black" />
<circle cx="1022.0" cy="200" r="6" fill="none" stroke="black" stroke-width="2" />
<circle cx="1022.0" cy="200" r="3" fill="black" />
<circle cx="1034.0" cy="200" r="4" fill="black" />
<circle cx="1046.0" cy="200" r="4" fill="black" />
<circle cx="1058.0" cy="200" r="4" fill="red" />
<circle cx="1070.0" cy="200" r="6" fill="none" stroke="black" stroke-width="2" />
<circle cx="1070.0" cy="200" r="3" fill="black" />
<circle cx="1082.0" cy="200" r="4" fill="red" />
<circle cx="1094.0" cy="200" r="4" fill="black" />
<circle cx="1106.0" cy="200" r="4" fill="black" />
<circle cx="1118.0" cy="200" r="4" fill="black" />
<circle cx="1130.0" cy="200" r="4" fill="red" />
<circle cx="1142.0" cy="200" r="4" fill="black" />
<circle cx="1154.0" cy="200" r="6" fill="none" stroke="black" stroke-width="2" />
<circle cx="1154.0" cy="200" r="3" fill="black" />
<circle cx="1166.0" cy="200" r="6" fill="none" stroke="black" stroke-width="2" />
<circle cx="1166.0" cy="200" r="3" fill="black" />
<circle cx="1178.0" cy="200" r="6" fill="none" stroke="black" stroke-width="2" />
<circle cx="1178.0" cy="200" r="3" fill="black" />
<circle cx="1190.0" cy="200" r="6" fill="none" stroke="green" stroke-width="2" />
<circle cx="1190.0" cy="200" r="3" fill="green" />
<circle cx="1202.0" cy="200" r="4" fill="black" />
<circle cx="1214.0" cy="200" r="4" fill="red" />
<circle cx="1226.0" cy="200" r="4" fill="black" />
<circle cx="1238.0" cy="200" r="6" fill="none" stroke="blue" stroke-width="2" />
<circle cx="1238.0" cy="200" r="3" fill="blue" />
<circle cx="1250.0" cy="200" r="4" fill="black" />
<circle cx="1262.0" cy="200" r="6" fill="none" stroke="black" stroke-width="2" />
<circle cx="1262.0" cy="200" r="3" fill="black" />
<circle cx="1274.0" cy="200" r="4" fill="black" />
<circle cx="1286.0" cy="200" r="6" fill="none" stroke="black" stroke-width="2" />
<circle cx="1286.0" cy="200" r="3" fill="black" />
<circle cx="1298.0" cy="200" r="4" fill="black" />
<circle cx="1310.0" cy="200" r="4" fill="red" />
<circle cx="1322.0" cy="200" r="6" fill="none" stroke="black" stroke-width="2" />
<circle cx="1322.0" cy="200" r="3" fill="black" />
<circle cx="1334.0" cy="200" r="4" fill="black" />
<circle cx="1346.0" cy="200" r="6" fill="none" stroke="black" stroke-width="2" />
<circle cx="1346.0" cy="200" r="3" fill="black" />
<circle cx="1358.0" cy="200" r="4" fill="black" />
<circle cx="1370.0" cy="200" r="4" fill="red" />
<circle cx="1382.0" cy="200" r="6" fill="none" stroke="blue" stroke-width="2" />
<circle cx="1382.0" cy="200" r="3" fill="blue" />
<circle cx="1394.0" cy="200" r="4" fill="black" />
<circle cx="1406.0" cy="200" r="4" fill="red" />
<circle cx="1418.0" cy="200" r="6" fill="none" stroke="blue" stroke-width="2" />
<circle cx="1418.0" cy="200" r="3" fill="blue" />
<circle cx="1430.0" cy="200" r="4" fill="green" />
<circle cx="1442.0" cy="200" r="4" fill="red" />
<circle cx="1454.0" cy="200" r="4" fill="red" />
<circle cx="1466.0" cy="200" r="6" fill="none" stroke="black" stroke-width="2" />
<circle cx="1466.0" cy="200" r="3" fill="black" />
<circle cx="1478.0" cy="200" r="4" fill="black" />
<circle cx="1490.0" cy="200" r="4" fill="black" />
<circle cx="1502.0" cy="200" r="6" fill="none" stroke="green" stroke-width="2" />
<circle cx="1502.0" cy="200" r="3" fill="green" />
<circle cx="1514.0" cy="200" r="4" fill="black" />
<circle cx="1526.0" cy="200" r="4" fill="red" />
<circle cx="1538.0" cy="200" r="4" fill="red" />
<circle cx="1550.0" cy="200" r="4" fill="green" />
<circle cx="1562.0" cy="200" r="4" fill="black" />
<circle cx="1574.0" cy="200" r="4" fill="black" />
<circle cx="1586.0" cy="200" r="4" fill="black" />
<circle cx="1598.0" cy="200" r="4" fill="black" />
<circle cx="1610.0" cy="200" r="6" fill="none" stroke="red" stroke-width="2" />
<circle cx="1610.0" cy="200" r="3" fill="red" />
<circle cx="1622.0" cy="200" r="4" fill="red" />
<circle cx="1634.0" cy="200" r="4" fill="black" />
<circle cx="1646.0" cy="200" r="6" fill="none" stroke="red" stroke-width="2" />
<circle cx="1646.0" cy="200" r="3" fill="red" />
<circle cx="1658.0" cy="200" r="4" fill="red" />
<circle cx="1670.0" cy="200" r="6" fill="none" stroke="black" stroke-width="2" />
<circle cx="1670.0" cy="200" r="3" fill="black" />
<circle cx="1682.0" cy="200" r="4" fill="black" />
<circle cx="1694.0" cy="200" r="6" fill="none" stroke="black" stroke-width="2" />
<circle cx="1694.0" cy="200" r="3" fill="black" />
<circle cx="1706.0" cy="200" r="4" fill="black" />
<circle cx="1718.0" cy="200" r="4" fill="black" />
<circle cx="1730.0" cy="200" r="6" fill="none" stroke="green" stroke-width="2" />
<circle cx="1730.0" cy="200" r="3" fill="green" />
<circle cx="1742.0" cy="200" r="4" fill="black" />
<circle cx="1754.0" cy="200" r="4" fill="red" />
<circle cx="1766.0" cy="200" r="4" fill="black" />
<circle cx="1778.0" cy="200" r="6" fill="none" stroke="red" stroke-width="2" />
<circle cx="1778.0" cy="200" r="3" fill="red" />
<circle cx="1790.0" cy="200" r="4" fill="black" />
<circle cx="1802.0" cy="200" r="4" fill="red" />
<circle cx="1814.0" cy="200" r="4" fill="red" />
<circle cx="1826.0" cy="200" r="4" fill="red" />
<circle cx="1838.0" cy="200" r="4" fill="black" />
<circle cx="1850.0" cy="200" r="4" fill="black" />
<circle cx="1862.0" cy="200" r="4" fill="black" />
<circle cx="1874.0" cy="200" r="4" fill="black" />
<circle cx="1886.0" cy="200" r="6" fill="none" stroke="red" stroke-width="2" />
<circle cx="1886.0" cy="200" r="3" fill="red" />
<circle cx="1898.0" cy="200" r="6" fill="none" stroke="black" stroke-width="2" />
<circle cx="1898.0" cy="200" r="3" fill="black" />
<circle cx="1910.0" cy="200" r="4" fill="black" />
<circle cx="1922.0" cy="200" r="6" fill="none" stroke="black" stroke-width="2" />
<circle cx="1922.0" cy="200" r="3" fill="black" />
<circle cx="1934.0" cy="200" r="4" fill="black" />
<circle cx="1946.0" cy="200" r="4" fill="red" />
<circle cx="1958.0" cy="200" r="6" fill="none" stroke="blue" stroke-width="2" />
<circle cx="1958.0" cy="200" r="3" fill="blue" />
<circle cx="1970.0" cy="200" r="4" fill="blue" />
<circle cx="1982.0" cy="200" r="4" fill="green" />
<circle cx="1994.0" cy="200" r="4" fill="green" />
<circle cx="2006.0" cy="200" r="6" fill="none" stroke="blue" stroke-width="2" />
<circle cx="2006.0" cy="200" r="3" fill="blue" />
<circle cx="2018.0" cy="200" r="6" fill="none" stroke="blue" stroke-width="2" />
<circle cx="2018.0" cy="200" r="3" fill="blue" />
<circle cx="2030.0" cy="200" r="6" fill="none" stroke="blue" stroke-width="2" />
<circle cx="2030.0" cy="200" r="3" fill="blue" />
<text x="50" y="225" fill="gray" style="font-size:12px;">2023-12-29T17:29:06+00:00</text>
<text x="900" y="225" fill="gray" style="font-size:12px;">2025-02-22T15:05:14+00:00</text>
</svg>