<svg xmlns="http://www.w3.org/2000/svg" width="1000" height="200" style="background-color: white; font-family: sans-serif;">
<line x1="50" y1="100" x2="950" y2="100" stroke="gray" stroke-width="1"/>
<path d="M 62.0 100 Q 56.0 80, 50.0 100" stroke="black" fill="none" marker-end="url(#arrowhead)"/>
<path d="M 74.88513180569133 100 Q 68.44256590284567 80, 62.0 100" stroke="black" fill="none" marker-end="url(#arrowhead)"/>
<path d="M 98.88513180569133 100 Q 92.88513180569133 80, 86.88513180569133 100" stroke="black" fill="none" marker-end="url(#arrowhead)"/>
<path d="M 122.88513180569133 100 Q 116.88513180569133 80, 110.88513180569133 100" stroke="black" fill="none" marker-end="url(#arrowhead)"/>
<path d="M 146.88513180569134 100 Q 140.88513180569134 80, 134.88513180569134 100" stroke="black" fill="none" marker-end="url(#arrowhead)"/>
<path d="M 158.88513180569134 100 Q 146.88513180569134 80, 134.88513180569134 100" stroke="black" fill="none" marker-end="url(#arrowhead)"/>
<path d="M 182.88513180569134 100 Q 176.88513180569134 80, 170.88513180569134 100" stroke="black" fill="none" marker-end="url(#arrowhead)"/>
<path d="M 294.23618236619086 100 Q 232.5606570859411 80, 170.88513180569134 100" stroke="black" fill="none" marker-end="url(#arrowhead)"/>
<path d="M 306.23618236619086 100 Q 300.23618236619086 80, 294.23618236619086 100" stroke="black" fill="none" marker-end="url(#arrowhead)"/>
<path d="M 698.0615681736942 100 Q 440.4733499896928 80, 182.88513180569134 100" stroke="black" fill="none" marker-end="url(#arrowhead)"/>
<path d="M 710.0615681736942 100 Q 704.0615681736942 80, 698.0615681736942 100" stroke="black" fill="none" marker-end="url(#arrowhead)"/>
<path d="M 722.0615681736942 100 Q 710.0615681736942 80, 698.0615681736942 100" stroke="black" fill="none" marker-end="url(#arrowhead)"/>
<path d="M 734.0615681736942 100 Q 716.0615681736942 80, 698.0615681736942 100" stroke="black" fill="none" marker-end="url(#arrowhead)"/>
<path d="M 734.0615681736942 100 Q 728.0615681736942 80, 722.0615681736942 100" stroke="black" fill="none" marker-end="url(#arrowhead)"/>
<path d="M 746.0615681736942 100 Q 722.0615681736942 80, 698.0615681736942 100" stroke="black" fill="none" marker-end="url(#arrowhead)"/>
<path d="M 746.0615681736942 100 Q 734.0615681736942 80, 722.0615681736942 100" stroke="black" fill="none" marker-end="url(#arrowhead)"/>
<path d="M 758.0615681736942 100 Q 728.0615681736942 80, 698.0615681736942 100" stroke="black" fill="none" marker-end="url(#arrowhead)"/>
<path d="M 758.0615681736942 100 Q 740.0615681736942 80, 722.0615681736942 100" stroke="black" fill="none" marker-end="url(#arrowhead)"/>
<path d="M 758.0615681736942 100 Q 746.0615681736942 80, 734.0615681736942 100" stroke="black" fill="none" marker-end="url(#arrowhead)"/>
<path d="M 782.0615681736942 100 Q 776.0615681736942 80, 770.0615681736942 100" stroke="black" fill="none" marker-end="url(#arrowhead)"/>
<path d="M 794.0615681736942 100 Q 782.0615681736942 80, 770.0615681736942 100" stroke="black" fill="none" marker-end="url(#arrowhead)"/>
<path d="M 794.0615681736942 100 Q 788.0615681736942 80, 782.0615681736942 100" stroke="black" fill="none" marker-end="url(#arrowhead)"/>
<path d="M 806.0615681736942 100 Q 800.0615681736942 80, 794.0615681736942 100" stroke="black" fill="none" marker-end="url(#arrowhead)"/>
<path d="M 818.0615681736942 100 Q 500.4733499896928 80, 182.88513180569134 100" stroke="black" fill="none" marker-end="url(#arrowhead)"/>
<path d="M 818.0615681736942 100 Q 812.0615681736942 80, 806.0615681736942 100" stroke="black" fill="none" marker-end="url(#arrowhead)"/>
<path d="M 885.4748372086802 100 Q 839.7682026911873 80, 794.0615681736942 100" stroke="black" fill="none" marker-end="url(#arrowhead)"/>
<path d="M 885.4748372086802 100 Q 845.7682026911873 80, 806.0615681736942 100" stroke="black" fill="none" marker-end="url(#arrowhead)"/>
<path d="M 897.4748372086802 100 Q 891.4748372086802 80, 885.4748372086802 100" stroke="black" fill="none" marker-end="url(#arrowhead)"/>
<path d="M 897.4748372086802 100 Q 845.7682026911873 80, 794.0615681736942 100" stroke="black" fill="none" marker-end="url(#arrowhead)"/>
<path d="M 897.4748372086802 100 Q 851.7682026911873 80, 806.0615681736942 100" stroke="black" fill="none" marker-end="url(#arrowhead)"/>
<path d="M 909.4748372086802 100 Q 903.4748372086802 80, 897.4748372086802 100" stroke="black" fill="none" marker-end="url(#arrowhead)"/>
<path d="M 933.4748372086802 100 Q 927.4748372086802 80, 921.4748372086802 100" stroke="black" fill="none" marker-end="url(#arrowhead)"/>
<path d="M 945.4748372086802 100 Q 939.4748372086802 80, 933.4748372086802 100" stroke="black" fill="none" marker-end="url(#arrowhead)"/>
<path d="M 945.4748372086802 100 Q 933.4748372086802 80, 921.4748372086802 100" stroke="black" fill="none" marker-end="url(#arrowhead)"/>
<path d="M 957.4748372086802 100 Q 939.4748372086802 80, 921.4748372086802 100" stroke="black" fill="none" marker-end="url(#arrowhead)"/>
<path d="M 969.4748372086802 100 Q 963.4748372086802 80, 957.4748372086802 100" stroke="black" fill="none" marker-end="url(#arrowhead)"/>
<path d="M 969.4748372086802 100 Q 945.4748372086802 80, 921.4748372086802 100" stroke="black" fill="none" marker-end="url(#arrowhead)"/>
<path d="M 981.4748372086802 100 Q 969.4748372086802 80, 957.4748372086802 100" stroke="black" fill="none" marker-end="url(#arrowhead)"/>
<path d="M 981.4748372086802 100 Q 975.4748372086802 80, 969.4748372086802 100" stroke="black" fill="none" marker-end="url(#arrowhead)"/>
<path d="M 993.4748372086802 100 Q 975.4748372086802 80, 957.4748372086802 100" stroke="black" fill="none" marker-end="url(#arrowhead)"/>
<path d="M 993.4748372086802 100 Q 981.4748372086802 80, 969.4748372086802 100" stroke="black" fill="none" marker-end="url(#arrowhead)"/>
<path d="M 993.4748372086802 100 Q 987.4748372086802 80, 981.4748372086802 100" stroke="black" fill="none" marker-end="url(#arrowhead)"/>
<path d="M 1005.4748372086802 100 Q 993.4748372086802 80, 981.4748372086802 100" stroke="black" fill="none" marker-end="url(#arrowhead)"/>
<path d="M 1005.4748372086802 100 Q 999.4748372086802 80, 993.4748372086802 100" stroke="black" fill="none" marker-end="url(#arrowhead)"/>
<path d="M 1017.4748372086802 100 Q 1011.4748372086802 80, 1005.4748372086802 100" stroke="black" fill="none" marker-end="url(#arrowhead)"/>
<path d="M 1017.4748372086802 100 Q 1005.4748372086802 80, 993.4748372086802 100" stroke="black" fill="none" marker-end="url(#arrowhead)"/>
<path d="M 1029.4748372086801 100 Q 1017.4748372086801 80, 1005.4748372086802 100" stroke="black" fill="none" marker-end="url(#arrowhead)"/>
<path d="M 1029.4748372086801 100 Q 1005.4748372086801 80, 981.4748372086802 100" stroke="black" fill="none" marker-end="url(#arrowhead)"/>
<path d="M 1041.4748372086801 100 Q 1023.4748372086801 80, 1005.4748372086802 100" stroke="black" fill="none" marker-end="url(#arrowhead)"/>
<path d="M 1041.4748372086801 100 Q 1035.4748372086801 80, 1029.4748372086801 100" stroke="black" fill="none" marker-end="url(#arrowhead)"/>
<path d="M 1053.4748372086801 100 Q 1047.4748372086801 80, 1041.4748372086801 100" stroke="black" fill="none" marker-end="url(#arrowhead)"/>
<path d="M 1065.4748372086801 100 Q 1053.4748372086801 80, 1041.4748372086801 100" stroke="black" fill="none" marker-end="url(#arrowhead)"/>
<path d="M 1077.4748372086801 100 Q 1071.4748372086801 80, 1065.4748372086801 100" stroke="black" fill="none" marker-end="url(#arrowhead)"/>
<path d="M 1101.4748372086801 100 Q 1095.4748372086801 80, 1089.4748372086801 100" stroke="black" fill="none" marker-end="url(#arrowhead)"/>
<path d="M 1101.4748372086801 100 Q 899.7682026911872 80, 698.0615681736942 100" stroke="black" fill="none" marker-end="url(#arrowhead)"/>
<path d="M 1113.4748372086801 100 Q 1107.4748372086801 80, 1101.4748372086801 100" stroke="black" fill="none" marker-end="url(#arrowhead)"/>
<path d="M 1125.4748372086801 100 Q 1119.4748372086801 80, 1113.4748372086801 100" stroke="black" fill="none" marker-end="url(#arrowhead)"/>
<path d="M 1137.4748372086801 100 Q 1131.4748372086801 80, 1125.4748372086801 100" stroke="black" fill="none" marker-end="url(#arrowhead)"/>
<path d="M 1149.4748372086801 100 Q 1143.4748372086801 80, 1137.4748372086801 100" stroke="black" fill="none" marker-end="url(#arrowhead)"/>
<path d="M 1161.4748372086801 100 Q 1149.4748372086801 80, 1137.4748372086801 100" stroke="black" fill="none" marker-end="url(#arrowhead)"/>
<path d="M 1161.4748372086801 100 Q 1155.4748372086801 80, 1149.4748372086801 100" stroke="black" fill="none" marker-end="url(#arrowhead)"/>
<path d="M 1173.4748372086801 100 Q 1167.4748372086801 80, 1161.4748372086801 100" stroke="black" fill="none" marker-end="url(#arrowhead)"/>
<path d="M 1185.4748372086801 100 Q 1179.4748372086801 80, 1173.4748372086801 100" stroke="black" fill="none" marker-end="url(#arrowhead)"/>
<path d="M 1197.4748372086801 100 Q 1185.4748372086801 80, 1173.4748372086801 100" stroke="black" fill="none" marker-end="url(#arrowhead)"/>
<path d="M 1209.4748372086801 100 Q 1203.4748372086801 80, 1197.4748372086801 100" stroke="black" fill="none" marker-end="url(#arrowhead)"/>
<path d="M 1221.4748372086801 100 Q 1215.4748372086801 80, 1209.4748372086801 100" stroke="black" fill="none" marker-end="url(#arrowhead)"/>
<path d="M 1233.4748372086801 100 Q 1227.4748372086801 80, 1221.4748372086801 100" stroke="black" fill="none" marker-end="url(#arrowhead)"/>
<path d="M 1245.4748372086801 100 Q 1233.4748372086801 80, 1221.4748372086801 100" stroke="black" fill="none" marker-end="url(#arrowhead)"/>

<defs>
  <marker id="arrowhead" markerWidth="5" markerHeight="5" 
          refX="2" refY="2" orient="auto" fill="black">
    <path d="M0,0 L0,4 L4,2 z" />
  </marker>
</defs>

<circle cx="50.0" cy="100" r="6" fill="none" stroke="blue" stroke-width="2" />
<circle cx="50.0" cy="100" r="3" fill="blue" />
<circle cx="62.0" cy="100" r="4" fill="blue" />
<circle cx="74.88513180569133" cy="100" r="4" fill="green" />
<circle cx="86.88513180569133" cy="100" r="4" fill="red" />
<circle cx="98.88513180569133" cy="100" r="4" fill="black" />
<circle cx="110.88513180569133" cy="100" r="4" fill="black" />
<circle cx="122.88513180569133" cy="100" r="4" fill="black" />
<circle cx="134.88513180569134" cy="100" r="4" fill="red" />
<circle cx="146.88513180569134" cy="100" r="4" fill="black" />
<circle cx="158.88513180569134" cy="100" r="4" fill="black" />
<circle cx="170.88513180569134" cy="100" r="4" fill="black" />
<circle cx="182.88513180569134" cy="100" r="4" fill="black" />
<circle cx="194.88513180569134" cy="100" r="4" fill="red" />
<circle cx="206.88513180569134" cy="100" r="4" fill="black" />
<circle cx="294.23618236619086" cy="100" r="4" fill="red" />
<circle cx="306.23618236619086" cy="100" r="4" fill="blue" />
<circle cx="698.0615681736942" cy="100" r="4" fill="blue" />
<circle cx="710.0615681736942" cy="100" r="6" fill="none" stroke="red" stroke-width="2" />
<circle cx="710.0615681736942" cy="100" r="3" fill="red" />
<circle cx="722.0615681736942" cy="100" r="4" fill="red" />
<circle cx="734.0615681736942" cy="100" r="4" fill="green" />
<circle cx="746.0615681736942" cy="100" r="4" fill="black" />
<circle cx="758.0615681736942" cy="100" r="4" fill="green" />
<circle cx="770.0615681736942" cy="100" r="6" fill="none" stroke="blue" stroke-width="2" />
<circle cx="770.0615681736942" cy="100" r="3" fill="blue" />
<circle cx="782.0615681736942" cy="100" r="4" fill="blue" />
<circle cx="794.0615681736942" cy="100" r="4" fill="blue" />
<circle cx="806.0615681736942" cy="100" r="6" fill="none" stroke="blue" stroke-width="2" />
<circle cx="806.0615681736942" cy="100" r="3" fill="blue" />
<circle cx="818.0615681736942" cy="100" r="4" fill="black" />
<circle cx="885.4748372086802" cy="100" r="6" fill="none" stroke="blue" stroke-width="2" />
<circle cx="885.4748372086802" cy="100" r="3" fill="blue" />
<circle cx="897.4748372086802" cy="100" r="4" fill="red" />
<circle cx="909.4748372086802" cy="100" r="6" fill="none" stroke="blue" stroke-width="2" />
<circle cx="909.4748372086802" cy="100" r="3" fill="blue" />
<circle cx="921.4748372086802" cy="100" r="4" fill="red" />
<circle cx="933.4748372086802" cy="100" r="4" fill="black" />
<circle cx="945.4748372086802" cy="100" r="4" fill="black" />
<circle cx="957.4748372086802" cy="100" r="6" fill="none" stroke="black" stroke-width="2" />
<circle cx="957.4748372086802" cy="100" r="3" fill="black" />
<circle cx="969.4748372086802" cy="100" r="4" fill="blue" />
<circle cx="981.4748372086802" cy="100" r="4" fill="red" />
<circle cx="993.4748372086802" cy="100" r="4" fill="black" />
<circle cx="1005.4748372086802" cy="100" r="4" fill="black" />
<circle cx="1017.4748372086802" cy="100" r="4" fill="green" />
<circle cx="1029.4748372086801" cy="100" r="6" fill="none" stroke="black" stroke-width="2" />
<circle cx="1029.4748372086801" cy="100" r="3" fill="black" />
<circle cx="1041.4748372086801" cy="100" r="4" fill="red" />
<circle cx="1053.4748372086801" cy="100" r="4" fill="black" />
<circle cx="1065.4748372086801" cy="100" r="6" fill="none" stroke="blue" stroke-width="2" />
<circle cx="1065.4748372086801" cy="100" r="3" fill="blue" />
<circle cx="1077.4748372086801" cy="100" r="4" fill="red" />
<circle cx="1089.4748372086801" cy="100" r="4" fill="red" />
<circle cx="1101.4748372086801" cy="100" r="4" fill="red" />
<circle cx="1113.4748372086801" cy="100" r="4" fill="black" />
<circle cx="1125.4748372086801" cy="100" r="6" fill="none" stroke="blue" stroke-width="2" />
<circle cx="1125.4748372086801" cy="100" r="3" fill="blue" />
<circle cx="1137.4748372086801" cy="100" r="4" fill="red" />
<circle cx="1149.4748372086801" cy="100" r="6" fill="none" stroke="blue" stroke-width="2" />
<circle cx="1149.4748372086801" cy="100" r="3" fill="blue" />
<circle cx="1161.4748372086801" cy="100" r="4" fill="red" />
<circle cx="1173.4748372086801" cy="100" r="6" fill="none" stroke="black" stroke-width="2" />
<circle cx="1173.4748372086801" cy="100" r="3" fill="black" />
<circle cx="1185.4748372086801" cy="100" r="4" fill="green" />
<circle cx="1197.4748372086801" cy="100" r="4" fill="black" />
<circle cx="1209.4748372086801" cy="100" r="6" fill="none" stroke="blue" stroke-width="2" />
<circle cx="1209.4748372086801" cy="100" r="3" fill="blue" />
<circle cx="1221.4748372086801" cy="100" r="4" fill="black" />
<circle cx="1233.4748372086801" cy="100" r="6" fill="none" stroke="blue" stroke-width="2" />
<circle cx="1233.4748372086801" cy="100" r="3" fill="blue" />
<circle cx="1245.4748372086801" cy="100" r="4" fill="black" />
<text x="50" y="125" fill="gray" style="font-size:12px;">2018-07-13T12:52:00+00:00</text>
<text x="900" y="125" fill="gray" style="font-size:12px;">2025-02-28T11:48:51+00:00</text>
</svg>