<svg xmlns="http://www.w3.org/2000/svg" width="1000" height="400" style="background-color: white; font-family: sans-serif;">
<line x1="50" y1="200" x2="950" y2="200" stroke="gray" stroke-width="1"/>
<path d="M 62.0 200 Q 56.0 180, 50.0 200" stroke="black" fill="none" marker-end="url(#arrowhead)"/>
<path d="M 74.88513180569133 200 Q 68.44256590284567 180, 62.0 200" stroke="black" fill="none" marker-end="url(#arrowhead)"/>
<path d="M 98.88513180569133 200 Q 92.88513180569133 180, 86.88513180569133 200" stroke="black" fill="none" marker-end="url(#arrowhead)"/>
<path d="M 122.88513180569133 200 Q 116.88513180569133 180, 110.88513180569133 200" stroke="black" fill="none" marker-end="url(#arrowhead)"/>
<path d="M 146.88513180569134 200 Q 140.88513180569134 180, 134.88513180569134 200" stroke="black" fill="none" marker-end="url(#arrowhead)"/>
<path d="M 158.88513180569134 200 Q 146.88513180569134 180, 134.88513180569134 200" stroke="black" fill="none" marker-end="url(#arrowhead)"/>
<path d="M 182.88513180569134 200 Q 176.88513180569134 180, 170.88513180569134 200" stroke="black" fill="none" marker-end="url(#arrowhead)"/>
<path d="M 294.23618236619086 200 Q 232.5606570859411 180, 170.88513180569134 200" stroke="black" fill="none" marker-end="url(#arrowhead)"/>
<path d="M 306.23618236619086 200 Q 300.23618236619086 180, 294.23618236619086 200" stroke="black" fill="none" marker-end="url(#arrowhead)"/>
<path d="M 698.0615681736942 200 Q 440.4733499896928 180, 182.88513180569134 200" stroke="black" fill="none" marker-end="url(#arrowhead)"/>
<path d="M 710.0615681736942 200 Q 704.0615681736942 180, 698.0615681736942 200" stroke="black" fill="none" marker-end="url(#arrowhead)"/>
<path d="M 722.0615681736942 200 Q 710.0615681736942 180, 698.0615681736942 200" stroke="black" fill="none" marker-end="url(#arrowhead)"/>
<path d="M 734.0615681736942 200 Q 716.0615681736942 180, 698.0615681736942 200" stroke="black" fill="none" marker-end="url(#arrowhead)"/>
<path d="M 734.0615681736942 200 Q 728.0615681736942 180, 722.0615681736942 200" stroke="black" fill="none" marker-end="url(#arrowhead)"/>
<path d="M 746.0615681736942 200 Q 722.0615681736942 180, 698.0615681736942 200" stroke="black" fill="none" marker-end="url(#arrowhead)"/>
<path d="M 746.0615681736942 200 Q 734.0615681736942 180, 722.0615681736942 200" stroke="black" fill="none" marker-end="url(#arrowhead)"/>
<path d="M 758.0615681736942 200 Q 728.0615681736942 180, 698.0615681736942 200" stroke="black" fill="none" marker-end="url(#arrowhead)"/>
<path d="M 758.0615681736942 200 Q 740.0615681736942 180, 722.0615681736942 200" stroke="black" fill="none" marker-end="url(#arrowhead)"/>
<path d="M 758.0615681736942 200 Q 746.0615681736942 180, 734.0615681736942 200" stroke="black" fill="none" marker-end="url(#arrowhead)"/>
<path d="M 782.0615681736942 200 Q 776.0615681736942 180, 770.0615681736942 200" stroke="black" fill="none" marker-end="url(#arrowhead)"/>
<path d="M 794.0615681736942 200 Q 782.0615681736942 180, 770.0615681736942 200" stroke="black" fill="none" marker-end="url(#arrowhead)"/>
<path d="M 794.0615681736942 200 Q 788.0615681736942 180, 782.0615681736942 200" stroke="black" fill="none" marker-end="url(#arrowhead)"/>
<path d="M 806.0615681736942 200 Q 800.0615681736942 180, 794.0615681736942 200" stroke="black" fill="none" marker-end="url(#arrowhead)"/>
<path d="M 818.0615681736942 200 Q 500.4733499896928 180, 182.88513180569134 200" stroke="black" fill="none" marker-end="url(#arrowhead)"/>
<path d="M 818.0615681736942 200 Q 812.0615681736942 180, 806.0615681736942 200" stroke="black" fill="none" marker-end="url(#arrowhead)"/>
<path d="M 885.4748372086802 200 Q 839.7682026911873 180, 794.0615681736942 200" stroke="black" fill="none" marker-end="url(#arrowhead)"/>
<path d="M 885.4748372086802 200 Q 845.7682026911873 180, 806.0615681736942 200" stroke="black" fill="none" marker-end="url(#arrowhead)"/>
<path d="M 897.4748372086802 200 Q 891.4748372086802 180, 885.4748372086802 200" stroke="black" fill="none" marker-end="url(#arrowhead)"/>
<path d="M 897.4748372086802 200 Q 845.7682026911873 180, 794.0615681736942 200" stroke="black" fill="none" marker-end="url(#arrowhead)"/>
<path d="M 897.4748372086802 200 Q 851.7682026911873 180, 806.0615681736942 200" stroke="black" fill="none" marker-end="url(#arrowhead)"/>
<path d="M 909.4748372086802 200 Q 903.4748372086802 180, 897.4748372086802 200" stroke="black" fill="none" marker-end="url(#arrowhead)"/>
<path d="M 933.4748372086802 200 Q 927.4748372086802 180, 921.4748372086802 200" stroke="black" fill="none" marker-end="url(#arrowhead)"/>
<path d="M 945.4748372086802 200 Q 939.4748372086802 180, 933.4748372086802 200" stroke="black" fill="none" marker-end="url(#arrowhead)"/>
<path d="M 945.4748372086802 200 Q 933.4748372086802 180, 921.4748372086802 200" stroke="black" fill="none" marker-end="url(#arrowhead)"/>
<path d="M 957.4748372086802 200 Q 939.4748372086802 180, 921.4748372086802 200" stroke="black" fill="none" marker-end="url(#arrowhead)"/>
<path d="M 969.4748372086802 200 Q 963.4748372086802 180, 957.4748372086802 200" stroke="black" fill="none" marker-end="url(#arrowhead)"/>
<path d="M 969.4748372086802 200 Q 945.4748372086802 180, 921.4748372086802 200" stroke="black" fill="none" marker-end="url(#arrowhead)"/>
<path d="M 981.4748372086802 200 Q 969.4748372086802 180, 957.4748372086802 200" stroke="black" fill="none" marker-end="url(#arrowhead)"/>
<path d="M 981.4748372086802 200 Q 975.4748372086802 180, 969.4748372086802 200" stroke="black" fill="none" marker-end="url(#arrowhead)"/>
<path d="M 993.4748372086802 200 Q 975.4748372086802 180, 957.4748372086802 200" stroke="black" fill="none" marker-end="url(#arrowhead)"/>
<path d="M 993.4748372086802 200 Q 981.4748372086802 180, 969.4748372086802 200" stroke="black" fill="none" marker-end="url(#arrowhead)"/>
<path d="M 993.4748372086802 200 Q 987.4748372086802 180, 981.4748372086802 200" stroke="black" fill="none" marker-end="url(#arrowhead)"/>
<path d="M 1005.4748372086802 200 Q 993.4748372086802 180, 981.4748372086802 200" stroke="black" fill="none" marker-end="url(#arrowhead)"/>
<path d="M 1005.4748372086802 200 Q 999.4748372086802 180, 993.4748372086802 200" stroke="black" fill="none" marker-end="url(#arrowhead)"/>
<path d="M 1017.4748372086802 200 Q 1011.4748372086802 180, 1005.4748372086802 200" stroke="black" fill="none" marker-end="url(#arrowhead)"/>
<path d="M 1017.4748372086802 200 Q 1005.4748372086802 180, 993.4748372086802 200" stroke="black" fill="none" marker-end="url(#arrowhead)"/>
<path d="M 1029.4748372086801 200 Q 1017.4748372086801 180, 1005.4748372086802 200" stroke="black" fill="none" marker-end="url(#arrowhead)"/>
<path d="M 1029.4748372086801 200 Q 1005.4748372086801 180, 981.4748372086802 200" stroke="black" fill="none" marker-end="url(#arrowhead)"/>
<path d="M 1041.4748372086801 200 Q 1023.4748372086801 180, 1005.4748372086802 200" stroke="black" fill="none" marker-end="url(#arrowhead)"/>
<path d="M 1041.4748372086801 200 Q 1035.4748372086801 180, 1029.4748372086801 200" stroke="black" fill="none" marker-end="url(#arrowhead)"/>
<path d="M 1053.4748372086801 200 Q 1047.4748372086801 180, 1041.4748372086801 200" stroke="black" fill="none" marker-end="url(#arrowhead)"/>
<path d="M 1065.4748372086801 200 Q 1053.4748372086801 180, 1041.4748372086801 200" stroke="black" fill="none" marker-end="url(#arrowhead)"/>
<path d="M 1077.4748372086801 200 Q 1071.4748372086801 180, 1065.4748372086801 200" stroke="black" fill="none" marker-end="url(#arrowhead)"/>
<path d="M 1101.4748372086801 200 Q 1095.4748372086801 180, 1089.4748372086801 200" stroke="black" fill="none" marker-end="url(#arrowhead)"/>
<path d="M 1101.4748372086801 200 Q 899.7682026911872 180, 698.0615681736942 200" stroke="black" fill="none" marker-end="url(#arrowhead)"/>
<path d="M 1113.4748372086801 200 Q 1107.4748372086801 180, 1101.4748372086801 200" stroke="black" fill="none" marker-end="url(#arrowhead)"/>
<path d="M 1125.4748372086801 200 Q 1119.4748372086801 180, 1113.4748372086801 200" stroke="black" fill="none" marker-end="url(#arrowhead)"/>
<path d="M 1137.4748372086801 200 Q 1131.4748372086801 180, 1125.4748372086801 200" stroke="black" fill="none" marker-end="url(#arrowhead)"/>
<path d="M 1149.4748372086801 200 Q 1143.4748372086801 180, 1137.4748372086801 200" stroke="black" fill="none" marker-end="url(#arrowhead)"/>
<path d="M 1161.4748372086801 200 Q 1149.4748372086801 180, 1137.4748372086801 200" stroke="black" fill="none" marker-end="url(#arrowhead)"/>
<path d="M 1161.4748372086801 200 Q 1155.4748372086801 180, 1149.4748372086801 200" stroke="black" fill="none" marker-end="url(#arrowhead)"/>
<path d="M 1173.4748372086801 200 Q 1167.4748372086801 180, 1161.4748372086801 200" stroke="black" fill="none" marker-end="url(#arrowhead)"/>
<path d="M 1185.4748372086801 200 Q 1179.4748372086801 180, 1173.4748372086801 200" stroke="black" fill="none" marker-end="url(#arrowhead)"/>
<path d="M 1197.4748372086801 200 Q 1185.4748372086801 180, 1173.4748372086801 200" stroke="black" fill="none" marker-end="url(#arrowhead)"/>
<path d="M 1209.4748372086801 200 Q 1203.4748372086801 180, 1197.4748372086801 200" stroke="black" fill="none" marker-end="url(#arrowhead)"/>
<path d="M 1221.4748372086801 200 Q 1215.4748372086801 180, 1209.4748372086801 200" stroke="black" fill="none" marker-end="url(#arrowhead)"/>
<path d="M 1233.4748372086801 200 Q 1227.4748372086801 180, 1221.4748372086801 200" stroke="black" fill="none" marker-end="url(#arrowhead)"/>
<path d="M 1245.4748372086801 200 Q 1233.4748372086801 180, 1221.4748372086801 200" stroke="black" fill="none" marker-end="url(#arrowhead)"/>

<defs>
  <marker id="arrowhead" markerWidth="5" markerHeight="5" 
          refX="2" refY="2" orient="auto" fill="black">
    <path d="M0,0 L0,4 L4,2 z" />
  </marker>
</defs>

<circle cx="50.0" cy="200" r="6" fill="none" stroke="blue" stroke-width="2" />
<circle cx="50.0" cy="200" r="3" fill="blue" />
<circle cx="62.0" cy="200" r="4" fill="blue" />
<circle cx="74.88513180569133" cy="200" r="4" fill="green" />
<circle cx="86.88513180569133" cy="200" r="4" fill="red" />
<circle cx="98.88513180569133" cy="200" r="4" fill="black" />
<circle cx="110.88513180569133" cy="200" r="4" fill="black" />
<circle cx="122.88513180569133" cy="200" r="4" fill="black" />
<circle cx="134.88513180569134" cy="200" r="4" fill="red" />
<circle cx="146.88513180569134" cy="200" r="4" fill="black" />
<circle cx="158.88513180569134" cy="200" r="4" fill="black" />
<circle cx="170.88513180569134" cy="200" r="4" fill="black" />
<circle cx="182.88513180569134" cy="200" r="4" fill="black" />
<circle cx="194.88513180569134" cy="200" r="4" fill="red" />
<circle cx="206.88513180569134" cy="200" r="4" fill="black" />
<circle cx="294.23618236619086" cy="200" r="4" fill="red" />
<circle cx="306.23618236619086" cy="200" r="4" fill="blue" />
<circle cx="698.0615681736942" cy="200" r="4" fill="blue" />
<circle cx="710.0615681736942" cy="200" r="6" fill="none" stroke="red" stroke-width="2" />
<circle cx="710.0615681736942" cy="200" r="3" fill="red" />
<circle cx="722.0615681736942" cy="200" r="4" fill="red" />
<circle cx="734.0615681736942" cy="200" r="4" fill="green" />
<circle cx="746.0615681736942" cy="200" r="4" fill="black" />
<circle cx="758.0615681736942" cy="200" r="4" fill="green" />
<circle cx="770.0615681736942" cy="200" r="6" fill="none" stroke="blue" stroke-width="2" />
<circle cx="770.0615681736942" cy="200" r="3" fill="blue" />
<circle cx="782.0615681736942" cy="200" r="4" fill="blue" />
<circle cx="794.0615681736942" cy="200" r="4" fill="blue" />
<circle cx="806.0615681736942" cy="200" r="6" fill="none" stroke="blue" stroke-width="2" />
<circle cx="806.0615681736942" cy="200" r="3" fill="blue" />
<circle cx="818.0615681736942" cy="200" r="4" fill="black" />
<circle cx="885.4748372086802" cy="200" r="6" fill="none" stroke="blue" stroke-width="2" />
<circle cx="885.4748372086802" cy="200" r="3" fill="blue" />
<circle cx="897.4748372086802" cy="200" r="4" fill="red" />
<circle cx="909.4748372086802" cy="200" r="6" fill="none" stroke="blue" stroke-width="2" />
<circle cx="909.4748372086802" cy="200" r="3" fill="blue" />
<circle cx="921.4748372086802" cy="200" r="4" fill="red" />
<circle cx="933.4748372086802" cy="200" r="4" fill="black" />
<circle cx="945.4748372086802" cy="200" r="4" fill="black" />
<circle cx="957.4748372086802" cy="200" r="6" fill="none" stroke="black" stroke-width="2" />
<circle cx="957.4748372086802" cy="200" r="3" fill="black" />
<circle cx="969.4748372086802" cy="200" r="4" fill="blue" />
<circle cx="981.4748372086802" cy="200" r="4" fill="red" />
<circle cx="993.4748372086802" cy="200" r="4" fill="black" />
<circle cx="1005.4748372086802" cy="200" r="4" fill="black" />
<circle cx="1017.4748372086802" cy="200" r="4" fill="green" />
<circle cx="1029.4748372086801" cy="200" r="6" fill="none" stroke="black" stroke-width="2" />
<circle cx="1029.4748372086801" cy="200" r="3" fill="black" />
<circle cx="1041.4748372086801" cy="200" r="4" fill="red" />
<circle cx="1053.4748372086801" cy="200" r="4" fill="black" />
<circle cx="1065.4748372086801" cy="200" r="6" fill="none" stroke="blue" stroke-width="2" />
<circle cx="1065.4748372086801" cy="200" r="3" fill="blue" />
<circle cx="1077.4748372086801" cy="200" r="4" fill="red" />
<circle cx="1089.4748372086801" cy="200" r="4" fill="red" />
<circle cx="1101.4748372086801" cy="200" r="4" fill="red" />
<circle cx="1113.4748372086801" cy="200" r="4" fill="black" />
<circle cx="1125.4748372086801" cy="200" r="6" fill="none" stroke="blue" stroke-width="2" />
<circle cx="1125.4748372086801" cy="200" r="3" fill="blue" />
<circle cx="1137.4748372086801" cy="200" r="4" fill="red" />
<circle cx="1149.4748372086801" cy="200" r="6" fill="none" stroke="blue" stroke-width="2" />
<circle cx="1149.4748372086801" cy="200" r="3" fill="blue" />
<circle cx="1161.4748372086801" cy="200" r="4" fill="red" />
<circle cx="1173.4748372086801" cy="200" r="6" fill="none" stroke="black" stroke-width="2" />
<circle cx="1173.4748372086801" cy="200" r="3" fill="black" />
<circle cx="1185.4748372086801" cy="200" r="4" fill="green" />
<circle cx="1197.4748372086801" cy="200" r="4" fill="black" />
<circle cx="1209.4748372086801" cy="200" r="6" fill="none" stroke="blue" stroke-width="2" />
<circle cx="1209.4748372086801" cy="200" r="3" fill="blue" />
<circle cx="1221.4748372086801" cy="200" r="4" fill="black" />
<circle cx="1233.4748372086801" cy="200" r="6" fill="none" stroke="blue" stroke-width="2" />
<circle cx="1233.4748372086801" cy="200" r="3" fill="blue" />
<circle cx="1245.4748372086801" cy="200" r="4" fill="black" />
<text x="50" y="225" fill="gray" style="font-size:12px;">2018-07-13T12:52:00+00:00</text>
<text x="900" y="225" fill="gray" style="font-size:12px;">2025-02-28T11:48:51+00:00</text>
</svg>