<svg xmlns="http://www.w3.org/2000/svg" width="1000" height="200" style="background-color: white; font-family: sans-serif;">
<line x1="50" y1="100" x2="950" y2="100" stroke="gray" stroke-width="1"/>
<path d="M 62.0 100 Q 56.0 80, 50.0 100" stroke="black" fill="none" marker-end="url(#arrowhead)"/>
<path d="M 178.8673824201704 100 Q 120.4336912100852 80, 62.0 100" stroke="black" fill="none" marker-end="url(#arrowhead)"/>
<path d="M 190.8673824201704 100 Q 140.71383251368013 80, 90.56028260718986 100" stroke="black" fill="none" marker-end="url(#arrowhead)"/>
<path d="M 230.74109579552538 100 Q 210.80423910784788 80, 190.8673824201704 100" stroke="black" fill="none" marker-end="url(#arrowhead)"/>
<path d="M 230.74109579552538 100 Q 160.65068920135764 80, 90.56028260718986 100" stroke="black" fill="none" marker-end="url(#arrowhead)"/>
<path d="M 306.2565629978527 100 Q 248.56197270901157 80, 190.8673824201704 100" stroke="black" fill="none" marker-end="url(#arrowhead)"/>
<path d="M 306.2565629978527 100 Q 268.4988293966891 80, 230.74109579552538 100" stroke="black" fill="none" marker-end="url(#arrowhead)"/>
<path d="M 306.2565629978527 100 Q 198.40842280252127 80, 90.56028260718986 100" stroke="black" fill="none" marker-end="url(#arrowhead)"/>
<path d="M 696.8153771559188 100 Q 690.8153771559188 80, 684.8153771559188 100" stroke="black" fill="none" marker-end="url(#arrowhead)"/>
<path d="M 708.8153771559188 100 Q 702.8153771559188 80, 696.8153771559188 100" stroke="black" fill="none" marker-end="url(#arrowhead)"/>
<path d="M 720.8153771559188 100 Q 714.8153771559188 80, 708.8153771559188 100" stroke="black" fill="none" marker-end="url(#arrowhead)"/>
<path d="M 720.8153771559188 100 Q 708.8153771559188 80, 696.8153771559188 100" stroke="black" fill="none" marker-end="url(#arrowhead)"/>
<path d="M 732.8153771559188 100 Q 726.8153771559188 80, 720.8153771559188 100" stroke="black" fill="none" marker-end="url(#arrowhead)"/>
<path d="M 744.8153771559188 100 Q 738.8153771559188 80, 732.8153771559188 100" stroke="black" fill="none" marker-end="url(#arrowhead)"/>
<path d="M 854.1642446491654 100 Q 793.4898109025421 80, 732.8153771559188 100" stroke="black" fill="none" marker-end="url(#arrowhead)"/>
<path d="M 950.0 100 Q 817.4076885779593 80, 684.8153771559188 100" stroke="black" fill="none" marker-end="url(#arrowhead)"/>

<defs>
  <marker id="arrowhead" markerWidth="5" markerHeight="5" 
          refX="2" refY="2" orient="auto" fill="black">
    <path d="M0,0 L0,4 L4,2 z" />
  </marker>
</defs>

<circle cx="50.0" cy="100" r="6" fill="none" stroke="blue" stroke-width="2" />
<circle cx="50.0" cy="100" r="3" fill="blue" />
<circle cx="62.0" cy="100" r="4" fill="red" />
<circle cx="90.56028260718986" cy="100" r="4" fill="black" />
<circle cx="178.8673824201704" cy="100" r="6" fill="none" stroke="red" stroke-width="2" />
<circle cx="178.8673824201704" cy="100" r="3" fill="red" />
<circle cx="190.8673824201704" cy="100" r="6" fill="none" stroke="blue" stroke-width="2" />
<circle cx="190.8673824201704" cy="100" r="3" fill="blue" />
<circle cx="230.74109579552538" cy="100" r="6" fill="none" stroke="blue" stroke-width="2" />
<circle cx="230.74109579552538" cy="100" r="3" fill="blue" />
<circle cx="306.2565629978527" cy="100" r="6" fill="none" stroke="blue" stroke-width="2" />
<circle cx="306.2565629978527" cy="100" r="3" fill="blue" />
<circle cx="684.8153771559188" cy="100" r="4" fill="blue" />
<circle cx="696.8153771559188" cy="100" r="4" fill="red" />
<circle cx="708.8153771559188" cy="100" r="6" fill="none" stroke="black" stroke-width="2" />
<circle cx="708.8153771559188" cy="100" r="3" fill="black" />
<circle cx="720.8153771559188" cy="100" r="4" fill="black" />
<circle cx="732.8153771559188" cy="100" r="4" fill="black" />
<circle cx="744.8153771559188" cy="100" r="4" fill="black" />
<circle cx="854.1642446491654" cy="100" r="4" fill="black" />
<circle cx="950.0" cy="100" r="6" fill="none" stroke="blue" stroke-width="2" />
<circle cx="950.0" cy="100" r="3" fill="blue" />
<text x="50" y="125" fill="gray" style="font-size:12px;">2025-02-06T12:38:46+00:00</text>
<text x="900" y="125" fill="gray" style="font-size:12px;">2025-02-27T09:55:51+00:00</text>
</svg>