<svg xmlns="http://www.w3.org/2000/svg" width="1000" height="200" style="background-color: white; font-family: sans-serif;">
<line x1="50" y1="100" x2="950" y2="100" stroke="gray" stroke-width="1"/>
<path d="M 86.0 100 Q 80.0 80, 74.0 100" stroke="black" fill="none" marker-end="url(#arrowhead)"/>
<path d="M 98.0 100 Q 92.0 80, 86.0 100" stroke="black" fill="none" marker-end="url(#arrowhead)"/>
<path d="M 110.0 100 Q 104.0 80, 98.0 100" stroke="black" fill="none" marker-end="url(#arrowhead)"/>
<path d="M 122.0 100 Q 110.0 80, 98.0 100" stroke="black" fill="none" marker-end="url(#arrowhead)"/>
<path d="M 885.3831380678718 100 Q 467.6915690339359 80, 50.0 100" stroke="black" fill="none" marker-end="url(#arrowhead)"/>
<path d="M 897.3831380678718 100 Q 891.3831380678718 80, 885.3831380678718 100" stroke="black" fill="none" marker-end="url(#arrowhead)"/>
<path d="M 909.3831380678718 100 Q 903.3831380678718 80, 897.3831380678718 100" stroke="black" fill="none" marker-end="url(#arrowhead)"/>
<path d="M 921.3831380678718 100 Q 915.3831380678718 80, 909.3831380678718 100" stroke="black" fill="none" marker-end="url(#arrowhead)"/>
<path d="M 945.3831380678718 100 Q 939.3831380678718 80, 933.3831380678718 100" stroke="black" fill="none" marker-end="url(#arrowhead)"/>
<path d="M 957.3831380678718 100 Q 951.3831380678718 80, 945.3831380678718 100" stroke="black" fill="none" marker-end="url(#arrowhead)"/>
<path d="M 1017.3831380678718 100 Q 1011.3831380678718 80, 1005.3831380678718 100" stroke="black" fill="none" marker-end="url(#arrowhead)"/>

<defs>
  <marker id="arrowhead" markerWidth="5" markerHeight="5" 
          refX="2" refY="2" orient="auto" fill="black">
    <path d="M0,0 L0,4 L4,2 z" />
  </marker>
</defs>

<circle cx="50.0" cy="100" r="6" fill="none" stroke="black" stroke-width="2" />
<circle cx="50.0" cy="100" r="3" fill="black" />
<circle cx="62.0" cy="100" r="4" fill="black" />
<circle cx="74.0" cy="100" r="6" fill="none" stroke="black" stroke-width="2" />
<circle cx="74.0" cy="100" r="3" fill="black" />
<circle cx="86.0" cy="100" r="4" fill="black" />
<circle cx="98.0" cy="100" r="6" fill="none" stroke="blue" stroke-width="2" />
<circle cx="98.0" cy="100" r="3" fill="blue" />
<circle cx="110.0" cy="100" r="6" fill="none" stroke="black" stroke-width="2" />
<circle cx="110.0" cy="100" r="3" fill="black" />
<circle cx="122.0" cy="100" r="6" fill="none" stroke="black" stroke-width="2" />
<circle cx="122.0" cy="100" r="3" fill="black" />
<circle cx="885.3831380678718" cy="100" r="6" fill="none" stroke="blue" stroke-width="2" />
<circle cx="885.3831380678718" cy="100" r="3" fill="blue" />
<circle cx="897.3831380678718" cy="100" r="6" fill="none" stroke="blue" stroke-width="2" />
<circle cx="897.3831380678718" cy="100" r="3" fill="blue" />
<circle cx="909.3831380678718" cy="100" r="4" fill="blue" />
<circle cx="921.3831380678718" cy="100" r="4" fill="blue" />
<circle cx="933.3831380678718" cy="100" r="4" fill="red" />
<circle cx="945.3831380678718" cy="100" r="4" fill="black" />
<circle cx="957.3831380678718" cy="100" r="4" fill="black" />
<circle cx="969.3831380678718" cy="100" r="4" fill="blue" />
<circle cx="981.3831380678718" cy="100" r="4" fill="blue" />
<circle cx="993.3831380678718" cy="100" r="4" fill="blue" />
<circle cx="1005.3831380678718" cy="100" r="4" fill="blue" />
<circle cx="1017.3831380678718" cy="100" r="6" fill="none" stroke="red" stroke-width="2" />
<circle cx="1017.3831380678718" cy="100" r="3" fill="red" />
<text x="50" y="125" fill="gray" style="font-size:12px;">2021-11-03T23:33:08+00:00</text>
<text x="900" y="125" fill="gray" style="font-size:12px;">2025-02-28T01:53:19+00:00</text>
</svg>