<svg xmlns="http://www.w3.org/2000/svg" width="1000" height="200" style="background-color: white; font-family: sans-serif;">
<line x1="50" y1="100" x2="950" y2="100" stroke="gray" stroke-width="1"/>
<path d="M 62.0 100 Q 56.0 80, 50.0 100" stroke="black" fill="none" marker-end="url(#arrowhead)"/>
<path d="M 74.0 100 Q 62.0 80, 50.0 100" stroke="black" fill="none" marker-end="url(#arrowhead)"/>
<path d="M 86.0 100 Q 74.0 80, 62.0 100" stroke="black" fill="none" marker-end="url(#arrowhead)"/>
<path d="M 98.0 100 Q 74.0 80, 50.0 100" stroke="black" fill="none" marker-end="url(#arrowhead)"/>
<path d="M 98.0 100 Q 86.0 80, 74.0 100" stroke="black" fill="none" marker-end="url(#arrowhead)"/>
<path d="M 110.0 100 Q 80.0 80, 50.0 100" stroke="black" fill="none" marker-end="url(#arrowhead)"/>
<path d="M 110.0 100 Q 92.0 80, 74.0 100" stroke="black" fill="none" marker-end="url(#arrowhead)"/>
<path d="M 110.0 100 Q 104.0 80, 98.0 100" stroke="black" fill="none" marker-end="url(#arrowhead)"/>
<path d="M 122.0 100 Q 92.0 80, 62.0 100" stroke="black" fill="none" marker-end="url(#arrowhead)"/>
<path d="M 122.0 100 Q 104.0 80, 86.0 100" stroke="black" fill="none" marker-end="url(#arrowhead)"/>
<path d="M 134.0 100 Q 92.0 80, 50.0 100" stroke="black" fill="none" marker-end="url(#arrowhead)"/>
<path d="M 146.0 100 Q 140.0 80, 134.0 100" stroke="black" fill="none" marker-end="url(#arrowhead)"/>
<path d="M 206.22399373532832 100 Q 170.11199686766417 80, 134.0 100" stroke="black" fill="none" marker-end="url(#arrowhead)"/>
<path d="M 218.22399373532832 100 Q 212.22399373532832 80, 206.22399373532832 100" stroke="black" fill="none" marker-end="url(#arrowhead)"/>
<path d="M 230.22399373532832 100 Q 224.22399373532832 80, 218.22399373532832 100" stroke="black" fill="none" marker-end="url(#arrowhead)"/>
<path d="M 242.22399373532832 100 Q 236.22399373532832 80, 230.22399373532832 100" stroke="black" fill="none" marker-end="url(#arrowhead)"/>
<path d="M 255.20084303604185 100 Q 248.71241838568508 80, 242.22399373532832 100" stroke="black" fill="none" marker-end="url(#arrowhead)"/>
<path d="M 267.2008430360419 100 Q 254.7124183856851 80, 242.22399373532832 100" stroke="black" fill="none" marker-end="url(#arrowhead)"/>
<path d="M 267.2008430360419 100 Q 261.2008430360419 80, 255.20084303604185 100" stroke="black" fill="none" marker-end="url(#arrowhead)"/>
<path d="M 279.2008430360419 100 Q 273.2008430360419 80, 267.2008430360419 100" stroke="black" fill="none" marker-end="url(#arrowhead)"/>
<path d="M 291.2008430360419 100 Q 279.2008430360419 80, 267.2008430360419 100" stroke="black" fill="none" marker-end="url(#arrowhead)"/>
<path d="M 291.2008430360419 100 Q 285.2008430360419 80, 279.2008430360419 100" stroke="black" fill="none" marker-end="url(#arrowhead)"/>
<path d="M 317.7766699434768 100 Q 311.7766699434768 80, 305.7766699434768 100" stroke="black" fill="none" marker-end="url(#arrowhead)"/>
<path d="M 329.7766699434768 100 Q 317.7766699434768 80, 305.7766699434768 100" stroke="black" fill="none" marker-end="url(#arrowhead)"/>
<path d="M 329.7766699434768 100 Q 323.7766699434768 80, 317.7766699434768 100" stroke="black" fill="none" marker-end="url(#arrowhead)"/>
<path d="M 329.7766699434768 100 Q 207.8883349717384 80, 86.0 100" stroke="black" fill="none" marker-end="url(#arrowhead)"/>
<path d="M 348.16473384769034 100 Q 326.9707018955836 80, 305.7766699434768 100" stroke="black" fill="none" marker-end="url(#arrowhead)"/>
<path d="M 348.16473384769034 100 Q 332.9707018955836 80, 317.7766699434768 100" stroke="black" fill="none" marker-end="url(#arrowhead)"/>
<path d="M 348.16473384769034 100 Q 338.9707018955836 80, 329.7766699434768 100" stroke="black" fill="none" marker-end="url(#arrowhead)"/>
<path d="M 360.16473384769034 100 Q 332.9707018955836 80, 305.7766699434768 100" stroke="black" fill="none" marker-end="url(#arrowhead)"/>
<path d="M 360.16473384769034 100 Q 344.9707018955836 80, 329.7766699434768 100" stroke="black" fill="none" marker-end="url(#arrowhead)"/>
<path d="M 360.16473384769034 100 Q 354.16473384769034 80, 348.16473384769034 100" stroke="black" fill="none" marker-end="url(#arrowhead)"/>
<path d="M 494.1020358044379 100 Q 427.1333848260641 80, 360.16473384769034 100" stroke="black" fill="none" marker-end="url(#arrowhead)"/>
<path d="M 582.0565506381225 100 Q 514.0701934791241 80, 446.08383632012556 100" stroke="black" fill="none" marker-end="url(#arrowhead)"/>
<path d="M 582.0565506381225 100 Q 418.6286968370822 80, 255.20084303604185 100" stroke="black" fill="none" marker-end="url(#arrowhead)"/>
<path d="M 594.0565506381225 100 Q 588.0565506381225 80, 582.0565506381225 100" stroke="black" fill="none" marker-end="url(#arrowhead)"/>
<path d="M 618.0565506381225 100 Q 606.0565506381225 80, 594.0565506381225 100" stroke="black" fill="none" marker-end="url(#arrowhead)"/>
<path d="M 642.0565506381225 100 Q 624.0565506381225 80, 606.0565506381225 100" stroke="black" fill="none" marker-end="url(#arrowhead)"/>
<path d="M 685.4667262385523 100 Q 645.7616384383374 80, 606.0565506381225 100" stroke="black" fill="none" marker-end="url(#arrowhead)"/>
<path d="M 697.4667262385523 100 Q 691.4667262385523 80, 685.4667262385523 100" stroke="black" fill="none" marker-end="url(#arrowhead)"/>
<path d="M 697.4667262385523 100 Q 651.7616384383374 80, 606.0565506381225 100" stroke="black" fill="none" marker-end="url(#arrowhead)"/>
<path d="M 709.4667262385523 100 Q 703.4667262385523 80, 697.4667262385523 100" stroke="black" fill="none" marker-end="url(#arrowhead)"/>
<path d="M 721.4667262385523 100 Q 709.4667262385523 80, 697.4667262385523 100" stroke="black" fill="none" marker-end="url(#arrowhead)"/>
<path d="M 741.2764821031275 100 Q 731.3716041708399 80, 721.4667262385523 100" stroke="black" fill="none" marker-end="url(#arrowhead)"/>
<path d="M 775.929497849638 100 Q 748.6981120440951 80, 721.4667262385523 100" stroke="black" fill="none" marker-end="url(#arrowhead)"/>
<path d="M 824.2197764165194 100 Q 800.0746371330787 80, 775.929497849638 100" stroke="black" fill="none" marker-end="url(#arrowhead)"/>
<path d="M 879.9539862431003 100 Q 827.9417420463692 80, 775.929497849638 100" stroke="black" fill="none" marker-end="url(#arrowhead)"/>
<path d="M 879.9539862431003 100 Q 852.0868813298098 80, 824.2197764165194 100" stroke="black" fill="none" marker-end="url(#arrowhead)"/>
<path d="M 893.9140439710377 100 Q 834.9217709103378 80, 775.929497849638 100" stroke="black" fill="none" marker-end="url(#arrowhead)"/>
<path d="M 893.9140439710377 100 Q 859.0669101937785 80, 824.2197764165194 100" stroke="black" fill="none" marker-end="url(#arrowhead)"/>
<path d="M 893.9140439710377 100 Q 886.934015107069 80, 879.9539862431003 100" stroke="black" fill="none" marker-end="url(#arrowhead)"/>
<path d="M 905.9140439710377 100 Q 899.9140439710377 80, 893.9140439710377 100" stroke="black" fill="none" marker-end="url(#arrowhead)"/>
<path d="M 905.9140439710377 100 Q 840.9217709103378 80, 775.929497849638 100" stroke="black" fill="none" marker-end="url(#arrowhead)"/>
<path d="M 905.9140439710377 100 Q 865.0669101937785 80, 824.2197764165194 100" stroke="black" fill="none" marker-end="url(#arrowhead)"/>
<path d="M 905.9140439710377 100 Q 892.934015107069 80, 879.9539862431003 100" stroke="black" fill="none" marker-end="url(#arrowhead)"/>
<path d="M 921.4375026286956 100 Q 913.6757732998667 80, 905.9140439710377 100" stroke="black" fill="none" marker-end="url(#arrowhead)"/>
<path d="M 950.0 100 Q 935.7187513143479 80, 921.4375026286956 100" stroke="black" fill="none" marker-end="url(#arrowhead)"/>

<defs>
  <marker id="arrowhead" markerWidth="5" markerHeight="5" 
          refX="2" refY="2" orient="auto" fill="black">
    <path d="M0,0 L0,4 L4,2 z" />
  </marker>
</defs>

<circle cx="50.0" cy="100" r="6" fill="none" stroke="blue" stroke-width="2" />
<circle cx="50.0" cy="100" r="3" fill="blue" />
<circle cx="62.0" cy="100" r="4" fill="red" />
<circle cx="74.0" cy="100" r="4" fill="red" />
<circle cx="86.0" cy="100" r="6" fill="none" stroke="blue" stroke-width="2" />
<circle cx="86.0" cy="100" r="3" fill="blue" />
<circle cx="98.0" cy="100" r="6" fill="none" stroke="red" stroke-width="2" />
<circle cx="98.0" cy="100" r="3" fill="red" />
<circle cx="110.0" cy="100" r="4" fill="black" />
<circle cx="122.0" cy="100" r="4" fill="red" />
<circle cx="134.0" cy="100" r="4" fill="red" />
<circle cx="146.0" cy="100" r="4" fill="black" />
<circle cx="206.22399373532832" cy="100" r="6" fill="none" stroke="blue" stroke-width="2" />
<circle cx="206.22399373532832" cy="100" r="3" fill="blue" />
<circle cx="218.22399373532832" cy="100" r="4" fill="red" />
<circle cx="230.22399373532832" cy="100" r="4" fill="red" />
<circle cx="242.22399373532832" cy="100" r="6" fill="none" stroke="blue" stroke-width="2" />
<circle cx="242.22399373532832" cy="100" r="3" fill="blue" />
<circle cx="255.20084303604185" cy="100" r="6" fill="none" stroke="blue" stroke-width="2" />
<circle cx="255.20084303604185" cy="100" r="3" fill="blue" />
<circle cx="267.2008430360419" cy="100" r="4" fill="black" />
<circle cx="279.2008430360419" cy="100" r="6" fill="none" stroke="blue" stroke-width="2" />
<circle cx="279.2008430360419" cy="100" r="3" fill="blue" />
<circle cx="291.2008430360419" cy="100" r="4" fill="red" />
<circle cx="305.7766699434768" cy="100" r="4" fill="red" />
<circle cx="317.7766699434768" cy="100" r="6" fill="none" stroke="blue" stroke-width="2" />
<circle cx="317.7766699434768" cy="100" r="3" fill="blue" />
<circle cx="329.7766699434768" cy="100" r="4" fill="red" />
<circle cx="348.16473384769034" cy="100" r="6" fill="none" stroke="blue" stroke-width="2" />
<circle cx="348.16473384769034" cy="100" r="3" fill="blue" />
<circle cx="360.16473384769034" cy="100" r="4" fill="red" />
<circle cx="434.08383632012556" cy="100" r="4" fill="black" />
<circle cx="446.08383632012556" cy="100" r="4" fill="red" />
<circle cx="494.1020358044379" cy="100" r="6" fill="none" stroke="blue" stroke-width="2" />
<circle cx="494.1020358044379" cy="100" r="3" fill="blue" />
<circle cx="582.0565506381225" cy="100" r="6" fill="none" stroke="blue" stroke-width="2" />
<circle cx="582.0565506381225" cy="100" r="3" fill="blue" />
<circle cx="594.0565506381225" cy="100" r="4" fill="red" />
<circle cx="606.0565506381225" cy="100" r="4" fill="blue" />
<circle cx="618.0565506381225" cy="100" r="6" fill="none" stroke="blue" stroke-width="2" />
<circle cx="618.0565506381225" cy="100" r="3" fill="blue" />
<circle cx="630.0565506381225" cy="100" r="4" fill="black" />
<circle cx="642.0565506381225" cy="100" r="6" fill="none" stroke="blue" stroke-width="2" />
<circle cx="642.0565506381225" cy="100" r="3" fill="blue" />
<circle cx="685.4667262385523" cy="100" r="6" fill="none" stroke="blue" stroke-width="2" />
<circle cx="685.4667262385523" cy="100" r="3" fill="blue" />
<circle cx="697.4667262385523" cy="100" r="4" fill="black" />
<circle cx="709.4667262385523" cy="100" r="6" fill="none" stroke="black" stroke-width="2" />
<circle cx="709.4667262385523" cy="100" r="3" fill="black" />
<circle cx="721.4667262385523" cy="100" r="4" fill="red" />
<circle cx="741.2764821031275" cy="100" r="6" fill="none" stroke="green" stroke-width="2" />
<circle cx="741.2764821031275" cy="100" r="3" fill="green" />
<circle cx="775.929497849638" cy="100" r="6" fill="none" stroke="blue" stroke-width="2" />
<circle cx="775.929497849638" cy="100" r="3" fill="blue" />
<circle cx="824.2197764165194" cy="100" r="4" fill="red" />
<circle cx="879.9539862431003" cy="100" r="6" fill="none" stroke="blue" stroke-width="2" />
<circle cx="879.9539862431003" cy="100" r="3" fill="blue" />
<circle cx="893.9140439710377" cy="100" r="6" fill="none" stroke="blue" stroke-width="2" />
<circle cx="893.9140439710377" cy="100" r="3" fill="blue" />
<circle cx="905.9140439710377" cy="100" r="4" fill="red" />
<circle cx="921.4375026286956" cy="100" r="6" fill="none" stroke="blue" stroke-width="2" />
<circle cx="921.4375026286956" cy="100" r="3" fill="blue" />
<circle cx="950.0" cy="100" r="4" fill="red" />
<text x="50" y="125" fill="gray" style="font-size:12px;">2024-10-21T18:24:21+00:00</text>
<text x="900" y="125" fill="gray" style="font-size:12px;">2025-02-28T15:42:37+00:00</text>
</svg>