<svg xmlns="http://www.w3.org/2000/svg" width="1000" height="400" style="background-color: white; font-family: sans-serif;">
<line x1="50" y1="200" x2="950" y2="200" stroke="gray" stroke-width="1"/>
<path d="M 62.0 200 Q 56.0 180, 50.0 200" stroke="black" fill="none" marker-end="url(#arrowhead)"/>
<path d="M 74.0 200 Q 62.0 180, 50.0 200" stroke="black" fill="none" marker-end="url(#arrowhead)"/>
<path d="M 86.0 200 Q 74.0 180, 62.0 200" stroke="black" fill="none" marker-end="url(#arrowhead)"/>
<path d="M 98.0 200 Q 74.0 180, 50.0 200" stroke="black" fill="none" marker-end="url(#arrowhead)"/>
<path d="M 98.0 200 Q 86.0 180, 74.0 200" stroke="black" fill="none" marker-end="url(#arrowhead)"/>
<path d="M 110.0 200 Q 80.0 180, 50.0 200" stroke="black" fill="none" marker-end="url(#arrowhead)"/>
<path d="M 110.0 200 Q 92.0 180, 74.0 200" stroke="black" fill="none" marker-end="url(#arrowhead)"/>
<path d="M 110.0 200 Q 104.0 180, 98.0 200" stroke="black" fill="none" marker-end="url(#arrowhead)"/>
<path d="M 122.0 200 Q 92.0 180, 62.0 200" stroke="black" fill="none" marker-end="url(#arrowhead)"/>
<path d="M 122.0 200 Q 104.0 180, 86.0 200" stroke="black" fill="none" marker-end="url(#arrowhead)"/>
<path d="M 134.0 200 Q 92.0 180, 50.0 200" stroke="black" fill="none" marker-end="url(#arrowhead)"/>
<path d="M 146.0 200 Q 140.0 180, 134.0 200" stroke="black" fill="none" marker-end="url(#arrowhead)"/>
<path d="M 206.22399373532832 200 Q 170.11199686766417 180, 134.0 200" stroke="black" fill="none" marker-end="url(#arrowhead)"/>
<path d="M 218.22399373532832 200 Q 212.22399373532832 180, 206.22399373532832 200" stroke="black" fill="none" marker-end="url(#arrowhead)"/>
<path d="M 230.22399373532832 200 Q 224.22399373532832 180, 218.22399373532832 200" stroke="black" fill="none" marker-end="url(#arrowhead)"/>
<path d="M 242.22399373532832 200 Q 236.22399373532832 180, 230.22399373532832 200" stroke="black" fill="none" marker-end="url(#arrowhead)"/>
<path d="M 255.20084303604185 200 Q 248.71241838568508 180, 242.22399373532832 200" stroke="black" fill="none" marker-end="url(#arrowhead)"/>
<path d="M 267.2008430360419 200 Q 254.7124183856851 180, 242.22399373532832 200" stroke="black" fill="none" marker-end="url(#arrowhead)"/>
<path d="M 267.2008430360419 200 Q 261.2008430360419 180, 255.20084303604185 200" stroke="black" fill="none" marker-end="url(#arrowhead)"/>
<path d="M 279.2008430360419 200 Q 273.2008430360419 180, 267.2008430360419 200" stroke="black" fill="none" marker-end="url(#arrowhead)"/>
<path d="M 291.2008430360419 200 Q 279.2008430360419 180, 267.2008430360419 200" stroke="black" fill="none" marker-end="url(#arrowhead)"/>
<path d="M 291.2008430360419 200 Q 285.2008430360419 180, 279.2008430360419 200" stroke="black" fill="none" marker-end="url(#arrowhead)"/>
<path d="M 317.7766699434768 200 Q 311.7766699434768 180, 305.7766699434768 200" stroke="black" fill="none" marker-end="url(#arrowhead)"/>
<path d="M 329.7766699434768 200 Q 317.7766699434768 180, 305.7766699434768 200" stroke="black" fill="none" marker-end="url(#arrowhead)"/>
<path d="M 329.7766699434768 200 Q 323.7766699434768 180, 317.7766699434768 200" stroke="black" fill="none" marker-end="url(#arrowhead)"/>
<path d="M 329.7766699434768 200 Q 207.8883349717384 180, 86.0 200" stroke="black" fill="none" marker-end="url(#arrowhead)"/>
<path d="M 348.16473384769034 200 Q 326.9707018955836 180, 305.7766699434768 200" stroke="black" fill="none" marker-end="url(#arrowhead)"/>
<path d="M 348.16473384769034 200 Q 332.9707018955836 180, 317.7766699434768 200" stroke="black" fill="none" marker-end="url(#arrowhead)"/>
<path d="M 348.16473384769034 200 Q 338.9707018955836 180, 329.7766699434768 200" stroke="black" fill="none" marker-end="url(#arrowhead)"/>
<path d="M 360.16473384769034 200 Q 332.9707018955836 180, 305.7766699434768 200" stroke="black" fill="none" marker-end="url(#arrowhead)"/>
<path d="M 360.16473384769034 200 Q 344.9707018955836 180, 329.7766699434768 200" stroke="black" fill="none" marker-end="url(#arrowhead)"/>
<path d="M 360.16473384769034 200 Q 354.16473384769034 180, 348.16473384769034 200" stroke="black" fill="none" marker-end="url(#arrowhead)"/>
<path d="M 494.1020358044379 200 Q 427.1333848260641 180, 360.16473384769034 200" stroke="black" fill="none" marker-end="url(#arrowhead)"/>
<path d="M 582.0565506381225 200 Q 514.0701934791241 180, 446.08383632012556 200" stroke="black" fill="none" marker-end="url(#arrowhead)"/>
<path d="M 582.0565506381225 200 Q 418.6286968370822 180, 255.20084303604185 200" stroke="black" fill="none" marker-end="url(#arrowhead)"/>
<path d="M 594.0565506381225 200 Q 588.0565506381225 180, 582.0565506381225 200" stroke="black" fill="none" marker-end="url(#arrowhead)"/>
<path d="M 618.0565506381225 200 Q 606.0565506381225 180, 594.0565506381225 200" stroke="black" fill="none" marker-end="url(#arrowhead)"/>
<path d="M 642.0565506381225 200 Q 624.0565506381225 180, 606.0565506381225 200" stroke="black" fill="none" marker-end="url(#arrowhead)"/>
<path d="M 685.4667262385523 200 Q 645.7616384383374 180, 606.0565506381225 200" stroke="black" fill="none" marker-end="url(#arrowhead)"/>
<path d="M 697.4667262385523 200 Q 691.4667262385523 180, 685.4667262385523 200" stroke="black" fill="none" marker-end="url(#arrowhead)"/>
<path d="M 697.4667262385523 200 Q 651.7616384383374 180, 606.0565506381225 200" stroke="black" fill="none" marker-end="url(#arrowhead)"/>
<path d="M 709.4667262385523 200 Q 703.4667262385523 180, 697.4667262385523 200" stroke="black" fill="none" marker-end="url(#arrowhead)"/>
<path d="M 721.4667262385523 200 Q 709.4667262385523 180, 697.4667262385523 200" stroke="black" fill="none" marker-end="url(#arrowhead)"/>
<path d="M 741.2764821031275 200 Q 731.3716041708399 180, 721.4667262385523 200" stroke="black" fill="none" marker-end="url(#arrowhead)"/>
<path d="M 775.929497849638 200 Q 748.6981120440951 180, 721.4667262385523 200" stroke="black" fill="none" marker-end="url(#arrowhead)"/>
<path d="M 824.2197764165194 200 Q 800.0746371330787 180, 775.929497849638 200" stroke="black" fill="none" marker-end="url(#arrowhead)"/>
<path d="M 879.9539862431003 200 Q 827.9417420463692 180, 775.929497849638 200" stroke="black" fill="none" marker-end="url(#arrowhead)"/>
<path d="M 879.9539862431003 200 Q 852.0868813298098 180, 824.2197764165194 200" stroke="black" fill="none" marker-end="url(#arrowhead)"/>
<path d="M 893.9140439710377 200 Q 834.9217709103378 180, 775.929497849638 200" stroke="black" fill="none" marker-end="url(#arrowhead)"/>
<path d="M 893.9140439710377 200 Q 859.0669101937785 180, 824.2197764165194 200" stroke="black" fill="none" marker-end="url(#arrowhead)"/>
<path d="M 893.9140439710377 200 Q 886.934015107069 180, 879.9539862431003 200" stroke="black" fill="none" marker-end="url(#arrowhead)"/>
<path d="M 905.9140439710377 200 Q 899.9140439710377 180, 893.9140439710377 200" stroke="black" fill="none" marker-end="url(#arrowhead)"/>
<path d="M 905.9140439710377 200 Q 840.9217709103378 180, 775.929497849638 200" stroke="black" fill="none" marker-end="url(#arrowhead)"/>
<path d="M 905.9140439710377 200 Q 865.0669101937785 180, 824.2197764165194 200" stroke="black" fill="none" marker-end="url(#arrowhead)"/>
<path d="M 905.9140439710377 200 Q 892.934015107069 180, 879.9539862431003 200" stroke="black" fill="none" marker-end="url(#arrowhead)"/>
<path d="M 921.4375026286956 200 Q 913.6757732998667 180, 905.9140439710377 200" stroke="black" fill="none" marker-end="url(#arrowhead)"/>
<path d="M 950.0 200 Q 935.7187513143479 180, 921.4375026286956 200" stroke="black" fill="none" marker-end="url(#arrowhead)"/>

<defs>
  <marker id="arrowhead" markerWidth="5" markerHeight="5" 
          refX="2" refY="2" orient="auto" fill="black">
    <path d="M0,0 L0,4 L4,2 z" />
  </marker>
</defs>

<circle cx="50.0" cy="200" r="6" fill="none" stroke="blue" stroke-width="2" />
<circle cx="50.0" cy="200" r="3" fill="blue" />
<circle cx="62.0" cy="200" r="4" fill="red" />
<circle cx="74.0" cy="200" r="4" fill="red" />
<circle cx="86.0" cy="200" r="6" fill="none" stroke="blue" stroke-width="2" />
<circle cx="86.0" cy="200" r="3" fill="blue" />
<circle cx="98.0" cy="200" r="6" fill="none" stroke="red" stroke-width="2" />
<circle cx="98.0" cy="200" r="3" fill="red" />
<circle cx="110.0" cy="200" r="4" fill="black" />
<circle cx="122.0" cy="200" r="4" fill="red" />
<circle cx="134.0" cy="200" r="4" fill="red" />
<circle cx="146.0" cy="200" r="4" fill="black" />
<circle cx="206.22399373532832" cy="200" r="6" fill="none" stroke="blue" stroke-width="2" />
<circle cx="206.22399373532832" cy="200" r="3" fill="blue" />
<circle cx="218.22399373532832" cy="200" r="4" fill="red" />
<circle cx="230.22399373532832" cy="200" r="4" fill="red" />
<circle cx="242.22399373532832" cy="200" r="6" fill="none" stroke="blue" stroke-width="2" />
<circle cx="242.22399373532832" cy="200" r="3" fill="blue" />
<circle cx="255.20084303604185" cy="200" r="6" fill="none" stroke="blue" stroke-width="2" />
<circle cx="255.20084303604185" cy="200" r="3" fill="blue" />
<circle cx="267.2008430360419" cy="200" r="4" fill="black" />
<circle cx="279.2008430360419" cy="200" r="6" fill="none" stroke="blue" stroke-width="2" />
<circle cx="279.2008430360419" cy="200" r="3" fill="blue" />
<circle cx="291.2008430360419" cy="200" r="4" fill="red" />
<circle cx="305.7766699434768" cy="200" r="4" fill="red" />
<circle cx="317.7766699434768" cy="200" r="6" fill="none" stroke="blue" stroke-width="2" />
<circle cx="317.7766699434768" cy="200" r="3" fill="blue" />
<circle cx="329.7766699434768" cy="200" r="4" fill="red" />
<circle cx="348.16473384769034" cy="200" r="6" fill="none" stroke="blue" stroke-width="2" />
<circle cx="348.16473384769034" cy="200" r="3" fill="blue" />
<circle cx="360.16473384769034" cy="200" r="4" fill="red" />
<circle cx="434.08383632012556" cy="200" r="4" fill="black" />
<circle cx="446.08383632012556" cy="200" r="4" fill="red" />
<circle cx="494.1020358044379" cy="200" r="6" fill="none" stroke="blue" stroke-width="2" />
<circle cx="494.1020358044379" cy="200" r="3" fill="blue" />
<circle cx="582.0565506381225" cy="200" r="6" fill="none" stroke="blue" stroke-width="2" />
<circle cx="582.0565506381225" cy="200" r="3" fill="blue" />
<circle cx="594.0565506381225" cy="200" r="4" fill="red" />
<circle cx="606.0565506381225" cy="200" r="4" fill="blue" />
<circle cx="618.0565506381225" cy="200" r="6" fill="none" stroke="blue" stroke-width="2" />
<circle cx="618.0565506381225" cy="200" r="3" fill="blue" />
<circle cx="630.0565506381225" cy="200" r="4" fill="black" />
<circle cx="642.0565506381225" cy="200" r="6" fill="none" stroke="blue" stroke-width="2" />
<circle cx="642.0565506381225" cy="200" r="3" fill="blue" />
<circle cx="685.4667262385523" cy="200" r="6" fill="none" stroke="blue" stroke-width="2" />
<circle cx="685.4667262385523" cy="200" r="3" fill="blue" />
<circle cx="697.4667262385523" cy="200" r="4" fill="black" />
<circle cx="709.4667262385523" cy="200" r="6" fill="none" stroke="black" stroke-width="2" />
<circle cx="709.4667262385523" cy="200" r="3" fill="black" />
<circle cx="721.4667262385523" cy="200" r="4" fill="red" />
<circle cx="741.2764821031275" cy="200" r="6" fill="none" stroke="green" stroke-width="2" />
<circle cx="741.2764821031275" cy="200" r="3" fill="green" />
<circle cx="775.929497849638" cy="200" r="6" fill="none" stroke="blue" stroke-width="2" />
<circle cx="775.929497849638" cy="200" r="3" fill="blue" />
<circle cx="824.2197764165194" cy="200" r="4" fill="red" />
<circle cx="879.9539862431003" cy="200" r="6" fill="none" stroke="blue" stroke-width="2" />
<circle cx="879.9539862431003" cy="200" r="3" fill="blue" />
<circle cx="893.9140439710377" cy="200" r="6" fill="none" stroke="blue" stroke-width="2" />
<circle cx="893.9140439710377" cy="200" r="3" fill="blue" />
<circle cx="905.9140439710377" cy="200" r="4" fill="red" />
<circle cx="921.4375026286956" cy="200" r="6" fill="none" stroke="blue" stroke-width="2" />
<circle cx="921.4375026286956" cy="200" r="3" fill="blue" />
<circle cx="950.0" cy="200" r="4" fill="red" />
<text x="50" y="225" fill="gray" style="font-size:12px;">2024-10-21T18:24:21+00:00</text>
<text x="900" y="225" fill="gray" style="font-size:12px;">2025-02-28T15:42:37+00:00</text>
</svg>