<svg xmlns="http://www.w3.org/2000/svg" width="1000" height="400" style="background-color: white; font-family: sans-serif;">
<line x1="50" y1="200" x2="950" y2="200" stroke="gray" stroke-width="1"/>
<path d="M 62.0 200 Q 56.0 180, 50.0 200" stroke="black" fill="none" marker-end="url(#arrowhead)"/>
<path d="M 74.0 200 Q 62.0 180, 50.0 200" stroke="black" fill="none" marker-end="url(#arrowhead)"/>
<path d="M 86.0 200 Q 74.0 180, 62.0 200" stroke="black" fill="none" marker-end="url(#arrowhead)"/>
<path d="M 98.0 200 Q 86.0 180, 74.0 200" stroke="black" fill="none" marker-end="url(#arrowhead)"/>
<path d="M 110.0 200 Q 98.0 180, 86.0 200" stroke="black" fill="none" marker-end="url(#arrowhead)"/>
<path d="M 122.0 200 Q 116.0 180, 110.0 200" stroke="black" fill="none" marker-end="url(#arrowhead)"/>
<path d="M 134.0 200 Q 92.0 180, 50.0 200" stroke="black" fill="none" marker-end="url(#arrowhead)"/>
<path d="M 146.0 200 Q 140.0 180, 134.0 200" stroke="black" fill="none" marker-end="url(#arrowhead)"/>
<path d="M 158.0 200 Q 152.0 180, 146.0 200" stroke="black" fill="none" marker-end="url(#arrowhead)"/>
<path d="M 170.0 200 Q 164.0 180, 158.0 200" stroke="black" fill="none" marker-end="url(#arrowhead)"/>
<path d="M 182.0 200 Q 176.0 180, 170.0 200" stroke="black" fill="none" marker-end="url(#arrowhead)"/>
<path d="M 194.0 200 Q 140.0 180, 86.0 200" stroke="black" fill="none" marker-end="url(#arrowhead)"/>
<path d="M 194.0 200 Q 158.0 180, 122.0 200" stroke="black" fill="none" marker-end="url(#arrowhead)"/>
<path d="M 206.0 200 Q 200.0 180, 194.0 200" stroke="black" fill="none" marker-end="url(#arrowhead)"/>
<path d="M 218.0 200 Q 212.0 180, 206.0 200" stroke="black" fill="none" marker-end="url(#arrowhead)"/>
<path d="M 218.0 200 Q 152.0 180, 86.0 200" stroke="black" fill="none" marker-end="url(#arrowhead)"/>
<path d="M 230.0 200 Q 224.0 180, 218.0 200" stroke="black" fill="none" marker-end="url(#arrowhead)"/>
<path d="M 242.0 200 Q 164.0 180, 86.0 200" stroke="black" fill="none" marker-end="url(#arrowhead)"/>
<path d="M 242.0 200 Q 236.0 180, 230.0 200" stroke="black" fill="none" marker-end="url(#arrowhead)"/>
<path d="M 254.0 200 Q 212.0 180, 170.0 200" stroke="black" fill="none" marker-end="url(#arrowhead)"/>
<path d="M 266.0 200 Q 242.0 180, 218.0 200" stroke="black" fill="none" marker-end="url(#arrowhead)"/>
<path d="M 278.0 200 Q 272.0 180, 266.0 200" stroke="black" fill="none" marker-end="url(#arrowhead)"/>
<path d="M 290.0 200 Q 284.0 180, 278.0 200" stroke="black" fill="none" marker-end="url(#arrowhead)"/>
<path d="M 302.0 200 Q 296.0 180, 290.0 200" stroke="black" fill="none" marker-end="url(#arrowhead)"/>
<path d="M 314.0 200 Q 284.0 180, 254.0 200" stroke="black" fill="none" marker-end="url(#arrowhead)"/>
<path d="M 326.0 200 Q 254.0 180, 182.0 200" stroke="black" fill="none" marker-end="url(#arrowhead)"/>
<path d="M 326.0 200 Q 290.0 180, 254.0 200" stroke="black" fill="none" marker-end="url(#arrowhead)"/>
<path d="M 338.0 200 Q 320.0 180, 302.0 200" stroke="black" fill="none" marker-end="url(#arrowhead)"/>
<path d="M 444.0960359606675 200 Q 289.0480179803337 180, 134.0 200" stroke="black" fill="none" marker-end="url(#arrowhead)"/>
<path d="M 444.0960359606675 200 Q 247.04801798033375 180, 50.0 200" stroke="black" fill="none" marker-end="url(#arrowhead)"/>
<path d="M 468.0960359606675 200 Q 462.0960359606675 180, 456.0960359606675 200" stroke="black" fill="none" marker-end="url(#arrowhead)"/>
<path d="M 480.0960359606675 200 Q 468.0960359606675 180, 456.0960359606675 200" stroke="black" fill="none" marker-end="url(#arrowhead)"/>
<path d="M 525.8379179503947 200 Q 502.9669769555311 180, 480.0960359606675 200" stroke="black" fill="none" marker-end="url(#arrowhead)"/>
<path d="M 537.8379179503947 200 Q 317.91895897519737 180, 98.0 200" stroke="black" fill="none" marker-end="url(#arrowhead)"/>
<path d="M 537.8379179503947 200 Q 508.9669769555311 180, 480.0960359606675 200" stroke="black" fill="none" marker-end="url(#arrowhead)"/>
<path d="M 537.8379179503947 200 Q 531.8379179503947 180, 525.8379179503947 200" stroke="black" fill="none" marker-end="url(#arrowhead)"/>
<path d="M 549.8379179503947 200 Q 543.8379179503947 180, 537.8379179503947 200" stroke="black" fill="none" marker-end="url(#arrowhead)"/>
<path d="M 549.8379179503947 200 Q 323.91895897519737 180, 98.0 200" stroke="black" fill="none" marker-end="url(#arrowhead)"/>
<path d="M 549.8379179503947 200 Q 514.9669769555311 180, 480.0960359606675 200" stroke="black" fill="none" marker-end="url(#arrowhead)"/>
<path d="M 549.8379179503947 200 Q 537.8379179503947 180, 525.8379179503947 200" stroke="black" fill="none" marker-end="url(#arrowhead)"/>
<path d="M 561.8379179503947 200 Q 520.9669769555311 180, 480.0960359606675 200" stroke="black" fill="none" marker-end="url(#arrowhead)"/>
<path d="M 561.8379179503947 200 Q 555.8379179503947 180, 549.8379179503947 200" stroke="black" fill="none" marker-end="url(#arrowhead)"/>
<path d="M 561.8379179503947 200 Q 549.8379179503947 180, 537.8379179503947 200" stroke="black" fill="none" marker-end="url(#arrowhead)"/>
<path d="M 561.8379179503947 200 Q 329.91895897519737 180, 98.0 200" stroke="black" fill="none" marker-end="url(#arrowhead)"/>
<path d="M 561.8379179503947 200 Q 543.8379179503947 180, 525.8379179503947 200" stroke="black" fill="none" marker-end="url(#arrowhead)"/>
<path d="M 591.2549181563576 200 Q 523.6754770585126 180, 456.0960359606675 200" stroke="black" fill="none" marker-end="url(#arrowhead)"/>
<path d="M 591.2549181563576 200 Q 344.6274590781788 180, 98.0 200" stroke="black" fill="none" marker-end="url(#arrowhead)"/>
<path d="M 902.7929182795106 200 Q 720.3154181149526 180, 537.8379179503947 200" stroke="black" fill="none" marker-end="url(#arrowhead)"/>
<path d="M 914.7929182795106 200 Q 726.3154181149526 180, 537.8379179503947 200" stroke="black" fill="none" marker-end="url(#arrowhead)"/>
<path d="M 914.7929182795106 200 Q 908.7929182795106 180, 902.7929182795106 200" stroke="black" fill="none" marker-end="url(#arrowhead)"/>
<path d="M 926.7929182795106 200 Q 614.3964591397553 180, 302.0 200" stroke="black" fill="none" marker-end="url(#arrowhead)"/>
<path d="M 948.7867309043887 200 Q 937.7898245919496 180, 926.7929182795106 200" stroke="black" fill="none" marker-end="url(#arrowhead)"/>
<path d="M 960.7867309043887 200 Q 943.7898245919496 180, 926.7929182795106 200" stroke="black" fill="none" marker-end="url(#arrowhead)"/>
<path d="M 972.7867309043887 200 Q 966.7867309043887 180, 960.7867309043887 200" stroke="black" fill="none" marker-end="url(#arrowhead)"/>

<defs>
  <marker id="arrowhead" markerWidth="5" markerHeight="5" 
          refX="2" refY="2" orient="auto" fill="black">
    <path d="M0,0 L0,4 L4,2 z" />
  </marker>
</defs>

<circle cx="50.0" cy="200" r="6" fill="none" stroke="blue" stroke-width="2" />
<circle cx="50.0" cy="200" r="3" fill="blue" />
<circle cx="62.0" cy="200" r="4" fill="black" />
<circle cx="74.0" cy="200" r="4" fill="red" />
<circle cx="86.0" cy="200" r="6" fill="none" stroke="black" stroke-width="2" />
<circle cx="86.0" cy="200" r="3" fill="black" />
<circle cx="98.0" cy="200" r="6" fill="none" stroke="black" stroke-width="2" />
<circle cx="98.0" cy="200" r="3" fill="black" />
<circle cx="110.0" cy="200" r="4" fill="red" />
<circle cx="122.0" cy="200" r="6" fill="none" stroke="black" stroke-width="2" />
<circle cx="122.0" cy="200" r="3" fill="black" />
<circle cx="134.0" cy="200" r="6" fill="none" stroke="blue" stroke-width="2" />
<circle cx="134.0" cy="200" r="3" fill="blue" />
<circle cx="146.0" cy="200" r="4" fill="red" />
<circle cx="158.0" cy="200" r="6" fill="none" stroke="black" stroke-width="2" />
<circle cx="158.0" cy="200" r="3" fill="black" />
<circle cx="170.0" cy="200" r="4" fill="red" />
<circle cx="182.0" cy="200" r="6" fill="none" stroke="black" stroke-width="2" />
<circle cx="182.0" cy="200" r="3" fill="black" />
<circle cx="194.0" cy="200" r="4" fill="red" />
<circle cx="206.0" cy="200" r="6" fill="none" stroke="black" stroke-width="2" />
<circle cx="206.0" cy="200" r="3" fill="black" />
<circle cx="218.0" cy="200" r="4" fill="red" />
<circle cx="230.0" cy="200" r="6" fill="none" stroke="black" stroke-width="2" />
<circle cx="230.0" cy="200" r="3" fill="black" />
<circle cx="242.0" cy="200" r="4" fill="black" />
<circle cx="254.0" cy="200" r="4" fill="black" />
<circle cx="266.0" cy="200" r="4" fill="green" />
<circle cx="278.0" cy="200" r="6" fill="none" stroke="black" stroke-width="2" />
<circle cx="278.0" cy="200" r="3" fill="black" />
<circle cx="290.0" cy="200" r="4" fill="black" />
<circle cx="302.0" cy="200" r="6" fill="none" stroke="black" stroke-width="2" />
<circle cx="302.0" cy="200" r="3" fill="black" />
<circle cx="314.0" cy="200" r="6" fill="none" stroke="black" stroke-width="2" />
<circle cx="314.0" cy="200" r="3" fill="black" />
<circle cx="326.0" cy="200" r="6" fill="none" stroke="black" stroke-width="2" />
<circle cx="326.0" cy="200" r="3" fill="black" />
<circle cx="338.0" cy="200" r="4" fill="black" />
<circle cx="444.0960359606675" cy="200" r="4" fill="blue" />
<circle cx="456.0960359606675" cy="200" r="6" fill="none" stroke="blue" stroke-width="2" />
<circle cx="456.0960359606675" cy="200" r="3" fill="blue" />
<circle cx="468.0960359606675" cy="200" r="4" fill="black" />
<circle cx="480.0960359606675" cy="200" r="6" fill="none" stroke="black" stroke-width="2" />
<circle cx="480.0960359606675" cy="200" r="3" fill="black" />
<circle cx="525.8379179503947" cy="200" r="4" fill="green" />
<circle cx="537.8379179503947" cy="200" r="4" fill="red" />
<circle cx="549.8379179503947" cy="200" r="4" fill="red" />
<circle cx="561.8379179503947" cy="200" r="4" fill="red" />
<circle cx="591.2549181563576" cy="200" r="6" fill="none" stroke="blue" stroke-width="2" />
<circle cx="591.2549181563576" cy="200" r="3" fill="blue" />
<circle cx="902.7929182795106" cy="200" r="6" fill="none" stroke="green" stroke-width="2" />
<circle cx="902.7929182795106" cy="200" r="3" fill="green" />
<circle cx="914.7929182795106" cy="200" r="4" fill="green" />
<circle cx="926.7929182795106" cy="200" r="6" fill="none" stroke="black" stroke-width="2" />
<circle cx="926.7929182795106" cy="200" r="3" fill="black" />
<circle cx="948.7867309043887" cy="200" r="6" fill="none" stroke="blue" stroke-width="2" />
<circle cx="948.7867309043887" cy="200" r="3" fill="blue" />
<circle cx="960.7867309043887" cy="200" r="4" fill="black" />
<circle cx="972.7867309043887" cy="200" r="6" fill="none" stroke="black" stroke-width="2" />
<circle cx="972.7867309043887" cy="200" r="3" fill="black" />
<text x="50" y="225" fill="gray" style="font-size:12px;">2024-08-15T19:22:32+00:00</text>
<text x="900" y="225" fill="gray" style="font-size:12px;">2025-02-28T00:57:56+00:00</text>
</svg>