<svg xmlns="http://www.w3.org/2000/svg" width="1000" height="400" style="background-color: white; font-family: sans-serif;">
<line x1="50" y1="200" x2="950" y2="200" stroke="gray" stroke-width="1"/>
<path d="M 815.3042410577699 200 Q 700.8168356410897 180, 586.3294302244094 200" stroke="black" fill="none" marker-end="url(#arrowhead)"/>
<path d="M 827.3042410577699 200 Q 438.65212052888495 180, 50.0 200" stroke="black" fill="none" marker-end="url(#arrowhead)"/>
<path d="M 949.210504806157 200 Q 888.2573729319635 180, 827.3042410577699 200" stroke="black" fill="none" marker-end="url(#arrowhead)"/>
<path d="M 961.210504806157 200 Q 955.210504806157 180, 949.210504806157 200" stroke="black" fill="none" marker-end="url(#arrowhead)"/>
<path d="M 973.210504806157 200 Q 967.210504806157 180, 961.210504806157 200" stroke="black" fill="none" marker-end="url(#arrowhead)"/>
<path d="M 985.210504806157 200 Q 979.210504806157 180, 973.210504806157 200" stroke="black" fill="none" marker-end="url(#arrowhead)"/>

<defs>
  <marker id="arrowhead" markerWidth="5" markerHeight="5" 
          refX="2" refY="2" orient="auto" fill="black">
    <path d="M0,0 L0,4 L4,2 z" />
  </marker>
</defs>

<circle cx="50.0" cy="200" r="6" fill="none" stroke="blue" stroke-width="2" />
<circle cx="50.0" cy="200" r="3" fill="blue" />
<circle cx="586.3294302244094" cy="200" r="4" fill="red" />
<circle cx="815.3042410577699" cy="200" r="6" fill="none" stroke="black" stroke-width="2" />
<circle cx="815.3042410577699" cy="200" r="3" fill="black" />
<circle cx="827.3042410577699" cy="200" r="4" fill="green" />
<circle cx="949.210504806157" cy="200" r="4" fill="black" />
<circle cx="961.210504806157" cy="200" r="4" fill="black" />
<circle cx="973.210504806157" cy="200" r="4" fill="green" />
<circle cx="985.210504806157" cy="200" r="4" fill="green" />
<circle cx="997.210504806157" cy="200" r="6" fill="none" stroke="green" stroke-width="2" />
<circle cx="997.210504806157" cy="200" r="3" fill="green" />
<text x="50" y="225" fill="gray" style="font-size:12px;">2024-11-07T11:07:35+00:00</text>
<text x="900" y="225" fill="gray" style="font-size:12px;">2025-02-19T02:47:31+00:00</text>
</svg>