<svg xmlns="http://www.w3.org/2000/svg" width="1000" height="200" style="background-color: white; font-family: sans-serif;">
<line x1="50" y1="100" x2="950" y2="100" stroke="gray" stroke-width="1"/>
<path d="M 62.0 100 Q 56.0 80, 50.0 100" stroke="black" fill="none" marker-end="url(#arrowhead)"/>
<path d="M 74.0 100 Q 68.0 80, 62.0 100" stroke="black" fill="none" marker-end="url(#arrowhead)"/>
<path d="M 238.08500072879409 100 Q 156.04250036439703 80, 74.0 100" stroke="black" fill="none" marker-end="url(#arrowhead)"/>
<path d="M 255.6566281814923 100 Q 246.8708144551432 80, 238.08500072879409 100" stroke="black" fill="none" marker-end="url(#arrowhead)"/>
<path d="M 267.6566281814923 100 Q 261.6566281814923 80, 255.6566281814923 100" stroke="black" fill="none" marker-end="url(#arrowhead)"/>
<path d="M 296.6507798479441 100 Q 267.3678902883691 80, 238.08500072879409 100" stroke="black" fill="none" marker-end="url(#arrowhead)"/>
<path d="M 436.66532512442103 100 Q 337.3751629266076 80, 238.08500072879409 100" stroke="black" fill="none" marker-end="url(#arrowhead)"/>
<path d="M 436.66532512442103 100 Q 375.8721905561292 80, 315.07905598783736 100" stroke="black" fill="none" marker-end="url(#arrowhead)"/>
<path d="M 451.6308537373365 100 Q 262.8154268686683 80, 74.0 100" stroke="black" fill="none" marker-end="url(#arrowhead)"/>
<path d="M 451.6308537373365 100 Q 444.14808943087877 80, 436.66532512442103 100" stroke="black" fill="none" marker-end="url(#arrowhead)"/>
<path d="M 502.95127179352596 100 Q 477.2910627654312 80, 451.6308537373365 100" stroke="black" fill="none" marker-end="url(#arrowhead)"/>
<path d="M 502.95127179352596 100 Q 370.51813626116 80, 238.08500072879409 100" stroke="black" fill="none" marker-end="url(#arrowhead)"/>
<path d="M 514.951271793526 100 Q 376.51813626116 80, 238.08500072879409 100" stroke="black" fill="none" marker-end="url(#arrowhead)"/>
<path d="M 514.951271793526 100 Q 492.596443561305 80, 470.241615329084 100" stroke="black" fill="none" marker-end="url(#arrowhead)"/>
<path d="M 514.951271793526 100 Q 415.01516389068166 80, 315.07905598783736 100" stroke="black" fill="none" marker-end="url(#arrowhead)"/>
<path d="M 526.951271793526 100 Q 514.951271793526 80, 502.95127179352596 100" stroke="black" fill="none" marker-end="url(#arrowhead)"/>
<path d="M 526.951271793526 100 Q 411.80102582073505 80, 296.6507798479441 100" stroke="black" fill="none" marker-end="url(#arrowhead)"/>
<path d="M 538.951271793526 100 Q 388.51813626116 80, 238.08500072879409 100" stroke="black" fill="none" marker-end="url(#arrowhead)"/>
<path d="M 538.951271793526 100 Q 532.951271793526 80, 526.951271793526 100" stroke="black" fill="none" marker-end="url(#arrowhead)"/>
<path d="M 550.951271793526 100 Q 312.475635896763 80, 74.0 100" stroke="black" fill="none" marker-end="url(#arrowhead)"/>
<path d="M 550.951271793526 100 Q 544.951271793526 80, 538.951271793526 100" stroke="black" fill="none" marker-end="url(#arrowhead)"/>
<path d="M 562.951271793526 100 Q 400.51813626116 80, 238.08500072879409 100" stroke="black" fill="none" marker-end="url(#arrowhead)"/>
<path d="M 562.951271793526 100 Q 556.951271793526 80, 550.951271793526 100" stroke="black" fill="none" marker-end="url(#arrowhead)"/>
<path d="M 645.4551940830335 100 Q 630.2787742639657 80, 615.102354444898 100" stroke="black" fill="none" marker-end="url(#arrowhead)"/>
<path d="M 707.3556366006901 100 Q 472.7203186647421 80, 238.08500072879409 100" stroke="black" fill="none" marker-end="url(#arrowhead)"/>
<path d="M 707.3556366006901 100 Q 661.2289955227941 80, 615.102354444898 100" stroke="black" fill="none" marker-end="url(#arrowhead)"/>
<path d="M 732.4811288236345 100 Q 719.9183827121624 80, 707.3556366006901 100" stroke="black" fill="none" marker-end="url(#arrowhead)"/>
<path d="M 858.7224985433683 100 Q 795.6018136835014 80, 732.4811288236345 100" stroke="black" fill="none" marker-end="url(#arrowhead)"/>
<path d="M 858.7224985433683 100 Q 548.4037496360812 80, 238.08500072879409 100" stroke="black" fill="none" marker-end="url(#arrowhead)"/>
<path d="M 858.7224985433683 100 Q 736.9124264941331 80, 615.102354444898 100" stroke="black" fill="none" marker-end="url(#arrowhead)"/>
<path d="M 870.7224985433683 100 Q 801.6018136835014 80, 732.4811288236345 100" stroke="black" fill="none" marker-end="url(#arrowhead)"/>
<path d="M 870.7224985433683 100 Q 807.6018136835014 80, 744.4811288236345 100" stroke="black" fill="none" marker-end="url(#arrowhead)"/>
<path d="M 894.7224985433683 100 Q 478.36124927168413 80, 62.0 100" stroke="black" fill="none" marker-end="url(#arrowhead)"/>
<path d="M 894.7224985433683 100 Q 888.7224985433683 80, 882.7224985433683 100" stroke="black" fill="none" marker-end="url(#arrowhead)"/>
<path d="M 950.0 100 Q 506.0 80, 62.0 100" stroke="black" fill="none" marker-end="url(#arrowhead)"/>
<path d="M 950.0 100 Q 916.3612492716841 80, 882.7224985433683 100" stroke="black" fill="none" marker-end="url(#arrowhead)"/>

<defs>
  <marker id="arrowhead" markerWidth="5" markerHeight="5" 
          refX="2" refY="2" orient="auto" fill="black">
    <path d="M0,0 L0,4 L4,2 z" />
  </marker>
</defs>

<circle cx="50.0" cy="100" r="6" fill="none" stroke="blue" stroke-width="2" />
<circle cx="50.0" cy="100" r="3" fill="blue" />
<circle cx="62.0" cy="100" r="4" fill="red" />
<circle cx="74.0" cy="100" r="6" fill="none" stroke="blue" stroke-width="2" />
<circle cx="74.0" cy="100" r="3" fill="blue" />
<circle cx="238.08500072879409" cy="100" r="4" fill="red" />
<circle cx="255.6566281814923" cy="100" r="4" fill="black" />
<circle cx="267.6566281814923" cy="100" r="4" fill="green" />
<circle cx="296.6507798479441" cy="100" r="6" fill="none" stroke="blue" stroke-width="2" />
<circle cx="296.6507798479441" cy="100" r="3" fill="blue" />
<circle cx="315.07905598783736" cy="100" r="4" fill="red" />
<circle cx="436.66532512442103" cy="100" r="6" fill="none" stroke="blue" stroke-width="2" />
<circle cx="436.66532512442103" cy="100" r="3" fill="blue" />
<circle cx="451.6308537373365" cy="100" r="4" fill="red" />
<circle cx="470.241615329084" cy="100" r="4" fill="red" />
<circle cx="502.95127179352596" cy="100" r="6" fill="none" stroke="blue" stroke-width="2" />
<circle cx="502.95127179352596" cy="100" r="3" fill="blue" />
<circle cx="514.951271793526" cy="100" r="6" fill="none" stroke="blue" stroke-width="2" />
<circle cx="514.951271793526" cy="100" r="3" fill="blue" />
<circle cx="526.951271793526" cy="100" r="4" fill="red" />
<circle cx="538.951271793526" cy="100" r="6" fill="none" stroke="blue" stroke-width="2" />
<circle cx="538.951271793526" cy="100" r="3" fill="blue" />
<circle cx="550.951271793526" cy="100" r="4" fill="red" />
<circle cx="562.951271793526" cy="100" r="6" fill="none" stroke="blue" stroke-width="2" />
<circle cx="562.951271793526" cy="100" r="3" fill="blue" />
<circle cx="615.102354444898" cy="100" r="4" fill="red" />
<circle cx="645.4551940830335" cy="100" r="4" fill="red" />
<circle cx="707.3556366006901" cy="100" r="6" fill="none" stroke="blue" stroke-width="2" />
<circle cx="707.3556366006901" cy="100" r="3" fill="blue" />
<circle cx="732.4811288236345" cy="100" r="4" fill="red" />
<circle cx="744.4811288236345" cy="100" r="4" fill="red" />
<circle cx="858.7224985433683" cy="100" r="6" fill="none" stroke="blue" stroke-width="2" />
<circle cx="858.7224985433683" cy="100" r="3" fill="blue" />
<circle cx="870.7224985433683" cy="100" r="6" fill="none" stroke="blue" stroke-width="2" />
<circle cx="870.7224985433683" cy="100" r="3" fill="blue" />
<circle cx="882.7224985433683" cy="100" r="4" fill="red" />
<circle cx="894.7224985433683" cy="100" r="6" fill="none" stroke="blue" stroke-width="2" />
<circle cx="894.7224985433683" cy="100" r="3" fill="blue" />
<circle cx="950.0" cy="100" r="6" fill="none" stroke="blue" stroke-width="2" />
<circle cx="950.0" cy="100" r="3" fill="blue" />
<text x="50" y="125" fill="gray" style="font-size:12px;">2025-01-29T04:24:42+00:00</text>
<text x="900" y="125" fill="gray" style="font-size:12px;">2025-02-28T10:29:49+00:00</text>
</svg>