<svg xmlns="http://www.w3.org/2000/svg" width="1000" height="200" style="background-color: white; font-family: sans-serif;">
<line x1="50" y1="100" x2="950" y2="100" stroke="gray" stroke-width="1"/>
<path d="M 71.88848942828075 100 Q 60.944244714140375 80, 50.0 100" stroke="black" fill="none" marker-end="url(#arrowhead)"/>
<path d="M 87.27922547020125 100 Q 79.58385744924101 80, 71.88848942828075 100" stroke="black" fill="none" marker-end="url(#arrowhead)"/>
<path d="M 99.27922547020125 100 Q 93.27922547020125 80, 87.27922547020125 100" stroke="black" fill="none" marker-end="url(#arrowhead)"/>
<path d="M 180.34567694794978 100 Q 139.8124512090755 80, 99.27922547020125 100" stroke="black" fill="none" marker-end="url(#arrowhead)"/>
<path d="M 192.34567694794978 100 Q 139.8124512090755 80, 87.27922547020125 100" stroke="black" fill="none" marker-end="url(#arrowhead)"/>
<path d="M 192.34567694794978 100 Q 186.34567694794978 80, 180.34567694794978 100" stroke="black" fill="none" marker-end="url(#arrowhead)"/>
<path d="M 212.0797169727128 100 Q 202.2126969603313 80, 192.34567694794978 100" stroke="black" fill="none" marker-end="url(#arrowhead)"/>
<path d="M 231.47377479001702 100 Q 221.7767458813649 80, 212.0797169727128 100" stroke="black" fill="none" marker-end="url(#arrowhead)"/>
<path d="M 231.47377479001702 100 Q 159.37650013010915 80, 87.27922547020125 100" stroke="black" fill="none" marker-end="url(#arrowhead)"/>
<path d="M 243.47377479001702 100 Q 237.47377479001702 80, 231.47377479001702 100" stroke="black" fill="none" marker-end="url(#arrowhead)"/>
<path d="M 361.1478631571333 100 Q 302.3108189735752 80, 243.47377479001702 100" stroke="black" fill="none" marker-end="url(#arrowhead)"/>
<path d="M 373.1478631571333 100 Q 367.1478631571333 80, 361.1478631571333 100" stroke="black" fill="none" marker-end="url(#arrowhead)"/>
<path d="M 385.1478631571333 100 Q 228.51817629270704 80, 71.88848942828075 100" stroke="black" fill="none" marker-end="url(#arrowhead)"/>
<path d="M 385.1478631571333 100 Q 379.1478631571333 80, 373.1478631571333 100" stroke="black" fill="none" marker-end="url(#arrowhead)"/>
<path d="M 397.1478631571333 100 Q 242.21354431366728 80, 87.27922547020125 100" stroke="black" fill="none" marker-end="url(#arrowhead)"/>
<path d="M 397.1478631571333 100 Q 379.1478631571333 80, 361.1478631571333 100" stroke="black" fill="none" marker-end="url(#arrowhead)"/>
<path d="M 397.1478631571333 100 Q 391.1478631571333 80, 385.1478631571333 100" stroke="black" fill="none" marker-end="url(#arrowhead)"/>
<path d="M 440.3118955444433 100 Q 418.72987935078834 80, 397.1478631571333 100" stroke="black" fill="none" marker-end="url(#arrowhead)"/>
<path d="M 452.3118955444433 100 Q 430.72987935078834 80, 409.1478631571333 100" stroke="black" fill="none" marker-end="url(#arrowhead)"/>
<path d="M 464.3118955444433 100 Q 430.72987935078834 80, 397.1478631571333 100" stroke="black" fill="none" marker-end="url(#arrowhead)"/>
<path d="M 464.3118955444433 100 Q 436.72987935078834 80, 409.1478631571333 100" stroke="black" fill="none" marker-end="url(#arrowhead)"/>
<path d="M 464.3118955444433 100 Q 442.72987935078834 80, 421.1478631571333 100" stroke="black" fill="none" marker-end="url(#arrowhead)"/>
<path d="M 464.3118955444433 100 Q 418.72987935078834 80, 373.1478631571333 100" stroke="black" fill="none" marker-end="url(#arrowhead)"/>
<path d="M 499.95363981470956 100 Q 454.5507514859214 80, 409.1478631571333 100" stroke="black" fill="none" marker-end="url(#arrowhead)"/>
<path d="M 499.95363981470956 100 Q 476.13276767957643 80, 452.3118955444433 100" stroke="black" fill="none" marker-end="url(#arrowhead)"/>
<path d="M 511.95363981470956 100 Q 466.5507514859214 80, 421.1478631571333 100" stroke="black" fill="none" marker-end="url(#arrowhead)"/>
<path d="M 523.9536398147095 100 Q 511.9536398147095 80, 499.95363981470956 100" stroke="black" fill="none" marker-end="url(#arrowhead)"/>
<path d="M 535.9536398147095 100 Q 466.5507514859214 80, 397.1478631571333 100" stroke="black" fill="none" marker-end="url(#arrowhead)"/>
<path d="M 535.9536398147095 100 Q 523.9536398147095 80, 511.95363981470956 100" stroke="black" fill="none" marker-end="url(#arrowhead)"/>
<path d="M 535.9536398147095 100 Q 478.5507514859214 80, 421.1478631571333 100" stroke="black" fill="none" marker-end="url(#arrowhead)"/>
<path d="M 547.9536398147095 100 Q 454.5507514859214 80, 361.1478631571333 100" stroke="black" fill="none" marker-end="url(#arrowhead)"/>
<path d="M 571.9536398147095 100 Q 565.9536398147095 80, 559.9536398147095 100" stroke="black" fill="none" marker-end="url(#arrowhead)"/>
<path d="M 571.9536398147095 100 Q 541.9536398147095 80, 511.95363981470956 100" stroke="black" fill="none" marker-end="url(#arrowhead)"/>
<path d="M 571.9536398147095 100 Q 496.5507514859214 80, 421.1478631571333 100" stroke="black" fill="none" marker-end="url(#arrowhead)"/>
<path d="M 583.9536398147095 100 Q 577.9536398147095 80, 571.9536398147095 100" stroke="black" fill="none" marker-end="url(#arrowhead)"/>
<path d="M 607.9536398147095 100 Q 339.92106462149513 80, 71.88848942828075 100" stroke="black" fill="none" marker-end="url(#arrowhead)"/>
<path d="M 607.9536398147095 100 Q 595.9536398147095 80, 583.9536398147095 100" stroke="black" fill="none" marker-end="url(#arrowhead)"/>
<path d="M 619.9536398147095 100 Q 595.9536398147095 80, 571.9536398147095 100" stroke="black" fill="none" marker-end="url(#arrowhead)"/>
<path d="M 631.9536398147095 100 Q 351.92106462149513 80, 71.88848942828075 100" stroke="black" fill="none" marker-end="url(#arrowhead)"/>
<path d="M 631.9536398147095 100 Q 607.9536398147095 80, 583.9536398147095 100" stroke="black" fill="none" marker-end="url(#arrowhead)"/>
<path d="M 643.9536398147095 100 Q 571.9536398147095 80, 499.95363981470956 100" stroke="black" fill="none" marker-end="url(#arrowhead)"/>
<path d="M 643.9536398147095 100 Q 619.9536398147095 80, 595.9536398147095 100" stroke="black" fill="none" marker-end="url(#arrowhead)"/>
<path d="M 655.9536398147095 100 Q 643.9536398147095 80, 631.9536398147095 100" stroke="black" fill="none" marker-end="url(#arrowhead)"/>
<path d="M 679.9536398147095 100 Q 550.5507514859214 80, 421.1478631571333 100" stroke="black" fill="none" marker-end="url(#arrowhead)"/>
<path d="M 679.9536398147095 100 Q 673.9536398147095 80, 667.9536398147095 100" stroke="black" fill="none" marker-end="url(#arrowhead)"/>
<path d="M 691.9536398147095 100 Q 685.9536398147095 80, 679.9536398147095 100" stroke="black" fill="none" marker-end="url(#arrowhead)"/>
<path d="M 703.9536398147095 100 Q 387.92106462149513 80, 71.88848942828075 100" stroke="black" fill="none" marker-end="url(#arrowhead)"/>
<path d="M 703.9536398147095 100 Q 625.9536398147095 80, 547.9536398147095 100" stroke="black" fill="none" marker-end="url(#arrowhead)"/>
<path d="M 715.9536398147095 100 Q 709.9536398147095 80, 703.9536398147095 100" stroke="black" fill="none" marker-end="url(#arrowhead)"/>
<path d="M 739.9536398147095 100 Q 709.9536398147095 80, 679.9536398147095 100" stroke="black" fill="none" marker-end="url(#arrowhead)"/>
<path d="M 751.9536398147095 100 Q 733.9536398147095 80, 715.9536398147095 100" stroke="black" fill="none" marker-end="url(#arrowhead)"/>
<path d="M 763.9536398147095 100 Q 417.92106462149513 80, 71.88848942828075 100" stroke="black" fill="none" marker-end="url(#arrowhead)"/>
<path d="M 763.9536398147095 100 Q 727.9536398147095 80, 691.9536398147095 100" stroke="black" fill="none" marker-end="url(#arrowhead)"/>
<path d="M 775.9536398147095 100 Q 637.9536398147095 80, 499.95363981470956 100" stroke="black" fill="none" marker-end="url(#arrowhead)"/>
<path d="M 775.9536398147095 100 Q 643.9536398147095 80, 511.95363981470956 100" stroke="black" fill="none" marker-end="url(#arrowhead)"/>
<path d="M 775.9536398147095 100 Q 751.9536398147095 80, 727.9536398147095 100" stroke="black" fill="none" marker-end="url(#arrowhead)"/>
<path d="M 787.9536398147095 100 Q 643.9536398147095 80, 499.95363981470956 100" stroke="black" fill="none" marker-end="url(#arrowhead)"/>
<path d="M 787.9536398147095 100 Q 604.5507514859214 80, 421.1478631571333 100" stroke="black" fill="none" marker-end="url(#arrowhead)"/>
<path d="M 787.9536398147095 100 Q 763.9536398147095 80, 739.9536398147095 100" stroke="black" fill="none" marker-end="url(#arrowhead)"/>
<path d="M 799.9536398147095 100 Q 781.9536398147095 80, 763.9536398147095 100" stroke="black" fill="none" marker-end="url(#arrowhead)"/>
<path d="M 823.9536398147095 100 Q 811.9536398147095 80, 799.9536398147095 100" stroke="black" fill="none" marker-end="url(#arrowhead)"/>
<path d="M 823.9536398147095 100 Q 685.9536398147095 80, 547.9536398147095 100" stroke="black" fill="none" marker-end="url(#arrowhead)"/>
<path d="M 835.9536398147095 100 Q 673.9536398147095 80, 511.95363981470956 100" stroke="black" fill="none" marker-end="url(#arrowhead)"/>
<path d="M 835.9536398147095 100 Q 823.9536398147095 80, 811.9536398147095 100" stroke="black" fill="none" marker-end="url(#arrowhead)"/>
<path d="M 835.9536398147095 100 Q 763.9536398147095 80, 691.9536398147095 100" stroke="black" fill="none" marker-end="url(#arrowhead)"/>
<path d="M 835.9536398147095 100 Q 628.5507514859214 80, 421.1478631571333 100" stroke="black" fill="none" marker-end="url(#arrowhead)"/>
<path d="M 835.9536398147095 100 Q 817.9536398147095 80, 799.9536398147095 100" stroke="black" fill="none" marker-end="url(#arrowhead)"/>
<path d="M 859.9536398147095 100 Q 853.9536398147095 80, 847.9536398147095 100" stroke="black" fill="none" marker-end="url(#arrowhead)"/>
<path d="M 871.9536398147095 100 Q 865.9536398147095 80, 859.9536398147095 100" stroke="black" fill="none" marker-end="url(#arrowhead)"/>
<path d="M 871.9536398147095 100 Q 662.1327676795764 80, 452.3118955444433 100" stroke="black" fill="none" marker-end="url(#arrowhead)"/>
<path d="M 883.9536398147095 100 Q 841.9536398147095 80, 799.9536398147095 100" stroke="black" fill="none" marker-end="url(#arrowhead)"/>
<path d="M 949.4977881447564 100 Q 898.725713979733 80, 847.9536398147095 100" stroke="black" fill="none" marker-end="url(#arrowhead)"/>
<path d="M 949.4977881447564 100 Q 874.725713979733 80, 799.9536398147095 100" stroke="black" fill="none" marker-end="url(#arrowhead)"/>
<path d="M 961.4977881447564 100 Q 910.725713979733 80, 859.9536398147095 100" stroke="black" fill="none" marker-end="url(#arrowhead)"/>
<path d="M 961.4977881447564 100 Q 706.9048418445999 80, 452.3118955444433 100" stroke="black" fill="none" marker-end="url(#arrowhead)"/>
<path d="M 973.4977881447564 100 Q 922.725713979733 80, 871.9536398147095 100" stroke="black" fill="none" marker-end="url(#arrowhead)"/>
<path d="M 985.4977881447564 100 Q 934.725713979733 80, 883.9536398147095 100" stroke="black" fill="none" marker-end="url(#arrowhead)"/>
<path d="M 985.4977881447564 100 Q 718.9048418445999 80, 452.3118955444433 100" stroke="black" fill="none" marker-end="url(#arrowhead)"/>
<path d="M 985.4977881447564 100 Q 904.725713979733 80, 823.9536398147095 100" stroke="black" fill="none" marker-end="url(#arrowhead)"/>

<defs>
  <marker id="arrowhead" markerWidth="5" markerHeight="5" 
          refX="2" refY="2" orient="auto" fill="black">
    <path d="M0,0 L0,4 L4,2 z" />
  </marker>
</defs>

<circle cx="50.0" cy="100" r="6" fill="none" stroke="blue" stroke-width="2" />
<circle cx="50.0" cy="100" r="3" fill="blue" />
<circle cx="71.88848942828075" cy="100" r="4" fill="red" />
<circle cx="87.27922547020125" cy="100" r="4" fill="red" />
<circle cx="99.27922547020125" cy="100" r="4" fill="black" />
<circle cx="180.34567694794978" cy="100" r="4" fill="black" />
<circle cx="192.34567694794978" cy="100" r="4" fill="black" />
<circle cx="212.0797169727128" cy="100" r="4" fill="black" />
<circle cx="231.47377479001702" cy="100" r="4" fill="black" />
<circle cx="243.47377479001702" cy="100" r="4" fill="red" />
<circle cx="361.1478631571333" cy="100" r="6" fill="none" stroke="blue" stroke-width="2" />
<circle cx="361.1478631571333" cy="100" r="3" fill="blue" />
<circle cx="373.1478631571333" cy="100" r="4" fill="red" />
<circle cx="385.1478631571333" cy="100" r="6" fill="none" stroke="blue" stroke-width="2" />
<circle cx="385.1478631571333" cy="100" r="3" fill="blue" />
<circle cx="397.1478631571333" cy="100" r="4" fill="red" />
<circle cx="409.1478631571333" cy="100" r="4" fill="red" />
<circle cx="421.1478631571333" cy="100" r="4" fill="red" />
<circle cx="440.3118955444433" cy="100" r="6" fill="none" stroke="blue" stroke-width="2" />
<circle cx="440.3118955444433" cy="100" r="3" fill="blue" />
<circle cx="452.3118955444433" cy="100" r="6" fill="none" stroke="blue" stroke-width="2" />
<circle cx="452.3118955444433" cy="100" r="3" fill="blue" />
<circle cx="464.3118955444433" cy="100" r="6" fill="none" stroke="blue" stroke-width="2" />
<circle cx="464.3118955444433" cy="100" r="3" fill="blue" />
<circle cx="499.95363981470956" cy="100" r="4" fill="red" />
<circle cx="511.95363981470956" cy="100" r="4" fill="red" />
<circle cx="523.9536398147095" cy="100" r="6" fill="none" stroke="blue" stroke-width="2" />
<circle cx="523.9536398147095" cy="100" r="3" fill="blue" />
<circle cx="535.9536398147095" cy="100" r="6" fill="none" stroke="blue" stroke-width="2" />
<circle cx="535.9536398147095" cy="100" r="3" fill="blue" />
<circle cx="547.9536398147095" cy="100" r="4" fill="blue" />
<circle cx="559.9536398147095" cy="100" r="4" fill="red" />
<circle cx="571.9536398147095" cy="100" r="6" fill="none" stroke="blue" stroke-width="2" />
<circle cx="571.9536398147095" cy="100" r="3" fill="blue" />
<circle cx="583.9536398147095" cy="100" r="4" fill="red" />
<circle cx="595.9536398147095" cy="100" r="4" fill="red" />
<circle cx="607.9536398147095" cy="100" r="4" fill="blue" />
<circle cx="619.9536398147095" cy="100" r="4" fill="red" />
<circle cx="631.9536398147095" cy="100" r="6" fill="none" stroke="blue" stroke-width="2" />
<circle cx="631.9536398147095" cy="100" r="3" fill="blue" />
<circle cx="643.9536398147095" cy="100" r="6" fill="none" stroke="blue" stroke-width="2" />
<circle cx="643.9536398147095" cy="100" r="3" fill="blue" />
<circle cx="655.9536398147095" cy="100" r="6" fill="none" stroke="blue" stroke-width="2" />
<circle cx="655.9536398147095" cy="100" r="3" fill="blue" />
<circle cx="667.9536398147095" cy="100" r="4" fill="red" />
<circle cx="679.9536398147095" cy="100" r="6" fill="none" stroke="blue" stroke-width="2" />
<circle cx="679.9536398147095" cy="100" r="3" fill="blue" />
<circle cx="691.9536398147095" cy="100" r="4" fill="red" />
<circle cx="703.9536398147095" cy="100" r="4" fill="black" />
<circle cx="715.9536398147095" cy="100" r="4" fill="black" />
<circle cx="727.9536398147095" cy="100" r="4" fill="red" />
<circle cx="739.9536398147095" cy="100" r="4" fill="red" />
<circle cx="751.9536398147095" cy="100" r="4" fill="green" />
<circle cx="763.9536398147095" cy="100" r="6" fill="none" stroke="blue" stroke-width="2" />
<circle cx="763.9536398147095" cy="100" r="3" fill="blue" />
<circle cx="775.9536398147095" cy="100" r="6" fill="none" stroke="blue" stroke-width="2" />
<circle cx="775.9536398147095" cy="100" r="3" fill="blue" />
<circle cx="787.9536398147095" cy="100" r="6" fill="none" stroke="blue" stroke-width="2" />
<circle cx="787.9536398147095" cy="100" r="3" fill="blue" />
<circle cx="799.9536398147095" cy="100" r="4" fill="red" />
<circle cx="811.9536398147095" cy="100" r="4" fill="red" />
<circle cx="823.9536398147095" cy="100" r="6" fill="none" stroke="blue" stroke-width="2" />
<circle cx="823.9536398147095" cy="100" r="3" fill="blue" />
<circle cx="835.9536398147095" cy="100" r="6" fill="none" stroke="blue" stroke-width="2" />
<circle cx="835.9536398147095" cy="100" r="3" fill="blue" />
<circle cx="847.9536398147095" cy="100" r="4" fill="red" />
<circle cx="859.9536398147095" cy="100" r="4" fill="black" />
<circle cx="871.9536398147095" cy="100" r="4" fill="red" />
<circle cx="883.9536398147095" cy="100" r="4" fill="red" />
<circle cx="949.4977881447564" cy="100" r="6" fill="none" stroke="blue" stroke-width="2" />
<circle cx="949.4977881447564" cy="100" r="3" fill="blue" />
<circle cx="961.4977881447564" cy="100" r="6" fill="none" stroke="blue" stroke-width="2" />
<circle cx="961.4977881447564" cy="100" r="3" fill="blue" />
<circle cx="973.4977881447564" cy="100" r="6" fill="none" stroke="blue" stroke-width="2" />
<circle cx="973.4977881447564" cy="100" r="3" fill="blue" />
<circle cx="985.4977881447564" cy="100" r="6" fill="none" stroke="black" stroke-width="2" />
<circle cx="985.4977881447564" cy="100" r="3" fill="black" />
<circle cx="997.4977881447564" cy="100" r="4" fill="red" />
<text x="50" y="125" fill="gray" style="font-size:12px;">2025-01-22T13:59:09+00:00</text>
<text x="900" y="125" fill="gray" style="font-size:12px;">2025-02-28T13:03:42+00:00</text>
</svg>