<svg xmlns="http://www.w3.org/2000/svg" width="1000" height="200" style="background-color: white; font-family: sans-serif;">
<line x1="50" y1="100" x2="950" y2="100" stroke="gray" stroke-width="1"/>
<path d="M 62.0 100 Q 56.0 80, 50.0 100" stroke="black" fill="none" marker-end="url(#arrowhead)"/>
<path d="M 74.0 100 Q 62.0 80, 50.0 100" stroke="black" fill="none" marker-end="url(#arrowhead)"/>
<path d="M 98.0 100 Q 80.0 80, 62.0 100" stroke="black" fill="none" marker-end="url(#arrowhead)"/>
<path d="M 110.0 100 Q 92.0 80, 74.0 100" stroke="black" fill="none" marker-end="url(#arrowhead)"/>
<path d="M 122.0 100 Q 92.0 80, 62.0 100" stroke="black" fill="none" marker-end="url(#arrowhead)"/>
<path d="M 122.0 100 Q 104.0 80, 86.0 100" stroke="black" fill="none" marker-end="url(#arrowhead)"/>
<path d="M 146.0 100 Q 122.0 80, 98.0 100" stroke="black" fill="none" marker-end="url(#arrowhead)"/>
<path d="M 158.0 100 Q 110.0 80, 62.0 100" stroke="black" fill="none" marker-end="url(#arrowhead)"/>
<path d="M 158.0 100 Q 146.0 80, 134.0 100" stroke="black" fill="none" marker-end="url(#arrowhead)"/>
<path d="M 158.0 100 Q 122.0 80, 86.0 100" stroke="black" fill="none" marker-end="url(#arrowhead)"/>
<path d="M 170.0 100 Q 116.0 80, 62.0 100" stroke="black" fill="none" marker-end="url(#arrowhead)"/>
<path d="M 170.0 100 Q 152.0 80, 134.0 100" stroke="black" fill="none" marker-end="url(#arrowhead)"/>
<path d="M 170.0 100 Q 158.0 80, 146.0 100" stroke="black" fill="none" marker-end="url(#arrowhead)"/>
<path d="M 170.0 100 Q 128.0 80, 86.0 100" stroke="black" fill="none" marker-end="url(#arrowhead)"/>
<path d="M 182.0 100 Q 170.0 80, 158.0 100" stroke="black" fill="none" marker-end="url(#arrowhead)"/>
<path d="M 194.0 100 Q 170.0 80, 146.0 100" stroke="black" fill="none" marker-end="url(#arrowhead)"/>
<path d="M 194.0 100 Q 188.0 80, 182.0 100" stroke="black" fill="none" marker-end="url(#arrowhead)"/>
<path d="M 218.0 100 Q 206.0 80, 194.0 100" stroke="black" fill="none" marker-end="url(#arrowhead)"/>
<path d="M 230.0 100 Q 224.0 80, 218.0 100" stroke="black" fill="none" marker-end="url(#arrowhead)"/>
<path d="M 242.0 100 Q 224.0 80, 206.0 100" stroke="black" fill="none" marker-end="url(#arrowhead)"/>
<path d="M 242.0 100 Q 164.0 80, 86.0 100" stroke="black" fill="none" marker-end="url(#arrowhead)"/>
<path d="M 242.0 100 Q 188.0 80, 134.0 100" stroke="black" fill="none" marker-end="url(#arrowhead)"/>
<path d="M 254.0 100 Q 236.0 80, 218.0 100" stroke="black" fill="none" marker-end="url(#arrowhead)"/>
<path d="M 266.0 100 Q 200.0 80, 134.0 100" stroke="black" fill="none" marker-end="url(#arrowhead)"/>
<path d="M 266.0 100 Q 248.0 80, 230.0 100" stroke="black" fill="none" marker-end="url(#arrowhead)"/>
<path d="M 266.0 100 Q 188.0 80, 110.0 100" stroke="black" fill="none" marker-end="url(#arrowhead)"/>
<path d="M 266.0 100 Q 236.0 80, 206.0 100" stroke="black" fill="none" marker-end="url(#arrowhead)"/>
<path d="M 290.0 100 Q 284.0 80, 278.0 100" stroke="black" fill="none" marker-end="url(#arrowhead)"/>
<path d="M 290.0 100 Q 188.0 80, 86.0 100" stroke="black" fill="none" marker-end="url(#arrowhead)"/>
<path d="M 314.0 100 Q 308.0 80, 302.0 100" stroke="black" fill="none" marker-end="url(#arrowhead)"/>
<path d="M 326.0 100 Q 260.0 80, 194.0 100" stroke="black" fill="none" marker-end="url(#arrowhead)"/>
<path d="M 326.0 100 Q 320.0 80, 314.0 100" stroke="black" fill="none" marker-end="url(#arrowhead)"/>
<path d="M 338.0 100 Q 320.0 80, 302.0 100" stroke="black" fill="none" marker-end="url(#arrowhead)"/>
<path d="M 338.0 100 Q 242.0 80, 146.0 100" stroke="black" fill="none" marker-end="url(#arrowhead)"/>
<path d="M 338.0 100 Q 332.0 80, 326.0 100" stroke="black" fill="none" marker-end="url(#arrowhead)"/>
<path d="M 338.0 100 Q 308.0 80, 278.0 100" stroke="black" fill="none" marker-end="url(#arrowhead)"/>
<path d="M 338.0 100 Q 212.0 80, 86.0 100" stroke="black" fill="none" marker-end="url(#arrowhead)"/>
<path d="M 362.0 100 Q 350.0 80, 338.0 100" stroke="black" fill="none" marker-end="url(#arrowhead)"/>
<path d="M 362.0 100 Q 260.0 80, 158.0 100" stroke="black" fill="none" marker-end="url(#arrowhead)"/>
<path d="M 374.0 100 Q 290.0 80, 206.0 100" stroke="black" fill="none" marker-end="url(#arrowhead)"/>
<path d="M 374.0 100 Q 368.0 80, 362.0 100" stroke="black" fill="none" marker-end="url(#arrowhead)"/>
<path d="M 444.1071355763316 100 Q 295.05356778816576 80, 146.0 100" stroke="black" fill="none" marker-end="url(#arrowhead)"/>
<path d="M 444.1071355763316 100 Q 429.34295780452464 80, 414.57878003271776 100" stroke="black" fill="none" marker-end="url(#arrowhead)"/>
<path d="M 460.79161211994636 100 Q 417.3958060599732 80, 374.0 100" stroke="black" fill="none" marker-end="url(#arrowhead)"/>
<path d="M 472.79161211994636 100 Q 399.3958060599732 80, 326.0 100" stroke="black" fill="none" marker-end="url(#arrowhead)"/>
<path d="M 472.79161211994636 100 Q 466.79161211994636 80, 460.79161211994636 100" stroke="black" fill="none" marker-end="url(#arrowhead)"/>
<path d="M 472.79161211994636 100 Q 279.3958060599732 80, 86.0 100" stroke="black" fill="none" marker-end="url(#arrowhead)"/>
<path d="M 472.79161211994636 100 Q 309.3958060599732 80, 146.0 100" stroke="black" fill="none" marker-end="url(#arrowhead)"/>
<path d="M 484.79161211994636 100 Q 478.79161211994636 80, 472.79161211994636 100" stroke="black" fill="none" marker-end="url(#arrowhead)"/>
<path d="M 496.79161211994636 100 Q 490.79161211994636 80, 484.79161211994636 100" stroke="black" fill="none" marker-end="url(#arrowhead)"/>
<path d="M 508.79161211994636 100 Q 490.79161211994636 80, 472.79161211994636 100" stroke="black" fill="none" marker-end="url(#arrowhead)"/>
<path d="M 520.7916121199464 100 Q 502.7916121199464 80, 484.79161211994636 100" stroke="black" fill="none" marker-end="url(#arrowhead)"/>
<path d="M 532.7916121199464 100 Q 369.3958060599732 80, 206.0 100" stroke="black" fill="none" marker-end="url(#arrowhead)"/>
<path d="M 532.7916121199464 100 Q 508.7916121199464 80, 484.79161211994636 100" stroke="black" fill="none" marker-end="url(#arrowhead)"/>
<path d="M 532.7916121199464 100 Q 514.7916121199464 80, 496.79161211994636 100" stroke="black" fill="none" marker-end="url(#arrowhead)"/>
<path d="M 544.7916121199464 100 Q 502.7916121199464 80, 460.79161211994636 100" stroke="black" fill="none" marker-end="url(#arrowhead)"/>
<path d="M 544.7916121199464 100 Q 345.3958060599732 80, 146.0 100" stroke="black" fill="none" marker-end="url(#arrowhead)"/>
<path d="M 544.7916121199464 100 Q 526.7916121199464 80, 508.79161211994636 100" stroke="black" fill="none" marker-end="url(#arrowhead)"/>
<path d="M 568.7916121199464 100 Q 514.7916121199464 80, 460.79161211994636 100" stroke="black" fill="none" marker-end="url(#arrowhead)"/>
<path d="M 568.7916121199464 100 Q 423.3958060599732 80, 278.0 100" stroke="black" fill="none" marker-end="url(#arrowhead)"/>
<path d="M 568.7916121199464 100 Q 562.7916121199464 80, 556.7916121199464 100" stroke="black" fill="none" marker-end="url(#arrowhead)"/>
<path d="M 580.7916121199464 100 Q 574.7916121199464 80, 568.7916121199464 100" stroke="black" fill="none" marker-end="url(#arrowhead)"/>
<path d="M 604.7916121199464 100 Q 592.7916121199464 80, 580.7916121199464 100" stroke="black" fill="none" marker-end="url(#arrowhead)"/>
<path d="M 604.7916121199464 100 Q 375.3958060599732 80, 146.0 100" stroke="black" fill="none" marker-end="url(#arrowhead)"/>
<path d="M 616.7916121199464 100 Q 604.7916121199464 80, 592.7916121199464 100" stroke="black" fill="none" marker-end="url(#arrowhead)"/>
<path d="M 652.7916121199464 100 Q 640.7916121199464 80, 628.7916121199464 100" stroke="black" fill="none" marker-end="url(#arrowhead)"/>
<path d="M 850.8447102905499 100 Q 739.8181612052481 80, 628.7916121199464 100" stroke="black" fill="none" marker-end="url(#arrowhead)"/>
<path d="M 862.8447102905499 100 Q 757.8181612052481 80, 652.7916121199464 100" stroke="black" fill="none" marker-end="url(#arrowhead)"/>
<path d="M 862.8447102905499 100 Q 504.42235514527493 80, 146.0 100" stroke="black" fill="none" marker-end="url(#arrowhead)"/>
<path d="M 862.8447102905499 100 Q 856.8447102905499 80, 850.8447102905499 100" stroke="black" fill="none" marker-end="url(#arrowhead)"/>
<path d="M 937.5600138098656 100 Q 541.7800069049329 80, 146.0 100" stroke="black" fill="none" marker-end="url(#arrowhead)"/>
<path d="M 937.5600138098656 100 Q 931.5600138098656 80, 925.5600138098656 100" stroke="black" fill="none" marker-end="url(#arrowhead)"/>
<path d="M 950.0 100 Q 572.0 80, 194.0 100" stroke="black" fill="none" marker-end="url(#arrowhead)"/>

<defs>
  <marker id="arrowhead" markerWidth="5" markerHeight="5" 
          refX="2" refY="2" orient="auto" fill="black">
    <path d="M0,0 L0,4 L4,2 z" />
  </marker>
</defs>

<circle cx="50.0" cy="100" r="6" fill="none" stroke="blue" stroke-width="2" />
<circle cx="50.0" cy="100" r="3" fill="blue" />
<circle cx="62.0" cy="100" r="4" fill="red" />
<circle cx="74.0" cy="100" r="4" fill="red" />
<circle cx="86.0" cy="100" r="4" fill="red" />
<circle cx="98.0" cy="100" r="6" fill="none" stroke="blue" stroke-width="2" />
<circle cx="98.0" cy="100" r="3" fill="blue" />
<circle cx="110.0" cy="100" r="6" fill="none" stroke="blue" stroke-width="2" />
<circle cx="110.0" cy="100" r="3" fill="blue" />
<circle cx="122.0" cy="100" r="6" fill="none" stroke="blue" stroke-width="2" />
<circle cx="122.0" cy="100" r="3" fill="blue" />
<circle cx="134.0" cy="100" r="4" fill="red" />
<circle cx="146.0" cy="100" r="4" fill="red" />
<circle cx="158.0" cy="100" r="6" fill="none" stroke="blue" stroke-width="2" />
<circle cx="158.0" cy="100" r="3" fill="blue" />
<circle cx="170.0" cy="100" r="6" fill="none" stroke="blue" stroke-width="2" />
<circle cx="170.0" cy="100" r="3" fill="blue" />
<circle cx="182.0" cy="100" r="4" fill="blue" />
<circle cx="194.0" cy="100" r="6" fill="none" stroke="blue" stroke-width="2" />
<circle cx="194.0" cy="100" r="3" fill="blue" />
<circle cx="206.0" cy="100" r="4" fill="red" />
<circle cx="218.0" cy="100" r="4" fill="red" />
<circle cx="230.0" cy="100" r="4" fill="red" />
<circle cx="242.0" cy="100" r="6" fill="none" stroke="blue" stroke-width="2" />
<circle cx="242.0" cy="100" r="3" fill="blue" />
<circle cx="254.0" cy="100" r="6" fill="none" stroke="blue" stroke-width="2" />
<circle cx="254.0" cy="100" r="3" fill="blue" />
<circle cx="266.0" cy="100" r="6" fill="none" stroke="blue" stroke-width="2" />
<circle cx="266.0" cy="100" r="3" fill="blue" />
<circle cx="278.0" cy="100" r="4" fill="red" />
<circle cx="290.0" cy="100" r="6" fill="none" stroke="blue" stroke-width="2" />
<circle cx="290.0" cy="100" r="3" fill="blue" />
<circle cx="302.0" cy="100" r="4" fill="red" />
<circle cx="314.0" cy="100" r="6" fill="none" stroke="blue" stroke-width="2" />
<circle cx="314.0" cy="100" r="3" fill="blue" />
<circle cx="326.0" cy="100" r="4" fill="blue" />
<circle cx="338.0" cy="100" r="6" fill="none" stroke="blue" stroke-width="2" />
<circle cx="338.0" cy="100" r="3" fill="blue" />
<circle cx="350.0" cy="100" r="4" fill="green" />
<circle cx="362.0" cy="100" r="4" fill="blue" />
<circle cx="374.0" cy="100" r="6" fill="none" stroke="blue" stroke-width="2" />
<circle cx="374.0" cy="100" r="3" fill="blue" />
<circle cx="414.57878003271776" cy="100" r="4" fill="red" />
<circle cx="444.1071355763316" cy="100" r="4" fill="black" />
<circle cx="460.79161211994636" cy="100" r="4" fill="red" />
<circle cx="472.79161211994636" cy="100" r="6" fill="none" stroke="blue" stroke-width="2" />
<circle cx="472.79161211994636" cy="100" r="3" fill="blue" />
<circle cx="484.79161211994636" cy="100" r="4" fill="red" />
<circle cx="496.79161211994636" cy="100" r="4" fill="red" />
<circle cx="508.79161211994636" cy="100" r="4" fill="red" />
<circle cx="520.7916121199464" cy="100" r="6" fill="none" stroke="blue" stroke-width="2" />
<circle cx="520.7916121199464" cy="100" r="3" fill="blue" />
<circle cx="532.7916121199464" cy="100" r="6" fill="none" stroke="blue" stroke-width="2" />
<circle cx="532.7916121199464" cy="100" r="3" fill="blue" />
<circle cx="544.7916121199464" cy="100" r="6" fill="none" stroke="blue" stroke-width="2" />
<circle cx="544.7916121199464" cy="100" r="3" fill="blue" />
<circle cx="556.7916121199464" cy="100" r="4" fill="red" />
<circle cx="568.7916121199464" cy="100" r="6" fill="none" stroke="blue" stroke-width="2" />
<circle cx="568.7916121199464" cy="100" r="3" fill="blue" />
<circle cx="580.7916121199464" cy="100" r="4" fill="red" />
<circle cx="592.7916121199464" cy="100" r="4" fill="green" />
<circle cx="604.7916121199464" cy="100" r="6" fill="none" stroke="blue" stroke-width="2" />
<circle cx="604.7916121199464" cy="100" r="3" fill="blue" />
<circle cx="616.7916121199464" cy="100" r="6" fill="none" stroke="blue" stroke-width="2" />
<circle cx="616.7916121199464" cy="100" r="3" fill="blue" />
<circle cx="628.7916121199464" cy="100" r="6" fill="none" stroke="blue" stroke-width="2" />
<circle cx="628.7916121199464" cy="100" r="3" fill="blue" />
<circle cx="640.7916121199464" cy="100" r="4" fill="green" />
<circle cx="652.7916121199464" cy="100" r="4" fill="blue" />
<circle cx="850.8447102905499" cy="100" r="4" fill="blue" />
<circle cx="862.8447102905499" cy="100" r="6" fill="none" stroke="blue" stroke-width="2" />
<circle cx="862.8447102905499" cy="100" r="3" fill="blue" />
<circle cx="925.5600138098656" cy="100" r="4" fill="red" />
<circle cx="937.5600138098656" cy="100" r="6" fill="none" stroke="blue" stroke-width="2" />
<circle cx="937.5600138098656" cy="100" r="3" fill="blue" />
<circle cx="950.0" cy="100" r="4" fill="black" />
<text x="50" y="125" fill="gray" style="font-size:12px;">2024-12-09T10:54:43+00:00</text>
<text x="900" y="125" fill="gray" style="font-size:12px;">2025-02-26T08:53:17+00:00</text>
</svg>