<svg xmlns="http://www.w3.org/2000/svg" width="1000" height="200" style="background-color: white; font-family: sans-serif;">
<line x1="50" y1="100" x2="950" y2="100" stroke="gray" stroke-width="1"/>
<path d="M 62.0 100 Q 56.0 80, 50.0 100" stroke="black" fill="none" marker-end="url(#arrowhead)"/>
<path d="M 74.0 100 Q 68.0 80, 62.0 100" stroke="black" fill="none" marker-end="url(#arrowhead)"/>
<path d="M 86.0 100 Q 80.0 80, 74.0 100" stroke="black" fill="none" marker-end="url(#arrowhead)"/>
<path d="M 98.0 100 Q 92.0 80, 86.0 100" stroke="black" fill="none" marker-end="url(#arrowhead)"/>
<path d="M 98.0 100 Q 80.0 80, 62.0 100" stroke="black" fill="none" marker-end="url(#arrowhead)"/>
<path d="M 122.0 100 Q 116.0 80, 110.0 100" stroke="black" fill="none" marker-end="url(#arrowhead)"/>
<path d="M 146.0 100 Q 128.0 80, 110.0 100" stroke="black" fill="none" marker-end="url(#arrowhead)"/>
<path d="M 146.0 100 Q 140.0 80, 134.0 100" stroke="black" fill="none" marker-end="url(#arrowhead)"/>
<path d="M 170.0 100 Q 164.0 80, 158.0 100" stroke="black" fill="none" marker-end="url(#arrowhead)"/>
<path d="M 170.0 100 Q 140.0 80, 110.0 100" stroke="black" fill="none" marker-end="url(#arrowhead)"/>
<path d="M 170.0 100 Q 152.0 80, 134.0 100" stroke="black" fill="none" marker-end="url(#arrowhead)"/>
<path d="M 231.4156069810692 100 Q 194.70780349053462 80, 158.0 100" stroke="black" fill="none" marker-end="url(#arrowhead)"/>
<path d="M 231.4156069810692 100 Q 206.70780349053462 80, 182.0 100" stroke="black" fill="none" marker-end="url(#arrowhead)"/>
<path d="M 243.4156069810692 100 Q 218.70780349053462 80, 194.0 100" stroke="black" fill="none" marker-end="url(#arrowhead)"/>
<path d="M 267.41560698106923 100 Q 176.70780349053462 80, 86.0 100" stroke="black" fill="none" marker-end="url(#arrowhead)"/>
<path d="M 267.41560698106923 100 Q 261.41560698106923 80, 255.4156069810692 100" stroke="black" fill="none" marker-end="url(#arrowhead)"/>
<path d="M 291.41560698106923 100 Q 242.70780349053462 80, 194.0 100" stroke="black" fill="none" marker-end="url(#arrowhead)"/>
<path d="M 331.4138129426726 100 Q 208.7069064713363 80, 86.0 100" stroke="black" fill="none" marker-end="url(#arrowhead)"/>
<path d="M 331.4138129426726 100 Q 293.4147099618709 80, 255.4156069810692 100" stroke="black" fill="none" marker-end="url(#arrowhead)"/>
<path d="M 331.4138129426726 100 Q 220.7069064713363 80, 110.0 100" stroke="black" fill="none" marker-end="url(#arrowhead)"/>
<path d="M 331.4138129426726 100 Q 305.4147099618709 80, 279.41560698106923 100" stroke="black" fill="none" marker-end="url(#arrowhead)"/>
<path d="M 343.4138129426726 100 Q 293.4147099618709 80, 243.4156069810692 100" stroke="black" fill="none" marker-end="url(#arrowhead)"/>
<path d="M 343.4138129426726 100 Q 317.4147099618709 80, 291.41560698106923 100" stroke="black" fill="none" marker-end="url(#arrowhead)"/>
<path d="M 355.4138129426726 100 Q 337.4138129426726 80, 319.4138129426726 100" stroke="black" fill="none" marker-end="url(#arrowhead)"/>
<path d="M 391.4138129426726 100 Q 385.4138129426726 80, 379.4138129426726 100" stroke="black" fill="none" marker-end="url(#arrowhead)"/>
<path d="M 403.4138129426726 100 Q 397.4138129426726 80, 391.4138129426726 100" stroke="black" fill="none" marker-end="url(#arrowhead)"/>
<path d="M 403.4138129426726 100 Q 232.7069064713363 80, 62.0 100" stroke="black" fill="none" marker-end="url(#arrowhead)"/>
<path d="M 415.4138129426726 100 Q 409.4138129426726 80, 403.4138129426726 100" stroke="black" fill="none" marker-end="url(#arrowhead)"/>
<path d="M 467.8603670860827 100 Q 447.6370900143777 80, 427.4138129426726 100" stroke="black" fill="none" marker-end="url(#arrowhead)"/>
<path d="M 494.53424065249504 100 Q 386.97492381678217 80, 279.41560698106923 100" stroke="black" fill="none" marker-end="url(#arrowhead)"/>
<path d="M 494.53424065249504 100 Q 488.53424065249504 80, 482.53424065249504 100" stroke="black" fill="none" marker-end="url(#arrowhead)"/>
<path d="M 933.512671837402 100 Q 668.4632423900373 80, 403.4138129426726 100" stroke="black" fill="none" marker-end="url(#arrowhead)"/>
<path d="M 945.512671837402 100 Q 939.512671837402 80, 933.512671837402 100" stroke="black" fill="none" marker-end="url(#arrowhead)"/>
<path d="M 945.512671837402 100 Q 503.756335918701 80, 62.0 100" stroke="black" fill="none" marker-end="url(#arrowhead)"/>
<path d="M 957.512671837402 100 Q 539.756335918701 80, 122.0 100" stroke="black" fill="none" marker-end="url(#arrowhead)"/>

<defs>
  <marker id="arrowhead" markerWidth="5" markerHeight="5" 
          refX="2" refY="2" orient="auto" fill="black">
    <path d="M0,0 L0,4 L4,2 z" />
  </marker>
</defs>

<circle cx="50.0" cy="100" r="6" fill="none" stroke="blue" stroke-width="2" />
<circle cx="50.0" cy="100" r="3" fill="blue" />
<circle cx="62.0" cy="100" r="4" fill="red" />
<circle cx="74.0" cy="100" r="6" fill="none" stroke="blue" stroke-width="2" />
<circle cx="74.0" cy="100" r="3" fill="blue" />
<circle cx="86.0" cy="100" r="4" fill="red" />
<circle cx="98.0" cy="100" r="6" fill="none" stroke="blue" stroke-width="2" />
<circle cx="98.0" cy="100" r="3" fill="blue" />
<circle cx="110.0" cy="100" r="4" fill="red" />
<circle cx="122.0" cy="100" r="6" fill="none" stroke="blue" stroke-width="2" />
<circle cx="122.0" cy="100" r="3" fill="blue" />
<circle cx="134.0" cy="100" r="4" fill="red" />
<circle cx="146.0" cy="100" r="6" fill="none" stroke="blue" stroke-width="2" />
<circle cx="146.0" cy="100" r="3" fill="blue" />
<circle cx="158.0" cy="100" r="4" fill="red" />
<circle cx="170.0" cy="100" r="6" fill="none" stroke="blue" stroke-width="2" />
<circle cx="170.0" cy="100" r="3" fill="blue" />
<circle cx="182.0" cy="100" r="4" fill="blue" />
<circle cx="194.0" cy="100" r="4" fill="red" />
<circle cx="231.4156069810692" cy="100" r="6" fill="none" stroke="blue" stroke-width="2" />
<circle cx="231.4156069810692" cy="100" r="3" fill="blue" />
<circle cx="243.4156069810692" cy="100" r="6" fill="none" stroke="blue" stroke-width="2" />
<circle cx="243.4156069810692" cy="100" r="3" fill="blue" />
<circle cx="255.4156069810692" cy="100" r="4" fill="red" />
<circle cx="267.41560698106923" cy="100" r="6" fill="none" stroke="blue" stroke-width="2" />
<circle cx="267.41560698106923" cy="100" r="3" fill="blue" />
<circle cx="279.41560698106923" cy="100" r="4" fill="red" />
<circle cx="291.41560698106923" cy="100" r="4" fill="red" />
<circle cx="319.4138129426726" cy="100" r="4" fill="blue" />
<circle cx="331.4138129426726" cy="100" r="6" fill="none" stroke="blue" stroke-width="2" />
<circle cx="331.4138129426726" cy="100" r="3" fill="blue" />
<circle cx="343.4138129426726" cy="100" r="6" fill="none" stroke="blue" stroke-width="2" />
<circle cx="343.4138129426726" cy="100" r="3" fill="blue" />
<circle cx="355.4138129426726" cy="100" r="6" fill="none" stroke="blue" stroke-width="2" />
<circle cx="355.4138129426726" cy="100" r="3" fill="blue" />
<circle cx="367.4138129426726" cy="100" r="4" fill="green" />
<circle cx="379.4138129426726" cy="100" r="6" fill="none" stroke="blue" stroke-width="2" />
<circle cx="379.4138129426726" cy="100" r="3" fill="blue" />
<circle cx="391.4138129426726" cy="100" r="4" fill="blue" />
<circle cx="403.4138129426726" cy="100" r="6" fill="none" stroke="blue" stroke-width="2" />
<circle cx="403.4138129426726" cy="100" r="3" fill="blue" />
<circle cx="415.4138129426726" cy="100" r="4" fill="green" />
<circle cx="427.4138129426726" cy="100" r="4" fill="green" />
<circle cx="467.8603670860827" cy="100" r="6" fill="none" stroke="blue" stroke-width="2" />
<circle cx="467.8603670860827" cy="100" r="3" fill="blue" />
<circle cx="482.53424065249504" cy="100" r="4" fill="red" />
<circle cx="494.53424065249504" cy="100" r="6" fill="none" stroke="blue" stroke-width="2" />
<circle cx="494.53424065249504" cy="100" r="3" fill="blue" />
<circle cx="506.53424065249504" cy="100" r="4" fill="green" />
<circle cx="933.512671837402" cy="100" r="4" fill="blue" />
<circle cx="945.512671837402" cy="100" r="6" fill="none" stroke="blue" stroke-width="2" />
<circle cx="945.512671837402" cy="100" r="3" fill="blue" />
<circle cx="957.512671837402" cy="100" r="4" fill="blue" />
<text x="50" y="125" fill="gray" style="font-size:12px;">2024-12-30T04:04:12+00:00</text>
<text x="900" y="125" fill="gray" style="font-size:12px;">2025-02-18T08:40:37+00:00</text>
</svg>