<svg xmlns="http://www.w3.org/2000/svg" width="1000" height="200" style="background-color: white; font-family: sans-serif;">
<line x1="50" y1="100" x2="950" y2="100" stroke="gray" stroke-width="1"/>
<path d="M 62.0 100 Q 56.0 80, 50.0 100" stroke="black" fill="none" marker-end="url(#arrowhead)"/>
<path d="M 130.78587965113567 100 Q 96.39293982556784 80, 62.0 100" stroke="black" fill="none" marker-end="url(#arrowhead)"/>
<path d="M 142.78587965113567 100 Q 136.78587965113567 80, 130.78587965113567 100" stroke="black" fill="none" marker-end="url(#arrowhead)"/>
<path d="M 142.78587965113567 100 Q 102.39293982556784 80, 62.0 100" stroke="black" fill="none" marker-end="url(#arrowhead)"/>
<path d="M 154.78587965113567 100 Q 148.78587965113567 80, 142.78587965113567 100" stroke="black" fill="none" marker-end="url(#arrowhead)"/>
<path d="M 166.78587965113567 100 Q 154.78587965113567 80, 142.78587965113567 100" stroke="black" fill="none" marker-end="url(#arrowhead)"/>
<path d="M 166.78587965113567 100 Q 160.78587965113567 80, 154.78587965113567 100" stroke="black" fill="none" marker-end="url(#arrowhead)"/>
<path d="M 190.78587965113567 100 Q 166.78587965113567 80, 142.78587965113567 100" stroke="black" fill="none" marker-end="url(#arrowhead)"/>
<path d="M 214.78587965113567 100 Q 208.78587965113567 80, 202.78587965113567 100" stroke="black" fill="none" marker-end="url(#arrowhead)"/>
<path d="M 226.78587965113567 100 Q 220.78587965113567 80, 214.78587965113567 100" stroke="black" fill="none" marker-end="url(#arrowhead)"/>
<path d="M 238.78587965113567 100 Q 232.78587965113567 80, 226.78587965113567 100" stroke="black" fill="none" marker-end="url(#arrowhead)"/>
<path d="M 250.78587965113567 100 Q 244.78587965113567 80, 238.78587965113567 100" stroke="black" fill="none" marker-end="url(#arrowhead)"/>
<path d="M 274.7858796511357 100 Q 268.7858796511357 80, 262.7858796511357 100" stroke="black" fill="none" marker-end="url(#arrowhead)"/>
<path d="M 286.7858796511357 100 Q 280.7858796511357 80, 274.7858796511357 100" stroke="black" fill="none" marker-end="url(#arrowhead)"/>
<path d="M 298.7858796511357 100 Q 292.7858796511357 80, 286.7858796511357 100" stroke="black" fill="none" marker-end="url(#arrowhead)"/>
<path d="M 310.7858796511357 100 Q 304.7858796511357 80, 298.7858796511357 100" stroke="black" fill="none" marker-end="url(#arrowhead)"/>
<path d="M 334.7858796511357 100 Q 328.7858796511357 80, 322.7858796511357 100" stroke="black" fill="none" marker-end="url(#arrowhead)"/>
<path d="M 346.7858796511357 100 Q 340.7858796511357 80, 334.7858796511357 100" stroke="black" fill="none" marker-end="url(#arrowhead)"/>
<path d="M 358.7858796511357 100 Q 352.7858796511357 80, 346.7858796511357 100" stroke="black" fill="none" marker-end="url(#arrowhead)"/>
<path d="M 370.7858796511357 100 Q 346.7858796511357 80, 322.7858796511357 100" stroke="black" fill="none" marker-end="url(#arrowhead)"/>
<path d="M 382.7858796511357 100 Q 358.7858796511357 80, 334.7858796511357 100" stroke="black" fill="none" marker-end="url(#arrowhead)"/>
<path d="M 382.7858796511357 100 Q 364.7858796511357 80, 346.7858796511357 100" stroke="black" fill="none" marker-end="url(#arrowhead)"/>
<path d="M 382.7858796511357 100 Q 370.7858796511357 80, 358.7858796511357 100" stroke="black" fill="none" marker-end="url(#arrowhead)"/>
<path d="M 394.7858796511357 100 Q 388.7858796511357 80, 382.7858796511357 100" stroke="black" fill="none" marker-end="url(#arrowhead)"/>
<path d="M 406.7858796511357 100 Q 400.7858796511357 80, 394.7858796511357 100" stroke="black" fill="none" marker-end="url(#arrowhead)"/>
<path d="M 418.7858796511357 100 Q 412.7858796511357 80, 406.7858796511357 100" stroke="black" fill="none" marker-end="url(#arrowhead)"/>
<path d="M 430.7858796511357 100 Q 424.7858796511357 80, 418.7858796511357 100" stroke="black" fill="none" marker-end="url(#arrowhead)"/>
<path d="M 430.7858796511357 100 Q 400.7858796511357 80, 370.7858796511357 100" stroke="black" fill="none" marker-end="url(#arrowhead)"/>
<path d="M 442.7858796511357 100 Q 436.7858796511357 80, 430.7858796511357 100" stroke="black" fill="none" marker-end="url(#arrowhead)"/>
<path d="M 454.7858796511357 100 Q 448.7858796511357 80, 442.7858796511357 100" stroke="black" fill="none" marker-end="url(#arrowhead)"/>
<path d="M 466.7858796511357 100 Q 460.7858796511357 80, 454.7858796511357 100" stroke="black" fill="none" marker-end="url(#arrowhead)"/>
<path d="M 478.7858796511357 100 Q 472.7858796511357 80, 466.7858796511357 100" stroke="black" fill="none" marker-end="url(#arrowhead)"/>
<path d="M 490.7858796511357 100 Q 466.7858796511357 80, 442.7858796511357 100" stroke="black" fill="none" marker-end="url(#arrowhead)"/>
<path d="M 502.7858796511357 100 Q 496.7858796511357 80, 490.7858796511357 100" stroke="black" fill="none" marker-end="url(#arrowhead)"/>
<path d="M 514.7858796511357 100 Q 508.7858796511357 80, 502.7858796511357 100" stroke="black" fill="none" marker-end="url(#arrowhead)"/>
<path d="M 526.7858796511357 100 Q 520.7858796511357 80, 514.7858796511357 100" stroke="black" fill="none" marker-end="url(#arrowhead)"/>
<path d="M 538.7858796511357 100 Q 532.7858796511357 80, 526.7858796511357 100" stroke="black" fill="none" marker-end="url(#arrowhead)"/>
<path d="M 550.7858796511357 100 Q 544.7858796511357 80, 538.7858796511357 100" stroke="black" fill="none" marker-end="url(#arrowhead)"/>
<path d="M 562.7858796511357 100 Q 556.7858796511357 80, 550.7858796511357 100" stroke="black" fill="none" marker-end="url(#arrowhead)"/>
<path d="M 574.7858796511357 100 Q 568.7858796511357 80, 562.7858796511357 100" stroke="black" fill="none" marker-end="url(#arrowhead)"/>
<path d="M 598.7858796511357 100 Q 592.7858796511357 80, 586.7858796511357 100" stroke="black" fill="none" marker-end="url(#arrowhead)"/>
<path d="M 610.7858796511357 100 Q 604.7858796511357 80, 598.7858796511357 100" stroke="black" fill="none" marker-end="url(#arrowhead)"/>
<path d="M 622.7858796511357 100 Q 616.7858796511357 80, 610.7858796511357 100" stroke="black" fill="none" marker-end="url(#arrowhead)"/>
<path d="M 634.7858796511357 100 Q 622.7858796511357 80, 610.7858796511357 100" stroke="black" fill="none" marker-end="url(#arrowhead)"/>
<path d="M 634.7858796511357 100 Q 628.7858796511357 80, 622.7858796511357 100" stroke="black" fill="none" marker-end="url(#arrowhead)"/>
<path d="M 646.7858796511357 100 Q 628.7858796511357 80, 610.7858796511357 100" stroke="black" fill="none" marker-end="url(#arrowhead)"/>
<path d="M 646.7858796511357 100 Q 634.7858796511357 80, 622.7858796511357 100" stroke="black" fill="none" marker-end="url(#arrowhead)"/>
<path d="M 646.7858796511357 100 Q 640.7858796511357 80, 634.7858796511357 100" stroke="black" fill="none" marker-end="url(#arrowhead)"/>
<path d="M 658.7858796511357 100 Q 652.7858796511357 80, 646.7858796511357 100" stroke="black" fill="none" marker-end="url(#arrowhead)"/>
<path d="M 670.7858796511357 100 Q 658.7858796511357 80, 646.7858796511357 100" stroke="black" fill="none" marker-end="url(#arrowhead)"/>
<path d="M 682.7858796511357 100 Q 676.7858796511357 80, 670.7858796511357 100" stroke="black" fill="none" marker-end="url(#arrowhead)"/>
<path d="M 694.7858796511357 100 Q 688.7858796511357 80, 682.7858796511357 100" stroke="black" fill="none" marker-end="url(#arrowhead)"/>
<path d="M 706.7858796511357 100 Q 700.7858796511357 80, 694.7858796511357 100" stroke="black" fill="none" marker-end="url(#arrowhead)"/>
<path d="M 718.7858796511357 100 Q 700.7858796511357 80, 682.7858796511357 100" stroke="black" fill="none" marker-end="url(#arrowhead)"/>
<path d="M 742.7858796511357 100 Q 736.7858796511357 80, 730.7858796511357 100" stroke="black" fill="none" marker-end="url(#arrowhead)"/>
<path d="M 742.7858796511357 100 Q 712.7858796511357 80, 682.7858796511357 100" stroke="black" fill="none" marker-end="url(#arrowhead)"/>
<path d="M 754.7858796511357 100 Q 748.7858796511357 80, 742.7858796511357 100" stroke="black" fill="none" marker-end="url(#arrowhead)"/>
<path d="M 754.7858796511357 100 Q 736.7858796511357 80, 718.7858796511357 100" stroke="black" fill="none" marker-end="url(#arrowhead)"/>
<path d="M 766.7858796511357 100 Q 754.7858796511357 80, 742.7858796511357 100" stroke="black" fill="none" marker-end="url(#arrowhead)"/>
<path d="M 766.7858796511357 100 Q 760.7858796511357 80, 754.7858796511357 100" stroke="black" fill="none" marker-end="url(#arrowhead)"/>
<path d="M 778.7858796511357 100 Q 772.7858796511357 80, 766.7858796511357 100" stroke="black" fill="none" marker-end="url(#arrowhead)"/>
<path d="M 790.7858796511357 100 Q 694.7858796511357 80, 598.7858796511357 100" stroke="black" fill="none" marker-end="url(#arrowhead)"/>
<path d="M 790.7858796511357 100 Q 766.7858796511357 80, 742.7858796511357 100" stroke="black" fill="none" marker-end="url(#arrowhead)"/>
<path d="M 802.7858796511357 100 Q 712.7858796511357 80, 622.7858796511357 100" stroke="black" fill="none" marker-end="url(#arrowhead)"/>
<path d="M 814.7858796511357 100 Q 808.7858796511357 80, 802.7858796511357 100" stroke="black" fill="none" marker-end="url(#arrowhead)"/>
<path d="M 826.7858796511357 100 Q 718.7858796511357 80, 610.7858796511357 100" stroke="black" fill="none" marker-end="url(#arrowhead)"/>
<path d="M 826.7858796511357 100 Q 808.7858796511357 80, 790.7858796511357 100" stroke="black" fill="none" marker-end="url(#arrowhead)"/>
<path d="M 838.7858796511357 100 Q 820.7858796511357 80, 802.7858796511357 100" stroke="black" fill="none" marker-end="url(#arrowhead)"/>
<path d="M 838.7858796511357 100 Q 832.7858796511357 80, 826.7858796511357 100" stroke="black" fill="none" marker-end="url(#arrowhead)"/>
<path d="M 850.7858796511357 100 Q 838.7858796511357 80, 826.7858796511357 100" stroke="black" fill="none" marker-end="url(#arrowhead)"/>
<path d="M 862.7858796511357 100 Q 856.7858796511357 80, 850.7858796511357 100" stroke="black" fill="none" marker-end="url(#arrowhead)"/>
<path d="M 874.7858796511357 100 Q 850.7858796511357 80, 826.7858796511357 100" stroke="black" fill="none" marker-end="url(#arrowhead)"/>
<path d="M 874.7858796511357 100 Q 856.7858796511357 80, 838.7858796511357 100" stroke="black" fill="none" marker-end="url(#arrowhead)"/>
<path d="M 874.7858796511357 100 Q 862.7858796511357 80, 850.7858796511357 100" stroke="black" fill="none" marker-end="url(#arrowhead)"/>
<path d="M 886.7858796511357 100 Q 880.7858796511357 80, 874.7858796511357 100" stroke="black" fill="none" marker-end="url(#arrowhead)"/>
<path d="M 886.7858796511357 100 Q 874.7858796511357 80, 862.7858796511357 100" stroke="black" fill="none" marker-end="url(#arrowhead)"/>
<path d="M 898.7858796511357 100 Q 892.7858796511357 80, 886.7858796511357 100" stroke="black" fill="none" marker-end="url(#arrowhead)"/>
<path d="M 910.7858796511357 100 Q 892.7858796511357 80, 874.7858796511357 100" stroke="black" fill="none" marker-end="url(#arrowhead)"/>
<path d="M 910.7858796511357 100 Q 898.7858796511357 80, 886.7858796511357 100" stroke="black" fill="none" marker-end="url(#arrowhead)"/>
<path d="M 910.7858796511357 100 Q 670.7858796511357 80, 430.7858796511357 100" stroke="black" fill="none" marker-end="url(#arrowhead)"/>
<path d="M 922.7858796511357 100 Q 910.7858796511357 80, 898.7858796511357 100" stroke="black" fill="none" marker-end="url(#arrowhead)"/>
<path d="M 922.7858796511357 100 Q 916.7858796511357 80, 910.7858796511357 100" stroke="black" fill="none" marker-end="url(#arrowhead)"/>
<path d="M 958.7858796511357 100 Q 952.7858796511357 80, 946.7858796511357 100" stroke="black" fill="none" marker-end="url(#arrowhead)"/>
<path d="M 970.7858796511357 100 Q 958.7858796511357 80, 946.7858796511357 100" stroke="black" fill="none" marker-end="url(#arrowhead)"/>
<path d="M 970.7858796511357 100 Q 964.7858796511357 80, 958.7858796511357 100" stroke="black" fill="none" marker-end="url(#arrowhead)"/>
<path d="M 982.7858796511357 100 Q 952.7858796511357 80, 922.7858796511357 100" stroke="black" fill="none" marker-end="url(#arrowhead)"/>
<path d="M 994.7858796511357 100 Q 988.7858796511357 80, 982.7858796511357 100" stroke="black" fill="none" marker-end="url(#arrowhead)"/>
<path d="M 1006.7858796511357 100 Q 1000.7858796511357 80, 994.7858796511357 100" stroke="black" fill="none" marker-end="url(#arrowhead)"/>
<path d="M 1018.7858796511357 100 Q 724.7858796511357 80, 430.7858796511357 100" stroke="black" fill="none" marker-end="url(#arrowhead)"/>
<path d="M 1018.7858796511357 100 Q 1006.7858796511357 80, 994.7858796511357 100" stroke="black" fill="none" marker-end="url(#arrowhead)"/>
<path d="M 1030.7858796511357 100 Q 1024.7858796511357 80, 1018.7858796511357 100" stroke="black" fill="none" marker-end="url(#arrowhead)"/>
<path d="M 1030.7858796511357 100 Q 1006.7858796511357 80, 982.7858796511357 100" stroke="black" fill="none" marker-end="url(#arrowhead)"/>
<path d="M 1030.7858796511357 100 Q 1012.7858796511357 80, 994.7858796511357 100" stroke="black" fill="none" marker-end="url(#arrowhead)"/>
<path d="M 1042.7858796511357 100 Q 1036.7858796511357 80, 1030.7858796511357 100" stroke="black" fill="none" marker-end="url(#arrowhead)"/>
<path d="M 1054.7858796511357 100 Q 1042.7858796511357 80, 1030.7858796511357 100" stroke="black" fill="none" marker-end="url(#arrowhead)"/>
<path d="M 1054.7858796511357 100 Q 1048.7858796511357 80, 1042.7858796511357 100" stroke="black" fill="none" marker-end="url(#arrowhead)"/>
<path d="M 1066.7858796511357 100 Q 1060.7858796511357 80, 1054.7858796511357 100" stroke="black" fill="none" marker-end="url(#arrowhead)"/>
<path d="M 1078.7858796511357 100 Q 1072.7858796511357 80, 1066.7858796511357 100" stroke="black" fill="none" marker-end="url(#arrowhead)"/>
<path d="M 1090.7858796511357 100 Q 1084.7858796511357 80, 1078.7858796511357 100" stroke="black" fill="none" marker-end="url(#arrowhead)"/>
<path d="M 1114.7858796511357 100 Q 1108.7858796511357 80, 1102.7858796511357 100" stroke="black" fill="none" marker-end="url(#arrowhead)"/>
<path d="M 1126.7858796511357 100 Q 1120.7858796511357 80, 1114.7858796511357 100" stroke="black" fill="none" marker-end="url(#arrowhead)"/>
<path d="M 1138.7858796511357 100 Q 1132.7858796511357 80, 1126.7858796511357 100" stroke="black" fill="none" marker-end="url(#arrowhead)"/>
<path d="M 1150.7858796511357 100 Q 1144.7858796511357 80, 1138.7858796511357 100" stroke="black" fill="none" marker-end="url(#arrowhead)"/>
<path d="M 1162.7858796511357 100 Q 1114.7858796511357 80, 1066.7858796511357 100" stroke="black" fill="none" marker-end="url(#arrowhead)"/>
<path d="M 1162.7858796511357 100 Q 1156.7858796511357 80, 1150.7858796511357 100" stroke="black" fill="none" marker-end="url(#arrowhead)"/>
<path d="M 1162.7858796511357 100 Q 1144.7858796511357 80, 1126.7858796511357 100" stroke="black" fill="none" marker-end="url(#arrowhead)"/>
<path d="M 1174.7858796511357 100 Q 1168.7858796511357 80, 1162.7858796511357 100" stroke="black" fill="none" marker-end="url(#arrowhead)"/>
<path d="M 1186.7858796511357 100 Q 1180.7858796511357 80, 1174.7858796511357 100" stroke="black" fill="none" marker-end="url(#arrowhead)"/>
<path d="M 1198.7858796511357 100 Q 1192.7858796511357 80, 1186.7858796511357 100" stroke="black" fill="none" marker-end="url(#arrowhead)"/>
<path d="M 1210.7858796511357 100 Q 1204.7858796511357 80, 1198.7858796511357 100" stroke="black" fill="none" marker-end="url(#arrowhead)"/>
<path d="M 1222.7858796511357 100 Q 1204.7858796511357 80, 1186.7858796511357 100" stroke="black" fill="none" marker-end="url(#arrowhead)"/>
<path d="M 1222.7858796511357 100 Q 1210.7858796511357 80, 1198.7858796511357 100" stroke="black" fill="none" marker-end="url(#arrowhead)"/>
<path d="M 1234.7858796511357 100 Q 1228.7858796511357 80, 1222.7858796511357 100" stroke="black" fill="none" marker-end="url(#arrowhead)"/>
<path d="M 1246.7858796511357 100 Q 1240.7858796511357 80, 1234.7858796511357 100" stroke="black" fill="none" marker-end="url(#arrowhead)"/>
<path d="M 1258.7858796511357 100 Q 1252.7858796511357 80, 1246.7858796511357 100" stroke="black" fill="none" marker-end="url(#arrowhead)"/>
<path d="M 1270.7858796511357 100 Q 1264.7858796511357 80, 1258.7858796511357 100" stroke="black" fill="none" marker-end="url(#arrowhead)"/>
<path d="M 1282.7858796511357 100 Q 1276.7858796511357 80, 1270.7858796511357 100" stroke="black" fill="none" marker-end="url(#arrowhead)"/>
<path d="M 1294.7858796511357 100 Q 1288.7858796511357 80, 1282.7858796511357 100" stroke="black" fill="none" marker-end="url(#arrowhead)"/>
<path d="M 1306.7858796511357 100 Q 1300.7858796511357 80, 1294.7858796511357 100" stroke="black" fill="none" marker-end="url(#arrowhead)"/>

<defs>
  <marker id="arrowhead" markerWidth="5" markerHeight="5" 
          refX="2" refY="2" orient="auto" fill="black">
    <path d="M0,0 L0,4 L4,2 z" />
  </marker>
</defs>

<circle cx="50.0" cy="100" r="6" fill="none" stroke="blue" stroke-width="2" />
<circle cx="50.0" cy="100" r="3" fill="blue" />
<circle cx="62.0" cy="100" r="4" fill="red" />
<circle cx="130.78587965113567" cy="100" r="6" fill="none" stroke="blue" stroke-width="2" />
<circle cx="130.78587965113567" cy="100" r="3" fill="blue" />
<circle cx="142.78587965113567" cy="100" r="4" fill="black" />
<circle cx="154.78587965113567" cy="100" r="6" fill="none" stroke="black" stroke-width="2" />
<circle cx="154.78587965113567" cy="100" r="3" fill="black" />
<circle cx="166.78587965113567" cy="100" r="4" fill="black" />
<circle cx="178.78587965113567" cy="100" r="6" fill="none" stroke="black" stroke-width="2" />
<circle cx="178.78587965113567" cy="100" r="3" fill="black" />
<circle cx="190.78587965113567" cy="100" r="4" fill="black" />
<circle cx="202.78587965113567" cy="100" r="6" fill="none" stroke="black" stroke-width="2" />
<circle cx="202.78587965113567" cy="100" r="3" fill="black" />
<circle cx="214.78587965113567" cy="100" r="4" fill="blue" />
<circle cx="226.78587965113567" cy="100" r="6" fill="none" stroke="blue" stroke-width="2" />
<circle cx="226.78587965113567" cy="100" r="3" fill="blue" />
<circle cx="238.78587965113567" cy="100" r="4" fill="red" />
<circle cx="250.78587965113567" cy="100" r="4" fill="blue" />
<circle cx="262.7858796511357" cy="100" r="6" fill="none" stroke="blue" stroke-width="2" />
<circle cx="262.7858796511357" cy="100" r="3" fill="blue" />
<circle cx="274.7858796511357" cy="100" r="4" fill="red" />
<circle cx="286.7858796511357" cy="100" r="6" fill="none" stroke="black" stroke-width="2" />
<circle cx="286.7858796511357" cy="100" r="3" fill="black" />
<circle cx="298.7858796511357" cy="100" r="6" fill="none" stroke="black" stroke-width="2" />
<circle cx="298.7858796511357" cy="100" r="3" fill="black" />
<circle cx="310.7858796511357" cy="100" r="6" fill="none" stroke="blue" stroke-width="2" />
<circle cx="310.7858796511357" cy="100" r="3" fill="blue" />
<circle cx="322.7858796511357" cy="100" r="6" fill="none" stroke="blue" stroke-width="2" />
<circle cx="322.7858796511357" cy="100" r="3" fill="blue" />
<circle cx="334.7858796511357" cy="100" r="4" fill="blue" />
<circle cx="346.7858796511357" cy="100" r="4" fill="black" />
<circle cx="358.7858796511357" cy="100" r="4" fill="black" />
<circle cx="370.7858796511357" cy="100" r="4" fill="red" />
<circle cx="382.7858796511357" cy="100" r="4" fill="black" />
<circle cx="394.7858796511357" cy="100" r="4" fill="black" />
<circle cx="406.7858796511357" cy="100" r="4" fill="black" />
<circle cx="418.7858796511357" cy="100" r="4" fill="black" />
<circle cx="430.7858796511357" cy="100" r="6" fill="none" stroke="blue" stroke-width="2" />
<circle cx="430.7858796511357" cy="100" r="3" fill="blue" />
<circle cx="442.7858796511357" cy="100" r="4" fill="blue" />
<circle cx="454.7858796511357" cy="100" r="4" fill="green" />
<circle cx="466.7858796511357" cy="100" r="4" fill="black" />
<circle cx="478.7858796511357" cy="100" r="4" fill="black" />
<circle cx="490.7858796511357" cy="100" r="6" fill="none" stroke="red" stroke-width="2" />
<circle cx="490.7858796511357" cy="100" r="3" fill="red" />
<circle cx="502.7858796511357" cy="100" r="4" fill="blue" />
<circle cx="514.7858796511357" cy="100" r="6" fill="none" stroke="blue" stroke-width="2" />
<circle cx="514.7858796511357" cy="100" r="3" fill="blue" />
<circle cx="526.7858796511357" cy="100" r="6" fill="none" stroke="blue" stroke-width="2" />
<circle cx="526.7858796511357" cy="100" r="3" fill="blue" />
<circle cx="538.7858796511357" cy="100" r="4" fill="blue" />
<circle cx="550.7858796511357" cy="100" r="6" fill="none" stroke="blue" stroke-width="2" />
<circle cx="550.7858796511357" cy="100" r="3" fill="blue" />
<circle cx="562.7858796511357" cy="100" r="4" fill="red" />
<circle cx="574.7858796511357" cy="100" r="6" fill="none" stroke="blue" stroke-width="2" />
<circle cx="574.7858796511357" cy="100" r="3" fill="blue" />
<circle cx="586.7858796511357" cy="100" r="4" fill="red" />
<circle cx="598.7858796511357" cy="100" r="4" fill="black" />
<circle cx="610.7858796511357" cy="100" r="6" fill="none" stroke="blue" stroke-width="2" />
<circle cx="610.7858796511357" cy="100" r="3" fill="blue" />
<circle cx="622.7858796511357" cy="100" r="6" fill="none" stroke="blue" stroke-width="2" />
<circle cx="622.7858796511357" cy="100" r="3" fill="blue" />
<circle cx="634.7858796511357" cy="100" r="4" fill="red" />
<circle cx="646.7858796511357" cy="100" r="4" fill="black" />
<circle cx="658.7858796511357" cy="100" r="6" fill="none" stroke="green" stroke-width="2" />
<circle cx="658.7858796511357" cy="100" r="3" fill="green" />
<circle cx="670.7858796511357" cy="100" r="4" fill="red" />
<circle cx="682.7858796511357" cy="100" r="6" fill="none" stroke="black" stroke-width="2" />
<circle cx="682.7858796511357" cy="100" r="3" fill="black" />
<circle cx="694.7858796511357" cy="100" r="4" fill="red" />
<circle cx="706.7858796511357" cy="100" r="6" fill="none" stroke="black" stroke-width="2" />
<circle cx="706.7858796511357" cy="100" r="3" fill="black" />
<circle cx="718.7858796511357" cy="100" r="4" fill="black" />
<circle cx="730.7858796511357" cy="100" r="6" fill="none" stroke="red" stroke-width="2" />
<circle cx="730.7858796511357" cy="100" r="3" fill="red" />
<circle cx="742.7858796511357" cy="100" r="4" fill="red" />
<circle cx="754.7858796511357" cy="100" r="4" fill="black" />
<circle cx="766.7858796511357" cy="100" r="4" fill="red" />
<circle cx="778.7858796511357" cy="100" r="4" fill="blue" />
<circle cx="790.7858796511357" cy="100" r="6" fill="none" stroke="black" stroke-width="2" />
<circle cx="790.7858796511357" cy="100" r="3" fill="black" />
<circle cx="802.7858796511357" cy="100" r="4" fill="red" />
<circle cx="814.7858796511357" cy="100" r="4" fill="red" />
<circle cx="826.7858796511357" cy="100" r="4" fill="red" />
<circle cx="838.7858796511357" cy="100" r="6" fill="none" stroke="red" stroke-width="2" />
<circle cx="838.7858796511357" cy="100" r="3" fill="red" />
<circle cx="850.7858796511357" cy="100" r="6" fill="none" stroke="blue" stroke-width="2" />
<circle cx="850.7858796511357" cy="100" r="3" fill="blue" />
<circle cx="862.7858796511357" cy="100" r="4" fill="black" />
<circle cx="874.7858796511357" cy="100" r="4" fill="blue" />
<circle cx="886.7858796511357" cy="100" r="6" fill="none" stroke="black" stroke-width="2" />
<circle cx="886.7858796511357" cy="100" r="3" fill="black" />
<circle cx="898.7858796511357" cy="100" r="4" fill="black" />
<circle cx="910.7858796511357" cy="100" r="4" fill="black" />
<circle cx="922.7858796511357" cy="100" r="6" fill="none" stroke="blue" stroke-width="2" />
<circle cx="922.7858796511357" cy="100" r="3" fill="blue" />
<circle cx="934.7858796511357" cy="100" r="4" fill="blue" />
<circle cx="946.7858796511357" cy="100" r="4" fill="black" />
<circle cx="958.7858796511357" cy="100" r="4" fill="black" />
<circle cx="970.7858796511357" cy="100" r="4" fill="blue" />
<circle cx="982.7858796511357" cy="100" r="4" fill="black" />
<circle cx="994.7858796511357" cy="100" r="6" fill="none" stroke="black" stroke-width="2" />
<circle cx="994.7858796511357" cy="100" r="3" fill="black" />
<circle cx="1006.7858796511357" cy="100" r="6" fill="none" stroke="black" stroke-width="2" />
<circle cx="1006.7858796511357" cy="100" r="3" fill="black" />
<circle cx="1018.7858796511357" cy="100" r="6" fill="none" stroke="blue" stroke-width="2" />
<circle cx="1018.7858796511357" cy="100" r="3" fill="blue" />
<circle cx="1030.7858796511357" cy="100" r="4" fill="green" />
<circle cx="1042.7858796511357" cy="100" r="6" fill="none" stroke="blue" stroke-width="2" />
<circle cx="1042.7858796511357" cy="100" r="3" fill="blue" />
<circle cx="1054.7858796511357" cy="100" r="4" fill="green" />
<circle cx="1066.7858796511357" cy="100" r="6" fill="none" stroke="blue" stroke-width="2" />
<circle cx="1066.7858796511357" cy="100" r="3" fill="blue" />
<circle cx="1078.7858796511357" cy="100" r="4" fill="red" />
<circle cx="1090.7858796511357" cy="100" r="6" fill="none" stroke="red" stroke-width="2" />
<circle cx="1090.7858796511357" cy="100" r="3" fill="red" />
<circle cx="1102.7858796511357" cy="100" r="4" fill="black" />
<circle cx="1114.7858796511357" cy="100" r="6" fill="none" stroke="black" stroke-width="2" />
<circle cx="1114.7858796511357" cy="100" r="3" fill="black" />
<circle cx="1126.7858796511357" cy="100" r="6" fill="none" stroke="blue" stroke-width="2" />
<circle cx="1126.7858796511357" cy="100" r="3" fill="blue" />
<circle cx="1138.7858796511357" cy="100" r="6" fill="none" stroke="blue" stroke-width="2" />
<circle cx="1138.7858796511357" cy="100" r="3" fill="blue" />
<circle cx="1150.7858796511357" cy="100" r="6" fill="none" stroke="blue" stroke-width="2" />
<circle cx="1150.7858796511357" cy="100" r="3" fill="blue" />
<circle cx="1162.7858796511357" cy="100" r="4" fill="red" />
<circle cx="1174.7858796511357" cy="100" r="6" fill="none" stroke="blue" stroke-width="2" />
<circle cx="1174.7858796511357" cy="100" r="3" fill="blue" />
<circle cx="1186.7858796511357" cy="100" r="4" fill="black" />
<circle cx="1198.7858796511357" cy="100" r="4" fill="black" />
<circle cx="1210.7858796511357" cy="100" r="4" fill="red" />
<circle cx="1222.7858796511357" cy="100" r="6" fill="none" stroke="blue" stroke-width="2" />
<circle cx="1222.7858796511357" cy="100" r="3" fill="blue" />
<circle cx="1234.7858796511357" cy="100" r="4" fill="black" />
<circle cx="1246.7858796511357" cy="100" r="6" fill="none" stroke="black" stroke-width="2" />
<circle cx="1246.7858796511357" cy="100" r="3" fill="black" />
<circle cx="1258.7858796511357" cy="100" r="4" fill="black" />
<circle cx="1270.7858796511357" cy="100" r="6" fill="none" stroke="blue" stroke-width="2" />
<circle cx="1270.7858796511357" cy="100" r="3" fill="blue" />
<circle cx="1282.7858796511357" cy="100" r="6" fill="none" stroke="blue" stroke-width="2" />
<circle cx="1282.7858796511357" cy="100" r="3" fill="blue" />
<circle cx="1294.7858796511357" cy="100" r="6" fill="none" stroke="blue" stroke-width="2" />
<circle cx="1294.7858796511357" cy="100" r="3" fill="blue" />
<circle cx="1306.7858796511357" cy="100" r="6" fill="none" stroke="blue" stroke-width="2" />
<circle cx="1306.7858796511357" cy="100" r="3" fill="blue" />
<text x="50" y="125" fill="gray" style="font-size:12px;">2022-03-18T10:24:56+00:00</text>
<text x="900" y="125" fill="gray" style="font-size:12px;">2025-02-19T07:33:32+00:00</text>
</svg>