<svg xmlns="http://www.w3.org/2000/svg" width="1000" height="400" style="background-color: white; font-family: sans-serif;">
<line x1="50" y1="200" x2="950" y2="200" stroke="gray" stroke-width="1"/>
<path d="M 62.0 200 Q 56.0 180, 50.0 200" stroke="black" fill="none" marker-end="url(#arrowhead)"/>
<path d="M 74.0 200 Q 68.0 180, 62.0 200" stroke="black" fill="none" marker-end="url(#arrowhead)"/>
<path d="M 360.5140034423666 200 Q 217.2570017211833 180, 74.0 200" stroke="black" fill="none" marker-end="url(#arrowhead)"/>
<path d="M 384.28961246978645 200 Q 372.4018079560765 180, 360.5140034423666 200" stroke="black" fill="none" marker-end="url(#arrowhead)"/>
<path d="M 396.28961246978645 200 Q 390.28961246978645 180, 384.28961246978645 200" stroke="black" fill="none" marker-end="url(#arrowhead)"/>
<path d="M 408.28961246978645 200 Q 402.28961246978645 180, 396.28961246978645 200" stroke="black" fill="none" marker-end="url(#arrowhead)"/>
<path d="M 420.28961246978645 200 Q 414.28961246978645 180, 408.28961246978645 200" stroke="black" fill="none" marker-end="url(#arrowhead)"/>
<path d="M 506.8311132734256 200 Q 463.560362871606 180, 420.28961246978645 200" stroke="black" fill="none" marker-end="url(#arrowhead)"/>
<path d="M 680.4128761303709 200 Q 593.6219947018983 180, 506.8311132734256 200" stroke="black" fill="none" marker-end="url(#arrowhead)"/>
<path d="M 728.7481672328885 200 Q 704.5805216816298 180, 680.4128761303709 200" stroke="black" fill="none" marker-end="url(#arrowhead)"/>

<defs>
  <marker id="arrowhead" markerWidth="5" markerHeight="5" 
          refX="2" refY="2" orient="auto" fill="black">
    <path d="M0,0 L0,4 L4,2 z" />
  </marker>
</defs>

<circle cx="50.0" cy="200" r="6" fill="none" stroke="blue" stroke-width="2" />
<circle cx="50.0" cy="200" r="3" fill="blue" />
<circle cx="62.0" cy="200" r="4" fill="black" />
<circle cx="74.0" cy="200" r="6" fill="none" stroke="black" stroke-width="2" />
<circle cx="74.0" cy="200" r="3" fill="black" />
<circle cx="360.5140034423666" cy="200" r="4" fill="red" />
<circle cx="384.28961246978645" cy="200" r="6" fill="none" stroke="blue" stroke-width="2" />
<circle cx="384.28961246978645" cy="200" r="3" fill="blue" />
<circle cx="396.28961246978645" cy="200" r="6" fill="none" stroke="black" stroke-width="2" />
<circle cx="396.28961246978645" cy="200" r="3" fill="black" />
<circle cx="408.28961246978645" cy="200" r="4" fill="blue" />
<circle cx="420.28961246978645" cy="200" r="6" fill="none" stroke="black" stroke-width="2" />
<circle cx="420.28961246978645" cy="200" r="3" fill="black" />
<circle cx="506.8311132734256" cy="200" r="6" fill="none" stroke="black" stroke-width="2" />
<circle cx="506.8311132734256" cy="200" r="3" fill="black" />
<circle cx="680.4128761303709" cy="200" r="6" fill="none" stroke="blue" stroke-width="2" />
<circle cx="680.4128761303709" cy="200" r="3" fill="blue" />
<circle cx="728.7481672328885" cy="200" r="6" fill="none" stroke="blue" stroke-width="2" />
<circle cx="728.7481672328885" cy="200" r="3" fill="blue" />
<circle cx="950.0" cy="200" r="6" fill="none" stroke="blue" stroke-width="2" />
<circle cx="950.0" cy="200" r="3" fill="blue" />
<text x="50" y="225" fill="gray" style="font-size:12px;">2024-09-11T13:07:06+00:00</text>
<text x="900" y="225" fill="gray" style="font-size:12px;">2025-02-25T14:18:40+00:00</text>
</svg>