<svg xmlns="http://www.w3.org/2000/svg" width="1000" height="400" style="background-color: white; font-family: sans-serif;">
<line x1="50" y1="200" x2="950" y2="200" stroke="gray" stroke-width="1"/>
<path d="M 867.1864107739028 200 Q 458.5932053869514 180, 50.0 200" stroke="black" fill="none" marker-end="url(#arrowhead)"/>
<path d="M 879.1864107739028 200 Q 873.1864107739028 180, 867.1864107739028 200" stroke="black" fill="none" marker-end="url(#arrowhead)"/>
<path d="M 879.1864107739028 200 Q 464.5932053869514 180, 50.0 200" stroke="black" fill="none" marker-end="url(#arrowhead)"/>
<path d="M 891.1864107739028 200 Q 885.1864107739028 180, 879.1864107739028 200" stroke="black" fill="none" marker-end="url(#arrowhead)"/>
<path d="M 903.1864107739028 200 Q 897.1864107739028 180, 891.1864107739028 200" stroke="black" fill="none" marker-end="url(#arrowhead)"/>
<path d="M 903.1864107739028 200 Q 891.1864107739028 180, 879.1864107739028 200" stroke="black" fill="none" marker-end="url(#arrowhead)"/>
<path d="M 915.1864107739028 200 Q 909.1864107739028 180, 903.1864107739028 200" stroke="black" fill="none" marker-end="url(#arrowhead)"/>
<path d="M 927.1864107739028 200 Q 921.1864107739028 180, 915.1864107739028 200" stroke="black" fill="none" marker-end="url(#arrowhead)"/>
<path d="M 927.1864107739028 200 Q 874.9003272465297 180, 822.6142437191567 200" stroke="black" fill="none" marker-end="url(#arrowhead)"/>
<path d="M 955.0811677922853 200 Q 888.847705755721 180, 822.6142437191567 200" stroke="black" fill="none" marker-end="url(#arrowhead)"/>
<path d="M 955.0811677922853 200 Q 949.0811677922853 180, 943.0811677922853 200" stroke="black" fill="none" marker-end="url(#arrowhead)"/>
<path d="M 967.0811677922853 200 Q 955.0811677922853 180, 943.0811677922853 200" stroke="black" fill="none" marker-end="url(#arrowhead)"/>
<path d="M 979.0811677922853 200 Q 973.0811677922853 180, 967.0811677922853 200" stroke="black" fill="none" marker-end="url(#arrowhead)"/>
<path d="M 979.0811677922853 200 Q 967.0811677922853 180, 955.0811677922853 200" stroke="black" fill="none" marker-end="url(#arrowhead)"/>
<path d="M 991.0811677922853 200 Q 985.0811677922853 180, 979.0811677922853 200" stroke="black" fill="none" marker-end="url(#arrowhead)"/>

<defs>
  <marker id="arrowhead" markerWidth="5" markerHeight="5" 
          refX="2" refY="2" orient="auto" fill="black">
    <path d="M0,0 L0,4 L4,2 z" />
  </marker>
</defs>

<circle cx="50.0" cy="200" r="6" fill="none" stroke="blue" stroke-width="2" />
<circle cx="50.0" cy="200" r="3" fill="blue" />
<circle cx="62.0" cy="200" r="4" fill="black" />
<circle cx="74.0" cy="200" r="6" fill="none" stroke="black" stroke-width="2" />
<circle cx="74.0" cy="200" r="3" fill="black" />
<circle cx="822.6142437191567" cy="200" r="4" fill="red" />
<circle cx="867.1864107739028" cy="200" r="4" fill="red" />
<circle cx="879.1864107739028" cy="200" r="4" fill="red" />
<circle cx="891.1864107739028" cy="200" r="4" fill="green" />
<circle cx="903.1864107739028" cy="200" r="4" fill="black" />
<circle cx="915.1864107739028" cy="200" r="4" fill="black" />
<circle cx="927.1864107739028" cy="200" r="6" fill="none" stroke="blue" stroke-width="2" />
<circle cx="927.1864107739028" cy="200" r="3" fill="blue" />
<circle cx="943.0811677922853" cy="200" r="4" fill="black" />
<circle cx="955.0811677922853" cy="200" r="4" fill="black" />
<circle cx="967.0811677922853" cy="200" r="4" fill="black" />
<circle cx="979.0811677922853" cy="200" r="6" fill="none" stroke="black" stroke-width="2" />
<circle cx="979.0811677922853" cy="200" r="3" fill="black" />
<circle cx="991.0811677922853" cy="200" r="4" fill="red" />
<text x="50" y="225" fill="gray" style="font-size:12px;">2024-10-31T16:29:56+00:00</text>
<text x="900" y="225" fill="gray" style="font-size:12px;">2025-01-28T23:53:17+00:00</text>
</svg>