<svg xmlns="http://www.w3.org/2000/svg" width="1000" height="200" style="background-color: white; font-family: sans-serif;">
<line x1="50" y1="100" x2="950" y2="100" stroke="gray" stroke-width="1"/>
<path d="M 62.0 100 Q 56.0 80, 50.0 100" stroke="black" fill="none" marker-end="url(#arrowhead)"/>
<path d="M 74.0 100 Q 68.0 80, 62.0 100" stroke="black" fill="none" marker-end="url(#arrowhead)"/>
<path d="M 360.5140034423666 100 Q 217.2570017211833 80, 74.0 100" stroke="black" fill="none" marker-end="url(#arrowhead)"/>
<path d="M 384.28961246978645 100 Q 372.4018079560765 80, 360.5140034423666 100" stroke="black" fill="none" marker-end="url(#arrowhead)"/>
<path d="M 396.28961246978645 100 Q 390.28961246978645 80, 384.28961246978645 100" stroke="black" fill="none" marker-end="url(#arrowhead)"/>
<path d="M 408.28961246978645 100 Q 402.28961246978645 80, 396.28961246978645 100" stroke="black" fill="none" marker-end="url(#arrowhead)"/>
<path d="M 420.28961246978645 100 Q 414.28961246978645 80, 408.28961246978645 100" stroke="black" fill="none" marker-end="url(#arrowhead)"/>
<path d="M 506.8311132734256 100 Q 463.560362871606 80, 420.28961246978645 100" stroke="black" fill="none" marker-end="url(#arrowhead)"/>
<path d="M 680.4128761303709 100 Q 593.6219947018983 80, 506.8311132734256 100" stroke="black" fill="none" marker-end="url(#arrowhead)"/>
<path d="M 728.7481672328885 100 Q 704.5805216816298 80, 680.4128761303709 100" stroke="black" fill="none" marker-end="url(#arrowhead)"/>

<defs>
  <marker id="arrowhead" markerWidth="5" markerHeight="5" 
          refX="2" refY="2" orient="auto" fill="black">
    <path d="M0,0 L0,4 L4,2 z" />
  </marker>
</defs>

<circle cx="50.0" cy="100" r="6" fill="none" stroke="blue" stroke-width="2" />
<circle cx="50.0" cy="100" r="3" fill="blue" />
<circle cx="62.0" cy="100" r="4" fill="black" />
<circle cx="74.0" cy="100" r="6" fill="none" stroke="black" stroke-width="2" />
<circle cx="74.0" cy="100" r="3" fill="black" />
<circle cx="360.5140034423666" cy="100" r="4" fill="red" />
<circle cx="384.28961246978645" cy="100" r="6" fill="none" stroke="blue" stroke-width="2" />
<circle cx="384.28961246978645" cy="100" r="3" fill="blue" />
<circle cx="396.28961246978645" cy="100" r="6" fill="none" stroke="black" stroke-width="2" />
<circle cx="396.28961246978645" cy="100" r="3" fill="black" />
<circle cx="408.28961246978645" cy="100" r="4" fill="blue" />
<circle cx="420.28961246978645" cy="100" r="6" fill="none" stroke="black" stroke-width="2" />
<circle cx="420.28961246978645" cy="100" r="3" fill="black" />
<circle cx="506.8311132734256" cy="100" r="6" fill="none" stroke="black" stroke-width="2" />
<circle cx="506.8311132734256" cy="100" r="3" fill="black" />
<circle cx="680.4128761303709" cy="100" r="6" fill="none" stroke="blue" stroke-width="2" />
<circle cx="680.4128761303709" cy="100" r="3" fill="blue" />
<circle cx="728.7481672328885" cy="100" r="6" fill="none" stroke="blue" stroke-width="2" />
<circle cx="728.7481672328885" cy="100" r="3" fill="blue" />
<circle cx="950.0" cy="100" r="6" fill="none" stroke="blue" stroke-width="2" />
<circle cx="950.0" cy="100" r="3" fill="blue" />
<text x="50" y="125" fill="gray" style="font-size:12px;">2024-09-11T13:07:06+00:00</text>
<text x="900" y="125" fill="gray" style="font-size:12px;">2025-02-25T14:18:40+00:00</text>
</svg>