<svg xmlns="http://www.w3.org/2000/svg" width="1000" height="400" style="background-color: white; font-family: sans-serif;">
<line x1="50" y1="200" x2="950" y2="200" stroke="gray" stroke-width="1"/>
<path d="M 62.0 200 Q 56.0 180, 50.0 200" stroke="black" fill="none" marker-end="url(#arrowhead)"/>
<path d="M 74.0 200 Q 68.0 180, 62.0 200" stroke="black" fill="none" marker-end="url(#arrowhead)"/>
<path d="M 86.0 200 Q 74.0 180, 62.0 200" stroke="black" fill="none" marker-end="url(#arrowhead)"/>
<path d="M 86.0 200 Q 80.0 180, 74.0 200" stroke="black" fill="none" marker-end="url(#arrowhead)"/>
<path d="M 98.0 200 Q 92.0 180, 86.0 200" stroke="black" fill="none" marker-end="url(#arrowhead)"/>
<path d="M 110.0 200 Q 104.0 180, 98.0 200" stroke="black" fill="none" marker-end="url(#arrowhead)"/>
<path d="M 110.0 200 Q 98.0 180, 86.0 200" stroke="black" fill="none" marker-end="url(#arrowhead)"/>
<path d="M 122.0 200 Q 116.0 180, 110.0 200" stroke="black" fill="none" marker-end="url(#arrowhead)"/>
<path d="M 134.0 200 Q 122.0 180, 110.0 200" stroke="black" fill="none" marker-end="url(#arrowhead)"/>
<path d="M 134.0 200 Q 128.0 180, 122.0 200" stroke="black" fill="none" marker-end="url(#arrowhead)"/>
<path d="M 146.0 200 Q 140.0 180, 134.0 200" stroke="black" fill="none" marker-end="url(#arrowhead)"/>
<path d="M 158.0 200 Q 152.0 180, 146.0 200" stroke="black" fill="none" marker-end="url(#arrowhead)"/>
<path d="M 170.0 200 Q 164.0 180, 158.0 200" stroke="black" fill="none" marker-end="url(#arrowhead)"/>
<path d="M 182.0 200 Q 176.0 180, 170.0 200" stroke="black" fill="none" marker-end="url(#arrowhead)"/>
<path d="M 194.0 200 Q 188.0 180, 182.0 200" stroke="black" fill="none" marker-end="url(#arrowhead)"/>
<path d="M 206.0 200 Q 128.0 180, 50.0 200" stroke="black" fill="none" marker-end="url(#arrowhead)"/>
<path d="M 218.0 200 Q 206.0 180, 194.0 200" stroke="black" fill="none" marker-end="url(#arrowhead)"/>
<path d="M 230.0 200 Q 218.0 180, 206.0 200" stroke="black" fill="none" marker-end="url(#arrowhead)"/>
<path d="M 242.0 200 Q 236.0 180, 230.0 200" stroke="black" fill="none" marker-end="url(#arrowhead)"/>
<path d="M 254.0 200 Q 248.0 180, 242.0 200" stroke="black" fill="none" marker-end="url(#arrowhead)"/>
<path d="M 354.14198457993973 200 Q 304.07099228996987 180, 254.0 200" stroke="black" fill="none" marker-end="url(#arrowhead)"/>
<path d="M 409.4775912899803 200 Q 381.80978793496 180, 354.14198457993973 200" stroke="black" fill="none" marker-end="url(#arrowhead)"/>
<path d="M 890.3504399146451 200 Q 878.2003878257931 180, 866.0503357369411 200" stroke="black" fill="none" marker-end="url(#arrowhead)"/>
<path d="M 902.3504399146451 200 Q 896.3504399146451 180, 890.3504399146451 200" stroke="black" fill="none" marker-end="url(#arrowhead)"/>
<path d="M 914.3504399146451 200 Q 908.3504399146451 180, 902.3504399146451 200" stroke="black" fill="none" marker-end="url(#arrowhead)"/>
<path d="M 926.3504399146451 200 Q 920.3504399146451 180, 914.3504399146451 200" stroke="black" fill="none" marker-end="url(#arrowhead)"/>
<path d="M 938.3504399146451 200 Q 932.3504399146451 180, 926.3504399146451 200" stroke="black" fill="none" marker-end="url(#arrowhead)"/>
<path d="M 950.3504399146451 200 Q 944.3504399146451 180, 938.3504399146451 200" stroke="black" fill="none" marker-end="url(#arrowhead)"/>
<path d="M 962.3504399146451 200 Q 956.3504399146451 180, 950.3504399146451 200" stroke="black" fill="none" marker-end="url(#arrowhead)"/>
<path d="M 962.3504399146451 200 Q 932.3504399146451 180, 902.3504399146451 200" stroke="black" fill="none" marker-end="url(#arrowhead)"/>
<path d="M 974.3504399146451 200 Q 968.3504399146451 180, 962.3504399146451 200" stroke="black" fill="none" marker-end="url(#arrowhead)"/>
<path d="M 986.3504399146451 200 Q 980.3504399146451 180, 974.3504399146451 200" stroke="black" fill="none" marker-end="url(#arrowhead)"/>
<path d="M 998.3504399146451 200 Q 992.3504399146451 180, 986.3504399146451 200" stroke="black" fill="none" marker-end="url(#arrowhead)"/>
<path d="M 1010.3504399146451 200 Q 1004.3504399146451 180, 998.3504399146451 200" stroke="black" fill="none" marker-end="url(#arrowhead)"/>

<defs>
  <marker id="arrowhead" markerWidth="5" markerHeight="5" 
          refX="2" refY="2" orient="auto" fill="black">
    <path d="M0,0 L0,4 L4,2 z" />
  </marker>
</defs>

<circle cx="50.0" cy="200" r="6" fill="none" stroke="blue" stroke-width="2" />
<circle cx="50.0" cy="200" r="3" fill="blue" />
<circle cx="62.0" cy="200" r="4" fill="black" />
<circle cx="74.0" cy="200" r="6" fill="none" stroke="black" stroke-width="2" />
<circle cx="74.0" cy="200" r="3" fill="black" />
<circle cx="86.0" cy="200" r="4" fill="red" />
<circle cx="98.0" cy="200" r="4" fill="black" />
<circle cx="110.0" cy="200" r="4" fill="black" />
<circle cx="122.0" cy="200" r="4" fill="black" />
<circle cx="134.0" cy="200" r="4" fill="black" />
<circle cx="146.0" cy="200" r="4" fill="black" />
<circle cx="158.0" cy="200" r="4" fill="black" />
<circle cx="170.0" cy="200" r="6" fill="none" stroke="black" stroke-width="2" />
<circle cx="170.0" cy="200" r="3" fill="black" />
<circle cx="182.0" cy="200" r="4" fill="red" />
<circle cx="194.0" cy="200" r="6" fill="none" stroke="green" stroke-width="2" />
<circle cx="194.0" cy="200" r="3" fill="green" />
<circle cx="206.0" cy="200" r="4" fill="red" />
<circle cx="218.0" cy="200" r="4" fill="black" />
<circle cx="230.0" cy="200" r="6" fill="none" stroke="black" stroke-width="2" />
<circle cx="230.0" cy="200" r="3" fill="black" />
<circle cx="242.0" cy="200" r="4" fill="black" />
<circle cx="254.0" cy="200" r="6" fill="none" stroke="blue" stroke-width="2" />
<circle cx="254.0" cy="200" r="3" fill="blue" />
<circle cx="354.14198457993973" cy="200" r="6" fill="none" stroke="blue" stroke-width="2" />
<circle cx="354.14198457993973" cy="200" r="3" fill="blue" />
<circle cx="409.4775912899803" cy="200" r="6" fill="none" stroke="blue" stroke-width="2" />
<circle cx="409.4775912899803" cy="200" r="3" fill="blue" />
<circle cx="866.0503357369411" cy="200" r="4" fill="red" />
<circle cx="890.3504399146451" cy="200" r="6" fill="none" stroke="blue" stroke-width="2" />
<circle cx="890.3504399146451" cy="200" r="3" fill="blue" />
<circle cx="902.3504399146451" cy="200" r="4" fill="red" />
<circle cx="914.3504399146451" cy="200" r="4" fill="red" />
<circle cx="926.3504399146451" cy="200" r="4" fill="black" />
<circle cx="938.3504399146451" cy="200" r="6" fill="none" stroke="blue" stroke-width="2" />
<circle cx="938.3504399146451" cy="200" r="3" fill="blue" />
<circle cx="950.3504399146451" cy="200" r="4" fill="red" />
<circle cx="962.3504399146451" cy="200" r="6" fill="none" stroke="blue" stroke-width="2" />
<circle cx="962.3504399146451" cy="200" r="3" fill="blue" />
<circle cx="974.3504399146451" cy="200" r="4" fill="red" />
<circle cx="986.3504399146451" cy="200" r="6" fill="none" stroke="black" stroke-width="2" />
<circle cx="986.3504399146451" cy="200" r="3" fill="black" />
<circle cx="998.3504399146451" cy="200" r="4" fill="red" />
<circle cx="1010.3504399146451" cy="200" r="6" fill="none" stroke="blue" stroke-width="2" />
<circle cx="1010.3504399146451" cy="200" r="3" fill="blue" />
<text x="50" y="225" fill="gray" style="font-size:12px;">2024-08-14T11:01:22+00:00</text>
<text x="900" y="225" fill="gray" style="font-size:12px;">2025-01-24T13:00:29+00:00</text>
</svg>