<svg xmlns="http://www.w3.org/2000/svg" width="1000" height="200" style="background-color: white; font-family: sans-serif;">
<line x1="50" y1="100" x2="950" y2="100" stroke="gray" stroke-width="1"/>
<path d="M 62.0 100 Q 56.0 80, 50.0 100" stroke="black" fill="none" marker-end="url(#arrowhead)"/>
<path d="M 74.0 100 Q 68.0 80, 62.0 100" stroke="black" fill="none" marker-end="url(#arrowhead)"/>
<path d="M 86.0 100 Q 74.0 80, 62.0 100" stroke="black" fill="none" marker-end="url(#arrowhead)"/>
<path d="M 86.0 100 Q 80.0 80, 74.0 100" stroke="black" fill="none" marker-end="url(#arrowhead)"/>
<path d="M 98.0 100 Q 92.0 80, 86.0 100" stroke="black" fill="none" marker-end="url(#arrowhead)"/>
<path d="M 110.0 100 Q 98.0 80, 86.0 100" stroke="black" fill="none" marker-end="url(#arrowhead)"/>
<path d="M 110.0 100 Q 104.0 80, 98.0 100" stroke="black" fill="none" marker-end="url(#arrowhead)"/>
<path d="M 122.0 100 Q 98.0 80, 74.0 100" stroke="black" fill="none" marker-end="url(#arrowhead)"/>
<path d="M 134.0 100 Q 122.0 80, 110.0 100" stroke="black" fill="none" marker-end="url(#arrowhead)"/>
<path d="M 146.0 100 Q 140.0 80, 134.0 100" stroke="black" fill="none" marker-end="url(#arrowhead)"/>
<path d="M 158.0 100 Q 146.0 80, 134.0 100" stroke="black" fill="none" marker-end="url(#arrowhead)"/>
<path d="M 158.0 100 Q 152.0 80, 146.0 100" stroke="black" fill="none" marker-end="url(#arrowhead)"/>
<path d="M 840.588861809669 100 Q 505.2944309048345 80, 170.0 100" stroke="black" fill="none" marker-end="url(#arrowhead)"/>
<path d="M 948.2897114683907 100 Q 559.1448557341953 80, 170.0 100" stroke="black" fill="none" marker-end="url(#arrowhead)"/>
<path d="M 948.2897114683907 100 Q 894.4392866390299 80, 840.588861809669 100" stroke="black" fill="none" marker-end="url(#arrowhead)"/>
<path d="M 960.2897114683907 100 Q 900.4392866390299 80, 840.588861809669 100" stroke="black" fill="none" marker-end="url(#arrowhead)"/>
<path d="M 972.2897114683907 100 Q 517.1448557341953 80, 62.0 100" stroke="black" fill="none" marker-end="url(#arrowhead)"/>
<path d="M 972.2897114683907 100 Q 966.2897114683907 80, 960.2897114683907 100" stroke="black" fill="none" marker-end="url(#arrowhead)"/>
<path d="M 984.2897114683907 100 Q 972.2897114683907 80, 960.2897114683907 100" stroke="black" fill="none" marker-end="url(#arrowhead)"/>
<path d="M 996.2897114683907 100 Q 529.1448557341953 80, 62.0 100" stroke="black" fill="none" marker-end="url(#arrowhead)"/>
<path d="M 996.2897114683907 100 Q 978.2897114683907 80, 960.2897114683907 100" stroke="black" fill="none" marker-end="url(#arrowhead)"/>
<path d="M 996.2897114683907 100 Q 984.2897114683907 80, 972.2897114683907 100" stroke="black" fill="none" marker-end="url(#arrowhead)"/>

<defs>
  <marker id="arrowhead" markerWidth="5" markerHeight="5" 
          refX="2" refY="2" orient="auto" fill="black">
    <path d="M0,0 L0,4 L4,2 z" />
  </marker>
</defs>

<circle cx="50.0" cy="100" r="6" fill="none" stroke="black" stroke-width="2" />
<circle cx="50.0" cy="100" r="3" fill="black" />
<circle cx="62.0" cy="100" r="4" fill="black" />
<circle cx="74.0" cy="100" r="4" fill="black" />
<circle cx="86.0" cy="100" r="4" fill="black" />
<circle cx="98.0" cy="100" r="4" fill="black" />
<circle cx="110.0" cy="100" r="4" fill="red" />
<circle cx="122.0" cy="100" r="4" fill="black" />
<circle cx="134.0" cy="100" r="4" fill="black" />
<circle cx="146.0" cy="100" r="6" fill="none" stroke="black" stroke-width="2" />
<circle cx="146.0" cy="100" r="3" fill="black" />
<circle cx="158.0" cy="100" r="6" fill="none" stroke="black" stroke-width="2" />
<circle cx="158.0" cy="100" r="3" fill="black" />
<circle cx="170.0" cy="100" r="4" fill="black" />
<circle cx="840.588861809669" cy="100" r="6" fill="none" stroke="blue" stroke-width="2" />
<circle cx="840.588861809669" cy="100" r="3" fill="blue" />
<circle cx="948.2897114683907" cy="100" r="6" fill="none" stroke="blue" stroke-width="2" />
<circle cx="948.2897114683907" cy="100" r="3" fill="blue" />
<circle cx="960.2897114683907" cy="100" r="4" fill="red" />
<circle cx="972.2897114683907" cy="100" r="6" fill="none" stroke="black" stroke-width="2" />
<circle cx="972.2897114683907" cy="100" r="3" fill="black" />
<circle cx="984.2897114683907" cy="100" r="4" fill="black" />
<circle cx="996.2897114683907" cy="100" r="6" fill="none" stroke="black" stroke-width="2" />
<circle cx="996.2897114683907" cy="100" r="3" fill="black" />
<text x="50" y="125" fill="gray" style="font-size:12px;">2024-09-09T11:57:59+00:00</text>
<text x="900" y="125" fill="gray" style="font-size:12px;">2025-03-01T22:25:19+00:00</text>
</svg>