<svg xmlns="http://www.w3.org/2000/svg" width="1000" height="400" style="background-color: white; font-family: sans-serif;">
<line x1="50" y1="200" x2="950" y2="200" stroke="gray" stroke-width="1"/>
<path d="M 74.0 200 Q 62.0 180, 50.0 200" stroke="black" fill="none" marker-end="url(#arrowhead)"/>
<path d="M 86.0 200 Q 80.0 180, 74.0 200" stroke="black" fill="none" marker-end="url(#arrowhead)"/>
<path d="M 122.0 200 Q 110.0 180, 98.0 200" stroke="black" fill="none" marker-end="url(#arrowhead)"/>
<path d="M 204.22986805883454 200 Q 163.11493402941727 180, 122.0 200" stroke="black" fill="none" marker-end="url(#arrowhead)"/>
<path d="M 235.94759770862473 200 Q 220.08873288372962 180, 204.22986805883454 200" stroke="black" fill="none" marker-end="url(#arrowhead)"/>
<path d="M 261.9446399458337 200 Q 191.97231997291686 180, 122.0 200" stroke="black" fill="none" marker-end="url(#arrowhead)"/>
<path d="M 261.9446399458337 200 Q 233.08725400233413 180, 204.22986805883454 200" stroke="black" fill="none" marker-end="url(#arrowhead)"/>

<defs>
  <marker id="arrowhead" markerWidth="5" markerHeight="5" 
          refX="2" refY="2" orient="auto" fill="black">
    <path d="M0,0 L0,4 L4,2 z" />
  </marker>
</defs>

<circle cx="50.0" cy="200" r="6" fill="none" stroke="black" stroke-width="2" />
<circle cx="50.0" cy="200" r="3" fill="black" />
<circle cx="62.0" cy="200" r="4" fill="black" />
<circle cx="74.0" cy="200" r="4" fill="black" />
<circle cx="86.0" cy="200" r="4" fill="black" />
<circle cx="98.0" cy="200" r="6" fill="none" stroke="blue" stroke-width="2" />
<circle cx="98.0" cy="200" r="3" fill="blue" />
<circle cx="110.0" cy="200" r="4" fill="red" />
<circle cx="122.0" cy="200" r="4" fill="black" />
<circle cx="204.22986805883454" cy="200" r="6" fill="none" stroke="blue" stroke-width="2" />
<circle cx="204.22986805883454" cy="200" r="3" fill="blue" />
<circle cx="235.94759770862473" cy="200" r="4" fill="green" />
<circle cx="261.9446399458337" cy="200" r="4" fill="red" />
<circle cx="273.9446399458337" cy="200" r="4" fill="black" />
<circle cx="285.9446399458337" cy="200" r="4" fill="black" />
<circle cx="297.9446399458337" cy="200" r="4" fill="black" />
<circle cx="950.0" cy="200" r="6" fill="none" stroke="black" stroke-width="2" />
<circle cx="950.0" cy="200" r="3" fill="black" />
<text x="50" y="225" fill="gray" style="font-size:12px;">2024-10-25T08:02:37+00:00</text>
<text x="900" y="225" fill="gray" style="font-size:12px;">2025-02-19T06:13:07+00:00</text>
</svg>