<svg xmlns="http://www.w3.org/2000/svg" width="1000" height="400" style="background-color: white; font-family: sans-serif;">
<line x1="50" y1="200" x2="950" y2="200" stroke="gray" stroke-width="1"/>
<path d="M 139.52831351945935 200 Q 94.76415675972967 180, 50.0 200" stroke="black" fill="none" marker-end="url(#arrowhead)"/>
<path d="M 174.01225138579866 200 Q 156.770282452629 180, 139.52831351945935 200" stroke="black" fill="none" marker-end="url(#arrowhead)"/>
<path d="M 200.07969978796655 200 Q 194.07969978796655 180, 188.07969978796655 200" stroke="black" fill="none" marker-end="url(#arrowhead)"/>
<path d="M 212.07969978796655 200 Q 200.07969978796655 180, 188.07969978796655 200" stroke="black" fill="none" marker-end="url(#arrowhead)"/>
<path d="M 224.07969978796655 200 Q 206.07969978796655 180, 188.07969978796655 200" stroke="black" fill="none" marker-end="url(#arrowhead)"/>
<path d="M 224.07969978796655 200 Q 218.07969978796655 180, 212.07969978796655 200" stroke="black" fill="none" marker-end="url(#arrowhead)"/>
<path d="M 236.07969978796655 200 Q 230.07969978796655 180, 224.07969978796655 200" stroke="black" fill="none" marker-end="url(#arrowhead)"/>
<path d="M 248.07969978796655 200 Q 218.07969978796655 180, 188.07969978796655 200" stroke="black" fill="none" marker-end="url(#arrowhead)"/>
<path d="M 396.72573599937317 200 Q 322.4027178936699 180, 248.07969978796655 200" stroke="black" fill="none" marker-end="url(#arrowhead)"/>
<path d="M 429.3450887849583 200 Q 413.03541239216577 180, 396.72573599937317 200" stroke="black" fill="none" marker-end="url(#arrowhead)"/>
<path d="M 468.41360224343754 200 Q 462.41360224343754 180, 456.41360224343754 200" stroke="black" fill="none" marker-end="url(#arrowhead)"/>
<path d="M 480.41360224343754 200 Q 474.41360224343754 180, 468.41360224343754 200" stroke="black" fill="none" marker-end="url(#arrowhead)"/>
<path d="M 480.41360224343754 200 Q 265.20680112171874 180, 50.0 200" stroke="black" fill="none" marker-end="url(#arrowhead)"/>
<path d="M 480.41360224343754 200 Q 468.41360224343754 180, 456.41360224343754 200" stroke="black" fill="none" marker-end="url(#arrowhead)"/>
<path d="M 492.41360224343754 200 Q 480.41360224343754 180, 468.41360224343754 200" stroke="black" fill="none" marker-end="url(#arrowhead)"/>
<path d="M 492.41360224343754 200 Q 486.41360224343754 180, 480.41360224343754 200" stroke="black" fill="none" marker-end="url(#arrowhead)"/>
<path d="M 838.076893332204 200 Q 665.2452477878207 180, 492.41360224343754 200" stroke="black" fill="none" marker-end="url(#arrowhead)"/>
<path d="M 850.076893332204 200 Q 844.076893332204 180, 838.076893332204 200" stroke="black" fill="none" marker-end="url(#arrowhead)"/>
<path d="M 960.4341119745371 200 Q 954.4341119745371 180, 948.4341119745371 200" stroke="black" fill="none" marker-end="url(#arrowhead)"/>

<defs>
  <marker id="arrowhead" markerWidth="5" markerHeight="5" 
          refX="2" refY="2" orient="auto" fill="black">
    <path d="M0,0 L0,4 L4,2 z" />
  </marker>
</defs>

<circle cx="50.0" cy="200" r="6" fill="none" stroke="blue" stroke-width="2" />
<circle cx="50.0" cy="200" r="3" fill="blue" />
<circle cx="139.52831351945935" cy="200" r="4" fill="red" />
<circle cx="174.01225138579866" cy="200" r="6" fill="none" stroke="blue" stroke-width="2" />
<circle cx="174.01225138579866" cy="200" r="3" fill="blue" />
<circle cx="188.07969978796655" cy="200" r="6" fill="none" stroke="blue" stroke-width="2" />
<circle cx="188.07969978796655" cy="200" r="3" fill="blue" />
<circle cx="200.07969978796655" cy="200" r="4" fill="red" />
<circle cx="212.07969978796655" cy="200" r="4" fill="black" />
<circle cx="224.07969978796655" cy="200" r="4" fill="black" />
<circle cx="236.07969978796655" cy="200" r="4" fill="black" />
<circle cx="248.07969978796655" cy="200" r="4" fill="blue" />
<circle cx="396.72573599937317" cy="200" r="6" fill="none" stroke="blue" stroke-width="2" />
<circle cx="396.72573599937317" cy="200" r="3" fill="blue" />
<circle cx="429.3450887849583" cy="200" r="4" fill="red" />
<circle cx="456.41360224343754" cy="200" r="4" fill="blue" />
<circle cx="468.41360224343754" cy="200" r="6" fill="none" stroke="black" stroke-width="2" />
<circle cx="468.41360224343754" cy="200" r="3" fill="black" />
<circle cx="480.41360224343754" cy="200" r="4" fill="red" />
<circle cx="492.41360224343754" cy="200" r="4" fill="black" />
<circle cx="838.076893332204" cy="200" r="6" fill="none" stroke="blue" stroke-width="2" />
<circle cx="838.076893332204" cy="200" r="3" fill="blue" />
<circle cx="850.076893332204" cy="200" r="6" fill="none" stroke="blue" stroke-width="2" />
<circle cx="850.076893332204" cy="200" r="3" fill="blue" />
<circle cx="948.4341119745371" cy="200" r="6" fill="none" stroke="blue" stroke-width="2" />
<circle cx="948.4341119745371" cy="200" r="3" fill="blue" />
<circle cx="960.4341119745371" cy="200" r="6" fill="none" stroke="blue" stroke-width="2" />
<circle cx="960.4341119745371" cy="200" r="3" fill="blue" />
<text x="50" y="225" fill="gray" style="font-size:12px;">2024-08-29T16:33:28+00:00</text>
<text x="900" y="225" fill="gray" style="font-size:12px;">2025-02-27T23:23:30+00:00</text>
</svg>