<svg xmlns="http://www.w3.org/2000/svg" width="1000" height="400" style="background-color: white; font-family: sans-serif;">
<line x1="50" y1="200" x2="950" y2="200" stroke="gray" stroke-width="1"/>
<path d="M 162.58018918153883 200 Q 106.29009459076941 180, 50.0 200" stroke="black" fill="none" marker-end="url(#arrowhead)"/>
<path d="M 254.78090061640418 200 Q 152.3904503082021 180, 50.0 200" stroke="black" fill="none" marker-end="url(#arrowhead)"/>
<path d="M 254.78090061640418 200 Q 208.6805448989715 180, 162.58018918153883 200" stroke="black" fill="none" marker-end="url(#arrowhead)"/>
<path d="M 292.1381387681694 200 Q 280.1381387681694 180, 268.1381387681694 200" stroke="black" fill="none" marker-end="url(#arrowhead)"/>
<path d="M 304.1381387681694 200 Q 298.1381387681694 180, 292.1381387681694 200" stroke="black" fill="none" marker-end="url(#arrowhead)"/>
<path d="M 316.1381387681694 200 Q 304.1381387681694 180, 292.1381387681694 200" stroke="black" fill="none" marker-end="url(#arrowhead)"/>
<path d="M 328.1381387681694 200 Q 322.1381387681694 180, 316.1381387681694 200" stroke="black" fill="none" marker-end="url(#arrowhead)"/>
<path d="M 352.1381387681694 200 Q 346.1381387681694 180, 340.1381387681694 200" stroke="black" fill="none" marker-end="url(#arrowhead)"/>
<path d="M 364.1381387681694 200 Q 358.1381387681694 180, 352.1381387681694 200" stroke="black" fill="none" marker-end="url(#arrowhead)"/>
<path d="M 446.04429114854565 200 Q 405.09121495835757 180, 364.1381387681694 200" stroke="black" fill="none" marker-end="url(#arrowhead)"/>
<path d="M 924.0102533412316 200 Q 685.0272722448886 180, 446.04429114854565 200" stroke="black" fill="none" marker-end="url(#arrowhead)"/>
<path d="M 950.0 200 Q 937.0051266706158 180, 924.0102533412316 200" stroke="black" fill="none" marker-end="url(#arrowhead)"/>

<defs>
  <marker id="arrowhead" markerWidth="5" markerHeight="5" 
          refX="2" refY="2" orient="auto" fill="black">
    <path d="M0,0 L0,4 L4,2 z" />
  </marker>
</defs>

<circle cx="50.0" cy="200" r="6" fill="none" stroke="blue" stroke-width="2" />
<circle cx="50.0" cy="200" r="3" fill="blue" />
<circle cx="162.58018918153883" cy="200" r="4" fill="blue" />
<circle cx="254.78090061640418" cy="200" r="4" fill="black" />
<circle cx="268.1381387681694" cy="200" r="4" fill="blue" />
<circle cx="280.1381387681694" cy="200" r="4" fill="black" />
<circle cx="292.1381387681694" cy="200" r="4" fill="red" />
<circle cx="304.1381387681694" cy="200" r="6" fill="none" stroke="black" stroke-width="2" />
<circle cx="304.1381387681694" cy="200" r="3" fill="black" />
<circle cx="316.1381387681694" cy="200" r="4" fill="blue" />
<circle cx="328.1381387681694" cy="200" r="6" fill="none" stroke="green" stroke-width="2" />
<circle cx="328.1381387681694" cy="200" r="3" fill="green" />
<circle cx="340.1381387681694" cy="200" r="4" fill="blue" />
<circle cx="352.1381387681694" cy="200" r="4" fill="red" />
<circle cx="364.1381387681694" cy="200" r="4" fill="blue" />
<circle cx="446.04429114854565" cy="200" r="4" fill="blue" />
<circle cx="924.0102533412316" cy="200" r="4" fill="blue" />
<circle cx="950.0" cy="200" r="4" fill="black" />
<text x="50" y="225" fill="gray" style="font-size:12px;">2023-12-11T21:53:01+00:00</text>
<text x="900" y="225" fill="gray" style="font-size:12px;">2025-01-30T20:55:00+00:00</text>
</svg>