<svg xmlns="http://www.w3.org/2000/svg" width="1000" height="200" style="background-color: white; font-family: sans-serif;">
<line x1="50" y1="100" x2="950" y2="100" stroke="gray" stroke-width="1"/>
<path d="M 198.57223274417578 100 Q 192.57223274417578 80, 186.57223274417578 100" stroke="black" fill="none" marker-end="url(#arrowhead)"/>
<path d="M 230.09482783821758 100 Q 208.33353029119667 80, 186.57223274417578 100" stroke="black" fill="none" marker-end="url(#arrowhead)"/>
<path d="M 230.09482783821758 100 Q 214.33353029119667 80, 198.57223274417578 100" stroke="black" fill="none" marker-end="url(#arrowhead)"/>
<path d="M 950.0 100 Q 823.0773212031779 80, 696.154642406356 100" stroke="black" fill="none" marker-end="url(#arrowhead)"/>

<defs>
  <marker id="arrowhead" markerWidth="5" markerHeight="5" 
          refX="2" refY="2" orient="auto" fill="black">
    <path d="M0,0 L0,4 L4,2 z" />
  </marker>
</defs>

<circle cx="50.0" cy="100" r="6" fill="none" stroke="blue" stroke-width="2" />
<circle cx="50.0" cy="100" r="3" fill="blue" />
<circle cx="186.57223274417578" cy="100" r="4" fill="black" />
<circle cx="198.57223274417578" cy="100" r="6" fill="none" stroke="blue" stroke-width="2" />
<circle cx="198.57223274417578" cy="100" r="3" fill="blue" />
<circle cx="218.09482783821758" cy="100" r="4" fill="red" />
<circle cx="230.09482783821758" cy="100" r="4" fill="black" />
<circle cx="248.60626657143013" cy="100" r="6" fill="none" stroke="blue" stroke-width="2" />
<circle cx="248.60626657143013" cy="100" r="3" fill="blue" />
<circle cx="360.8773644968274" cy="100" r="4" fill="red" />
<circle cx="372.8773644968274" cy="100" r="6" fill="none" stroke="blue" stroke-width="2" />
<circle cx="372.8773644968274" cy="100" r="3" fill="blue" />
<circle cx="384.8773644968274" cy="100" r="4" fill="green" />
<circle cx="696.154642406356" cy="100" r="4" fill="black" />
<circle cx="950.0" cy="100" r="6" fill="none" stroke="black" stroke-width="2" />
<circle cx="950.0" cy="100" r="3" fill="black" />
<text x="50" y="125" fill="gray" style="font-size:12px;">2024-03-06T15:59:52+00:00</text>
<text x="900" y="125" fill="gray" style="font-size:12px;">2025-02-27T13:54:56+00:00</text>
</svg>