<svg xmlns="http://www.w3.org/2000/svg" width="1000" height="400" style="background-color: white; font-family: sans-serif;">
<line x1="50" y1="200" x2="950" y2="200" stroke="gray" stroke-width="1"/>
<path d="M 62.0 200 Q 56.0 180, 50.0 200" stroke="black" fill="none" marker-end="url(#arrowhead)"/>
<path d="M 88.79066289193953 200 Q 75.39533144596976 180, 62.0 200" stroke="black" fill="none" marker-end="url(#arrowhead)"/>
<path d="M 100.79066289193953 200 Q 94.79066289193953 180, 88.79066289193953 200" stroke="black" fill="none" marker-end="url(#arrowhead)"/>
<path d="M 117.11179958335559 200 Q 89.5558997916778 180, 62.0 200" stroke="black" fill="none" marker-end="url(#arrowhead)"/>
<path d="M 117.11179958335559 200 Q 102.95123123764756 180, 88.79066289193953 200" stroke="black" fill="none" marker-end="url(#arrowhead)"/>
<path d="M 117.11179958335559 200 Q 108.95123123764756 180, 100.79066289193953 200" stroke="black" fill="none" marker-end="url(#arrowhead)"/>
<path d="M 146.07926926980394 200 Q 137.59553442657977 180, 129.1117995833556 200" stroke="black" fill="none" marker-end="url(#arrowhead)"/>
<path d="M 199.4926553068746 200 Q 193.4926553068746 180, 187.4926553068746 200" stroke="black" fill="none" marker-end="url(#arrowhead)"/>
<path d="M 450.28844613001445 200 Q 298.1838576999092 180, 146.07926926980394 200" stroke="black" fill="none" marker-end="url(#arrowhead)"/>
<path d="M 484.1862080017093 200 Q 467.2373270658619 180, 450.28844613001445 200" stroke="black" fill="none" marker-end="url(#arrowhead)"/>
<path d="M 538.659793814433 200 Q 511.4230009080711 180, 484.1862080017093 200" stroke="black" fill="none" marker-end="url(#arrowhead)"/>
<path d="M 555.6514075102825 200 Q 547.1556006623578 180, 538.659793814433 200" stroke="black" fill="none" marker-end="url(#arrowhead)"/>
<path d="M 555.6514075102825 200 Q 502.9699268201485 180, 450.28844613001445 200" stroke="black" fill="none" marker-end="url(#arrowhead)"/>
<path d="M 555.6514075102825 200 Q 519.9188077559959 180, 484.1862080017093 200" stroke="black" fill="none" marker-end="url(#arrowhead)"/>
<path d="M 815.7657176432883 200 Q 685.7085625767854 180, 555.6514075102825 200" stroke="black" fill="none" marker-end="url(#arrowhead)"/>
<path d="M 950.0 200 Q 744.3298969072165 180, 538.659793814433 200" stroke="black" fill="none" marker-end="url(#arrowhead)"/>
<path d="M 950.0 200 Q 752.8257037551413 180, 555.6514075102825 200" stroke="black" fill="none" marker-end="url(#arrowhead)"/>
<path d="M 950.0 200 Q 882.8828588216442 180, 815.7657176432883 200" stroke="black" fill="none" marker-end="url(#arrowhead)"/>

<defs>
  <marker id="arrowhead" markerWidth="5" markerHeight="5" 
          refX="2" refY="2" orient="auto" fill="black">
    <path d="M0,0 L0,4 L4,2 z" />
  </marker>
</defs>

<circle cx="50.0" cy="200" r="6" fill="none" stroke="blue" stroke-width="2" />
<circle cx="50.0" cy="200" r="3" fill="blue" />
<circle cx="62.0" cy="200" r="4" fill="red" />
<circle cx="88.79066289193953" cy="200" r="6" fill="none" stroke="blue" stroke-width="2" />
<circle cx="88.79066289193953" cy="200" r="3" fill="blue" />
<circle cx="100.79066289193953" cy="200" r="4" fill="red" />
<circle cx="117.11179958335559" cy="200" r="4" fill="black" />
<circle cx="129.1117995833556" cy="200" r="6" fill="none" stroke="blue" stroke-width="2" />
<circle cx="129.1117995833556" cy="200" r="3" fill="blue" />
<circle cx="146.07926926980394" cy="200" r="4" fill="blue" />
<circle cx="187.4926553068746" cy="200" r="6" fill="none" stroke="black" stroke-width="2" />
<circle cx="187.4926553068746" cy="200" r="3" fill="black" />
<circle cx="199.4926553068746" cy="200" r="4" fill="black" />
<circle cx="450.28844613001445" cy="200" r="4" fill="black" />
<circle cx="484.1862080017093" cy="200" r="4" fill="black" />
<circle cx="538.659793814433" cy="200" r="4" fill="black" />
<circle cx="555.6514075102825" cy="200" r="4" fill="black" />
<circle cx="815.7657176432883" cy="200" r="4" fill="green" />
<circle cx="950.0" cy="200" r="4" fill="green" />
<text x="50" y="225" fill="gray" style="font-size:12px;">2025-02-03T17:38:39+00:00</text>
<text x="900" y="225" fill="gray" style="font-size:12px;">2025-02-05T16:26:48+00:00</text>
</svg>