<svg xmlns="http://www.w3.org/2000/svg" width="1000" height="400" style="background-color: white; font-family: sans-serif;">
<line x1="50" y1="200" x2="950" y2="200" stroke="gray" stroke-width="1"/>
<path d="M 145.94186017694727 200 Q 97.97093008847364 180, 50.0 200" stroke="black" fill="none" marker-end="url(#arrowhead)"/>
<path d="M 193.76502441079526 200 Q 169.85344229387127 180, 145.94186017694727 200" stroke="black" fill="none" marker-end="url(#arrowhead)"/>
<path d="M 193.76502441079526 200 Q 121.88251220539763 180, 50.0 200" stroke="black" fill="none" marker-end="url(#arrowhead)"/>
<path d="M 685.9312656439741 200 Q 439.8481450273847 180, 193.76502441079526 200" stroke="black" fill="none" marker-end="url(#arrowhead)"/>
<path d="M 697.9312656439741 200 Q 672.8848045897251 180, 647.8383435354762 200" stroke="black" fill="none" marker-end="url(#arrowhead)"/>
<path d="M 743.847116552254 200 Q 444.89448836460065 180, 145.94186017694727 200" stroke="black" fill="none" marker-end="url(#arrowhead)"/>
<path d="M 743.847116552254 200 Q 468.8060704815246 180, 193.76502441079526 200" stroke="black" fill="none" marker-end="url(#arrowhead)"/>
<path d="M 743.847116552254 200 Q 714.889191098114 180, 685.9312656439741 200" stroke="black" fill="none" marker-end="url(#arrowhead)"/>
<path d="M 755.847116552254 200 Q 726.889191098114 180, 697.9312656439741 200" stroke="black" fill="none" marker-end="url(#arrowhead)"/>
<path d="M 767.847116552254 200 Q 761.847116552254 180, 755.847116552254 200" stroke="black" fill="none" marker-end="url(#arrowhead)"/>
<path d="M 791.847116552254 200 Q 785.847116552254 180, 779.847116552254 200" stroke="black" fill="none" marker-end="url(#arrowhead)"/>
<path d="M 943.4174493816759 200 Q 861.6322829669649 180, 779.847116552254 200" stroke="black" fill="none" marker-end="url(#arrowhead)"/>
<path d="M 943.4174493816759 200 Q 867.6322829669649 180, 791.847116552254 200" stroke="black" fill="none" marker-end="url(#arrowhead)"/>
<path d="M 955.4174493816759 200 Q 949.4174493816759 180, 943.4174493816759 200" stroke="black" fill="none" marker-end="url(#arrowhead)"/>

<defs>
  <marker id="arrowhead" markerWidth="5" markerHeight="5" 
          refX="2" refY="2" orient="auto" fill="black">
    <path d="M0,0 L0,4 L4,2 z" />
  </marker>
</defs>

<circle cx="50.0" cy="200" r="6" fill="none" stroke="blue" stroke-width="2" />
<circle cx="50.0" cy="200" r="3" fill="blue" />
<circle cx="145.94186017694727" cy="200" r="4" fill="black" />
<circle cx="193.76502441079526" cy="200" r="4" fill="black" />
<circle cx="647.8383435354762" cy="200" r="4" fill="red" />
<circle cx="685.9312656439741" cy="200" r="6" fill="none" stroke="black" stroke-width="2" />
<circle cx="685.9312656439741" cy="200" r="3" fill="black" />
<circle cx="697.9312656439741" cy="200" r="6" fill="none" stroke="black" stroke-width="2" />
<circle cx="697.9312656439741" cy="200" r="3" fill="black" />
<circle cx="743.847116552254" cy="200" r="4" fill="green" />
<circle cx="755.847116552254" cy="200" r="4" fill="black" />
<circle cx="767.847116552254" cy="200" r="4" fill="black" />
<circle cx="779.847116552254" cy="200" r="4" fill="black" />
<circle cx="791.847116552254" cy="200" r="6" fill="none" stroke="black" stroke-width="2" />
<circle cx="791.847116552254" cy="200" r="3" fill="black" />
<circle cx="943.4174493816759" cy="200" r="4" fill="black" />
<circle cx="955.4174493816759" cy="200" r="6" fill="none" stroke="black" stroke-width="2" />
<circle cx="955.4174493816759" cy="200" r="3" fill="black" />
<text x="50" y="225" fill="gray" style="font-size:12px;">2025-02-21T22:33:43+00:00</text>
<text x="900" y="225" fill="gray" style="font-size:12px;">2025-02-25T16:13:51+00:00</text>
</svg>