<svg xmlns="http://www.w3.org/2000/svg" width="1000" height="200" style="background-color: white; font-family: sans-serif;">
<line x1="50" y1="100" x2="950" y2="100" stroke="gray" stroke-width="1"/>
<path d="M 195.87912212165713 100 Q 122.93956106082857 80, 50.0 100" stroke="black" fill="none" marker-end="url(#arrowhead)"/>
<path d="M 403.64415463328123 100 Q 226.82207731664062 80, 50.0 100" stroke="black" fill="none" marker-end="url(#arrowhead)"/>
<path d="M 403.64415463328123 100 Q 299.7616383774692 80, 195.87912212165713 100" stroke="black" fill="none" marker-end="url(#arrowhead)"/>
<path d="M 403.64415463328123 100 Q 308.8365500440474 80, 214.02894545481348 100" stroke="black" fill="none" marker-end="url(#arrowhead)"/>

<defs>
  <marker id="arrowhead" markerWidth="5" markerHeight="5" 
          refX="2" refY="2" orient="auto" fill="black">
    <path d="M0,0 L0,4 L4,2 z" />
  </marker>
</defs>

<circle cx="50.0" cy="100" r="6" fill="none" stroke="blue" stroke-width="2" />
<circle cx="50.0" cy="100" r="3" fill="blue" />
<circle cx="195.87912212165713" cy="100" r="6" fill="none" stroke="blue" stroke-width="2" />
<circle cx="195.87912212165713" cy="100" r="3" fill="blue" />
<circle cx="214.02894545481348" cy="100" r="4" fill="red" />
<circle cx="403.64415463328123" cy="100" r="6" fill="none" stroke="blue" stroke-width="2" />
<circle cx="403.64415463328123" cy="100" r="3" fill="blue" />
<circle cx="782.134939195549" cy="100" r="4" fill="red" />
<circle cx="950.0" cy="100" r="6" fill="none" stroke="black" stroke-width="2" />
<circle cx="950.0" cy="100" r="3" fill="black" />
<text x="50" y="125" fill="gray" style="font-size:12px;">2024-12-20T16:02:55+00:00</text>
<text x="900" y="125" fill="gray" style="font-size:12px;">2025-02-27T18:18:06+00:00</text>
</svg>