<svg xmlns="http://www.w3.org/2000/svg" width="1000" height="200" style="background-color: white; font-family: sans-serif;">
<line x1="50" y1="100" x2="950" y2="100" stroke="gray" stroke-width="1"/>
<path d="M 62.0 100 Q 56.0 80, 50.0 100" stroke="black" fill="none" marker-end="url(#arrowhead)"/>
<path d="M 74.0 100 Q 62.0 80, 50.0 100" stroke="black" fill="none" marker-end="url(#arrowhead)"/>
<path d="M 98.0 100 Q 92.0 80, 86.0 100" stroke="black" fill="none" marker-end="url(#arrowhead)"/>
<path d="M 110.0 100 Q 104.0 80, 98.0 100" stroke="black" fill="none" marker-end="url(#arrowhead)"/>
<path d="M 122.0 100 Q 110.0 80, 98.0 100" stroke="black" fill="none" marker-end="url(#arrowhead)"/>
<path d="M 122.0 100 Q 116.0 80, 110.0 100" stroke="black" fill="none" marker-end="url(#arrowhead)"/>
<path d="M 146.0 100 Q 140.0 80, 134.0 100" stroke="black" fill="none" marker-end="url(#arrowhead)"/>
<path d="M 158.0 100 Q 152.0 80, 146.0 100" stroke="black" fill="none" marker-end="url(#arrowhead)"/>
<path d="M 182.0 100 Q 176.0 80, 170.0 100" stroke="black" fill="none" marker-end="url(#arrowhead)"/>
<path d="M 194.0 100 Q 188.0 80, 182.0 100" stroke="black" fill="none" marker-end="url(#arrowhead)"/>
<path d="M 194.0 100 Q 182.0 80, 170.0 100" stroke="black" fill="none" marker-end="url(#arrowhead)"/>
<path d="M 194.0 100 Q 152.0 80, 110.0 100" stroke="black" fill="none" marker-end="url(#arrowhead)"/>
<path d="M 206.0 100 Q 200.0 80, 194.0 100" stroke="black" fill="none" marker-end="url(#arrowhead)"/>
<path d="M 218.0 100 Q 206.0 80, 194.0 100" stroke="black" fill="none" marker-end="url(#arrowhead)"/>
<path d="M 218.0 100 Q 212.0 80, 206.0 100" stroke="black" fill="none" marker-end="url(#arrowhead)"/>
<path d="M 230.0 100 Q 212.0 80, 194.0 100" stroke="black" fill="none" marker-end="url(#arrowhead)"/>
<path d="M 230.0 100 Q 218.0 80, 206.0 100" stroke="black" fill="none" marker-end="url(#arrowhead)"/>
<path d="M 230.0 100 Q 224.0 80, 218.0 100" stroke="black" fill="none" marker-end="url(#arrowhead)"/>
<path d="M 242.0 100 Q 230.0 80, 218.0 100" stroke="black" fill="none" marker-end="url(#arrowhead)"/>
<path d="M 242.0 100 Q 236.0 80, 230.0 100" stroke="black" fill="none" marker-end="url(#arrowhead)"/>
<path d="M 254.0 100 Q 248.0 80, 242.0 100" stroke="black" fill="none" marker-end="url(#arrowhead)"/>
<path d="M 266.0 100 Q 242.0 80, 218.0 100" stroke="black" fill="none" marker-end="url(#arrowhead)"/>
<path d="M 278.0 100 Q 272.0 80, 266.0 100" stroke="black" fill="none" marker-end="url(#arrowhead)"/>
<path d="M 290.0 100 Q 284.0 80, 278.0 100" stroke="black" fill="none" marker-end="url(#arrowhead)"/>
<path d="M 302.0 100 Q 284.0 80, 266.0 100" stroke="black" fill="none" marker-end="url(#arrowhead)"/>
<path d="M 302.0 100 Q 296.0 80, 290.0 100" stroke="black" fill="none" marker-end="url(#arrowhead)"/>
<path d="M 314.0 100 Q 308.0 80, 302.0 100" stroke="black" fill="none" marker-end="url(#arrowhead)"/>
<path d="M 326.0 100 Q 320.0 80, 314.0 100" stroke="black" fill="none" marker-end="url(#arrowhead)"/>
<path d="M 338.0 100 Q 332.0 80, 326.0 100" stroke="black" fill="none" marker-end="url(#arrowhead)"/>
<path d="M 698.4190889758394 100 Q 518.2095444879196 80, 338.0 100" stroke="black" fill="none" marker-end="url(#arrowhead)"/>
<path d="M 710.4190889758394 100 Q 398.2095444879197 80, 86.0 100" stroke="black" fill="none" marker-end="url(#arrowhead)"/>
<path d="M 710.4190889758394 100 Q 704.4190889758394 80, 698.4190889758394 100" stroke="black" fill="none" marker-end="url(#arrowhead)"/>
<path d="M 722.4190889758394 100 Q 710.4190889758394 80, 698.4190889758394 100" stroke="black" fill="none" marker-end="url(#arrowhead)"/>
<path d="M 746.4190889758394 100 Q 740.4190889758394 80, 734.4190889758394 100" stroke="black" fill="none" marker-end="url(#arrowhead)"/>
<path d="M 758.4190889758394 100 Q 752.4190889758394 80, 746.4190889758394 100" stroke="black" fill="none" marker-end="url(#arrowhead)"/>
<path d="M 770.4190889758394 100 Q 428.2095444879197 80, 86.0 100" stroke="black" fill="none" marker-end="url(#arrowhead)"/>
<path d="M 770.4190889758394 100 Q 740.4190889758394 80, 710.4190889758394 100" stroke="black" fill="none" marker-end="url(#arrowhead)"/>
<path d="M 770.4190889758394 100 Q 746.4190889758394 80, 722.4190889758394 100" stroke="black" fill="none" marker-end="url(#arrowhead)"/>
<path d="M 782.4190889758394 100 Q 560.2095444879196 80, 338.0 100" stroke="black" fill="none" marker-end="url(#arrowhead)"/>
<path d="M 830.4190889758394 100 Q 800.4190889758394 80, 770.4190889758394 100" stroke="black" fill="none" marker-end="url(#arrowhead)"/>
<path d="M 830.4190889758394 100 Q 776.4190889758394 80, 722.4190889758394 100" stroke="black" fill="none" marker-end="url(#arrowhead)"/>
<path d="M 842.4190889758394 100 Q 830.4190889758394 80, 818.4190889758394 100" stroke="black" fill="none" marker-end="url(#arrowhead)"/>
<path d="M 842.4190889758394 100 Q 800.4190889758394 80, 758.4190889758394 100" stroke="black" fill="none" marker-end="url(#arrowhead)"/>
<path d="M 854.4190889758394 100 Q 842.4190889758394 80, 830.4190889758394 100" stroke="black" fill="none" marker-end="url(#arrowhead)"/>
<path d="M 866.4190889758394 100 Q 806.4190889758394 80, 746.4190889758394 100" stroke="black" fill="none" marker-end="url(#arrowhead)"/>
<path d="M 866.4190889758394 100 Q 812.4190889758394 80, 758.4190889758394 100" stroke="black" fill="none" marker-end="url(#arrowhead)"/>
<path d="M 878.4190889758394 100 Q 872.4190889758394 80, 866.4190889758394 100" stroke="black" fill="none" marker-end="url(#arrowhead)"/>
<path d="M 890.4190889758394 100 Q 806.4190889758394 80, 722.4190889758394 100" stroke="black" fill="none" marker-end="url(#arrowhead)"/>
<path d="M 902.4190889758394 100 Q 854.4190889758394 80, 806.4190889758394 100" stroke="black" fill="none" marker-end="url(#arrowhead)"/>
<path d="M 914.4190889758394 100 Q 908.4190889758394 80, 902.4190889758394 100" stroke="black" fill="none" marker-end="url(#arrowhead)"/>
<path d="M 926.4190889758394 100 Q 920.4190889758394 80, 914.4190889758394 100" stroke="black" fill="none" marker-end="url(#arrowhead)"/>
<path d="M 950.4190889758394 100 Q 944.4190889758394 80, 938.4190889758394 100" stroke="black" fill="none" marker-end="url(#arrowhead)"/>
<path d="M 950.4190889758394 100 Q 854.4190889758394 80, 758.4190889758394 100" stroke="black" fill="none" marker-end="url(#arrowhead)"/>
<path d="M 962.4190889758394 100 Q 950.4190889758394 80, 938.4190889758394 100" stroke="black" fill="none" marker-end="url(#arrowhead)"/>
<path d="M 962.4190889758394 100 Q 956.4190889758394 80, 950.4190889758394 100" stroke="black" fill="none" marker-end="url(#arrowhead)"/>
<path d="M 962.4190889758394 100 Q 860.4190889758394 80, 758.4190889758394 100" stroke="black" fill="none" marker-end="url(#arrowhead)"/>
<path d="M 974.4190889758394 100 Q 956.4190889758394 80, 938.4190889758394 100" stroke="black" fill="none" marker-end="url(#arrowhead)"/>
<path d="M 974.4190889758394 100 Q 866.4190889758394 80, 758.4190889758394 100" stroke="black" fill="none" marker-end="url(#arrowhead)"/>
<path d="M 998.4190889758394 100 Q 542.2095444879196 80, 86.0 100" stroke="black" fill="none" marker-end="url(#arrowhead)"/>
<path d="M 998.4190889758394 100 Q 992.4190889758394 80, 986.4190889758394 100" stroke="black" fill="none" marker-end="url(#arrowhead)"/>
<path d="M 998.4190889758394 100 Q 962.4190889758394 80, 926.4190889758394 100" stroke="black" fill="none" marker-end="url(#arrowhead)"/>
<path d="M 1022.4190889758394 100 Q 1016.4190889758394 80, 1010.4190889758394 100" stroke="black" fill="none" marker-end="url(#arrowhead)"/>
<path d="M 1022.4190889758394 100 Q 890.4190889758394 80, 758.4190889758394 100" stroke="black" fill="none" marker-end="url(#arrowhead)"/>
<path d="M 1046.4190889758393 100 Q 1040.4190889758393 80, 1034.4190889758393 100" stroke="black" fill="none" marker-end="url(#arrowhead)"/>
<path d="M 1046.4190889758393 100 Q 902.4190889758393 80, 758.4190889758394 100" stroke="black" fill="none" marker-end="url(#arrowhead)"/>
<path d="M 1082.4190889758393 100 Q 1076.4190889758393 80, 1070.4190889758393 100" stroke="black" fill="none" marker-end="url(#arrowhead)"/>
<path d="M 1082.4190889758393 100 Q 1070.4190889758393 80, 1058.4190889758393 100" stroke="black" fill="none" marker-end="url(#arrowhead)"/>
<path d="M 1106.4190889758393 100 Q 1094.4190889758393 80, 1082.4190889758393 100" stroke="black" fill="none" marker-end="url(#arrowhead)"/>
<path d="M 1106.4190889758393 100 Q 1100.4190889758393 80, 1094.4190889758393 100" stroke="black" fill="none" marker-end="url(#arrowhead)"/>
<path d="M 1106.4190889758393 100 Q 596.2095444879196 80, 86.0 100" stroke="black" fill="none" marker-end="url(#arrowhead)"/>

<defs>
  <marker id="arrowhead" markerWidth="5" markerHeight="5" 
          refX="2" refY="2" orient="auto" fill="black">
    <path d="M0,0 L0,4 L4,2 z" />
  </marker>
</defs>

<circle cx="50.0" cy="100" r="6" fill="none" stroke="blue" stroke-width="2" />
<circle cx="50.0" cy="100" r="3" fill="blue" />
<circle cx="62.0" cy="100" r="4" fill="red" />
<circle cx="74.0" cy="100" r="4" fill="red" />
<circle cx="86.0" cy="100" r="4" fill="red" />
<circle cx="98.0" cy="100" r="4" fill="black" />
<circle cx="110.0" cy="100" r="6" fill="none" stroke="blue" stroke-width="2" />
<circle cx="110.0" cy="100" r="3" fill="blue" />
<circle cx="122.0" cy="100" r="4" fill="green" />
<circle cx="134.0" cy="100" r="4" fill="red" />
<circle cx="146.0" cy="100" r="4" fill="red" />
<circle cx="158.0" cy="100" r="6" fill="none" stroke="black" stroke-width="2" />
<circle cx="158.0" cy="100" r="3" fill="black" />
<circle cx="170.0" cy="100" r="4" fill="red" />
<circle cx="182.0" cy="100" r="6" fill="none" stroke="red" stroke-width="2" />
<circle cx="182.0" cy="100" r="3" fill="red" />
<circle cx="194.0" cy="100" r="4" fill="black" />
<circle cx="206.0" cy="100" r="6" fill="none" stroke="green" stroke-width="2" />
<circle cx="206.0" cy="100" r="3" fill="green" />
<circle cx="218.0" cy="100" r="6" fill="none" stroke="blue" stroke-width="2" />
<circle cx="218.0" cy="100" r="3" fill="blue" />
<circle cx="230.0" cy="100" r="4" fill="red" />
<circle cx="242.0" cy="100" r="6" fill="none" stroke="black" stroke-width="2" />
<circle cx="242.0" cy="100" r="3" fill="black" />
<circle cx="254.0" cy="100" r="6" fill="none" stroke="black" stroke-width="2" />
<circle cx="254.0" cy="100" r="3" fill="black" />
<circle cx="266.0" cy="100" r="4" fill="red" />
<circle cx="278.0" cy="100" r="6" fill="none" stroke="red" stroke-width="2" />
<circle cx="278.0" cy="100" r="3" fill="red" />
<circle cx="290.0" cy="100" r="4" fill="black" />
<circle cx="302.0" cy="100" r="4" fill="black" />
<circle cx="314.0" cy="100" r="6" fill="none" stroke="black" stroke-width="2" />
<circle cx="314.0" cy="100" r="3" fill="black" />
<circle cx="326.0" cy="100" r="4" fill="black" />
<circle cx="338.0" cy="100" r="6" fill="none" stroke="blue" stroke-width="2" />
<circle cx="338.0" cy="100" r="3" fill="blue" />
<circle cx="698.4190889758394" cy="100" r="4" fill="red" />
<circle cx="710.4190889758394" cy="100" r="6" fill="none" stroke="black" stroke-width="2" />
<circle cx="710.4190889758394" cy="100" r="3" fill="black" />
<circle cx="722.4190889758394" cy="100" r="4" fill="red" />
<circle cx="734.4190889758394" cy="100" r="4" fill="black" />
<circle cx="746.4190889758394" cy="100" r="6" fill="none" stroke="black" stroke-width="2" />
<circle cx="746.4190889758394" cy="100" r="3" fill="black" />
<circle cx="758.4190889758394" cy="100" r="4" fill="black" />
<circle cx="770.4190889758394" cy="100" r="6" fill="none" stroke="red" stroke-width="2" />
<circle cx="770.4190889758394" cy="100" r="3" fill="red" />
<circle cx="782.4190889758394" cy="100" r="6" fill="none" stroke="blue" stroke-width="2" />
<circle cx="782.4190889758394" cy="100" r="3" fill="blue" />
<circle cx="794.4190889758394" cy="100" r="4" fill="black" />
<circle cx="806.4190889758394" cy="100" r="4" fill="red" />
<circle cx="818.4190889758394" cy="100" r="4" fill="red" />
<circle cx="830.4190889758394" cy="100" r="4" fill="blue" />
<circle cx="842.4190889758394" cy="100" r="6" fill="none" stroke="blue" stroke-width="2" />
<circle cx="842.4190889758394" cy="100" r="3" fill="blue" />
<circle cx="854.4190889758394" cy="100" r="6" fill="none" stroke="blue" stroke-width="2" />
<circle cx="854.4190889758394" cy="100" r="3" fill="blue" />
<circle cx="866.4190889758394" cy="100" r="6" fill="none" stroke="blue" stroke-width="2" />
<circle cx="866.4190889758394" cy="100" r="3" fill="blue" />
<circle cx="878.4190889758394" cy="100" r="4" fill="red" />
<circle cx="890.4190889758394" cy="100" r="6" fill="none" stroke="blue" stroke-width="2" />
<circle cx="890.4190889758394" cy="100" r="3" fill="blue" />
<circle cx="902.4190889758394" cy="100" r="6" fill="none" stroke="blue" stroke-width="2" />
<circle cx="902.4190889758394" cy="100" r="3" fill="blue" />
<circle cx="914.4190889758394" cy="100" r="4" fill="red" />
<circle cx="926.4190889758394" cy="100" r="6" fill="none" stroke="blue" stroke-width="2" />
<circle cx="926.4190889758394" cy="100" r="3" fill="blue" />
<circle cx="938.4190889758394" cy="100" r="4" fill="red" />
<circle cx="950.4190889758394" cy="100" r="4" fill="red" />
<circle cx="962.4190889758394" cy="100" r="6" fill="none" stroke="black" stroke-width="2" />
<circle cx="962.4190889758394" cy="100" r="3" fill="black" />
<circle cx="974.4190889758394" cy="100" r="6" fill="none" stroke="black" stroke-width="2" />
<circle cx="974.4190889758394" cy="100" r="3" fill="black" />
<circle cx="986.4190889758394" cy="100" r="4" fill="red" />
<circle cx="998.4190889758394" cy="100" r="6" fill="none" stroke="red" stroke-width="2" />
<circle cx="998.4190889758394" cy="100" r="3" fill="red" />
<circle cx="1010.4190889758394" cy="100" r="4" fill="red" />
<circle cx="1022.4190889758394" cy="100" r="6" fill="none" stroke="black" stroke-width="2" />
<circle cx="1022.4190889758394" cy="100" r="3" fill="black" />
<circle cx="1034.4190889758393" cy="100" r="4" fill="red" />
<circle cx="1046.4190889758393" cy="100" r="6" fill="none" stroke="black" stroke-width="2" />
<circle cx="1046.4190889758393" cy="100" r="3" fill="black" />
<circle cx="1058.4190889758393" cy="100" r="4" fill="red" />
<circle cx="1070.4190889758393" cy="100" r="4" fill="red" />
<circle cx="1082.4190889758393" cy="100" r="6" fill="none" stroke="blue" stroke-width="2" />
<circle cx="1082.4190889758393" cy="100" r="3" fill="blue" />
<circle cx="1094.4190889758393" cy="100" r="4" fill="red" />
<circle cx="1106.4190889758393" cy="100" r="6" fill="none" stroke="red" stroke-width="2" />
<circle cx="1106.4190889758393" cy="100" r="3" fill="red" />
<text x="50" y="125" fill="gray" style="font-size:12px;">2024-05-01T15:12:09+00:00</text>
<text x="900" y="125" fill="gray" style="font-size:12px;">2025-02-07T02:42:47+00:00</text>
</svg>