<svg xmlns="http://www.w3.org/2000/svg" width="1000" height="400" style="background-color: white; font-family: sans-serif;">
<line x1="50" y1="200" x2="950" y2="200" stroke="gray" stroke-width="1"/>
<path d="M 550.8549362846231 200 Q 300.42746814231157 180, 50.0 200" stroke="black" fill="none" marker-end="url(#arrowhead)"/>
<path d="M 798.9095791760701 200 Q 674.8822577303466 180, 550.8549362846231 200" stroke="black" fill="none" marker-end="url(#arrowhead)"/>
<path d="M 822.9095791760701 200 Q 436.45478958803506 180, 50.0 200" stroke="black" fill="none" marker-end="url(#arrowhead)"/>
<path d="M 947.9700621475968 200 Q 885.4398206618334 180, 822.9095791760701 200" stroke="black" fill="none" marker-end="url(#arrowhead)"/>
<path d="M 959.9700621475968 200 Q 953.9700621475968 180, 947.9700621475968 200" stroke="black" fill="none" marker-end="url(#arrowhead)"/>

<defs>
  <marker id="arrowhead" markerWidth="5" markerHeight="5" 
          refX="2" refY="2" orient="auto" fill="black">
    <path d="M0,0 L0,4 L4,2 z" />
  </marker>
</defs>

<circle cx="50.0" cy="200" r="6" fill="none" stroke="blue" stroke-width="2" />
<circle cx="50.0" cy="200" r="3" fill="blue" />
<circle cx="550.8549362846231" cy="200" r="6" fill="none" stroke="blue" stroke-width="2" />
<circle cx="550.8549362846231" cy="200" r="3" fill="blue" />
<circle cx="798.9095791760701" cy="200" r="6" fill="none" stroke="blue" stroke-width="2" />
<circle cx="798.9095791760701" cy="200" r="3" fill="blue" />
<circle cx="810.9095791760701" cy="200" r="4" fill="red" />
<circle cx="822.9095791760701" cy="200" r="6" fill="none" stroke="black" stroke-width="2" />
<circle cx="822.9095791760701" cy="200" r="3" fill="black" />
<circle cx="834.9095791760701" cy="200" r="4" fill="green" />
<circle cx="947.9700621475968" cy="200" r="6" fill="none" stroke="green" stroke-width="2" />
<circle cx="947.9700621475968" cy="200" r="3" fill="green" />
<circle cx="959.9700621475968" cy="200" r="4" fill="green" />
<text x="50" y="225" fill="gray" style="font-size:12px;">2024-10-19T20:11:22+00:00</text>
<text x="900" y="225" fill="gray" style="font-size:12px;">2025-02-28T01:32:49+00:00</text>
</svg>