<svg xmlns="http://www.w3.org/2000/svg" width="1000" height="400" style="background-color: white; font-family: sans-serif;">
<line x1="50" y1="200" x2="950" y2="200" stroke="gray" stroke-width="1"/>
<path d="M 62.0 200 Q 56.0 180, 50.0 200" stroke="black" fill="none" marker-end="url(#arrowhead)"/>
<path d="M 74.0 200 Q 68.0 180, 62.0 200" stroke="black" fill="none" marker-end="url(#arrowhead)"/>
<path d="M 86.0 200 Q 74.0 180, 62.0 200" stroke="black" fill="none" marker-end="url(#arrowhead)"/>
<path d="M 98.0 200 Q 92.0 180, 86.0 200" stroke="black" fill="none" marker-end="url(#arrowhead)"/>
<path d="M 110.0 200 Q 104.0 180, 98.0 200" stroke="black" fill="none" marker-end="url(#arrowhead)"/>
<path d="M 122.0 200 Q 116.0 180, 110.0 200" stroke="black" fill="none" marker-end="url(#arrowhead)"/>
<path d="M 804.7734805866809 200 Q 463.38674029334044 180, 122.0 200" stroke="black" fill="none" marker-end="url(#arrowhead)"/>
<path d="M 818.807625378645 200 Q 811.7905529826629 180, 804.7734805866809 200" stroke="black" fill="none" marker-end="url(#arrowhead)"/>
<path d="M 949.4990838865308 200 Q 884.1533546325879 180, 818.807625378645 200" stroke="black" fill="none" marker-end="url(#arrowhead)"/>
<path d="M 961.4990838865308 200 Q 955.4990838865308 180, 949.4990838865308 200" stroke="black" fill="none" marker-end="url(#arrowhead)"/>

<defs>
  <marker id="arrowhead" markerWidth="5" markerHeight="5" 
          refX="2" refY="2" orient="auto" fill="black">
    <path d="M0,0 L0,4 L4,2 z" />
  </marker>
</defs>

<circle cx="50.0" cy="200" r="6" fill="none" stroke="blue" stroke-width="2" />
<circle cx="50.0" cy="200" r="3" fill="blue" />
<circle cx="62.0" cy="200" r="4" fill="red" />
<circle cx="74.0" cy="200" r="4" fill="green" />
<circle cx="86.0" cy="200" r="4" fill="green" />
<circle cx="98.0" cy="200" r="6" fill="none" stroke="blue" stroke-width="2" />
<circle cx="98.0" cy="200" r="3" fill="blue" />
<circle cx="110.0" cy="200" r="4" fill="red" />
<circle cx="122.0" cy="200" r="6" fill="none" stroke="blue" stroke-width="2" />
<circle cx="122.0" cy="200" r="3" fill="blue" />
<circle cx="804.7734805866809" cy="200" r="6" fill="none" stroke="blue" stroke-width="2" />
<circle cx="804.7734805866809" cy="200" r="3" fill="blue" />
<circle cx="818.807625378645" cy="200" r="4" fill="red" />
<circle cx="949.4990838865308" cy="200" r="6" fill="none" stroke="blue" stroke-width="2" />
<circle cx="949.4990838865308" cy="200" r="3" fill="blue" />
<circle cx="961.4990838865308" cy="200" r="6" fill="none" stroke="blue" stroke-width="2" />
<circle cx="961.4990838865308" cy="200" r="3" fill="blue" />
<text x="50" y="225" fill="gray" style="font-size:12px;">2025-01-08T23:32:57+00:00</text>
<text x="900" y="225" fill="gray" style="font-size:12px;">2025-02-28T06:20:17+00:00</text>
</svg>