<svg xmlns="http://www.w3.org/2000/svg" width="1000" height="200" style="background-color: white; font-family: sans-serif;">
<line x1="50" y1="100" x2="950" y2="100" stroke="gray" stroke-width="1"/>
<path d="M 949.0343686100181 100 Q 910.872687622244 80, 872.7110066344701 100" stroke="black" fill="none" marker-end="url(#arrowhead)"/>
<path d="M 949.0343686100181 100 Q 499.51718430500904 80, 50.0 100" stroke="black" fill="none" marker-end="url(#arrowhead)"/>
<path d="M 961.0343686100181 100 Q 916.872687622244 80, 872.7110066344701 100" stroke="black" fill="none" marker-end="url(#arrowhead)"/>
<path d="M 961.0343686100181 100 Q 955.0343686100181 80, 949.0343686100181 100" stroke="black" fill="none" marker-end="url(#arrowhead)"/>
<path d="M 973.0343686100181 100 Q 922.872687622244 80, 872.7110066344701 100" stroke="black" fill="none" marker-end="url(#arrowhead)"/>
<path d="M 973.0343686100181 100 Q 961.0343686100181 80, 949.0343686100181 100" stroke="black" fill="none" marker-end="url(#arrowhead)"/>
<path d="M 973.0343686100181 100 Q 967.0343686100181 80, 961.0343686100181 100" stroke="black" fill="none" marker-end="url(#arrowhead)"/>

<defs>
  <marker id="arrowhead" markerWidth="5" markerHeight="5" 
          refX="2" refY="2" orient="auto" fill="black">
    <path d="M0,0 L0,4 L4,2 z" />
  </marker>
</defs>

<circle cx="50.0" cy="100" r="6" fill="none" stroke="blue" stroke-width="2" />
<circle cx="50.0" cy="100" r="3" fill="blue" />
<circle cx="872.7110066344701" cy="100" r="4" fill="red" />
<circle cx="949.0343686100181" cy="100" r="6" fill="none" stroke="blue" stroke-width="2" />
<circle cx="949.0343686100181" cy="100" r="3" fill="blue" />
<circle cx="961.0343686100181" cy="100" r="6" fill="none" stroke="blue" stroke-width="2" />
<circle cx="961.0343686100181" cy="100" r="3" fill="blue" />
<circle cx="973.0343686100181" cy="100" r="6" fill="none" stroke="blue" stroke-width="2" />
<circle cx="973.0343686100181" cy="100" r="3" fill="blue" />
<text x="50" y="125" fill="gray" style="font-size:12px;">2024-11-20T15:51:12+00:00</text>
<text x="900" y="125" fill="gray" style="font-size:12px;">2025-02-24T18:06:59+00:00</text>
</svg>