<svg xmlns="http://www.w3.org/2000/svg" width="1000" height="200" style="background-color: white; font-family: sans-serif;">
<line x1="50" y1="100" x2="950" y2="100" stroke="gray" stroke-width="1"/>
<path d="M 74.0 100 Q 68.0 80, 62.0 100" stroke="black" fill="none" marker-end="url(#arrowhead)"/>
<path d="M 156.73768642177026 100 Q 103.36884321088513 80, 50.0 100" stroke="black" fill="none" marker-end="url(#arrowhead)"/>
<path d="M 156.73768642177026 100 Q 109.36884321088513 80, 62.0 100" stroke="black" fill="none" marker-end="url(#arrowhead)"/>
<path d="M 392.6300641253247 100 Q 221.31503206266234 80, 50.0 100" stroke="black" fill="none" marker-end="url(#arrowhead)"/>
<path d="M 950.0 100 Q 671.3150320626623 80, 392.6300641253247 100" stroke="black" fill="none" marker-end="url(#arrowhead)"/>

<defs>
  <marker id="arrowhead" markerWidth="5" markerHeight="5" 
          refX="2" refY="2" orient="auto" fill="black">
    <path d="M0,0 L0,4 L4,2 z" />
  </marker>
</defs>

<circle cx="50.0" cy="100" r="6" fill="none" stroke="blue" stroke-width="2" />
<circle cx="50.0" cy="100" r="3" fill="blue" />
<circle cx="62.0" cy="100" r="4" fill="red" />
<circle cx="74.0" cy="100" r="4" fill="black" />
<circle cx="156.73768642177026" cy="100" r="6" fill="none" stroke="black" stroke-width="2" />
<circle cx="156.73768642177026" cy="100" r="3" fill="black" />
<circle cx="392.6300641253247" cy="100" r="4" fill="red" />
<circle cx="950.0" cy="100" r="6" fill="none" stroke="red" stroke-width="2" />
<circle cx="950.0" cy="100" r="3" fill="red" />
<text x="50" y="125" fill="gray" style="font-size:12px;">2024-12-05T09:43:41+00:00</text>
<text x="900" y="125" fill="gray" style="font-size:12px;">2025-01-08T12:49:38+00:00</text>
</svg>