<svg xmlns="http://www.w3.org/2000/svg" width="1000" height="200" style="background-color: white; font-family: sans-serif;">
<line x1="50" y1="100" x2="950" y2="100" stroke="gray" stroke-width="1"/>
<path d="M 321.0928633034716 100 Q 185.5464316517358 80, 50.0 100" stroke="black" fill="none" marker-end="url(#arrowhead)"/>
<path d="M 494.21199144210664 100 Q 407.65242737278913 80, 321.0928633034716 100" stroke="black" fill="none" marker-end="url(#arrowhead)"/>
<path d="M 622.3602674514866 100 Q 558.2861294467966 80, 494.21199144210664 100" stroke="black" fill="none" marker-end="url(#arrowhead)"/>
<path d="M 808.2982238792011 100 Q 715.3292456653439 80, 622.3602674514866 100" stroke="black" fill="none" marker-end="url(#arrowhead)"/>
<path d="M 820.2982238792011 100 Q 657.255107660654 80, 494.21199144210664 100" stroke="black" fill="none" marker-end="url(#arrowhead)"/>
<path d="M 820.2982238792011 100 Q 814.2982238792011 80, 808.2982238792011 100" stroke="black" fill="none" marker-end="url(#arrowhead)"/>
<path d="M 832.2982238792011 100 Q 826.2982238792011 80, 820.2982238792011 100" stroke="black" fill="none" marker-end="url(#arrowhead)"/>
<path d="M 891.8783144229137 100 Q 856.0882691510574 80, 820.2982238792011 100" stroke="black" fill="none" marker-end="url(#arrowhead)"/>
<path d="M 903.8783144229137 100 Q 868.0882691510574 80, 832.2982238792011 100" stroke="black" fill="none" marker-end="url(#arrowhead)"/>
<path d="M 915.8783144229137 100 Q 903.8783144229137 80, 891.8783144229137 100" stroke="black" fill="none" marker-end="url(#arrowhead)"/>
<path d="M 927.8783144229137 100 Q 921.8783144229137 80, 915.8783144229137 100" stroke="black" fill="none" marker-end="url(#arrowhead)"/>
<path d="M 939.8783144229137 100 Q 933.8783144229137 80, 927.8783144229137 100" stroke="black" fill="none" marker-end="url(#arrowhead)"/>
<path d="M 951.8783144229137 100 Q 723.0451529325102 80, 494.21199144210664 100" stroke="black" fill="none" marker-end="url(#arrowhead)"/>
<path d="M 951.8783144229137 100 Q 927.8783144229137 80, 903.8783144229137 100" stroke="black" fill="none" marker-end="url(#arrowhead)"/>
<path d="M 963.8783144229137 100 Q 951.8783144229137 80, 939.8783144229137 100" stroke="black" fill="none" marker-end="url(#arrowhead)"/>
<path d="M 975.8783144229137 100 Q 735.0451529325102 80, 494.21199144210664 100" stroke="black" fill="none" marker-end="url(#arrowhead)"/>
<path d="M 975.8783144229137 100 Q 969.8783144229137 80, 963.8783144229137 100" stroke="black" fill="none" marker-end="url(#arrowhead)"/>
<path d="M 987.8783144229137 100 Q 939.8783144229137 80, 891.8783144229137 100" stroke="black" fill="none" marker-end="url(#arrowhead)"/>

<defs>
  <marker id="arrowhead" markerWidth="5" markerHeight="5" 
          refX="2" refY="2" orient="auto" fill="black">
    <path d="M0,0 L0,4 L4,2 z" />
  </marker>
</defs>

<circle cx="50.0" cy="100" r="6" fill="none" stroke="blue" stroke-width="2" />
<circle cx="50.0" cy="100" r="3" fill="blue" />
<circle cx="321.0928633034716" cy="100" r="4" fill="red" />
<circle cx="494.21199144210664" cy="100" r="6" fill="none" stroke="blue" stroke-width="2" />
<circle cx="494.21199144210664" cy="100" r="3" fill="blue" />
<circle cx="622.3602674514866" cy="100" r="4" fill="black" />
<circle cx="808.2982238792011" cy="100" r="6" fill="none" stroke="blue" stroke-width="2" />
<circle cx="808.2982238792011" cy="100" r="3" fill="blue" />
<circle cx="820.2982238792011" cy="100" r="4" fill="red" />
<circle cx="832.2982238792011" cy="100" r="4" fill="black" />
<circle cx="891.8783144229137" cy="100" r="6" fill="none" stroke="blue" stroke-width="2" />
<circle cx="891.8783144229137" cy="100" r="3" fill="blue" />
<circle cx="903.8783144229137" cy="100" r="6" fill="none" stroke="black" stroke-width="2" />
<circle cx="903.8783144229137" cy="100" r="3" fill="black" />
<circle cx="915.8783144229137" cy="100" r="4" fill="black" />
<circle cx="927.8783144229137" cy="100" r="6" fill="none" stroke="blue" stroke-width="2" />
<circle cx="927.8783144229137" cy="100" r="3" fill="blue" />
<circle cx="939.8783144229137" cy="100" r="4" fill="blue" />
<circle cx="951.8783144229137" cy="100" r="4" fill="black" />
<circle cx="963.8783144229137" cy="100" r="6" fill="none" stroke="blue" stroke-width="2" />
<circle cx="963.8783144229137" cy="100" r="3" fill="blue" />
<circle cx="975.8783144229137" cy="100" r="4" fill="red" />
<circle cx="987.8783144229137" cy="100" r="4" fill="black" />
<text x="50" y="125" fill="gray" style="font-size:12px;">2025-02-07T14:32:43+00:00</text>
<text x="900" y="125" fill="gray" style="font-size:12px;">2025-02-27T15:42:45+00:00</text>
</svg>