<svg xmlns="http://www.w3.org/2000/svg" width="1000" height="200" style="background-color: white; font-family: sans-serif;">
<line x1="50" y1="100" x2="950" y2="100" stroke="gray" stroke-width="1"/>
<path d="M 62.0 100 Q 56.0 80, 50.0 100" stroke="black" fill="none" marker-end="url(#arrowhead)"/>
<path d="M 350.83148305995144 100 Q 200.41574152997572 80, 50.0 100" stroke="black" fill="none" marker-end="url(#arrowhead)"/>
<path d="M 350.83148305995144 100 Q 206.41574152997572 80, 62.0 100" stroke="black" fill="none" marker-end="url(#arrowhead)"/>
<path d="M 364.13211415660084 100 Q 357.4817986082761 80, 350.83148305995144 100" stroke="black" fill="none" marker-end="url(#arrowhead)"/>
<path d="M 739.7761282273802 100 Q 618.5800930792848 80, 497.3840579311894 100" stroke="black" fill="none" marker-end="url(#arrowhead)"/>
<path d="M 767.024695567914 100 Q 408.512347783957 80, 50.0 100" stroke="black" fill="none" marker-end="url(#arrowhead)"/>
<path d="M 950.0 100 Q 858.512347783957 80, 767.024695567914 100" stroke="black" fill="none" marker-end="url(#arrowhead)"/>

<defs>
  <marker id="arrowhead" markerWidth="5" markerHeight="5" 
          refX="2" refY="2" orient="auto" fill="black">
    <path d="M0,0 L0,4 L4,2 z" />
  </marker>
</defs>

<circle cx="50.0" cy="100" r="6" fill="none" stroke="blue" stroke-width="2" />
<circle cx="50.0" cy="100" r="3" fill="blue" />
<circle cx="62.0" cy="100" r="6" fill="none" stroke="blue" stroke-width="2" />
<circle cx="62.0" cy="100" r="3" fill="blue" />
<circle cx="350.83148305995144" cy="100" r="4" fill="black" />
<circle cx="364.13211415660084" cy="100" r="6" fill="none" stroke="blue" stroke-width="2" />
<circle cx="364.13211415660084" cy="100" r="3" fill="blue" />
<circle cx="497.3840579311894" cy="100" r="6" fill="none" stroke="blue" stroke-width="2" />
<circle cx="497.3840579311894" cy="100" r="3" fill="blue" />
<circle cx="739.7761282273802" cy="100" r="4" fill="red" />
<circle cx="767.024695567914" cy="100" r="4" fill="red" />
<circle cx="950.0" cy="100" r="6" fill="none" stroke="black" stroke-width="2" />
<circle cx="950.0" cy="100" r="3" fill="black" />
<text x="50" y="125" fill="gray" style="font-size:12px;">2023-07-25T07:39:58+00:00</text>
<text x="900" y="125" fill="gray" style="font-size:12px;">2025-01-14T10:41:42+00:00</text>
</svg>