<svg xmlns="http://www.w3.org/2000/svg" width="1000" height="200" style="background-color: white; font-family: sans-serif;">
<line x1="50" y1="100" x2="950" y2="100" stroke="gray" stroke-width="1"/>
<path d="M 62.0 100 Q 56.0 80, 50.0 100" stroke="black" fill="none" marker-end="url(#arrowhead)"/>
<path d="M 74.0 100 Q 68.0 80, 62.0 100" stroke="black" fill="none" marker-end="url(#arrowhead)"/>
<path d="M 86.0 100 Q 80.0 80, 74.0 100" stroke="black" fill="none" marker-end="url(#arrowhead)"/>
<path d="M 98.0 100 Q 92.0 80, 86.0 100" stroke="black" fill="none" marker-end="url(#arrowhead)"/>
<path d="M 328.35435656036765 100 Q 295.2828591560409 80, 262.21136175171415 100" stroke="black" fill="none" marker-end="url(#arrowhead)"/>
<path d="M 383.5227866060751 100 Q 355.93857158322135 80, 328.35435656036765 100" stroke="black" fill="none" marker-end="url(#arrowhead)"/>
<path d="M 395.5227866060751 100 Q 361.93857158322135 80, 328.35435656036765 100" stroke="black" fill="none" marker-end="url(#arrowhead)"/>
<path d="M 395.5227866060751 100 Q 389.5227866060751 80, 383.5227866060751 100" stroke="black" fill="none" marker-end="url(#arrowhead)"/>
<path d="M 395.5227866060751 100 Q 222.76139330303755 80, 50.0 100" stroke="black" fill="none" marker-end="url(#arrowhead)"/>
<path d="M 419.5227866060751 100 Q 407.5227866060751 80, 395.5227866060751 100" stroke="black" fill="none" marker-end="url(#arrowhead)"/>
<path d="M 419.5227866060751 100 Q 413.5227866060751 80, 407.5227866060751 100" stroke="black" fill="none" marker-end="url(#arrowhead)"/>
<path d="M 518.4336931977814 100 Q 511.6039004113901 80, 504.7741076249988 100" stroke="black" fill="none" marker-end="url(#arrowhead)"/>
<path d="M 530.4336931977814 100 Q 524.4336931977814 80, 518.4336931977814 100" stroke="black" fill="none" marker-end="url(#arrowhead)"/>
<path d="M 542.4336931977814 100 Q 530.4336931977814 80, 518.4336931977814 100" stroke="black" fill="none" marker-end="url(#arrowhead)"/>
<path d="M 554.4336931977814 100 Q 548.4336931977814 80, 542.4336931977814 100" stroke="black" fill="none" marker-end="url(#arrowhead)"/>
<path d="M 566.4336931977814 100 Q 548.4336931977814 80, 530.4336931977814 100" stroke="black" fill="none" marker-end="url(#arrowhead)"/>
<path d="M 578.4336931977814 100 Q 560.4336931977814 80, 542.4336931977814 100" stroke="black" fill="none" marker-end="url(#arrowhead)"/>
<path d="M 590.4336931977814 100 Q 572.4336931977814 80, 554.4336931977814 100" stroke="black" fill="none" marker-end="url(#arrowhead)"/>
<path d="M 602.4336931977814 100 Q 596.4336931977814 80, 590.4336931977814 100" stroke="black" fill="none" marker-end="url(#arrowhead)"/>
<path d="M 614.4336931977814 100 Q 602.4336931977814 80, 590.4336931977814 100" stroke="black" fill="none" marker-end="url(#arrowhead)"/>
<path d="M 626.4336931977814 100 Q 596.4336931977814 80, 566.4336931977814 100" stroke="black" fill="none" marker-end="url(#arrowhead)"/>
<path d="M 638.4336931977814 100 Q 626.4336931977814 80, 614.4336931977814 100" stroke="black" fill="none" marker-end="url(#arrowhead)"/>
<path d="M 650.4336931977814 100 Q 584.4336931977814 80, 518.4336931977814 100" stroke="black" fill="none" marker-end="url(#arrowhead)"/>
<path d="M 662.4336931977814 100 Q 590.4336931977814 80, 518.4336931977814 100" stroke="black" fill="none" marker-end="url(#arrowhead)"/>
<path d="M 674.4336931977814 100 Q 596.4336931977814 80, 518.4336931977814 100" stroke="black" fill="none" marker-end="url(#arrowhead)"/>
<path d="M 686.4336931977814 100 Q 668.4336931977814 80, 650.4336931977814 100" stroke="black" fill="none" marker-end="url(#arrowhead)"/>
<path d="M 686.4336931977814 100 Q 602.4336931977814 80, 518.4336931977814 100" stroke="black" fill="none" marker-end="url(#arrowhead)"/>
<path d="M 686.4336931977814 100 Q 614.4336931977814 80, 542.4336931977814 100" stroke="black" fill="none" marker-end="url(#arrowhead)"/>
<path d="M 698.4336931977814 100 Q 626.4336931977814 80, 554.4336931977814 100" stroke="black" fill="none" marker-end="url(#arrowhead)"/>
<path d="M 710.4336931977814 100 Q 686.4336931977814 80, 662.4336931977814 100" stroke="black" fill="none" marker-end="url(#arrowhead)"/>
<path d="M 722.4336931977814 100 Q 698.4336931977814 80, 674.4336931977814 100" stroke="black" fill="none" marker-end="url(#arrowhead)"/>
<path d="M 746.4336931977814 100 Q 722.4336931977814 80, 698.4336931977814 100" stroke="black" fill="none" marker-end="url(#arrowhead)"/>
<path d="M 758.4336931977814 100 Q 752.4336931977814 80, 746.4336931977814 100" stroke="black" fill="none" marker-end="url(#arrowhead)"/>
<path d="M 770.4336931977814 100 Q 764.4336931977814 80, 758.4336931977814 100" stroke="black" fill="none" marker-end="url(#arrowhead)"/>
<path d="M 782.4336931977814 100 Q 770.4336931977814 80, 758.4336931977814 100" stroke="black" fill="none" marker-end="url(#arrowhead)"/>
<path d="M 806.4336931977814 100 Q 794.4336931977814 80, 782.4336931977814 100" stroke="black" fill="none" marker-end="url(#arrowhead)"/>
<path d="M 818.4336931977814 100 Q 806.4336931977814 80, 794.4336931977814 100" stroke="black" fill="none" marker-end="url(#arrowhead)"/>
<path d="M 830.4336931977814 100 Q 776.4336931977814 80, 722.4336931977814 100" stroke="black" fill="none" marker-end="url(#arrowhead)"/>
<path d="M 842.4336931977814 100 Q 770.4336931977814 80, 698.4336931977814 100" stroke="black" fill="none" marker-end="url(#arrowhead)"/>
<path d="M 854.4336931977814 100 Q 812.4336931977814 80, 770.4336931977814 100" stroke="black" fill="none" marker-end="url(#arrowhead)"/>
<path d="M 866.4336931977814 100 Q 842.4336931977814 80, 818.4336931977814 100" stroke="black" fill="none" marker-end="url(#arrowhead)"/>
<path d="M 878.4336931977814 100 Q 842.4336931977814 80, 806.4336931977814 100" stroke="black" fill="none" marker-end="url(#arrowhead)"/>
<path d="M 902.4336931977814 100 Q 866.4336931977814 80, 830.4336931977814 100" stroke="black" fill="none" marker-end="url(#arrowhead)"/>
<path d="M 914.4336931977814 100 Q 878.4336931977814 80, 842.4336931977814 100" stroke="black" fill="none" marker-end="url(#arrowhead)"/>
<path d="M 926.4336931977814 100 Q 896.4336931977814 80, 866.4336931977814 100" stroke="black" fill="none" marker-end="url(#arrowhead)"/>
<path d="M 938.4336931977814 100 Q 914.4336931977814 80, 890.4336931977814 100" stroke="black" fill="none" marker-end="url(#arrowhead)"/>
<path d="M 950.4336931977814 100 Q 938.4336931977814 80, 926.4336931977814 100" stroke="black" fill="none" marker-end="url(#arrowhead)"/>
<path d="M 962.4336931977814 100 Q 764.4336931977814 80, 566.4336931977814 100" stroke="black" fill="none" marker-end="url(#arrowhead)"/>
<path d="M 974.4336931977814 100 Q 962.4336931977814 80, 950.4336931977814 100" stroke="black" fill="none" marker-end="url(#arrowhead)"/>
<path d="M 986.4336931977814 100 Q 980.4336931977814 80, 974.4336931977814 100" stroke="black" fill="none" marker-end="url(#arrowhead)"/>
<path d="M 998.4336931977814 100 Q 992.4336931977814 80, 986.4336931977814 100" stroke="black" fill="none" marker-end="url(#arrowhead)"/>
<path d="M 1010.4336931977814 100 Q 1004.4336931977814 80, 998.4336931977814 100" stroke="black" fill="none" marker-end="url(#arrowhead)"/>
<path d="M 1022.4336931977814 100 Q 1016.4336931977814 80, 1010.4336931977814 100" stroke="black" fill="none" marker-end="url(#arrowhead)"/>
<path d="M 1034.4336931977814 100 Q 1016.4336931977814 80, 998.4336931977814 100" stroke="black" fill="none" marker-end="url(#arrowhead)"/>
<path d="M 1046.4336931977814 100 Q 1028.4336931977814 80, 1010.4336931977814 100" stroke="black" fill="none" marker-end="url(#arrowhead)"/>
<path d="M 1046.4336931977814 100 Q 1040.4336931977814 80, 1034.4336931977814 100" stroke="black" fill="none" marker-end="url(#arrowhead)"/>
<path d="M 1058.4336931977814 100 Q 986.4336931977814 80, 914.4336931977814 100" stroke="black" fill="none" marker-end="url(#arrowhead)"/>
<path d="M 1070.4336931977814 100 Q 1064.4336931977814 80, 1058.4336931977814 100" stroke="black" fill="none" marker-end="url(#arrowhead)"/>
<path d="M 1094.4336931977814 100 Q 944.4336931977814 80, 794.4336931977814 100" stroke="black" fill="none" marker-end="url(#arrowhead)"/>
<path d="M 1094.4336931977814 100 Q 1088.4336931977814 80, 1082.4336931977814 100" stroke="black" fill="none" marker-end="url(#arrowhead)"/>
<path d="M 1106.4336931977814 100 Q 1088.4336931977814 80, 1070.4336931977814 100" stroke="black" fill="none" marker-end="url(#arrowhead)"/>
<path d="M 1118.4336931977814 100 Q 1112.4336931977814 80, 1106.4336931977814 100" stroke="black" fill="none" marker-end="url(#arrowhead)"/>
<path d="M 1130.4336931977814 100 Q 1124.4336931977814 80, 1118.4336931977814 100" stroke="black" fill="none" marker-end="url(#arrowhead)"/>
<path d="M 1142.4336931977814 100 Q 1136.4336931977814 80, 1130.4336931977814 100" stroke="black" fill="none" marker-end="url(#arrowhead)"/>
<path d="M 1142.4336931977814 100 Q 950.4336931977814 80, 758.4336931977814 100" stroke="black" fill="none" marker-end="url(#arrowhead)"/>
<path d="M 1154.4336931977814 100 Q 1148.4336931977814 80, 1142.4336931977814 100" stroke="black" fill="none" marker-end="url(#arrowhead)"/>
<path d="M 1166.4336931977814 100 Q 1160.4336931977814 80, 1154.4336931977814 100" stroke="black" fill="none" marker-end="url(#arrowhead)"/>
<path d="M 1178.4336931977814 100 Q 792.9782399019282 80, 407.5227866060751 100" stroke="black" fill="none" marker-end="url(#arrowhead)"/>
<path d="M 1178.4336931977814 100 Q 1172.4336931977814 80, 1166.4336931977814 100" stroke="black" fill="none" marker-end="url(#arrowhead)"/>
<path d="M 1190.4336931977814 100 Q 1172.4336931977814 80, 1154.4336931977814 100" stroke="black" fill="none" marker-end="url(#arrowhead)"/>
<path d="M 1202.4336931977814 100 Q 1196.4336931977814 80, 1190.4336931977814 100" stroke="black" fill="none" marker-end="url(#arrowhead)"/>
<path d="M 1214.4336931977814 100 Q 1208.4336931977814 80, 1202.4336931977814 100" stroke="black" fill="none" marker-end="url(#arrowhead)"/>
<path d="M 1226.4336931977814 100 Q 1220.4336931977814 80, 1214.4336931977814 100" stroke="black" fill="none" marker-end="url(#arrowhead)"/>
<path d="M 1238.4336931977814 100 Q 1232.4336931977814 80, 1226.4336931977814 100" stroke="black" fill="none" marker-end="url(#arrowhead)"/>
<path d="M 1250.4336931977814 100 Q 1232.4336931977814 80, 1214.4336931977814 100" stroke="black" fill="none" marker-end="url(#arrowhead)"/>
<path d="M 1262.4336931977814 100 Q 1244.4336931977814 80, 1226.4336931977814 100" stroke="black" fill="none" marker-end="url(#arrowhead)"/>
<path d="M 1274.4336931977814 100 Q 1262.4336931977814 80, 1250.4336931977814 100" stroke="black" fill="none" marker-end="url(#arrowhead)"/>
<path d="M 1286.4336931977814 100 Q 1280.4336931977814 80, 1274.4336931977814 100" stroke="black" fill="none" marker-end="url(#arrowhead)"/>
<path d="M 1298.4336931977814 100 Q 1292.4336931977814 80, 1286.4336931977814 100" stroke="black" fill="none" marker-end="url(#arrowhead)"/>

<defs>
  <marker id="arrowhead" markerWidth="5" markerHeight="5" 
          refX="2" refY="2" orient="auto" fill="black">
    <path d="M0,0 L0,4 L4,2 z" />
  </marker>
</defs>

<circle cx="50.0" cy="100" r="6" fill="none" stroke="blue" stroke-width="2" />
<circle cx="50.0" cy="100" r="3" fill="blue" />
<circle cx="62.0" cy="100" r="4" fill="black" />
<circle cx="74.0" cy="100" r="6" fill="none" stroke="blue" stroke-width="2" />
<circle cx="74.0" cy="100" r="3" fill="blue" />
<circle cx="86.0" cy="100" r="6" fill="none" stroke="blue" stroke-width="2" />
<circle cx="86.0" cy="100" r="3" fill="blue" />
<circle cx="98.0" cy="100" r="6" fill="none" stroke="blue" stroke-width="2" />
<circle cx="98.0" cy="100" r="3" fill="blue" />
<circle cx="152.12956013392989" cy="100" r="6" fill="none" stroke="blue" stroke-width="2" />
<circle cx="152.12956013392989" cy="100" r="3" fill="blue" />
<circle cx="206.6131765217319" cy="100" r="6" fill="none" stroke="blue" stroke-width="2" />
<circle cx="206.6131765217319" cy="100" r="3" fill="blue" />
<circle cx="262.21136175171415" cy="100" r="6" fill="none" stroke="blue" stroke-width="2" />
<circle cx="262.21136175171415" cy="100" r="3" fill="blue" />
<circle cx="328.35435656036765" cy="100" r="6" fill="none" stroke="blue" stroke-width="2" />
<circle cx="328.35435656036765" cy="100" r="3" fill="blue" />
<circle cx="383.5227866060751" cy="100" r="6" fill="none" stroke="blue" stroke-width="2" />
<circle cx="383.5227866060751" cy="100" r="3" fill="blue" />
<circle cx="395.5227866060751" cy="100" r="4" fill="black" />
<circle cx="407.5227866060751" cy="100" r="6" fill="none" stroke="black" stroke-width="2" />
<circle cx="407.5227866060751" cy="100" r="3" fill="black" />
<circle cx="419.5227866060751" cy="100" r="4" fill="black" />
<circle cx="504.7741076249988" cy="100" r="6" fill="none" stroke="blue" stroke-width="2" />
<circle cx="504.7741076249988" cy="100" r="3" fill="blue" />
<circle cx="518.4336931977814" cy="100" r="6" fill="none" stroke="blue" stroke-width="2" />
<circle cx="518.4336931977814" cy="100" r="3" fill="blue" />
<circle cx="530.4336931977814" cy="100" r="4" fill="red" />
<circle cx="542.4336931977814" cy="100" r="4" fill="black" />
<circle cx="554.4336931977814" cy="100" r="4" fill="red" />
<circle cx="566.4336931977814" cy="100" r="6" fill="none" stroke="red" stroke-width="2" />
<circle cx="566.4336931977814" cy="100" r="3" fill="red" />
<circle cx="578.4336931977814" cy="100" r="6" fill="none" stroke="black" stroke-width="2" />
<circle cx="578.4336931977814" cy="100" r="3" fill="black" />
<circle cx="590.4336931977814" cy="100" r="6" fill="none" stroke="black" stroke-width="2" />
<circle cx="590.4336931977814" cy="100" r="3" fill="black" />
<circle cx="602.4336931977814" cy="100" r="4" fill="black" />
<circle cx="614.4336931977814" cy="100" r="4" fill="black" />
<circle cx="626.4336931977814" cy="100" r="4" fill="black" />
<circle cx="638.4336931977814" cy="100" r="4" fill="black" />
<circle cx="650.4336931977814" cy="100" r="4" fill="black" />
<circle cx="662.4336931977814" cy="100" r="4" fill="red" />
<circle cx="674.4336931977814" cy="100" r="4" fill="red" />
<circle cx="686.4336931977814" cy="100" r="4" fill="red" />
<circle cx="698.4336931977814" cy="100" r="6" fill="none" stroke="black" stroke-width="2" />
<circle cx="698.4336931977814" cy="100" r="3" fill="black" />
<circle cx="710.4336931977814" cy="100" r="6" fill="none" stroke="black" stroke-width="2" />
<circle cx="710.4336931977814" cy="100" r="3" fill="black" />
<circle cx="722.4336931977814" cy="100" r="6" fill="none" stroke="red" stroke-width="2" />
<circle cx="722.4336931977814" cy="100" r="3" fill="red" />
<circle cx="734.4336931977814" cy="100" r="6" fill="none" stroke="black" stroke-width="2" />
<circle cx="734.4336931977814" cy="100" r="3" fill="black" />
<circle cx="746.4336931977814" cy="100" r="6" fill="none" stroke="blue" stroke-width="2" />
<circle cx="746.4336931977814" cy="100" r="3" fill="blue" />
<circle cx="758.4336931977814" cy="100" r="6" fill="none" stroke="blue" stroke-width="2" />
<circle cx="758.4336931977814" cy="100" r="3" fill="blue" />
<circle cx="770.4336931977814" cy="100" r="6" fill="none" stroke="black" stroke-width="2" />
<circle cx="770.4336931977814" cy="100" r="3" fill="black" />
<circle cx="782.4336931977814" cy="100" r="4" fill="red" />
<circle cx="794.4336931977814" cy="100" r="4" fill="black" />
<circle cx="806.4336931977814" cy="100" r="6" fill="none" stroke="black" stroke-width="2" />
<circle cx="806.4336931977814" cy="100" r="3" fill="black" />
<circle cx="818.4336931977814" cy="100" r="6" fill="none" stroke="black" stroke-width="2" />
<circle cx="818.4336931977814" cy="100" r="3" fill="black" />
<circle cx="830.4336931977814" cy="100" r="4" fill="black" />
<circle cx="842.4336931977814" cy="100" r="4" fill="red" />
<circle cx="854.4336931977814" cy="100" r="4" fill="black" />
<circle cx="866.4336931977814" cy="100" r="4" fill="red" />
<circle cx="878.4336931977814" cy="100" r="4" fill="black" />
<circle cx="890.4336931977814" cy="100" r="4" fill="black" />
<circle cx="902.4336931977814" cy="100" r="6" fill="none" stroke="green" stroke-width="2" />
<circle cx="902.4336931977814" cy="100" r="3" fill="green" />
<circle cx="914.4336931977814" cy="100" r="6" fill="none" stroke="red" stroke-width="2" />
<circle cx="914.4336931977814" cy="100" r="3" fill="red" />
<circle cx="926.4336931977814" cy="100" r="6" fill="none" stroke="black" stroke-width="2" />
<circle cx="926.4336931977814" cy="100" r="3" fill="black" />
<circle cx="938.4336931977814" cy="100" r="6" fill="none" stroke="black" stroke-width="2" />
<circle cx="938.4336931977814" cy="100" r="3" fill="black" />
<circle cx="950.4336931977814" cy="100" r="4" fill="black" />
<circle cx="962.4336931977814" cy="100" r="4" fill="blue" />
<circle cx="974.4336931977814" cy="100" r="6" fill="none" stroke="red" stroke-width="2" />
<circle cx="974.4336931977814" cy="100" r="3" fill="red" />
<circle cx="986.4336931977814" cy="100" r="4" fill="red" />
<circle cx="998.4336931977814" cy="100" r="6" fill="none" stroke="red" stroke-width="2" />
<circle cx="998.4336931977814" cy="100" r="3" fill="red" />
<circle cx="1010.4336931977814" cy="100" r="4" fill="black" />
<circle cx="1022.4336931977814" cy="100" r="6" fill="none" stroke="black" stroke-width="2" />
<circle cx="1022.4336931977814" cy="100" r="3" fill="black" />
<circle cx="1034.4336931977814" cy="100" r="4" fill="black" />
<circle cx="1046.4336931977814" cy="100" r="6" fill="none" stroke="black" stroke-width="2" />
<circle cx="1046.4336931977814" cy="100" r="3" fill="black" />
<circle cx="1058.4336931977814" cy="100" r="6" fill="none" stroke="blue" stroke-width="2" />
<circle cx="1058.4336931977814" cy="100" r="3" fill="blue" />
<circle cx="1070.4336931977814" cy="100" r="6" fill="none" stroke="blue" stroke-width="2" />
<circle cx="1070.4336931977814" cy="100" r="3" fill="blue" />
<circle cx="1082.4336931977814" cy="100" r="4" fill="black" />
<circle cx="1094.4336931977814" cy="100" r="6" fill="none" stroke="green" stroke-width="2" />
<circle cx="1094.4336931977814" cy="100" r="3" fill="green" />
<circle cx="1106.4336931977814" cy="100" r="6" fill="none" stroke="blue" stroke-width="2" />
<circle cx="1106.4336931977814" cy="100" r="3" fill="blue" />
<circle cx="1118.4336931977814" cy="100" r="4" fill="red" />
<circle cx="1130.4336931977814" cy="100" r="6" fill="none" stroke="red" stroke-width="2" />
<circle cx="1130.4336931977814" cy="100" r="3" fill="red" />
<circle cx="1142.4336931977814" cy="100" r="4" fill="red" />
<circle cx="1154.4336931977814" cy="100" r="6" fill="none" stroke="black" stroke-width="2" />
<circle cx="1154.4336931977814" cy="100" r="3" fill="black" />
<circle cx="1166.4336931977814" cy="100" r="4" fill="red" />
<circle cx="1178.4336931977814" cy="100" r="6" fill="none" stroke="black" stroke-width="2" />
<circle cx="1178.4336931977814" cy="100" r="3" fill="black" />
<circle cx="1190.4336931977814" cy="100" r="4" fill="red" />
<circle cx="1202.4336931977814" cy="100" r="6" fill="none" stroke="black" stroke-width="2" />
<circle cx="1202.4336931977814" cy="100" r="3" fill="black" />
<circle cx="1214.4336931977814" cy="100" r="4" fill="black" />
<circle cx="1226.4336931977814" cy="100" r="4" fill="red" />
<circle cx="1238.4336931977814" cy="100" r="4" fill="black" />
<circle cx="1250.4336931977814" cy="100" r="6" fill="none" stroke="black" stroke-width="2" />
<circle cx="1250.4336931977814" cy="100" r="3" fill="black" />
<circle cx="1262.4336931977814" cy="100" r="6" fill="none" stroke="black" stroke-width="2" />
<circle cx="1262.4336931977814" cy="100" r="3" fill="black" />
<circle cx="1274.4336931977814" cy="100" r="4" fill="red" />
<circle cx="1286.4336931977814" cy="100" r="6" fill="none" stroke="black" stroke-width="2" />
<circle cx="1286.4336931977814" cy="100" r="3" fill="black" />
<circle cx="1298.4336931977814" cy="100" r="4" fill="black" />
<text x="50" y="125" fill="gray" style="font-size:12px;">2024-03-04T08:27:24+00:00</text>
<text x="900" y="125" fill="gray" style="font-size:12px;">2025-01-24T20:53:42+00:00</text>
</svg>