<svg xmlns="http://www.w3.org/2000/svg" width="1000" height="400" style="background-color: white; font-family: sans-serif;">
<line x1="50" y1="200" x2="950" y2="200" stroke="gray" stroke-width="1"/>
<path d="M 62.0 200 Q 56.0 180, 50.0 200" stroke="black" fill="none" marker-end="url(#arrowhead)"/>
<path d="M 519.7908442950261 200 Q 290.89542214751305 180, 62.0 200" stroke="black" fill="none" marker-end="url(#arrowhead)"/>
<path d="M 519.7908442950261 200 Q 284.89542214751305 180, 50.0 200" stroke="black" fill="none" marker-end="url(#arrowhead)"/>
<path d="M 857.4357310881728 200 Q 459.7178655440864 180, 62.0 200" stroke="black" fill="none" marker-end="url(#arrowhead)"/>
<path d="M 857.4357310881728 200 Q 688.6132876915995 180, 519.7908442950261 200" stroke="black" fill="none" marker-end="url(#arrowhead)"/>
<path d="M 857.4357310881728 200 Q 453.7178655440864 180, 50.0 200" stroke="black" fill="none" marker-end="url(#arrowhead)"/>
<path d="M 869.4357310881728 200 Q 465.7178655440864 180, 62.0 200" stroke="black" fill="none" marker-end="url(#arrowhead)"/>
<path d="M 869.4357310881728 200 Q 694.6132876915995 180, 519.7908442950261 200" stroke="black" fill="none" marker-end="url(#arrowhead)"/>
<path d="M 869.4357310881728 200 Q 863.4357310881728 180, 857.4357310881728 200" stroke="black" fill="none" marker-end="url(#arrowhead)"/>
<path d="M 869.4357310881728 200 Q 459.7178655440864 180, 50.0 200" stroke="black" fill="none" marker-end="url(#arrowhead)"/>
<path d="M 950.0 200 Q 506.0 180, 62.0 200" stroke="black" fill="none" marker-end="url(#arrowhead)"/>
<path d="M 950.0 200 Q 909.7178655440864 180, 869.4357310881728 200" stroke="black" fill="none" marker-end="url(#arrowhead)"/>
<path d="M 950.0 200 Q 500.0 180, 50.0 200" stroke="black" fill="none" marker-end="url(#arrowhead)"/>
<path d="M 950.0 200 Q 903.7178655440864 180, 857.4357310881728 200" stroke="black" fill="none" marker-end="url(#arrowhead)"/>
<path d="M 950.0 200 Q 734.895422147513 180, 519.7908442950261 200" stroke="black" fill="none" marker-end="url(#arrowhead)"/>

<defs>
  <marker id="arrowhead" markerWidth="5" markerHeight="5" 
          refX="2" refY="2" orient="auto" fill="black">
    <path d="M0,0 L0,4 L4,2 z" />
  </marker>
</defs>

<circle cx="50.0" cy="200" r="6" fill="none" stroke="blue" stroke-width="2" />
<circle cx="50.0" cy="200" r="3" fill="blue" />
<circle cx="62.0" cy="200" r="4" fill="black" />
<circle cx="519.7908442950261" cy="200" r="6" fill="none" stroke="red" stroke-width="2" />
<circle cx="519.7908442950261" cy="200" r="3" fill="red" />
<circle cx="857.4357310881728" cy="200" r="4" fill="black" />
<circle cx="869.4357310881728" cy="200" r="4" fill="red" />
<circle cx="950.0" cy="200" r="4" fill="blue" />
<text x="50" y="225" fill="gray" style="font-size:12px;">2023-04-11T03:03:27+00:00</text>
<text x="900" y="225" fill="gray" style="font-size:12px;">2024-09-17T08:48:16+00:00</text>
</svg>