<svg xmlns="http://www.w3.org/2000/svg" width="1000" height="400" style="background-color: white; font-family: sans-serif;">
<line x1="50" y1="200" x2="950" y2="200" stroke="gray" stroke-width="1"/>
<path d="M 74.0 200 Q 68.0 180, 62.0 200" stroke="black" fill="none" marker-end="url(#arrowhead)"/>
<path d="M 86.0 200 Q 80.0 180, 74.0 200" stroke="black" fill="none" marker-end="url(#arrowhead)"/>
<path d="M 86.0 200 Q 74.0 180, 62.0 200" stroke="black" fill="none" marker-end="url(#arrowhead)"/>
<path d="M 110.0 200 Q 104.0 180, 98.0 200" stroke="black" fill="none" marker-end="url(#arrowhead)"/>
<path d="M 122.0 200 Q 86.0 180, 50.0 200" stroke="black" fill="none" marker-end="url(#arrowhead)"/>
<path d="M 134.0 200 Q 104.0 180, 74.0 200" stroke="black" fill="none" marker-end="url(#arrowhead)"/>
<path d="M 134.0 200 Q 128.0 180, 122.0 200" stroke="black" fill="none" marker-end="url(#arrowhead)"/>
<path d="M 134.0 200 Q 92.0 180, 50.0 200" stroke="black" fill="none" marker-end="url(#arrowhead)"/>
<path d="M 158.0 200 Q 152.0 180, 146.0 200" stroke="black" fill="none" marker-end="url(#arrowhead)"/>
<path d="M 276.60785906680735 200 Q 270.60785906680735 180, 264.60785906680735 200" stroke="black" fill="none" marker-end="url(#arrowhead)"/>
<path d="M 334.6558711865493 200 Q 204.32793559327465 180, 74.0 200" stroke="black" fill="none" marker-end="url(#arrowhead)"/>
<path d="M 334.6558711865493 200 Q 305.63186512667835 180, 276.60785906680735 200" stroke="black" fill="none" marker-end="url(#arrowhead)"/>
<path d="M 948.9594780455543 200 Q 641.8076746160518 180, 334.6558711865493 200" stroke="black" fill="none" marker-end="url(#arrowhead)"/>
<path d="M 960.9594780455543 200 Q 954.9594780455543 180, 948.9594780455543 200" stroke="black" fill="none" marker-end="url(#arrowhead)"/>
<path d="M 960.9594780455543 200 Q 647.8076746160518 180, 334.6558711865493 200" stroke="black" fill="none" marker-end="url(#arrowhead)"/>

<defs>
  <marker id="arrowhead" markerWidth="5" markerHeight="5" 
          refX="2" refY="2" orient="auto" fill="black">
    <path d="M0,0 L0,4 L4,2 z" />
  </marker>
</defs>

<circle cx="50.0" cy="200" r="6" fill="none" stroke="blue" stroke-width="2" />
<circle cx="50.0" cy="200" r="3" fill="blue" />
<circle cx="62.0" cy="200" r="6" fill="none" stroke="blue" stroke-width="2" />
<circle cx="62.0" cy="200" r="3" fill="blue" />
<circle cx="74.0" cy="200" r="4" fill="black" />
<circle cx="86.0" cy="200" r="4" fill="black" />
<circle cx="98.0" cy="200" r="6" fill="none" stroke="black" stroke-width="2" />
<circle cx="98.0" cy="200" r="3" fill="black" />
<circle cx="110.0" cy="200" r="4" fill="black" />
<circle cx="122.0" cy="200" r="4" fill="blue" />
<circle cx="134.0" cy="200" r="4" fill="black" />
<circle cx="146.0" cy="200" r="6" fill="none" stroke="black" stroke-width="2" />
<circle cx="146.0" cy="200" r="3" fill="black" />
<circle cx="158.0" cy="200" r="4" fill="black" />
<circle cx="264.60785906680735" cy="200" r="6" fill="none" stroke="black" stroke-width="2" />
<circle cx="264.60785906680735" cy="200" r="3" fill="black" />
<circle cx="276.60785906680735" cy="200" r="4" fill="black" />
<circle cx="334.6558711865493" cy="200" r="6" fill="none" stroke="blue" stroke-width="2" />
<circle cx="334.6558711865493" cy="200" r="3" fill="blue" />
<circle cx="948.9594780455543" cy="200" r="4" fill="black" />
<circle cx="960.9594780455543" cy="200" r="4" fill="blue" />
<text x="50" y="225" fill="gray" style="font-size:12px;">2024-10-16T18:24:10+00:00</text>
<text x="900" y="225" fill="gray" style="font-size:12px;">2024-12-06T08:13:00+00:00</text>
</svg>