<svg xmlns="http://www.w3.org/2000/svg" width="1000" height="400" style="background-color: white; font-family: sans-serif;">
<line x1="50" y1="200" x2="950" y2="200" stroke="gray" stroke-width="1"/>
<path d="M 68.57190639979821 200 Q 59.285953199899105 180, 50.0 200" stroke="black" fill="none" marker-end="url(#arrowhead)"/>
<path d="M 80.57190639979821 200 Q 65.2859531998991 180, 50.0 200" stroke="black" fill="none" marker-end="url(#arrowhead)"/>
<path d="M 364.0561274252924 200 Q 207.0280637126462 180, 50.0 200" stroke="black" fill="none" marker-end="url(#arrowhead)"/>
<path d="M 364.0561274252924 200 Q 216.3140169125453 180, 68.57190639979821 200" stroke="black" fill="none" marker-end="url(#arrowhead)"/>
<path d="M 542.7982023337366 200 Q 453.4271648795145 180, 364.0561274252924 200" stroke="black" fill="none" marker-end="url(#arrowhead)"/>
<path d="M 927.1725770645105 200 Q 734.9853896991235 180, 542.7982023337366 200" stroke="black" fill="none" marker-end="url(#arrowhead)"/>
<path d="M 950.0 200 Q 938.5862885322553 180, 927.1725770645105 200" stroke="black" fill="none" marker-end="url(#arrowhead)"/>

<defs>
  <marker id="arrowhead" markerWidth="5" markerHeight="5" 
          refX="2" refY="2" orient="auto" fill="black">
    <path d="M0,0 L0,4 L4,2 z" />
  </marker>
</defs>

<circle cx="50.0" cy="200" r="6" fill="none" stroke="blue" stroke-width="2" />
<circle cx="50.0" cy="200" r="3" fill="blue" />
<circle cx="68.57190639979821" cy="200" r="6" fill="none" stroke="blue" stroke-width="2" />
<circle cx="68.57190639979821" cy="200" r="3" fill="blue" />
<circle cx="80.57190639979821" cy="200" r="6" fill="none" stroke="blue" stroke-width="2" />
<circle cx="80.57190639979821" cy="200" r="3" fill="blue" />
<circle cx="364.0561274252924" cy="200" r="4" fill="blue" />
<circle cx="542.7982023337366" cy="200" r="6" fill="none" stroke="blue" stroke-width="2" />
<circle cx="542.7982023337366" cy="200" r="3" fill="blue" />
<circle cx="927.1725770645105" cy="200" r="6" fill="none" stroke="blue" stroke-width="2" />
<circle cx="927.1725770645105" cy="200" r="3" fill="blue" />
<circle cx="950.0" cy="200" r="4" fill="red" />
<text x="50" y="225" fill="gray" style="font-size:12px;">2025-02-05T12:31:28+00:00</text>
<text x="900" y="225" fill="gray" style="font-size:12px;">2025-02-28T14:27:09+00:00</text>
</svg>