<svg xmlns="http://www.w3.org/2000/svg" width="1000" height="200" style="background-color: white; font-family: sans-serif;">
<line x1="50" y1="100" x2="950" y2="100" stroke="gray" stroke-width="1"/>
<path d="M 62.0 100 Q 56.0 80, 50.0 100" stroke="black" fill="none" marker-end="url(#arrowhead)"/>
<path d="M 74.0 100 Q 62.0 80, 50.0 100" stroke="black" fill="none" marker-end="url(#arrowhead)"/>
<path d="M 74.0 100 Q 68.0 80, 62.0 100" stroke="black" fill="none" marker-end="url(#arrowhead)"/>
<path d="M 86.0 100 Q 74.0 80, 62.0 100" stroke="black" fill="none" marker-end="url(#arrowhead)"/>
<path d="M 98.0 100 Q 92.0 80, 86.0 100" stroke="black" fill="none" marker-end="url(#arrowhead)"/>
<path d="M 110.0 100 Q 104.0 80, 98.0 100" stroke="black" fill="none" marker-end="url(#arrowhead)"/>
<path d="M 122.0 100 Q 86.0 80, 50.0 100" stroke="black" fill="none" marker-end="url(#arrowhead)"/>
<path d="M 122.0 100 Q 92.0 80, 62.0 100" stroke="black" fill="none" marker-end="url(#arrowhead)"/>
<path d="M 134.0 100 Q 98.0 80, 62.0 100" stroke="black" fill="none" marker-end="url(#arrowhead)"/>
<path d="M 146.0 100 Q 116.0 80, 86.0 100" stroke="black" fill="none" marker-end="url(#arrowhead)"/>
<path d="M 146.0 100 Q 140.0 80, 134.0 100" stroke="black" fill="none" marker-end="url(#arrowhead)"/>
<path d="M 158.0 100 Q 152.0 80, 146.0 100" stroke="black" fill="none" marker-end="url(#arrowhead)"/>
<path d="M 170.0 100 Q 158.0 80, 146.0 100" stroke="black" fill="none" marker-end="url(#arrowhead)"/>
<path d="M 170.0 100 Q 164.0 80, 158.0 100" stroke="black" fill="none" marker-end="url(#arrowhead)"/>
<path d="M 182.0 100 Q 170.0 80, 158.0 100" stroke="black" fill="none" marker-end="url(#arrowhead)"/>
<path d="M 194.0 100 Q 176.0 80, 158.0 100" stroke="black" fill="none" marker-end="url(#arrowhead)"/>
<path d="M 194.0 100 Q 188.0 80, 182.0 100" stroke="black" fill="none" marker-end="url(#arrowhead)"/>
<path d="M 206.0 100 Q 128.0 80, 50.0 100" stroke="black" fill="none" marker-end="url(#arrowhead)"/>
<path d="M 218.0 100 Q 212.0 80, 206.0 100" stroke="black" fill="none" marker-end="url(#arrowhead)"/>
<path d="M 218.0 100 Q 134.0 80, 50.0 100" stroke="black" fill="none" marker-end="url(#arrowhead)"/>
<path d="M 230.0 100 Q 218.0 80, 206.0 100" stroke="black" fill="none" marker-end="url(#arrowhead)"/>
<path d="M 230.0 100 Q 224.0 80, 218.0 100" stroke="black" fill="none" marker-end="url(#arrowhead)"/>
<path d="M 230.0 100 Q 140.0 80, 50.0 100" stroke="black" fill="none" marker-end="url(#arrowhead)"/>
<path d="M 242.0 100 Q 224.0 80, 206.0 100" stroke="black" fill="none" marker-end="url(#arrowhead)"/>
<path d="M 254.0 100 Q 248.0 80, 242.0 100" stroke="black" fill="none" marker-end="url(#arrowhead)"/>
<path d="M 278.0 100 Q 272.0 80, 266.0 100" stroke="black" fill="none" marker-end="url(#arrowhead)"/>
<path d="M 302.0 100 Q 272.0 80, 242.0 100" stroke="black" fill="none" marker-end="url(#arrowhead)"/>
<path d="M 314.0 100 Q 302.0 80, 290.0 100" stroke="black" fill="none" marker-end="url(#arrowhead)"/>
<path d="M 326.0 100 Q 308.0 80, 290.0 100" stroke="black" fill="none" marker-end="url(#arrowhead)"/>
<path d="M 350.0 100 Q 344.0 80, 338.0 100" stroke="black" fill="none" marker-end="url(#arrowhead)"/>
<path d="M 362.0 100 Q 284.0 80, 206.0 100" stroke="black" fill="none" marker-end="url(#arrowhead)"/>
<path d="M 374.0 100 Q 290.0 80, 206.0 100" stroke="black" fill="none" marker-end="url(#arrowhead)"/>
<path d="M 374.0 100 Q 368.0 80, 362.0 100" stroke="black" fill="none" marker-end="url(#arrowhead)"/>
<path d="M 386.0 100 Q 380.0 80, 374.0 100" stroke="black" fill="none" marker-end="url(#arrowhead)"/>
<path d="M 398.0 100 Q 392.0 80, 386.0 100" stroke="black" fill="none" marker-end="url(#arrowhead)"/>
<path d="M 410.0 100 Q 404.0 80, 398.0 100" stroke="black" fill="none" marker-end="url(#arrowhead)"/>
<path d="M 422.0 100 Q 398.0 80, 374.0 100" stroke="black" fill="none" marker-end="url(#arrowhead)"/>
<path d="M 422.0 100 Q 404.0 80, 386.0 100" stroke="black" fill="none" marker-end="url(#arrowhead)"/>
<path d="M 434.0 100 Q 404.0 80, 374.0 100" stroke="black" fill="none" marker-end="url(#arrowhead)"/>
<path d="M 434.0 100 Q 410.0 80, 386.0 100" stroke="black" fill="none" marker-end="url(#arrowhead)"/>
<path d="M 434.0 100 Q 416.0 80, 398.0 100" stroke="black" fill="none" marker-end="url(#arrowhead)"/>
<path d="M 446.0 100 Q 440.0 80, 434.0 100" stroke="black" fill="none" marker-end="url(#arrowhead)"/>
<path d="M 470.0 100 Q 458.0 80, 446.0 100" stroke="black" fill="none" marker-end="url(#arrowhead)"/>
<path d="M 482.0 100 Q 386.0 80, 290.0 100" stroke="black" fill="none" marker-end="url(#arrowhead)"/>
<path d="M 482.0 100 Q 398.0 80, 314.0 100" stroke="black" fill="none" marker-end="url(#arrowhead)"/>
<path d="M 494.0 100 Q 488.0 80, 482.0 100" stroke="black" fill="none" marker-end="url(#arrowhead)"/>
<path d="M 506.0 100 Q 470.0 80, 434.0 100" stroke="black" fill="none" marker-end="url(#arrowhead)"/>
<path d="M 506.0 100 Q 476.0 80, 446.0 100" stroke="black" fill="none" marker-end="url(#arrowhead)"/>
<path d="M 506.0 100 Q 488.0 80, 470.0 100" stroke="black" fill="none" marker-end="url(#arrowhead)"/>
<path d="M 518.0 100 Q 512.0 80, 506.0 100" stroke="black" fill="none" marker-end="url(#arrowhead)"/>
<path d="M 530.0 100 Q 518.0 80, 506.0 100" stroke="black" fill="none" marker-end="url(#arrowhead)"/>
<path d="M 530.0 100 Q 524.0 80, 518.0 100" stroke="black" fill="none" marker-end="url(#arrowhead)"/>
<path d="M 554.0 100 Q 548.0 80, 542.0 100" stroke="black" fill="none" marker-end="url(#arrowhead)"/>
<path d="M 566.0 100 Q 554.0 80, 542.0 100" stroke="black" fill="none" marker-end="url(#arrowhead)"/>
<path d="M 578.0 100 Q 560.0 80, 542.0 100" stroke="black" fill="none" marker-end="url(#arrowhead)"/>
<path d="M 578.0 100 Q 572.0 80, 566.0 100" stroke="black" fill="none" marker-end="url(#arrowhead)"/>
<path d="M 590.0 100 Q 584.0 80, 578.0 100" stroke="black" fill="none" marker-end="url(#arrowhead)"/>
<path d="M 602.0 100 Q 596.0 80, 590.0 100" stroke="black" fill="none" marker-end="url(#arrowhead)"/>
<path d="M 642.4640371210373 100 Q 622.2320185605187 80, 602.0 100" stroke="black" fill="none" marker-end="url(#arrowhead)"/>
<path d="M 666.4640371210373 100 Q 660.4640371210373 80, 654.4640371210373 100" stroke="black" fill="none" marker-end="url(#arrowhead)"/>
<path d="M 678.4640371210373 100 Q 672.4640371210373 80, 666.4640371210373 100" stroke="black" fill="none" marker-end="url(#arrowhead)"/>
<path d="M 702.4640371210373 100 Q 690.4640371210373 80, 678.4640371210373 100" stroke="black" fill="none" marker-end="url(#arrowhead)"/>
<path d="M 714.4640371210373 100 Q 696.4640371210373 80, 678.4640371210373 100" stroke="black" fill="none" marker-end="url(#arrowhead)"/>
<path d="M 726.4640371210373 100 Q 708.4640371210373 80, 690.4640371210373 100" stroke="black" fill="none" marker-end="url(#arrowhead)"/>
<path d="M 738.4640371210373 100 Q 732.4640371210373 80, 726.4640371210373 100" stroke="black" fill="none" marker-end="url(#arrowhead)"/>
<path d="M 762.4640371210373 100 Q 756.4640371210373 80, 750.4640371210373 100" stroke="black" fill="none" marker-end="url(#arrowhead)"/>
<path d="M 774.4640371210373 100 Q 762.4640371210373 80, 750.4640371210373 100" stroke="black" fill="none" marker-end="url(#arrowhead)"/>
<path d="M 774.4640371210373 100 Q 768.4640371210373 80, 762.4640371210373 100" stroke="black" fill="none" marker-end="url(#arrowhead)"/>
<path d="M 786.4640371210373 100 Q 780.4640371210373 80, 774.4640371210373 100" stroke="black" fill="none" marker-end="url(#arrowhead)"/>
<path d="M 810.4640371210373 100 Q 804.4640371210373 80, 798.4640371210373 100" stroke="black" fill="none" marker-end="url(#arrowhead)"/>
<path d="M 846.4640371210373 100 Q 840.4640371210373 80, 834.4640371210373 100" stroke="black" fill="none" marker-end="url(#arrowhead)"/>
<path d="M 858.4640371210373 100 Q 852.4640371210373 80, 846.4640371210373 100" stroke="black" fill="none" marker-end="url(#arrowhead)"/>
<path d="M 870.4640371210373 100 Q 834.4640371210373 80, 798.4640371210373 100" stroke="black" fill="none" marker-end="url(#arrowhead)"/>
<path d="M 870.4640371210373 100 Q 810.4640371210373 80, 750.4640371210373 100" stroke="black" fill="none" marker-end="url(#arrowhead)"/>
<path d="M 882.4640371210373 100 Q 852.4640371210373 80, 822.4640371210373 100" stroke="black" fill="none" marker-end="url(#arrowhead)"/>
<path d="M 918.4640371210373 100 Q 906.4640371210373 80, 894.4640371210373 100" stroke="black" fill="none" marker-end="url(#arrowhead)"/>
<path d="M 950.0 100 Q 940.2320185605187 80, 930.4640371210373 100" stroke="black" fill="none" marker-end="url(#arrowhead)"/>

<defs>
  <marker id="arrowhead" markerWidth="5" markerHeight="5" 
          refX="2" refY="2" orient="auto" fill="black">
    <path d="M0,0 L0,4 L4,2 z" />
  </marker>
</defs>

<circle cx="50.0" cy="100" r="6" fill="none" stroke="black" stroke-width="2" />
<circle cx="50.0" cy="100" r="3" fill="black" />
<circle cx="62.0" cy="100" r="4" fill="red" />
<circle cx="74.0" cy="100" r="4" fill="red" />
<circle cx="86.0" cy="100" r="4" fill="black" />
<circle cx="98.0" cy="100" r="4" fill="black" />
<circle cx="110.0" cy="100" r="6" fill="none" stroke="black" stroke-width="2" />
<circle cx="110.0" cy="100" r="3" fill="black" />
<circle cx="122.0" cy="100" r="6" fill="none" stroke="red" stroke-width="2" />
<circle cx="122.0" cy="100" r="3" fill="red" />
<circle cx="134.0" cy="100" r="4" fill="black" />
<circle cx="146.0" cy="100" r="4" fill="red" />
<circle cx="158.0" cy="100" r="6" fill="none" stroke="blue" stroke-width="2" />
<circle cx="158.0" cy="100" r="3" fill="blue" />
<circle cx="170.0" cy="100" r="6" fill="none" stroke="blue" stroke-width="2" />
<circle cx="170.0" cy="100" r="3" fill="blue" />
<circle cx="182.0" cy="100" r="4" fill="red" />
<circle cx="194.0" cy="100" r="6" fill="none" stroke="red" stroke-width="2" />
<circle cx="194.0" cy="100" r="3" fill="red" />
<circle cx="206.0" cy="100" r="4" fill="red" />
<circle cx="218.0" cy="100" r="6" fill="none" stroke="black" stroke-width="2" />
<circle cx="218.0" cy="100" r="3" fill="black" />
<circle cx="230.0" cy="100" r="6" fill="none" stroke="black" stroke-width="2" />
<circle cx="230.0" cy="100" r="3" fill="black" />
<circle cx="242.0" cy="100" r="4" fill="black" />
<circle cx="254.0" cy="100" r="6" fill="none" stroke="black" stroke-width="2" />
<circle cx="254.0" cy="100" r="3" fill="black" />
<circle cx="266.0" cy="100" r="4" fill="black" />
<circle cx="278.0" cy="100" r="6" fill="none" stroke="blue" stroke-width="2" />
<circle cx="278.0" cy="100" r="3" fill="blue" />
<circle cx="290.0" cy="100" r="4" fill="black" />
<circle cx="302.0" cy="100" r="4" fill="black" />
<circle cx="314.0" cy="100" r="4" fill="black" />
<circle cx="326.0" cy="100" r="6" fill="none" stroke="black" stroke-width="2" />
<circle cx="326.0" cy="100" r="3" fill="black" />
<circle cx="338.0" cy="100" r="6" fill="none" stroke="blue" stroke-width="2" />
<circle cx="338.0" cy="100" r="3" fill="blue" />
<circle cx="350.0" cy="100" r="6" fill="none" stroke="blue" stroke-width="2" />
<circle cx="350.0" cy="100" r="3" fill="blue" />
<circle cx="362.0" cy="100" r="4" fill="black" />
<circle cx="374.0" cy="100" r="6" fill="none" stroke="black" stroke-width="2" />
<circle cx="374.0" cy="100" r="3" fill="black" />
<circle cx="386.0" cy="100" r="4" fill="black" />
<circle cx="398.0" cy="100" r="4" fill="black" />
<circle cx="410.0" cy="100" r="4" fill="black" />
<circle cx="422.0" cy="100" r="6" fill="none" stroke="blue" stroke-width="2" />
<circle cx="422.0" cy="100" r="3" fill="blue" />
<circle cx="434.0" cy="100" r="6" fill="none" stroke="black" stroke-width="2" />
<circle cx="434.0" cy="100" r="3" fill="black" />
<circle cx="446.0" cy="100" r="4" fill="green" />
<circle cx="458.0" cy="100" r="4" fill="black" />
<circle cx="470.0" cy="100" r="4" fill="black" />
<circle cx="482.0" cy="100" r="4" fill="green" />
<circle cx="494.0" cy="100" r="4" fill="green" />
<circle cx="506.0" cy="100" r="6" fill="none" stroke="blue" stroke-width="2" />
<circle cx="506.0" cy="100" r="3" fill="blue" />
<circle cx="518.0" cy="100" r="6" fill="none" stroke="blue" stroke-width="2" />
<circle cx="518.0" cy="100" r="3" fill="blue" />
<circle cx="530.0" cy="100" r="6" fill="none" stroke="black" stroke-width="2" />
<circle cx="530.0" cy="100" r="3" fill="black" />
<circle cx="542.0" cy="100" r="6" fill="none" stroke="blue" stroke-width="2" />
<circle cx="542.0" cy="100" r="3" fill="blue" />
<circle cx="554.0" cy="100" r="4" fill="blue" />
<circle cx="566.0" cy="100" r="4" fill="red" />
<circle cx="578.0" cy="100" r="6" fill="none" stroke="black" stroke-width="2" />
<circle cx="578.0" cy="100" r="3" fill="black" />
<circle cx="590.0" cy="100" r="4" fill="black" />
<circle cx="602.0" cy="100" r="6" fill="none" stroke="blue" stroke-width="2" />
<circle cx="602.0" cy="100" r="3" fill="blue" />
<circle cx="642.4640371210373" cy="100" r="6" fill="none" stroke="blue" stroke-width="2" />
<circle cx="642.4640371210373" cy="100" r="3" fill="blue" />
<circle cx="654.4640371210373" cy="100" r="4" fill="red" />
<circle cx="666.4640371210373" cy="100" r="6" fill="none" stroke="blue" stroke-width="2" />
<circle cx="666.4640371210373" cy="100" r="3" fill="blue" />
<circle cx="678.4640371210373" cy="100" r="4" fill="red" />
<circle cx="690.4640371210373" cy="100" r="4" fill="black" />
<circle cx="702.4640371210373" cy="100" r="4" fill="red" />
<circle cx="714.4640371210373" cy="100" r="6" fill="none" stroke="blue" stroke-width="2" />
<circle cx="714.4640371210373" cy="100" r="3" fill="blue" />
<circle cx="726.4640371210373" cy="100" r="6" fill="none" stroke="black" stroke-width="2" />
<circle cx="726.4640371210373" cy="100" r="3" fill="black" />
<circle cx="738.4640371210373" cy="100" r="4" fill="black" />
<circle cx="750.4640371210373" cy="100" r="4" fill="red" />
<circle cx="762.4640371210373" cy="100" r="6" fill="none" stroke="blue" stroke-width="2" />
<circle cx="762.4640371210373" cy="100" r="3" fill="blue" />
<circle cx="774.4640371210373" cy="100" r="4" fill="black" />
<circle cx="786.4640371210373" cy="100" r="6" fill="none" stroke="blue" stroke-width="2" />
<circle cx="786.4640371210373" cy="100" r="3" fill="blue" />
<circle cx="798.4640371210373" cy="100" r="4" fill="red" />
<circle cx="810.4640371210373" cy="100" r="4" fill="blue" />
<circle cx="822.4640371210373" cy="100" r="4" fill="blue" />
<circle cx="834.4640371210373" cy="100" r="4" fill="black" />
<circle cx="846.4640371210373" cy="100" r="4" fill="red" />
<circle cx="858.4640371210373" cy="100" r="6" fill="none" stroke="blue" stroke-width="2" />
<circle cx="858.4640371210373" cy="100" r="3" fill="blue" />
<circle cx="870.4640371210373" cy="100" r="6" fill="none" stroke="blue" stroke-width="2" />
<circle cx="870.4640371210373" cy="100" r="3" fill="blue" />
<circle cx="882.4640371210373" cy="100" r="6" fill="none" stroke="green" stroke-width="2" />
<circle cx="882.4640371210373" cy="100" r="3" fill="green" />
<circle cx="894.4640371210373" cy="100" r="4" fill="red" />
<circle cx="906.4640371210373" cy="100" r="4" fill="blue" />
<circle cx="918.4640371210373" cy="100" r="6" fill="none" stroke="blue" stroke-width="2" />
<circle cx="918.4640371210373" cy="100" r="3" fill="blue" />
<circle cx="930.4640371210373" cy="100" r="4" fill="blue" />
<circle cx="950.0" cy="100" r="6" fill="none" stroke="blue" stroke-width="2" />
<circle cx="950.0" cy="100" r="3" fill="blue" />
<text x="50" y="125" fill="gray" style="font-size:12px;">2024-09-09T21:38:35+00:00</text>
<text x="900" y="125" fill="gray" style="font-size:12px;">2025-02-23T15:41:11+00:00</text>
</svg>