<svg xmlns="http://www.w3.org/2000/svg" width="1000" height="400" style="background-color: white; font-family: sans-serif;">
<line x1="50" y1="200" x2="950" y2="200" stroke="gray" stroke-width="1"/>
<path d="M 62.0 200 Q 56.0 180, 50.0 200" stroke="black" fill="none" marker-end="url(#arrowhead)"/>
<path d="M 74.0 200 Q 62.0 180, 50.0 200" stroke="black" fill="none" marker-end="url(#arrowhead)"/>
<path d="M 74.0 200 Q 68.0 180, 62.0 200" stroke="black" fill="none" marker-end="url(#arrowhead)"/>
<path d="M 86.0 200 Q 74.0 180, 62.0 200" stroke="black" fill="none" marker-end="url(#arrowhead)"/>
<path d="M 98.0 200 Q 92.0 180, 86.0 200" stroke="black" fill="none" marker-end="url(#arrowhead)"/>
<path d="M 110.0 200 Q 104.0 180, 98.0 200" stroke="black" fill="none" marker-end="url(#arrowhead)"/>
<path d="M 122.0 200 Q 86.0 180, 50.0 200" stroke="black" fill="none" marker-end="url(#arrowhead)"/>
<path d="M 122.0 200 Q 92.0 180, 62.0 200" stroke="black" fill="none" marker-end="url(#arrowhead)"/>
<path d="M 134.0 200 Q 98.0 180, 62.0 200" stroke="black" fill="none" marker-end="url(#arrowhead)"/>
<path d="M 146.0 200 Q 116.0 180, 86.0 200" stroke="black" fill="none" marker-end="url(#arrowhead)"/>
<path d="M 146.0 200 Q 140.0 180, 134.0 200" stroke="black" fill="none" marker-end="url(#arrowhead)"/>
<path d="M 158.0 200 Q 152.0 180, 146.0 200" stroke="black" fill="none" marker-end="url(#arrowhead)"/>
<path d="M 170.0 200 Q 158.0 180, 146.0 200" stroke="black" fill="none" marker-end="url(#arrowhead)"/>
<path d="M 170.0 200 Q 164.0 180, 158.0 200" stroke="black" fill="none" marker-end="url(#arrowhead)"/>
<path d="M 182.0 200 Q 170.0 180, 158.0 200" stroke="black" fill="none" marker-end="url(#arrowhead)"/>
<path d="M 194.0 200 Q 176.0 180, 158.0 200" stroke="black" fill="none" marker-end="url(#arrowhead)"/>
<path d="M 194.0 200 Q 188.0 180, 182.0 200" stroke="black" fill="none" marker-end="url(#arrowhead)"/>
<path d="M 206.0 200 Q 128.0 180, 50.0 200" stroke="black" fill="none" marker-end="url(#arrowhead)"/>
<path d="M 218.0 200 Q 212.0 180, 206.0 200" stroke="black" fill="none" marker-end="url(#arrowhead)"/>
<path d="M 218.0 200 Q 134.0 180, 50.0 200" stroke="black" fill="none" marker-end="url(#arrowhead)"/>
<path d="M 230.0 200 Q 218.0 180, 206.0 200" stroke="black" fill="none" marker-end="url(#arrowhead)"/>
<path d="M 230.0 200 Q 224.0 180, 218.0 200" stroke="black" fill="none" marker-end="url(#arrowhead)"/>
<path d="M 230.0 200 Q 140.0 180, 50.0 200" stroke="black" fill="none" marker-end="url(#arrowhead)"/>
<path d="M 242.0 200 Q 224.0 180, 206.0 200" stroke="black" fill="none" marker-end="url(#arrowhead)"/>
<path d="M 254.0 200 Q 248.0 180, 242.0 200" stroke="black" fill="none" marker-end="url(#arrowhead)"/>
<path d="M 278.0 200 Q 272.0 180, 266.0 200" stroke="black" fill="none" marker-end="url(#arrowhead)"/>
<path d="M 302.0 200 Q 272.0 180, 242.0 200" stroke="black" fill="none" marker-end="url(#arrowhead)"/>
<path d="M 314.0 200 Q 302.0 180, 290.0 200" stroke="black" fill="none" marker-end="url(#arrowhead)"/>
<path d="M 326.0 200 Q 308.0 180, 290.0 200" stroke="black" fill="none" marker-end="url(#arrowhead)"/>
<path d="M 350.0 200 Q 344.0 180, 338.0 200" stroke="black" fill="none" marker-end="url(#arrowhead)"/>
<path d="M 362.0 200 Q 284.0 180, 206.0 200" stroke="black" fill="none" marker-end="url(#arrowhead)"/>
<path d="M 374.0 200 Q 290.0 180, 206.0 200" stroke="black" fill="none" marker-end="url(#arrowhead)"/>
<path d="M 374.0 200 Q 368.0 180, 362.0 200" stroke="black" fill="none" marker-end="url(#arrowhead)"/>
<path d="M 386.0 200 Q 380.0 180, 374.0 200" stroke="black" fill="none" marker-end="url(#arrowhead)"/>
<path d="M 398.0 200 Q 392.0 180, 386.0 200" stroke="black" fill="none" marker-end="url(#arrowhead)"/>
<path d="M 410.0 200 Q 404.0 180, 398.0 200" stroke="black" fill="none" marker-end="url(#arrowhead)"/>
<path d="M 422.0 200 Q 398.0 180, 374.0 200" stroke="black" fill="none" marker-end="url(#arrowhead)"/>
<path d="M 422.0 200 Q 404.0 180, 386.0 200" stroke="black" fill="none" marker-end="url(#arrowhead)"/>
<path d="M 434.0 200 Q 404.0 180, 374.0 200" stroke="black" fill="none" marker-end="url(#arrowhead)"/>
<path d="M 434.0 200 Q 410.0 180, 386.0 200" stroke="black" fill="none" marker-end="url(#arrowhead)"/>
<path d="M 434.0 200 Q 416.0 180, 398.0 200" stroke="black" fill="none" marker-end="url(#arrowhead)"/>
<path d="M 446.0 200 Q 440.0 180, 434.0 200" stroke="black" fill="none" marker-end="url(#arrowhead)"/>
<path d="M 470.0 200 Q 458.0 180, 446.0 200" stroke="black" fill="none" marker-end="url(#arrowhead)"/>
<path d="M 482.0 200 Q 386.0 180, 290.0 200" stroke="black" fill="none" marker-end="url(#arrowhead)"/>
<path d="M 482.0 200 Q 398.0 180, 314.0 200" stroke="black" fill="none" marker-end="url(#arrowhead)"/>
<path d="M 494.0 200 Q 488.0 180, 482.0 200" stroke="black" fill="none" marker-end="url(#arrowhead)"/>
<path d="M 506.0 200 Q 470.0 180, 434.0 200" stroke="black" fill="none" marker-end="url(#arrowhead)"/>
<path d="M 506.0 200 Q 476.0 180, 446.0 200" stroke="black" fill="none" marker-end="url(#arrowhead)"/>
<path d="M 506.0 200 Q 488.0 180, 470.0 200" stroke="black" fill="none" marker-end="url(#arrowhead)"/>
<path d="M 518.0 200 Q 512.0 180, 506.0 200" stroke="black" fill="none" marker-end="url(#arrowhead)"/>
<path d="M 530.0 200 Q 518.0 180, 506.0 200" stroke="black" fill="none" marker-end="url(#arrowhead)"/>
<path d="M 530.0 200 Q 524.0 180, 518.0 200" stroke="black" fill="none" marker-end="url(#arrowhead)"/>
<path d="M 554.0 200 Q 548.0 180, 542.0 200" stroke="black" fill="none" marker-end="url(#arrowhead)"/>
<path d="M 566.0 200 Q 554.0 180, 542.0 200" stroke="black" fill="none" marker-end="url(#arrowhead)"/>
<path d="M 578.0 200 Q 560.0 180, 542.0 200" stroke="black" fill="none" marker-end="url(#arrowhead)"/>
<path d="M 578.0 200 Q 572.0 180, 566.0 200" stroke="black" fill="none" marker-end="url(#arrowhead)"/>
<path d="M 590.0 200 Q 584.0 180, 578.0 200" stroke="black" fill="none" marker-end="url(#arrowhead)"/>
<path d="M 602.0 200 Q 596.0 180, 590.0 200" stroke="black" fill="none" marker-end="url(#arrowhead)"/>
<path d="M 642.4640371210373 200 Q 622.2320185605187 180, 602.0 200" stroke="black" fill="none" marker-end="url(#arrowhead)"/>
<path d="M 666.4640371210373 200 Q 660.4640371210373 180, 654.4640371210373 200" stroke="black" fill="none" marker-end="url(#arrowhead)"/>
<path d="M 678.4640371210373 200 Q 672.4640371210373 180, 666.4640371210373 200" stroke="black" fill="none" marker-end="url(#arrowhead)"/>
<path d="M 702.4640371210373 200 Q 690.4640371210373 180, 678.4640371210373 200" stroke="black" fill="none" marker-end="url(#arrowhead)"/>
<path d="M 714.4640371210373 200 Q 696.4640371210373 180, 678.4640371210373 200" stroke="black" fill="none" marker-end="url(#arrowhead)"/>
<path d="M 726.4640371210373 200 Q 708.4640371210373 180, 690.4640371210373 200" stroke="black" fill="none" marker-end="url(#arrowhead)"/>
<path d="M 738.4640371210373 200 Q 732.4640371210373 180, 726.4640371210373 200" stroke="black" fill="none" marker-end="url(#arrowhead)"/>
<path d="M 762.4640371210373 200 Q 756.4640371210373 180, 750.4640371210373 200" stroke="black" fill="none" marker-end="url(#arrowhead)"/>
<path d="M 774.4640371210373 200 Q 762.4640371210373 180, 750.4640371210373 200" stroke="black" fill="none" marker-end="url(#arrowhead)"/>
<path d="M 774.4640371210373 200 Q 768.4640371210373 180, 762.4640371210373 200" stroke="black" fill="none" marker-end="url(#arrowhead)"/>
<path d="M 786.4640371210373 200 Q 780.4640371210373 180, 774.4640371210373 200" stroke="black" fill="none" marker-end="url(#arrowhead)"/>
<path d="M 810.4640371210373 200 Q 804.4640371210373 180, 798.4640371210373 200" stroke="black" fill="none" marker-end="url(#arrowhead)"/>
<path d="M 846.4640371210373 200 Q 840.4640371210373 180, 834.4640371210373 200" stroke="black" fill="none" marker-end="url(#arrowhead)"/>
<path d="M 858.4640371210373 200 Q 852.4640371210373 180, 846.4640371210373 200" stroke="black" fill="none" marker-end="url(#arrowhead)"/>
<path d="M 870.4640371210373 200 Q 834.4640371210373 180, 798.4640371210373 200" stroke="black" fill="none" marker-end="url(#arrowhead)"/>
<path d="M 870.4640371210373 200 Q 810.4640371210373 180, 750.4640371210373 200" stroke="black" fill="none" marker-end="url(#arrowhead)"/>
<path d="M 882.4640371210373 200 Q 852.4640371210373 180, 822.4640371210373 200" stroke="black" fill="none" marker-end="url(#arrowhead)"/>
<path d="M 918.4640371210373 200 Q 906.4640371210373 180, 894.4640371210373 200" stroke="black" fill="none" marker-end="url(#arrowhead)"/>
<path d="M 950.0 200 Q 940.2320185605187 180, 930.4640371210373 200" stroke="black" fill="none" marker-end="url(#arrowhead)"/>

<defs>
  <marker id="arrowhead" markerWidth="5" markerHeight="5" 
          refX="2" refY="2" orient="auto" fill="black">
    <path d="M0,0 L0,4 L4,2 z" />
  </marker>
</defs>

<circle cx="50.0" cy="200" r="6" fill="none" stroke="black" stroke-width="2" />
<circle cx="50.0" cy="200" r="3" fill="black" />
<circle cx="62.0" cy="200" r="4" fill="red" />
<circle cx="74.0" cy="200" r="4" fill="red" />
<circle cx="86.0" cy="200" r="4" fill="black" />
<circle cx="98.0" cy="200" r="4" fill="black" />
<circle cx="110.0" cy="200" r="6" fill="none" stroke="black" stroke-width="2" />
<circle cx="110.0" cy="200" r="3" fill="black" />
<circle cx="122.0" cy="200" r="6" fill="none" stroke="red" stroke-width="2" />
<circle cx="122.0" cy="200" r="3" fill="red" />
<circle cx="134.0" cy="200" r="4" fill="black" />
<circle cx="146.0" cy="200" r="4" fill="red" />
<circle cx="158.0" cy="200" r="6" fill="none" stroke="blue" stroke-width="2" />
<circle cx="158.0" cy="200" r="3" fill="blue" />
<circle cx="170.0" cy="200" r="6" fill="none" stroke="blue" stroke-width="2" />
<circle cx="170.0" cy="200" r="3" fill="blue" />
<circle cx="182.0" cy="200" r="4" fill="red" />
<circle cx="194.0" cy="200" r="6" fill="none" stroke="red" stroke-width="2" />
<circle cx="194.0" cy="200" r="3" fill="red" />
<circle cx="206.0" cy="200" r="4" fill="red" />
<circle cx="218.0" cy="200" r="6" fill="none" stroke="black" stroke-width="2" />
<circle cx="218.0" cy="200" r="3" fill="black" />
<circle cx="230.0" cy="200" r="6" fill="none" stroke="black" stroke-width="2" />
<circle cx="230.0" cy="200" r="3" fill="black" />
<circle cx="242.0" cy="200" r="4" fill="black" />
<circle cx="254.0" cy="200" r="6" fill="none" stroke="black" stroke-width="2" />
<circle cx="254.0" cy="200" r="3" fill="black" />
<circle cx="266.0" cy="200" r="4" fill="black" />
<circle cx="278.0" cy="200" r="6" fill="none" stroke="blue" stroke-width="2" />
<circle cx="278.0" cy="200" r="3" fill="blue" />
<circle cx="290.0" cy="200" r="4" fill="black" />
<circle cx="302.0" cy="200" r="4" fill="black" />
<circle cx="314.0" cy="200" r="4" fill="black" />
<circle cx="326.0" cy="200" r="6" fill="none" stroke="black" stroke-width="2" />
<circle cx="326.0" cy="200" r="3" fill="black" />
<circle cx="338.0" cy="200" r="6" fill="none" stroke="blue" stroke-width="2" />
<circle cx="338.0" cy="200" r="3" fill="blue" />
<circle cx="350.0" cy="200" r="6" fill="none" stroke="blue" stroke-width="2" />
<circle cx="350.0" cy="200" r="3" fill="blue" />
<circle cx="362.0" cy="200" r="4" fill="black" />
<circle cx="374.0" cy="200" r="6" fill="none" stroke="black" stroke-width="2" />
<circle cx="374.0" cy="200" r="3" fill="black" />
<circle cx="386.0" cy="200" r="4" fill="black" />
<circle cx="398.0" cy="200" r="4" fill="black" />
<circle cx="410.0" cy="200" r="4" fill="black" />
<circle cx="422.0" cy="200" r="6" fill="none" stroke="blue" stroke-width="2" />
<circle cx="422.0" cy="200" r="3" fill="blue" />
<circle cx="434.0" cy="200" r="6" fill="none" stroke="black" stroke-width="2" />
<circle cx="434.0" cy="200" r="3" fill="black" />
<circle cx="446.0" cy="200" r="4" fill="green" />
<circle cx="458.0" cy="200" r="4" fill="black" />
<circle cx="470.0" cy="200" r="4" fill="black" />
<circle cx="482.0" cy="200" r="4" fill="green" />
<circle cx="494.0" cy="200" r="4" fill="green" />
<circle cx="506.0" cy="200" r="6" fill="none" stroke="blue" stroke-width="2" />
<circle cx="506.0" cy="200" r="3" fill="blue" />
<circle cx="518.0" cy="200" r="6" fill="none" stroke="blue" stroke-width="2" />
<circle cx="518.0" cy="200" r="3" fill="blue" />
<circle cx="530.0" cy="200" r="6" fill="none" stroke="black" stroke-width="2" />
<circle cx="530.0" cy="200" r="3" fill="black" />
<circle cx="542.0" cy="200" r="6" fill="none" stroke="blue" stroke-width="2" />
<circle cx="542.0" cy="200" r="3" fill="blue" />
<circle cx="554.0" cy="200" r="4" fill="blue" />
<circle cx="566.0" cy="200" r="4" fill="red" />
<circle cx="578.0" cy="200" r="6" fill="none" stroke="black" stroke-width="2" />
<circle cx="578.0" cy="200" r="3" fill="black" />
<circle cx="590.0" cy="200" r="4" fill="black" />
<circle cx="602.0" cy="200" r="6" fill="none" stroke="blue" stroke-width="2" />
<circle cx="602.0" cy="200" r="3" fill="blue" />
<circle cx="642.4640371210373" cy="200" r="6" fill="none" stroke="blue" stroke-width="2" />
<circle cx="642.4640371210373" cy="200" r="3" fill="blue" />
<circle cx="654.4640371210373" cy="200" r="4" fill="red" />
<circle cx="666.4640371210373" cy="200" r="6" fill="none" stroke="blue" stroke-width="2" />
<circle cx="666.4640371210373" cy="200" r="3" fill="blue" />
<circle cx="678.4640371210373" cy="200" r="4" fill="red" />
<circle cx="690.4640371210373" cy="200" r="4" fill="black" />
<circle cx="702.4640371210373" cy="200" r="4" fill="red" />
<circle cx="714.4640371210373" cy="200" r="6" fill="none" stroke="blue" stroke-width="2" />
<circle cx="714.4640371210373" cy="200" r="3" fill="blue" />
<circle cx="726.4640371210373" cy="200" r="6" fill="none" stroke="black" stroke-width="2" />
<circle cx="726.4640371210373" cy="200" r="3" fill="black" />
<circle cx="738.4640371210373" cy="200" r="4" fill="black" />
<circle cx="750.4640371210373" cy="200" r="4" fill="red" />
<circle cx="762.4640371210373" cy="200" r="6" fill="none" stroke="blue" stroke-width="2" />
<circle cx="762.4640371210373" cy="200" r="3" fill="blue" />
<circle cx="774.4640371210373" cy="200" r="4" fill="black" />
<circle cx="786.4640371210373" cy="200" r="6" fill="none" stroke="blue" stroke-width="2" />
<circle cx="786.4640371210373" cy="200" r="3" fill="blue" />
<circle cx="798.4640371210373" cy="200" r="4" fill="red" />
<circle cx="810.4640371210373" cy="200" r="4" fill="blue" />
<circle cx="822.4640371210373" cy="200" r="4" fill="blue" />
<circle cx="834.4640371210373" cy="200" r="4" fill="black" />
<circle cx="846.4640371210373" cy="200" r="4" fill="red" />
<circle cx="858.4640371210373" cy="200" r="6" fill="none" stroke="blue" stroke-width="2" />
<circle cx="858.4640371210373" cy="200" r="3" fill="blue" />
<circle cx="870.4640371210373" cy="200" r="6" fill="none" stroke="blue" stroke-width="2" />
<circle cx="870.4640371210373" cy="200" r="3" fill="blue" />
<circle cx="882.4640371210373" cy="200" r="6" fill="none" stroke="green" stroke-width="2" />
<circle cx="882.4640371210373" cy="200" r="3" fill="green" />
<circle cx="894.4640371210373" cy="200" r="4" fill="red" />
<circle cx="906.4640371210373" cy="200" r="4" fill="blue" />
<circle cx="918.4640371210373" cy="200" r="6" fill="none" stroke="blue" stroke-width="2" />
<circle cx="918.4640371210373" cy="200" r="3" fill="blue" />
<circle cx="930.4640371210373" cy="200" r="4" fill="blue" />
<circle cx="950.0" cy="200" r="6" fill="none" stroke="blue" stroke-width="2" />
<circle cx="950.0" cy="200" r="3" fill="blue" />
<text x="50" y="225" fill="gray" style="font-size:12px;">2024-09-09T21:38:35+00:00</text>
<text x="900" y="225" fill="gray" style="font-size:12px;">2025-02-23T15:41:11+00:00</text>
</svg>