<svg xmlns="http://www.w3.org/2000/svg" width="1000" height="400" style="background-color: white; font-family: sans-serif;">
<line x1="50" y1="200" x2="950" y2="200" stroke="gray" stroke-width="1"/>
<path d="M 62.0 200 Q 56.0 180, 50.0 200" stroke="black" fill="none" marker-end="url(#arrowhead)"/>
<path d="M 86.0 200 Q 80.0 180, 74.0 200" stroke="black" fill="none" marker-end="url(#arrowhead)"/>
<path d="M 98.0 200 Q 86.0 180, 74.0 200" stroke="black" fill="none" marker-end="url(#arrowhead)"/>
<path d="M 98.0 200 Q 92.0 180, 86.0 200" stroke="black" fill="none" marker-end="url(#arrowhead)"/>
<path d="M 110.0 200 Q 104.0 180, 98.0 200" stroke="black" fill="none" marker-end="url(#arrowhead)"/>
<path d="M 122.0 200 Q 116.0 180, 110.0 200" stroke="black" fill="none" marker-end="url(#arrowhead)"/>
<path d="M 134.0 200 Q 128.0 180, 122.0 200" stroke="black" fill="none" marker-end="url(#arrowhead)"/>
<path d="M 158.0 200 Q 134.0 180, 110.0 200" stroke="black" fill="none" marker-end="url(#arrowhead)"/>
<path d="M 170.0 200 Q 164.0 180, 158.0 200" stroke="black" fill="none" marker-end="url(#arrowhead)"/>
<path d="M 182.0 200 Q 176.0 180, 170.0 200" stroke="black" fill="none" marker-end="url(#arrowhead)"/>
<path d="M 194.0 200 Q 182.0 180, 170.0 200" stroke="black" fill="none" marker-end="url(#arrowhead)"/>
<path d="M 206.0 200 Q 158.0 180, 110.0 200" stroke="black" fill="none" marker-end="url(#arrowhead)"/>
<path d="M 230.0 200 Q 224.0 180, 218.0 200" stroke="black" fill="none" marker-end="url(#arrowhead)"/>
<path d="M 254.0 200 Q 242.0 180, 230.0 200" stroke="black" fill="none" marker-end="url(#arrowhead)"/>
<path d="M 266.0 200 Q 254.0 180, 242.0 200" stroke="black" fill="none" marker-end="url(#arrowhead)"/>
<path d="M 278.0 200 Q 272.0 180, 266.0 200" stroke="black" fill="none" marker-end="url(#arrowhead)"/>
<path d="M 290.0 200 Q 284.0 180, 278.0 200" stroke="black" fill="none" marker-end="url(#arrowhead)"/>
<path d="M 302.0 200 Q 296.0 180, 290.0 200" stroke="black" fill="none" marker-end="url(#arrowhead)"/>
<path d="M 314.0 200 Q 308.0 180, 302.0 200" stroke="black" fill="none" marker-end="url(#arrowhead)"/>
<path d="M 342.90644799591706 200 Q 328.4532239979585 180, 314.0 200" stroke="black" fill="none" marker-end="url(#arrowhead)"/>
<path d="M 390.90644799591706 200 Q 304.4532239979585 180, 218.0 200" stroke="black" fill="none" marker-end="url(#arrowhead)"/>
<path d="M 551.044222248553 200 Q 545.044222248553 180, 539.044222248553 200" stroke="black" fill="none" marker-end="url(#arrowhead)"/>
<path d="M 592.9027377190438 200 Q 565.9734799837984 180, 539.044222248553 200" stroke="black" fill="none" marker-end="url(#arrowhead)"/>
<path d="M 606.9369702978097 200 Q 572.9905962731814 180, 539.044222248553 200" stroke="black" fill="none" marker-end="url(#arrowhead)"/>
<path d="M 606.9369702978097 200 Q 578.9905962731814 180, 551.044222248553 200" stroke="black" fill="none" marker-end="url(#arrowhead)"/>
<path d="M 742.0693453555396 200 Q 640.5567838020463 180, 539.044222248553 200" stroke="black" fill="none" marker-end="url(#arrowhead)"/>
<path d="M 863.5822363013971 200 Q 851.5822363013971 180, 839.5822363013971 200" stroke="black" fill="none" marker-end="url(#arrowhead)"/>
<path d="M 911.5822363013971 200 Q 899.5822363013971 180, 887.5822363013971 200" stroke="black" fill="none" marker-end="url(#arrowhead)"/>
<path d="M 923.5822363013971 200 Q 917.5822363013971 180, 911.5822363013971 200" stroke="black" fill="none" marker-end="url(#arrowhead)"/>
<path d="M 947.5822363013971 200 Q 743.313229274975 180, 539.044222248553 200" stroke="black" fill="none" marker-end="url(#arrowhead)"/>
<path d="M 947.5822363013971 200 Q 941.5822363013971 180, 935.5822363013971 200" stroke="black" fill="none" marker-end="url(#arrowhead)"/>
<path d="M 959.5822363013971 200 Q 953.5822363013971 180, 947.5822363013971 200" stroke="black" fill="none" marker-end="url(#arrowhead)"/>

<defs>
  <marker id="arrowhead" markerWidth="5" markerHeight="5" 
          refX="2" refY="2" orient="auto" fill="black">
    <path d="M0,0 L0,4 L4,2 z" />
  </marker>
</defs>

<circle cx="50.0" cy="200" r="6" fill="none" stroke="black" stroke-width="2" />
<circle cx="50.0" cy="200" r="3" fill="black" />
<circle cx="62.0" cy="200" r="4" fill="black" />
<circle cx="74.0" cy="200" r="6" fill="none" stroke="black" stroke-width="2" />
<circle cx="74.0" cy="200" r="3" fill="black" />
<circle cx="86.0" cy="200" r="4" fill="red" />
<circle cx="98.0" cy="200" r="6" fill="none" stroke="black" stroke-width="2" />
<circle cx="98.0" cy="200" r="3" fill="black" />
<circle cx="110.0" cy="200" r="4" fill="black" />
<circle cx="122.0" cy="200" r="6" fill="none" stroke="black" stroke-width="2" />
<circle cx="122.0" cy="200" r="3" fill="black" />
<circle cx="134.0" cy="200" r="6" fill="none" stroke="black" stroke-width="2" />
<circle cx="134.0" cy="200" r="3" fill="black" />
<circle cx="146.0" cy="200" r="6" fill="none" stroke="black" stroke-width="2" />
<circle cx="146.0" cy="200" r="3" fill="black" />
<circle cx="158.0" cy="200" r="6" fill="none" stroke="black" stroke-width="2" />
<circle cx="158.0" cy="200" r="3" fill="black" />
<circle cx="170.0" cy="200" r="4" fill="red" />
<circle cx="182.0" cy="200" r="6" fill="none" stroke="black" stroke-width="2" />
<circle cx="182.0" cy="200" r="3" fill="black" />
<circle cx="194.0" cy="200" r="6" fill="none" stroke="black" stroke-width="2" />
<circle cx="194.0" cy="200" r="3" fill="black" />
<circle cx="206.0" cy="200" r="6" fill="none" stroke="black" stroke-width="2" />
<circle cx="206.0" cy="200" r="3" fill="black" />
<circle cx="218.0" cy="200" r="4" fill="black" />
<circle cx="230.0" cy="200" r="6" fill="none" stroke="red" stroke-width="2" />
<circle cx="230.0" cy="200" r="3" fill="red" />
<circle cx="242.0" cy="200" r="6" fill="none" stroke="black" stroke-width="2" />
<circle cx="242.0" cy="200" r="3" fill="black" />
<circle cx="254.0" cy="200" r="4" fill="black" />
<circle cx="266.0" cy="200" r="4" fill="black" />
<circle cx="278.0" cy="200" r="6" fill="none" stroke="black" stroke-width="2" />
<circle cx="278.0" cy="200" r="3" fill="black" />
<circle cx="290.0" cy="200" r="4" fill="red" />
<circle cx="302.0" cy="200" r="6" fill="none" stroke="black" stroke-width="2" />
<circle cx="302.0" cy="200" r="3" fill="black" />
<circle cx="314.0" cy="200" r="4" fill="black" />
<circle cx="342.90644799591706" cy="200" r="6" fill="none" stroke="black" stroke-width="2" />
<circle cx="342.90644799591706" cy="200" r="3" fill="black" />
<circle cx="354.90644799591706" cy="200" r="6" fill="none" stroke="blue" stroke-width="2" />
<circle cx="354.90644799591706" cy="200" r="3" fill="blue" />
<circle cx="366.90644799591706" cy="200" r="6" fill="none" stroke="blue" stroke-width="2" />
<circle cx="366.90644799591706" cy="200" r="3" fill="blue" />
<circle cx="378.90644799591706" cy="200" r="6" fill="none" stroke="blue" stroke-width="2" />
<circle cx="378.90644799591706" cy="200" r="3" fill="blue" />
<circle cx="390.90644799591706" cy="200" r="6" fill="none" stroke="blue" stroke-width="2" />
<circle cx="390.90644799591706" cy="200" r="3" fill="blue" />
<circle cx="421.32537587912503" cy="200" r="6" fill="none" stroke="blue" stroke-width="2" />
<circle cx="421.32537587912503" cy="200" r="3" fill="blue" />
<circle cx="539.044222248553" cy="200" r="4" fill="red" />
<circle cx="551.044222248553" cy="200" r="6" fill="none" stroke="red" stroke-width="2" />
<circle cx="551.044222248553" cy="200" r="3" fill="red" />
<circle cx="592.9027377190438" cy="200" r="6" fill="none" stroke="blue" stroke-width="2" />
<circle cx="592.9027377190438" cy="200" r="3" fill="blue" />
<circle cx="606.9369702978097" cy="200" r="6" fill="none" stroke="blue" stroke-width="2" />
<circle cx="606.9369702978097" cy="200" r="3" fill="blue" />
<circle cx="742.0693453555396" cy="200" r="6" fill="none" stroke="blue" stroke-width="2" />
<circle cx="742.0693453555396" cy="200" r="3" fill="blue" />
<circle cx="782.4998914994709" cy="200" r="6" fill="none" stroke="blue" stroke-width="2" />
<circle cx="782.4998914994709" cy="200" r="3" fill="blue" />
<circle cx="798.721783544934" cy="200" r="6" fill="none" stroke="blue" stroke-width="2" />
<circle cx="798.721783544934" cy="200" r="3" fill="blue" />
<circle cx="815.5822363013971" cy="200" r="6" fill="none" stroke="blue" stroke-width="2" />
<circle cx="815.5822363013971" cy="200" r="3" fill="blue" />
<circle cx="827.5822363013971" cy="200" r="6" fill="none" stroke="blue" stroke-width="2" />
<circle cx="827.5822363013971" cy="200" r="3" fill="blue" />
<circle cx="839.5822363013971" cy="200" r="6" fill="none" stroke="blue" stroke-width="2" />
<circle cx="839.5822363013971" cy="200" r="3" fill="blue" />
<circle cx="851.5822363013971" cy="200" r="6" fill="none" stroke="blue" stroke-width="2" />
<circle cx="851.5822363013971" cy="200" r="3" fill="blue" />
<circle cx="863.5822363013971" cy="200" r="4" fill="red" />
<circle cx="875.5822363013971" cy="200" r="6" fill="none" stroke="blue" stroke-width="2" />
<circle cx="875.5822363013971" cy="200" r="3" fill="blue" />
<circle cx="887.5822363013971" cy="200" r="6" fill="none" stroke="blue" stroke-width="2" />
<circle cx="887.5822363013971" cy="200" r="3" fill="blue" />
<circle cx="899.5822363013971" cy="200" r="6" fill="none" stroke="black" stroke-width="2" />
<circle cx="899.5822363013971" cy="200" r="3" fill="black" />
<circle cx="911.5822363013971" cy="200" r="4" fill="red" />
<circle cx="923.5822363013971" cy="200" r="6" fill="none" stroke="black" stroke-width="2" />
<circle cx="923.5822363013971" cy="200" r="3" fill="black" />
<circle cx="935.5822363013971" cy="200" r="6" fill="none" stroke="blue" stroke-width="2" />
<circle cx="935.5822363013971" cy="200" r="3" fill="blue" />
<circle cx="947.5822363013971" cy="200" r="6" fill="none" stroke="blue" stroke-width="2" />
<circle cx="947.5822363013971" cy="200" r="3" fill="blue" />
<circle cx="959.5822363013971" cy="200" r="6" fill="none" stroke="blue" stroke-width="2" />
<circle cx="959.5822363013971" cy="200" r="3" fill="blue" />
<circle cx="971.5822363013971" cy="200" r="6" fill="none" stroke="blue" stroke-width="2" />
<circle cx="971.5822363013971" cy="200" r="3" fill="blue" />
<circle cx="983.5822363013971" cy="200" r="4" fill="blue" />
<text x="50" y="225" fill="gray" style="font-size:12px;">2023-12-15T19:07:29+00:00</text>
<text x="900" y="225" fill="gray" style="font-size:12px;">2025-02-20T14:56:20+00:00</text>
</svg>