<svg xmlns="http://www.w3.org/2000/svg" width="1000" height="200" style="background-color: white; font-family: sans-serif;">
<line x1="50" y1="100" x2="950" y2="100" stroke="gray" stroke-width="1"/>
<path d="M 62.0 100 Q 56.0 80, 50.0 100" stroke="black" fill="none" marker-end="url(#arrowhead)"/>
<path d="M 86.0 100 Q 80.0 80, 74.0 100" stroke="black" fill="none" marker-end="url(#arrowhead)"/>
<path d="M 98.0 100 Q 92.0 80, 86.0 100" stroke="black" fill="none" marker-end="url(#arrowhead)"/>
<path d="M 110.0 100 Q 104.0 80, 98.0 100" stroke="black" fill="none" marker-end="url(#arrowhead)"/>
<path d="M 122.0 100 Q 116.0 80, 110.0 100" stroke="black" fill="none" marker-end="url(#arrowhead)"/>
<path d="M 134.0 100 Q 116.0 80, 98.0 100" stroke="black" fill="none" marker-end="url(#arrowhead)"/>
<path d="M 146.0 100 Q 134.0 80, 122.0 100" stroke="black" fill="none" marker-end="url(#arrowhead)"/>
<path d="M 158.0 100 Q 152.0 80, 146.0 100" stroke="black" fill="none" marker-end="url(#arrowhead)"/>

<defs>
  <marker id="arrowhead" markerWidth="5" markerHeight="5" 
          refX="2" refY="2" orient="auto" fill="black">
    <path d="M0,0 L0,4 L4,2 z" />
  </marker>
</defs>

<circle cx="50.0" cy="100" r="6" fill="none" stroke="blue" stroke-width="2" />
<circle cx="50.0" cy="100" r="3" fill="blue" />
<circle cx="62.0" cy="100" r="4" fill="black" />
<circle cx="74.0" cy="100" r="6" fill="none" stroke="black" stroke-width="2" />
<circle cx="74.0" cy="100" r="3" fill="black" />
<circle cx="86.0" cy="100" r="6" fill="none" stroke="blue" stroke-width="2" />
<circle cx="86.0" cy="100" r="3" fill="blue" />
<circle cx="98.0" cy="100" r="6" fill="none" stroke="blue" stroke-width="2" />
<circle cx="98.0" cy="100" r="3" fill="blue" />
<circle cx="110.0" cy="100" r="4" fill="blue" />
<circle cx="122.0" cy="100" r="6" fill="none" stroke="black" stroke-width="2" />
<circle cx="122.0" cy="100" r="3" fill="black" />
<circle cx="134.0" cy="100" r="4" fill="blue" />
<circle cx="146.0" cy="100" r="4" fill="black" />
<circle cx="158.0" cy="100" r="6" fill="none" stroke="red" stroke-width="2" />
<circle cx="158.0" cy="100" r="3" fill="red" />
<circle cx="170.0" cy="100" r="6" fill="none" stroke="black" stroke-width="2" />
<circle cx="170.0" cy="100" r="3" fill="black" />
<circle cx="251.70482620126566" cy="100" r="6" fill="none" stroke="blue" stroke-width="2" />
<circle cx="251.70482620126566" cy="100" r="3" fill="blue" />
<circle cx="283.7137517829979" cy="100" r="6" fill="none" stroke="blue" stroke-width="2" />
<circle cx="283.7137517829979" cy="100" r="3" fill="blue" />
<circle cx="312.86585340852713" cy="100" r="6" fill="none" stroke="blue" stroke-width="2" />
<circle cx="312.86585340852713" cy="100" r="3" fill="blue" />
<circle cx="604.5015509974994" cy="100" r="6" fill="none" stroke="blue" stroke-width="2" />
<circle cx="604.5015509974994" cy="100" r="3" fill="blue" />
<circle cx="653.7781561056546" cy="100" r="6" fill="none" stroke="blue" stroke-width="2" />
<circle cx="653.7781561056546" cy="100" r="3" fill="blue" />
<circle cx="816.8060567488778" cy="100" r="6" fill="none" stroke="blue" stroke-width="2" />
<circle cx="816.8060567488778" cy="100" r="3" fill="blue" />
<circle cx="833.1941710375078" cy="100" r="6" fill="none" stroke="blue" stroke-width="2" />
<circle cx="833.1941710375078" cy="100" r="3" fill="blue" />
<circle cx="950.0" cy="100" r="4" fill="blue" />
<text x="50" y="125" fill="gray" style="font-size:12px;">2024-06-11T11:00:00+00:00</text>
<text x="900" y="125" fill="gray" style="font-size:12px;">2025-02-20T12:19:50+00:00</text>
</svg>