<svg xmlns="http://www.w3.org/2000/svg" width="1000" height="200" style="background-color: white; font-family: sans-serif;">
<line x1="50" y1="100" x2="950" y2="100" stroke="gray" stroke-width="1"/>
<path d="M 134.60599707510028 100 Q 128.60599707510028 80, 122.60599707510029 100" stroke="black" fill="none" marker-end="url(#arrowhead)"/>
<path d="M 146.60599707510028 100 Q 140.60599707510028 80, 134.60599707510028 100" stroke="black" fill="none" marker-end="url(#arrowhead)"/>
<path d="M 158.60599707510028 100 Q 152.60599707510028 80, 146.60599707510028 100" stroke="black" fill="none" marker-end="url(#arrowhead)"/>
<path d="M 170.60599707510028 100 Q 164.60599707510028 80, 158.60599707510028 100" stroke="black" fill="none" marker-end="url(#arrowhead)"/>
<path d="M 182.60599707510028 100 Q 176.60599707510028 80, 170.60599707510028 100" stroke="black" fill="none" marker-end="url(#arrowhead)"/>
<path d="M 194.60599707510028 100 Q 188.60599707510028 80, 182.60599707510028 100" stroke="black" fill="none" marker-end="url(#arrowhead)"/>
<path d="M 206.60599707510028 100 Q 164.60599707510028 80, 122.60599707510029 100" stroke="black" fill="none" marker-end="url(#arrowhead)"/>
<path d="M 218.60599707510028 100 Q 212.60599707510028 80, 206.60599707510028 100" stroke="black" fill="none" marker-end="url(#arrowhead)"/>
<path d="M 230.60599707510028 100 Q 224.60599707510028 80, 218.60599707510028 100" stroke="black" fill="none" marker-end="url(#arrowhead)"/>
<path d="M 242.60599707510028 100 Q 236.60599707510028 80, 230.60599707510028 100" stroke="black" fill="none" marker-end="url(#arrowhead)"/>

<defs>
  <marker id="arrowhead" markerWidth="5" markerHeight="5" 
          refX="2" refY="2" orient="auto" fill="black">
    <path d="M0,0 L0,4 L4,2 z" />
  </marker>
</defs>

<circle cx="50.0" cy="100" r="6" fill="none" stroke="blue" stroke-width="2" />
<circle cx="50.0" cy="100" r="3" fill="blue" />
<circle cx="79.22826853343116" cy="100" r="6" fill="none" stroke="black" stroke-width="2" />
<circle cx="79.22826853343116" cy="100" r="3" fill="black" />
<circle cx="92.75803198106303" cy="100" r="6" fill="none" stroke="black" stroke-width="2" />
<circle cx="92.75803198106303" cy="100" r="3" fill="black" />
<circle cx="122.60599707510029" cy="100" r="6" fill="none" stroke="black" stroke-width="2" />
<circle cx="122.60599707510029" cy="100" r="3" fill="black" />
<circle cx="134.60599707510028" cy="100" r="4" fill="black" />
<circle cx="146.60599707510028" cy="100" r="6" fill="none" stroke="black" stroke-width="2" />
<circle cx="146.60599707510028" cy="100" r="3" fill="black" />
<circle cx="158.60599707510028" cy="100" r="4" fill="black" />
<circle cx="170.60599707510028" cy="100" r="6" fill="none" stroke="blue" stroke-width="2" />
<circle cx="170.60599707510028" cy="100" r="3" fill="blue" />
<circle cx="182.60599707510028" cy="100" r="4" fill="black" />
<circle cx="194.60599707510028" cy="100" r="6" fill="none" stroke="red" stroke-width="2" />
<circle cx="194.60599707510028" cy="100" r="3" fill="red" />
<circle cx="206.60599707510028" cy="100" r="4" fill="black" />
<circle cx="218.60599707510028" cy="100" r="6" fill="none" stroke="blue" stroke-width="2" />
<circle cx="218.60599707510028" cy="100" r="3" fill="blue" />
<circle cx="230.60599707510028" cy="100" r="4" fill="black" />
<circle cx="242.60599707510028" cy="100" r="6" fill="none" stroke="green" stroke-width="2" />
<circle cx="242.60599707510028" cy="100" r="3" fill="green" />
<circle cx="469.6576175684635" cy="100" r="6" fill="none" stroke="black" stroke-width="2" />
<circle cx="469.6576175684635" cy="100" r="3" fill="black" />
<circle cx="609.4609849496421" cy="100" r="6" fill="none" stroke="blue" stroke-width="2" />
<circle cx="609.4609849496421" cy="100" r="3" fill="blue" />
<circle cx="856.343854097709" cy="100" r="6" fill="none" stroke="blue" stroke-width="2" />
<circle cx="856.343854097709" cy="100" r="3" fill="blue" />
<circle cx="950.0" cy="100" r="6" fill="none" stroke="black" stroke-width="2" />
<circle cx="950.0" cy="100" r="3" fill="black" />
<text x="50" y="125" fill="gray" style="font-size:12px;">2024-07-14T18:01:50+00:00</text>
<text x="900" y="125" fill="gray" style="font-size:12px;">2025-02-11T23:39:09+00:00</text>
</svg>