<svg xmlns="http://www.w3.org/2000/svg" width="1000" height="400" style="background-color: white; font-family: sans-serif;">
<line x1="50" y1="200" x2="950" y2="200" stroke="gray" stroke-width="1"/>
<path d="M 243.90022073821564 200 Q 146.95011036910782 180, 50.0 200" stroke="black" fill="none" marker-end="url(#arrowhead)"/>
<path d="M 389.0358769454301 200 Q 316.4680488418229 180, 243.90022073821564 200" stroke="black" fill="none" marker-end="url(#arrowhead)"/>
<path d="M 521.5321188074547 200 Q 515.5321188074547 180, 509.53211880745476 200" stroke="black" fill="none" marker-end="url(#arrowhead)"/>
<path d="M 521.5321188074547 200 Q 285.76605940372735 180, 50.0 200" stroke="black" fill="none" marker-end="url(#arrowhead)"/>
<path d="M 533.5321188074547 200 Q 527.5321188074547 180, 521.5321188074547 200" stroke="black" fill="none" marker-end="url(#arrowhead)"/>
<path d="M 545.5321188074547 200 Q 533.5321188074547 180, 521.5321188074547 200" stroke="black" fill="none" marker-end="url(#arrowhead)"/>
<path d="M 950.0 200 Q 735.7660594037274 180, 521.5321188074547 200" stroke="black" fill="none" marker-end="url(#arrowhead)"/>
<path d="M 950.0 200 Q 747.7660594037274 180, 545.5321188074547 200" stroke="black" fill="none" marker-end="url(#arrowhead)"/>

<defs>
  <marker id="arrowhead" markerWidth="5" markerHeight="5" 
          refX="2" refY="2" orient="auto" fill="black">
    <path d="M0,0 L0,4 L4,2 z" />
  </marker>
</defs>

<circle cx="50.0" cy="200" r="6" fill="none" stroke="blue" stroke-width="2" />
<circle cx="50.0" cy="200" r="3" fill="blue" />
<circle cx="243.90022073821564" cy="200" r="4" fill="red" />
<circle cx="389.0358769454301" cy="200" r="6" fill="none" stroke="blue" stroke-width="2" />
<circle cx="389.0358769454301" cy="200" r="3" fill="blue" />
<circle cx="509.53211880745476" cy="200" r="6" fill="none" stroke="blue" stroke-width="2" />
<circle cx="509.53211880745476" cy="200" r="3" fill="blue" />
<circle cx="521.5321188074547" cy="200" r="4" fill="red" />
<circle cx="533.5321188074547" cy="200" r="4" fill="red" />
<circle cx="545.5321188074547" cy="200" r="4" fill="red" />
<circle cx="950.0" cy="200" r="6" fill="none" stroke="blue" stroke-width="2" />
<circle cx="950.0" cy="200" r="3" fill="blue" />
<text x="50" y="225" fill="gray" style="font-size:12px;">2025-01-13T10:30:42+00:00</text>
<text x="900" y="225" fill="gray" style="font-size:12px;">2025-01-21T17:20:22+00:00</text>
</svg>