<svg xmlns="http://www.w3.org/2000/svg" width="1000" height="200" style="background-color: white; font-family: sans-serif;">
<line x1="50" y1="100" x2="950" y2="100" stroke="gray" stroke-width="1"/>
<path d="M 62.0 100 Q 56.0 80, 50.0 100" stroke="black" fill="none" marker-end="url(#arrowhead)"/>
<path d="M 74.0 100 Q 62.0 80, 50.0 100" stroke="black" fill="none" marker-end="url(#arrowhead)"/>
<path d="M 144.26391875966112 100 Q 97.13195937983056 80, 50.0 100" stroke="black" fill="none" marker-end="url(#arrowhead)"/>
<path d="M 144.26391875966112 100 Q 109.13195937983056 80, 74.0 100" stroke="black" fill="none" marker-end="url(#arrowhead)"/>
<path d="M 168.01155175226063 100 Q 109.00577587613031 80, 50.0 100" stroke="black" fill="none" marker-end="url(#arrowhead)"/>
<path d="M 326.18272594996256 100 Q 247.0971388511116 80, 168.01155175226063 100" stroke="black" fill="none" marker-end="url(#arrowhead)"/>
<path d="M 326.18272594996256 100 Q 188.09136297498128 80, 50.0 100" stroke="black" fill="none" marker-end="url(#arrowhead)"/>

<defs>
  <marker id="arrowhead" markerWidth="5" markerHeight="5" 
          refX="2" refY="2" orient="auto" fill="black">
    <path d="M0,0 L0,4 L4,2 z" />
  </marker>
</defs>

<circle cx="50.0" cy="100" r="6" fill="none" stroke="black" stroke-width="2" />
<circle cx="50.0" cy="100" r="3" fill="black" />
<circle cx="62.0" cy="100" r="4" fill="black" />
<circle cx="74.0" cy="100" r="4" fill="black" />
<circle cx="144.26391875966112" cy="100" r="6" fill="none" stroke="black" stroke-width="2" />
<circle cx="144.26391875966112" cy="100" r="3" fill="black" />
<circle cx="168.01155175226063" cy="100" r="4" fill="red" />
<circle cx="326.18272594996256" cy="100" r="6" fill="none" stroke="blue" stroke-width="2" />
<circle cx="326.18272594996256" cy="100" r="3" fill="blue" />
<circle cx="950.0" cy="100" r="4" fill="red" />
<text x="50" y="125" fill="gray" style="font-size:12px;">2024-11-11T15:42:20+00:00</text>
<text x="900" y="125" fill="gray" style="font-size:12px;">2025-02-26T19:13:30+00:00</text>
</svg>