<svg xmlns="http://www.w3.org/2000/svg" width="1000" height="200" style="background-color: white; font-family: sans-serif;">
<line x1="50" y1="100" x2="950" y2="100" stroke="gray" stroke-width="1"/>
<path d="M 146.0334043097406 100 Q 129.19520062184634 80, 112.35699693395208 100" stroke="black" fill="none" marker-end="url(#arrowhead)"/>
<path d="M 477.54746062802496 100 Q 288.95222878098855 80, 100.35699693395208 100" stroke="black" fill="none" marker-end="url(#arrowhead)"/>
<path d="M 489.54746062802496 100 Q 483.54746062802496 80, 477.54746062802496 100" stroke="black" fill="none" marker-end="url(#arrowhead)"/>
<path d="M 950.0 100 Q 719.7737303140125 80, 489.54746062802496 100" stroke="black" fill="none" marker-end="url(#arrowhead)"/>
<path d="M 950.0 100 Q 713.7737303140125 80, 477.54746062802496 100" stroke="black" fill="none" marker-end="url(#arrowhead)"/>

<defs>
  <marker id="arrowhead" markerWidth="5" markerHeight="5" 
          refX="2" refY="2" orient="auto" fill="black">
    <path d="M0,0 L0,4 L4,2 z" />
  </marker>
</defs>

<circle cx="50.0" cy="100" r="6" fill="none" stroke="red" stroke-width="2" />
<circle cx="50.0" cy="100" r="3" fill="red" />
<circle cx="62.0" cy="100" r="4" fill="black" />
<circle cx="100.35699693395208" cy="100" r="4" fill="blue" />
<circle cx="112.35699693395208" cy="100" r="6" fill="none" stroke="blue" stroke-width="2" />
<circle cx="112.35699693395208" cy="100" r="3" fill="blue" />
<circle cx="146.0334043097406" cy="100" r="6" fill="none" stroke="green" stroke-width="2" />
<circle cx="146.0334043097406" cy="100" r="3" fill="green" />
<circle cx="199.28497636518858" cy="100" r="4" fill="blue" />
<circle cx="477.54746062802496" cy="100" r="4" fill="black" />
<circle cx="489.54746062802496" cy="100" r="4" fill="green" />
<circle cx="950.0" cy="100" r="4" fill="green" />
<text x="50" y="125" fill="gray" style="font-size:12px;">2025-01-28T10:46:50+00:00</text>
<text x="900" y="125" fill="gray" style="font-size:12px;">2025-02-14T20:53:25+00:00</text>
</svg>