<svg xmlns="http://www.w3.org/2000/svg" width="1000" height="200" style="background-color: white; font-family: sans-serif;">
<line x1="50" y1="100" x2="950" y2="100" stroke="gray" stroke-width="1"/>
<path d="M 74.0 100 Q 62.0 80, 50.0 100" stroke="black" fill="none" marker-end="url(#arrowhead)"/>
<path d="M 86.0 100 Q 80.0 80, 74.0 100" stroke="black" fill="none" marker-end="url(#arrowhead)"/>
<path d="M 118.4669521034305 100 Q 96.23347605171526 80, 74.0 100" stroke="black" fill="none" marker-end="url(#arrowhead)"/>
<path d="M 118.4669521034305 100 Q 102.23347605171526 80, 86.0 100" stroke="black" fill="none" marker-end="url(#arrowhead)"/>
<path d="M 236.18436970723445 100 Q 155.09218485361723 80, 74.0 100" stroke="black" fill="none" marker-end="url(#arrowhead)"/>
<path d="M 236.18436970723445 100 Q 177.32566090533248 80, 118.4669521034305 100" stroke="black" fill="none" marker-end="url(#arrowhead)"/>
<path d="M 277.25570435203394 100 Q 256.7200370296342 80, 236.18436970723445 100" stroke="black" fill="none" marker-end="url(#arrowhead)"/>
<path d="M 277.25570435203394 100 Q 197.86132822773223 80, 118.4669521034305 100" stroke="black" fill="none" marker-end="url(#arrowhead)"/>
<path d="M 318.7804416204673 100 Q 298.0180729862506 80, 277.25570435203394 100" stroke="black" fill="none" marker-end="url(#arrowhead)"/>
<path d="M 318.7804416204673 100 Q 196.39022081023364 80, 74.0 100" stroke="black" fill="none" marker-end="url(#arrowhead)"/>
<path d="M 330.7804416204673 100 Q 324.7804416204673 80, 318.7804416204673 100" stroke="black" fill="none" marker-end="url(#arrowhead)"/>
<path d="M 342.7804416204673 100 Q 310.0180729862506 80, 277.25570435203394 100" stroke="black" fill="none" marker-end="url(#arrowhead)"/>
<path d="M 342.7804416204673 100 Q 208.39022081023364 80, 74.0 100" stroke="black" fill="none" marker-end="url(#arrowhead)"/>
<path d="M 342.7804416204673 100 Q 336.7804416204673 80, 330.7804416204673 100" stroke="black" fill="none" marker-end="url(#arrowhead)"/>
<path d="M 681.6287779168727 100 Q 642.6230025563071 80, 603.6172271957416 100" stroke="black" fill="none" marker-end="url(#arrowhead)"/>
<path d="M 737.0070166948948 100 Q 709.3178973058837 80, 681.6287779168727 100" stroke="black" fill="none" marker-end="url(#arrowhead)"/>
<path d="M 780.4074311743233 100 Q 731.0181045455979 80, 681.6287779168727 100" stroke="black" fill="none" marker-end="url(#arrowhead)"/>
<path d="M 780.4074311743233 100 Q 758.707223934609 80, 737.0070166948948 100" stroke="black" fill="none" marker-end="url(#arrowhead)"/>
<path d="M 926.453570940153 100 Q 853.4305010572382 80, 780.4074311743233 100" stroke="black" fill="none" marker-end="url(#arrowhead)"/>
<path d="M 948.6755593894318 100 Q 864.5414952818776 80, 780.4074311743233 100" stroke="black" fill="none" marker-end="url(#arrowhead)"/>
<path d="M 948.6755593894318 100 Q 937.5645651647924 80, 926.453570940153 100" stroke="black" fill="none" marker-end="url(#arrowhead)"/>

<defs>
  <marker id="arrowhead" markerWidth="5" markerHeight="5" 
          refX="2" refY="2" orient="auto" fill="black">
    <path d="M0,0 L0,4 L4,2 z" />
  </marker>
</defs>

<circle cx="50.0" cy="100" r="6" fill="none" stroke="black" stroke-width="2" />
<circle cx="50.0" cy="100" r="3" fill="black" />
<circle cx="62.0" cy="100" r="6" fill="none" stroke="black" stroke-width="2" />
<circle cx="62.0" cy="100" r="3" fill="black" />
<circle cx="74.0" cy="100" r="4" fill="red" />
<circle cx="86.0" cy="100" r="6" fill="none" stroke="blue" stroke-width="2" />
<circle cx="86.0" cy="100" r="3" fill="blue" />
<circle cx="118.4669521034305" cy="100" r="4" fill="red" />
<circle cx="236.18436970723445" cy="100" r="6" fill="none" stroke="blue" stroke-width="2" />
<circle cx="236.18436970723445" cy="100" r="3" fill="blue" />
<circle cx="277.25570435203394" cy="100" r="4" fill="red" />
<circle cx="318.7804416204673" cy="100" r="6" fill="none" stroke="blue" stroke-width="2" />
<circle cx="318.7804416204673" cy="100" r="3" fill="blue" />
<circle cx="330.7804416204673" cy="100" r="4" fill="red" />
<circle cx="342.7804416204673" cy="100" r="6" fill="none" stroke="blue" stroke-width="2" />
<circle cx="342.7804416204673" cy="100" r="3" fill="blue" />
<circle cx="603.6172271957416" cy="100" r="6" fill="none" stroke="blue" stroke-width="2" />
<circle cx="603.6172271957416" cy="100" r="3" fill="blue" />
<circle cx="681.6287779168727" cy="100" r="4" fill="black" />
<circle cx="737.0070166948948" cy="100" r="6" fill="none" stroke="black" stroke-width="2" />
<circle cx="737.0070166948948" cy="100" r="3" fill="black" />
<circle cx="780.4074311743233" cy="100" r="4" fill="green" />
<circle cx="926.453570940153" cy="100" r="6" fill="none" stroke="blue" stroke-width="2" />
<circle cx="926.453570940153" cy="100" r="3" fill="blue" />
<circle cx="948.6755593894318" cy="100" r="4" fill="blue" />
<circle cx="960.6755593894318" cy="100" r="6" fill="none" stroke="green" stroke-width="2" />
<circle cx="960.6755593894318" cy="100" r="3" fill="green" />
<text x="50" y="125" fill="gray" style="font-size:12px;">2025-02-18T14:44:51+00:00</text>
<text x="900" y="125" fill="gray" style="font-size:12px;">2025-02-28T12:23:42+00:00</text>
</svg>