<svg xmlns="http://www.w3.org/2000/svg" width="1000" height="200" style="background-color: white; font-family: sans-serif;">
<line x1="50" y1="100" x2="950" y2="100" stroke="gray" stroke-width="1"/>
<path d="M 120.27868541668991 100 Q 85.13934270834496 80, 50.0 100" stroke="black" fill="none" marker-end="url(#arrowhead)"/>
<path d="M 735.5283201927044 100 Q 427.90350280469715 80, 120.27868541668991 100" stroke="black" fill="none" marker-end="url(#arrowhead)"/>
<path d="M 747.5283201927044 100 Q 398.7641600963522 80, 50.0 100" stroke="black" fill="none" marker-end="url(#arrowhead)"/>
<path d="M 837.404177493281 100 Q 792.4662488429927 80, 747.5283201927044 100" stroke="black" fill="none" marker-end="url(#arrowhead)"/>
<path d="M 949.653399649831 100 Q 848.5908599212678 80, 747.5283201927044 100" stroke="black" fill="none" marker-end="url(#arrowhead)"/>
<path d="M 949.653399649831 100 Q 893.5287885715561 80, 837.404177493281 100" stroke="black" fill="none" marker-end="url(#arrowhead)"/>
<path d="M 961.653399649831 100 Q 955.653399649831 80, 949.653399649831 100" stroke="black" fill="none" marker-end="url(#arrowhead)"/>
<path d="M 961.653399649831 100 Q 854.5908599212678 80, 747.5283201927044 100" stroke="black" fill="none" marker-end="url(#arrowhead)"/>
<path d="M 961.653399649831 100 Q 899.5287885715561 80, 837.404177493281 100" stroke="black" fill="none" marker-end="url(#arrowhead)"/>

<defs>
  <marker id="arrowhead" markerWidth="5" markerHeight="5" 
          refX="2" refY="2" orient="auto" fill="black">
    <path d="M0,0 L0,4 L4,2 z" />
  </marker>
</defs>

<circle cx="50.0" cy="100" r="6" fill="none" stroke="blue" stroke-width="2" />
<circle cx="50.0" cy="100" r="3" fill="blue" />
<circle cx="120.27868541668991" cy="100" r="4" fill="black" />
<circle cx="735.5283201927044" cy="100" r="4" fill="blue" />
<circle cx="747.5283201927044" cy="100" r="4" fill="red" />
<circle cx="837.404177493281" cy="100" r="6" fill="none" stroke="blue" stroke-width="2" />
<circle cx="837.404177493281" cy="100" r="3" fill="blue" />
<circle cx="949.653399649831" cy="100" r="4" fill="blue" />
<circle cx="961.653399649831" cy="100" r="4" fill="blue" />
<text x="50" y="125" fill="gray" style="font-size:12px;">2024-11-27T04:08:51+00:00</text>
<text x="900" y="125" fill="gray" style="font-size:12px;">2025-02-28T13:55:21+00:00</text>
</svg>