<svg xmlns="http://www.w3.org/2000/svg" width="1000" height="400" style="background-color: white; font-family: sans-serif;">
<line x1="50" y1="200" x2="950" y2="200" stroke="gray" stroke-width="1"/>
<path d="M 62.0 200 Q 56.0 180, 50.0 200" stroke="black" fill="none" marker-end="url(#arrowhead)"/>
<path d="M 74.0 200 Q 62.0 180, 50.0 200" stroke="black" fill="none" marker-end="url(#arrowhead)"/>
<path d="M 74.0 200 Q 68.0 180, 62.0 200" stroke="black" fill="none" marker-end="url(#arrowhead)"/>
<path d="M 86.0 200 Q 74.0 180, 62.0 200" stroke="black" fill="none" marker-end="url(#arrowhead)"/>
<path d="M 98.0 200 Q 80.0 180, 62.0 200" stroke="black" fill="none" marker-end="url(#arrowhead)"/>
<path d="M 98.0 200 Q 86.0 180, 74.0 200" stroke="black" fill="none" marker-end="url(#arrowhead)"/>
<path d="M 110.0 200 Q 98.0 180, 86.0 200" stroke="black" fill="none" marker-end="url(#arrowhead)"/>
<path d="M 110.0 200 Q 86.0 180, 62.0 200" stroke="black" fill="none" marker-end="url(#arrowhead)"/>
<path d="M 122.0 200 Q 116.0 180, 110.0 200" stroke="black" fill="none" marker-end="url(#arrowhead)"/>
<path d="M 134.0 200 Q 122.0 180, 110.0 200" stroke="black" fill="none" marker-end="url(#arrowhead)"/>
<path d="M 134.0 200 Q 128.0 180, 122.0 200" stroke="black" fill="none" marker-end="url(#arrowhead)"/>
<path d="M 146.0 200 Q 128.0 180, 110.0 200" stroke="black" fill="none" marker-end="url(#arrowhead)"/>
<path d="M 146.0 200 Q 134.0 180, 122.0 200" stroke="black" fill="none" marker-end="url(#arrowhead)"/>
<path d="M 158.0 200 Q 134.0 180, 110.0 200" stroke="black" fill="none" marker-end="url(#arrowhead)"/>
<path d="M 158.0 200 Q 140.0 180, 122.0 200" stroke="black" fill="none" marker-end="url(#arrowhead)"/>
<path d="M 158.0 200 Q 152.0 180, 146.0 200" stroke="black" fill="none" marker-end="url(#arrowhead)"/>
<path d="M 170.0 200 Q 158.0 180, 146.0 200" stroke="black" fill="none" marker-end="url(#arrowhead)"/>
<path d="M 760.0851060366826 200 Q 465.0425530183413 180, 170.0 200" stroke="black" fill="none" marker-end="url(#arrowhead)"/>
<path d="M 760.0851060366826 200 Q 453.0425530183413 180, 146.0 200" stroke="black" fill="none" marker-end="url(#arrowhead)"/>
<path d="M 772.0851060366826 200 Q 471.0425530183413 180, 170.0 200" stroke="black" fill="none" marker-end="url(#arrowhead)"/>
<path d="M 772.0851060366826 200 Q 766.0851060366826 180, 760.0851060366826 200" stroke="black" fill="none" marker-end="url(#arrowhead)"/>
<path d="M 772.0851060366826 200 Q 459.0425530183413 180, 146.0 200" stroke="black" fill="none" marker-end="url(#arrowhead)"/>
<path d="M 784.0851060366826 200 Q 778.0851060366826 180, 772.0851060366826 200" stroke="black" fill="none" marker-end="url(#arrowhead)"/>
<path d="M 796.0851060366826 200 Q 790.0851060366826 180, 784.0851060366826 200" stroke="black" fill="none" marker-end="url(#arrowhead)"/>
<path d="M 808.0851060366826 200 Q 784.0851060366826 180, 760.0851060366826 200" stroke="black" fill="none" marker-end="url(#arrowhead)"/>
<path d="M 808.0851060366826 200 Q 802.0851060366826 180, 796.0851060366826 200" stroke="black" fill="none" marker-end="url(#arrowhead)"/>
<path d="M 820.0851060366826 200 Q 814.0851060366826 180, 808.0851060366826 200" stroke="black" fill="none" marker-end="url(#arrowhead)"/>
<path d="M 820.0851060366826 200 Q 790.0851060366826 180, 760.0851060366826 200" stroke="black" fill="none" marker-end="url(#arrowhead)"/>
<path d="M 832.0851060366826 200 Q 820.0851060366826 180, 808.0851060366826 200" stroke="black" fill="none" marker-end="url(#arrowhead)"/>
<path d="M 832.0851060366826 200 Q 826.0851060366826 180, 820.0851060366826 200" stroke="black" fill="none" marker-end="url(#arrowhead)"/>
<path d="M 844.0851060366826 200 Q 832.0851060366826 180, 820.0851060366826 200" stroke="black" fill="none" marker-end="url(#arrowhead)"/>
<path d="M 844.0851060366826 200 Q 838.0851060366826 180, 832.0851060366826 200" stroke="black" fill="none" marker-end="url(#arrowhead)"/>
<path d="M 856.0851060366826 200 Q 850.0851060366826 180, 844.0851060366826 200" stroke="black" fill="none" marker-end="url(#arrowhead)"/>
<path d="M 880.0851060366826 200 Q 874.0851060366826 180, 868.0851060366826 200" stroke="black" fill="none" marker-end="url(#arrowhead)"/>
<path d="M 904.0851060366826 200 Q 898.0851060366826 180, 892.0851060366826 200" stroke="black" fill="none" marker-end="url(#arrowhead)"/>
<path d="M 928.0851060366826 200 Q 922.0851060366826 180, 916.0851060366826 200" stroke="black" fill="none" marker-end="url(#arrowhead)"/>
<path d="M 940.0851060366826 200 Q 904.0851060366826 180, 868.0851060366826 200" stroke="black" fill="none" marker-end="url(#arrowhead)"/>
<path d="M 940.0851060366826 200 Q 916.0851060366826 180, 892.0851060366826 200" stroke="black" fill="none" marker-end="url(#arrowhead)"/>
<path d="M 940.0851060366826 200 Q 928.0851060366826 180, 916.0851060366826 200" stroke="black" fill="none" marker-end="url(#arrowhead)"/>
<path d="M 940.0851060366826 200 Q 934.0851060366826 180, 928.0851060366826 200" stroke="black" fill="none" marker-end="url(#arrowhead)"/>
<path d="M 952.0851060366826 200 Q 946.0851060366826 180, 940.0851060366826 200" stroke="black" fill="none" marker-end="url(#arrowhead)"/>
<path d="M 964.0851060366826 200 Q 958.0851060366826 180, 952.0851060366826 200" stroke="black" fill="none" marker-end="url(#arrowhead)"/>
<path d="M 964.0851060366826 200 Q 928.0851060366826 180, 892.0851060366826 200" stroke="black" fill="none" marker-end="url(#arrowhead)"/>
<path d="M 1000.0851060366826 200 Q 976.0851060366826 180, 952.0851060366826 200" stroke="black" fill="none" marker-end="url(#arrowhead)"/>
<path d="M 1000.0851060366826 200 Q 988.0851060366826 180, 976.0851060366826 200" stroke="black" fill="none" marker-end="url(#arrowhead)"/>
<path d="M 1000.0851060366826 200 Q 994.0851060366826 180, 988.0851060366826 200" stroke="black" fill="none" marker-end="url(#arrowhead)"/>
<path d="M 1048.0851060366826 200 Q 1030.0851060366826 180, 1012.0851060366826 200" stroke="black" fill="none" marker-end="url(#arrowhead)"/>
<path d="M 1048.0851060366826 200 Q 1042.0851060366826 180, 1036.0851060366826 200" stroke="black" fill="none" marker-end="url(#arrowhead)"/>
<path d="M 1048.0851060366826 200 Q 982.0851060366826 180, 916.0851060366826 200" stroke="black" fill="none" marker-end="url(#arrowhead)"/>
<path d="M 1048.0851060366826 200 Q 958.0851060366826 180, 868.0851060366826 200" stroke="black" fill="none" marker-end="url(#arrowhead)"/>
<path d="M 1048.0851060366826 200 Q 1036.0851060366826 180, 1024.0851060366826 200" stroke="black" fill="none" marker-end="url(#arrowhead)"/>
<path d="M 1072.0851060366826 200 Q 1066.0851060366826 180, 1060.0851060366826 200" stroke="black" fill="none" marker-end="url(#arrowhead)"/>
<path d="M 1084.0851060366826 200 Q 1078.0851060366826 180, 1072.0851060366826 200" stroke="black" fill="none" marker-end="url(#arrowhead)"/>
<path d="M 1108.0851060366826 200 Q 1096.0851060366826 180, 1084.0851060366826 200" stroke="black" fill="none" marker-end="url(#arrowhead)"/>
<path d="M 1108.0851060366826 200 Q 1102.0851060366826 180, 1096.0851060366826 200" stroke="black" fill="none" marker-end="url(#arrowhead)"/>
<path d="M 1144.0851060366826 200 Q 1132.0851060366826 180, 1120.0851060366826 200" stroke="black" fill="none" marker-end="url(#arrowhead)"/>
<path d="M 1156.0851060366826 200 Q 1150.0851060366826 180, 1144.0851060366826 200" stroke="black" fill="none" marker-end="url(#arrowhead)"/>
<path d="M 1156.0851060366826 200 Q 1120.0851060366826 180, 1084.0851060366826 200" stroke="black" fill="none" marker-end="url(#arrowhead)"/>
<path d="M 1156.0851060366826 200 Q 1126.0851060366826 180, 1096.0851060366826 200" stroke="black" fill="none" marker-end="url(#arrowhead)"/>
<path d="M 1156.0851060366826 200 Q 1054.0851060366826 180, 952.0851060366826 200" stroke="black" fill="none" marker-end="url(#arrowhead)"/>
<path d="M 1216.0851060366826 200 Q 1210.0851060366826 180, 1204.0851060366826 200" stroke="black" fill="none" marker-end="url(#arrowhead)"/>
<path d="M 1216.0851060366826 200 Q 1192.0851060366826 180, 1168.0851060366826 200" stroke="black" fill="none" marker-end="url(#arrowhead)"/>
<path d="M 1216.0851060366826 200 Q 1198.0851060366826 180, 1180.0851060366826 200" stroke="black" fill="none" marker-end="url(#arrowhead)"/>
<path d="M 1216.0851060366826 200 Q 1204.0851060366826 180, 1192.0851060366826 200" stroke="black" fill="none" marker-end="url(#arrowhead)"/>
<path d="M 1240.0851060366826 200 Q 1180.0851060366826 180, 1120.0851060366826 200" stroke="black" fill="none" marker-end="url(#arrowhead)"/>
<path d="M 1264.0851060366826 200 Q 1258.0851060366826 180, 1252.0851060366826 200" stroke="black" fill="none" marker-end="url(#arrowhead)"/>
<path d="M 1276.0851060366826 200 Q 1114.0851060366826 180, 952.0851060366826 200" stroke="black" fill="none" marker-end="url(#arrowhead)"/>
<path d="M 1276.0851060366826 200 Q 1156.0851060366826 180, 1036.0851060366826 200" stroke="black" fill="none" marker-end="url(#arrowhead)"/>
<path d="M 1276.0851060366826 200 Q 1264.0851060366826 180, 1252.0851060366826 200" stroke="black" fill="none" marker-end="url(#arrowhead)"/>
<path d="M 1312.0851060366826 200 Q 1300.0851060366826 180, 1288.0851060366826 200" stroke="black" fill="none" marker-end="url(#arrowhead)"/>
<path d="M 1336.0851060366826 200 Q 1330.0851060366826 180, 1324.0851060366826 200" stroke="black" fill="none" marker-end="url(#arrowhead)"/>
<path d="M 1360.0851060366826 200 Q 1354.0851060366826 180, 1348.0851060366826 200" stroke="black" fill="none" marker-end="url(#arrowhead)"/>
<path d="M 1360.0851060366826 200 Q 1156.0851060366826 180, 952.0851060366826 200" stroke="black" fill="none" marker-end="url(#arrowhead)"/>
<path d="M 1408.0851060366826 200 Q 1390.0851060366826 180, 1372.0851060366826 200" stroke="black" fill="none" marker-end="url(#arrowhead)"/>
<path d="M 1432.0851060366826 200 Q 1414.0851060366826 180, 1396.0851060366826 200" stroke="black" fill="none" marker-end="url(#arrowhead)"/>
<path d="M 1432.0851060366826 200 Q 1408.0851060366826 180, 1384.0851060366826 200" stroke="black" fill="none" marker-end="url(#arrowhead)"/>
<path d="M 1432.0851060366826 200 Q 1312.0851060366826 180, 1192.0851060366826 200" stroke="black" fill="none" marker-end="url(#arrowhead)"/>
<path d="M 1432.0851060366826 200 Q 1426.0851060366826 180, 1420.0851060366826 200" stroke="black" fill="none" marker-end="url(#arrowhead)"/>
<path d="M 1432.0851060366826 200 Q 1366.0851060366826 180, 1300.0851060366826 200" stroke="black" fill="none" marker-end="url(#arrowhead)"/>
<path d="M 1432.0851060366826 200 Q 1402.0851060366826 180, 1372.0851060366826 200" stroke="black" fill="none" marker-end="url(#arrowhead)"/>
<path d="M 1432.0851060366826 200 Q 1306.0851060366826 180, 1180.0851060366826 200" stroke="black" fill="none" marker-end="url(#arrowhead)"/>
<path d="M 1432.0851060366826 200 Q 1228.0851060366826 180, 1024.0851060366826 200" stroke="black" fill="none" marker-end="url(#arrowhead)"/>
<path d="M 1456.0851060366826 200 Q 1450.0851060366826 180, 1444.0851060366826 200" stroke="black" fill="none" marker-end="url(#arrowhead)"/>
<path d="M 1480.0851060366826 200 Q 1474.0851060366826 180, 1468.0851060366826 200" stroke="black" fill="none" marker-end="url(#arrowhead)"/>

<defs>
  <marker id="arrowhead" markerWidth="5" markerHeight="5" 
          refX="2" refY="2" orient="auto" fill="black">
    <path d="M0,0 L0,4 L4,2 z" />
  </marker>
</defs>

<circle cx="50.0" cy="200" r="6" fill="none" stroke="black" stroke-width="2" />
<circle cx="50.0" cy="200" r="3" fill="black" />
<circle cx="62.0" cy="200" r="4" fill="black" />
<circle cx="74.0" cy="200" r="6" fill="none" stroke="black" stroke-width="2" />
<circle cx="74.0" cy="200" r="3" fill="black" />
<circle cx="86.0" cy="200" r="4" fill="red" />
<circle cx="98.0" cy="200" r="4" fill="black" />
<circle cx="110.0" cy="200" r="4" fill="black" />
<circle cx="122.0" cy="200" r="4" fill="black" />
<circle cx="134.0" cy="200" r="4" fill="black" />
<circle cx="146.0" cy="200" r="4" fill="black" />
<circle cx="158.0" cy="200" r="6" fill="none" stroke="black" stroke-width="2" />
<circle cx="158.0" cy="200" r="3" fill="black" />
<circle cx="170.0" cy="200" r="4" fill="black" />
<circle cx="760.0851060366826" cy="200" r="4" fill="blue" />
<circle cx="772.0851060366826" cy="200" r="4" fill="blue" />
<circle cx="784.0851060366826" cy="200" r="4" fill="red" />
<circle cx="796.0851060366826" cy="200" r="4" fill="blue" />
<circle cx="808.0851060366826" cy="200" r="4" fill="blue" />
<circle cx="820.0851060366826" cy="200" r="4" fill="blue" />
<circle cx="832.0851060366826" cy="200" r="4" fill="red" />
<circle cx="844.0851060366826" cy="200" r="4" fill="blue" />
<circle cx="856.0851060366826" cy="200" r="4" fill="blue" />
<circle cx="868.0851060366826" cy="200" r="4" fill="blue" />
<circle cx="880.0851060366826" cy="200" r="4" fill="red" />
<circle cx="892.0851060366826" cy="200" r="4" fill="red" />
<circle cx="904.0851060366826" cy="200" r="4" fill="red" />
<circle cx="916.0851060366826" cy="200" r="4" fill="blue" />
<circle cx="928.0851060366826" cy="200" r="4" fill="black" />
<circle cx="940.0851060366826" cy="200" r="4" fill="blue" />
<circle cx="952.0851060366826" cy="200" r="4" fill="red" />
<circle cx="964.0851060366826" cy="200" r="4" fill="blue" />
<circle cx="976.0851060366826" cy="200" r="4" fill="red" />
<circle cx="988.0851060366826" cy="200" r="4" fill="blue" />
<circle cx="1000.0851060366826" cy="200" r="4" fill="blue" />
<circle cx="1012.0851060366826" cy="200" r="4" fill="red" />
<circle cx="1024.0851060366826" cy="200" r="4" fill="red" />
<circle cx="1036.0851060366826" cy="200" r="4" fill="red" />
<circle cx="1048.0851060366826" cy="200" r="4" fill="blue" />
<circle cx="1060.0851060366826" cy="200" r="4" fill="blue" />
<circle cx="1072.0851060366826" cy="200" r="4" fill="red" />
<circle cx="1084.0851060366826" cy="200" r="4" fill="blue" />
<circle cx="1096.0851060366826" cy="200" r="4" fill="blue" />
<circle cx="1108.0851060366826" cy="200" r="4" fill="red" />
<circle cx="1120.0851060366826" cy="200" r="4" fill="red" />
<circle cx="1132.0851060366826" cy="200" r="4" fill="blue" />
<circle cx="1144.0851060366826" cy="200" r="4" fill="red" />
<circle cx="1156.0851060366826" cy="200" r="4" fill="blue" />
<circle cx="1168.0851060366826" cy="200" r="4" fill="blue" />
<circle cx="1180.0851060366826" cy="200" r="4" fill="blue" />
<circle cx="1192.0851060366826" cy="200" r="4" fill="red" />
<circle cx="1204.0851060366826" cy="200" r="4" fill="blue" />
<circle cx="1216.0851060366826" cy="200" r="4" fill="blue" />
<circle cx="1228.0851060366826" cy="200" r="4" fill="blue" />
<circle cx="1240.0851060366826" cy="200" r="4" fill="blue" />
<circle cx="1252.0851060366826" cy="200" r="4" fill="blue" />
<circle cx="1264.0851060366826" cy="200" r="4" fill="blue" />
<circle cx="1276.0851060366826" cy="200" r="4" fill="blue" />
<circle cx="1288.0851060366826" cy="200" r="4" fill="red" />
<circle cx="1300.0851060366826" cy="200" r="4" fill="blue" />
<circle cx="1312.0851060366826" cy="200" r="4" fill="blue" />
<circle cx="1324.0851060366826" cy="200" r="4" fill="blue" />
<circle cx="1336.0851060366826" cy="200" r="4" fill="blue" />
<circle cx="1348.0851060366826" cy="200" r="4" fill="red" />
<circle cx="1360.0851060366826" cy="200" r="4" fill="blue" />
<circle cx="1372.0851060366826" cy="200" r="4" fill="red" />
<circle cx="1384.0851060366826" cy="200" r="4" fill="red" />
<circle cx="1396.0851060366826" cy="200" r="4" fill="red" />
<circle cx="1408.0851060366826" cy="200" r="4" fill="blue" />
<circle cx="1420.0851060366826" cy="200" r="4" fill="red" />
<circle cx="1432.0851060366826" cy="200" r="4" fill="blue" />
<circle cx="1444.0851060366826" cy="200" r="4" fill="red" />
<circle cx="1456.0851060366826" cy="200" r="4" fill="blue" />
<circle cx="1468.0851060366826" cy="200" r="4" fill="blue" />
<circle cx="1480.0851060366826" cy="200" r="4" fill="blue" />
<circle cx="1492.0851060366826" cy="200" r="4" fill="red" />
<circle cx="1504.0851060366826" cy="200" r="4" fill="red" />
<text x="50" y="225" fill="gray" style="font-size:12px;">2024-06-10T12:58:49+00:00</text>
<text x="900" y="225" fill="gray" style="font-size:12px;">2025-02-24T09:17:45+00:00</text>
</svg>