<svg xmlns="http://www.w3.org/2000/svg" width="1000" height="200" style="background-color: white; font-family: sans-serif;">
<line x1="50" y1="100" x2="950" y2="100" stroke="gray" stroke-width="1"/>
<path d="M 74.0 100 Q 68.0 80, 62.0 100" stroke="black" fill="none" marker-end="url(#arrowhead)"/>
<path d="M 86.0 100 Q 74.0 80, 62.0 100" stroke="black" fill="none" marker-end="url(#arrowhead)"/>
<path d="M 86.0 100 Q 80.0 80, 74.0 100" stroke="black" fill="none" marker-end="url(#arrowhead)"/>
<path d="M 98.0 100 Q 92.0 80, 86.0 100" stroke="black" fill="none" marker-end="url(#arrowhead)"/>
<path d="M 110.0 100 Q 98.0 80, 86.0 100" stroke="black" fill="none" marker-end="url(#arrowhead)"/>
<path d="M 110.0 100 Q 104.0 80, 98.0 100" stroke="black" fill="none" marker-end="url(#arrowhead)"/>
<path d="M 122.0 100 Q 92.0 80, 62.0 100" stroke="black" fill="none" marker-end="url(#arrowhead)"/>
<path d="M 134.0 100 Q 128.0 80, 122.0 100" stroke="black" fill="none" marker-end="url(#arrowhead)"/>
<path d="M 146.0 100 Q 140.0 80, 134.0 100" stroke="black" fill="none" marker-end="url(#arrowhead)"/>
<path d="M 158.0 100 Q 152.0 80, 146.0 100" stroke="black" fill="none" marker-end="url(#arrowhead)"/>
<path d="M 170.0 100 Q 164.0 80, 158.0 100" stroke="black" fill="none" marker-end="url(#arrowhead)"/>
<path d="M 170.0 100 Q 152.0 80, 134.0 100" stroke="black" fill="none" marker-end="url(#arrowhead)"/>
<path d="M 182.0 100 Q 164.0 80, 146.0 100" stroke="black" fill="none" marker-end="url(#arrowhead)"/>
<path d="M 182.0 100 Q 170.0 80, 158.0 100" stroke="black" fill="none" marker-end="url(#arrowhead)"/>
<path d="M 194.0 100 Q 176.0 80, 158.0 100" stroke="black" fill="none" marker-end="url(#arrowhead)"/>
<path d="M 194.0 100 Q 188.0 80, 182.0 100" stroke="black" fill="none" marker-end="url(#arrowhead)"/>
<path d="M 206.0 100 Q 182.0 80, 158.0 100" stroke="black" fill="none" marker-end="url(#arrowhead)"/>
<path d="M 206.0 100 Q 194.0 80, 182.0 100" stroke="black" fill="none" marker-end="url(#arrowhead)"/>
<path d="M 206.0 100 Q 200.0 80, 194.0 100" stroke="black" fill="none" marker-end="url(#arrowhead)"/>
<path d="M 218.0 100 Q 188.0 80, 158.0 100" stroke="black" fill="none" marker-end="url(#arrowhead)"/>
<path d="M 218.0 100 Q 200.0 80, 182.0 100" stroke="black" fill="none" marker-end="url(#arrowhead)"/>
<path d="M 218.0 100 Q 206.0 80, 194.0 100" stroke="black" fill="none" marker-end="url(#arrowhead)"/>
<path d="M 218.0 100 Q 212.0 80, 206.0 100" stroke="black" fill="none" marker-end="url(#arrowhead)"/>
<path d="M 230.0 100 Q 224.0 80, 218.0 100" stroke="black" fill="none" marker-end="url(#arrowhead)"/>
<path d="M 242.0 100 Q 236.0 80, 230.0 100" stroke="black" fill="none" marker-end="url(#arrowhead)"/>
<path d="M 423.72982822890737 100 Q 332.86491411445365 80, 242.0 100" stroke="black" fill="none" marker-end="url(#arrowhead)"/>
<path d="M 435.72982822890737 100 Q 429.72982822890737 80, 423.72982822890737 100" stroke="black" fill="none" marker-end="url(#arrowhead)"/>
<path d="M 447.72982822890737 100 Q 441.72982822890737 80, 435.72982822890737 100" stroke="black" fill="none" marker-end="url(#arrowhead)"/>
<path d="M 459.72982822890737 100 Q 453.72982822890737 80, 447.72982822890737 100" stroke="black" fill="none" marker-end="url(#arrowhead)"/>
<path d="M 471.72982822890737 100 Q 465.72982822890737 80, 459.72982822890737 100" stroke="black" fill="none" marker-end="url(#arrowhead)"/>
<path d="M 483.72982822890737 100 Q 477.72982822890737 80, 471.72982822890737 100" stroke="black" fill="none" marker-end="url(#arrowhead)"/>
<path d="M 495.72982822890737 100 Q 483.72982822890737 80, 471.72982822890737 100" stroke="black" fill="none" marker-end="url(#arrowhead)"/>
<path d="M 495.72982822890737 100 Q 489.72982822890737 80, 483.72982822890737 100" stroke="black" fill="none" marker-end="url(#arrowhead)"/>
<path d="M 507.72982822890737 100 Q 489.72982822890737 80, 471.72982822890737 100" stroke="black" fill="none" marker-end="url(#arrowhead)"/>
<path d="M 507.72982822890737 100 Q 501.72982822890737 80, 495.72982822890737 100" stroke="black" fill="none" marker-end="url(#arrowhead)"/>
<path d="M 519.7298282289073 100 Q 495.7298282289073 80, 471.72982822890737 100" stroke="black" fill="none" marker-end="url(#arrowhead)"/>
<path d="M 531.7298282289073 100 Q 525.7298282289073 80, 519.7298282289073 100" stroke="black" fill="none" marker-end="url(#arrowhead)"/>
<path d="M 543.7298282289073 100 Q 314.86491411445365 80, 86.0 100" stroke="black" fill="none" marker-end="url(#arrowhead)"/>
<path d="M 543.7298282289073 100 Q 537.7298282289073 80, 531.7298282289073 100" stroke="black" fill="none" marker-end="url(#arrowhead)"/>
<path d="M 555.7298282289073 100 Q 543.7298282289073 80, 531.7298282289073 100" stroke="black" fill="none" marker-end="url(#arrowhead)"/>
<path d="M 555.7298282289073 100 Q 549.7298282289073 80, 543.7298282289073 100" stroke="black" fill="none" marker-end="url(#arrowhead)"/>
<path d="M 567.7298282289073 100 Q 326.86491411445365 80, 86.0 100" stroke="black" fill="none" marker-end="url(#arrowhead)"/>
<path d="M 567.7298282289073 100 Q 561.7298282289073 80, 555.7298282289073 100" stroke="black" fill="none" marker-end="url(#arrowhead)"/>
<path d="M 579.7298282289073 100 Q 573.7298282289073 80, 567.7298282289073 100" stroke="black" fill="none" marker-end="url(#arrowhead)"/>
<path d="M 591.7298282289073 100 Q 338.86491411445365 80, 86.0 100" stroke="black" fill="none" marker-end="url(#arrowhead)"/>
<path d="M 591.7298282289073 100 Q 585.7298282289073 80, 579.7298282289073 100" stroke="black" fill="none" marker-end="url(#arrowhead)"/>
<path d="M 603.7298282289073 100 Q 597.7298282289073 80, 591.7298282289073 100" stroke="black" fill="none" marker-end="url(#arrowhead)"/>
<path d="M 603.7298282289073 100 Q 591.7298282289073 80, 579.7298282289073 100" stroke="black" fill="none" marker-end="url(#arrowhead)"/>
<path d="M 615.7298282289073 100 Q 350.86491411445365 80, 86.0 100" stroke="black" fill="none" marker-end="url(#arrowhead)"/>
<path d="M 615.7298282289073 100 Q 609.7298282289073 80, 603.7298282289073 100" stroke="black" fill="none" marker-end="url(#arrowhead)"/>
<path d="M 627.7298282289073 100 Q 621.7298282289073 80, 615.7298282289073 100" stroke="black" fill="none" marker-end="url(#arrowhead)"/>
<path d="M 639.7298282289073 100 Q 633.7298282289073 80, 627.7298282289073 100" stroke="black" fill="none" marker-end="url(#arrowhead)"/>
<path d="M 651.7298282289073 100 Q 645.7298282289073 80, 639.7298282289073 100" stroke="black" fill="none" marker-end="url(#arrowhead)"/>
<path d="M 663.7298282289073 100 Q 657.7298282289073 80, 651.7298282289073 100" stroke="black" fill="none" marker-end="url(#arrowhead)"/>
<path d="M 675.7298282289073 100 Q 669.7298282289073 80, 663.7298282289073 100" stroke="black" fill="none" marker-end="url(#arrowhead)"/>
<path d="M 687.7298282289073 100 Q 681.7298282289073 80, 675.7298282289073 100" stroke="black" fill="none" marker-end="url(#arrowhead)"/>
<path d="M 699.7298282289073 100 Q 693.7298282289073 80, 687.7298282289073 100" stroke="black" fill="none" marker-end="url(#arrowhead)"/>
<path d="M 711.7298282289073 100 Q 705.7298282289073 80, 699.7298282289073 100" stroke="black" fill="none" marker-end="url(#arrowhead)"/>
<path d="M 723.7298282289073 100 Q 711.7298282289073 80, 699.7298282289073 100" stroke="black" fill="none" marker-end="url(#arrowhead)"/>
<path d="M 723.7298282289073 100 Q 717.7298282289073 80, 711.7298282289073 100" stroke="black" fill="none" marker-end="url(#arrowhead)"/>
<path d="M 735.7298282289073 100 Q 729.7298282289073 80, 723.7298282289073 100" stroke="black" fill="none" marker-end="url(#arrowhead)"/>
<path d="M 735.7298282289073 100 Q 603.7298282289073 80, 471.72982822890737 100" stroke="black" fill="none" marker-end="url(#arrowhead)"/>
<path d="M 747.7298282289073 100 Q 741.7298282289073 80, 735.7298282289073 100" stroke="black" fill="none" marker-end="url(#arrowhead)"/>
<path d="M 759.7298282289073 100 Q 753.7298282289073 80, 747.7298282289073 100" stroke="black" fill="none" marker-end="url(#arrowhead)"/>
<path d="M 835.1379938313984 100 Q 797.4339110301528 80, 759.7298282289073 100" stroke="black" fill="none" marker-end="url(#arrowhead)"/>
<path d="M 925.2006721725194 100 Q 487.6003360862597 80, 50.0 100" stroke="black" fill="none" marker-end="url(#arrowhead)"/>
<path d="M 925.2006721725194 100 Q 880.1693330019589 80, 835.1379938313984 100" stroke="black" fill="none" marker-end="url(#arrowhead)"/>
<path d="M 937.2006721725194 100 Q 848.4652502007134 80, 759.7298282289073 100" stroke="black" fill="none" marker-end="url(#arrowhead)"/>
<path d="M 937.2006721725194 100 Q 931.2006721725194 80, 925.2006721725194 100" stroke="black" fill="none" marker-end="url(#arrowhead)"/>
<path d="M 949.2006721725194 100 Q 943.2006721725194 80, 937.2006721725194 100" stroke="black" fill="none" marker-end="url(#arrowhead)"/>
<path d="M 961.2006721725194 100 Q 955.2006721725194 80, 949.2006721725194 100" stroke="black" fill="none" marker-end="url(#arrowhead)"/>
<path d="M 973.2006721725194 100 Q 967.2006721725194 80, 961.2006721725194 100" stroke="black" fill="none" marker-end="url(#arrowhead)"/>
<path d="M 985.2006721725194 100 Q 979.2006721725194 80, 973.2006721725194 100" stroke="black" fill="none" marker-end="url(#arrowhead)"/>
<path d="M 997.2006721725194 100 Q 991.2006721725194 80, 985.2006721725194 100" stroke="black" fill="none" marker-end="url(#arrowhead)"/>
<path d="M 1021.2006721725194 100 Q 1015.2006721725194 80, 1009.2006721725194 100" stroke="black" fill="none" marker-end="url(#arrowhead)"/>
<path d="M 1021.2006721725194 100 Q 553.6003360862596 80, 86.0 100" stroke="black" fill="none" marker-end="url(#arrowhead)"/>
<path d="M 1033.2006721725193 100 Q 1021.2006721725193 80, 1009.2006721725194 100" stroke="black" fill="none" marker-end="url(#arrowhead)"/>
<path d="M 1033.2006721725193 100 Q 559.6003360862596 80, 86.0 100" stroke="black" fill="none" marker-end="url(#arrowhead)"/>
<path d="M 1033.2006721725193 100 Q 1027.2006721725193 80, 1021.2006721725194 100" stroke="black" fill="none" marker-end="url(#arrowhead)"/>

<defs>
  <marker id="arrowhead" markerWidth="5" markerHeight="5" 
          refX="2" refY="2" orient="auto" fill="black">
    <path d="M0,0 L0,4 L4,2 z" />
  </marker>
</defs>

<circle cx="50.0" cy="100" r="6" fill="none" stroke="blue" stroke-width="2" />
<circle cx="50.0" cy="100" r="3" fill="blue" />
<circle cx="62.0" cy="100" r="4" fill="black" />
<circle cx="74.0" cy="100" r="4" fill="blue" />
<circle cx="86.0" cy="100" r="4" fill="black" />
<circle cx="98.0" cy="100" r="4" fill="black" />
<circle cx="110.0" cy="100" r="4" fill="red" />
<circle cx="122.0" cy="100" r="4" fill="black" />
<circle cx="134.0" cy="100" r="4" fill="black" />
<circle cx="146.0" cy="100" r="4" fill="black" />
<circle cx="158.0" cy="100" r="4" fill="black" />
<circle cx="170.0" cy="100" r="4" fill="black" />
<circle cx="182.0" cy="100" r="4" fill="black" />
<circle cx="194.0" cy="100" r="4" fill="black" />
<circle cx="206.0" cy="100" r="4" fill="black" />
<circle cx="218.0" cy="100" r="4" fill="black" />
<circle cx="230.0" cy="100" r="4" fill="red" />
<circle cx="242.0" cy="100" r="4" fill="black" />
<circle cx="423.72982822890737" cy="100" r="4" fill="black" />
<circle cx="435.72982822890737" cy="100" r="4" fill="black" />
<circle cx="447.72982822890737" cy="100" r="4" fill="black" />
<circle cx="459.72982822890737" cy="100" r="4" fill="black" />
<circle cx="471.72982822890737" cy="100" r="4" fill="black" />
<circle cx="483.72982822890737" cy="100" r="4" fill="green" />
<circle cx="495.72982822890737" cy="100" r="4" fill="black" />
<circle cx="507.72982822890737" cy="100" r="4" fill="green" />
<circle cx="519.7298282289073" cy="100" r="4" fill="black" />
<circle cx="531.7298282289073" cy="100" r="4" fill="black" />
<circle cx="543.7298282289073" cy="100" r="4" fill="black" />
<circle cx="555.7298282289073" cy="100" r="4" fill="red" />
<circle cx="567.7298282289073" cy="100" r="4" fill="black" />
<circle cx="579.7298282289073" cy="100" r="4" fill="black" />
<circle cx="591.7298282289073" cy="100" r="4" fill="black" />
<circle cx="603.7298282289073" cy="100" r="4" fill="black" />
<circle cx="615.7298282289073" cy="100" r="4" fill="green" />
<circle cx="627.7298282289073" cy="100" r="4" fill="blue" />
<circle cx="639.7298282289073" cy="100" r="4" fill="green" />
<circle cx="651.7298282289073" cy="100" r="4" fill="black" />
<circle cx="663.7298282289073" cy="100" r="4" fill="green" />
<circle cx="675.7298282289073" cy="100" r="4" fill="blue" />
<circle cx="687.7298282289073" cy="100" r="4" fill="black" />
<circle cx="699.7298282289073" cy="100" r="4" fill="red" />
<circle cx="711.7298282289073" cy="100" r="4" fill="black" />
<circle cx="723.7298282289073" cy="100" r="4" fill="black" />
<circle cx="735.7298282289073" cy="100" r="4" fill="green" />
<circle cx="747.7298282289073" cy="100" r="4" fill="blue" />
<circle cx="759.7298282289073" cy="100" r="4" fill="red" />
<circle cx="835.1379938313984" cy="100" r="4" fill="blue" />
<circle cx="925.2006721725194" cy="100" r="4" fill="red" />
<circle cx="937.2006721725194" cy="100" r="4" fill="blue" />
<circle cx="949.2006721725194" cy="100" r="4" fill="blue" />
<circle cx="961.2006721725194" cy="100" r="4" fill="blue" />
<circle cx="973.2006721725194" cy="100" r="4" fill="black" />
<circle cx="985.2006721725194" cy="100" r="4" fill="black" />
<circle cx="997.2006721725194" cy="100" r="4" fill="black" />
<circle cx="1009.2006721725194" cy="100" r="4" fill="blue" />
<circle cx="1021.2006721725194" cy="100" r="4" fill="red" />
<circle cx="1033.2006721725193" cy="100" r="4" fill="blue" />
<text x="50" y="125" fill="gray" style="font-size:12px;">2024-04-23T14:45:20+00:00</text>
<text x="900" y="125" fill="gray" style="font-size:12px;">2025-02-26T11:12:16+00:00</text>
</svg>