<svg xmlns="http://www.w3.org/2000/svg" width="1000" height="200" style="background-color: white; font-family: sans-serif;">
<line x1="50" y1="100" x2="950" y2="100" stroke="gray" stroke-width="1"/>
<path d="M 86.0 100 Q 74.0 80, 62.0 100" stroke="black" fill="none" marker-end="url(#arrowhead)"/>
<path d="M 98.0 100 Q 92.0 80, 86.0 100" stroke="black" fill="none" marker-end="url(#arrowhead)"/>
<path d="M 110.0 100 Q 98.0 80, 86.0 100" stroke="black" fill="none" marker-end="url(#arrowhead)"/>
<path d="M 110.0 100 Q 104.0 80, 98.0 100" stroke="black" fill="none" marker-end="url(#arrowhead)"/>
<path d="M 122.0 100 Q 104.0 80, 86.0 100" stroke="black" fill="none" marker-end="url(#arrowhead)"/>
<path d="M 122.0 100 Q 110.0 80, 98.0 100" stroke="black" fill="none" marker-end="url(#arrowhead)"/>
<path d="M 122.0 100 Q 116.0 80, 110.0 100" stroke="black" fill="none" marker-end="url(#arrowhead)"/>
<path d="M 134.0 100 Q 110.0 80, 86.0 100" stroke="black" fill="none" marker-end="url(#arrowhead)"/>
<path d="M 134.0 100 Q 116.0 80, 98.0 100" stroke="black" fill="none" marker-end="url(#arrowhead)"/>
<path d="M 134.0 100 Q 122.0 80, 110.0 100" stroke="black" fill="none" marker-end="url(#arrowhead)"/>
<path d="M 134.0 100 Q 128.0 80, 122.0 100" stroke="black" fill="none" marker-end="url(#arrowhead)"/>
<path d="M 146.0 100 Q 140.0 80, 134.0 100" stroke="black" fill="none" marker-end="url(#arrowhead)"/>
<path d="M 243.25841171714706 100 Q 194.62920585857353 80, 146.0 100" stroke="black" fill="none" marker-end="url(#arrowhead)"/>
<path d="M 243.25841171714706 100 Q 146.62920585857353 80, 50.0 100" stroke="black" fill="none" marker-end="url(#arrowhead)"/>
<path d="M 243.25841171714706 100 Q 188.62920585857353 80, 134.0 100" stroke="black" fill="none" marker-end="url(#arrowhead)"/>
<path d="M 263.31543519089473 100 Q 253.2869234540209 80, 243.25841171714706 100" stroke="black" fill="none" marker-end="url(#arrowhead)"/>
<path d="M 275.31543519089473 100 Q 259.2869234540209 80, 243.25841171714706 100" stroke="black" fill="none" marker-end="url(#arrowhead)"/>
<path d="M 275.31543519089473 100 Q 269.31543519089473 80, 263.31543519089473 100" stroke="black" fill="none" marker-end="url(#arrowhead)"/>
<path d="M 287.31543519089473 100 Q 281.31543519089473 80, 275.31543519089473 100" stroke="black" fill="none" marker-end="url(#arrowhead)"/>
<path d="M 299.31543519089473 100 Q 293.31543519089473 80, 287.31543519089473 100" stroke="black" fill="none" marker-end="url(#arrowhead)"/>
<path d="M 311.31543519089473 100 Q 204.65771759544737 80, 98.0 100" stroke="black" fill="none" marker-end="url(#arrowhead)"/>
<path d="M 311.31543519089473 100 Q 305.31543519089473 80, 299.31543519089473 100" stroke="black" fill="none" marker-end="url(#arrowhead)"/>
<path d="M 335.31543519089473 100 Q 323.31543519089473 80, 311.31543519089473 100" stroke="black" fill="none" marker-end="url(#arrowhead)"/>
<path d="M 335.31543519089473 100 Q 329.31543519089473 80, 323.31543519089473 100" stroke="black" fill="none" marker-end="url(#arrowhead)"/>
<path d="M 335.31543519089473 100 Q 317.31543519089473 80, 299.31543519089473 100" stroke="black" fill="none" marker-end="url(#arrowhead)"/>
<path d="M 347.31543519089473 100 Q 341.31543519089473 80, 335.31543519089473 100" stroke="black" fill="none" marker-end="url(#arrowhead)"/>
<path d="M 359.31543519089473 100 Q 353.31543519089473 80, 347.31543519089473 100" stroke="black" fill="none" marker-end="url(#arrowhead)"/>
<path d="M 371.31543519089473 100 Q 359.31543519089473 80, 347.31543519089473 100" stroke="black" fill="none" marker-end="url(#arrowhead)"/>
<path d="M 371.31543519089473 100 Q 365.31543519089473 80, 359.31543519089473 100" stroke="black" fill="none" marker-end="url(#arrowhead)"/>
<path d="M 383.31543519089473 100 Q 377.31543519089473 80, 371.31543519089473 100" stroke="black" fill="none" marker-end="url(#arrowhead)"/>
<path d="M 383.31543519089473 100 Q 365.31543519089473 80, 347.31543519089473 100" stroke="black" fill="none" marker-end="url(#arrowhead)"/>
<path d="M 383.31543519089473 100 Q 371.31543519089473 80, 359.31543519089473 100" stroke="black" fill="none" marker-end="url(#arrowhead)"/>
<path d="M 395.31543519089473 100 Q 383.31543519089473 80, 371.31543519089473 100" stroke="black" fill="none" marker-end="url(#arrowhead)"/>
<path d="M 395.31543519089473 100 Q 389.31543519089473 80, 383.31543519089473 100" stroke="black" fill="none" marker-end="url(#arrowhead)"/>
<path d="M 395.31543519089473 100 Q 371.31543519089473 80, 347.31543519089473 100" stroke="black" fill="none" marker-end="url(#arrowhead)"/>
<path d="M 395.31543519089473 100 Q 377.31543519089473 80, 359.31543519089473 100" stroke="black" fill="none" marker-end="url(#arrowhead)"/>
<path d="M 419.31543519089473 100 Q 413.31543519089473 80, 407.31543519089473 100" stroke="black" fill="none" marker-end="url(#arrowhead)"/>
<path d="M 443.31543519089473 100 Q 437.31543519089473 80, 431.31543519089473 100" stroke="black" fill="none" marker-end="url(#arrowhead)"/>
<path d="M 455.31543519089473 100 Q 449.31543519089473 80, 443.31543519089473 100" stroke="black" fill="none" marker-end="url(#arrowhead)"/>
<path d="M 467.31543519089473 100 Q 455.31543519089473 80, 443.31543519089473 100" stroke="black" fill="none" marker-end="url(#arrowhead)"/>
<path d="M 467.31543519089473 100 Q 461.31543519089473 80, 455.31543519089473 100" stroke="black" fill="none" marker-end="url(#arrowhead)"/>
<path d="M 479.31543519089473 100 Q 473.31543519089473 80, 467.31543519089473 100" stroke="black" fill="none" marker-end="url(#arrowhead)"/>
<path d="M 491.31543519089473 100 Q 467.31543519089473 80, 443.31543519089473 100" stroke="black" fill="none" marker-end="url(#arrowhead)"/>
<path d="M 491.31543519089473 100 Q 473.31543519089473 80, 455.31543519089473 100" stroke="black" fill="none" marker-end="url(#arrowhead)"/>
<path d="M 491.31543519089473 100 Q 479.31543519089473 80, 467.31543519089473 100" stroke="black" fill="none" marker-end="url(#arrowhead)"/>
<path d="M 491.31543519089473 100 Q 485.31543519089473 80, 479.31543519089473 100" stroke="black" fill="none" marker-end="url(#arrowhead)"/>
<path d="M 503.31543519089473 100 Q 497.31543519089473 80, 491.31543519089473 100" stroke="black" fill="none" marker-end="url(#arrowhead)"/>
<path d="M 515.3154351908947 100 Q 503.31543519089473 80, 491.31543519089473 100" stroke="black" fill="none" marker-end="url(#arrowhead)"/>
<path d="M 527.3154351908947 100 Q 521.3154351908947 80, 515.3154351908947 100" stroke="black" fill="none" marker-end="url(#arrowhead)"/>
<path d="M 527.3154351908947 100 Q 515.3154351908947 80, 503.31543519089473 100" stroke="black" fill="none" marker-end="url(#arrowhead)"/>
<path d="M 539.3154351908947 100 Q 533.3154351908947 80, 527.3154351908947 100" stroke="black" fill="none" marker-end="url(#arrowhead)"/>
<path d="M 551.3154351908947 100 Q 539.3154351908947 80, 527.3154351908947 100" stroke="black" fill="none" marker-end="url(#arrowhead)"/>
<path d="M 563.3154351908947 100 Q 557.3154351908947 80, 551.3154351908947 100" stroke="black" fill="none" marker-end="url(#arrowhead)"/>
<path d="M 575.3154351908947 100 Q 569.3154351908947 80, 563.3154351908947 100" stroke="black" fill="none" marker-end="url(#arrowhead)"/>
<path d="M 587.3154351908947 100 Q 581.3154351908947 80, 575.3154351908947 100" stroke="black" fill="none" marker-end="url(#arrowhead)"/>
<path d="M 599.3154351908947 100 Q 593.3154351908947 80, 587.3154351908947 100" stroke="black" fill="none" marker-end="url(#arrowhead)"/>
<path d="M 611.3154351908947 100 Q 605.3154351908947 80, 599.3154351908947 100" stroke="black" fill="none" marker-end="url(#arrowhead)"/>
<path d="M 611.3154351908947 100 Q 354.65771759544737 80, 98.0 100" stroke="black" fill="none" marker-end="url(#arrowhead)"/>
<path d="M 623.3154351908947 100 Q 360.65771759544737 80, 98.0 100" stroke="black" fill="none" marker-end="url(#arrowhead)"/>
<path d="M 623.3154351908947 100 Q 617.3154351908947 80, 611.3154351908947 100" stroke="black" fill="none" marker-end="url(#arrowhead)"/>
<path d="M 635.3154351908947 100 Q 629.3154351908947 80, 623.3154351908947 100" stroke="black" fill="none" marker-end="url(#arrowhead)"/>
<path d="M 647.3154351908947 100 Q 372.65771759544737 80, 98.0 100" stroke="black" fill="none" marker-end="url(#arrowhead)"/>
<path d="M 647.3154351908947 100 Q 641.3154351908947 80, 635.3154351908947 100" stroke="black" fill="none" marker-end="url(#arrowhead)"/>
<path d="M 659.3154351908947 100 Q 653.3154351908947 80, 647.3154351908947 100" stroke="black" fill="none" marker-end="url(#arrowhead)"/>
<path d="M 850.2865366171326 100 Q 754.8009859040137 80, 659.3154351908947 100" stroke="black" fill="none" marker-end="url(#arrowhead)"/>
<path d="M 874.1230701587567 100 Q 862.2048033879446 80, 850.2865366171326 100" stroke="black" fill="none" marker-end="url(#arrowhead)"/>
<path d="M 886.1230701587567 100 Q 772.7192526748257 80, 659.3154351908947 100" stroke="black" fill="none" marker-end="url(#arrowhead)"/>
<path d="M 886.1230701587567 100 Q 868.2048033879446 80, 850.2865366171326 100" stroke="black" fill="none" marker-end="url(#arrowhead)"/>
<path d="M 886.1230701587567 100 Q 880.1230701587567 80, 874.1230701587567 100" stroke="black" fill="none" marker-end="url(#arrowhead)"/>
<path d="M 950.0 100 Q 931.1510376555902 80, 912.3020753111806 100" stroke="black" fill="none" marker-end="url(#arrowhead)"/>
<path d="M 950.0 100 Q 500.0 80, 50.0 100" stroke="black" fill="none" marker-end="url(#arrowhead)"/>

<defs>
  <marker id="arrowhead" markerWidth="5" markerHeight="5" 
          refX="2" refY="2" orient="auto" fill="black">
    <path d="M0,0 L0,4 L4,2 z" />
  </marker>
</defs>

<circle cx="50.0" cy="100" r="6" fill="none" stroke="blue" stroke-width="2" />
<circle cx="50.0" cy="100" r="3" fill="blue" />
<circle cx="62.0" cy="100" r="6" fill="none" stroke="blue" stroke-width="2" />
<circle cx="62.0" cy="100" r="3" fill="blue" />
<circle cx="74.0" cy="100" r="6" fill="none" stroke="blue" stroke-width="2" />
<circle cx="74.0" cy="100" r="3" fill="blue" />
<circle cx="86.0" cy="100" r="4" fill="red" />
<circle cx="98.0" cy="100" r="4" fill="red" />
<circle cx="110.0" cy="100" r="4" fill="red" />
<circle cx="122.0" cy="100" r="4" fill="black" />
<circle cx="134.0" cy="100" r="4" fill="black" />
<circle cx="146.0" cy="100" r="4" fill="green" />
<circle cx="243.25841171714706" cy="100" r="6" fill="none" stroke="blue" stroke-width="2" />
<circle cx="243.25841171714706" cy="100" r="3" fill="blue" />
<circle cx="263.31543519089473" cy="100" r="4" fill="red" />
<circle cx="275.31543519089473" cy="100" r="6" fill="none" stroke="blue" stroke-width="2" />
<circle cx="275.31543519089473" cy="100" r="3" fill="blue" />
<circle cx="287.31543519089473" cy="100" r="4" fill="red" />
<circle cx="299.31543519089473" cy="100" r="4" fill="red" />
<circle cx="311.31543519089473" cy="100" r="4" fill="red" />
<circle cx="323.31543519089473" cy="100" r="4" fill="red" />
<circle cx="335.31543519089473" cy="100" r="6" fill="none" stroke="blue" stroke-width="2" />
<circle cx="335.31543519089473" cy="100" r="3" fill="blue" />
<circle cx="347.31543519089473" cy="100" r="4" fill="black" />
<circle cx="359.31543519089473" cy="100" r="6" fill="none" stroke="blue" stroke-width="2" />
<circle cx="359.31543519089473" cy="100" r="3" fill="blue" />
<circle cx="371.31543519089473" cy="100" r="4" fill="red" />
<circle cx="383.31543519089473" cy="100" r="6" fill="none" stroke="blue" stroke-width="2" />
<circle cx="383.31543519089473" cy="100" r="3" fill="blue" />
<circle cx="395.31543519089473" cy="100" r="6" fill="none" stroke="blue" stroke-width="2" />
<circle cx="395.31543519089473" cy="100" r="3" fill="blue" />
<circle cx="407.31543519089473" cy="100" r="4" fill="red" />
<circle cx="419.31543519089473" cy="100" r="6" fill="none" stroke="blue" stroke-width="2" />
<circle cx="419.31543519089473" cy="100" r="3" fill="blue" />
<circle cx="431.31543519089473" cy="100" r="4" fill="black" />
<circle cx="443.31543519089473" cy="100" r="6" fill="none" stroke="blue" stroke-width="2" />
<circle cx="443.31543519089473" cy="100" r="3" fill="blue" />
<circle cx="455.31543519089473" cy="100" r="4" fill="black" />
<circle cx="467.31543519089473" cy="100" r="6" fill="none" stroke="blue" stroke-width="2" />
<circle cx="467.31543519089473" cy="100" r="3" fill="blue" />
<circle cx="479.31543519089473" cy="100" r="4" fill="blue" />
<circle cx="491.31543519089473" cy="100" r="6" fill="none" stroke="blue" stroke-width="2" />
<circle cx="491.31543519089473" cy="100" r="3" fill="blue" />
<circle cx="503.31543519089473" cy="100" r="4" fill="red" />
<circle cx="515.3154351908947" cy="100" r="4" fill="red" />
<circle cx="527.3154351908947" cy="100" r="6" fill="none" stroke="blue" stroke-width="2" />
<circle cx="527.3154351908947" cy="100" r="3" fill="blue" />
<circle cx="539.3154351908947" cy="100" r="4" fill="black" />
<circle cx="551.3154351908947" cy="100" r="4" fill="red" />
<circle cx="563.3154351908947" cy="100" r="4" fill="blue" />
<circle cx="575.3154351908947" cy="100" r="4" fill="black" />
<circle cx="587.3154351908947" cy="100" r="4" fill="blue" />
<circle cx="599.3154351908947" cy="100" r="4" fill="blue" />
<circle cx="611.3154351908947" cy="100" r="4" fill="blue" />
<circle cx="623.3154351908947" cy="100" r="4" fill="blue" />
<circle cx="635.3154351908947" cy="100" r="4" fill="black" />
<circle cx="647.3154351908947" cy="100" r="4" fill="black" />
<circle cx="659.3154351908947" cy="100" r="4" fill="red" />
<circle cx="850.2865366171326" cy="100" r="4" fill="blue" />
<circle cx="874.1230701587567" cy="100" r="4" fill="black" />
<circle cx="886.1230701587567" cy="100" r="4" fill="black" />
<circle cx="912.3020753111806" cy="100" r="4" fill="blue" />
<circle cx="950.0" cy="100" r="4" fill="black" />
<text x="50" y="125" fill="gray" style="font-size:12px;">2017-01-18T01:42:01+00:00</text>
<text x="900" y="125" fill="gray" style="font-size:12px;">2024-11-28T11:19:41+00:00</text>
</svg>