<svg xmlns="http://www.w3.org/2000/svg" width="1000" height="400" style="background-color: white; font-family: sans-serif;">
<line x1="50" y1="200" x2="950" y2="200" stroke="gray" stroke-width="1"/>
<path d="M 86.0 200 Q 74.0 180, 62.0 200" stroke="black" fill="none" marker-end="url(#arrowhead)"/>
<path d="M 98.0 200 Q 92.0 180, 86.0 200" stroke="black" fill="none" marker-end="url(#arrowhead)"/>
<path d="M 110.0 200 Q 98.0 180, 86.0 200" stroke="black" fill="none" marker-end="url(#arrowhead)"/>
<path d="M 110.0 200 Q 104.0 180, 98.0 200" stroke="black" fill="none" marker-end="url(#arrowhead)"/>
<path d="M 122.0 200 Q 104.0 180, 86.0 200" stroke="black" fill="none" marker-end="url(#arrowhead)"/>
<path d="M 122.0 200 Q 110.0 180, 98.0 200" stroke="black" fill="none" marker-end="url(#arrowhead)"/>
<path d="M 122.0 200 Q 116.0 180, 110.0 200" stroke="black" fill="none" marker-end="url(#arrowhead)"/>
<path d="M 134.0 200 Q 110.0 180, 86.0 200" stroke="black" fill="none" marker-end="url(#arrowhead)"/>
<path d="M 134.0 200 Q 116.0 180, 98.0 200" stroke="black" fill="none" marker-end="url(#arrowhead)"/>
<path d="M 134.0 200 Q 122.0 180, 110.0 200" stroke="black" fill="none" marker-end="url(#arrowhead)"/>
<path d="M 134.0 200 Q 128.0 180, 122.0 200" stroke="black" fill="none" marker-end="url(#arrowhead)"/>
<path d="M 146.0 200 Q 140.0 180, 134.0 200" stroke="black" fill="none" marker-end="url(#arrowhead)"/>
<path d="M 243.25841171714706 200 Q 194.62920585857353 180, 146.0 200" stroke="black" fill="none" marker-end="url(#arrowhead)"/>
<path d="M 243.25841171714706 200 Q 146.62920585857353 180, 50.0 200" stroke="black" fill="none" marker-end="url(#arrowhead)"/>
<path d="M 243.25841171714706 200 Q 188.62920585857353 180, 134.0 200" stroke="black" fill="none" marker-end="url(#arrowhead)"/>
<path d="M 263.31543519089473 200 Q 253.2869234540209 180, 243.25841171714706 200" stroke="black" fill="none" marker-end="url(#arrowhead)"/>
<path d="M 275.31543519089473 200 Q 259.2869234540209 180, 243.25841171714706 200" stroke="black" fill="none" marker-end="url(#arrowhead)"/>
<path d="M 275.31543519089473 200 Q 269.31543519089473 180, 263.31543519089473 200" stroke="black" fill="none" marker-end="url(#arrowhead)"/>
<path d="M 287.31543519089473 200 Q 281.31543519089473 180, 275.31543519089473 200" stroke="black" fill="none" marker-end="url(#arrowhead)"/>
<path d="M 299.31543519089473 200 Q 293.31543519089473 180, 287.31543519089473 200" stroke="black" fill="none" marker-end="url(#arrowhead)"/>
<path d="M 311.31543519089473 200 Q 204.65771759544737 180, 98.0 200" stroke="black" fill="none" marker-end="url(#arrowhead)"/>
<path d="M 311.31543519089473 200 Q 305.31543519089473 180, 299.31543519089473 200" stroke="black" fill="none" marker-end="url(#arrowhead)"/>
<path d="M 335.31543519089473 200 Q 323.31543519089473 180, 311.31543519089473 200" stroke="black" fill="none" marker-end="url(#arrowhead)"/>
<path d="M 335.31543519089473 200 Q 329.31543519089473 180, 323.31543519089473 200" stroke="black" fill="none" marker-end="url(#arrowhead)"/>
<path d="M 335.31543519089473 200 Q 317.31543519089473 180, 299.31543519089473 200" stroke="black" fill="none" marker-end="url(#arrowhead)"/>
<path d="M 347.31543519089473 200 Q 341.31543519089473 180, 335.31543519089473 200" stroke="black" fill="none" marker-end="url(#arrowhead)"/>
<path d="M 359.31543519089473 200 Q 353.31543519089473 180, 347.31543519089473 200" stroke="black" fill="none" marker-end="url(#arrowhead)"/>
<path d="M 371.31543519089473 200 Q 359.31543519089473 180, 347.31543519089473 200" stroke="black" fill="none" marker-end="url(#arrowhead)"/>
<path d="M 371.31543519089473 200 Q 365.31543519089473 180, 359.31543519089473 200" stroke="black" fill="none" marker-end="url(#arrowhead)"/>
<path d="M 383.31543519089473 200 Q 377.31543519089473 180, 371.31543519089473 200" stroke="black" fill="none" marker-end="url(#arrowhead)"/>
<path d="M 383.31543519089473 200 Q 365.31543519089473 180, 347.31543519089473 200" stroke="black" fill="none" marker-end="url(#arrowhead)"/>
<path d="M 383.31543519089473 200 Q 371.31543519089473 180, 359.31543519089473 200" stroke="black" fill="none" marker-end="url(#arrowhead)"/>
<path d="M 395.31543519089473 200 Q 383.31543519089473 180, 371.31543519089473 200" stroke="black" fill="none" marker-end="url(#arrowhead)"/>
<path d="M 395.31543519089473 200 Q 389.31543519089473 180, 383.31543519089473 200" stroke="black" fill="none" marker-end="url(#arrowhead)"/>
<path d="M 395.31543519089473 200 Q 371.31543519089473 180, 347.31543519089473 200" stroke="black" fill="none" marker-end="url(#arrowhead)"/>
<path d="M 395.31543519089473 200 Q 377.31543519089473 180, 359.31543519089473 200" stroke="black" fill="none" marker-end="url(#arrowhead)"/>
<path d="M 419.31543519089473 200 Q 413.31543519089473 180, 407.31543519089473 200" stroke="black" fill="none" marker-end="url(#arrowhead)"/>
<path d="M 443.31543519089473 200 Q 437.31543519089473 180, 431.31543519089473 200" stroke="black" fill="none" marker-end="url(#arrowhead)"/>
<path d="M 455.31543519089473 200 Q 449.31543519089473 180, 443.31543519089473 200" stroke="black" fill="none" marker-end="url(#arrowhead)"/>
<path d="M 467.31543519089473 200 Q 455.31543519089473 180, 443.31543519089473 200" stroke="black" fill="none" marker-end="url(#arrowhead)"/>
<path d="M 467.31543519089473 200 Q 461.31543519089473 180, 455.31543519089473 200" stroke="black" fill="none" marker-end="url(#arrowhead)"/>
<path d="M 479.31543519089473 200 Q 473.31543519089473 180, 467.31543519089473 200" stroke="black" fill="none" marker-end="url(#arrowhead)"/>
<path d="M 491.31543519089473 200 Q 467.31543519089473 180, 443.31543519089473 200" stroke="black" fill="none" marker-end="url(#arrowhead)"/>
<path d="M 491.31543519089473 200 Q 473.31543519089473 180, 455.31543519089473 200" stroke="black" fill="none" marker-end="url(#arrowhead)"/>
<path d="M 491.31543519089473 200 Q 479.31543519089473 180, 467.31543519089473 200" stroke="black" fill="none" marker-end="url(#arrowhead)"/>
<path d="M 491.31543519089473 200 Q 485.31543519089473 180, 479.31543519089473 200" stroke="black" fill="none" marker-end="url(#arrowhead)"/>
<path d="M 503.31543519089473 200 Q 497.31543519089473 180, 491.31543519089473 200" stroke="black" fill="none" marker-end="url(#arrowhead)"/>
<path d="M 515.3154351908947 200 Q 503.31543519089473 180, 491.31543519089473 200" stroke="black" fill="none" marker-end="url(#arrowhead)"/>
<path d="M 527.3154351908947 200 Q 521.3154351908947 180, 515.3154351908947 200" stroke="black" fill="none" marker-end="url(#arrowhead)"/>
<path d="M 527.3154351908947 200 Q 515.3154351908947 180, 503.31543519089473 200" stroke="black" fill="none" marker-end="url(#arrowhead)"/>
<path d="M 539.3154351908947 200 Q 533.3154351908947 180, 527.3154351908947 200" stroke="black" fill="none" marker-end="url(#arrowhead)"/>
<path d="M 551.3154351908947 200 Q 539.3154351908947 180, 527.3154351908947 200" stroke="black" fill="none" marker-end="url(#arrowhead)"/>
<path d="M 563.3154351908947 200 Q 557.3154351908947 180, 551.3154351908947 200" stroke="black" fill="none" marker-end="url(#arrowhead)"/>
<path d="M 575.3154351908947 200 Q 569.3154351908947 180, 563.3154351908947 200" stroke="black" fill="none" marker-end="url(#arrowhead)"/>
<path d="M 587.3154351908947 200 Q 581.3154351908947 180, 575.3154351908947 200" stroke="black" fill="none" marker-end="url(#arrowhead)"/>
<path d="M 599.3154351908947 200 Q 593.3154351908947 180, 587.3154351908947 200" stroke="black" fill="none" marker-end="url(#arrowhead)"/>
<path d="M 611.3154351908947 200 Q 605.3154351908947 180, 599.3154351908947 200" stroke="black" fill="none" marker-end="url(#arrowhead)"/>
<path d="M 611.3154351908947 200 Q 354.65771759544737 180, 98.0 200" stroke="black" fill="none" marker-end="url(#arrowhead)"/>
<path d="M 623.3154351908947 200 Q 360.65771759544737 180, 98.0 200" stroke="black" fill="none" marker-end="url(#arrowhead)"/>
<path d="M 623.3154351908947 200 Q 617.3154351908947 180, 611.3154351908947 200" stroke="black" fill="none" marker-end="url(#arrowhead)"/>
<path d="M 635.3154351908947 200 Q 629.3154351908947 180, 623.3154351908947 200" stroke="black" fill="none" marker-end="url(#arrowhead)"/>
<path d="M 647.3154351908947 200 Q 372.65771759544737 180, 98.0 200" stroke="black" fill="none" marker-end="url(#arrowhead)"/>
<path d="M 647.3154351908947 200 Q 641.3154351908947 180, 635.3154351908947 200" stroke="black" fill="none" marker-end="url(#arrowhead)"/>
<path d="M 659.3154351908947 200 Q 653.3154351908947 180, 647.3154351908947 200" stroke="black" fill="none" marker-end="url(#arrowhead)"/>
<path d="M 850.2865366171326 200 Q 754.8009859040137 180, 659.3154351908947 200" stroke="black" fill="none" marker-end="url(#arrowhead)"/>
<path d="M 874.1230701587567 200 Q 862.2048033879446 180, 850.2865366171326 200" stroke="black" fill="none" marker-end="url(#arrowhead)"/>
<path d="M 886.1230701587567 200 Q 772.7192526748257 180, 659.3154351908947 200" stroke="black" fill="none" marker-end="url(#arrowhead)"/>
<path d="M 886.1230701587567 200 Q 868.2048033879446 180, 850.2865366171326 200" stroke="black" fill="none" marker-end="url(#arrowhead)"/>
<path d="M 886.1230701587567 200 Q 880.1230701587567 180, 874.1230701587567 200" stroke="black" fill="none" marker-end="url(#arrowhead)"/>
<path d="M 950.0 200 Q 931.1510376555902 180, 912.3020753111806 200" stroke="black" fill="none" marker-end="url(#arrowhead)"/>
<path d="M 950.0 200 Q 500.0 180, 50.0 200" stroke="black" fill="none" marker-end="url(#arrowhead)"/>

<defs>
  <marker id="arrowhead" markerWidth="5" markerHeight="5" 
          refX="2" refY="2" orient="auto" fill="black">
    <path d="M0,0 L0,4 L4,2 z" />
  </marker>
</defs>

<circle cx="50.0" cy="200" r="6" fill="none" stroke="blue" stroke-width="2" />
<circle cx="50.0" cy="200" r="3" fill="blue" />
<circle cx="62.0" cy="200" r="6" fill="none" stroke="blue" stroke-width="2" />
<circle cx="62.0" cy="200" r="3" fill="blue" />
<circle cx="74.0" cy="200" r="6" fill="none" stroke="blue" stroke-width="2" />
<circle cx="74.0" cy="200" r="3" fill="blue" />
<circle cx="86.0" cy="200" r="4" fill="red" />
<circle cx="98.0" cy="200" r="4" fill="red" />
<circle cx="110.0" cy="200" r="4" fill="red" />
<circle cx="122.0" cy="200" r="4" fill="black" />
<circle cx="134.0" cy="200" r="4" fill="black" />
<circle cx="146.0" cy="200" r="4" fill="green" />
<circle cx="243.25841171714706" cy="200" r="6" fill="none" stroke="blue" stroke-width="2" />
<circle cx="243.25841171714706" cy="200" r="3" fill="blue" />
<circle cx="263.31543519089473" cy="200" r="4" fill="red" />
<circle cx="275.31543519089473" cy="200" r="6" fill="none" stroke="blue" stroke-width="2" />
<circle cx="275.31543519089473" cy="200" r="3" fill="blue" />
<circle cx="287.31543519089473" cy="200" r="4" fill="red" />
<circle cx="299.31543519089473" cy="200" r="4" fill="red" />
<circle cx="311.31543519089473" cy="200" r="4" fill="red" />
<circle cx="323.31543519089473" cy="200" r="4" fill="red" />
<circle cx="335.31543519089473" cy="200" r="6" fill="none" stroke="blue" stroke-width="2" />
<circle cx="335.31543519089473" cy="200" r="3" fill="blue" />
<circle cx="347.31543519089473" cy="200" r="4" fill="black" />
<circle cx="359.31543519089473" cy="200" r="6" fill="none" stroke="blue" stroke-width="2" />
<circle cx="359.31543519089473" cy="200" r="3" fill="blue" />
<circle cx="371.31543519089473" cy="200" r="4" fill="red" />
<circle cx="383.31543519089473" cy="200" r="6" fill="none" stroke="blue" stroke-width="2" />
<circle cx="383.31543519089473" cy="200" r="3" fill="blue" />
<circle cx="395.31543519089473" cy="200" r="6" fill="none" stroke="blue" stroke-width="2" />
<circle cx="395.31543519089473" cy="200" r="3" fill="blue" />
<circle cx="407.31543519089473" cy="200" r="4" fill="red" />
<circle cx="419.31543519089473" cy="200" r="6" fill="none" stroke="blue" stroke-width="2" />
<circle cx="419.31543519089473" cy="200" r="3" fill="blue" />
<circle cx="431.31543519089473" cy="200" r="4" fill="black" />
<circle cx="443.31543519089473" cy="200" r="6" fill="none" stroke="blue" stroke-width="2" />
<circle cx="443.31543519089473" cy="200" r="3" fill="blue" />
<circle cx="455.31543519089473" cy="200" r="4" fill="black" />
<circle cx="467.31543519089473" cy="200" r="6" fill="none" stroke="blue" stroke-width="2" />
<circle cx="467.31543519089473" cy="200" r="3" fill="blue" />
<circle cx="479.31543519089473" cy="200" r="4" fill="blue" />
<circle cx="491.31543519089473" cy="200" r="6" fill="none" stroke="blue" stroke-width="2" />
<circle cx="491.31543519089473" cy="200" r="3" fill="blue" />
<circle cx="503.31543519089473" cy="200" r="4" fill="red" />
<circle cx="515.3154351908947" cy="200" r="4" fill="red" />
<circle cx="527.3154351908947" cy="200" r="6" fill="none" stroke="blue" stroke-width="2" />
<circle cx="527.3154351908947" cy="200" r="3" fill="blue" />
<circle cx="539.3154351908947" cy="200" r="4" fill="black" />
<circle cx="551.3154351908947" cy="200" r="4" fill="red" />
<circle cx="563.3154351908947" cy="200" r="4" fill="blue" />
<circle cx="575.3154351908947" cy="200" r="4" fill="black" />
<circle cx="587.3154351908947" cy="200" r="4" fill="blue" />
<circle cx="599.3154351908947" cy="200" r="4" fill="blue" />
<circle cx="611.3154351908947" cy="200" r="4" fill="blue" />
<circle cx="623.3154351908947" cy="200" r="4" fill="blue" />
<circle cx="635.3154351908947" cy="200" r="4" fill="black" />
<circle cx="647.3154351908947" cy="200" r="4" fill="black" />
<circle cx="659.3154351908947" cy="200" r="4" fill="red" />
<circle cx="850.2865366171326" cy="200" r="4" fill="blue" />
<circle cx="874.1230701587567" cy="200" r="4" fill="black" />
<circle cx="886.1230701587567" cy="200" r="4" fill="black" />
<circle cx="912.3020753111806" cy="200" r="4" fill="blue" />
<circle cx="950.0" cy="200" r="4" fill="black" />
<text x="50" y="225" fill="gray" style="font-size:12px;">2017-01-18T01:42:01+00:00</text>
<text x="900" y="225" fill="gray" style="font-size:12px;">2024-11-28T11:19:41+00:00</text>
</svg>