<svg xmlns="http://www.w3.org/2000/svg" width="1000" height="200" style="background-color: white; font-family: sans-serif;">
<line x1="50" y1="100" x2="950" y2="100" stroke="gray" stroke-width="1"/>
<path d="M 62.0 100 Q 56.0 80, 50.0 100" stroke="black" fill="none" marker-end="url(#arrowhead)"/>
<path d="M 74.0 100 Q 62.0 80, 50.0 100" stroke="black" fill="none" marker-end="url(#arrowhead)"/>
<path d="M 74.0 100 Q 68.0 80, 62.0 100" stroke="black" fill="none" marker-end="url(#arrowhead)"/>
<path d="M 86.0 100 Q 80.0 80, 74.0 100" stroke="black" fill="none" marker-end="url(#arrowhead)"/>
<path d="M 98.0 100 Q 74.0 80, 50.0 100" stroke="black" fill="none" marker-end="url(#arrowhead)"/>
<path d="M 110.0 100 Q 98.0 80, 86.0 100" stroke="black" fill="none" marker-end="url(#arrowhead)"/>
<path d="M 122.0 100 Q 110.0 80, 98.0 100" stroke="black" fill="none" marker-end="url(#arrowhead)"/>
<path d="M 122.0 100 Q 86.0 80, 50.0 100" stroke="black" fill="none" marker-end="url(#arrowhead)"/>
<path d="M 134.0 100 Q 92.0 80, 50.0 100" stroke="black" fill="none" marker-end="url(#arrowhead)"/>
<path d="M 134.0 100 Q 98.0 80, 62.0 100" stroke="black" fill="none" marker-end="url(#arrowhead)"/>
<path d="M 134.0 100 Q 104.0 80, 74.0 100" stroke="black" fill="none" marker-end="url(#arrowhead)"/>
<path d="M 134.0 100 Q 110.0 80, 86.0 100" stroke="black" fill="none" marker-end="url(#arrowhead)"/>
<path d="M 146.0 100 Q 140.0 80, 134.0 100" stroke="black" fill="none" marker-end="url(#arrowhead)"/>
<path d="M 158.0 100 Q 104.0 80, 50.0 100" stroke="black" fill="none" marker-end="url(#arrowhead)"/>
<path d="M 170.0 100 Q 146.0 80, 122.0 100" stroke="black" fill="none" marker-end="url(#arrowhead)"/>
<path d="M 182.0 100 Q 140.0 80, 98.0 100" stroke="black" fill="none" marker-end="url(#arrowhead)"/>
<path d="M 182.0 100 Q 176.0 80, 170.0 100" stroke="black" fill="none" marker-end="url(#arrowhead)"/>
<path d="M 182.0 100 Q 116.0 80, 50.0 100" stroke="black" fill="none" marker-end="url(#arrowhead)"/>
<path d="M 182.0 100 Q 152.0 80, 122.0 100" stroke="black" fill="none" marker-end="url(#arrowhead)"/>
<path d="M 194.0 100 Q 122.0 80, 50.0 100" stroke="black" fill="none" marker-end="url(#arrowhead)"/>
<path d="M 206.0 100 Q 128.0 80, 50.0 100" stroke="black" fill="none" marker-end="url(#arrowhead)"/>
<path d="M 383.02155669128587 100 Q 375.16271204142254 80, 367.30386739155915 100" stroke="black" fill="none" marker-end="url(#arrowhead)"/>
<path d="M 395.02155669128587 100 Q 389.02155669128587 80, 383.02155669128587 100" stroke="black" fill="none" marker-end="url(#arrowhead)"/>
<path d="M 395.02155669128587 100 Q 228.51077834564293 80, 62.0 100" stroke="black" fill="none" marker-end="url(#arrowhead)"/>
<path d="M 395.02155669128587 100 Q 381.16271204142254 80, 367.30386739155915 100" stroke="black" fill="none" marker-end="url(#arrowhead)"/>
<path d="M 407.02155669128587 100 Q 401.02155669128587 80, 395.02155669128587 100" stroke="black" fill="none" marker-end="url(#arrowhead)"/>
<path d="M 431.02155669128587 100 Q 407.02155669128587 80, 383.02155669128587 100" stroke="black" fill="none" marker-end="url(#arrowhead)"/>
<path d="M 431.02155669128587 100 Q 413.02155669128587 80, 395.02155669128587 100" stroke="black" fill="none" marker-end="url(#arrowhead)"/>
<path d="M 431.02155669128587 100 Q 419.02155669128587 80, 407.02155669128587 100" stroke="black" fill="none" marker-end="url(#arrowhead)"/>
<path d="M 443.02155669128587 100 Q 431.02155669128587 80, 419.02155669128587 100" stroke="black" fill="none" marker-end="url(#arrowhead)"/>
<path d="M 443.02155669128587 100 Q 252.51077834564293 80, 62.0 100" stroke="black" fill="none" marker-end="url(#arrowhead)"/>
<path d="M 455.02155669128587 100 Q 411.16271204142254 80, 367.30386739155915 100" stroke="black" fill="none" marker-end="url(#arrowhead)"/>
<path d="M 467.02155669128587 100 Q 449.02155669128587 80, 431.02155669128587 100" stroke="black" fill="none" marker-end="url(#arrowhead)"/>
<path d="M 479.02155669128587 100 Q 473.02155669128587 80, 467.02155669128587 100" stroke="black" fill="none" marker-end="url(#arrowhead)"/>
<path d="M 479.02155669128587 100 Q 455.02155669128587 80, 431.02155669128587 100" stroke="black" fill="none" marker-end="url(#arrowhead)"/>
<path d="M 491.02155669128587 100 Q 473.02155669128587 80, 455.02155669128587 100" stroke="black" fill="none" marker-end="url(#arrowhead)"/>
<path d="M 491.02155669128587 100 Q 429.16271204142254 80, 367.30386739155915 100" stroke="black" fill="none" marker-end="url(#arrowhead)"/>
<path d="M 503.02155669128587 100 Q 491.02155669128587 80, 479.02155669128587 100" stroke="black" fill="none" marker-end="url(#arrowhead)"/>
<path d="M 515.0215566912859 100 Q 503.0215566912859 80, 491.02155669128587 100" stroke="black" fill="none" marker-end="url(#arrowhead)"/>
<path d="M 527.0215566912859 100 Q 294.51077834564296 80, 62.0 100" stroke="black" fill="none" marker-end="url(#arrowhead)"/>
<path d="M 527.0215566912859 100 Q 521.0215566912859 80, 515.0215566912859 100" stroke="black" fill="none" marker-end="url(#arrowhead)"/>
<path d="M 539.0215566912859 100 Q 533.0215566912859 80, 527.0215566912859 100" stroke="black" fill="none" marker-end="url(#arrowhead)"/>
<path d="M 551.0215566912859 100 Q 539.0215566912859 80, 527.0215566912859 100" stroke="black" fill="none" marker-end="url(#arrowhead)"/>
<path d="M 551.0215566912859 100 Q 545.0215566912859 80, 539.0215566912859 100" stroke="black" fill="none" marker-end="url(#arrowhead)"/>
<path d="M 575.0215566912859 100 Q 569.0215566912859 80, 563.0215566912859 100" stroke="black" fill="none" marker-end="url(#arrowhead)"/>
<path d="M 587.0215566912859 100 Q 575.0215566912859 80, 563.0215566912859 100" stroke="black" fill="none" marker-end="url(#arrowhead)"/>
<path d="M 587.0215566912859 100 Q 324.51077834564296 80, 62.0 100" stroke="black" fill="none" marker-end="url(#arrowhead)"/>
<path d="M 587.0215566912859 100 Q 581.0215566912859 80, 575.0215566912859 100" stroke="black" fill="none" marker-end="url(#arrowhead)"/>
<path d="M 599.0215566912859 100 Q 593.0215566912859 80, 587.0215566912859 100" stroke="black" fill="none" marker-end="url(#arrowhead)"/>
<path d="M 611.0215566912859 100 Q 599.0215566912859 80, 587.0215566912859 100" stroke="black" fill="none" marker-end="url(#arrowhead)"/>
<path d="M 623.0215566912859 100 Q 605.0215566912859 80, 587.0215566912859 100" stroke="black" fill="none" marker-end="url(#arrowhead)"/>
<path d="M 623.0215566912859 100 Q 617.0215566912859 80, 611.0215566912859 100" stroke="black" fill="none" marker-end="url(#arrowhead)"/>
<path d="M 635.0215566912859 100 Q 629.0215566912859 80, 623.0215566912859 100" stroke="black" fill="none" marker-end="url(#arrowhead)"/>
<path d="M 647.0215566912859 100 Q 617.0215566912859 80, 587.0215566912859 100" stroke="black" fill="none" marker-end="url(#arrowhead)"/>
<path d="M 647.0215566912859 100 Q 629.0215566912859 80, 611.0215566912859 100" stroke="black" fill="none" marker-end="url(#arrowhead)"/>
<path d="M 647.0215566912859 100 Q 635.0215566912859 80, 623.0215566912859 100" stroke="black" fill="none" marker-end="url(#arrowhead)"/>
<path d="M 659.0215566912859 100 Q 653.0215566912859 80, 647.0215566912859 100" stroke="black" fill="none" marker-end="url(#arrowhead)"/>
<path d="M 671.0215566912859 100 Q 665.0215566912859 80, 659.0215566912859 100" stroke="black" fill="none" marker-end="url(#arrowhead)"/>
<path d="M 671.0215566912859 100 Q 659.0215566912859 80, 647.0215566912859 100" stroke="black" fill="none" marker-end="url(#arrowhead)"/>
<path d="M 683.0215566912859 100 Q 671.0215566912859 80, 659.0215566912859 100" stroke="black" fill="none" marker-end="url(#arrowhead)"/>
<path d="M 683.0215566912859 100 Q 665.0215566912859 80, 647.0215566912859 100" stroke="black" fill="none" marker-end="url(#arrowhead)"/>
<path d="M 707.0215566912859 100 Q 659.0215566912859 80, 611.0215566912859 100" stroke="black" fill="none" marker-end="url(#arrowhead)"/>
<path d="M 707.0215566912859 100 Q 665.0215566912859 80, 623.0215566912859 100" stroke="black" fill="none" marker-end="url(#arrowhead)"/>
<path d="M 707.0215566912859 100 Q 677.0215566912859 80, 647.0215566912859 100" stroke="black" fill="none" marker-end="url(#arrowhead)"/>
<path d="M 719.0215566912859 100 Q 707.0215566912859 80, 695.0215566912859 100" stroke="black" fill="none" marker-end="url(#arrowhead)"/>
<path d="M 731.0215566912859 100 Q 713.0215566912859 80, 695.0215566912859 100" stroke="black" fill="none" marker-end="url(#arrowhead)"/>
<path d="M 731.0215566912859 100 Q 725.0215566912859 80, 719.0215566912859 100" stroke="black" fill="none" marker-end="url(#arrowhead)"/>
<path d="M 743.0215566912859 100 Q 737.0215566912859 80, 731.0215566912859 100" stroke="black" fill="none" marker-end="url(#arrowhead)"/>
<path d="M 743.0215566912859 100 Q 719.0215566912859 80, 695.0215566912859 100" stroke="black" fill="none" marker-end="url(#arrowhead)"/>
<path d="M 743.0215566912859 100 Q 731.0215566912859 80, 719.0215566912859 100" stroke="black" fill="none" marker-end="url(#arrowhead)"/>
<path d="M 755.0215566912859 100 Q 683.0215566912859 80, 611.0215566912859 100" stroke="black" fill="none" marker-end="url(#arrowhead)"/>
<path d="M 755.0215566912859 100 Q 689.0215566912859 80, 623.0215566912859 100" stroke="black" fill="none" marker-end="url(#arrowhead)"/>
<path d="M 755.0215566912859 100 Q 731.0215566912859 80, 707.0215566912859 100" stroke="black" fill="none" marker-end="url(#arrowhead)"/>
<path d="M 755.0215566912859 100 Q 701.0215566912859 80, 647.0215566912859 100" stroke="black" fill="none" marker-end="url(#arrowhead)"/>
<path d="M 767.0215566912859 100 Q 677.0215566912859 80, 587.0215566912859 100" stroke="black" fill="none" marker-end="url(#arrowhead)"/>
<path d="M 779.0215566912859 100 Q 743.0215566912859 80, 707.0215566912859 100" stroke="black" fill="none" marker-end="url(#arrowhead)"/>
<path d="M 779.0215566912859 100 Q 701.0215566912859 80, 623.0215566912859 100" stroke="black" fill="none" marker-end="url(#arrowhead)"/>
<path d="M 779.0215566912859 100 Q 695.0215566912859 80, 611.0215566912859 100" stroke="black" fill="none" marker-end="url(#arrowhead)"/>
<path d="M 779.0215566912859 100 Q 713.0215566912859 80, 647.0215566912859 100" stroke="black" fill="none" marker-end="url(#arrowhead)"/>
<path d="M 779.0215566912859 100 Q 767.0215566912859 80, 755.0215566912859 100" stroke="black" fill="none" marker-end="url(#arrowhead)"/>
<path d="M 791.0215566912859 100 Q 773.0215566912859 80, 755.0215566912859 100" stroke="black" fill="none" marker-end="url(#arrowhead)"/>
<path d="M 791.0215566912859 100 Q 785.0215566912859 80, 779.0215566912859 100" stroke="black" fill="none" marker-end="url(#arrowhead)"/>
<path d="M 803.0215566912859 100 Q 767.0215566912859 80, 731.0215566912859 100" stroke="black" fill="none" marker-end="url(#arrowhead)"/>
<path d="M 803.0215566912859 100 Q 773.0215566912859 80, 743.0215566912859 100" stroke="black" fill="none" marker-end="url(#arrowhead)"/>
<path d="M 803.0215566912859 100 Q 749.0215566912859 80, 695.0215566912859 100" stroke="black" fill="none" marker-end="url(#arrowhead)"/>
<path d="M 803.0215566912859 100 Q 761.0215566912859 80, 719.0215566912859 100" stroke="black" fill="none" marker-end="url(#arrowhead)"/>
<path d="M 815.0215566912859 100 Q 803.0215566912859 80, 791.0215566912859 100" stroke="black" fill="none" marker-end="url(#arrowhead)"/>
<path d="M 815.0215566912859 100 Q 785.0215566912859 80, 755.0215566912859 100" stroke="black" fill="none" marker-end="url(#arrowhead)"/>
<path d="M 815.0215566912859 100 Q 797.0215566912859 80, 779.0215566912859 100" stroke="black" fill="none" marker-end="url(#arrowhead)"/>
<path d="M 827.0215566912859 100 Q 785.0215566912859 80, 743.0215566912859 100" stroke="black" fill="none" marker-end="url(#arrowhead)"/>
<path d="M 827.0215566912859 100 Q 761.0215566912859 80, 695.0215566912859 100" stroke="black" fill="none" marker-end="url(#arrowhead)"/>
<path d="M 827.0215566912859 100 Q 779.0215566912859 80, 731.0215566912859 100" stroke="black" fill="none" marker-end="url(#arrowhead)"/>
<path d="M 827.0215566912859 100 Q 815.0215566912859 80, 803.0215566912859 100" stroke="black" fill="none" marker-end="url(#arrowhead)"/>
<path d="M 827.0215566912859 100 Q 773.0215566912859 80, 719.0215566912859 100" stroke="black" fill="none" marker-end="url(#arrowhead)"/>
<path d="M 851.0215566912859 100 Q 839.0215566912859 80, 827.0215566912859 100" stroke="black" fill="none" marker-end="url(#arrowhead)"/>
<path d="M 863.0215566912859 100 Q 827.0215566912859 80, 791.0215566912859 100" stroke="black" fill="none" marker-end="url(#arrowhead)"/>
<path d="M 863.0215566912859 100 Q 839.0215566912859 80, 815.0215566912859 100" stroke="black" fill="none" marker-end="url(#arrowhead)"/>
<path d="M 875.0215566912859 100 Q 737.0215566912859 80, 599.0215566912859 100" stroke="black" fill="none" marker-end="url(#arrowhead)"/>
<path d="M 875.0215566912859 100 Q 731.0215566912859 80, 587.0215566912859 100" stroke="black" fill="none" marker-end="url(#arrowhead)"/>
<path d="M 875.0215566912859 100 Q 468.51077834564296 80, 62.0 100" stroke="black" fill="none" marker-end="url(#arrowhead)"/>
<path d="M 875.0215566912859 100 Q 821.0215566912859 80, 767.0215566912859 100" stroke="black" fill="none" marker-end="url(#arrowhead)"/>
<path d="M 875.0215566912859 100 Q 725.0215566912859 80, 575.0215566912859 100" stroke="black" fill="none" marker-end="url(#arrowhead)"/>
<path d="M 875.0215566912859 100 Q 719.0215566912859 80, 563.0215566912859 100" stroke="black" fill="none" marker-end="url(#arrowhead)"/>
<path d="M 887.0215566912859 100 Q 881.0215566912859 80, 875.0215566912859 100" stroke="black" fill="none" marker-end="url(#arrowhead)"/>
<path d="M 899.0215566912859 100 Q 887.0215566912859 80, 875.0215566912859 100" stroke="black" fill="none" marker-end="url(#arrowhead)"/>
<path d="M 899.0215566912859 100 Q 893.0215566912859 80, 887.0215566912859 100" stroke="black" fill="none" marker-end="url(#arrowhead)"/>
<path d="M 899.0215566912859 100 Q 480.51077834564296 80, 62.0 100" stroke="black" fill="none" marker-end="url(#arrowhead)"/>
<path d="M 899.0215566912859 100 Q 833.0215566912859 80, 767.0215566912859 100" stroke="black" fill="none" marker-end="url(#arrowhead)"/>
<path d="M 911.0215566912859 100 Q 851.0215566912859 80, 791.0215566912859 100" stroke="black" fill="none" marker-end="url(#arrowhead)"/>
<path d="M 911.0215566912859 100 Q 887.0215566912859 80, 863.0215566912859 100" stroke="black" fill="none" marker-end="url(#arrowhead)"/>
<path d="M 911.0215566912859 100 Q 863.0215566912859 80, 815.0215566912859 100" stroke="black" fill="none" marker-end="url(#arrowhead)"/>
<path d="M 923.0215566912859 100 Q 875.0215566912859 80, 827.0215566912859 100" stroke="black" fill="none" marker-end="url(#arrowhead)"/>
<path d="M 923.0215566912859 100 Q 887.0215566912859 80, 851.0215566912859 100" stroke="black" fill="none" marker-end="url(#arrowhead)"/>
<path d="M 935.0215566912859 100 Q 917.0215566912859 80, 899.0215566912859 100" stroke="black" fill="none" marker-end="url(#arrowhead)"/>
<path d="M 947.0215566912859 100 Q 935.0215566912859 80, 923.0215566912859 100" stroke="black" fill="none" marker-end="url(#arrowhead)"/>
<path d="M 959.0215566912859 100 Q 953.0215566912859 80, 947.0215566912859 100" stroke="black" fill="none" marker-end="url(#arrowhead)"/>
<path d="M 959.0215566912859 100 Q 893.0215566912859 80, 827.0215566912859 100" stroke="black" fill="none" marker-end="url(#arrowhead)"/>
<path d="M 959.0215566912859 100 Q 510.51077834564296 80, 62.0 100" stroke="black" fill="none" marker-end="url(#arrowhead)"/>
<path d="M 959.0215566912859 100 Q 905.0215566912859 80, 851.0215566912859 100" stroke="black" fill="none" marker-end="url(#arrowhead)"/>
<path d="M 959.0215566912859 100 Q 941.0215566912859 80, 923.0215566912859 100" stroke="black" fill="none" marker-end="url(#arrowhead)"/>
<path d="M 971.0215566912859 100 Q 953.0215566912859 80, 935.0215566912859 100" stroke="black" fill="none" marker-end="url(#arrowhead)"/>
<path d="M 971.0215566912859 100 Q 516.510778345643 80, 62.0 100" stroke="black" fill="none" marker-end="url(#arrowhead)"/>
<path d="M 983.0215566912859 100 Q 977.0215566912859 80, 971.0215566912859 100" stroke="black" fill="none" marker-end="url(#arrowhead)"/>
<path d="M 995.0215566912859 100 Q 989.0215566912859 80, 983.0215566912859 100" stroke="black" fill="none" marker-end="url(#arrowhead)"/>
<path d="M 1007.0215566912859 100 Q 989.0215566912859 80, 971.0215566912859 100" stroke="black" fill="none" marker-end="url(#arrowhead)"/>
<path d="M 1019.0215566912859 100 Q 1007.0215566912859 80, 995.0215566912859 100" stroke="black" fill="none" marker-end="url(#arrowhead)"/>
<path d="M 1019.0215566912859 100 Q 995.0215566912859 80, 971.0215566912859 100" stroke="black" fill="none" marker-end="url(#arrowhead)"/>
<path d="M 1019.0215566912859 100 Q 540.510778345643 80, 62.0 100" stroke="black" fill="none" marker-end="url(#arrowhead)"/>
<path d="M 1019.0215566912859 100 Q 1001.0215566912859 80, 983.0215566912859 100" stroke="black" fill="none" marker-end="url(#arrowhead)"/>
<path d="M 1031.021556691286 100 Q 1019.0215566912859 80, 1007.0215566912859 100" stroke="black" fill="none" marker-end="url(#arrowhead)"/>
<path d="M 1031.021556691286 100 Q 1001.0215566912859 80, 971.0215566912859 100" stroke="black" fill="none" marker-end="url(#arrowhead)"/>
<path d="M 1043.021556691286 100 Q 1013.0215566912859 80, 983.0215566912859 100" stroke="black" fill="none" marker-end="url(#arrowhead)"/>
<path d="M 1055.021556691286 100 Q 1037.021556691286 80, 1019.0215566912859 100" stroke="black" fill="none" marker-end="url(#arrowhead)"/>
<path d="M 1067.021556691286 100 Q 1055.021556691286 80, 1043.021556691286 100" stroke="black" fill="none" marker-end="url(#arrowhead)"/>
<path d="M 1079.021556691286 100 Q 1037.021556691286 80, 995.0215566912859 100" stroke="black" fill="none" marker-end="url(#arrowhead)"/>
<path d="M 1079.021556691286 100 Q 570.510778345643 80, 62.0 100" stroke="black" fill="none" marker-end="url(#arrowhead)"/>
<path d="M 1079.021556691286 100 Q 1061.021556691286 80, 1043.021556691286 100" stroke="black" fill="none" marker-end="url(#arrowhead)"/>
<path d="M 1091.021556691286 100 Q 576.510778345643 80, 62.0 100" stroke="black" fill="none" marker-end="url(#arrowhead)"/>
<path d="M 1091.021556691286 100 Q 1073.021556691286 80, 1055.021556691286 100" stroke="black" fill="none" marker-end="url(#arrowhead)"/>
<path d="M 1103.021556691286 100 Q 1097.021556691286 80, 1091.021556691286 100" stroke="black" fill="none" marker-end="url(#arrowhead)"/>
<path d="M 1115.021556691286 100 Q 1103.021556691286 80, 1091.021556691286 100" stroke="black" fill="none" marker-end="url(#arrowhead)"/>
<path d="M 1127.021556691286 100 Q 1061.021556691286 80, 995.0215566912859 100" stroke="black" fill="none" marker-end="url(#arrowhead)"/>
<path d="M 1139.021556691286 100 Q 1133.021556691286 80, 1127.021556691286 100" stroke="black" fill="none" marker-end="url(#arrowhead)"/>
<path d="M 1151.021556691286 100 Q 1091.021556691286 80, 1031.021556691286 100" stroke="black" fill="none" marker-end="url(#arrowhead)"/>
<path d="M 1163.021556691286 100 Q 1157.021556691286 80, 1151.021556691286 100" stroke="black" fill="none" marker-end="url(#arrowhead)"/>
<path d="M 1175.021556691286 100 Q 1169.021556691286 80, 1163.021556691286 100" stroke="black" fill="none" marker-end="url(#arrowhead)"/>
<path d="M 1187.021556691286 100 Q 1145.021556691286 80, 1103.021556691286 100" stroke="black" fill="none" marker-end="url(#arrowhead)"/>
<path d="M 1187.021556691286 100 Q 1079.021556691286 80, 971.0215566912859 100" stroke="black" fill="none" marker-end="url(#arrowhead)"/>
<path d="M 1199.021556691286 100 Q 1193.021556691286 80, 1187.021556691286 100" stroke="black" fill="none" marker-end="url(#arrowhead)"/>
<path d="M 1211.021556691286 100 Q 1205.021556691286 80, 1199.021556691286 100" stroke="black" fill="none" marker-end="url(#arrowhead)"/>
<path d="M 1211.021556691286 100 Q 1157.021556691286 80, 1103.021556691286 100" stroke="black" fill="none" marker-end="url(#arrowhead)"/>
<path d="M 1211.021556691286 100 Q 636.510778345643 80, 62.0 100" stroke="black" fill="none" marker-end="url(#arrowhead)"/>
<path d="M 1211.021556691286 100 Q 1199.021556691286 80, 1187.021556691286 100" stroke="black" fill="none" marker-end="url(#arrowhead)"/>
<path d="M 1223.021556691286 100 Q 1217.021556691286 80, 1211.021556691286 100" stroke="black" fill="none" marker-end="url(#arrowhead)"/>
<path d="M 1235.021556691286 100 Q 1229.021556691286 80, 1223.021556691286 100" stroke="black" fill="none" marker-end="url(#arrowhead)"/>
<path d="M 1235.021556691286 100 Q 648.510778345643 80, 62.0 100" stroke="black" fill="none" marker-end="url(#arrowhead)"/>
<path d="M 1247.021556691286 100 Q 1241.021556691286 80, 1235.021556691286 100" stroke="black" fill="none" marker-end="url(#arrowhead)"/>
<path d="M 1259.021556691286 100 Q 1091.021556691286 80, 923.0215566912859 100" stroke="black" fill="none" marker-end="url(#arrowhead)"/>
<path d="M 1271.021556691286 100 Q 1097.021556691286 80, 923.0215566912859 100" stroke="black" fill="none" marker-end="url(#arrowhead)"/>
<path d="M 1271.021556691286 100 Q 666.510778345643 80, 62.0 100" stroke="black" fill="none" marker-end="url(#arrowhead)"/>
<path d="M 1271.021556691286 100 Q 923.0215566912859 80, 575.0215566912859 100" stroke="black" fill="none" marker-end="url(#arrowhead)"/>
<path d="M 1271.021556691286 100 Q 1265.021556691286 80, 1259.021556691286 100" stroke="black" fill="none" marker-end="url(#arrowhead)"/>
<path d="M 1283.021556691286 100 Q 1247.021556691286 80, 1211.021556691286 100" stroke="black" fill="none" marker-end="url(#arrowhead)"/>
<path d="M 1283.021556691286 100 Q 1253.021556691286 80, 1223.021556691286 100" stroke="black" fill="none" marker-end="url(#arrowhead)"/>
<path d="M 1283.021556691286 100 Q 1259.021556691286 80, 1235.021556691286 100" stroke="black" fill="none" marker-end="url(#arrowhead)"/>
<path d="M 1283.021556691286 100 Q 1265.021556691286 80, 1247.021556691286 100" stroke="black" fill="none" marker-end="url(#arrowhead)"/>
<path d="M 1295.021556691286 100 Q 1289.021556691286 80, 1283.021556691286 100" stroke="black" fill="none" marker-end="url(#arrowhead)"/>
<path d="M 1307.021556691286 100 Q 1289.021556691286 80, 1271.021556691286 100" stroke="black" fill="none" marker-end="url(#arrowhead)"/>
<path d="M 1367.021556691286 100 Q 1361.021556691286 80, 1355.021556691286 100" stroke="black" fill="none" marker-end="url(#arrowhead)"/>
<path d="M 1379.021556691286 100 Q 1367.021556691286 80, 1355.021556691286 100" stroke="black" fill="none" marker-end="url(#arrowhead)"/>
<path d="M 1379.021556691286 100 Q 1373.021556691286 80, 1367.021556691286 100" stroke="black" fill="none" marker-end="url(#arrowhead)"/>
<path d="M 1391.021556691286 100 Q 1385.021556691286 80, 1379.021556691286 100" stroke="black" fill="none" marker-end="url(#arrowhead)"/>
<path d="M 1403.021556691286 100 Q 1385.021556691286 80, 1367.021556691286 100" stroke="black" fill="none" marker-end="url(#arrowhead)"/>
<path d="M 1403.021556691286 100 Q 1391.021556691286 80, 1379.021556691286 100" stroke="black" fill="none" marker-end="url(#arrowhead)"/>
<path d="M 1403.021556691286 100 Q 1397.021556691286 80, 1391.021556691286 100" stroke="black" fill="none" marker-end="url(#arrowhead)"/>
<path d="M 1415.021556691286 100 Q 1409.021556691286 80, 1403.021556691286 100" stroke="black" fill="none" marker-end="url(#arrowhead)"/>
<path d="M 1427.021556691286 100 Q 1415.021556691286 80, 1403.021556691286 100" stroke="black" fill="none" marker-end="url(#arrowhead)"/>
<path d="M 1427.021556691286 100 Q 1421.021556691286 80, 1415.021556691286 100" stroke="black" fill="none" marker-end="url(#arrowhead)"/>
<path d="M 1427.021556691286 100 Q 1403.021556691286 80, 1379.021556691286 100" stroke="black" fill="none" marker-end="url(#arrowhead)"/>
<path d="M 1427.021556691286 100 Q 1409.021556691286 80, 1391.021556691286 100" stroke="black" fill="none" marker-end="url(#arrowhead)"/>
<path d="M 1439.021556691286 100 Q 1433.021556691286 80, 1427.021556691286 100" stroke="black" fill="none" marker-end="url(#arrowhead)"/>
<path d="M 1451.021556691286 100 Q 1445.021556691286 80, 1439.021556691286 100" stroke="black" fill="none" marker-end="url(#arrowhead)"/>
<path d="M 1463.021556691286 100 Q 1457.021556691286 80, 1451.021556691286 100" stroke="black" fill="none" marker-end="url(#arrowhead)"/>
<path d="M 1475.021556691286 100 Q 1469.021556691286 80, 1463.021556691286 100" stroke="black" fill="none" marker-end="url(#arrowhead)"/>
<path d="M 1487.021556691286 100 Q 1481.021556691286 80, 1475.021556691286 100" stroke="black" fill="none" marker-end="url(#arrowhead)"/>
<path d="M 1499.021556691286 100 Q 1493.021556691286 80, 1487.021556691286 100" stroke="black" fill="none" marker-end="url(#arrowhead)"/>

<defs>
  <marker id="arrowhead" markerWidth="5" markerHeight="5" 
          refX="2" refY="2" orient="auto" fill="black">
    <path d="M0,0 L0,4 L4,2 z" />
  </marker>
</defs>

<circle cx="50.0" cy="100" r="6" fill="none" stroke="blue" stroke-width="2" />
<circle cx="50.0" cy="100" r="3" fill="blue" />
<circle cx="62.0" cy="100" r="4" fill="red" />
<circle cx="74.0" cy="100" r="6" fill="none" stroke="black" stroke-width="2" />
<circle cx="74.0" cy="100" r="3" fill="black" />
<circle cx="86.0" cy="100" r="4" fill="black" />
<circle cx="98.0" cy="100" r="4" fill="red" />
<circle cx="110.0" cy="100" r="4" fill="black" />
<circle cx="122.0" cy="100" r="6" fill="none" stroke="black" stroke-width="2" />
<circle cx="122.0" cy="100" r="3" fill="black" />
<circle cx="134.0" cy="100" r="6" fill="none" stroke="black" stroke-width="2" />
<circle cx="134.0" cy="100" r="3" fill="black" />
<circle cx="146.0" cy="100" r="4" fill="black" />
<circle cx="158.0" cy="100" r="4" fill="black" />
<circle cx="170.0" cy="100" r="4" fill="black" />
<circle cx="182.0" cy="100" r="6" fill="none" stroke="black" stroke-width="2" />
<circle cx="182.0" cy="100" r="3" fill="black" />
<circle cx="194.0" cy="100" r="4" fill="black" />
<circle cx="206.0" cy="100" r="4" fill="black" />
<circle cx="218.0" cy="100" r="6" fill="none" stroke="blue" stroke-width="2" />
<circle cx="218.0" cy="100" r="3" fill="blue" />
<circle cx="230.0" cy="100" r="6" fill="none" stroke="blue" stroke-width="2" />
<circle cx="230.0" cy="100" r="3" fill="blue" />
<circle cx="242.0" cy="100" r="6" fill="none" stroke="blue" stroke-width="2" />
<circle cx="242.0" cy="100" r="3" fill="blue" />
<circle cx="274.0502719942634" cy="100" r="6" fill="none" stroke="blue" stroke-width="2" />
<circle cx="274.0502719942634" cy="100" r="3" fill="blue" />
<circle cx="341.32851718753017" cy="100" r="6" fill="none" stroke="blue" stroke-width="2" />
<circle cx="341.32851718753017" cy="100" r="3" fill="blue" />
<circle cx="367.30386739155915" cy="100" r="6" fill="none" stroke="blue" stroke-width="2" />
<circle cx="367.30386739155915" cy="100" r="3" fill="blue" />
<circle cx="383.02155669128587" cy="100" r="4" fill="red" />
<circle cx="395.02155669128587" cy="100" r="6" fill="none" stroke="red" stroke-width="2" />
<circle cx="395.02155669128587" cy="100" r="3" fill="red" />
<circle cx="407.02155669128587" cy="100" r="4" fill="red" />
<circle cx="419.02155669128587" cy="100" r="4" fill="red" />
<circle cx="431.02155669128587" cy="100" r="6" fill="none" stroke="black" stroke-width="2" />
<circle cx="431.02155669128587" cy="100" r="3" fill="black" />
<circle cx="443.02155669128587" cy="100" r="6" fill="none" stroke="black" stroke-width="2" />
<circle cx="443.02155669128587" cy="100" r="3" fill="black" />
<circle cx="455.02155669128587" cy="100" r="4" fill="black" />
<circle cx="467.02155669128587" cy="100" r="4" fill="black" />
<circle cx="479.02155669128587" cy="100" r="6" fill="none" stroke="black" stroke-width="2" />
<circle cx="479.02155669128587" cy="100" r="3" fill="black" />
<circle cx="491.02155669128587" cy="100" r="6" fill="none" stroke="black" stroke-width="2" />
<circle cx="491.02155669128587" cy="100" r="3" fill="black" />
<circle cx="503.02155669128587" cy="100" r="4" fill="black" />
<circle cx="515.0215566912859" cy="100" r="4" fill="black" />
<circle cx="527.0215566912859" cy="100" r="4" fill="red" />
<circle cx="539.0215566912859" cy="100" r="4" fill="black" />
<circle cx="551.0215566912859" cy="100" r="6" fill="none" stroke="black" stroke-width="2" />
<circle cx="551.0215566912859" cy="100" r="3" fill="black" />
<circle cx="563.0215566912859" cy="100" r="6" fill="none" stroke="blue" stroke-width="2" />
<circle cx="563.0215566912859" cy="100" r="3" fill="blue" />
<circle cx="575.0215566912859" cy="100" r="4" fill="red" />
<circle cx="587.0215566912859" cy="100" r="6" fill="none" stroke="blue" stroke-width="2" />
<circle cx="587.0215566912859" cy="100" r="3" fill="blue" />
<circle cx="599.0215566912859" cy="100" r="4" fill="black" />
<circle cx="611.0215566912859" cy="100" r="4" fill="red" />
<circle cx="623.0215566912859" cy="100" r="6" fill="none" stroke="red" stroke-width="2" />
<circle cx="623.0215566912859" cy="100" r="3" fill="red" />
<circle cx="635.0215566912859" cy="100" r="4" fill="black" />
<circle cx="647.0215566912859" cy="100" r="4" fill="black" />
<circle cx="659.0215566912859" cy="100" r="4" fill="black" />
<circle cx="671.0215566912859" cy="100" r="4" fill="black" />
<circle cx="683.0215566912859" cy="100" r="4" fill="black" />
<circle cx="695.0215566912859" cy="100" r="4" fill="red" />
<circle cx="707.0215566912859" cy="100" r="6" fill="none" stroke="black" stroke-width="2" />
<circle cx="707.0215566912859" cy="100" r="3" fill="black" />
<circle cx="719.0215566912859" cy="100" r="6" fill="none" stroke="red" stroke-width="2" />
<circle cx="719.0215566912859" cy="100" r="3" fill="red" />
<circle cx="731.0215566912859" cy="100" r="4" fill="black" />
<circle cx="743.0215566912859" cy="100" r="6" fill="none" stroke="black" stroke-width="2" />
<circle cx="743.0215566912859" cy="100" r="3" fill="black" />
<circle cx="755.0215566912859" cy="100" r="4" fill="black" />
<circle cx="767.0215566912859" cy="100" r="4" fill="blue" />
<circle cx="779.0215566912859" cy="100" r="6" fill="none" stroke="black" stroke-width="2" />
<circle cx="779.0215566912859" cy="100" r="3" fill="black" />
<circle cx="791.0215566912859" cy="100" r="4" fill="black" />
<circle cx="803.0215566912859" cy="100" r="4" fill="black" />
<circle cx="815.0215566912859" cy="100" r="6" fill="none" stroke="black" stroke-width="2" />
<circle cx="815.0215566912859" cy="100" r="3" fill="black" />
<circle cx="827.0215566912859" cy="100" r="6" fill="none" stroke="black" stroke-width="2" />
<circle cx="827.0215566912859" cy="100" r="3" fill="black" />
<circle cx="839.0215566912859" cy="100" r="4" fill="red" />
<circle cx="851.0215566912859" cy="100" r="4" fill="black" />
<circle cx="863.0215566912859" cy="100" r="4" fill="black" />
<circle cx="875.0215566912859" cy="100" r="6" fill="none" stroke="black" stroke-width="2" />
<circle cx="875.0215566912859" cy="100" r="3" fill="black" />
<circle cx="887.0215566912859" cy="100" r="4" fill="blue" />
<circle cx="899.0215566912859" cy="100" r="6" fill="none" stroke="black" stroke-width="2" />
<circle cx="899.0215566912859" cy="100" r="3" fill="black" />
<circle cx="911.0215566912859" cy="100" r="6" fill="none" stroke="black" stroke-width="2" />
<circle cx="911.0215566912859" cy="100" r="3" fill="black" />
<circle cx="923.0215566912859" cy="100" r="6" fill="none" stroke="blue" stroke-width="2" />
<circle cx="923.0215566912859" cy="100" r="3" fill="blue" />
<circle cx="935.0215566912859" cy="100" r="4" fill="blue" />
<circle cx="947.0215566912859" cy="100" r="4" fill="red" />
<circle cx="959.0215566912859" cy="100" r="6" fill="none" stroke="black" stroke-width="2" />
<circle cx="959.0215566912859" cy="100" r="3" fill="black" />
<circle cx="971.0215566912859" cy="100" r="4" fill="blue" />
<circle cx="983.0215566912859" cy="100" r="6" fill="none" stroke="red" stroke-width="2" />
<circle cx="983.0215566912859" cy="100" r="3" fill="red" />
<circle cx="995.0215566912859" cy="100" r="4" fill="black" />
<circle cx="1007.0215566912859" cy="100" r="4" fill="black" />
<circle cx="1019.0215566912859" cy="100" r="6" fill="none" stroke="black" stroke-width="2" />
<circle cx="1019.0215566912859" cy="100" r="3" fill="black" />
<circle cx="1031.021556691286" cy="100" r="6" fill="none" stroke="black" stroke-width="2" />
<circle cx="1031.021556691286" cy="100" r="3" fill="black" />
<circle cx="1043.021556691286" cy="100" r="4" fill="black" />
<circle cx="1055.021556691286" cy="100" r="4" fill="black" />
<circle cx="1067.021556691286" cy="100" r="4" fill="black" />
<circle cx="1079.021556691286" cy="100" r="4" fill="black" />
<circle cx="1091.021556691286" cy="100" r="4" fill="black" />
<circle cx="1103.021556691286" cy="100" r="4" fill="black" />
<circle cx="1115.021556691286" cy="100" r="4" fill="black" />
<circle cx="1127.021556691286" cy="100" r="4" fill="black" />
<circle cx="1139.021556691286" cy="100" r="4" fill="black" />
<circle cx="1151.021556691286" cy="100" r="4" fill="red" />
<circle cx="1163.021556691286" cy="100" r="4" fill="black" />
<circle cx="1175.021556691286" cy="100" r="4" fill="black" />
<circle cx="1187.021556691286" cy="100" r="6" fill="none" stroke="black" stroke-width="2" />
<circle cx="1187.021556691286" cy="100" r="3" fill="black" />
<circle cx="1199.021556691286" cy="100" r="4" fill="black" />
<circle cx="1211.021556691286" cy="100" r="6" fill="none" stroke="black" stroke-width="2" />
<circle cx="1211.021556691286" cy="100" r="3" fill="black" />
<circle cx="1223.021556691286" cy="100" r="4" fill="black" />
<circle cx="1235.021556691286" cy="100" r="4" fill="black" />
<circle cx="1247.021556691286" cy="100" r="4" fill="black" />
<circle cx="1259.021556691286" cy="100" r="4" fill="red" />
<circle cx="1271.021556691286" cy="100" r="6" fill="none" stroke="red" stroke-width="2" />
<circle cx="1271.021556691286" cy="100" r="3" fill="red" />
<circle cx="1283.021556691286" cy="100" r="6" fill="none" stroke="black" stroke-width="2" />
<circle cx="1283.021556691286" cy="100" r="3" fill="black" />
<circle cx="1295.021556691286" cy="100" r="4" fill="black" />
<circle cx="1307.021556691286" cy="100" r="4" fill="red" />
<circle cx="1319.021556691286" cy="100" r="6" fill="none" stroke="blue" stroke-width="2" />
<circle cx="1319.021556691286" cy="100" r="3" fill="blue" />
<circle cx="1331.021556691286" cy="100" r="6" fill="none" stroke="blue" stroke-width="2" />
<circle cx="1331.021556691286" cy="100" r="3" fill="blue" />
<circle cx="1343.021556691286" cy="100" r="6" fill="none" stroke="blue" stroke-width="2" />
<circle cx="1343.021556691286" cy="100" r="3" fill="blue" />
<circle cx="1355.021556691286" cy="100" r="6" fill="none" stroke="blue" stroke-width="2" />
<circle cx="1355.021556691286" cy="100" r="3" fill="blue" />
<circle cx="1367.021556691286" cy="100" r="4" fill="red" />
<circle cx="1379.021556691286" cy="100" r="6" fill="none" stroke="black" stroke-width="2" />
<circle cx="1379.021556691286" cy="100" r="3" fill="black" />
<circle cx="1391.021556691286" cy="100" r="4" fill="red" />
<circle cx="1403.021556691286" cy="100" r="6" fill="none" stroke="black" stroke-width="2" />
<circle cx="1403.021556691286" cy="100" r="3" fill="black" />
<circle cx="1415.021556691286" cy="100" r="4" fill="black" />
<circle cx="1427.021556691286" cy="100" r="6" fill="none" stroke="black" stroke-width="2" />
<circle cx="1427.021556691286" cy="100" r="3" fill="black" />
<circle cx="1439.021556691286" cy="100" r="4" fill="black" />
<circle cx="1451.021556691286" cy="100" r="4" fill="black" />
<circle cx="1463.021556691286" cy="100" r="4" fill="black" />
<circle cx="1475.021556691286" cy="100" r="4" fill="black" />
<circle cx="1487.021556691286" cy="100" r="4" fill="black" />
<circle cx="1499.021556691286" cy="100" r="4" fill="red" />
<text x="50" y="125" fill="gray" style="font-size:12px;">2023-06-08T15:40:12+00:00</text>
<text x="900" y="125" fill="gray" style="font-size:12px;">2024-11-11T20:12:20+00:00</text>
</svg>