<svg xmlns="http://www.w3.org/2000/svg" width="1000" height="200" style="background-color: white; font-family: sans-serif;">
<line x1="50" y1="100" x2="950" y2="100" stroke="gray" stroke-width="1"/>
<path d="M 143.8550899438299 100 Q 96.92754497191495 80, 50.0 100" stroke="black" fill="none" marker-end="url(#arrowhead)"/>
<path d="M 190.81441159749363 100 Q 120.40720579874682 80, 50.0 100" stroke="black" fill="none" marker-end="url(#arrowhead)"/>
<path d="M 202.81441159749363 100 Q 196.81441159749363 80, 190.81441159749363 100" stroke="black" fill="none" marker-end="url(#arrowhead)"/>
<path d="M 214.81441159749363 100 Q 196.81441159749363 80, 178.81441159749363 100" stroke="black" fill="none" marker-end="url(#arrowhead)"/>
<path d="M 265.22941219671793 100 Q 157.61470609835897 80, 50.0 100" stroke="black" fill="none" marker-end="url(#arrowhead)"/>
<path d="M 277.22941219671793 100 Q 271.22941219671793 80, 265.22941219671793 100" stroke="black" fill="none" marker-end="url(#arrowhead)"/>
<path d="M 289.22941219671793 100 Q 283.22941219671793 80, 277.22941219671793 100" stroke="black" fill="none" marker-end="url(#arrowhead)"/>
<path d="M 307.79328279148166 100 Q 178.89664139574083 80, 50.0 100" stroke="black" fill="none" marker-end="url(#arrowhead)"/>
<path d="M 319.79328279148166 100 Q 292.5113474940998 80, 265.22941219671793 100" stroke="black" fill="none" marker-end="url(#arrowhead)"/>
<path d="M 319.79328279148166 100 Q 298.5113474940998 80, 277.22941219671793 100" stroke="black" fill="none" marker-end="url(#arrowhead)"/>
<path d="M 331.79328279148166 100 Q 319.79328279148166 80, 307.79328279148166 100" stroke="black" fill="none" marker-end="url(#arrowhead)"/>
<path d="M 343.79328279148166 100 Q 337.79328279148166 80, 331.79328279148166 100" stroke="black" fill="none" marker-end="url(#arrowhead)"/>
<path d="M 355.79328279148166 100 Q 349.79328279148166 80, 343.79328279148166 100" stroke="black" fill="none" marker-end="url(#arrowhead)"/>
<path d="M 367.79328279148166 100 Q 361.79328279148166 80, 355.79328279148166 100" stroke="black" fill="none" marker-end="url(#arrowhead)"/>
<path d="M 379.79328279148166 100 Q 373.79328279148166 80, 367.79328279148166 100" stroke="black" fill="none" marker-end="url(#arrowhead)"/>
<path d="M 391.79328279148166 100 Q 379.79328279148166 80, 367.79328279148166 100" stroke="black" fill="none" marker-end="url(#arrowhead)"/>
<path d="M 403.79328279148166 100 Q 391.79328279148166 80, 379.79328279148166 100" stroke="black" fill="none" marker-end="url(#arrowhead)"/>
<path d="M 415.79328279148166 100 Q 403.79328279148166 80, 391.79328279148166 100" stroke="black" fill="none" marker-end="url(#arrowhead)"/>
<path d="M 427.79328279148166 100 Q 397.79328279148166 80, 367.79328279148166 100" stroke="black" fill="none" marker-end="url(#arrowhead)"/>
<path d="M 439.79328279148166 100 Q 433.79328279148166 80, 427.79328279148166 100" stroke="black" fill="none" marker-end="url(#arrowhead)"/>
<path d="M 451.79328279148166 100 Q 445.79328279148166 80, 439.79328279148166 100" stroke="black" fill="none" marker-end="url(#arrowhead)"/>
<path d="M 463.79328279148166 100 Q 451.79328279148166 80, 439.79328279148166 100" stroke="black" fill="none" marker-end="url(#arrowhead)"/>
<path d="M 475.79328279148166 100 Q 457.79328279148166 80, 439.79328279148166 100" stroke="black" fill="none" marker-end="url(#arrowhead)"/>
<path d="M 475.79328279148166 100 Q 463.79328279148166 80, 451.79328279148166 100" stroke="black" fill="none" marker-end="url(#arrowhead)"/>
<path d="M 487.79328279148166 100 Q 481.79328279148166 80, 475.79328279148166 100" stroke="black" fill="none" marker-end="url(#arrowhead)"/>
<path d="M 499.79328279148166 100 Q 493.79328279148166 80, 487.79328279148166 100" stroke="black" fill="none" marker-end="url(#arrowhead)"/>
<path d="M 511.79328279148166 100 Q 499.79328279148166 80, 487.79328279148166 100" stroke="black" fill="none" marker-end="url(#arrowhead)"/>
<path d="M 523.7932827914817 100 Q 475.7932827914817 80, 427.79328279148166 100" stroke="black" fill="none" marker-end="url(#arrowhead)"/>
<path d="M 535.7932827914817 100 Q 523.7932827914817 80, 511.79328279148166 100" stroke="black" fill="none" marker-end="url(#arrowhead)"/>
<path d="M 547.7932827914817 100 Q 541.7932827914817 80, 535.7932827914817 100" stroke="black" fill="none" marker-end="url(#arrowhead)"/>
<path d="M 559.7932827914817 100 Q 553.7932827914817 80, 547.7932827914817 100" stroke="black" fill="none" marker-end="url(#arrowhead)"/>
<path d="M 636.9195614201424 100 Q 598.356422105812 80, 559.7932827914817 100" stroke="black" fill="none" marker-end="url(#arrowhead)"/>
<path d="M 929.0421168335627 100 Q 489.52105841678133 80, 50.0 100" stroke="black" fill="none" marker-end="url(#arrowhead)"/>
<path d="M 942.21277923024 100 Q 935.6274480319014 80, 929.0421168335627 100" stroke="black" fill="none" marker-end="url(#arrowhead)"/>
<path d="M 954.21277923024 100 Q 948.21277923024 80, 942.21277923024 100" stroke="black" fill="none" marker-end="url(#arrowhead)"/>
<path d="M 966.21277923024 100 Q 947.6274480319014 80, 929.0421168335627 100" stroke="black" fill="none" marker-end="url(#arrowhead)"/>

<defs>
  <marker id="arrowhead" markerWidth="5" markerHeight="5" 
          refX="2" refY="2" orient="auto" fill="black">
    <path d="M0,0 L0,4 L4,2 z" />
  </marker>
</defs>

<circle cx="50.0" cy="100" r="6" fill="none" stroke="blue" stroke-width="2" />
<circle cx="50.0" cy="100" r="3" fill="blue" />
<circle cx="143.8550899438299" cy="100" r="6" fill="none" stroke="black" stroke-width="2" />
<circle cx="143.8550899438299" cy="100" r="3" fill="black" />
<circle cx="178.81441159749363" cy="100" r="4" fill="red" />
<circle cx="190.81441159749363" cy="100" r="4" fill="blue" />
<circle cx="202.81441159749363" cy="100" r="6" fill="none" stroke="blue" stroke-width="2" />
<circle cx="202.81441159749363" cy="100" r="3" fill="blue" />
<circle cx="214.81441159749363" cy="100" r="6" fill="none" stroke="black" stroke-width="2" />
<circle cx="214.81441159749363" cy="100" r="3" fill="black" />
<circle cx="265.22941219671793" cy="100" r="4" fill="blue" />
<circle cx="277.22941219671793" cy="100" r="6" fill="none" stroke="red" stroke-width="2" />
<circle cx="277.22941219671793" cy="100" r="3" fill="red" />
<circle cx="289.22941219671793" cy="100" r="4" fill="red" />
<circle cx="307.79328279148166" cy="100" r="4" fill="red" />
<circle cx="319.79328279148166" cy="100" r="4" fill="black" />
<circle cx="331.79328279148166" cy="100" r="6" fill="none" stroke="red" stroke-width="2" />
<circle cx="331.79328279148166" cy="100" r="3" fill="red" />
<circle cx="343.79328279148166" cy="100" r="4" fill="red" />
<circle cx="355.79328279148166" cy="100" r="6" fill="none" stroke="black" stroke-width="2" />
<circle cx="355.79328279148166" cy="100" r="3" fill="black" />
<circle cx="367.79328279148166" cy="100" r="4" fill="black" />
<circle cx="379.79328279148166" cy="100" r="4" fill="black" />
<circle cx="391.79328279148166" cy="100" r="4" fill="black" />
<circle cx="403.79328279148166" cy="100" r="4" fill="black" />
<circle cx="415.79328279148166" cy="100" r="4" fill="black" />
<circle cx="427.79328279148166" cy="100" r="6" fill="none" stroke="black" stroke-width="2" />
<circle cx="427.79328279148166" cy="100" r="3" fill="black" />
<circle cx="439.79328279148166" cy="100" r="4" fill="black" />
<circle cx="451.79328279148166" cy="100" r="4" fill="black" />
<circle cx="463.79328279148166" cy="100" r="6" fill="none" stroke="black" stroke-width="2" />
<circle cx="463.79328279148166" cy="100" r="3" fill="black" />
<circle cx="475.79328279148166" cy="100" r="4" fill="black" />
<circle cx="487.79328279148166" cy="100" r="4" fill="black" />
<circle cx="499.79328279148166" cy="100" r="4" fill="black" />
<circle cx="511.79328279148166" cy="100" r="6" fill="none" stroke="black" stroke-width="2" />
<circle cx="511.79328279148166" cy="100" r="3" fill="black" />
<circle cx="523.7932827914817" cy="100" r="4" fill="red" />
<circle cx="535.7932827914817" cy="100" r="6" fill="none" stroke="black" stroke-width="2" />
<circle cx="535.7932827914817" cy="100" r="3" fill="black" />
<circle cx="547.7932827914817" cy="100" r="4" fill="black" />
<circle cx="559.7932827914817" cy="100" r="4" fill="blue" />
<circle cx="636.9195614201424" cy="100" r="4" fill="blue" />
<circle cx="929.0421168335627" cy="100" r="6" fill="none" stroke="blue" stroke-width="2" />
<circle cx="929.0421168335627" cy="100" r="3" fill="blue" />
<circle cx="942.21277923024" cy="100" r="6" fill="none" stroke="blue" stroke-width="2" />
<circle cx="942.21277923024" cy="100" r="3" fill="blue" />
<circle cx="954.21277923024" cy="100" r="4" fill="blue" />
<circle cx="966.21277923024" cy="100" r="4" fill="red" />
<text x="50" y="125" fill="gray" style="font-size:12px;">2024-10-18T19:21:19+00:00</text>
<text x="900" y="125" fill="gray" style="font-size:12px;">2025-02-28T12:01:41+00:00</text>
</svg>