<svg xmlns="http://www.w3.org/2000/svg" width="1000" height="400" style="background-color: white; font-family: sans-serif;">
<line x1="50" y1="200" x2="950" y2="200" stroke="gray" stroke-width="1"/>
<path d="M 62.0 200 Q 56.0 180, 50.0 200" stroke="black" fill="none" marker-end="url(#arrowhead)"/>
<path d="M 74.0 200 Q 68.0 180, 62.0 200" stroke="black" fill="none" marker-end="url(#arrowhead)"/>
<path d="M 858.9891203433197 200 Q 841.8332870398373 180, 824.6774537363549 200" stroke="black" fill="none" marker-end="url(#arrowhead)"/>
<path d="M 878.7760841339759 200 Q 868.8826022386478 180, 858.9891203433197 200" stroke="black" fill="none" marker-end="url(#arrowhead)"/>
<path d="M 959.3815537350043 200 Q 953.3815537350043 180, 947.3815537350043 200" stroke="black" fill="none" marker-end="url(#arrowhead)"/>

<defs>
  <marker id="arrowhead" markerWidth="5" markerHeight="5" 
          refX="2" refY="2" orient="auto" fill="black">
    <path d="M0,0 L0,4 L4,2 z" />
  </marker>
</defs>

<circle cx="50.0" cy="200" r="6" fill="none" stroke="black" stroke-width="2" />
<circle cx="50.0" cy="200" r="3" fill="black" />
<circle cx="62.0" cy="200" r="4" fill="red" />
<circle cx="74.0" cy="200" r="4" fill="black" />
<circle cx="86.0" cy="200" r="4" fill="black" />
<circle cx="98.0" cy="200" r="4" fill="black" />
<circle cx="824.6774537363549" cy="200" r="4" fill="blue" />
<circle cx="858.9891203433197" cy="200" r="4" fill="red" />
<circle cx="878.7760841339759" cy="200" r="4" fill="black" />
<circle cx="947.3815537350043" cy="200" r="4" fill="black" />
<circle cx="959.3815537350043" cy="200" r="4" fill="red" />
<text x="50" y="225" fill="gray" style="font-size:12px;">2024-11-21T23:27:33+00:00</text>
<text x="900" y="225" fill="gray" style="font-size:12px;">2025-02-28T12:36:08+00:00</text>
</svg>