<svg xmlns="http://www.w3.org/2000/svg" width="1000" height="200" style="background-color: white; font-family: sans-serif;">
<line x1="50" y1="100" x2="950" y2="100" stroke="gray" stroke-width="1"/>
<path d="M 62.0 100 Q 56.0 80, 50.0 100" stroke="black" fill="none" marker-end="url(#arrowhead)"/>
<path d="M 74.0 100 Q 68.0 80, 62.0 100" stroke="black" fill="none" marker-end="url(#arrowhead)"/>
<path d="M 858.9891203433197 100 Q 841.8332870398373 80, 824.6774537363549 100" stroke="black" fill="none" marker-end="url(#arrowhead)"/>
<path d="M 878.7760841339759 100 Q 868.8826022386478 80, 858.9891203433197 100" stroke="black" fill="none" marker-end="url(#arrowhead)"/>
<path d="M 959.3815537350043 100 Q 953.3815537350043 80, 947.3815537350043 100" stroke="black" fill="none" marker-end="url(#arrowhead)"/>

<defs>
  <marker id="arrowhead" markerWidth="5" markerHeight="5" 
          refX="2" refY="2" orient="auto" fill="black">
    <path d="M0,0 L0,4 L4,2 z" />
  </marker>
</defs>

<circle cx="50.0" cy="100" r="6" fill="none" stroke="black" stroke-width="2" />
<circle cx="50.0" cy="100" r="3" fill="black" />
<circle cx="62.0" cy="100" r="4" fill="red" />
<circle cx="74.0" cy="100" r="4" fill="black" />
<circle cx="86.0" cy="100" r="4" fill="black" />
<circle cx="98.0" cy="100" r="4" fill="black" />
<circle cx="824.6774537363549" cy="100" r="4" fill="blue" />
<circle cx="858.9891203433197" cy="100" r="4" fill="red" />
<circle cx="878.7760841339759" cy="100" r="4" fill="black" />
<circle cx="947.3815537350043" cy="100" r="4" fill="black" />
<circle cx="959.3815537350043" cy="100" r="4" fill="red" />
<text x="50" y="125" fill="gray" style="font-size:12px;">2024-11-21T23:27:33+00:00</text>
<text x="900" y="125" fill="gray" style="font-size:12px;">2025-02-28T12:36:08+00:00</text>
</svg>