<svg xmlns="http://www.w3.org/2000/svg" width="1000" height="400" style="background-color: white; font-family: sans-serif;">
<line x1="50" y1="200" x2="950" y2="200" stroke="gray" stroke-width="1"/>
<path d="M 62.0 200 Q 56.0 180, 50.0 200" stroke="black" fill="none" marker-end="url(#arrowhead)"/>
<path d="M 74.0 200 Q 68.0 180, 62.0 200" stroke="black" fill="none" marker-end="url(#arrowhead)"/>
<path d="M 86.0 200 Q 68.0 180, 50.0 200" stroke="black" fill="none" marker-end="url(#arrowhead)"/>
<path d="M 86.0 200 Q 74.0 180, 62.0 200" stroke="black" fill="none" marker-end="url(#arrowhead)"/>
<path d="M 98.0 200 Q 74.0 180, 50.0 200" stroke="black" fill="none" marker-end="url(#arrowhead)"/>
<path d="M 98.0 200 Q 80.0 180, 62.0 200" stroke="black" fill="none" marker-end="url(#arrowhead)"/>
<path d="M 98.0 200 Q 92.0 180, 86.0 200" stroke="black" fill="none" marker-end="url(#arrowhead)"/>
<path d="M 110.0 200 Q 98.0 180, 86.0 200" stroke="black" fill="none" marker-end="url(#arrowhead)"/>
<path d="M 122.0 200 Q 92.0 180, 62.0 200" stroke="black" fill="none" marker-end="url(#arrowhead)"/>
<path d="M 122.0 200 Q 98.0 180, 74.0 200" stroke="black" fill="none" marker-end="url(#arrowhead)"/>
<path d="M 134.0 200 Q 128.0 180, 122.0 200" stroke="black" fill="none" marker-end="url(#arrowhead)"/>
<path d="M 146.0 200 Q 140.0 180, 134.0 200" stroke="black" fill="none" marker-end="url(#arrowhead)"/>
<path d="M 158.0 200 Q 140.0 180, 122.0 200" stroke="black" fill="none" marker-end="url(#arrowhead)"/>
<path d="M 158.0 200 Q 152.0 180, 146.0 200" stroke="black" fill="none" marker-end="url(#arrowhead)"/>
<path d="M 170.0 200 Q 164.0 180, 158.0 200" stroke="black" fill="none" marker-end="url(#arrowhead)"/>
<path d="M 182.0 200 Q 176.0 180, 170.0 200" stroke="black" fill="none" marker-end="url(#arrowhead)"/>
<path d="M 182.0 200 Q 152.0 180, 122.0 200" stroke="black" fill="none" marker-end="url(#arrowhead)"/>
<path d="M 194.0 200 Q 182.0 180, 170.0 200" stroke="black" fill="none" marker-end="url(#arrowhead)"/>
<path d="M 194.0 200 Q 188.0 180, 182.0 200" stroke="black" fill="none" marker-end="url(#arrowhead)"/>
<path d="M 194.0 200 Q 158.0 180, 122.0 200" stroke="black" fill="none" marker-end="url(#arrowhead)"/>
<path d="M 194.0 200 Q 176.0 180, 158.0 200" stroke="black" fill="none" marker-end="url(#arrowhead)"/>
<path d="M 206.0 200 Q 200.0 180, 194.0 200" stroke="black" fill="none" marker-end="url(#arrowhead)"/>
<path d="M 218.0 200 Q 200.0 180, 182.0 200" stroke="black" fill="none" marker-end="url(#arrowhead)"/>
<path d="M 230.0 200 Q 218.0 180, 206.0 200" stroke="black" fill="none" marker-end="url(#arrowhead)"/>
<path d="M 242.0 200 Q 236.0 180, 230.0 200" stroke="black" fill="none" marker-end="url(#arrowhead)"/>
<path d="M 254.0 200 Q 248.0 180, 242.0 200" stroke="black" fill="none" marker-end="url(#arrowhead)"/>
<path d="M 254.0 200 Q 188.0 180, 122.0 200" stroke="black" fill="none" marker-end="url(#arrowhead)"/>
<path d="M 266.0 200 Q 260.0 180, 254.0 200" stroke="black" fill="none" marker-end="url(#arrowhead)"/>
<path d="M 585.0196536908636 200 Q 353.5098268454318 180, 122.0 200" stroke="black" fill="none" marker-end="url(#arrowhead)"/>
<path d="M 585.0196536908636 200 Q 425.5098268454318 180, 266.0 200" stroke="black" fill="none" marker-end="url(#arrowhead)"/>
<path d="M 609.0196536908636 200 Q 603.0196536908636 180, 597.0196536908636 200" stroke="black" fill="none" marker-end="url(#arrowhead)"/>
<path d="M 645.0196536908636 200 Q 639.0196536908636 180, 633.0196536908636 200" stroke="black" fill="none" marker-end="url(#arrowhead)"/>
<path d="M 657.0196536908636 200 Q 639.0196536908636 180, 621.0196536908636 200" stroke="black" fill="none" marker-end="url(#arrowhead)"/>
<path d="M 689.4646266221355 200 Q 673.2421401564995 180, 657.0196536908636 200" stroke="black" fill="none" marker-end="url(#arrowhead)"/>
<path d="M 776.25511800859 200 Q 732.8598723153627 180, 689.4646266221355 200" stroke="black" fill="none" marker-end="url(#arrowhead)"/>
<path d="M 788.25511800859 200 Q 722.6373858497268 180, 657.0196536908636 200" stroke="black" fill="none" marker-end="url(#arrowhead)"/>
<path d="M 800.25511800859 200 Q 794.25511800859 180, 788.25511800859 200" stroke="black" fill="none" marker-end="url(#arrowhead)"/>
<path d="M 800.25511800859 200 Q 728.6373858497268 180, 657.0196536908636 200" stroke="black" fill="none" marker-end="url(#arrowhead)"/>
<path d="M 812.25511800859 200 Q 800.25511800859 180, 788.25511800859 200" stroke="black" fill="none" marker-end="url(#arrowhead)"/>
<path d="M 824.25511800859 200 Q 818.25511800859 180, 812.25511800859 200" stroke="black" fill="none" marker-end="url(#arrowhead)"/>
<path d="M 836.25511800859 200 Q 830.25511800859 180, 824.25511800859 200" stroke="black" fill="none" marker-end="url(#arrowhead)"/>
<path d="M 848.25511800859 200 Q 818.25511800859 180, 788.25511800859 200" stroke="black" fill="none" marker-end="url(#arrowhead)"/>
<path d="M 848.25511800859 200 Q 830.25511800859 180, 812.25511800859 200" stroke="black" fill="none" marker-end="url(#arrowhead)"/>
<path d="M 848.25511800859 200 Q 836.25511800859 180, 824.25511800859 200" stroke="black" fill="none" marker-end="url(#arrowhead)"/>
<path d="M 860.25511800859 200 Q 854.25511800859 180, 848.25511800859 200" stroke="black" fill="none" marker-end="url(#arrowhead)"/>
<path d="M 872.25511800859 200 Q 866.25511800859 180, 860.25511800859 200" stroke="black" fill="none" marker-end="url(#arrowhead)"/>
<path d="M 884.25511800859 200 Q 878.25511800859 180, 872.25511800859 200" stroke="black" fill="none" marker-end="url(#arrowhead)"/>
<path d="M 896.25511800859 200 Q 890.25511800859 180, 884.25511800859 200" stroke="black" fill="none" marker-end="url(#arrowhead)"/>
<path d="M 908.25511800859 200 Q 902.25511800859 180, 896.25511800859 200" stroke="black" fill="none" marker-end="url(#arrowhead)"/>

<defs>
  <marker id="arrowhead" markerWidth="5" markerHeight="5" 
          refX="2" refY="2" orient="auto" fill="black">
    <path d="M0,0 L0,4 L4,2 z" />
  </marker>
</defs>

<circle cx="50.0" cy="200" r="6" fill="none" stroke="red" stroke-width="2" />
<circle cx="50.0" cy="200" r="3" fill="red" />
<circle cx="62.0" cy="200" r="4" fill="red" />
<circle cx="74.0" cy="200" r="4" fill="black" />
<circle cx="86.0" cy="200" r="4" fill="black" />
<circle cx="98.0" cy="200" r="4" fill="black" />
<circle cx="110.0" cy="200" r="4" fill="black" />
<circle cx="122.0" cy="200" r="4" fill="black" />
<circle cx="134.0" cy="200" r="4" fill="black" />
<circle cx="146.0" cy="200" r="4" fill="black" />
<circle cx="158.0" cy="200" r="4" fill="black" />
<circle cx="170.0" cy="200" r="4" fill="black" />
<circle cx="182.0" cy="200" r="4" fill="blue" />
<circle cx="194.0" cy="200" r="4" fill="blue" />
<circle cx="206.0" cy="200" r="4" fill="black" />
<circle cx="218.0" cy="200" r="4" fill="black" />
<circle cx="230.0" cy="200" r="4" fill="black" />
<circle cx="242.0" cy="200" r="4" fill="black" />
<circle cx="254.0" cy="200" r="4" fill="black" />
<circle cx="266.0" cy="200" r="4" fill="black" />
<circle cx="585.0196536908636" cy="200" r="4" fill="blue" />
<circle cx="597.0196536908636" cy="200" r="4" fill="blue" />
<circle cx="609.0196536908636" cy="200" r="4" fill="black" />
<circle cx="621.0196536908636" cy="200" r="4" fill="blue" />
<circle cx="633.0196536908636" cy="200" r="6" fill="none" stroke="blue" stroke-width="2" />
<circle cx="633.0196536908636" cy="200" r="3" fill="blue" />
<circle cx="645.0196536908636" cy="200" r="4" fill="black" />
<circle cx="657.0196536908636" cy="200" r="4" fill="red" />
<circle cx="689.4646266221355" cy="200" r="4" fill="black" />
<circle cx="776.25511800859" cy="200" r="4" fill="blue" />
<circle cx="788.25511800859" cy="200" r="4" fill="red" />
<circle cx="800.25511800859" cy="200" r="4" fill="red" />
<circle cx="812.25511800859" cy="200" r="4" fill="black" />
<circle cx="824.25511800859" cy="200" r="4" fill="blue" />
<circle cx="836.25511800859" cy="200" r="4" fill="black" />
<circle cx="848.25511800859" cy="200" r="4" fill="green" />
<circle cx="860.25511800859" cy="200" r="4" fill="red" />
<circle cx="872.25511800859" cy="200" r="4" fill="black" />
<circle cx="884.25511800859" cy="200" r="4" fill="black" />
<circle cx="896.25511800859" cy="200" r="4" fill="blue" />
<circle cx="908.25511800859" cy="200" r="4" fill="green" />
<circle cx="950.0" cy="200" r="4" fill="blue" />
<text x="50" y="225" fill="gray" style="font-size:12px;">2023-11-15T10:27:49+00:00</text>
<text x="900" y="225" fill="gray" style="font-size:12px;">2025-02-09T07:32:34+00:00</text>
</svg>