<svg xmlns="http://www.w3.org/2000/svg" width="1000" height="200" style="background-color: white; font-family: sans-serif;">
<line x1="50" y1="100" x2="950" y2="100" stroke="gray" stroke-width="1"/>
<path d="M 62.0 100 Q 56.0 80, 50.0 100" stroke="black" fill="none" marker-end="url(#arrowhead)"/>
<path d="M 74.0 100 Q 68.0 80, 62.0 100" stroke="black" fill="none" marker-end="url(#arrowhead)"/>
<path d="M 86.0 100 Q 68.0 80, 50.0 100" stroke="black" fill="none" marker-end="url(#arrowhead)"/>
<path d="M 86.0 100 Q 74.0 80, 62.0 100" stroke="black" fill="none" marker-end="url(#arrowhead)"/>
<path d="M 98.0 100 Q 74.0 80, 50.0 100" stroke="black" fill="none" marker-end="url(#arrowhead)"/>
<path d="M 98.0 100 Q 80.0 80, 62.0 100" stroke="black" fill="none" marker-end="url(#arrowhead)"/>
<path d="M 98.0 100 Q 92.0 80, 86.0 100" stroke="black" fill="none" marker-end="url(#arrowhead)"/>
<path d="M 110.0 100 Q 98.0 80, 86.0 100" stroke="black" fill="none" marker-end="url(#arrowhead)"/>
<path d="M 122.0 100 Q 92.0 80, 62.0 100" stroke="black" fill="none" marker-end="url(#arrowhead)"/>
<path d="M 122.0 100 Q 98.0 80, 74.0 100" stroke="black" fill="none" marker-end="url(#arrowhead)"/>
<path d="M 134.0 100 Q 128.0 80, 122.0 100" stroke="black" fill="none" marker-end="url(#arrowhead)"/>
<path d="M 146.0 100 Q 140.0 80, 134.0 100" stroke="black" fill="none" marker-end="url(#arrowhead)"/>
<path d="M 158.0 100 Q 140.0 80, 122.0 100" stroke="black" fill="none" marker-end="url(#arrowhead)"/>
<path d="M 158.0 100 Q 152.0 80, 146.0 100" stroke="black" fill="none" marker-end="url(#arrowhead)"/>
<path d="M 170.0 100 Q 164.0 80, 158.0 100" stroke="black" fill="none" marker-end="url(#arrowhead)"/>
<path d="M 182.0 100 Q 176.0 80, 170.0 100" stroke="black" fill="none" marker-end="url(#arrowhead)"/>
<path d="M 182.0 100 Q 152.0 80, 122.0 100" stroke="black" fill="none" marker-end="url(#arrowhead)"/>
<path d="M 194.0 100 Q 182.0 80, 170.0 100" stroke="black" fill="none" marker-end="url(#arrowhead)"/>
<path d="M 194.0 100 Q 188.0 80, 182.0 100" stroke="black" fill="none" marker-end="url(#arrowhead)"/>
<path d="M 194.0 100 Q 158.0 80, 122.0 100" stroke="black" fill="none" marker-end="url(#arrowhead)"/>
<path d="M 194.0 100 Q 176.0 80, 158.0 100" stroke="black" fill="none" marker-end="url(#arrowhead)"/>
<path d="M 206.0 100 Q 200.0 80, 194.0 100" stroke="black" fill="none" marker-end="url(#arrowhead)"/>
<path d="M 218.0 100 Q 200.0 80, 182.0 100" stroke="black" fill="none" marker-end="url(#arrowhead)"/>
<path d="M 230.0 100 Q 218.0 80, 206.0 100" stroke="black" fill="none" marker-end="url(#arrowhead)"/>
<path d="M 242.0 100 Q 236.0 80, 230.0 100" stroke="black" fill="none" marker-end="url(#arrowhead)"/>
<path d="M 254.0 100 Q 248.0 80, 242.0 100" stroke="black" fill="none" marker-end="url(#arrowhead)"/>
<path d="M 254.0 100 Q 188.0 80, 122.0 100" stroke="black" fill="none" marker-end="url(#arrowhead)"/>
<path d="M 266.0 100 Q 260.0 80, 254.0 100" stroke="black" fill="none" marker-end="url(#arrowhead)"/>
<path d="M 585.0196536908636 100 Q 353.5098268454318 80, 122.0 100" stroke="black" fill="none" marker-end="url(#arrowhead)"/>
<path d="M 585.0196536908636 100 Q 425.5098268454318 80, 266.0 100" stroke="black" fill="none" marker-end="url(#arrowhead)"/>
<path d="M 609.0196536908636 100 Q 603.0196536908636 80, 597.0196536908636 100" stroke="black" fill="none" marker-end="url(#arrowhead)"/>
<path d="M 645.0196536908636 100 Q 639.0196536908636 80, 633.0196536908636 100" stroke="black" fill="none" marker-end="url(#arrowhead)"/>
<path d="M 657.0196536908636 100 Q 639.0196536908636 80, 621.0196536908636 100" stroke="black" fill="none" marker-end="url(#arrowhead)"/>
<path d="M 689.4646266221355 100 Q 673.2421401564995 80, 657.0196536908636 100" stroke="black" fill="none" marker-end="url(#arrowhead)"/>
<path d="M 776.25511800859 100 Q 732.8598723153627 80, 689.4646266221355 100" stroke="black" fill="none" marker-end="url(#arrowhead)"/>
<path d="M 788.25511800859 100 Q 722.6373858497268 80, 657.0196536908636 100" stroke="black" fill="none" marker-end="url(#arrowhead)"/>
<path d="M 800.25511800859 100 Q 794.25511800859 80, 788.25511800859 100" stroke="black" fill="none" marker-end="url(#arrowhead)"/>
<path d="M 800.25511800859 100 Q 728.6373858497268 80, 657.0196536908636 100" stroke="black" fill="none" marker-end="url(#arrowhead)"/>
<path d="M 812.25511800859 100 Q 800.25511800859 80, 788.25511800859 100" stroke="black" fill="none" marker-end="url(#arrowhead)"/>
<path d="M 824.25511800859 100 Q 818.25511800859 80, 812.25511800859 100" stroke="black" fill="none" marker-end="url(#arrowhead)"/>
<path d="M 836.25511800859 100 Q 830.25511800859 80, 824.25511800859 100" stroke="black" fill="none" marker-end="url(#arrowhead)"/>
<path d="M 848.25511800859 100 Q 818.25511800859 80, 788.25511800859 100" stroke="black" fill="none" marker-end="url(#arrowhead)"/>
<path d="M 848.25511800859 100 Q 830.25511800859 80, 812.25511800859 100" stroke="black" fill="none" marker-end="url(#arrowhead)"/>
<path d="M 848.25511800859 100 Q 836.25511800859 80, 824.25511800859 100" stroke="black" fill="none" marker-end="url(#arrowhead)"/>
<path d="M 860.25511800859 100 Q 854.25511800859 80, 848.25511800859 100" stroke="black" fill="none" marker-end="url(#arrowhead)"/>
<path d="M 872.25511800859 100 Q 866.25511800859 80, 860.25511800859 100" stroke="black" fill="none" marker-end="url(#arrowhead)"/>
<path d="M 884.25511800859 100 Q 878.25511800859 80, 872.25511800859 100" stroke="black" fill="none" marker-end="url(#arrowhead)"/>
<path d="M 896.25511800859 100 Q 890.25511800859 80, 884.25511800859 100" stroke="black" fill="none" marker-end="url(#arrowhead)"/>
<path d="M 908.25511800859 100 Q 902.25511800859 80, 896.25511800859 100" stroke="black" fill="none" marker-end="url(#arrowhead)"/>

<defs>
  <marker id="arrowhead" markerWidth="5" markerHeight="5" 
          refX="2" refY="2" orient="auto" fill="black">
    <path d="M0,0 L0,4 L4,2 z" />
  </marker>
</defs>

<circle cx="50.0" cy="100" r="6" fill="none" stroke="red" stroke-width="2" />
<circle cx="50.0" cy="100" r="3" fill="red" />
<circle cx="62.0" cy="100" r="4" fill="red" />
<circle cx="74.0" cy="100" r="4" fill="black" />
<circle cx="86.0" cy="100" r="4" fill="black" />
<circle cx="98.0" cy="100" r="4" fill="black" />
<circle cx="110.0" cy="100" r="4" fill="black" />
<circle cx="122.0" cy="100" r="4" fill="black" />
<circle cx="134.0" cy="100" r="4" fill="black" />
<circle cx="146.0" cy="100" r="4" fill="black" />
<circle cx="158.0" cy="100" r="4" fill="black" />
<circle cx="170.0" cy="100" r="4" fill="black" />
<circle cx="182.0" cy="100" r="4" fill="blue" />
<circle cx="194.0" cy="100" r="4" fill="blue" />
<circle cx="206.0" cy="100" r="4" fill="black" />
<circle cx="218.0" cy="100" r="4" fill="black" />
<circle cx="230.0" cy="100" r="4" fill="black" />
<circle cx="242.0" cy="100" r="4" fill="black" />
<circle cx="254.0" cy="100" r="4" fill="black" />
<circle cx="266.0" cy="100" r="4" fill="black" />
<circle cx="585.0196536908636" cy="100" r="4" fill="blue" />
<circle cx="597.0196536908636" cy="100" r="4" fill="blue" />
<circle cx="609.0196536908636" cy="100" r="4" fill="black" />
<circle cx="621.0196536908636" cy="100" r="4" fill="blue" />
<circle cx="633.0196536908636" cy="100" r="6" fill="none" stroke="blue" stroke-width="2" />
<circle cx="633.0196536908636" cy="100" r="3" fill="blue" />
<circle cx="645.0196536908636" cy="100" r="4" fill="black" />
<circle cx="657.0196536908636" cy="100" r="4" fill="red" />
<circle cx="689.4646266221355" cy="100" r="4" fill="black" />
<circle cx="776.25511800859" cy="100" r="4" fill="blue" />
<circle cx="788.25511800859" cy="100" r="4" fill="red" />
<circle cx="800.25511800859" cy="100" r="4" fill="red" />
<circle cx="812.25511800859" cy="100" r="4" fill="black" />
<circle cx="824.25511800859" cy="100" r="4" fill="blue" />
<circle cx="836.25511800859" cy="100" r="4" fill="black" />
<circle cx="848.25511800859" cy="100" r="4" fill="green" />
<circle cx="860.25511800859" cy="100" r="4" fill="red" />
<circle cx="872.25511800859" cy="100" r="4" fill="black" />
<circle cx="884.25511800859" cy="100" r="4" fill="black" />
<circle cx="896.25511800859" cy="100" r="4" fill="blue" />
<circle cx="908.25511800859" cy="100" r="4" fill="green" />
<circle cx="950.0" cy="100" r="4" fill="blue" />
<text x="50" y="125" fill="gray" style="font-size:12px;">2023-11-15T10:27:49+00:00</text>
<text x="900" y="125" fill="gray" style="font-size:12px;">2025-02-09T07:32:34+00:00</text>
</svg>