<svg xmlns="http://www.w3.org/2000/svg" width="1000" height="200" style="background-color: white; font-family: sans-serif;">
<line x1="50" y1="100" x2="950" y2="100" stroke="gray" stroke-width="1"/>
<path d="M 62.0 100 Q 56.0 80, 50.0 100" stroke="black" fill="none" marker-end="url(#arrowhead)"/>
<path d="M 74.0 100 Q 62.0 80, 50.0 100" stroke="black" fill="none" marker-end="url(#arrowhead)"/>
<path d="M 86.0 100 Q 80.0 80, 74.0 100" stroke="black" fill="none" marker-end="url(#arrowhead)"/>
<path d="M 98.0 100 Q 80.0 80, 62.0 100" stroke="black" fill="none" marker-end="url(#arrowhead)"/>
<path d="M 110.0 100 Q 104.0 80, 98.0 100" stroke="black" fill="none" marker-end="url(#arrowhead)"/>
<path d="M 122.0 100 Q 104.0 80, 86.0 100" stroke="black" fill="none" marker-end="url(#arrowhead)"/>
<path d="M 134.0 100 Q 128.0 80, 122.0 100" stroke="black" fill="none" marker-end="url(#arrowhead)"/>
<path d="M 146.0 100 Q 134.0 80, 122.0 100" stroke="black" fill="none" marker-end="url(#arrowhead)"/>
<path d="M 146.0 100 Q 140.0 80, 134.0 100" stroke="black" fill="none" marker-end="url(#arrowhead)"/>
<path d="M 158.0 100 Q 146.0 80, 134.0 100" stroke="black" fill="none" marker-end="url(#arrowhead)"/>
<path d="M 158.0 100 Q 152.0 80, 146.0 100" stroke="black" fill="none" marker-end="url(#arrowhead)"/>
<path d="M 170.0 100 Q 164.0 80, 158.0 100" stroke="black" fill="none" marker-end="url(#arrowhead)"/>
<path d="M 182.0 100 Q 170.0 80, 158.0 100" stroke="black" fill="none" marker-end="url(#arrowhead)"/>
<path d="M 194.0 100 Q 188.0 80, 182.0 100" stroke="black" fill="none" marker-end="url(#arrowhead)"/>
<path d="M 239.91205941911332 100 Q 233.91205941911332 80, 227.91205941911332 100" stroke="black" fill="none" marker-end="url(#arrowhead)"/>
<path d="M 251.91205941911332 100 Q 245.91205941911332 80, 239.91205941911332 100" stroke="black" fill="none" marker-end="url(#arrowhead)"/>
<path d="M 263.91205941911335 100 Q 245.91205941911335 80, 227.91205941911332 100" stroke="black" fill="none" marker-end="url(#arrowhead)"/>
<path d="M 359.74496893672637 100 Q 240.87248446836318 80, 122.0 100" stroke="black" fill="none" marker-end="url(#arrowhead)"/>
<path d="M 371.74496893672637 100 Q 365.74496893672637 80, 359.74496893672637 100" stroke="black" fill="none" marker-end="url(#arrowhead)"/>
<path d="M 383.74496893672637 100 Q 377.74496893672637 80, 371.74496893672637 100" stroke="black" fill="none" marker-end="url(#arrowhead)"/>
<path d="M 407.74496893672637 100 Q 401.74496893672637 80, 395.74496893672637 100" stroke="black" fill="none" marker-end="url(#arrowhead)"/>
<path d="M 419.74496893672637 100 Q 407.74496893672637 80, 395.74496893672637 100" stroke="black" fill="none" marker-end="url(#arrowhead)"/>
<path d="M 419.74496893672637 100 Q 413.74496893672637 80, 407.74496893672637 100" stroke="black" fill="none" marker-end="url(#arrowhead)"/>
<path d="M 431.74496893672637 100 Q 413.74496893672637 80, 395.74496893672637 100" stroke="black" fill="none" marker-end="url(#arrowhead)"/>
<path d="M 431.74496893672637 100 Q 425.74496893672637 80, 419.74496893672637 100" stroke="black" fill="none" marker-end="url(#arrowhead)"/>
<path d="M 443.74496893672637 100 Q 353.8285141779198 80, 263.91205941911335 100" stroke="black" fill="none" marker-end="url(#arrowhead)"/>
<path d="M 455.74496893672637 100 Q 443.74496893672637 80, 431.74496893672637 100" stroke="black" fill="none" marker-end="url(#arrowhead)"/>
<path d="M 455.74496893672637 100 Q 449.74496893672637 80, 443.74496893672637 100" stroke="black" fill="none" marker-end="url(#arrowhead)"/>
<path d="M 455.74496893672637 100 Q 425.74496893672637 80, 395.74496893672637 100" stroke="black" fill="none" marker-end="url(#arrowhead)"/>
<path d="M 467.74496893672637 100 Q 461.74496893672637 80, 455.74496893672637 100" stroke="black" fill="none" marker-end="url(#arrowhead)"/>
<path d="M 479.74496893672637 100 Q 473.74496893672637 80, 467.74496893672637 100" stroke="black" fill="none" marker-end="url(#arrowhead)"/>
<path d="M 491.74496893672637 100 Q 485.74496893672637 80, 479.74496893672637 100" stroke="black" fill="none" marker-end="url(#arrowhead)"/>
<path d="M 503.74496893672637 100 Q 485.74496893672637 80, 467.74496893672637 100" stroke="black" fill="none" marker-end="url(#arrowhead)"/>
<path d="M 503.74496893672637 100 Q 497.74496893672637 80, 491.74496893672637 100" stroke="black" fill="none" marker-end="url(#arrowhead)"/>
<path d="M 515.7449689367263 100 Q 509.7449689367263 80, 503.74496893672637 100" stroke="black" fill="none" marker-end="url(#arrowhead)"/>
<path d="M 527.7449689367263 100 Q 521.7449689367263 80, 515.7449689367263 100" stroke="black" fill="none" marker-end="url(#arrowhead)"/>
<path d="M 539.7449689367263 100 Q 533.7449689367263 80, 527.7449689367263 100" stroke="black" fill="none" marker-end="url(#arrowhead)"/>
<path d="M 551.7449689367263 100 Q 545.7449689367263 80, 539.7449689367263 100" stroke="black" fill="none" marker-end="url(#arrowhead)"/>
<path d="M 563.7449689367263 100 Q 509.7449689367263 80, 455.74496893672637 100" stroke="black" fill="none" marker-end="url(#arrowhead)"/>
<path d="M 563.7449689367263 100 Q 551.7449689367263 80, 539.7449689367263 100" stroke="black" fill="none" marker-end="url(#arrowhead)"/>
<path d="M 563.7449689367263 100 Q 545.7449689367263 80, 527.7449689367263 100" stroke="black" fill="none" marker-end="url(#arrowhead)"/>
<path d="M 563.7449689367263 100 Q 527.7449689367263 80, 491.74496893672637 100" stroke="black" fill="none" marker-end="url(#arrowhead)"/>
<path d="M 575.7449689367263 100 Q 563.7449689367263 80, 551.7449689367263 100" stroke="black" fill="none" marker-end="url(#arrowhead)"/>
<path d="M 587.7449689367263 100 Q 575.7449689367263 80, 563.7449689367263 100" stroke="black" fill="none" marker-end="url(#arrowhead)"/>
<path d="M 587.7449689367263 100 Q 581.7449689367263 80, 575.7449689367263 100" stroke="black" fill="none" marker-end="url(#arrowhead)"/>
<path d="M 599.7449689367263 100 Q 593.7449689367263 80, 587.7449689367263 100" stroke="black" fill="none" marker-end="url(#arrowhead)"/>
<path d="M 611.7449689367263 100 Q 605.7449689367263 80, 599.7449689367263 100" stroke="black" fill="none" marker-end="url(#arrowhead)"/>
<path d="M 623.7449689367263 100 Q 593.7449689367263 80, 563.7449689367263 100" stroke="black" fill="none" marker-end="url(#arrowhead)"/>
<path d="M 623.7449689367263 100 Q 617.7449689367263 80, 611.7449689367263 100" stroke="black" fill="none" marker-end="url(#arrowhead)"/>
<path d="M 635.7449689367263 100 Q 623.7449689367263 80, 611.7449689367263 100" stroke="black" fill="none" marker-end="url(#arrowhead)"/>
<path d="M 635.7449689367263 100 Q 629.7449689367263 80, 623.7449689367263 100" stroke="black" fill="none" marker-end="url(#arrowhead)"/>
<path d="M 647.7449689367263 100 Q 641.7449689367263 80, 635.7449689367263 100" stroke="black" fill="none" marker-end="url(#arrowhead)"/>
<path d="M 647.7449689367263 100 Q 557.7449689367263 80, 467.74496893672637 100" stroke="black" fill="none" marker-end="url(#arrowhead)"/>
<path d="M 659.7449689367263 100 Q 653.7449689367263 80, 647.7449689367263 100" stroke="black" fill="none" marker-end="url(#arrowhead)"/>
<path d="M 671.7449689367263 100 Q 665.7449689367263 80, 659.7449689367263 100" stroke="black" fill="none" marker-end="url(#arrowhead)"/>
<path d="M 671.7449689367263 100 Q 569.7449689367263 80, 467.74496893672637 100" stroke="black" fill="none" marker-end="url(#arrowhead)"/>
<path d="M 683.7449689367263 100 Q 677.7449689367263 80, 671.7449689367263 100" stroke="black" fill="none" marker-end="url(#arrowhead)"/>
<path d="M 695.7449689367263 100 Q 689.7449689367263 80, 683.7449689367263 100" stroke="black" fill="none" marker-end="url(#arrowhead)"/>
<path d="M 707.7449689367263 100 Q 587.7449689367263 80, 467.74496893672637 100" stroke="black" fill="none" marker-end="url(#arrowhead)"/>
<path d="M 707.7449689367263 100 Q 701.7449689367263 80, 695.7449689367263 100" stroke="black" fill="none" marker-end="url(#arrowhead)"/>
<path d="M 719.7449689367263 100 Q 713.7449689367263 80, 707.7449689367263 100" stroke="black" fill="none" marker-end="url(#arrowhead)"/>
<path d="M 731.7449689367263 100 Q 725.7449689367263 80, 719.7449689367263 100" stroke="black" fill="none" marker-end="url(#arrowhead)"/>
<path d="M 731.7449689367263 100 Q 707.7449689367263 80, 683.7449689367263 100" stroke="black" fill="none" marker-end="url(#arrowhead)"/>
<path d="M 743.7449689367263 100 Q 737.7449689367263 80, 731.7449689367263 100" stroke="black" fill="none" marker-end="url(#arrowhead)"/>
<path d="M 755.7449689367263 100 Q 743.7449689367263 80, 731.7449689367263 100" stroke="black" fill="none" marker-end="url(#arrowhead)"/>
<path d="M 755.7449689367263 100 Q 749.7449689367263 80, 743.7449689367263 100" stroke="black" fill="none" marker-end="url(#arrowhead)"/>
<path d="M 767.7449689367263 100 Q 755.7449689367263 80, 743.7449689367263 100" stroke="black" fill="none" marker-end="url(#arrowhead)"/>
<path d="M 779.7449689367263 100 Q 773.7449689367263 80, 767.7449689367263 100" stroke="black" fill="none" marker-end="url(#arrowhead)"/>
<path d="M 791.7449689367263 100 Q 785.7449689367263 80, 779.7449689367263 100" stroke="black" fill="none" marker-end="url(#arrowhead)"/>
<path d="M 803.7449689367263 100 Q 623.7449689367263 80, 443.74496893672637 100" stroke="black" fill="none" marker-end="url(#arrowhead)"/>
<path d="M 815.7449689367263 100 Q 809.7449689367263 80, 803.7449689367263 100" stroke="black" fill="none" marker-end="url(#arrowhead)"/>
<path d="M 827.7449689367263 100 Q 821.7449689367263 80, 815.7449689367263 100" stroke="black" fill="none" marker-end="url(#arrowhead)"/>
<path d="M 839.7449689367263 100 Q 833.7449689367263 80, 827.7449689367263 100" stroke="black" fill="none" marker-end="url(#arrowhead)"/>
<path d="M 851.7449689367263 100 Q 833.7449689367263 80, 815.7449689367263 100" stroke="black" fill="none" marker-end="url(#arrowhead)"/>
<path d="M 863.7449689367263 100 Q 839.7449689367263 80, 815.7449689367263 100" stroke="black" fill="none" marker-end="url(#arrowhead)"/>
<path d="M 875.7449689367263 100 Q 869.7449689367263 80, 863.7449689367263 100" stroke="black" fill="none" marker-end="url(#arrowhead)"/>
<path d="M 887.7449689367263 100 Q 881.7449689367263 80, 875.7449689367263 100" stroke="black" fill="none" marker-end="url(#arrowhead)"/>
<path d="M 899.7449689367263 100 Q 893.7449689367263 80, 887.7449689367263 100" stroke="black" fill="none" marker-end="url(#arrowhead)"/>
<path d="M 911.7449689367263 100 Q 905.7449689367263 80, 899.7449689367263 100" stroke="black" fill="none" marker-end="url(#arrowhead)"/>
<path d="M 923.7449689367263 100 Q 917.7449689367263 80, 911.7449689367263 100" stroke="black" fill="none" marker-end="url(#arrowhead)"/>
<path d="M 935.7449689367263 100 Q 929.7449689367263 80, 923.7449689367263 100" stroke="black" fill="none" marker-end="url(#arrowhead)"/>
<path d="M 935.7449689367263 100 Q 875.7449689367263 80, 815.7449689367263 100" stroke="black" fill="none" marker-end="url(#arrowhead)"/>
<path d="M 947.7449689367263 100 Q 923.7449689367263 80, 899.7449689367263 100" stroke="black" fill="none" marker-end="url(#arrowhead)"/>
<path d="M 959.7449689367263 100 Q 947.7449689367263 80, 935.7449689367263 100" stroke="black" fill="none" marker-end="url(#arrowhead)"/>
<path d="M 971.7449689367263 100 Q 941.7449689367263 80, 911.7449689367263 100" stroke="black" fill="none" marker-end="url(#arrowhead)"/>
<path d="M 971.7449689367263 100 Q 959.7449689367263 80, 947.7449689367263 100" stroke="black" fill="none" marker-end="url(#arrowhead)"/>
<path d="M 983.7449689367263 100 Q 977.7449689367263 80, 971.7449689367263 100" stroke="black" fill="none" marker-end="url(#arrowhead)"/>
<path d="M 995.7449689367263 100 Q 989.7449689367263 80, 983.7449689367263 100" stroke="black" fill="none" marker-end="url(#arrowhead)"/>
<path d="M 1007.7449689367263 100 Q 983.7449689367263 80, 959.7449689367263 100" stroke="black" fill="none" marker-end="url(#arrowhead)"/>
<path d="M 1019.7449689367263 100 Q 1001.7449689367263 80, 983.7449689367263 100" stroke="black" fill="none" marker-end="url(#arrowhead)"/>
<path d="M 1031.7449689367263 100 Q 1025.7449689367263 80, 1019.7449689367263 100" stroke="black" fill="none" marker-end="url(#arrowhead)"/>
<path d="M 1043.7449689367263 100 Q 1037.7449689367263 80, 1031.7449689367263 100" stroke="black" fill="none" marker-end="url(#arrowhead)"/>
<path d="M 1079.7449689367263 100 Q 1073.7449689367263 80, 1067.7449689367263 100" stroke="black" fill="none" marker-end="url(#arrowhead)"/>
<path d="M 1091.7449689367263 100 Q 1085.7449689367263 80, 1079.7449689367263 100" stroke="black" fill="none" marker-end="url(#arrowhead)"/>
<path d="M 1103.7449689367263 100 Q 1097.7449689367263 80, 1091.7449689367263 100" stroke="black" fill="none" marker-end="url(#arrowhead)"/>
<path d="M 1115.7449689367263 100 Q 1109.7449689367263 80, 1103.7449689367263 100" stroke="black" fill="none" marker-end="url(#arrowhead)"/>
<path d="M 1127.7449689367263 100 Q 1121.7449689367263 80, 1115.7449689367263 100" stroke="black" fill="none" marker-end="url(#arrowhead)"/>
<path d="M 1139.7449689367263 100 Q 1121.7449689367263 80, 1103.7449689367263 100" stroke="black" fill="none" marker-end="url(#arrowhead)"/>
<path d="M 1151.7449689367263 100 Q 1145.7449689367263 80, 1139.7449689367263 100" stroke="black" fill="none" marker-end="url(#arrowhead)"/>
<path d="M 1175.7449689367263 100 Q 1169.7449689367263 80, 1163.7449689367263 100" stroke="black" fill="none" marker-end="url(#arrowhead)"/>
<path d="M 1187.7449689367263 100 Q 1181.7449689367263 80, 1175.7449689367263 100" stroke="black" fill="none" marker-end="url(#arrowhead)"/>
<path d="M 1211.7449689367263 100 Q 1199.7449689367263 80, 1187.7449689367263 100" stroke="black" fill="none" marker-end="url(#arrowhead)"/>
<path d="M 1223.7449689367263 100 Q 1199.7449689367263 80, 1175.7449689367263 100" stroke="black" fill="none" marker-end="url(#arrowhead)"/>
<path d="M 1223.7449689367263 100 Q 1205.7449689367263 80, 1187.7449689367263 100" stroke="black" fill="none" marker-end="url(#arrowhead)"/>
<path d="M 1223.7449689367263 100 Q 1217.7449689367263 80, 1211.7449689367263 100" stroke="black" fill="none" marker-end="url(#arrowhead)"/>
<path d="M 1235.7449689367263 100 Q 1223.7449689367263 80, 1211.7449689367263 100" stroke="black" fill="none" marker-end="url(#arrowhead)"/>
<path d="M 1247.7449689367263 100 Q 1229.7449689367263 80, 1211.7449689367263 100" stroke="black" fill="none" marker-end="url(#arrowhead)"/>
<path d="M 1247.7449689367263 100 Q 1241.7449689367263 80, 1235.7449689367263 100" stroke="black" fill="none" marker-end="url(#arrowhead)"/>
<path d="M 1259.7449689367263 100 Q 1253.7449689367263 80, 1247.7449689367263 100" stroke="black" fill="none" marker-end="url(#arrowhead)"/>
<path d="M 1271.7449689367263 100 Q 1223.7449689367263 80, 1175.7449689367263 100" stroke="black" fill="none" marker-end="url(#arrowhead)"/>
<path d="M 1271.7449689367263 100 Q 1229.7449689367263 80, 1187.7449689367263 100" stroke="black" fill="none" marker-end="url(#arrowhead)"/>
<path d="M 1271.7449689367263 100 Q 1241.7449689367263 80, 1211.7449689367263 100" stroke="black" fill="none" marker-end="url(#arrowhead)"/>
<path d="M 1283.7449689367263 100 Q 1253.7449689367263 80, 1223.7449689367263 100" stroke="black" fill="none" marker-end="url(#arrowhead)"/>
<path d="M 1295.7449689367263 100 Q 1283.7449689367263 80, 1271.7449689367263 100" stroke="black" fill="none" marker-end="url(#arrowhead)"/>
<path d="M 1307.7449689367263 100 Q 1295.7449689367263 80, 1283.7449689367263 100" stroke="black" fill="none" marker-end="url(#arrowhead)"/>
<path d="M 1319.7449689367263 100 Q 1313.7449689367263 80, 1307.7449689367263 100" stroke="black" fill="none" marker-end="url(#arrowhead)"/>
<path d="M 1331.7449689367263 100 Q 1325.7449689367263 80, 1319.7449689367263 100" stroke="black" fill="none" marker-end="url(#arrowhead)"/>
<path d="M 1343.7449689367263 100 Q 1337.7449689367263 80, 1331.7449689367263 100" stroke="black" fill="none" marker-end="url(#arrowhead)"/>
<path d="M 1355.7449689367263 100 Q 1349.7449689367263 80, 1343.7449689367263 100" stroke="black" fill="none" marker-end="url(#arrowhead)"/>
<path d="M 1367.7449689367263 100 Q 1361.7449689367263 80, 1355.7449689367263 100" stroke="black" fill="none" marker-end="url(#arrowhead)"/>
<path d="M 1379.7449689367263 100 Q 1373.7449689367263 80, 1367.7449689367263 100" stroke="black" fill="none" marker-end="url(#arrowhead)"/>
<path d="M 1391.7449689367263 100 Q 1379.7449689367263 80, 1367.7449689367263 100" stroke="black" fill="none" marker-end="url(#arrowhead)"/>
<path d="M 1427.7449689367263 100 Q 1415.7449689367263 80, 1403.7449689367263 100" stroke="black" fill="none" marker-end="url(#arrowhead)"/>
<path d="M 1439.7449689367263 100 Q 1427.7449689367263 80, 1415.7449689367263 100" stroke="black" fill="none" marker-end="url(#arrowhead)"/>
<path d="M 1451.7449689367263 100 Q 1427.7449689367263 80, 1403.7449689367263 100" stroke="black" fill="none" marker-end="url(#arrowhead)"/>
<path d="M 1451.7449689367263 100 Q 1439.7449689367263 80, 1427.7449689367263 100" stroke="black" fill="none" marker-end="url(#arrowhead)"/>
<path d="M 1463.7449689367263 100 Q 1457.7449689367263 80, 1451.7449689367263 100" stroke="black" fill="none" marker-end="url(#arrowhead)"/>
<path d="M 1475.7449689367263 100 Q 1469.7449689367263 80, 1463.7449689367263 100" stroke="black" fill="none" marker-end="url(#arrowhead)"/>
<path d="M 1487.7449689367263 100 Q 1481.7449689367263 80, 1475.7449689367263 100" stroke="black" fill="none" marker-end="url(#arrowhead)"/>
<path d="M 1499.7449689367263 100 Q 1487.7449689367263 80, 1475.7449689367263 100" stroke="black" fill="none" marker-end="url(#arrowhead)"/>
<path d="M 1499.7449689367263 100 Q 1493.7449689367263 80, 1487.7449689367263 100" stroke="black" fill="none" marker-end="url(#arrowhead)"/>
<path d="M 1511.7449689367263 100 Q 1493.7449689367263 80, 1475.7449689367263 100" stroke="black" fill="none" marker-end="url(#arrowhead)"/>
<path d="M 1511.7449689367263 100 Q 1499.7449689367263 80, 1487.7449689367263 100" stroke="black" fill="none" marker-end="url(#arrowhead)"/>
<path d="M 1511.7449689367263 100 Q 1505.7449689367263 80, 1499.7449689367263 100" stroke="black" fill="none" marker-end="url(#arrowhead)"/>
<path d="M 1523.7449689367263 100 Q 1517.7449689367263 80, 1511.7449689367263 100" stroke="black" fill="none" marker-end="url(#arrowhead)"/>
<path d="M 1535.7449689367263 100 Q 1523.7449689367263 80, 1511.7449689367263 100" stroke="black" fill="none" marker-end="url(#arrowhead)"/>
<path d="M 1535.7449689367263 100 Q 1529.7449689367263 80, 1523.7449689367263 100" stroke="black" fill="none" marker-end="url(#arrowhead)"/>
<path d="M 1547.7449689367263 100 Q 1541.7449689367263 80, 1535.7449689367263 100" stroke="black" fill="none" marker-end="url(#arrowhead)"/>
<path d="M 1559.7449689367263 100 Q 1553.7449689367263 80, 1547.7449689367263 100" stroke="black" fill="none" marker-end="url(#arrowhead)"/>
<path d="M 1571.7449689367263 100 Q 1373.7449689367263 80, 1175.7449689367263 100" stroke="black" fill="none" marker-end="url(#arrowhead)"/>
<path d="M 1571.7449689367263 100 Q 1559.7449689367263 80, 1547.7449689367263 100" stroke="black" fill="none" marker-end="url(#arrowhead)"/>
<path d="M 1571.7449689367263 100 Q 1565.7449689367263 80, 1559.7449689367263 100" stroke="black" fill="none" marker-end="url(#arrowhead)"/>
<path d="M 1583.7449689367263 100 Q 1571.7449689367263 80, 1559.7449689367263 100" stroke="black" fill="none" marker-end="url(#arrowhead)"/>
<path d="M 1583.7449689367263 100 Q 1577.7449689367263 80, 1571.7449689367263 100" stroke="black" fill="none" marker-end="url(#arrowhead)"/>
<path d="M 1595.7449689367263 100 Q 1589.7449689367263 80, 1583.7449689367263 100" stroke="black" fill="none" marker-end="url(#arrowhead)"/>
<path d="M 1595.7449689367263 100 Q 1583.7449689367263 80, 1571.7449689367263 100" stroke="black" fill="none" marker-end="url(#arrowhead)"/>
<path d="M 1607.7449689367263 100 Q 1595.7449689367263 80, 1583.7449689367263 100" stroke="black" fill="none" marker-end="url(#arrowhead)"/>
<path d="M 1607.7449689367263 100 Q 1601.7449689367263 80, 1595.7449689367263 100" stroke="black" fill="none" marker-end="url(#arrowhead)"/>
<path d="M 1607.7449689367263 100 Q 1589.7449689367263 80, 1571.7449689367263 100" stroke="black" fill="none" marker-end="url(#arrowhead)"/>
<path d="M 1631.7449689367263 100 Q 1625.7449689367263 80, 1619.7449689367263 100" stroke="black" fill="none" marker-end="url(#arrowhead)"/>
<path d="M 1643.7449689367263 100 Q 1637.7449689367263 80, 1631.7449689367263 100" stroke="black" fill="none" marker-end="url(#arrowhead)"/>
<path d="M 1655.7449689367263 100 Q 1643.7449689367263 80, 1631.7449689367263 100" stroke="black" fill="none" marker-end="url(#arrowhead)"/>
<path d="M 1667.7449689367263 100 Q 1661.7449689367263 80, 1655.7449689367263 100" stroke="black" fill="none" marker-end="url(#arrowhead)"/>
<path d="M 1679.7449689367263 100 Q 1673.7449689367263 80, 1667.7449689367263 100" stroke="black" fill="none" marker-end="url(#arrowhead)"/>
<path d="M 1691.7449689367263 100 Q 1673.7449689367263 80, 1655.7449689367263 100" stroke="black" fill="none" marker-end="url(#arrowhead)"/>
<path d="M 1691.7449689367263 100 Q 1685.7449689367263 80, 1679.7449689367263 100" stroke="black" fill="none" marker-end="url(#arrowhead)"/>
<path d="M 1703.7449689367263 100 Q 1679.7449689367263 80, 1655.7449689367263 100" stroke="black" fill="none" marker-end="url(#arrowhead)"/>
<path d="M 1703.7449689367263 100 Q 1691.7449689367263 80, 1679.7449689367263 100" stroke="black" fill="none" marker-end="url(#arrowhead)"/>
<path d="M 1715.7449689367263 100 Q 1709.7449689367263 80, 1703.7449689367263 100" stroke="black" fill="none" marker-end="url(#arrowhead)"/>
<path d="M 1727.7449689367263 100 Q 1721.7449689367263 80, 1715.7449689367263 100" stroke="black" fill="none" marker-end="url(#arrowhead)"/>
<path d="M 1739.7449689367263 100 Q 1685.7449689367263 80, 1631.7449689367263 100" stroke="black" fill="none" marker-end="url(#arrowhead)"/>
<path d="M 1751.7449689367263 100 Q 1679.7449689367263 80, 1607.7449689367263 100" stroke="black" fill="none" marker-end="url(#arrowhead)"/>
<path d="M 1763.7449689367263 100 Q 1757.7449689367263 80, 1751.7449689367263 100" stroke="black" fill="none" marker-end="url(#arrowhead)"/>
<path d="M 1775.7449689367263 100 Q 1757.7449689367263 80, 1739.7449689367263 100" stroke="black" fill="none" marker-end="url(#arrowhead)"/>
<path d="M 1787.7449689367263 100 Q 1769.7449689367263 80, 1751.7449689367263 100" stroke="black" fill="none" marker-end="url(#arrowhead)"/>
<path d="M 1787.7449689367263 100 Q 1775.7449689367263 80, 1763.7449689367263 100" stroke="black" fill="none" marker-end="url(#arrowhead)"/>
<path d="M 1799.7449689367263 100 Q 1757.7449689367263 80, 1715.7449689367263 100" stroke="black" fill="none" marker-end="url(#arrowhead)"/>
<path d="M 1811.7449689367263 100 Q 1793.7449689367263 80, 1775.7449689367263 100" stroke="black" fill="none" marker-end="url(#arrowhead)"/>
<path d="M 1835.7449689367263 100 Q 1829.7449689367263 80, 1823.7449689367263 100" stroke="black" fill="none" marker-end="url(#arrowhead)"/>
<path d="M 1847.7449689367263 100 Q 1823.7449689367263 80, 1799.7449689367263 100" stroke="black" fill="none" marker-end="url(#arrowhead)"/>
<path d="M 1859.7449689367263 100 Q 1835.7449689367263 80, 1811.7449689367263 100" stroke="black" fill="none" marker-end="url(#arrowhead)"/>
<path d="M 1871.7449689367263 100 Q 1859.7449689367263 80, 1847.7449689367263 100" stroke="black" fill="none" marker-end="url(#arrowhead)"/>
<path d="M 1883.7449689367263 100 Q 1877.7449689367263 80, 1871.7449689367263 100" stroke="black" fill="none" marker-end="url(#arrowhead)"/>
<path d="M 1895.7449689367263 100 Q 1889.7449689367263 80, 1883.7449689367263 100" stroke="black" fill="none" marker-end="url(#arrowhead)"/>
<path d="M 1907.7449689367263 100 Q 1895.7449689367263 80, 1883.7449689367263 100" stroke="black" fill="none" marker-end="url(#arrowhead)"/>
<path d="M 1907.7449689367263 100 Q 1901.7449689367263 80, 1895.7449689367263 100" stroke="black" fill="none" marker-end="url(#arrowhead)"/>
<path d="M 1919.7449689367263 100 Q 1913.7449689367263 80, 1907.7449689367263 100" stroke="black" fill="none" marker-end="url(#arrowhead)"/>
<path d="M 1931.7449689367263 100 Q 1925.7449689367263 80, 1919.7449689367263 100" stroke="black" fill="none" marker-end="url(#arrowhead)"/>
<path d="M 1931.7449689367263 100 Q 1919.7449689367263 80, 1907.7449689367263 100" stroke="black" fill="none" marker-end="url(#arrowhead)"/>
<path d="M 1943.7449689367263 100 Q 1907.7449689367263 80, 1871.7449689367263 100" stroke="black" fill="none" marker-end="url(#arrowhead)"/>
<path d="M 1955.7449689367263 100 Q 1943.7449689367263 80, 1931.7449689367263 100" stroke="black" fill="none" marker-end="url(#arrowhead)"/>
<path d="M 1967.7449689367263 100 Q 1907.7449689367263 80, 1847.7449689367263 100" stroke="black" fill="none" marker-end="url(#arrowhead)"/>
<path d="M 1979.7449689367263 100 Q 1973.7449689367263 80, 1967.7449689367263 100" stroke="black" fill="none" marker-end="url(#arrowhead)"/>
<path d="M 2003.7449689367263 100 Q 1997.7449689367263 80, 1991.7449689367263 100" stroke="black" fill="none" marker-end="url(#arrowhead)"/>
<path d="M 2015.7449689367263 100 Q 2003.7449689367263 80, 1991.7449689367263 100" stroke="black" fill="none" marker-end="url(#arrowhead)"/>
<path d="M 2027.7449689367263 100 Q 1985.7449689367263 80, 1943.7449689367263 100" stroke="black" fill="none" marker-end="url(#arrowhead)"/>
<path d="M 2063.7449689367263 100 Q 2057.7449689367263 80, 2051.7449689367263 100" stroke="black" fill="none" marker-end="url(#arrowhead)"/>
<path d="M 2075.7449689367263 100 Q 2069.7449689367263 80, 2063.7449689367263 100" stroke="black" fill="none" marker-end="url(#arrowhead)"/>
<path d="M 2087.7449689367263 100 Q 2069.7449689367263 80, 2051.7449689367263 100" stroke="black" fill="none" marker-end="url(#arrowhead)"/>
<path d="M 2087.7449689367263 100 Q 2075.7449689367263 80, 2063.7449689367263 100" stroke="black" fill="none" marker-end="url(#arrowhead)"/>
<path d="M 2099.7449689367263 100 Q 2093.7449689367263 80, 2087.7449689367263 100" stroke="black" fill="none" marker-end="url(#arrowhead)"/>
<path d="M 2111.7449689367263 100 Q 2093.7449689367263 80, 2075.7449689367263 100" stroke="black" fill="none" marker-end="url(#arrowhead)"/>
<path d="M 2123.7449689367263 100 Q 2105.7449689367263 80, 2087.7449689367263 100" stroke="black" fill="none" marker-end="url(#arrowhead)"/>
<path d="M 2123.7449689367263 100 Q 2111.7449689367263 80, 2099.7449689367263 100" stroke="black" fill="none" marker-end="url(#arrowhead)"/>
<path d="M 2147.7449689367263 100 Q 2141.7449689367263 80, 2135.7449689367263 100" stroke="black" fill="none" marker-end="url(#arrowhead)"/>
<path d="M 2159.7449689367263 100 Q 2105.7449689367263 80, 2051.7449689367263 100" stroke="black" fill="none" marker-end="url(#arrowhead)"/>
<path d="M 2159.7449689367263 100 Q 2153.7449689367263 80, 2147.7449689367263 100" stroke="black" fill="none" marker-end="url(#arrowhead)"/>
<path d="M 2171.7449689367263 100 Q 2159.7449689367263 80, 2147.7449689367263 100" stroke="black" fill="none" marker-end="url(#arrowhead)"/>
<path d="M 2183.7449689367263 100 Q 2177.7449689367263 80, 2171.7449689367263 100" stroke="black" fill="none" marker-end="url(#arrowhead)"/>
<path d="M 2195.7449689367263 100 Q 2171.7449689367263 80, 2147.7449689367263 100" stroke="black" fill="none" marker-end="url(#arrowhead)"/>
<path d="M 2219.7449689367263 100 Q 2207.7449689367263 80, 2195.7449689367263 100" stroke="black" fill="none" marker-end="url(#arrowhead)"/>
<path d="M 2231.7449689367263 100 Q 2219.7449689367263 80, 2207.7449689367263 100" stroke="black" fill="none" marker-end="url(#arrowhead)"/>
<path d="M 2243.7449689367263 100 Q 2147.7449689367263 80, 2051.7449689367263 100" stroke="black" fill="none" marker-end="url(#arrowhead)"/>
<path d="M 2243.7449689367263 100 Q 2231.7449689367263 80, 2219.7449689367263 100" stroke="black" fill="none" marker-end="url(#arrowhead)"/>
<path d="M 2255.7449689367263 100 Q 2255.7449689367263 120, 2255.7449689367263 100" stroke="black" fill="none" marker-end="url(#arrowhead)"/>
<path d="M 2255.7449689367263 100 Q 2243.7449689367263 80, 2231.7449689367263 100" stroke="black" fill="none" marker-end="url(#arrowhead)"/>
<path d="M 2267.7449689367263 100 Q 2255.7449689367263 80, 2243.7449689367263 100" stroke="black" fill="none" marker-end="url(#arrowhead)"/>
<path d="M 2279.7449689367263 100 Q 2165.7449689367263 80, 2051.7449689367263 100" stroke="black" fill="none" marker-end="url(#arrowhead)"/>
<path d="M 2279.7449689367263 100 Q 2249.7449689367263 80, 2219.7449689367263 100" stroke="black" fill="none" marker-end="url(#arrowhead)"/>
<path d="M 2279.7449689367263 100 Q 2261.7449689367263 80, 2243.7449689367263 100" stroke="black" fill="none" marker-end="url(#arrowhead)"/>
<path d="M 2291.7449689367263 100 Q 2285.7449689367263 80, 2279.7449689367263 100" stroke="black" fill="none" marker-end="url(#arrowhead)"/>
<path d="M 2303.7449689367263 100 Q 2291.7449689367263 80, 2279.7449689367263 100" stroke="black" fill="none" marker-end="url(#arrowhead)"/>
<path d="M 2303.7449689367263 100 Q 2297.7449689367263 80, 2291.7449689367263 100" stroke="black" fill="none" marker-end="url(#arrowhead)"/>
<path d="M 2303.7449689367263 100 Q 2273.7449689367263 80, 2243.7449689367263 100" stroke="black" fill="none" marker-end="url(#arrowhead)"/>
<path d="M 2315.7449689367263 100 Q 2309.7449689367263 80, 2303.7449689367263 100" stroke="black" fill="none" marker-end="url(#arrowhead)"/>
<path d="M 2339.7449689367263 100 Q 2333.7449689367263 80, 2327.7449689367263 100" stroke="black" fill="none" marker-end="url(#arrowhead)"/>
<path d="M 2351.7449689367263 100 Q 2339.7449689367263 80, 2327.7449689367263 100" stroke="black" fill="none" marker-end="url(#arrowhead)"/>
<path d="M 2351.7449689367263 100 Q 2345.7449689367263 80, 2339.7449689367263 100" stroke="black" fill="none" marker-end="url(#arrowhead)"/>
<path d="M 2363.7449689367263 100 Q 2339.7449689367263 80, 2315.7449689367263 100" stroke="black" fill="none" marker-end="url(#arrowhead)"/>
<path d="M 2375.7449689367263 100 Q 2351.7449689367263 80, 2327.7449689367263 100" stroke="black" fill="none" marker-end="url(#arrowhead)"/>
<path d="M 2375.7449689367263 100 Q 2363.7449689367263 80, 2351.7449689367263 100" stroke="black" fill="none" marker-end="url(#arrowhead)"/>
<path d="M 2375.7449689367263 100 Q 2369.7449689367263 80, 2363.7449689367263 100" stroke="black" fill="none" marker-end="url(#arrowhead)"/>
<path d="M 2387.7449689367263 100 Q 2381.7449689367263 80, 2375.7449689367263 100" stroke="black" fill="none" marker-end="url(#arrowhead)"/>
<path d="M 2399.7449689367263 100 Q 2393.7449689367263 80, 2387.7449689367263 100" stroke="black" fill="none" marker-end="url(#arrowhead)"/>
<path d="M 2411.7449689367263 100 Q 2399.7449689367263 80, 2387.7449689367263 100" stroke="black" fill="none" marker-end="url(#arrowhead)"/>
<path d="M 2411.7449689367263 100 Q 1793.7449689367263 80, 1175.7449689367263 100" stroke="black" fill="none" marker-end="url(#arrowhead)"/>
<path d="M 2423.7449689367263 100 Q 2399.7449689367263 80, 2375.7449689367263 100" stroke="black" fill="none" marker-end="url(#arrowhead)"/>
<path d="M 2435.7449689367263 100 Q 2429.7449689367263 80, 2423.7449689367263 100" stroke="black" fill="none" marker-end="url(#arrowhead)"/>
<path d="M 2447.7449689367263 100 Q 2441.7449689367263 80, 2435.7449689367263 100" stroke="black" fill="none" marker-end="url(#arrowhead)"/>
<path d="M 2459.7449689367263 100 Q 2441.7449689367263 80, 2423.7449689367263 100" stroke="black" fill="none" marker-end="url(#arrowhead)"/>
<path d="M 2459.7449689367263 100 Q 2447.7449689367263 80, 2435.7449689367263 100" stroke="black" fill="none" marker-end="url(#arrowhead)"/>
<path d="M 2459.7449689367263 100 Q 2453.7449689367263 80, 2447.7449689367263 100" stroke="black" fill="none" marker-end="url(#arrowhead)"/>
<path d="M 2471.7449689367263 100 Q 2465.7449689367263 80, 2459.7449689367263 100" stroke="black" fill="none" marker-end="url(#arrowhead)"/>
<path d="M 2483.7449689367263 100 Q 2477.7449689367263 80, 2471.7449689367263 100" stroke="black" fill="none" marker-end="url(#arrowhead)"/>
<path d="M 2495.7449689367263 100 Q 2489.7449689367263 80, 2483.7449689367263 100" stroke="black" fill="none" marker-end="url(#arrowhead)"/>
<path d="M 2507.7449689367263 100 Q 2495.7449689367263 80, 2483.7449689367263 100" stroke="black" fill="none" marker-end="url(#arrowhead)"/>
<path d="M 2507.7449689367263 100 Q 2501.7449689367263 80, 2495.7449689367263 100" stroke="black" fill="none" marker-end="url(#arrowhead)"/>
<path d="M 2519.7449689367263 100 Q 2501.7449689367263 80, 2483.7449689367263 100" stroke="black" fill="none" marker-end="url(#arrowhead)"/>
<path d="M 2519.7449689367263 100 Q 2507.7449689367263 80, 2495.7449689367263 100" stroke="black" fill="none" marker-end="url(#arrowhead)"/>
<path d="M 2519.7449689367263 100 Q 2513.7449689367263 80, 2507.7449689367263 100" stroke="black" fill="none" marker-end="url(#arrowhead)"/>
<path d="M 2531.7449689367263 100 Q 2525.7449689367263 80, 2519.7449689367263 100" stroke="black" fill="none" marker-end="url(#arrowhead)"/>
<path d="M 2543.7449689367263 100 Q 2531.7449689367263 80, 2519.7449689367263 100" stroke="black" fill="none" marker-end="url(#arrowhead)"/>
<path d="M 2543.7449689367263 100 Q 2537.7449689367263 80, 2531.7449689367263 100" stroke="black" fill="none" marker-end="url(#arrowhead)"/>
<path d="M 2555.7449689367263 100 Q 2549.7449689367263 80, 2543.7449689367263 100" stroke="black" fill="none" marker-end="url(#arrowhead)"/>
<path d="M 2567.7449689367263 100 Q 2555.7449689367263 80, 2543.7449689367263 100" stroke="black" fill="none" marker-end="url(#arrowhead)"/>
<path d="M 2567.7449689367263 100 Q 2561.7449689367263 80, 2555.7449689367263 100" stroke="black" fill="none" marker-end="url(#arrowhead)"/>
<path d="M 2579.7449689367263 100 Q 2561.7449689367263 80, 2543.7449689367263 100" stroke="black" fill="none" marker-end="url(#arrowhead)"/>
<path d="M 2579.7449689367263 100 Q 2567.7449689367263 80, 2555.7449689367263 100" stroke="black" fill="none" marker-end="url(#arrowhead)"/>
<path d="M 2591.7449689367263 100 Q 2579.7449689367263 80, 2567.7449689367263 100" stroke="black" fill="none" marker-end="url(#arrowhead)"/>
<path d="M 2591.7449689367263 100 Q 2585.7449689367263 80, 2579.7449689367263 100" stroke="black" fill="none" marker-end="url(#arrowhead)"/>
<path d="M 2603.7449689367263 100 Q 2579.7449689367263 80, 2555.7449689367263 100" stroke="black" fill="none" marker-end="url(#arrowhead)"/>
<path d="M 2615.7449689367263 100 Q 2603.7449689367263 80, 2591.7449689367263 100" stroke="black" fill="none" marker-end="url(#arrowhead)"/>
<path d="M 2615.7449689367263 100 Q 2591.7449689367263 80, 2567.7449689367263 100" stroke="black" fill="none" marker-end="url(#arrowhead)"/>
<path d="M 2627.7449689367263 100 Q 2615.7449689367263 80, 2603.7449689367263 100" stroke="black" fill="none" marker-end="url(#arrowhead)"/>
<path d="M 2639.7449689367263 100 Q 2621.7449689367263 80, 2603.7449689367263 100" stroke="black" fill="none" marker-end="url(#arrowhead)"/>
<path d="M 2639.7449689367263 100 Q 2633.7449689367263 80, 2627.7449689367263 100" stroke="black" fill="none" marker-end="url(#arrowhead)"/>
<path d="M 2651.7449689367263 100 Q 2645.7449689367263 80, 2639.7449689367263 100" stroke="black" fill="none" marker-end="url(#arrowhead)"/>
<path d="M 2663.7449689367263 100 Q 2657.7449689367263 80, 2651.7449689367263 100" stroke="black" fill="none" marker-end="url(#arrowhead)"/>
<path d="M 2675.7449689367263 100 Q 1925.7449689367263 80, 1175.7449689367263 100" stroke="black" fill="none" marker-end="url(#arrowhead)"/>
<path d="M 2675.7449689367263 100 Q 2669.7449689367263 80, 2663.7449689367263 100" stroke="black" fill="none" marker-end="url(#arrowhead)"/>
<path d="M 2675.7449689367263 100 Q 2663.7449689367263 80, 2651.7449689367263 100" stroke="black" fill="none" marker-end="url(#arrowhead)"/>
<path d="M 2687.7449689367263 100 Q 2681.7449689367263 80, 2675.7449689367263 100" stroke="black" fill="none" marker-end="url(#arrowhead)"/>
<path d="M 2699.7449689367263 100 Q 2687.7449689367263 80, 2675.7449689367263 100" stroke="black" fill="none" marker-end="url(#arrowhead)"/>
<path d="M 2711.7449689367263 100 Q 2705.7449689367263 80, 2699.7449689367263 100" stroke="black" fill="none" marker-end="url(#arrowhead)"/>
<path d="M 2723.7449689367263 100 Q 2711.7449689367263 80, 2699.7449689367263 100" stroke="black" fill="none" marker-end="url(#arrowhead)"/>
<path d="M 2735.7449689367263 100 Q 2729.7449689367263 80, 2723.7449689367263 100" stroke="black" fill="none" marker-end="url(#arrowhead)"/>
<path d="M 2747.7449689367263 100 Q 2735.7449689367263 80, 2723.7449689367263 100" stroke="black" fill="none" marker-end="url(#arrowhead)"/>
<path d="M 2747.7449689367263 100 Q 2741.7449689367263 80, 2735.7449689367263 100" stroke="black" fill="none" marker-end="url(#arrowhead)"/>
<path d="M 2759.7449689367263 100 Q 2735.7449689367263 80, 2711.7449689367263 100" stroke="black" fill="none" marker-end="url(#arrowhead)"/>
<path d="M 2771.7449689367263 100 Q 2765.7449689367263 80, 2759.7449689367263 100" stroke="black" fill="none" marker-end="url(#arrowhead)"/>
<path d="M 2783.7449689367263 100 Q 2741.7449689367263 80, 2699.7449689367263 100" stroke="black" fill="none" marker-end="url(#arrowhead)"/>
<path d="M 2795.7449689367263 100 Q 2759.7449689367263 80, 2723.7449689367263 100" stroke="black" fill="none" marker-end="url(#arrowhead)"/>
<path d="M 2795.7449689367263 100 Q 2747.7449689367263 80, 2699.7449689367263 100" stroke="black" fill="none" marker-end="url(#arrowhead)"/>
<path d="M 2795.7449689367263 100 Q 2789.7449689367263 80, 2783.7449689367263 100" stroke="black" fill="none" marker-end="url(#arrowhead)"/>
<path d="M 2807.7449689367263 100 Q 2801.7449689367263 80, 2795.7449689367263 100" stroke="black" fill="none" marker-end="url(#arrowhead)"/>
<path d="M 2807.7449689367263 100 Q 2795.7449689367263 80, 2783.7449689367263 100" stroke="black" fill="none" marker-end="url(#arrowhead)"/>
<path d="M 2819.7449689367263 100 Q 2813.7449689367263 80, 2807.7449689367263 100" stroke="black" fill="none" marker-end="url(#arrowhead)"/>
<path d="M 2831.7449689367263 100 Q 2753.7449689367263 80, 2675.7449689367263 100" stroke="black" fill="none" marker-end="url(#arrowhead)"/>
<path d="M 2831.7449689367263 100 Q 2765.7449689367263 80, 2699.7449689367263 100" stroke="black" fill="none" marker-end="url(#arrowhead)"/>
<path d="M 2843.7449689367263 100 Q 2837.7449689367263 80, 2831.7449689367263 100" stroke="black" fill="none" marker-end="url(#arrowhead)"/>
<path d="M 2855.7449689367263 100 Q 2849.7449689367263 80, 2843.7449689367263 100" stroke="black" fill="none" marker-end="url(#arrowhead)"/>
<path d="M 2867.7449689367263 100 Q 2813.7449689367263 80, 2759.7449689367263 100" stroke="black" fill="none" marker-end="url(#arrowhead)"/>
<path d="M 2879.7449689367263 100 Q 2831.7449689367263 80, 2783.7449689367263 100" stroke="black" fill="none" marker-end="url(#arrowhead)"/>
<path d="M 2891.7449689367263 100 Q 2855.7449689367263 80, 2819.7449689367263 100" stroke="black" fill="none" marker-end="url(#arrowhead)"/>
<path d="M 2903.7449689367263 100 Q 2885.7449689367263 80, 2867.7449689367263 100" stroke="black" fill="none" marker-end="url(#arrowhead)"/>
<path d="M 2915.7449689367263 100 Q 2909.7449689367263 80, 2903.7449689367263 100" stroke="black" fill="none" marker-end="url(#arrowhead)"/>
<path d="M 2927.7449689367263 100 Q 2921.7449689367263 80, 2915.7449689367263 100" stroke="black" fill="none" marker-end="url(#arrowhead)"/>
<path d="M 2951.7449689367263 100 Q 2945.7449689367263 80, 2939.7449689367263 100" stroke="black" fill="none" marker-end="url(#arrowhead)"/>
<path d="M 2963.7449689367263 100 Q 2957.7449689367263 80, 2951.7449689367263 100" stroke="black" fill="none" marker-end="url(#arrowhead)"/>
<path d="M 2975.7449689367263 100 Q 2963.7449689367263 80, 2951.7449689367263 100" stroke="black" fill="none" marker-end="url(#arrowhead)"/>
<path d="M 2987.7449689367263 100 Q 2975.7449689367263 80, 2963.7449689367263 100" stroke="black" fill="none" marker-end="url(#arrowhead)"/>

<defs>
  <marker id="arrowhead" markerWidth="5" markerHeight="5" 
          refX="2" refY="2" orient="auto" fill="black">
    <path d="M0,0 L0,4 L4,2 z" />
  </marker>
</defs>

<circle cx="50.0" cy="100" r="6" fill="none" stroke="blue" stroke-width="2" />
<circle cx="50.0" cy="100" r="3" fill="blue" />
<circle cx="62.0" cy="100" r="4" fill="red" />
<circle cx="74.0" cy="100" r="4" fill="red" />
<circle cx="86.0" cy="100" r="6" fill="none" stroke="red" stroke-width="2" />
<circle cx="86.0" cy="100" r="3" fill="red" />
<circle cx="98.0" cy="100" r="6" fill="none" stroke="black" stroke-width="2" />
<circle cx="98.0" cy="100" r="3" fill="black" />
<circle cx="110.0" cy="100" r="4" fill="green" />
<circle cx="122.0" cy="100" r="6" fill="none" stroke="blue" stroke-width="2" />
<circle cx="122.0" cy="100" r="3" fill="blue" />
<circle cx="134.0" cy="100" r="4" fill="red" />
<circle cx="146.0" cy="100" r="4" fill="red" />
<circle cx="158.0" cy="100" r="6" fill="none" stroke="black" stroke-width="2" />
<circle cx="158.0" cy="100" r="3" fill="black" />
<circle cx="170.0" cy="100" r="4" fill="black" />
<circle cx="182.0" cy="100" r="4" fill="black" />
<circle cx="194.0" cy="100" r="6" fill="none" stroke="green" stroke-width="2" />
<circle cx="194.0" cy="100" r="3" fill="green" />
<circle cx="227.91205941911332" cy="100" r="6" fill="none" stroke="blue" stroke-width="2" />
<circle cx="227.91205941911332" cy="100" r="3" fill="blue" />
<circle cx="239.91205941911332" cy="100" r="4" fill="blue" />
<circle cx="251.91205941911332" cy="100" r="6" fill="none" stroke="black" stroke-width="2" />
<circle cx="251.91205941911332" cy="100" r="3" fill="black" />
<circle cx="263.91205941911335" cy="100" r="6" fill="none" stroke="blue" stroke-width="2" />
<circle cx="263.91205941911335" cy="100" r="3" fill="blue" />
<circle cx="359.74496893672637" cy="100" r="4" fill="blue" />
<circle cx="371.74496893672637" cy="100" r="6" fill="none" stroke="red" stroke-width="2" />
<circle cx="371.74496893672637" cy="100" r="3" fill="red" />
<circle cx="383.74496893672637" cy="100" r="6" fill="none" stroke="black" stroke-width="2" />
<circle cx="383.74496893672637" cy="100" r="3" fill="black" />
<circle cx="395.74496893672637" cy="100" r="4" fill="black" />
<circle cx="407.74496893672637" cy="100" r="6" fill="none" stroke="black" stroke-width="2" />
<circle cx="407.74496893672637" cy="100" r="3" fill="black" />
<circle cx="419.74496893672637" cy="100" r="4" fill="black" />
<circle cx="431.74496893672637" cy="100" r="6" fill="none" stroke="red" stroke-width="2" />
<circle cx="431.74496893672637" cy="100" r="3" fill="red" />
<circle cx="443.74496893672637" cy="100" r="6" fill="none" stroke="blue" stroke-width="2" />
<circle cx="443.74496893672637" cy="100" r="3" fill="blue" />
<circle cx="455.74496893672637" cy="100" r="4" fill="black" />
<circle cx="467.74496893672637" cy="100" r="6" fill="none" stroke="red" stroke-width="2" />
<circle cx="467.74496893672637" cy="100" r="3" fill="red" />
<circle cx="479.74496893672637" cy="100" r="4" fill="black" />
<circle cx="491.74496893672637" cy="100" r="6" fill="none" stroke="black" stroke-width="2" />
<circle cx="491.74496893672637" cy="100" r="3" fill="black" />
<circle cx="503.74496893672637" cy="100" r="4" fill="black" />
<circle cx="515.7449689367263" cy="100" r="4" fill="blue" />
<circle cx="527.7449689367263" cy="100" r="6" fill="none" stroke="red" stroke-width="2" />
<circle cx="527.7449689367263" cy="100" r="3" fill="red" />
<circle cx="539.7449689367263" cy="100" r="4" fill="red" />
<circle cx="551.7449689367263" cy="100" r="4" fill="black" />
<circle cx="563.7449689367263" cy="100" r="6" fill="none" stroke="red" stroke-width="2" />
<circle cx="563.7449689367263" cy="100" r="3" fill="red" />
<circle cx="575.7449689367263" cy="100" r="6" fill="none" stroke="black" stroke-width="2" />
<circle cx="575.7449689367263" cy="100" r="3" fill="black" />
<circle cx="587.7449689367263" cy="100" r="4" fill="red" />
<circle cx="599.7449689367263" cy="100" r="6" fill="none" stroke="red" stroke-width="2" />
<circle cx="599.7449689367263" cy="100" r="3" fill="red" />
<circle cx="611.7449689367263" cy="100" r="4" fill="red" />
<circle cx="623.7449689367263" cy="100" r="4" fill="black" />
<circle cx="635.7449689367263" cy="100" r="6" fill="none" stroke="red" stroke-width="2" />
<circle cx="635.7449689367263" cy="100" r="3" fill="red" />
<circle cx="647.7449689367263" cy="100" r="4" fill="red" />
<circle cx="659.7449689367263" cy="100" r="6" fill="none" stroke="black" stroke-width="2" />
<circle cx="659.7449689367263" cy="100" r="3" fill="black" />
<circle cx="671.7449689367263" cy="100" r="4" fill="blue" />
<circle cx="683.7449689367263" cy="100" r="4" fill="blue" />
<circle cx="695.7449689367263" cy="100" r="6" fill="none" stroke="red" stroke-width="2" />
<circle cx="695.7449689367263" cy="100" r="3" fill="red" />
<circle cx="707.7449689367263" cy="100" r="4" fill="red" />
<circle cx="719.7449689367263" cy="100" r="4" fill="blue" />
<circle cx="731.7449689367263" cy="100" r="4" fill="red" />
<circle cx="743.7449689367263" cy="100" r="6" fill="none" stroke="black" stroke-width="2" />
<circle cx="743.7449689367263" cy="100" r="3" fill="black" />
<circle cx="755.7449689367263" cy="100" r="4" fill="black" />
<circle cx="767.7449689367263" cy="100" r="4" fill="black" />
<circle cx="779.7449689367263" cy="100" r="4" fill="black" />
<circle cx="791.7449689367263" cy="100" r="4" fill="red" />
<circle cx="803.7449689367263" cy="100" r="6" fill="none" stroke="blue" stroke-width="2" />
<circle cx="803.7449689367263" cy="100" r="3" fill="blue" />
<circle cx="815.7449689367263" cy="100" r="6" fill="none" stroke="blue" stroke-width="2" />
<circle cx="815.7449689367263" cy="100" r="3" fill="blue" />
<circle cx="827.7449689367263" cy="100" r="4" fill="black" />
<circle cx="839.7449689367263" cy="100" r="6" fill="none" stroke="black" stroke-width="2" />
<circle cx="839.7449689367263" cy="100" r="3" fill="black" />
<circle cx="851.7449689367263" cy="100" r="6" fill="none" stroke="black" stroke-width="2" />
<circle cx="851.7449689367263" cy="100" r="3" fill="black" />
<circle cx="863.7449689367263" cy="100" r="4" fill="red" />
<circle cx="875.7449689367263" cy="100" r="6" fill="none" stroke="black" stroke-width="2" />
<circle cx="875.7449689367263" cy="100" r="3" fill="black" />
<circle cx="887.7449689367263" cy="100" r="4" fill="black" />
<circle cx="899.7449689367263" cy="100" r="6" fill="none" stroke="black" stroke-width="2" />
<circle cx="899.7449689367263" cy="100" r="3" fill="black" />
<circle cx="911.7449689367263" cy="100" r="4" fill="black" />
<circle cx="923.7449689367263" cy="100" r="6" fill="none" stroke="black" stroke-width="2" />
<circle cx="923.7449689367263" cy="100" r="3" fill="black" />
<circle cx="935.7449689367263" cy="100" r="4" fill="red" />
<circle cx="947.7449689367263" cy="100" r="4" fill="blue" />
<circle cx="959.7449689367263" cy="100" r="6" fill="none" stroke="red" stroke-width="2" />
<circle cx="959.7449689367263" cy="100" r="3" fill="red" />
<circle cx="971.7449689367263" cy="100" r="6" fill="none" stroke="black" stroke-width="2" />
<circle cx="971.7449689367263" cy="100" r="3" fill="black" />
<circle cx="983.7449689367263" cy="100" r="6" fill="none" stroke="blue" stroke-width="2" />
<circle cx="983.7449689367263" cy="100" r="3" fill="blue" />
<circle cx="995.7449689367263" cy="100" r="4" fill="black" />
<circle cx="1007.7449689367263" cy="100" r="4" fill="black" />
<circle cx="1019.7449689367263" cy="100" r="6" fill="none" stroke="black" stroke-width="2" />
<circle cx="1019.7449689367263" cy="100" r="3" fill="black" />
<circle cx="1031.7449689367263" cy="100" r="4" fill="red" />
<circle cx="1043.7449689367263" cy="100" r="6" fill="none" stroke="blue" stroke-width="2" />
<circle cx="1043.7449689367263" cy="100" r="3" fill="blue" />
<circle cx="1055.7449689367263" cy="100" r="6" fill="none" stroke="blue" stroke-width="2" />
<circle cx="1055.7449689367263" cy="100" r="3" fill="blue" />
<circle cx="1067.7449689367263" cy="100" r="6" fill="none" stroke="blue" stroke-width="2" />
<circle cx="1067.7449689367263" cy="100" r="3" fill="blue" />
<circle cx="1079.7449689367263" cy="100" r="4" fill="black" />
<circle cx="1091.7449689367263" cy="100" r="6" fill="none" stroke="black" stroke-width="2" />
<circle cx="1091.7449689367263" cy="100" r="3" fill="black" />
<circle cx="1103.7449689367263" cy="100" r="6" fill="none" stroke="blue" stroke-width="2" />
<circle cx="1103.7449689367263" cy="100" r="3" fill="blue" />
<circle cx="1115.7449689367263" cy="100" r="4" fill="black" />
<circle cx="1127.7449689367263" cy="100" r="6" fill="none" stroke="black" stroke-width="2" />
<circle cx="1127.7449689367263" cy="100" r="3" fill="black" />
<circle cx="1139.7449689367263" cy="100" r="4" fill="black" />
<circle cx="1151.7449689367263" cy="100" r="6" fill="none" stroke="black" stroke-width="2" />
<circle cx="1151.7449689367263" cy="100" r="3" fill="black" />
<circle cx="1163.7449689367263" cy="100" r="6" fill="none" stroke="blue" stroke-width="2" />
<circle cx="1163.7449689367263" cy="100" r="3" fill="blue" />
<circle cx="1175.7449689367263" cy="100" r="6" fill="none" stroke="blue" stroke-width="2" />
<circle cx="1175.7449689367263" cy="100" r="3" fill="blue" />
<circle cx="1187.7449689367263" cy="100" r="6" fill="none" stroke="blue" stroke-width="2" />
<circle cx="1187.7449689367263" cy="100" r="3" fill="blue" />
<circle cx="1199.7449689367263" cy="100" r="6" fill="none" stroke="black" stroke-width="2" />
<circle cx="1199.7449689367263" cy="100" r="3" fill="black" />
<circle cx="1211.7449689367263" cy="100" r="6" fill="none" stroke="blue" stroke-width="2" />
<circle cx="1211.7449689367263" cy="100" r="3" fill="blue" />
<circle cx="1223.7449689367263" cy="100" r="4" fill="blue" />
<circle cx="1235.7449689367263" cy="100" r="4" fill="black" />
<circle cx="1247.7449689367263" cy="100" r="4" fill="black" />
<circle cx="1259.7449689367263" cy="100" r="6" fill="none" stroke="black" stroke-width="2" />
<circle cx="1259.7449689367263" cy="100" r="3" fill="black" />
<circle cx="1271.7449689367263" cy="100" r="4" fill="red" />
<circle cx="1283.7449689367263" cy="100" r="6" fill="none" stroke="red" stroke-width="2" />
<circle cx="1283.7449689367263" cy="100" r="3" fill="red" />
<circle cx="1295.7449689367263" cy="100" r="6" fill="none" stroke="black" stroke-width="2" />
<circle cx="1295.7449689367263" cy="100" r="3" fill="black" />
<circle cx="1307.7449689367263" cy="100" r="6" fill="none" stroke="blue" stroke-width="2" />
<circle cx="1307.7449689367263" cy="100" r="3" fill="blue" />
<circle cx="1319.7449689367263" cy="100" r="6" fill="none" stroke="blue" stroke-width="2" />
<circle cx="1319.7449689367263" cy="100" r="3" fill="blue" />
<circle cx="1331.7449689367263" cy="100" r="6" fill="none" stroke="blue" stroke-width="2" />
<circle cx="1331.7449689367263" cy="100" r="3" fill="blue" />
<circle cx="1343.7449689367263" cy="100" r="6" fill="none" stroke="blue" stroke-width="2" />
<circle cx="1343.7449689367263" cy="100" r="3" fill="blue" />
<circle cx="1355.7449689367263" cy="100" r="4" fill="blue" />
<circle cx="1367.7449689367263" cy="100" r="6" fill="none" stroke="red" stroke-width="2" />
<circle cx="1367.7449689367263" cy="100" r="3" fill="red" />
<circle cx="1379.7449689367263" cy="100" r="6" fill="none" stroke="blue" stroke-width="2" />
<circle cx="1379.7449689367263" cy="100" r="3" fill="blue" />
<circle cx="1391.7449689367263" cy="100" r="6" fill="none" stroke="blue" stroke-width="2" />
<circle cx="1391.7449689367263" cy="100" r="3" fill="blue" />
<circle cx="1403.7449689367263" cy="100" r="4" fill="red" />
<circle cx="1415.7449689367263" cy="100" r="4" fill="red" />
<circle cx="1427.7449689367263" cy="100" r="6" fill="none" stroke="black" stroke-width="2" />
<circle cx="1427.7449689367263" cy="100" r="3" fill="black" />
<circle cx="1439.7449689367263" cy="100" r="6" fill="none" stroke="black" stroke-width="2" />
<circle cx="1439.7449689367263" cy="100" r="3" fill="black" />
<circle cx="1451.7449689367263" cy="100" r="4" fill="black" />
<circle cx="1463.7449689367263" cy="100" r="6" fill="none" stroke="black" stroke-width="2" />
<circle cx="1463.7449689367263" cy="100" r="3" fill="black" />
<circle cx="1475.7449689367263" cy="100" r="4" fill="green" />
<circle cx="1487.7449689367263" cy="100" r="6" fill="none" stroke="blue" stroke-width="2" />
<circle cx="1487.7449689367263" cy="100" r="3" fill="blue" />
<circle cx="1499.7449689367263" cy="100" r="4" fill="black" />
<circle cx="1511.7449689367263" cy="100" r="4" fill="black" />
<circle cx="1523.7449689367263" cy="100" r="6" fill="none" stroke="blue" stroke-width="2" />
<circle cx="1523.7449689367263" cy="100" r="3" fill="blue" />
<circle cx="1535.7449689367263" cy="100" r="4" fill="red" />
<circle cx="1547.7449689367263" cy="100" r="6" fill="none" stroke="black" stroke-width="2" />
<circle cx="1547.7449689367263" cy="100" r="3" fill="black" />
<circle cx="1559.7449689367263" cy="100" r="6" fill="none" stroke="blue" stroke-width="2" />
<circle cx="1559.7449689367263" cy="100" r="3" fill="blue" />
<circle cx="1571.7449689367263" cy="100" r="4" fill="red" />
<circle cx="1583.7449689367263" cy="100" r="6" fill="none" stroke="red" stroke-width="2" />
<circle cx="1583.7449689367263" cy="100" r="3" fill="red" />
<circle cx="1595.7449689367263" cy="100" r="4" fill="green" />
<circle cx="1607.7449689367263" cy="100" r="4" fill="black" />
<circle cx="1619.7449689367263" cy="100" r="4" fill="blue" />
<circle cx="1631.7449689367263" cy="100" r="6" fill="none" stroke="black" stroke-width="2" />
<circle cx="1631.7449689367263" cy="100" r="3" fill="black" />
<circle cx="1643.7449689367263" cy="100" r="6" fill="none" stroke="blue" stroke-width="2" />
<circle cx="1643.7449689367263" cy="100" r="3" fill="blue" />
<circle cx="1655.7449689367263" cy="100" r="4" fill="black" />
<circle cx="1667.7449689367263" cy="100" r="6" fill="none" stroke="black" stroke-width="2" />
<circle cx="1667.7449689367263" cy="100" r="3" fill="black" />
<circle cx="1679.7449689367263" cy="100" r="4" fill="black" />
<circle cx="1691.7449689367263" cy="100" r="4" fill="black" />
<circle cx="1703.7449689367263" cy="100" r="6" fill="none" stroke="black" stroke-width="2" />
<circle cx="1703.7449689367263" cy="100" r="3" fill="black" />
<circle cx="1715.7449689367263" cy="100" r="4" fill="black" />
<circle cx="1727.7449689367263" cy="100" r="6" fill="none" stroke="black" stroke-width="2" />
<circle cx="1727.7449689367263" cy="100" r="3" fill="black" />
<circle cx="1739.7449689367263" cy="100" r="6" fill="none" stroke="blue" stroke-width="2" />
<circle cx="1739.7449689367263" cy="100" r="3" fill="blue" />
<circle cx="1751.7449689367263" cy="100" r="4" fill="red" />
<circle cx="1763.7449689367263" cy="100" r="6" fill="none" stroke="blue" stroke-width="2" />
<circle cx="1763.7449689367263" cy="100" r="3" fill="blue" />
<circle cx="1775.7449689367263" cy="100" r="6" fill="none" stroke="blue" stroke-width="2" />
<circle cx="1775.7449689367263" cy="100" r="3" fill="blue" />
<circle cx="1787.7449689367263" cy="100" r="4" fill="green" />
<circle cx="1799.7449689367263" cy="100" r="4" fill="red" />
<circle cx="1811.7449689367263" cy="100" r="4" fill="blue" />
<circle cx="1823.7449689367263" cy="100" r="4" fill="blue" />
<circle cx="1835.7449689367263" cy="100" r="6" fill="none" stroke="blue" stroke-width="2" />
<circle cx="1835.7449689367263" cy="100" r="3" fill="blue" />
<circle cx="1847.7449689367263" cy="100" r="6" fill="none" stroke="red" stroke-width="2" />
<circle cx="1847.7449689367263" cy="100" r="3" fill="red" />
<circle cx="1859.7449689367263" cy="100" r="6" fill="none" stroke="black" stroke-width="2" />
<circle cx="1859.7449689367263" cy="100" r="3" fill="black" />
<circle cx="1871.7449689367263" cy="100" r="6" fill="none" stroke="blue" stroke-width="2" />
<circle cx="1871.7449689367263" cy="100" r="3" fill="blue" />
<circle cx="1883.7449689367263" cy="100" r="4" fill="blue" />
<circle cx="1895.7449689367263" cy="100" r="6" fill="none" stroke="red" stroke-width="2" />
<circle cx="1895.7449689367263" cy="100" r="3" fill="red" />
<circle cx="1907.7449689367263" cy="100" r="4" fill="black" />
<circle cx="1919.7449689367263" cy="100" r="6" fill="none" stroke="black" stroke-width="2" />
<circle cx="1919.7449689367263" cy="100" r="3" fill="black" />
<circle cx="1931.7449689367263" cy="100" r="4" fill="black" />
<circle cx="1943.7449689367263" cy="100" r="6" fill="none" stroke="blue" stroke-width="2" />
<circle cx="1943.7449689367263" cy="100" r="3" fill="blue" />
<circle cx="1955.7449689367263" cy="100" r="6" fill="none" stroke="black" stroke-width="2" />
<circle cx="1955.7449689367263" cy="100" r="3" fill="black" />
<circle cx="1967.7449689367263" cy="100" r="4" fill="black" />
<circle cx="1979.7449689367263" cy="100" r="6" fill="none" stroke="black" stroke-width="2" />
<circle cx="1979.7449689367263" cy="100" r="3" fill="black" />
<circle cx="1991.7449689367263" cy="100" r="4" fill="red" />
<circle cx="2003.7449689367263" cy="100" r="4" fill="red" />
<circle cx="2015.7449689367263" cy="100" r="6" fill="none" stroke="black" stroke-width="2" />
<circle cx="2015.7449689367263" cy="100" r="3" fill="black" />
<circle cx="2027.7449689367263" cy="100" r="6" fill="none" stroke="blue" stroke-width="2" />
<circle cx="2027.7449689367263" cy="100" r="3" fill="blue" />
<circle cx="2039.7449689367263" cy="100" r="6" fill="none" stroke="black" stroke-width="2" />
<circle cx="2039.7449689367263" cy="100" r="3" fill="black" />
<circle cx="2051.7449689367263" cy="100" r="4" fill="red" />
<circle cx="2063.7449689367263" cy="100" r="6" fill="none" stroke="black" stroke-width="2" />
<circle cx="2063.7449689367263" cy="100" r="3" fill="black" />
<circle cx="2075.7449689367263" cy="100" r="6" fill="none" stroke="red" stroke-width="2" />
<circle cx="2075.7449689367263" cy="100" r="3" fill="red" />
<circle cx="2087.7449689367263" cy="100" r="4" fill="red" />
<circle cx="2099.7449689367263" cy="100" r="6" fill="none" stroke="black" stroke-width="2" />
<circle cx="2099.7449689367263" cy="100" r="3" fill="black" />
<circle cx="2111.7449689367263" cy="100" r="6" fill="none" stroke="red" stroke-width="2" />
<circle cx="2111.7449689367263" cy="100" r="3" fill="red" />
<circle cx="2123.7449689367263" cy="100" r="4" fill="black" />
<circle cx="2135.7449689367263" cy="100" r="4" fill="red" />
<circle cx="2147.7449689367263" cy="100" r="6" fill="none" stroke="blue" stroke-width="2" />
<circle cx="2147.7449689367263" cy="100" r="3" fill="blue" />
<circle cx="2159.7449689367263" cy="100" r="6" fill="none" stroke="blue" stroke-width="2" />
<circle cx="2159.7449689367263" cy="100" r="3" fill="blue" />
<circle cx="2171.7449689367263" cy="100" r="4" fill="red" />
<circle cx="2183.7449689367263" cy="100" r="6" fill="none" stroke="black" stroke-width="2" />
<circle cx="2183.7449689367263" cy="100" r="3" fill="black" />
<circle cx="2195.7449689367263" cy="100" r="6" fill="none" stroke="blue" stroke-width="2" />
<circle cx="2195.7449689367263" cy="100" r="3" fill="blue" />
<circle cx="2207.7449689367263" cy="100" r="4" fill="blue" />
<circle cx="2219.7449689367263" cy="100" r="4" fill="red" />
<circle cx="2231.7449689367263" cy="100" r="6" fill="none" stroke="green" stroke-width="2" />
<circle cx="2231.7449689367263" cy="100" r="3" fill="green" />
<circle cx="2243.7449689367263" cy="100" r="6" fill="none" stroke="red" stroke-width="2" />
<circle cx="2243.7449689367263" cy="100" r="3" fill="red" />
<circle cx="2255.7449689367263" cy="100" r="4" fill="black" />
<circle cx="2267.7449689367263" cy="100" r="6" fill="none" stroke="blue" stroke-width="2" />
<circle cx="2267.7449689367263" cy="100" r="3" fill="blue" />
<circle cx="2279.7449689367263" cy="100" r="4" fill="black" />
<circle cx="2291.7449689367263" cy="100" r="6" fill="none" stroke="black" stroke-width="2" />
<circle cx="2291.7449689367263" cy="100" r="3" fill="black" />
<circle cx="2303.7449689367263" cy="100" r="4" fill="black" />
<circle cx="2315.7449689367263" cy="100" r="6" fill="none" stroke="red" stroke-width="2" />
<circle cx="2315.7449689367263" cy="100" r="3" fill="red" />
<circle cx="2327.7449689367263" cy="100" r="4" fill="red" />
<circle cx="2339.7449689367263" cy="100" r="6" fill="none" stroke="black" stroke-width="2" />
<circle cx="2339.7449689367263" cy="100" r="3" fill="black" />
<circle cx="2351.7449689367263" cy="100" r="4" fill="red" />
<circle cx="2363.7449689367263" cy="100" r="4" fill="red" />
<circle cx="2375.7449689367263" cy="100" r="6" fill="none" stroke="blue" stroke-width="2" />
<circle cx="2375.7449689367263" cy="100" r="3" fill="blue" />
<circle cx="2387.7449689367263" cy="100" r="6" fill="none" stroke="red" stroke-width="2" />
<circle cx="2387.7449689367263" cy="100" r="3" fill="red" />
<circle cx="2399.7449689367263" cy="100" r="6" fill="none" stroke="blue" stroke-width="2" />
<circle cx="2399.7449689367263" cy="100" r="3" fill="blue" />
<circle cx="2411.7449689367263" cy="100" r="4" fill="green" />
<circle cx="2423.7449689367263" cy="100" r="4" fill="red" />
<circle cx="2435.7449689367263" cy="100" r="6" fill="none" stroke="red" stroke-width="2" />
<circle cx="2435.7449689367263" cy="100" r="3" fill="red" />
<circle cx="2447.7449689367263" cy="100" r="6" fill="none" stroke="black" stroke-width="2" />
<circle cx="2447.7449689367263" cy="100" r="3" fill="black" />
<circle cx="2459.7449689367263" cy="100" r="4" fill="green" />
<circle cx="2471.7449689367263" cy="100" r="6" fill="none" stroke="blue" stroke-width="2" />
<circle cx="2471.7449689367263" cy="100" r="3" fill="blue" />
<circle cx="2483.7449689367263" cy="100" r="4" fill="blue" />
<circle cx="2495.7449689367263" cy="100" r="6" fill="none" stroke="blue" stroke-width="2" />
<circle cx="2495.7449689367263" cy="100" r="3" fill="blue" />
<circle cx="2507.7449689367263" cy="100" r="4" fill="blue" />
<circle cx="2519.7449689367263" cy="100" r="4" fill="blue" />
<circle cx="2531.7449689367263" cy="100" r="6" fill="none" stroke="blue" stroke-width="2" />
<circle cx="2531.7449689367263" cy="100" r="3" fill="blue" />
<circle cx="2543.7449689367263" cy="100" r="4" fill="red" />
<circle cx="2555.7449689367263" cy="100" r="6" fill="none" stroke="blue" stroke-width="2" />
<circle cx="2555.7449689367263" cy="100" r="3" fill="blue" />
<circle cx="2567.7449689367263" cy="100" r="4" fill="black" />
<circle cx="2579.7449689367263" cy="100" r="4" fill="red" />
<circle cx="2591.7449689367263" cy="100" r="6" fill="none" stroke="black" stroke-width="2" />
<circle cx="2591.7449689367263" cy="100" r="3" fill="black" />
<circle cx="2603.7449689367263" cy="100" r="4" fill="blue" />
<circle cx="2615.7449689367263" cy="100" r="4" fill="black" />
<circle cx="2627.7449689367263" cy="100" r="6" fill="none" stroke="blue" stroke-width="2" />
<circle cx="2627.7449689367263" cy="100" r="3" fill="blue" />
<circle cx="2639.7449689367263" cy="100" r="4" fill="blue" />
<circle cx="2651.7449689367263" cy="100" r="6" fill="none" stroke="black" stroke-width="2" />
<circle cx="2651.7449689367263" cy="100" r="3" fill="black" />
<circle cx="2663.7449689367263" cy="100" r="6" fill="none" stroke="blue" stroke-width="2" />
<circle cx="2663.7449689367263" cy="100" r="3" fill="blue" />
<circle cx="2675.7449689367263" cy="100" r="4" fill="blue" />
<circle cx="2687.7449689367263" cy="100" r="6" fill="none" stroke="green" stroke-width="2" />
<circle cx="2687.7449689367263" cy="100" r="3" fill="green" />
<circle cx="2699.7449689367263" cy="100" r="4" fill="green" />
<circle cx="2711.7449689367263" cy="100" r="6" fill="none" stroke="black" stroke-width="2" />
<circle cx="2711.7449689367263" cy="100" r="3" fill="black" />
<circle cx="2723.7449689367263" cy="100" r="4" fill="black" />
<circle cx="2735.7449689367263" cy="100" r="6" fill="none" stroke="blue" stroke-width="2" />
<circle cx="2735.7449689367263" cy="100" r="3" fill="blue" />
<circle cx="2747.7449689367263" cy="100" r="4" fill="green" />
<circle cx="2759.7449689367263" cy="100" r="4" fill="black" />
<circle cx="2771.7449689367263" cy="100" r="4" fill="black" />
<circle cx="2783.7449689367263" cy="100" r="4" fill="red" />
<circle cx="2795.7449689367263" cy="100" r="4" fill="red" />
<circle cx="2807.7449689367263" cy="100" r="4" fill="blue" />
<circle cx="2819.7449689367263" cy="100" r="4" fill="blue" />
<circle cx="2831.7449689367263" cy="100" r="4" fill="red" />
<circle cx="2843.7449689367263" cy="100" r="4" fill="green" />
<circle cx="2855.7449689367263" cy="100" r="4" fill="green" />
<circle cx="2867.7449689367263" cy="100" r="6" fill="none" stroke="black" stroke-width="2" />
<circle cx="2867.7449689367263" cy="100" r="3" fill="black" />
<circle cx="2879.7449689367263" cy="100" r="6" fill="none" stroke="black" stroke-width="2" />
<circle cx="2879.7449689367263" cy="100" r="3" fill="black" />
<circle cx="2891.7449689367263" cy="100" r="6" fill="none" stroke="green" stroke-width="2" />
<circle cx="2891.7449689367263" cy="100" r="3" fill="green" />
<circle cx="2903.7449689367263" cy="100" r="4" fill="black" />
<circle cx="2915.7449689367263" cy="100" r="6" fill="none" stroke="blue" stroke-width="2" />
<circle cx="2915.7449689367263" cy="100" r="3" fill="blue" />
<circle cx="2927.7449689367263" cy="100" r="6" fill="none" stroke="blue" stroke-width="2" />
<circle cx="2927.7449689367263" cy="100" r="3" fill="blue" />
<circle cx="2939.7449689367263" cy="100" r="4" fill="blue" />
<circle cx="2951.7449689367263" cy="100" r="6" fill="none" stroke="red" stroke-width="2" />
<circle cx="2951.7449689367263" cy="100" r="3" fill="red" />
<circle cx="2963.7449689367263" cy="100" r="6" fill="none" stroke="black" stroke-width="2" />
<circle cx="2963.7449689367263" cy="100" r="3" fill="black" />
<circle cx="2975.7449689367263" cy="100" r="4" fill="green" />
<circle cx="2987.7449689367263" cy="100" r="4" fill="black" />
<text x="50" y="125" fill="gray" style="font-size:12px;">2021-06-08T16:37:46+00:00</text>
<text x="900" y="125" fill="gray" style="font-size:12px;">2025-03-01T00:36:29+00:00</text>
</svg>