<svg xmlns="http://www.w3.org/2000/svg" width="1000" height="400" style="background-color: white; font-family: sans-serif;">
<line x1="50" y1="200" x2="950" y2="200" stroke="gray" stroke-width="1"/>
<path d="M 74.0 200 Q 62.0 180, 50.0 200" stroke="black" fill="none" marker-end="url(#arrowhead)"/>
<path d="M 86.0 200 Q 80.0 180, 74.0 200" stroke="black" fill="none" marker-end="url(#arrowhead)"/>
<path d="M 86.0 200 Q 68.0 180, 50.0 200" stroke="black" fill="none" marker-end="url(#arrowhead)"/>
<path d="M 98.0 200 Q 86.0 180, 74.0 200" stroke="black" fill="none" marker-end="url(#arrowhead)"/>
<path d="M 98.0 200 Q 92.0 180, 86.0 200" stroke="black" fill="none" marker-end="url(#arrowhead)"/>
<path d="M 98.0 200 Q 74.0 180, 50.0 200" stroke="black" fill="none" marker-end="url(#arrowhead)"/>
<path d="M 122.0 200 Q 116.0 180, 110.0 200" stroke="black" fill="none" marker-end="url(#arrowhead)"/>
<path d="M 134.0 200 Q 128.0 180, 122.0 200" stroke="black" fill="none" marker-end="url(#arrowhead)"/>
<path d="M 146.0 200 Q 140.0 180, 134.0 200" stroke="black" fill="none" marker-end="url(#arrowhead)"/>
<path d="M 158.0 200 Q 152.0 180, 146.0 200" stroke="black" fill="none" marker-end="url(#arrowhead)"/>
<path d="M 158.0 200 Q 146.0 180, 134.0 200" stroke="black" fill="none" marker-end="url(#arrowhead)"/>
<path d="M 170.0 200 Q 164.0 180, 158.0 200" stroke="black" fill="none" marker-end="url(#arrowhead)"/>
<path d="M 182.0 200 Q 176.0 180, 170.0 200" stroke="black" fill="none" marker-end="url(#arrowhead)"/>
<path d="M 194.0 200 Q 182.0 180, 170.0 200" stroke="black" fill="none" marker-end="url(#arrowhead)"/>
<path d="M 206.0 200 Q 200.0 180, 194.0 200" stroke="black" fill="none" marker-end="url(#arrowhead)"/>
<path d="M 218.0 200 Q 212.0 180, 206.0 200" stroke="black" fill="none" marker-end="url(#arrowhead)"/>
<path d="M 242.0 200 Q 236.0 180, 230.0 200" stroke="black" fill="none" marker-end="url(#arrowhead)"/>
<path d="M 254.0 200 Q 218.0 180, 182.0 200" stroke="black" fill="none" marker-end="url(#arrowhead)"/>
<path d="M 254.0 200 Q 230.0 180, 206.0 200" stroke="black" fill="none" marker-end="url(#arrowhead)"/>
<path d="M 254.0 200 Q 212.0 180, 170.0 200" stroke="black" fill="none" marker-end="url(#arrowhead)"/>
<path d="M 254.0 200 Q 248.0 180, 242.0 200" stroke="black" fill="none" marker-end="url(#arrowhead)"/>
<path d="M 254.0 200 Q 224.0 180, 194.0 200" stroke="black" fill="none" marker-end="url(#arrowhead)"/>
<path d="M 266.0 200 Q 254.0 180, 242.0 200" stroke="black" fill="none" marker-end="url(#arrowhead)"/>
<path d="M 266.0 200 Q 260.0 180, 254.0 200" stroke="black" fill="none" marker-end="url(#arrowhead)"/>
<path d="M 278.0 200 Q 236.0 180, 194.0 200" stroke="black" fill="none" marker-end="url(#arrowhead)"/>
<path d="M 290.0 200 Q 284.0 180, 278.0 200" stroke="black" fill="none" marker-end="url(#arrowhead)"/>
<path d="M 302.0 200 Q 296.0 180, 290.0 200" stroke="black" fill="none" marker-end="url(#arrowhead)"/>
<path d="M 302.0 200 Q 278.0 180, 254.0 200" stroke="black" fill="none" marker-end="url(#arrowhead)"/>
<path d="M 302.0 200 Q 218.0 180, 134.0 200" stroke="black" fill="none" marker-end="url(#arrowhead)"/>
<path d="M 302.0 200 Q 290.0 180, 278.0 200" stroke="black" fill="none" marker-end="url(#arrowhead)"/>
<path d="M 302.0 200 Q 248.0 180, 194.0 200" stroke="black" fill="none" marker-end="url(#arrowhead)"/>
<path d="M 302.0 200 Q 284.0 180, 266.0 200" stroke="black" fill="none" marker-end="url(#arrowhead)"/>
<path d="M 314.0 200 Q 296.0 180, 278.0 200" stroke="black" fill="none" marker-end="url(#arrowhead)"/>
<path d="M 314.0 200 Q 308.0 180, 302.0 200" stroke="black" fill="none" marker-end="url(#arrowhead)"/>
<path d="M 338.0 200 Q 320.0 180, 302.0 200" stroke="black" fill="none" marker-end="url(#arrowhead)"/>
<path d="M 338.0 200 Q 332.0 180, 326.0 200" stroke="black" fill="none" marker-end="url(#arrowhead)"/>
<path d="M 350.0 200 Q 326.0 180, 302.0 200" stroke="black" fill="none" marker-end="url(#arrowhead)"/>
<path d="M 350.0 200 Q 338.0 180, 326.0 200" stroke="black" fill="none" marker-end="url(#arrowhead)"/>
<path d="M 350.0 200 Q 344.0 180, 338.0 200" stroke="black" fill="none" marker-end="url(#arrowhead)"/>
<path d="M 386.0 200 Q 380.0 180, 374.0 200" stroke="black" fill="none" marker-end="url(#arrowhead)"/>
<path d="M 398.0 200 Q 392.0 180, 386.0 200" stroke="black" fill="none" marker-end="url(#arrowhead)"/>
<path d="M 410.0 200 Q 392.0 180, 374.0 200" stroke="black" fill="none" marker-end="url(#arrowhead)"/>
<path d="M 410.0 200 Q 404.0 180, 398.0 200" stroke="black" fill="none" marker-end="url(#arrowhead)"/>
<path d="M 434.0 200 Q 428.0 180, 422.0 200" stroke="black" fill="none" marker-end="url(#arrowhead)"/>
<path d="M 486.93371552419694 200 Q 460.46685776209847 180, 434.0 200" stroke="black" fill="none" marker-end="url(#arrowhead)"/>
<path d="M 498.93371552419694 200 Q 466.46685776209847 180, 434.0 200" stroke="black" fill="none" marker-end="url(#arrowhead)"/>
<path d="M 498.93371552419694 200 Q 492.93371552419694 180, 486.93371552419694 200" stroke="black" fill="none" marker-end="url(#arrowhead)"/>
<path d="M 510.93371552419694 200 Q 504.93371552419694 180, 498.93371552419694 200" stroke="black" fill="none" marker-end="url(#arrowhead)"/>
<path d="M 522.9337155241969 200 Q 510.93371552419694 180, 498.93371552419694 200" stroke="black" fill="none" marker-end="url(#arrowhead)"/>
<path d="M 522.9337155241969 200 Q 516.9337155241969 180, 510.93371552419694 200" stroke="black" fill="none" marker-end="url(#arrowhead)"/>
<path d="M 534.9337155241969 200 Q 528.9337155241969 180, 522.9337155241969 200" stroke="black" fill="none" marker-end="url(#arrowhead)"/>
<path d="M 546.9337155241969 200 Q 534.9337155241969 180, 522.9337155241969 200" stroke="black" fill="none" marker-end="url(#arrowhead)"/>
<path d="M 546.9337155241969 200 Q 540.9337155241969 180, 534.9337155241969 200" stroke="black" fill="none" marker-end="url(#arrowhead)"/>
<path d="M 558.9337155241969 200 Q 552.9337155241969 180, 546.9337155241969 200" stroke="black" fill="none" marker-end="url(#arrowhead)"/>
<path d="M 570.9337155241969 200 Q 564.9337155241969 180, 558.9337155241969 200" stroke="black" fill="none" marker-end="url(#arrowhead)"/>
<path d="M 582.9337155241969 200 Q 570.9337155241969 180, 558.9337155241969 200" stroke="black" fill="none" marker-end="url(#arrowhead)"/>
<path d="M 582.9337155241969 200 Q 576.9337155241969 180, 570.9337155241969 200" stroke="black" fill="none" marker-end="url(#arrowhead)"/>
<path d="M 594.9337155241969 200 Q 588.9337155241969 180, 582.9337155241969 200" stroke="black" fill="none" marker-end="url(#arrowhead)"/>
<path d="M 606.9337155241969 200 Q 600.9337155241969 180, 594.9337155241969 200" stroke="black" fill="none" marker-end="url(#arrowhead)"/>
<path d="M 606.9337155241969 200 Q 588.9337155241969 180, 570.9337155241969 200" stroke="black" fill="none" marker-end="url(#arrowhead)"/>
<path d="M 606.9337155241969 200 Q 594.9337155241969 180, 582.9337155241969 200" stroke="black" fill="none" marker-end="url(#arrowhead)"/>
<path d="M 618.9337155241969 200 Q 606.9337155241969 180, 594.9337155241969 200" stroke="black" fill="none" marker-end="url(#arrowhead)"/>
<path d="M 618.9337155241969 200 Q 600.9337155241969 180, 582.9337155241969 200" stroke="black" fill="none" marker-end="url(#arrowhead)"/>
<path d="M 630.9337155241969 200 Q 618.9337155241969 180, 606.9337155241969 200" stroke="black" fill="none" marker-end="url(#arrowhead)"/>
<path d="M 630.9337155241969 200 Q 624.9337155241969 180, 618.9337155241969 200" stroke="black" fill="none" marker-end="url(#arrowhead)"/>
<path d="M 642.9337155241969 200 Q 636.9337155241969 180, 630.9337155241969 200" stroke="black" fill="none" marker-end="url(#arrowhead)"/>
<path d="M 654.9337155241969 200 Q 642.9337155241969 180, 630.9337155241969 200" stroke="black" fill="none" marker-end="url(#arrowhead)"/>
<path d="M 654.9337155241969 200 Q 612.9337155241969 180, 570.9337155241969 200" stroke="black" fill="none" marker-end="url(#arrowhead)"/>
<path d="M 654.9337155241969 200 Q 648.9337155241969 180, 642.9337155241969 200" stroke="black" fill="none" marker-end="url(#arrowhead)"/>
<path d="M 666.9337155241969 200 Q 660.9337155241969 180, 654.9337155241969 200" stroke="black" fill="none" marker-end="url(#arrowhead)"/>
<path d="M 678.9337155241969 200 Q 666.9337155241969 180, 654.9337155241969 200" stroke="black" fill="none" marker-end="url(#arrowhead)"/>
<path d="M 678.9337155241969 200 Q 672.9337155241969 180, 666.9337155241969 200" stroke="black" fill="none" marker-end="url(#arrowhead)"/>
<path d="M 690.9337155241969 200 Q 684.9337155241969 180, 678.9337155241969 200" stroke="black" fill="none" marker-end="url(#arrowhead)"/>
<path d="M 702.9337155241969 200 Q 690.9337155241969 180, 678.9337155241969 200" stroke="black" fill="none" marker-end="url(#arrowhead)"/>
<path d="M 702.9337155241969 200 Q 696.9337155241969 180, 690.9337155241969 200" stroke="black" fill="none" marker-end="url(#arrowhead)"/>
<path d="M 714.9337155241969 200 Q 708.9337155241969 180, 702.9337155241969 200" stroke="black" fill="none" marker-end="url(#arrowhead)"/>
<path d="M 726.9337155241969 200 Q 714.9337155241969 180, 702.9337155241969 200" stroke="black" fill="none" marker-end="url(#arrowhead)"/>
<path d="M 726.9337155241969 200 Q 720.9337155241969 180, 714.9337155241969 200" stroke="black" fill="none" marker-end="url(#arrowhead)"/>
<path d="M 738.9337155241969 200 Q 732.9337155241969 180, 726.9337155241969 200" stroke="black" fill="none" marker-end="url(#arrowhead)"/>
<path d="M 738.9337155241969 200 Q 726.9337155241969 180, 714.9337155241969 200" stroke="black" fill="none" marker-end="url(#arrowhead)"/>
<path d="M 750.9337155241969 200 Q 738.9337155241969 180, 726.9337155241969 200" stroke="black" fill="none" marker-end="url(#arrowhead)"/>
<path d="M 750.9337155241969 200 Q 744.9337155241969 180, 738.9337155241969 200" stroke="black" fill="none" marker-end="url(#arrowhead)"/>
<path d="M 750.9337155241969 200 Q 732.9337155241969 180, 714.9337155241969 200" stroke="black" fill="none" marker-end="url(#arrowhead)"/>
<path d="M 762.9337155241969 200 Q 750.9337155241969 180, 738.9337155241969 200" stroke="black" fill="none" marker-end="url(#arrowhead)"/>
<path d="M 762.9337155241969 200 Q 756.9337155241969 180, 750.9337155241969 200" stroke="black" fill="none" marker-end="url(#arrowhead)"/>
<path d="M 774.9337155241969 200 Q 756.9337155241969 180, 738.9337155241969 200" stroke="black" fill="none" marker-end="url(#arrowhead)"/>
<path d="M 774.9337155241969 200 Q 762.9337155241969 180, 750.9337155241969 200" stroke="black" fill="none" marker-end="url(#arrowhead)"/>
<path d="M 774.9337155241969 200 Q 768.9337155241969 180, 762.9337155241969 200" stroke="black" fill="none" marker-end="url(#arrowhead)"/>
<path d="M 786.9337155241969 200 Q 762.9337155241969 180, 738.9337155241969 200" stroke="black" fill="none" marker-end="url(#arrowhead)"/>
<path d="M 786.9337155241969 200 Q 768.9337155241969 180, 750.9337155241969 200" stroke="black" fill="none" marker-end="url(#arrowhead)"/>
<path d="M 786.9337155241969 200 Q 774.9337155241969 180, 762.9337155241969 200" stroke="black" fill="none" marker-end="url(#arrowhead)"/>
<path d="M 786.9337155241969 200 Q 780.9337155241969 180, 774.9337155241969 200" stroke="black" fill="none" marker-end="url(#arrowhead)"/>
<path d="M 798.9337155241969 200 Q 750.9337155241969 180, 702.9337155241969 200" stroke="black" fill="none" marker-end="url(#arrowhead)"/>
<path d="M 810.9337155241969 200 Q 804.9337155241969 180, 798.9337155241969 200" stroke="black" fill="none" marker-end="url(#arrowhead)"/>
<path d="M 810.9337155241969 200 Q 756.9337155241969 180, 702.9337155241969 200" stroke="black" fill="none" marker-end="url(#arrowhead)"/>
<path d="M 822.9337155241969 200 Q 816.9337155241969 180, 810.9337155241969 200" stroke="black" fill="none" marker-end="url(#arrowhead)"/>
<path d="M 834.9337155241969 200 Q 822.9337155241969 180, 810.9337155241969 200" stroke="black" fill="none" marker-end="url(#arrowhead)"/>
<path d="M 846.9337155241969 200 Q 822.9337155241969 180, 798.9337155241969 200" stroke="black" fill="none" marker-end="url(#arrowhead)"/>
<path d="M 846.9337155241969 200 Q 840.9337155241969 180, 834.9337155241969 200" stroke="black" fill="none" marker-end="url(#arrowhead)"/>
<path d="M 858.9337155241969 200 Q 852.9337155241969 180, 846.9337155241969 200" stroke="black" fill="none" marker-end="url(#arrowhead)"/>
<path d="M 870.9337155241969 200 Q 864.9337155241969 180, 858.9337155241969 200" stroke="black" fill="none" marker-end="url(#arrowhead)"/>
<path d="M 882.9337155241969 200 Q 870.9337155241969 180, 858.9337155241969 200" stroke="black" fill="none" marker-end="url(#arrowhead)"/>
<path d="M 882.9337155241969 200 Q 876.9337155241969 180, 870.9337155241969 200" stroke="black" fill="none" marker-end="url(#arrowhead)"/>
<path d="M 894.9337155241969 200 Q 876.9337155241969 180, 858.9337155241969 200" stroke="black" fill="none" marker-end="url(#arrowhead)"/>
<path d="M 894.9337155241969 200 Q 882.9337155241969 180, 870.9337155241969 200" stroke="black" fill="none" marker-end="url(#arrowhead)"/>
<path d="M 894.9337155241969 200 Q 888.9337155241969 180, 882.9337155241969 200" stroke="black" fill="none" marker-end="url(#arrowhead)"/>
<path d="M 906.9337155241969 200 Q 900.9337155241969 180, 894.9337155241969 200" stroke="black" fill="none" marker-end="url(#arrowhead)"/>
<path d="M 918.9337155241969 200 Q 906.9337155241969 180, 894.9337155241969 200" stroke="black" fill="none" marker-end="url(#arrowhead)"/>
<path d="M 930.9337155241969 200 Q 912.9337155241969 180, 894.9337155241969 200" stroke="black" fill="none" marker-end="url(#arrowhead)"/>
<path d="M 942.9337155241969 200 Q 936.9337155241969 180, 930.9337155241969 200" stroke="black" fill="none" marker-end="url(#arrowhead)"/>
<path d="M 942.9337155241969 200 Q 918.9337155241969 180, 894.9337155241969 200" stroke="black" fill="none" marker-end="url(#arrowhead)"/>
<path d="M 954.9337155241969 200 Q 936.9337155241969 180, 918.9337155241969 200" stroke="black" fill="none" marker-end="url(#arrowhead)"/>
<path d="M 966.9337155241969 200 Q 912.9337155241969 180, 858.9337155241969 200" stroke="black" fill="none" marker-end="url(#arrowhead)"/>
<path d="M 966.9337155241969 200 Q 960.9337155241969 180, 954.9337155241969 200" stroke="black" fill="none" marker-end="url(#arrowhead)"/>
<path d="M 966.9337155241969 200 Q 942.9337155241969 180, 918.9337155241969 200" stroke="black" fill="none" marker-end="url(#arrowhead)"/>
<path d="M 978.9337155241969 200 Q 960.9337155241969 180, 942.9337155241969 200" stroke="black" fill="none" marker-end="url(#arrowhead)"/>
<path d="M 990.9337155241969 200 Q 966.9337155241969 180, 942.9337155241969 200" stroke="black" fill="none" marker-end="url(#arrowhead)"/>
<path d="M 990.9337155241969 200 Q 984.9337155241969 180, 978.9337155241969 200" stroke="black" fill="none" marker-end="url(#arrowhead)"/>
<path d="M 1002.9337155241969 200 Q 996.9337155241969 180, 990.9337155241969 200" stroke="black" fill="none" marker-end="url(#arrowhead)"/>
<path d="M 1026.933715524197 200 Q 1020.9337155241969 180, 1014.9337155241969 200" stroke="black" fill="none" marker-end="url(#arrowhead)"/>
<path d="M 1038.933715524197 200 Q 1026.933715524197 180, 1014.9337155241969 200" stroke="black" fill="none" marker-end="url(#arrowhead)"/>
<path d="M 1038.933715524197 200 Q 1032.933715524197 180, 1026.933715524197 200" stroke="black" fill="none" marker-end="url(#arrowhead)"/>
<path d="M 1050.933715524197 200 Q 1044.933715524197 180, 1038.933715524197 200" stroke="black" fill="none" marker-end="url(#arrowhead)"/>
<path d="M 1062.933715524197 200 Q 1050.933715524197 180, 1038.933715524197 200" stroke="black" fill="none" marker-end="url(#arrowhead)"/>
<path d="M 1062.933715524197 200 Q 1056.933715524197 180, 1050.933715524197 200" stroke="black" fill="none" marker-end="url(#arrowhead)"/>
<path d="M 1074.933715524197 200 Q 1068.933715524197 180, 1062.933715524197 200" stroke="black" fill="none" marker-end="url(#arrowhead)"/>
<path d="M 1098.933715524197 200 Q 1092.933715524197 180, 1086.933715524197 200" stroke="black" fill="none" marker-end="url(#arrowhead)"/>
<path d="M 1122.933715524197 200 Q 1116.933715524197 180, 1110.933715524197 200" stroke="black" fill="none" marker-end="url(#arrowhead)"/>
<path d="M 1134.933715524197 200 Q 1128.933715524197 180, 1122.933715524197 200" stroke="black" fill="none" marker-end="url(#arrowhead)"/>
<path d="M 1146.933715524197 200 Q 1068.933715524197 180, 990.9337155241969 200" stroke="black" fill="none" marker-end="url(#arrowhead)"/>
<path d="M 1146.933715524197 200 Q 1140.933715524197 180, 1134.933715524197 200" stroke="black" fill="none" marker-end="url(#arrowhead)"/>
<path d="M 1146.933715524197 200 Q 718.4668577620985 180, 290.0 200" stroke="black" fill="none" marker-end="url(#arrowhead)"/>
<path d="M 1146.933715524197 200 Q 1056.933715524197 180, 966.9337155241969 200" stroke="black" fill="none" marker-end="url(#arrowhead)"/>
<path d="M 1158.933715524197 200 Q 1074.933715524197 180, 990.9337155241969 200" stroke="black" fill="none" marker-end="url(#arrowhead)"/>
<path d="M 1158.933715524197 200 Q 724.4668577620985 180, 290.0 200" stroke="black" fill="none" marker-end="url(#arrowhead)"/>
<path d="M 1158.933715524197 200 Q 1152.933715524197 180, 1146.933715524197 200" stroke="black" fill="none" marker-end="url(#arrowhead)"/>
<path d="M 1158.933715524197 200 Q 1146.933715524197 180, 1134.933715524197 200" stroke="black" fill="none" marker-end="url(#arrowhead)"/>
<path d="M 1158.933715524197 200 Q 1062.933715524197 180, 966.9337155241969 200" stroke="black" fill="none" marker-end="url(#arrowhead)"/>
<path d="M 1182.933715524197 200 Q 1146.933715524197 180, 1110.933715524197 200" stroke="black" fill="none" marker-end="url(#arrowhead)"/>
<path d="M 1194.933715524197 200 Q 1188.933715524197 180, 1182.933715524197 200" stroke="black" fill="none" marker-end="url(#arrowhead)"/>
<path d="M 1206.933715524197 200 Q 1116.933715524197 180, 1026.933715524197 200" stroke="black" fill="none" marker-end="url(#arrowhead)"/>
<path d="M 1206.933715524197 200 Q 1188.933715524197 180, 1170.933715524197 200" stroke="black" fill="none" marker-end="url(#arrowhead)"/>
<path d="M 1218.933715524197 200 Q 1206.933715524197 180, 1194.933715524197 200" stroke="black" fill="none" marker-end="url(#arrowhead)"/>
<path d="M 1218.933715524197 200 Q 1212.933715524197 180, 1206.933715524197 200" stroke="black" fill="none" marker-end="url(#arrowhead)"/>
<path d="M 1230.933715524197 200 Q 1188.933715524197 180, 1146.933715524197 200" stroke="black" fill="none" marker-end="url(#arrowhead)"/>
<path d="M 1230.933715524197 200 Q 1194.933715524197 180, 1158.933715524197 200" stroke="black" fill="none" marker-end="url(#arrowhead)"/>
<path d="M 1242.933715524197 200 Q 718.4668577620985 180, 194.0 200" stroke="black" fill="none" marker-end="url(#arrowhead)"/>
<path d="M 1242.933715524197 200 Q 748.4668577620985 180, 254.0 200" stroke="black" fill="none" marker-end="url(#arrowhead)"/>
<path d="M 1242.933715524197 200 Q 1176.933715524197 180, 1110.933715524197 200" stroke="black" fill="none" marker-end="url(#arrowhead)"/>
<path d="M 1242.933715524197 200 Q 1212.933715524197 180, 1182.933715524197 200" stroke="black" fill="none" marker-end="url(#arrowhead)"/>
<path d="M 1254.933715524197 200 Q 1248.933715524197 180, 1242.933715524197 200" stroke="black" fill="none" marker-end="url(#arrowhead)"/>
<path d="M 1254.933715524197 200 Q 1188.933715524197 180, 1122.933715524197 200" stroke="black" fill="none" marker-end="url(#arrowhead)"/>
<path d="M 1278.933715524197 200 Q 1272.933715524197 180, 1266.933715524197 200" stroke="black" fill="none" marker-end="url(#arrowhead)"/>
<path d="M 1290.933715524197 200 Q 1278.933715524197 180, 1266.933715524197 200" stroke="black" fill="none" marker-end="url(#arrowhead)"/>
<path d="M 1290.933715524197 200 Q 1284.933715524197 180, 1278.933715524197 200" stroke="black" fill="none" marker-end="url(#arrowhead)"/>
<path d="M 1302.933715524197 200 Q 1290.933715524197 180, 1278.933715524197 200" stroke="black" fill="none" marker-end="url(#arrowhead)"/>
<path d="M 1314.933715524197 200 Q 1308.933715524197 180, 1302.933715524197 200" stroke="black" fill="none" marker-end="url(#arrowhead)"/>
<path d="M 1326.933715524197 200 Q 1320.933715524197 180, 1314.933715524197 200" stroke="black" fill="none" marker-end="url(#arrowhead)"/>
<path d="M 1338.933715524197 200 Q 1326.933715524197 180, 1314.933715524197 200" stroke="black" fill="none" marker-end="url(#arrowhead)"/>
<path d="M 1350.933715524197 200 Q 1338.933715524197 180, 1326.933715524197 200" stroke="black" fill="none" marker-end="url(#arrowhead)"/>
<path d="M 1350.933715524197 200 Q 1344.933715524197 180, 1338.933715524197 200" stroke="black" fill="none" marker-end="url(#arrowhead)"/>
<path d="M 1362.933715524197 200 Q 1356.933715524197 180, 1350.933715524197 200" stroke="black" fill="none" marker-end="url(#arrowhead)"/>
<path d="M 1374.933715524197 200 Q 1368.933715524197 180, 1362.933715524197 200" stroke="black" fill="none" marker-end="url(#arrowhead)"/>
<path d="M 1386.933715524197 200 Q 1380.933715524197 180, 1374.933715524197 200" stroke="black" fill="none" marker-end="url(#arrowhead)"/>
<path d="M 1398.933715524197 200 Q 1392.933715524197 180, 1386.933715524197 200" stroke="black" fill="none" marker-end="url(#arrowhead)"/>
<path d="M 1410.933715524197 200 Q 1404.933715524197 180, 1398.933715524197 200" stroke="black" fill="none" marker-end="url(#arrowhead)"/>
<path d="M 1422.933715524197 200 Q 1416.933715524197 180, 1410.933715524197 200" stroke="black" fill="none" marker-end="url(#arrowhead)"/>
<path d="M 1434.933715524197 200 Q 1410.933715524197 180, 1386.933715524197 200" stroke="black" fill="none" marker-end="url(#arrowhead)"/>
<path d="M 1446.933715524197 200 Q 1398.933715524197 180, 1350.933715524197 200" stroke="black" fill="none" marker-end="url(#arrowhead)"/>
<path d="M 1446.933715524197 200 Q 1404.933715524197 180, 1362.933715524197 200" stroke="black" fill="none" marker-end="url(#arrowhead)"/>
<path d="M 1458.933715524197 200 Q 1428.933715524197 180, 1398.933715524197 200" stroke="black" fill="none" marker-end="url(#arrowhead)"/>
<path d="M 1458.933715524197 200 Q 1446.933715524197 180, 1434.933715524197 200" stroke="black" fill="none" marker-end="url(#arrowhead)"/>
<path d="M 1470.933715524197 200 Q 1458.933715524197 180, 1446.933715524197 200" stroke="black" fill="none" marker-end="url(#arrowhead)"/>
<path d="M 1482.933715524197 200 Q 1476.933715524197 180, 1470.933715524197 200" stroke="black" fill="none" marker-end="url(#arrowhead)"/>
<path d="M 1494.933715524197 200 Q 1488.933715524197 180, 1482.933715524197 200" stroke="black" fill="none" marker-end="url(#arrowhead)"/>
<path d="M 1506.933715524197 200 Q 1398.933715524197 180, 1290.933715524197 200" stroke="black" fill="none" marker-end="url(#arrowhead)"/>
<path d="M 1518.933715524197 200 Q 1512.933715524197 180, 1506.933715524197 200" stroke="black" fill="none" marker-end="url(#arrowhead)"/>
<path d="M 1530.933715524197 200 Q 1518.933715524197 180, 1506.933715524197 200" stroke="black" fill="none" marker-end="url(#arrowhead)"/>
<path d="M 1542.933715524197 200 Q 1536.933715524197 180, 1530.933715524197 200" stroke="black" fill="none" marker-end="url(#arrowhead)"/>
<path d="M 1542.933715524197 200 Q 1524.933715524197 180, 1506.933715524197 200" stroke="black" fill="none" marker-end="url(#arrowhead)"/>
<path d="M 1542.933715524197 200 Q 1530.933715524197 180, 1518.933715524197 200" stroke="black" fill="none" marker-end="url(#arrowhead)"/>
<path d="M 1554.933715524197 200 Q 1536.933715524197 180, 1518.933715524197 200" stroke="black" fill="none" marker-end="url(#arrowhead)"/>
<path d="M 1566.933715524197 200 Q 1560.933715524197 180, 1554.933715524197 200" stroke="black" fill="none" marker-end="url(#arrowhead)"/>
<path d="M 1566.933715524197 200 Q 1542.933715524197 180, 1518.933715524197 200" stroke="black" fill="none" marker-end="url(#arrowhead)"/>

<defs>
  <marker id="arrowhead" markerWidth="5" markerHeight="5" 
          refX="2" refY="2" orient="auto" fill="black">
    <path d="M0,0 L0,4 L4,2 z" />
  </marker>
</defs>

<circle cx="50.0" cy="200" r="6" fill="none" stroke="black" stroke-width="2" />
<circle cx="50.0" cy="200" r="3" fill="black" />
<circle cx="62.0" cy="200" r="4" fill="red" />
<circle cx="74.0" cy="200" r="4" fill="black" />
<circle cx="86.0" cy="200" r="6" fill="none" stroke="blue" stroke-width="2" />
<circle cx="86.0" cy="200" r="3" fill="blue" />
<circle cx="98.0" cy="200" r="4" fill="blue" />
<circle cx="110.0" cy="200" r="4" fill="blue" />
<circle cx="122.0" cy="200" r="4" fill="blue" />
<circle cx="134.0" cy="200" r="4" fill="black" />
<circle cx="146.0" cy="200" r="4" fill="red" />
<circle cx="158.0" cy="200" r="4" fill="blue" />
<circle cx="170.0" cy="200" r="4" fill="red" />
<circle cx="182.0" cy="200" r="4" fill="red" />
<circle cx="194.0" cy="200" r="4" fill="red" />
<circle cx="206.0" cy="200" r="4" fill="red" />
<circle cx="218.0" cy="200" r="4" fill="black" />
<circle cx="230.0" cy="200" r="4" fill="blue" />
<circle cx="242.0" cy="200" r="4" fill="black" />
<circle cx="254.0" cy="200" r="4" fill="blue" />
<circle cx="266.0" cy="200" r="4" fill="red" />
<circle cx="278.0" cy="200" r="4" fill="red" />
<circle cx="290.0" cy="200" r="4" fill="red" />
<circle cx="302.0" cy="200" r="4" fill="black" />
<circle cx="314.0" cy="200" r="4" fill="black" />
<circle cx="326.0" cy="200" r="4" fill="blue" />
<circle cx="338.0" cy="200" r="4" fill="blue" />
<circle cx="350.0" cy="200" r="4" fill="blue" />
<circle cx="362.0" cy="200" r="4" fill="blue" />
<circle cx="374.0" cy="200" r="4" fill="blue" />
<circle cx="386.0" cy="200" r="4" fill="black" />
<circle cx="398.0" cy="200" r="4" fill="black" />
<circle cx="410.0" cy="200" r="4" fill="black" />
<circle cx="422.0" cy="200" r="4" fill="red" />
<circle cx="434.0" cy="200" r="4" fill="blue" />
<circle cx="486.93371552419694" cy="200" r="4" fill="blue" />
<circle cx="498.93371552419694" cy="200" r="4" fill="black" />
<circle cx="510.93371552419694" cy="200" r="4" fill="blue" />
<circle cx="522.9337155241969" cy="200" r="4" fill="red" />
<circle cx="534.9337155241969" cy="200" r="4" fill="black" />
<circle cx="546.9337155241969" cy="200" r="4" fill="red" />
<circle cx="558.9337155241969" cy="200" r="4" fill="black" />
<circle cx="570.9337155241969" cy="200" r="4" fill="black" />
<circle cx="582.9337155241969" cy="200" r="4" fill="black" />
<circle cx="594.9337155241969" cy="200" r="4" fill="blue" />
<circle cx="606.9337155241969" cy="200" r="4" fill="black" />
<circle cx="618.9337155241969" cy="200" r="4" fill="blue" />
<circle cx="630.9337155241969" cy="200" r="4" fill="black" />
<circle cx="642.9337155241969" cy="200" r="4" fill="black" />
<circle cx="654.9337155241969" cy="200" r="4" fill="black" />
<circle cx="666.9337155241969" cy="200" r="4" fill="black" />
<circle cx="678.9337155241969" cy="200" r="4" fill="black" />
<circle cx="690.9337155241969" cy="200" r="4" fill="black" />
<circle cx="702.9337155241969" cy="200" r="4" fill="black" />
<circle cx="714.9337155241969" cy="200" r="4" fill="blue" />
<circle cx="726.9337155241969" cy="200" r="4" fill="red" />
<circle cx="738.9337155241969" cy="200" r="4" fill="red" />
<circle cx="750.9337155241969" cy="200" r="4" fill="black" />
<circle cx="762.9337155241969" cy="200" r="4" fill="black" />
<circle cx="774.9337155241969" cy="200" r="4" fill="black" />
<circle cx="786.9337155241969" cy="200" r="4" fill="black" />
<circle cx="798.9337155241969" cy="200" r="4" fill="black" />
<circle cx="810.9337155241969" cy="200" r="4" fill="black" />
<circle cx="822.9337155241969" cy="200" r="4" fill="black" />
<circle cx="834.9337155241969" cy="200" r="4" fill="black" />
<circle cx="846.9337155241969" cy="200" r="4" fill="blue" />
<circle cx="858.9337155241969" cy="200" r="4" fill="red" />
<circle cx="870.9337155241969" cy="200" r="4" fill="blue" />
<circle cx="882.9337155241969" cy="200" r="4" fill="black" />
<circle cx="894.9337155241969" cy="200" r="4" fill="black" />
<circle cx="906.9337155241969" cy="200" r="4" fill="black" />
<circle cx="918.9337155241969" cy="200" r="4" fill="black" />
<circle cx="930.9337155241969" cy="200" r="4" fill="black" />
<circle cx="942.9337155241969" cy="200" r="4" fill="black" />
<circle cx="954.9337155241969" cy="200" r="4" fill="green" />
<circle cx="966.9337155241969" cy="200" r="4" fill="blue" />
<circle cx="978.9337155241969" cy="200" r="4" fill="black" />
<circle cx="990.9337155241969" cy="200" r="4" fill="black" />
<circle cx="1002.9337155241969" cy="200" r="4" fill="green" />
<circle cx="1014.9337155241969" cy="200" r="4" fill="black" />
<circle cx="1026.933715524197" cy="200" r="4" fill="red" />
<circle cx="1038.933715524197" cy="200" r="4" fill="blue" />
<circle cx="1050.933715524197" cy="200" r="4" fill="black" />
<circle cx="1062.933715524197" cy="200" r="4" fill="black" />
<circle cx="1074.933715524197" cy="200" r="4" fill="black" />
<circle cx="1086.933715524197" cy="200" r="4" fill="blue" />
<circle cx="1098.933715524197" cy="200" r="4" fill="red" />
<circle cx="1110.933715524197" cy="200" r="4" fill="blue" />
<circle cx="1122.933715524197" cy="200" r="4" fill="red" />
<circle cx="1134.933715524197" cy="200" r="4" fill="black" />
<circle cx="1146.933715524197" cy="200" r="4" fill="black" />
<circle cx="1158.933715524197" cy="200" r="4" fill="black" />
<circle cx="1170.933715524197" cy="200" r="4" fill="black" />
<circle cx="1182.933715524197" cy="200" r="4" fill="red" />
<circle cx="1194.933715524197" cy="200" r="4" fill="black" />
<circle cx="1206.933715524197" cy="200" r="4" fill="black" />
<circle cx="1218.933715524197" cy="200" r="4" fill="black" />
<circle cx="1230.933715524197" cy="200" r="4" fill="blue" />
<circle cx="1242.933715524197" cy="200" r="4" fill="blue" />
<circle cx="1254.933715524197" cy="200" r="4" fill="blue" />
<circle cx="1266.933715524197" cy="200" r="4" fill="red" />
<circle cx="1278.933715524197" cy="200" r="4" fill="red" />
<circle cx="1290.933715524197" cy="200" r="4" fill="red" />
<circle cx="1302.933715524197" cy="200" r="4" fill="red" />
<circle cx="1314.933715524197" cy="200" r="4" fill="black" />
<circle cx="1326.933715524197" cy="200" r="4" fill="black" />
<circle cx="1338.933715524197" cy="200" r="4" fill="black" />
<circle cx="1350.933715524197" cy="200" r="4" fill="black" />
<circle cx="1362.933715524197" cy="200" r="4" fill="black" />
<circle cx="1374.933715524197" cy="200" r="4" fill="black" />
<circle cx="1386.933715524197" cy="200" r="4" fill="blue" />
<circle cx="1398.933715524197" cy="200" r="4" fill="black" />
<circle cx="1410.933715524197" cy="200" r="4" fill="black" />
<circle cx="1422.933715524197" cy="200" r="4" fill="red" />
<circle cx="1434.933715524197" cy="200" r="4" fill="black" />
<circle cx="1446.933715524197" cy="200" r="4" fill="blue" />
<circle cx="1458.933715524197" cy="200" r="4" fill="black" />
<circle cx="1470.933715524197" cy="200" r="4" fill="black" />
<circle cx="1482.933715524197" cy="200" r="4" fill="black" />
<circle cx="1494.933715524197" cy="200" r="4" fill="black" />
<circle cx="1506.933715524197" cy="200" r="4" fill="blue" />
<circle cx="1518.933715524197" cy="200" r="4" fill="red" />
<circle cx="1530.933715524197" cy="200" r="4" fill="blue" />
<circle cx="1542.933715524197" cy="200" r="4" fill="red" />
<circle cx="1554.933715524197" cy="200" r="4" fill="black" />
<circle cx="1566.933715524197" cy="200" r="4" fill="blue" />
<circle cx="1578.933715524197" cy="200" r="4" fill="blue" />
<text x="50" y="225" fill="gray" style="font-size:12px;">2021-11-02T11:32:59+00:00</text>
<text x="900" y="225" fill="gray" style="font-size:12px;">2025-02-03T12:46:29+00:00</text>
</svg>