<svg xmlns="http://www.w3.org/2000/svg" width="1000" height="200" style="background-color: white; font-family: sans-serif;">
<line x1="50" y1="100" x2="950" y2="100" stroke="gray" stroke-width="1"/>
<path d="M 62.0 100 Q 56.0 80, 50.0 100" stroke="black" fill="none" marker-end="url(#arrowhead)"/>
<path d="M 74.0 100 Q 68.0 80, 62.0 100" stroke="black" fill="none" marker-end="url(#arrowhead)"/>
<path d="M 86.0 100 Q 74.0 80, 62.0 100" stroke="black" fill="none" marker-end="url(#arrowhead)"/>
<path d="M 86.0 100 Q 80.0 80, 74.0 100" stroke="black" fill="none" marker-end="url(#arrowhead)"/>
<path d="M 98.0 100 Q 86.0 80, 74.0 100" stroke="black" fill="none" marker-end="url(#arrowhead)"/>
<path d="M 110.0 100 Q 80.0 80, 50.0 100" stroke="black" fill="none" marker-end="url(#arrowhead)"/>
<path d="M 110.0 100 Q 86.0 80, 62.0 100" stroke="black" fill="none" marker-end="url(#arrowhead)"/>
<path d="M 122.0 100 Q 110.0 80, 98.0 100" stroke="black" fill="none" marker-end="url(#arrowhead)"/>
<path d="M 134.0 100 Q 122.0 80, 110.0 100" stroke="black" fill="none" marker-end="url(#arrowhead)"/>
<path d="M 146.0 100 Q 134.0 80, 122.0 100" stroke="black" fill="none" marker-end="url(#arrowhead)"/>
<path d="M 146.0 100 Q 122.0 80, 98.0 100" stroke="black" fill="none" marker-end="url(#arrowhead)"/>
<path d="M 158.0 100 Q 140.0 80, 122.0 100" stroke="black" fill="none" marker-end="url(#arrowhead)"/>
<path d="M 158.0 100 Q 152.0 80, 146.0 100" stroke="black" fill="none" marker-end="url(#arrowhead)"/>
<path d="M 170.0 100 Q 158.0 80, 146.0 100" stroke="black" fill="none" marker-end="url(#arrowhead)"/>
<path d="M 170.0 100 Q 164.0 80, 158.0 100" stroke="black" fill="none" marker-end="url(#arrowhead)"/>
<path d="M 182.0 100 Q 164.0 80, 146.0 100" stroke="black" fill="none" marker-end="url(#arrowhead)"/>
<path d="M 182.0 100 Q 170.0 80, 158.0 100" stroke="black" fill="none" marker-end="url(#arrowhead)"/>
<path d="M 182.0 100 Q 176.0 80, 170.0 100" stroke="black" fill="none" marker-end="url(#arrowhead)"/>
<path d="M 194.0 100 Q 128.0 80, 62.0 100" stroke="black" fill="none" marker-end="url(#arrowhead)"/>
<path d="M 194.0 100 Q 164.0 80, 134.0 100" stroke="black" fill="none" marker-end="url(#arrowhead)"/>
<path d="M 194.0 100 Q 152.0 80, 110.0 100" stroke="black" fill="none" marker-end="url(#arrowhead)"/>
<path d="M 206.0 100 Q 200.0 80, 194.0 100" stroke="black" fill="none" marker-end="url(#arrowhead)"/>
<path d="M 218.0 100 Q 200.0 80, 182.0 100" stroke="black" fill="none" marker-end="url(#arrowhead)"/>
<path d="M 230.0 100 Q 224.0 80, 218.0 100" stroke="black" fill="none" marker-end="url(#arrowhead)"/>
<path d="M 242.0 100 Q 218.0 80, 194.0 100" stroke="black" fill="none" marker-end="url(#arrowhead)"/>
<path d="M 242.0 100 Q 224.0 80, 206.0 100" stroke="black" fill="none" marker-end="url(#arrowhead)"/>
<path d="M 254.0 100 Q 248.0 80, 242.0 100" stroke="black" fill="none" marker-end="url(#arrowhead)"/>
<path d="M 266.0 100 Q 260.0 80, 254.0 100" stroke="black" fill="none" marker-end="url(#arrowhead)"/>
<path d="M 266.0 100 Q 164.0 80, 62.0 100" stroke="black" fill="none" marker-end="url(#arrowhead)"/>
<path d="M 266.0 100 Q 254.0 80, 242.0 100" stroke="black" fill="none" marker-end="url(#arrowhead)"/>
<path d="M 278.0 100 Q 176.0 80, 74.0 100" stroke="black" fill="none" marker-end="url(#arrowhead)"/>
<path d="M 278.0 100 Q 188.0 80, 98.0 100" stroke="black" fill="none" marker-end="url(#arrowhead)"/>
<path d="M 290.0 100 Q 284.0 80, 278.0 100" stroke="black" fill="none" marker-end="url(#arrowhead)"/>
<path d="M 302.0 100 Q 296.0 80, 290.0 100" stroke="black" fill="none" marker-end="url(#arrowhead)"/>
<path d="M 314.0 100 Q 296.0 80, 278.0 100" stroke="black" fill="none" marker-end="url(#arrowhead)"/>
<path d="M 314.0 100 Q 194.0 80, 74.0 100" stroke="black" fill="none" marker-end="url(#arrowhead)"/>
<path d="M 314.0 100 Q 206.0 80, 98.0 100" stroke="black" fill="none" marker-end="url(#arrowhead)"/>
<path d="M 326.0 100 Q 296.0 80, 266.0 100" stroke="black" fill="none" marker-end="url(#arrowhead)"/>
<path d="M 338.0 100 Q 314.0 80, 290.0 100" stroke="black" fill="none" marker-end="url(#arrowhead)"/>
<path d="M 338.0 100 Q 320.0 80, 302.0 100" stroke="black" fill="none" marker-end="url(#arrowhead)"/>
<path d="M 350.0 100 Q 332.0 80, 314.0 100" stroke="black" fill="none" marker-end="url(#arrowhead)"/>
<path d="M 362.0 100 Q 356.0 80, 350.0 100" stroke="black" fill="none" marker-end="url(#arrowhead)"/>
<path d="M 362.0 100 Q 338.0 80, 314.0 100" stroke="black" fill="none" marker-end="url(#arrowhead)"/>
<path d="M 374.0 100 Q 350.0 80, 326.0 100" stroke="black" fill="none" marker-end="url(#arrowhead)"/>
<path d="M 386.0 100 Q 380.0 80, 374.0 100" stroke="black" fill="none" marker-end="url(#arrowhead)"/>
<path d="M 398.0 100 Q 380.0 80, 362.0 100" stroke="black" fill="none" marker-end="url(#arrowhead)"/>
<path d="M 949.2710988597149 100 Q 607.6355494298575 80, 266.0 100" stroke="black" fill="none" marker-end="url(#arrowhead)"/>
<path d="M 961.2710988597149 100 Q 955.2710988597149 80, 949.2710988597149 100" stroke="black" fill="none" marker-end="url(#arrowhead)"/>

<defs>
  <marker id="arrowhead" markerWidth="5" markerHeight="5" 
          refX="2" refY="2" orient="auto" fill="black">
    <path d="M0,0 L0,4 L4,2 z" />
  </marker>
</defs>

<circle cx="50.0" cy="100" r="6" fill="none" stroke="blue" stroke-width="2" />
<circle cx="50.0" cy="100" r="3" fill="blue" />
<circle cx="62.0" cy="100" r="4" fill="red" />
<circle cx="74.0" cy="100" r="4" fill="red" />
<circle cx="86.0" cy="100" r="4" fill="green" />
<circle cx="98.0" cy="100" r="4" fill="black" />
<circle cx="110.0" cy="100" r="6" fill="none" stroke="red" stroke-width="2" />
<circle cx="110.0" cy="100" r="3" fill="red" />
<circle cx="122.0" cy="100" r="4" fill="black" />
<circle cx="134.0" cy="100" r="4" fill="red" />
<circle cx="146.0" cy="100" r="4" fill="black" />
<circle cx="158.0" cy="100" r="4" fill="red" />
<circle cx="170.0" cy="100" r="4" fill="black" />
<circle cx="182.0" cy="100" r="6" fill="none" stroke="black" stroke-width="2" />
<circle cx="182.0" cy="100" r="3" fill="black" />
<circle cx="194.0" cy="100" r="6" fill="none" stroke="blue" stroke-width="2" />
<circle cx="194.0" cy="100" r="3" fill="blue" />
<circle cx="206.0" cy="100" r="4" fill="red" />
<circle cx="218.0" cy="100" r="4" fill="black" />
<circle cx="230.0" cy="100" r="4" fill="black" />
<circle cx="242.0" cy="100" r="6" fill="none" stroke="black" stroke-width="2" />
<circle cx="242.0" cy="100" r="3" fill="black" />
<circle cx="254.0" cy="100" r="4" fill="black" />
<circle cx="266.0" cy="100" r="6" fill="none" stroke="blue" stroke-width="2" />
<circle cx="266.0" cy="100" r="3" fill="blue" />
<circle cx="278.0" cy="100" r="4" fill="black" />
<circle cx="290.0" cy="100" r="4" fill="black" />
<circle cx="302.0" cy="100" r="4" fill="black" />
<circle cx="314.0" cy="100" r="6" fill="none" stroke="red" stroke-width="2" />
<circle cx="314.0" cy="100" r="3" fill="red" />
<circle cx="326.0" cy="100" r="4" fill="blue" />
<circle cx="338.0" cy="100" r="4" fill="black" />
<circle cx="350.0" cy="100" r="4" fill="black" />
<circle cx="362.0" cy="100" r="6" fill="none" stroke="black" stroke-width="2" />
<circle cx="362.0" cy="100" r="3" fill="black" />
<circle cx="374.0" cy="100" r="6" fill="none" stroke="black" stroke-width="2" />
<circle cx="374.0" cy="100" r="3" fill="black" />
<circle cx="386.0" cy="100" r="4" fill="red" />
<circle cx="398.0" cy="100" r="4" fill="black" />
<circle cx="949.2710988597149" cy="100" r="4" fill="black" />
<circle cx="961.2710988597149" cy="100" r="4" fill="red" />
<text x="50" y="125" fill="gray" style="font-size:12px;">2024-12-11T08:35:43+00:00</text>
<text x="900" y="125" fill="gray" style="font-size:12px;">2025-02-17T03:00:58+00:00</text>
</svg>