<svg xmlns="http://www.w3.org/2000/svg" width="1000" height="400" style="background-color: white; font-family: sans-serif;">
<line x1="50" y1="200" x2="950" y2="200" stroke="gray" stroke-width="1"/>
<path d="M 62.0 200 Q 56.0 180, 50.0 200" stroke="black" fill="none" marker-end="url(#arrowhead)"/>
<path d="M 74.0 200 Q 68.0 180, 62.0 200" stroke="black" fill="none" marker-end="url(#arrowhead)"/>
<path d="M 86.0 200 Q 74.0 180, 62.0 200" stroke="black" fill="none" marker-end="url(#arrowhead)"/>
<path d="M 86.0 200 Q 68.0 180, 50.0 200" stroke="black" fill="none" marker-end="url(#arrowhead)"/>
<path d="M 98.0 200 Q 80.0 180, 62.0 200" stroke="black" fill="none" marker-end="url(#arrowhead)"/>
<path d="M 98.0 200 Q 86.0 180, 74.0 200" stroke="black" fill="none" marker-end="url(#arrowhead)"/>
<path d="M 98.0 200 Q 74.0 180, 50.0 200" stroke="black" fill="none" marker-end="url(#arrowhead)"/>
<path d="M 110.0 200 Q 104.0 180, 98.0 200" stroke="black" fill="none" marker-end="url(#arrowhead)"/>
<path d="M 122.0 200 Q 98.0 180, 74.0 200" stroke="black" fill="none" marker-end="url(#arrowhead)"/>
<path d="M 122.0 200 Q 110.0 180, 98.0 200" stroke="black" fill="none" marker-end="url(#arrowhead)"/>
<path d="M 122.0 200 Q 116.0 180, 110.0 200" stroke="black" fill="none" marker-end="url(#arrowhead)"/>
<path d="M 134.0 200 Q 128.0 180, 122.0 200" stroke="black" fill="none" marker-end="url(#arrowhead)"/>
<path d="M 146.0 200 Q 134.0 180, 122.0 200" stroke="black" fill="none" marker-end="url(#arrowhead)"/>
<path d="M 146.0 200 Q 140.0 180, 134.0 200" stroke="black" fill="none" marker-end="url(#arrowhead)"/>
<path d="M 146.0 200 Q 122.0 180, 98.0 200" stroke="black" fill="none" marker-end="url(#arrowhead)"/>
<path d="M 146.0 200 Q 128.0 180, 110.0 200" stroke="black" fill="none" marker-end="url(#arrowhead)"/>
<path d="M 158.0 200 Q 152.0 180, 146.0 200" stroke="black" fill="none" marker-end="url(#arrowhead)"/>
<path d="M 170.0 200 Q 164.0 180, 158.0 200" stroke="black" fill="none" marker-end="url(#arrowhead)"/>
<path d="M 472.00337277369596 200 Q 315.00168638684795 180, 158.0 200" stroke="black" fill="none" marker-end="url(#arrowhead)"/>
<path d="M 484.00337277369596 200 Q 309.00168638684795 180, 134.0 200" stroke="black" fill="none" marker-end="url(#arrowhead)"/>
<path d="M 484.00337277369596 200 Q 315.00168638684795 180, 146.0 200" stroke="black" fill="none" marker-end="url(#arrowhead)"/>
<path d="M 484.00337277369596 200 Q 321.00168638684795 180, 158.0 200" stroke="black" fill="none" marker-end="url(#arrowhead)"/>
<path d="M 484.00337277369596 200 Q 478.00337277369596 180, 472.00337277369596 200" stroke="black" fill="none" marker-end="url(#arrowhead)"/>
<path d="M 496.00337277369596 200 Q 490.00337277369596 180, 484.00337277369596 200" stroke="black" fill="none" marker-end="url(#arrowhead)"/>
<path d="M 508.00337277369596 200 Q 327.00168638684795 180, 146.0 200" stroke="black" fill="none" marker-end="url(#arrowhead)"/>
<path d="M 508.00337277369596 200 Q 321.00168638684795 180, 134.0 200" stroke="black" fill="none" marker-end="url(#arrowhead)"/>
<path d="M 508.00337277369596 200 Q 502.00337277369596 180, 496.00337277369596 200" stroke="black" fill="none" marker-end="url(#arrowhead)"/>
<path d="M 508.00337277369596 200 Q 333.00168638684795 180, 158.0 200" stroke="black" fill="none" marker-end="url(#arrowhead)"/>
<path d="M 508.00337277369596 200 Q 496.00337277369596 180, 484.00337277369596 200" stroke="black" fill="none" marker-end="url(#arrowhead)"/>
<path d="M 508.00337277369596 200 Q 490.00337277369596 180, 472.00337277369596 200" stroke="black" fill="none" marker-end="url(#arrowhead)"/>
<path d="M 520.0033727736959 200 Q 514.0033727736959 180, 508.00337277369596 200" stroke="black" fill="none" marker-end="url(#arrowhead)"/>
<path d="M 532.0033727736959 200 Q 514.0033727736959 180, 496.00337277369596 200" stroke="black" fill="none" marker-end="url(#arrowhead)"/>
<path d="M 532.0033727736959 200 Q 526.0033727736959 180, 520.0033727736959 200" stroke="black" fill="none" marker-end="url(#arrowhead)"/>
<path d="M 544.0033727736959 200 Q 538.0033727736959 180, 532.0033727736959 200" stroke="black" fill="none" marker-end="url(#arrowhead)"/>
<path d="M 556.0033727736959 200 Q 550.0033727736959 180, 544.0033727736959 200" stroke="black" fill="none" marker-end="url(#arrowhead)"/>
<path d="M 568.0033727736959 200 Q 562.0033727736959 180, 556.0033727736959 200" stroke="black" fill="none" marker-end="url(#arrowhead)"/>
<path d="M 580.0033727736959 200 Q 574.0033727736959 180, 568.0033727736959 200" stroke="black" fill="none" marker-end="url(#arrowhead)"/>
<path d="M 592.0033727736959 200 Q 586.0033727736959 180, 580.0033727736959 200" stroke="black" fill="none" marker-end="url(#arrowhead)"/>
<path d="M 604.0033727736959 200 Q 598.0033727736959 180, 592.0033727736959 200" stroke="black" fill="none" marker-end="url(#arrowhead)"/>
<path d="M 616.0033727736959 200 Q 610.0033727736959 180, 604.0033727736959 200" stroke="black" fill="none" marker-end="url(#arrowhead)"/>
<path d="M 628.0033727736959 200 Q 622.0033727736959 180, 616.0033727736959 200" stroke="black" fill="none" marker-end="url(#arrowhead)"/>
<path d="M 640.0033727736959 200 Q 634.0033727736959 180, 628.0033727736959 200" stroke="black" fill="none" marker-end="url(#arrowhead)"/>
<path d="M 652.0033727736959 200 Q 646.0033727736959 180, 640.0033727736959 200" stroke="black" fill="none" marker-end="url(#arrowhead)"/>
<path d="M 664.0033727736959 200 Q 658.0033727736959 180, 652.0033727736959 200" stroke="black" fill="none" marker-end="url(#arrowhead)"/>
<path d="M 676.0033727736959 200 Q 670.0033727736959 180, 664.0033727736959 200" stroke="black" fill="none" marker-end="url(#arrowhead)"/>
<path d="M 688.0033727736959 200 Q 682.0033727736959 180, 676.0033727736959 200" stroke="black" fill="none" marker-end="url(#arrowhead)"/>
<path d="M 700.0033727736959 200 Q 694.0033727736959 180, 688.0033727736959 200" stroke="black" fill="none" marker-end="url(#arrowhead)"/>
<path d="M 712.0033727736959 200 Q 706.0033727736959 180, 700.0033727736959 200" stroke="black" fill="none" marker-end="url(#arrowhead)"/>
<path d="M 724.0033727736959 200 Q 718.0033727736959 180, 712.0033727736959 200" stroke="black" fill="none" marker-end="url(#arrowhead)"/>
<path d="M 736.0033727736959 200 Q 730.0033727736959 180, 724.0033727736959 200" stroke="black" fill="none" marker-end="url(#arrowhead)"/>
<path d="M 748.0033727736959 200 Q 742.0033727736959 180, 736.0033727736959 200" stroke="black" fill="none" marker-end="url(#arrowhead)"/>
<path d="M 760.0033727736959 200 Q 730.0033727736959 180, 700.0033727736959 200" stroke="black" fill="none" marker-end="url(#arrowhead)"/>
<path d="M 772.0033727736959 200 Q 766.0033727736959 180, 760.0033727736959 200" stroke="black" fill="none" marker-end="url(#arrowhead)"/>
<path d="M 772.0033727736959 200 Q 742.0033727736959 180, 712.0033727736959 200" stroke="black" fill="none" marker-end="url(#arrowhead)"/>
<path d="M 784.0033727736959 200 Q 778.0033727736959 180, 772.0033727736959 200" stroke="black" fill="none" marker-end="url(#arrowhead)"/>
<path d="M 796.0033727736959 200 Q 790.0033727736959 180, 784.0033727736959 200" stroke="black" fill="none" marker-end="url(#arrowhead)"/>
<path d="M 808.0033727736959 200 Q 802.0033727736959 180, 796.0033727736959 200" stroke="black" fill="none" marker-end="url(#arrowhead)"/>
<path d="M 820.0033727736959 200 Q 814.0033727736959 180, 808.0033727736959 200" stroke="black" fill="none" marker-end="url(#arrowhead)"/>
<path d="M 832.0033727736959 200 Q 820.0033727736959 180, 808.0033727736959 200" stroke="black" fill="none" marker-end="url(#arrowhead)"/>
<path d="M 844.0033727736959 200 Q 832.0033727736959 180, 820.0033727736959 200" stroke="black" fill="none" marker-end="url(#arrowhead)"/>
<path d="M 844.0033727736959 200 Q 838.0033727736959 180, 832.0033727736959 200" stroke="black" fill="none" marker-end="url(#arrowhead)"/>
<path d="M 856.0033727736959 200 Q 850.0033727736959 180, 844.0033727736959 200" stroke="black" fill="none" marker-end="url(#arrowhead)"/>
<path d="M 868.0033727736959 200 Q 856.0033727736959 180, 844.0033727736959 200" stroke="black" fill="none" marker-end="url(#arrowhead)"/>
<path d="M 880.0033727736959 200 Q 874.0033727736959 180, 868.0033727736959 200" stroke="black" fill="none" marker-end="url(#arrowhead)"/>
<path d="M 892.0033727736959 200 Q 868.0033727736959 180, 844.0033727736959 200" stroke="black" fill="none" marker-end="url(#arrowhead)"/>
<path d="M 904.0033727736959 200 Q 898.0033727736959 180, 892.0033727736959 200" stroke="black" fill="none" marker-end="url(#arrowhead)"/>
<path d="M 916.0033727736959 200 Q 898.0033727736959 180, 880.0033727736959 200" stroke="black" fill="none" marker-end="url(#arrowhead)"/>
<path d="M 928.0033727736959 200 Q 904.0033727736959 180, 880.0033727736959 200" stroke="black" fill="none" marker-end="url(#arrowhead)"/>
<path d="M 940.0033727736959 200 Q 880.0033727736959 180, 820.0033727736959 200" stroke="black" fill="none" marker-end="url(#arrowhead)"/>
<path d="M 952.0033727736959 200 Q 928.0033727736959 180, 904.0033727736959 200" stroke="black" fill="none" marker-end="url(#arrowhead)"/>
<path d="M 964.0033727736959 200 Q 940.0033727736959 180, 916.0033727736959 200" stroke="black" fill="none" marker-end="url(#arrowhead)"/>
<path d="M 964.0033727736959 200 Q 916.0033727736959 180, 868.0033727736959 200" stroke="black" fill="none" marker-end="url(#arrowhead)"/>
<path d="M 976.0033727736959 200 Q 898.0033727736959 180, 820.0033727736959 200" stroke="black" fill="none" marker-end="url(#arrowhead)"/>
<path d="M 988.0033727736959 200 Q 982.0033727736959 180, 976.0033727736959 200" stroke="black" fill="none" marker-end="url(#arrowhead)"/>
<path d="M 1000.0033727736959 200 Q 994.0033727736959 180, 988.0033727736959 200" stroke="black" fill="none" marker-end="url(#arrowhead)"/>
<path d="M 1012.0033727736959 200 Q 994.0033727736959 180, 976.0033727736959 200" stroke="black" fill="none" marker-end="url(#arrowhead)"/>
<path d="M 1024.003372773696 200 Q 1012.0033727736959 180, 1000.0033727736959 200" stroke="black" fill="none" marker-end="url(#arrowhead)"/>
<path d="M 1036.003372773696 200 Q 1030.003372773696 180, 1024.003372773696 200" stroke="black" fill="none" marker-end="url(#arrowhead)"/>
<path d="M 1048.003372773696 200 Q 1036.003372773696 180, 1024.003372773696 200" stroke="black" fill="none" marker-end="url(#arrowhead)"/>
<path d="M 1060.003372773696 200 Q 1048.003372773696 180, 1036.003372773696 200" stroke="black" fill="none" marker-end="url(#arrowhead)"/>
<path d="M 1084.003372773696 200 Q 1078.003372773696 180, 1072.003372773696 200" stroke="black" fill="none" marker-end="url(#arrowhead)"/>
<path d="M 1096.003372773696 200 Q 1048.003372773696 180, 1000.0033727736959 200" stroke="black" fill="none" marker-end="url(#arrowhead)"/>
<path d="M 1096.003372773696 200 Q 1090.003372773696 180, 1084.003372773696 200" stroke="black" fill="none" marker-end="url(#arrowhead)"/>
<path d="M 1108.003372773696 200 Q 1102.003372773696 180, 1096.003372773696 200" stroke="black" fill="none" marker-end="url(#arrowhead)"/>
<path d="M 1120.003372773696 200 Q 1114.003372773696 180, 1108.003372773696 200" stroke="black" fill="none" marker-end="url(#arrowhead)"/>
<path d="M 1132.003372773696 200 Q 952.0033727736959 180, 772.0033727736959 200" stroke="black" fill="none" marker-end="url(#arrowhead)"/>
<path d="M 1144.003372773696 200 Q 1138.003372773696 180, 1132.003372773696 200" stroke="black" fill="none" marker-end="url(#arrowhead)"/>
<path d="M 1156.003372773696 200 Q 1150.003372773696 180, 1144.003372773696 200" stroke="black" fill="none" marker-end="url(#arrowhead)"/>
<path d="M 1180.003372773696 200 Q 1150.003372773696 180, 1120.003372773696 200" stroke="black" fill="none" marker-end="url(#arrowhead)"/>
<path d="M 1192.003372773696 200 Q 1162.003372773696 180, 1132.003372773696 200" stroke="black" fill="none" marker-end="url(#arrowhead)"/>
<path d="M 1204.003372773696 200 Q 1198.003372773696 180, 1192.003372773696 200" stroke="black" fill="none" marker-end="url(#arrowhead)"/>
<path d="M 1216.003372773696 200 Q 1198.003372773696 180, 1180.003372773696 200" stroke="black" fill="none" marker-end="url(#arrowhead)"/>
<path d="M 1240.003372773696 200 Q 1234.003372773696 180, 1228.003372773696 200" stroke="black" fill="none" marker-end="url(#arrowhead)"/>
<path d="M 1252.003372773696 200 Q 1222.003372773696 180, 1192.003372773696 200" stroke="black" fill="none" marker-end="url(#arrowhead)"/>
<path d="M 1264.003372773696 200 Q 1258.003372773696 180, 1252.003372773696 200" stroke="black" fill="none" marker-end="url(#arrowhead)"/>
<path d="M 1264.003372773696 200 Q 1228.003372773696 180, 1192.003372773696 200" stroke="black" fill="none" marker-end="url(#arrowhead)"/>
<path d="M 1276.003372773696 200 Q 1240.003372773696 180, 1204.003372773696 200" stroke="black" fill="none" marker-end="url(#arrowhead)"/>
<path d="M 1288.003372773696 200 Q 1282.003372773696 180, 1276.003372773696 200" stroke="black" fill="none" marker-end="url(#arrowhead)"/>
<path d="M 1300.003372773696 200 Q 1294.003372773696 180, 1288.003372773696 200" stroke="black" fill="none" marker-end="url(#arrowhead)"/>
<path d="M 1312.003372773696 200 Q 1306.003372773696 180, 1300.003372773696 200" stroke="black" fill="none" marker-end="url(#arrowhead)"/>
<path d="M 1336.003372773696 200 Q 1276.003372773696 180, 1216.003372773696 200" stroke="black" fill="none" marker-end="url(#arrowhead)"/>

<defs>
  <marker id="arrowhead" markerWidth="5" markerHeight="5" 
          refX="2" refY="2" orient="auto" fill="black">
    <path d="M0,0 L0,4 L4,2 z" />
  </marker>
</defs>

<circle cx="50.0" cy="200" r="6" fill="none" stroke="blue" stroke-width="2" />
<circle cx="50.0" cy="200" r="3" fill="blue" />
<circle cx="62.0" cy="200" r="4" fill="black" />
<circle cx="74.0" cy="200" r="4" fill="black" />
<circle cx="86.0" cy="200" r="6" fill="none" stroke="black" stroke-width="2" />
<circle cx="86.0" cy="200" r="3" fill="black" />
<circle cx="98.0" cy="200" r="6" fill="none" stroke="black" stroke-width="2" />
<circle cx="98.0" cy="200" r="3" fill="black" />
<circle cx="110.0" cy="200" r="4" fill="black" />
<circle cx="122.0" cy="200" r="6" fill="none" stroke="green" stroke-width="2" />
<circle cx="122.0" cy="200" r="3" fill="green" />
<circle cx="134.0" cy="200" r="4" fill="black" />
<circle cx="146.0" cy="200" r="6" fill="none" stroke="black" stroke-width="2" />
<circle cx="146.0" cy="200" r="3" fill="black" />
<circle cx="158.0" cy="200" r="4" fill="black" />
<circle cx="170.0" cy="200" r="4" fill="blue" />
<circle cx="472.00337277369596" cy="200" r="4" fill="green" />
<circle cx="484.00337277369596" cy="200" r="6" fill="none" stroke="black" stroke-width="2" />
<circle cx="484.00337277369596" cy="200" r="3" fill="black" />
<circle cx="496.00337277369596" cy="200" r="4" fill="black" />
<circle cx="508.00337277369596" cy="200" r="6" fill="none" stroke="green" stroke-width="2" />
<circle cx="508.00337277369596" cy="200" r="3" fill="green" />
<circle cx="520.0033727736959" cy="200" r="4" fill="black" />
<circle cx="532.0033727736959" cy="200" r="4" fill="blue" />
<circle cx="544.0033727736959" cy="200" r="4" fill="red" />
<circle cx="556.0033727736959" cy="200" r="4" fill="blue" />
<circle cx="568.0033727736959" cy="200" r="4" fill="blue" />
<circle cx="580.0033727736959" cy="200" r="4" fill="blue" />
<circle cx="592.0033727736959" cy="200" r="4" fill="red" />
<circle cx="604.0033727736959" cy="200" r="4" fill="blue" />
<circle cx="616.0033727736959" cy="200" r="4" fill="red" />
<circle cx="628.0033727736959" cy="200" r="4" fill="blue" />
<circle cx="640.0033727736959" cy="200" r="4" fill="red" />
<circle cx="652.0033727736959" cy="200" r="4" fill="red" />
<circle cx="664.0033727736959" cy="200" r="4" fill="red" />
<circle cx="676.0033727736959" cy="200" r="4" fill="blue" />
<circle cx="688.0033727736959" cy="200" r="4" fill="blue" />
<circle cx="700.0033727736959" cy="200" r="4" fill="black" />
<circle cx="712.0033727736959" cy="200" r="4" fill="black" />
<circle cx="724.0033727736959" cy="200" r="4" fill="black" />
<circle cx="736.0033727736959" cy="200" r="4" fill="red" />
<circle cx="748.0033727736959" cy="200" r="4" fill="black" />
<circle cx="760.0033727736959" cy="200" r="4" fill="black" />
<circle cx="772.0033727736959" cy="200" r="4" fill="black" />
<circle cx="784.0033727736959" cy="200" r="4" fill="black" />
<circle cx="796.0033727736959" cy="200" r="4" fill="blue" />
<circle cx="808.0033727736959" cy="200" r="4" fill="blue" />
<circle cx="820.0033727736959" cy="200" r="4" fill="blue" />
<circle cx="832.0033727736959" cy="200" r="4" fill="blue" />
<circle cx="844.0033727736959" cy="200" r="4" fill="black" />
<circle cx="856.0033727736959" cy="200" r="4" fill="green" />
<circle cx="868.0033727736959" cy="200" r="4" fill="black" />
<circle cx="880.0033727736959" cy="200" r="4" fill="red" />
<circle cx="892.0033727736959" cy="200" r="4" fill="red" />
<circle cx="904.0033727736959" cy="200" r="4" fill="black" />
<circle cx="916.0033727736959" cy="200" r="4" fill="black" />
<circle cx="928.0033727736959" cy="200" r="4" fill="blue" />
<circle cx="940.0033727736959" cy="200" r="4" fill="blue" />
<circle cx="952.0033727736959" cy="200" r="4" fill="green" />
<circle cx="964.0033727736959" cy="200" r="4" fill="black" />
<circle cx="976.0033727736959" cy="200" r="4" fill="blue" />
<circle cx="988.0033727736959" cy="200" r="4" fill="red" />
<circle cx="1000.0033727736959" cy="200" r="4" fill="blue" />
<circle cx="1012.0033727736959" cy="200" r="4" fill="blue" />
<circle cx="1024.003372773696" cy="200" r="4" fill="red" />
<circle cx="1036.003372773696" cy="200" r="4" fill="red" />
<circle cx="1048.003372773696" cy="200" r="4" fill="blue" />
<circle cx="1060.003372773696" cy="200" r="4" fill="blue" />
<circle cx="1072.003372773696" cy="200" r="4" fill="blue" />
<circle cx="1084.003372773696" cy="200" r="4" fill="blue" />
<circle cx="1096.003372773696" cy="200" r="4" fill="blue" />
<circle cx="1108.003372773696" cy="200" r="4" fill="blue" />
<circle cx="1120.003372773696" cy="200" r="4" fill="blue" />
<circle cx="1132.003372773696" cy="200" r="4" fill="green" />
<circle cx="1144.003372773696" cy="200" r="4" fill="black" />
<circle cx="1156.003372773696" cy="200" r="4" fill="black" />
<circle cx="1168.003372773696" cy="200" r="4" fill="black" />
<circle cx="1180.003372773696" cy="200" r="4" fill="blue" />
<circle cx="1192.003372773696" cy="200" r="4" fill="black" />
<circle cx="1204.003372773696" cy="200" r="4" fill="black" />
<circle cx="1216.003372773696" cy="200" r="4" fill="blue" />
<circle cx="1228.003372773696" cy="200" r="4" fill="black" />
<circle cx="1240.003372773696" cy="200" r="4" fill="black" />
<circle cx="1252.003372773696" cy="200" r="4" fill="blue" />
<circle cx="1264.003372773696" cy="200" r="4" fill="black" />
<circle cx="1276.003372773696" cy="200" r="4" fill="blue" />
<circle cx="1288.003372773696" cy="200" r="4" fill="black" />
<circle cx="1300.003372773696" cy="200" r="4" fill="black" />
<circle cx="1312.003372773696" cy="200" r="4" fill="blue" />
<circle cx="1324.003372773696" cy="200" r="4" fill="black" />
<circle cx="1336.003372773696" cy="200" r="4" fill="black" />
<text x="50" y="225" fill="gray" style="font-size:12px;">2023-11-17T14:36:25+00:00</text>
<text x="900" y="225" fill="gray" style="font-size:12px;">2025-02-28T11:17:50+00:00</text>
</svg>