<svg xmlns="http://www.w3.org/2000/svg" width="1000" height="400" style="background-color: white; font-family: sans-serif;">
<line x1="50" y1="200" x2="950" y2="200" stroke="gray" stroke-width="1"/>
<path d="M 62.0 200 Q 56.0 180, 50.0 200" stroke="black" fill="none" marker-end="url(#arrowhead)"/>
<path d="M 74.0 200 Q 68.0 180, 62.0 200" stroke="black" fill="none" marker-end="url(#arrowhead)"/>
<path d="M 551.1797404220083 200 Q 300.58987021100415 180, 50.0 200" stroke="black" fill="none" marker-end="url(#arrowhead)"/>
<path d="M 551.1797404220083 200 Q 306.58987021100415 180, 62.0 200" stroke="black" fill="none" marker-end="url(#arrowhead)"/>
<path d="M 563.1797404220083 200 Q 557.1797404220083 180, 551.1797404220083 200" stroke="black" fill="none" marker-end="url(#arrowhead)"/>
<path d="M 575.1797404220083 200 Q 563.1797404220083 180, 551.1797404220083 200" stroke="black" fill="none" marker-end="url(#arrowhead)"/>
<path d="M 575.1797404220083 200 Q 569.1797404220083 180, 563.1797404220083 200" stroke="black" fill="none" marker-end="url(#arrowhead)"/>
<path d="M 575.1797404220083 200 Q 318.58987021100415 180, 62.0 200" stroke="black" fill="none" marker-end="url(#arrowhead)"/>
<path d="M 587.6152752743235 200 Q 569.3975078481659 180, 551.1797404220083 200" stroke="black" fill="none" marker-end="url(#arrowhead)"/>
<path d="M 587.6152752743235 200 Q 575.3975078481659 180, 563.1797404220083 200" stroke="black" fill="none" marker-end="url(#arrowhead)"/>
<path d="M 587.6152752743235 200 Q 581.3975078481659 180, 575.1797404220083 200" stroke="black" fill="none" marker-end="url(#arrowhead)"/>
<path d="M 587.6152752743235 200 Q 324.80763763716175 180, 62.0 200" stroke="black" fill="none" marker-end="url(#arrowhead)"/>
<path d="M 611.6152752743235 200 Q 605.6152752743235 180, 599.6152752743235 200" stroke="black" fill="none" marker-end="url(#arrowhead)"/>
<path d="M 623.6152752743235 200 Q 611.6152752743235 180, 599.6152752743235 200" stroke="black" fill="none" marker-end="url(#arrowhead)"/>
<path d="M 635.6152752743235 200 Q 617.6152752743235 180, 599.6152752743235 200" stroke="black" fill="none" marker-end="url(#arrowhead)"/>
<path d="M 635.6152752743235 200 Q 623.6152752743235 180, 611.6152752743235 200" stroke="black" fill="none" marker-end="url(#arrowhead)"/>
<path d="M 647.6152752743235 200 Q 623.6152752743235 180, 599.6152752743235 200" stroke="black" fill="none" marker-end="url(#arrowhead)"/>
<path d="M 647.6152752743235 200 Q 635.6152752743235 180, 623.6152752743235 200" stroke="black" fill="none" marker-end="url(#arrowhead)"/>
<path d="M 659.6152752743235 200 Q 629.6152752743235 180, 599.6152752743235 200" stroke="black" fill="none" marker-end="url(#arrowhead)"/>
<path d="M 659.6152752743235 200 Q 641.6152752743235 180, 623.6152752743235 200" stroke="black" fill="none" marker-end="url(#arrowhead)"/>
<path d="M 659.6152752743235 200 Q 653.6152752743235 180, 647.6152752743235 200" stroke="black" fill="none" marker-end="url(#arrowhead)"/>
<path d="M 756.622394382679 200 Q 750.622394382679 180, 744.622394382679 200" stroke="black" fill="none" marker-end="url(#arrowhead)"/>
<path d="M 768.622394382679 200 Q 756.622394382679 180, 744.622394382679 200" stroke="black" fill="none" marker-end="url(#arrowhead)"/>
<path d="M 768.622394382679 200 Q 762.622394382679 180, 756.622394382679 200" stroke="black" fill="none" marker-end="url(#arrowhead)"/>
<path d="M 950.0 200 Q 910.073684688253 180, 870.147369376506 200" stroke="black" fill="none" marker-end="url(#arrowhead)"/>

<defs>
  <marker id="arrowhead" markerWidth="5" markerHeight="5" 
          refX="2" refY="2" orient="auto" fill="black">
    <path d="M0,0 L0,4 L4,2 z" />
  </marker>
</defs>

<circle cx="50.0" cy="200" r="6" fill="none" stroke="blue" stroke-width="2" />
<circle cx="50.0" cy="200" r="3" fill="blue" />
<circle cx="62.0" cy="200" r="4" fill="black" />
<circle cx="74.0" cy="200" r="4" fill="black" />
<circle cx="551.1797404220083" cy="200" r="6" fill="none" stroke="blue" stroke-width="2" />
<circle cx="551.1797404220083" cy="200" r="3" fill="blue" />
<circle cx="563.1797404220083" cy="200" r="4" fill="red" />
<circle cx="575.1797404220083" cy="200" r="6" fill="none" stroke="red" stroke-width="2" />
<circle cx="575.1797404220083" cy="200" r="3" fill="red" />
<circle cx="587.6152752743235" cy="200" r="6" fill="none" stroke="blue" stroke-width="2" />
<circle cx="587.6152752743235" cy="200" r="3" fill="blue" />
<circle cx="599.6152752743235" cy="200" r="4" fill="red" />
<circle cx="611.6152752743235" cy="200" r="4" fill="red" />
<circle cx="623.6152752743235" cy="200" r="6" fill="none" stroke="blue" stroke-width="2" />
<circle cx="623.6152752743235" cy="200" r="3" fill="blue" />
<circle cx="635.6152752743235" cy="200" r="6" fill="none" stroke="blue" stroke-width="2" />
<circle cx="635.6152752743235" cy="200" r="3" fill="blue" />
<circle cx="647.6152752743235" cy="200" r="4" fill="green" />
<circle cx="659.6152752743235" cy="200" r="6" fill="none" stroke="blue" stroke-width="2" />
<circle cx="659.6152752743235" cy="200" r="3" fill="blue" />
<circle cx="744.622394382679" cy="200" r="6" fill="none" stroke="blue" stroke-width="2" />
<circle cx="744.622394382679" cy="200" r="3" fill="blue" />
<circle cx="756.622394382679" cy="200" r="6" fill="none" stroke="blue" stroke-width="2" />
<circle cx="756.622394382679" cy="200" r="3" fill="blue" />
<circle cx="768.622394382679" cy="200" r="6" fill="none" stroke="blue" stroke-width="2" />
<circle cx="768.622394382679" cy="200" r="3" fill="blue" />
<circle cx="780.622394382679" cy="200" r="4" fill="red" />
<circle cx="870.147369376506" cy="200" r="4" fill="red" />
<circle cx="950.0" cy="200" r="4" fill="black" />
<text x="50" y="225" fill="gray" style="font-size:12px;">2024-07-03T06:41:01+00:00</text>
<text x="900" y="225" fill="gray" style="font-size:12px;">2024-12-11T04:47:08+00:00</text>
</svg>