<svg xmlns="http://www.w3.org/2000/svg" width="1000" height="200" style="background-color: white; font-family: sans-serif;">
<line x1="50" y1="100" x2="950" y2="100" stroke="gray" stroke-width="1"/>
<path d="M 542.2274963189709 100 Q 296.11374815948545 80, 50.0 100" stroke="black" fill="none" marker-end="url(#arrowhead)"/>
<path d="M 554.2274963189709 100 Q 302.11374815948545 80, 50.0 100" stroke="black" fill="none" marker-end="url(#arrowhead)"/>
<path d="M 554.2274963189709 100 Q 548.2274963189709 80, 542.2274963189709 100" stroke="black" fill="none" marker-end="url(#arrowhead)"/>
<path d="M 566.2274963189709 100 Q 560.2274963189709 80, 554.2274963189709 100" stroke="black" fill="none" marker-end="url(#arrowhead)"/>
<path d="M 566.2274963189709 100 Q 554.2274963189709 80, 542.2274963189709 100" stroke="black" fill="none" marker-end="url(#arrowhead)"/>
<path d="M 578.2274963189709 100 Q 566.2274963189709 80, 554.2274963189709 100" stroke="black" fill="none" marker-end="url(#arrowhead)"/>
<path d="M 578.2274963189709 100 Q 572.2274963189709 80, 566.2274963189709 100" stroke="black" fill="none" marker-end="url(#arrowhead)"/>
<path d="M 578.2274963189709 100 Q 560.2274963189709 80, 542.2274963189709 100" stroke="black" fill="none" marker-end="url(#arrowhead)"/>
<path d="M 719.0647985245009 100 Q 642.6461474217359 80, 566.2274963189709 100" stroke="black" fill="none" marker-end="url(#arrowhead)"/>
<path d="M 719.0647985245009 100 Q 648.6461474217359 80, 578.2274963189709 100" stroke="black" fill="none" marker-end="url(#arrowhead)"/>
<path d="M 950.0 100 Q 758.1137481594855 80, 566.2274963189709 100" stroke="black" fill="none" marker-end="url(#arrowhead)"/>
<path d="M 950.0 100 Q 764.1137481594855 80, 578.2274963189709 100" stroke="black" fill="none" marker-end="url(#arrowhead)"/>
<path d="M 950.0 100 Q 834.5323992622505 80, 719.0647985245009 100" stroke="black" fill="none" marker-end="url(#arrowhead)"/>

<defs>
  <marker id="arrowhead" markerWidth="5" markerHeight="5" 
          refX="2" refY="2" orient="auto" fill="black">
    <path d="M0,0 L0,4 L4,2 z" />
  </marker>
</defs>

<circle cx="50.0" cy="100" r="6" fill="none" stroke="blue" stroke-width="2" />
<circle cx="50.0" cy="100" r="3" fill="blue" />
<circle cx="542.2274963189709" cy="100" r="4" fill="red" />
<circle cx="554.2274963189709" cy="100" r="6" fill="none" stroke="blue" stroke-width="2" />
<circle cx="554.2274963189709" cy="100" r="3" fill="blue" />
<circle cx="566.2274963189709" cy="100" r="4" fill="red" />
<circle cx="578.2274963189709" cy="100" r="6" fill="none" stroke="blue" stroke-width="2" />
<circle cx="578.2274963189709" cy="100" r="3" fill="blue" />
<circle cx="719.0647985245009" cy="100" r="6" fill="none" stroke="blue" stroke-width="2" />
<circle cx="719.0647985245009" cy="100" r="3" fill="blue" />
<circle cx="950.0" cy="100" r="6" fill="none" stroke="blue" stroke-width="2" />
<circle cx="950.0" cy="100" r="3" fill="blue" />
<text x="50" y="125" fill="gray" style="font-size:12px;">2024-05-17T02:46:49+00:00</text>
<text x="900" y="125" fill="gray" style="font-size:12px;">2025-01-24T18:43:02+00:00</text>
</svg>