<svg xmlns="http://www.w3.org/2000/svg" width="1000" height="400" style="background-color: white; font-family: sans-serif;">
<line x1="50" y1="200" x2="950" y2="200" stroke="gray" stroke-width="1"/>
<path d="M 86.0 200 Q 80.0 180, 74.0 200" stroke="black" fill="none" marker-end="url(#arrowhead)"/>
<path d="M 110.0 200 Q 104.0 180, 98.0 200" stroke="black" fill="none" marker-end="url(#arrowhead)"/>
<path d="M 122.0 200 Q 116.0 180, 110.0 200" stroke="black" fill="none" marker-end="url(#arrowhead)"/>
<path d="M 134.0 200 Q 116.0 180, 98.0 200" stroke="black" fill="none" marker-end="url(#arrowhead)"/>
<path d="M 134.0 200 Q 122.0 180, 110.0 200" stroke="black" fill="none" marker-end="url(#arrowhead)"/>
<path d="M 146.0 200 Q 122.0 180, 98.0 200" stroke="black" fill="none" marker-end="url(#arrowhead)"/>
<path d="M 158.0 200 Q 134.0 180, 110.0 200" stroke="black" fill="none" marker-end="url(#arrowhead)"/>
<path d="M 170.0 200 Q 164.0 180, 158.0 200" stroke="black" fill="none" marker-end="url(#arrowhead)"/>
<path d="M 170.0 200 Q 134.0 180, 98.0 200" stroke="black" fill="none" marker-end="url(#arrowhead)"/>
<path d="M 170.0 200 Q 140.0 180, 110.0 200" stroke="black" fill="none" marker-end="url(#arrowhead)"/>
<path d="M 182.0 200 Q 170.0 180, 158.0 200" stroke="black" fill="none" marker-end="url(#arrowhead)"/>
<path d="M 182.0 200 Q 176.0 180, 170.0 200" stroke="black" fill="none" marker-end="url(#arrowhead)"/>
<path d="M 182.0 200 Q 146.0 180, 110.0 200" stroke="black" fill="none" marker-end="url(#arrowhead)"/>
<path d="M 182.0 200 Q 140.0 180, 98.0 200" stroke="black" fill="none" marker-end="url(#arrowhead)"/>
<path d="M 489.5180856351927 200 Q 368.33168510487997 180, 247.1452845745672 200" stroke="black" fill="none" marker-end="url(#arrowhead)"/>
<path d="M 525.5180856351926 200 Q 299.7590428175963 180, 74.0 200" stroke="black" fill="none" marker-end="url(#arrowhead)"/>
<path d="M 525.5180856351926 200 Q 513.5180856351926 180, 501.5180856351927 200" stroke="black" fill="none" marker-end="url(#arrowhead)"/>
<path d="M 525.5180856351926 200 Q 519.5180856351926 180, 513.5180856351926 200" stroke="black" fill="none" marker-end="url(#arrowhead)"/>
<path d="M 549.5180856351926 200 Q 525.5180856351926 180, 501.5180856351927 200" stroke="black" fill="none" marker-end="url(#arrowhead)"/>
<path d="M 561.5180856351926 200 Q 543.5180856351926 180, 525.5180856351926 200" stroke="black" fill="none" marker-end="url(#arrowhead)"/>
<path d="M 573.5180856351926 200 Q 567.5180856351926 180, 561.5180856351926 200" stroke="black" fill="none" marker-end="url(#arrowhead)"/>
<path d="M 573.5180856351926 200 Q 543.5180856351926 180, 513.5180856351926 200" stroke="black" fill="none" marker-end="url(#arrowhead)"/>
<path d="M 573.5180856351926 200 Q 549.5180856351926 180, 525.5180856351926 200" stroke="black" fill="none" marker-end="url(#arrowhead)"/>
<path d="M 585.5180856351926 200 Q 573.5180856351926 180, 561.5180856351926 200" stroke="black" fill="none" marker-end="url(#arrowhead)"/>
<path d="M 585.5180856351926 200 Q 549.5180856351926 180, 513.5180856351926 200" stroke="black" fill="none" marker-end="url(#arrowhead)"/>
<path d="M 585.5180856351926 200 Q 555.5180856351926 180, 525.5180856351926 200" stroke="black" fill="none" marker-end="url(#arrowhead)"/>
<path d="M 597.5180856351926 200 Q 591.5180856351926 180, 585.5180856351926 200" stroke="black" fill="none" marker-end="url(#arrowhead)"/>
<path d="M 609.5180856351926 200 Q 603.5180856351926 180, 597.5180856351926 200" stroke="black" fill="none" marker-end="url(#arrowhead)"/>
<path d="M 621.5180856351926 200 Q 609.5180856351926 180, 597.5180856351926 200" stroke="black" fill="none" marker-end="url(#arrowhead)"/>
<path d="M 621.5180856351926 200 Q 615.5180856351926 180, 609.5180856351926 200" stroke="black" fill="none" marker-end="url(#arrowhead)"/>
<path d="M 645.5180856351926 200 Q 639.5180856351926 180, 633.5180856351926 200" stroke="black" fill="none" marker-end="url(#arrowhead)"/>
<path d="M 645.5180856351926 200 Q 603.5180856351926 180, 561.5180856351926 200" stroke="black" fill="none" marker-end="url(#arrowhead)"/>
<path d="M 657.5180856351926 200 Q 407.7590428175963 180, 158.0 200" stroke="black" fill="none" marker-end="url(#arrowhead)"/>
<path d="M 657.5180856351926 200 Q 377.7590428175963 180, 98.0 200" stroke="black" fill="none" marker-end="url(#arrowhead)"/>
<path d="M 657.5180856351926 200 Q 383.7590428175963 180, 110.0 200" stroke="black" fill="none" marker-end="url(#arrowhead)"/>
<path d="M 669.5180856351926 200 Q 651.5180856351926 180, 633.5180856351926 200" stroke="black" fill="none" marker-end="url(#arrowhead)"/>
<path d="M 669.5180856351926 200 Q 615.5180856351926 180, 561.5180856351926 200" stroke="black" fill="none" marker-end="url(#arrowhead)"/>
<path d="M 681.5180856351926 200 Q 675.5180856351926 180, 669.5180856351926 200" stroke="black" fill="none" marker-end="url(#arrowhead)"/>
<path d="M 693.5180856351926 200 Q 597.5180856351926 180, 501.5180856351927 200" stroke="black" fill="none" marker-end="url(#arrowhead)"/>
<path d="M 693.5180856351926 200 Q 681.5180856351926 180, 669.5180856351926 200" stroke="black" fill="none" marker-end="url(#arrowhead)"/>
<path d="M 693.5180856351926 200 Q 687.5180856351926 180, 681.5180856351926 200" stroke="black" fill="none" marker-end="url(#arrowhead)"/>
<path d="M 717.5180856351926 200 Q 705.5180856351926 180, 693.5180856351926 200" stroke="black" fill="none" marker-end="url(#arrowhead)"/>
<path d="M 717.5180856351926 200 Q 609.5180856351926 180, 501.5180856351927 200" stroke="black" fill="none" marker-end="url(#arrowhead)"/>
<path d="M 717.5180856351926 200 Q 621.5180856351926 180, 525.5180856351926 200" stroke="black" fill="none" marker-end="url(#arrowhead)"/>
<path d="M 717.5180856351926 200 Q 693.5180856351926 180, 669.5180856351926 200" stroke="black" fill="none" marker-end="url(#arrowhead)"/>
<path d="M 729.5180856351926 200 Q 717.5180856351926 180, 705.5180856351926 200" stroke="black" fill="none" marker-end="url(#arrowhead)"/>
<path d="M 741.5180856351926 200 Q 723.5180856351926 180, 705.5180856351926 200" stroke="black" fill="none" marker-end="url(#arrowhead)"/>
<path d="M 741.5180856351926 200 Q 735.5180856351926 180, 729.5180856351926 200" stroke="black" fill="none" marker-end="url(#arrowhead)"/>
<path d="M 765.5180856351926 200 Q 759.5180856351926 180, 753.5180856351926 200" stroke="black" fill="none" marker-end="url(#arrowhead)"/>
<path d="M 765.5180856351926 200 Q 419.7590428175963 180, 74.0 200" stroke="black" fill="none" marker-end="url(#arrowhead)"/>
<path d="M 789.5180856351926 200 Q 675.5180856351926 180, 561.5180856351926 200" stroke="black" fill="none" marker-end="url(#arrowhead)"/>
<path d="M 789.5180856351926 200 Q 783.5180856351926 180, 777.5180856351926 200" stroke="black" fill="none" marker-end="url(#arrowhead)"/>
<path d="M 801.5180856351926 200 Q 795.5180856351926 180, 789.5180856351926 200" stroke="black" fill="none" marker-end="url(#arrowhead)"/>
<path d="M 801.5180856351926 200 Q 765.5180856351926 180, 729.5180856351926 200" stroke="black" fill="none" marker-end="url(#arrowhead)"/>
<path d="M 813.5180856351926 200 Q 771.5180856351926 180, 729.5180856351926 200" stroke="black" fill="none" marker-end="url(#arrowhead)"/>
<path d="M 813.5180856351926 200 Q 801.5180856351926 180, 789.5180856351926 200" stroke="black" fill="none" marker-end="url(#arrowhead)"/>
<path d="M 813.5180856351926 200 Q 807.5180856351926 180, 801.5180856351926 200" stroke="black" fill="none" marker-end="url(#arrowhead)"/>
<path d="M 825.5180856351926 200 Q 813.5180856351926 180, 801.5180856351926 200" stroke="black" fill="none" marker-end="url(#arrowhead)"/>
<path d="M 825.5180856351926 200 Q 777.5180856351926 180, 729.5180856351926 200" stroke="black" fill="none" marker-end="url(#arrowhead)"/>
<path d="M 825.5180856351926 200 Q 819.5180856351926 180, 813.5180856351926 200" stroke="black" fill="none" marker-end="url(#arrowhead)"/>
<path d="M 837.5180856351926 200 Q 831.5180856351926 180, 825.5180856351926 200" stroke="black" fill="none" marker-end="url(#arrowhead)"/>
<path d="M 849.5180856351926 200 Q 825.5180856351926 180, 801.5180856351926 200" stroke="black" fill="none" marker-end="url(#arrowhead)"/>
<path d="M 861.5180856351926 200 Q 855.5180856351926 180, 849.5180856351926 200" stroke="black" fill="none" marker-end="url(#arrowhead)"/>
<path d="M 873.5180856351926 200 Q 861.5180856351926 180, 849.5180856351926 200" stroke="black" fill="none" marker-end="url(#arrowhead)"/>
<path d="M 873.5180856351926 200 Q 867.5180856351926 180, 861.5180856351926 200" stroke="black" fill="none" marker-end="url(#arrowhead)"/>
<path d="M 909.5180856351926 200 Q 903.5180856351926 180, 897.5180856351926 200" stroke="black" fill="none" marker-end="url(#arrowhead)"/>
<path d="M 909.5180856351926 200 Q 825.5180856351926 180, 741.5180856351926 200" stroke="black" fill="none" marker-end="url(#arrowhead)"/>
<path d="M 921.5180856351926 200 Q 909.5180856351926 180, 897.5180856351926 200" stroke="black" fill="none" marker-end="url(#arrowhead)"/>
<path d="M 921.5180856351926 200 Q 831.5180856351926 180, 741.5180856351926 200" stroke="black" fill="none" marker-end="url(#arrowhead)"/>
<path d="M 945.5180856351926 200 Q 939.5180856351926 180, 933.5180856351926 200" stroke="black" fill="none" marker-end="url(#arrowhead)"/>
<path d="M 981.5180856351926 200 Q 969.5180856351926 180, 957.5180856351926 200" stroke="black" fill="none" marker-end="url(#arrowhead)"/>

<defs>
  <marker id="arrowhead" markerWidth="5" markerHeight="5" 
          refX="2" refY="2" orient="auto" fill="black">
    <path d="M0,0 L0,4 L4,2 z" />
  </marker>
</defs>

<circle cx="50.0" cy="200" r="6" fill="none" stroke="blue" stroke-width="2" />
<circle cx="50.0" cy="200" r="3" fill="blue" />
<circle cx="62.0" cy="200" r="6" fill="none" stroke="blue" stroke-width="2" />
<circle cx="62.0" cy="200" r="3" fill="blue" />
<circle cx="74.0" cy="200" r="4" fill="black" />
<circle cx="86.0" cy="200" r="6" fill="none" stroke="blue" stroke-width="2" />
<circle cx="86.0" cy="200" r="3" fill="blue" />
<circle cx="98.0" cy="200" r="4" fill="black" />
<circle cx="110.0" cy="200" r="4" fill="black" />
<circle cx="122.0" cy="200" r="4" fill="black" />
<circle cx="134.0" cy="200" r="6" fill="none" stroke="blue" stroke-width="2" />
<circle cx="134.0" cy="200" r="3" fill="blue" />
<circle cx="146.0" cy="200" r="4" fill="black" />
<circle cx="158.0" cy="200" r="4" fill="red" />
<circle cx="170.0" cy="200" r="6" fill="none" stroke="blue" stroke-width="2" />
<circle cx="170.0" cy="200" r="3" fill="blue" />
<circle cx="182.0" cy="200" r="6" fill="none" stroke="black" stroke-width="2" />
<circle cx="182.0" cy="200" r="3" fill="black" />
<circle cx="247.1452845745672" cy="200" r="6" fill="none" stroke="blue" stroke-width="2" />
<circle cx="247.1452845745672" cy="200" r="3" fill="blue" />
<circle cx="489.5180856351927" cy="200" r="6" fill="none" stroke="blue" stroke-width="2" />
<circle cx="489.5180856351927" cy="200" r="3" fill="blue" />
<circle cx="501.5180856351927" cy="200" r="4" fill="red" />
<circle cx="513.5180856351926" cy="200" r="4" fill="black" />
<circle cx="525.5180856351926" cy="200" r="6" fill="none" stroke="blue" stroke-width="2" />
<circle cx="525.5180856351926" cy="200" r="3" fill="blue" />
<circle cx="537.5180856351926" cy="200" r="6" fill="none" stroke="blue" stroke-width="2" />
<circle cx="537.5180856351926" cy="200" r="3" fill="blue" />
<circle cx="549.5180856351926" cy="200" r="4" fill="black" />
<circle cx="561.5180856351926" cy="200" r="4" fill="red" />
<circle cx="573.5180856351926" cy="200" r="6" fill="none" stroke="red" stroke-width="2" />
<circle cx="573.5180856351926" cy="200" r="3" fill="red" />
<circle cx="585.5180856351926" cy="200" r="6" fill="none" stroke="blue" stroke-width="2" />
<circle cx="585.5180856351926" cy="200" r="3" fill="blue" />
<circle cx="597.5180856351926" cy="200" r="6" fill="none" stroke="black" stroke-width="2" />
<circle cx="597.5180856351926" cy="200" r="3" fill="black" />
<circle cx="609.5180856351926" cy="200" r="4" fill="black" />
<circle cx="621.5180856351926" cy="200" r="6" fill="none" stroke="black" stroke-width="2" />
<circle cx="621.5180856351926" cy="200" r="3" fill="black" />
<circle cx="633.5180856351926" cy="200" r="4" fill="blue" />
<circle cx="645.5180856351926" cy="200" r="6" fill="none" stroke="blue" stroke-width="2" />
<circle cx="645.5180856351926" cy="200" r="3" fill="blue" />
<circle cx="657.5180856351926" cy="200" r="6" fill="none" stroke="black" stroke-width="2" />
<circle cx="657.5180856351926" cy="200" r="3" fill="black" />
<circle cx="669.5180856351926" cy="200" r="6" fill="none" stroke="blue" stroke-width="2" />
<circle cx="669.5180856351926" cy="200" r="3" fill="blue" />
<circle cx="681.5180856351926" cy="200" r="4" fill="red" />
<circle cx="693.5180856351926" cy="200" r="6" fill="none" stroke="blue" stroke-width="2" />
<circle cx="693.5180856351926" cy="200" r="3" fill="blue" />
<circle cx="705.5180856351926" cy="200" r="4" fill="green" />
<circle cx="717.5180856351926" cy="200" r="4" fill="red" />
<circle cx="729.5180856351926" cy="200" r="6" fill="none" stroke="black" stroke-width="2" />
<circle cx="729.5180856351926" cy="200" r="3" fill="black" />
<circle cx="741.5180856351926" cy="200" r="6" fill="none" stroke="black" stroke-width="2" />
<circle cx="741.5180856351926" cy="200" r="3" fill="black" />
<circle cx="753.5180856351926" cy="200" r="4" fill="green" />
<circle cx="765.5180856351926" cy="200" r="6" fill="none" stroke="blue" stroke-width="2" />
<circle cx="765.5180856351926" cy="200" r="3" fill="blue" />
<circle cx="777.5180856351926" cy="200" r="4" fill="red" />
<circle cx="789.5180856351926" cy="200" r="6" fill="none" stroke="blue" stroke-width="2" />
<circle cx="789.5180856351926" cy="200" r="3" fill="blue" />
<circle cx="801.5180856351926" cy="200" r="4" fill="blue" />
<circle cx="813.5180856351926" cy="200" r="6" fill="none" stroke="blue" stroke-width="2" />
<circle cx="813.5180856351926" cy="200" r="3" fill="blue" />
<circle cx="825.5180856351926" cy="200" r="6" fill="none" stroke="black" stroke-width="2" />
<circle cx="825.5180856351926" cy="200" r="3" fill="black" />
<circle cx="837.5180856351926" cy="200" r="4" fill="black" />
<circle cx="849.5180856351926" cy="200" r="6" fill="none" stroke="black" stroke-width="2" />
<circle cx="849.5180856351926" cy="200" r="3" fill="black" />
<circle cx="861.5180856351926" cy="200" r="4" fill="black" />
<circle cx="873.5180856351926" cy="200" r="6" fill="none" stroke="black" stroke-width="2" />
<circle cx="873.5180856351926" cy="200" r="3" fill="black" />
<circle cx="885.5180856351926" cy="200" r="6" fill="none" stroke="blue" stroke-width="2" />
<circle cx="885.5180856351926" cy="200" r="3" fill="blue" />
<circle cx="897.5180856351926" cy="200" r="6" fill="none" stroke="blue" stroke-width="2" />
<circle cx="897.5180856351926" cy="200" r="3" fill="blue" />
<circle cx="909.5180856351926" cy="200" r="6" fill="none" stroke="blue" stroke-width="2" />
<circle cx="909.5180856351926" cy="200" r="3" fill="blue" />
<circle cx="921.5180856351926" cy="200" r="6" fill="none" stroke="blue" stroke-width="2" />
<circle cx="921.5180856351926" cy="200" r="3" fill="blue" />
<circle cx="933.5180856351926" cy="200" r="4" fill="red" />
<circle cx="945.5180856351926" cy="200" r="6" fill="none" stroke="black" stroke-width="2" />
<circle cx="945.5180856351926" cy="200" r="3" fill="black" />
<circle cx="957.5180856351926" cy="200" r="4" fill="black" />
<circle cx="969.5180856351926" cy="200" r="4" fill="black" />
<circle cx="981.5180856351926" cy="200" r="6" fill="none" stroke="black" stroke-width="2" />
<circle cx="981.5180856351926" cy="200" r="3" fill="black" />
<text x="50" y="225" fill="gray" style="font-size:12px;">2024-11-18T18:33:16+00:00</text>
<text x="900" y="225" fill="gray" style="font-size:12px;">2025-02-26T10:51:13+00:00</text>
</svg>