<svg xmlns="http://www.w3.org/2000/svg" width="1000" height="200" style="background-color: white; font-family: sans-serif;">
<line x1="50" y1="100" x2="950" y2="100" stroke="gray" stroke-width="1"/>
<path d="M 75.7277034094678 100 Q 62.8638517047339 80, 50.0 100" stroke="black" fill="none" marker-end="url(#arrowhead)"/>
<path d="M 87.7277034094678 100 Q 68.86385170473389 80, 50.0 100" stroke="black" fill="none" marker-end="url(#arrowhead)"/>
<path d="M 87.7277034094678 100 Q 81.7277034094678 80, 75.7277034094678 100" stroke="black" fill="none" marker-end="url(#arrowhead)"/>
<path d="M 99.7277034094678 100 Q 93.7277034094678 80, 87.7277034094678 100" stroke="black" fill="none" marker-end="url(#arrowhead)"/>
<path d="M 99.7277034094678 100 Q 74.86385170473389 80, 50.0 100" stroke="black" fill="none" marker-end="url(#arrowhead)"/>
<path d="M 111.7277034094678 100 Q 105.7277034094678 80, 99.7277034094678 100" stroke="black" fill="none" marker-end="url(#arrowhead)"/>
<path d="M 123.7277034094678 100 Q 86.86385170473389 80, 50.0 100" stroke="black" fill="none" marker-end="url(#arrowhead)"/>
<path d="M 135.72770340946778 100 Q 129.72770340946778 80, 123.7277034094678 100" stroke="black" fill="none" marker-end="url(#arrowhead)"/>
<path d="M 135.72770340946778 100 Q 92.86385170473389 80, 50.0 100" stroke="black" fill="none" marker-end="url(#arrowhead)"/>
<path d="M 147.72770340946778 100 Q 129.72770340946778 80, 111.7277034094678 100" stroke="black" fill="none" marker-end="url(#arrowhead)"/>
<path d="M 159.72770340946778 100 Q 129.72770340946778 80, 99.7277034094678 100" stroke="black" fill="none" marker-end="url(#arrowhead)"/>
<path d="M 159.72770340946778 100 Q 153.72770340946778 80, 147.72770340946778 100" stroke="black" fill="none" marker-end="url(#arrowhead)"/>
<path d="M 171.72770340946778 100 Q 165.72770340946778 80, 159.72770340946778 100" stroke="black" fill="none" marker-end="url(#arrowhead)"/>
<path d="M 183.72770340946778 100 Q 177.72770340946778 80, 171.72770340946778 100" stroke="black" fill="none" marker-end="url(#arrowhead)"/>
<path d="M 183.72770340946778 100 Q 129.72770340946778 80, 75.7277034094678 100" stroke="black" fill="none" marker-end="url(#arrowhead)"/>
<path d="M 195.72770340946778 100 Q 165.72770340946778 80, 135.72770340946778 100" stroke="black" fill="none" marker-end="url(#arrowhead)"/>
<path d="M 207.72770340946778 100 Q 195.72770340946778 80, 183.72770340946778 100" stroke="black" fill="none" marker-end="url(#arrowhead)"/>
<path d="M 219.72770340946778 100 Q 213.72770340946778 80, 207.72770340946778 100" stroke="black" fill="none" marker-end="url(#arrowhead)"/>
<path d="M 231.72770340946778 100 Q 225.72770340946778 80, 219.72770340946778 100" stroke="black" fill="none" marker-end="url(#arrowhead)"/>
<path d="M 243.72770340946778 100 Q 237.72770340946778 80, 231.72770340946778 100" stroke="black" fill="none" marker-end="url(#arrowhead)"/>
<path d="M 255.72770340946778 100 Q 249.72770340946778 80, 243.72770340946778 100" stroke="black" fill="none" marker-end="url(#arrowhead)"/>
<path d="M 267.7277034094678 100 Q 261.7277034094678 80, 255.72770340946778 100" stroke="black" fill="none" marker-end="url(#arrowhead)"/>
<path d="M 279.7277034094678 100 Q 273.7277034094678 80, 267.7277034094678 100" stroke="black" fill="none" marker-end="url(#arrowhead)"/>
<path d="M 303.7277034094678 100 Q 297.7277034094678 80, 291.7277034094678 100" stroke="black" fill="none" marker-end="url(#arrowhead)"/>
<path d="M 303.7277034094678 100 Q 291.7277034094678 80, 279.7277034094678 100" stroke="black" fill="none" marker-end="url(#arrowhead)"/>
<path d="M 315.7277034094678 100 Q 303.7277034094678 80, 291.7277034094678 100" stroke="black" fill="none" marker-end="url(#arrowhead)"/>
<path d="M 327.7277034094678 100 Q 321.7277034094678 80, 315.7277034094678 100" stroke="black" fill="none" marker-end="url(#arrowhead)"/>
<path d="M 327.7277034094678 100 Q 201.72770340946778 80, 75.7277034094678 100" stroke="black" fill="none" marker-end="url(#arrowhead)"/>
<path d="M 339.7277034094678 100 Q 333.7277034094678 80, 327.7277034094678 100" stroke="black" fill="none" marker-end="url(#arrowhead)"/>
<path d="M 351.7277034094678 100 Q 339.7277034094678 80, 327.7277034094678 100" stroke="black" fill="none" marker-end="url(#arrowhead)"/>
<path d="M 363.7277034094678 100 Q 351.7277034094678 80, 339.7277034094678 100" stroke="black" fill="none" marker-end="url(#arrowhead)"/>
<path d="M 375.7277034094678 100 Q 357.7277034094678 80, 339.7277034094678 100" stroke="black" fill="none" marker-end="url(#arrowhead)"/>
<path d="M 387.7277034094678 100 Q 381.7277034094678 80, 375.7277034094678 100" stroke="black" fill="none" marker-end="url(#arrowhead)"/>
<path d="M 387.7277034094678 100 Q 231.72770340946778 80, 75.7277034094678 100" stroke="black" fill="none" marker-end="url(#arrowhead)"/>
<path d="M 399.7277034094678 100 Q 393.7277034094678 80, 387.7277034094678 100" stroke="black" fill="none" marker-end="url(#arrowhead)"/>
<path d="M 411.7277034094678 100 Q 363.7277034094678 80, 315.7277034094678 100" stroke="black" fill="none" marker-end="url(#arrowhead)"/>
<path d="M 411.7277034094678 100 Q 243.72770340946778 80, 75.7277034094678 100" stroke="black" fill="none" marker-end="url(#arrowhead)"/>
<path d="M 423.7277034094678 100 Q 249.72770340946778 80, 75.7277034094678 100" stroke="black" fill="none" marker-end="url(#arrowhead)"/>
<path d="M 435.7277034094678 100 Q 381.7277034094678 80, 327.7277034094678 100" stroke="black" fill="none" marker-end="url(#arrowhead)"/>
<path d="M 447.7277034094678 100 Q 441.7277034094678 80, 435.7277034094678 100" stroke="black" fill="none" marker-end="url(#arrowhead)"/>
<path d="M 459.7277034094678 100 Q 453.7277034094678 80, 447.7277034094678 100" stroke="black" fill="none" marker-end="url(#arrowhead)"/>
<path d="M 459.7277034094678 100 Q 435.7277034094678 80, 411.7277034094678 100" stroke="black" fill="none" marker-end="url(#arrowhead)"/>
<path d="M 459.7277034094678 100 Q 267.7277034094678 80, 75.7277034094678 100" stroke="black" fill="none" marker-end="url(#arrowhead)"/>
<path d="M 483.7277034094678 100 Q 477.7277034094678 80, 471.7277034094678 100" stroke="black" fill="none" marker-end="url(#arrowhead)"/>
<path d="M 495.7277034094678 100 Q 489.7277034094678 80, 483.7277034094678 100" stroke="black" fill="none" marker-end="url(#arrowhead)"/>
<path d="M 507.7277034094678 100 Q 501.7277034094678 80, 495.7277034094678 100" stroke="black" fill="none" marker-end="url(#arrowhead)"/>
<path d="M 519.7277034094677 100 Q 513.7277034094677 80, 507.7277034094678 100" stroke="black" fill="none" marker-end="url(#arrowhead)"/>
<path d="M 519.7277034094677 100 Q 297.7277034094678 80, 75.7277034094678 100" stroke="black" fill="none" marker-end="url(#arrowhead)"/>
<path d="M 531.7277034094677 100 Q 507.7277034094677 80, 483.7277034094678 100" stroke="black" fill="none" marker-end="url(#arrowhead)"/>
<path d="M 543.7277034094677 100 Q 537.7277034094677 80, 531.7277034094677 100" stroke="black" fill="none" marker-end="url(#arrowhead)"/>
<path d="M 567.7277034094677 100 Q 555.7277034094677 80, 543.7277034094677 100" stroke="black" fill="none" marker-end="url(#arrowhead)"/>
<path d="M 579.7277034094677 100 Q 561.7277034094677 80, 543.7277034094677 100" stroke="black" fill="none" marker-end="url(#arrowhead)"/>
<path d="M 591.7277034094677 100 Q 579.7277034094677 80, 567.7277034094677 100" stroke="black" fill="none" marker-end="url(#arrowhead)"/>
<path d="M 603.7277034094677 100 Q 579.7277034094677 80, 555.7277034094677 100" stroke="black" fill="none" marker-end="url(#arrowhead)"/>
<path d="M 603.7277034094677 100 Q 585.7277034094677 80, 567.7277034094677 100" stroke="black" fill="none" marker-end="url(#arrowhead)"/>
<path d="M 603.7277034094677 100 Q 591.7277034094677 80, 579.7277034094677 100" stroke="black" fill="none" marker-end="url(#arrowhead)"/>
<path d="M 651.7277034094677 100 Q 645.7277034094677 80, 639.7277034094677 100" stroke="black" fill="none" marker-end="url(#arrowhead)"/>
<path d="M 675.7277034094677 100 Q 663.7277034094677 80, 651.7277034094677 100" stroke="black" fill="none" marker-end="url(#arrowhead)"/>
<path d="M 699.7277034094677 100 Q 627.7277034094677 80, 555.7277034094677 100" stroke="black" fill="none" marker-end="url(#arrowhead)"/>
<path d="M 699.7277034094677 100 Q 657.7277034094677 80, 615.7277034094677 100" stroke="black" fill="none" marker-end="url(#arrowhead)"/>
<path d="M 711.7277034094677 100 Q 687.7277034094677 80, 663.7277034094677 100" stroke="black" fill="none" marker-end="url(#arrowhead)"/>
<path d="M 711.7277034094677 100 Q 591.7277034094677 80, 471.7277034094678 100" stroke="black" fill="none" marker-end="url(#arrowhead)"/>
<path d="M 723.7277034094677 100 Q 507.7277034094677 80, 291.7277034094678 100" stroke="black" fill="none" marker-end="url(#arrowhead)"/>
<path d="M 723.7277034094677 100 Q 621.7277034094677 80, 519.7277034094677 100" stroke="black" fill="none" marker-end="url(#arrowhead)"/>
<path d="M 735.7277034094677 100 Q 729.7277034094677 80, 723.7277034094677 100" stroke="black" fill="none" marker-end="url(#arrowhead)"/>
<path d="M 747.7277034094677 100 Q 741.7277034094677 80, 735.7277034094677 100" stroke="black" fill="none" marker-end="url(#arrowhead)"/>
<path d="M 759.7277034094677 100 Q 753.7277034094677 80, 747.7277034094677 100" stroke="black" fill="none" marker-end="url(#arrowhead)"/>
<path d="M 771.7277034094677 100 Q 765.7277034094677 80, 759.7277034094677 100" stroke="black" fill="none" marker-end="url(#arrowhead)"/>
<path d="M 771.7277034094677 100 Q 423.7277034094678 80, 75.7277034094678 100" stroke="black" fill="none" marker-end="url(#arrowhead)"/>
<path d="M 783.7277034094677 100 Q 777.7277034094677 80, 771.7277034094677 100" stroke="black" fill="none" marker-end="url(#arrowhead)"/>
<path d="M 795.7277034094677 100 Q 789.7277034094677 80, 783.7277034094677 100" stroke="black" fill="none" marker-end="url(#arrowhead)"/>
<path d="M 795.7277034094677 100 Q 435.7277034094678 80, 75.7277034094678 100" stroke="black" fill="none" marker-end="url(#arrowhead)"/>
<path d="M 819.7277034094677 100 Q 813.7277034094677 80, 807.7277034094677 100" stroke="black" fill="none" marker-end="url(#arrowhead)"/>
<path d="M 831.7277034094677 100 Q 825.7277034094677 80, 819.7277034094677 100" stroke="black" fill="none" marker-end="url(#arrowhead)"/>
<path d="M 855.7277034094677 100 Q 849.7277034094677 80, 843.7277034094677 100" stroke="black" fill="none" marker-end="url(#arrowhead)"/>
<path d="M 867.7277034094677 100 Q 855.7277034094677 80, 843.7277034094677 100" stroke="black" fill="none" marker-end="url(#arrowhead)"/>
<path d="M 879.7277034094677 100 Q 867.7277034094677 80, 855.7277034094677 100" stroke="black" fill="none" marker-end="url(#arrowhead)"/>
<path d="M 879.7277034094677 100 Q 873.7277034094677 80, 867.7277034094677 100" stroke="black" fill="none" marker-end="url(#arrowhead)"/>
<path d="M 891.7277034094677 100 Q 867.7277034094677 80, 843.7277034094677 100" stroke="black" fill="none" marker-end="url(#arrowhead)"/>
<path d="M 915.7277034094677 100 Q 495.7277034094678 80, 75.7277034094678 100" stroke="black" fill="none" marker-end="url(#arrowhead)"/>
<path d="M 927.7277034094677 100 Q 921.7277034094677 80, 915.7277034094677 100" stroke="black" fill="none" marker-end="url(#arrowhead)"/>
<path d="M 939.7277034094677 100 Q 891.7277034094677 80, 843.7277034094677 100" stroke="black" fill="none" marker-end="url(#arrowhead)"/>
<path d="M 939.7277034094677 100 Q 933.7277034094677 80, 927.7277034094677 100" stroke="black" fill="none" marker-end="url(#arrowhead)"/>
<path d="M 951.7277034094677 100 Q 939.7277034094677 80, 927.7277034094677 100" stroke="black" fill="none" marker-end="url(#arrowhead)"/>
<path d="M 951.7277034094677 100 Q 945.7277034094677 80, 939.7277034094677 100" stroke="black" fill="none" marker-end="url(#arrowhead)"/>
<path d="M 975.7277034094677 100 Q 969.7277034094677 80, 963.7277034094677 100" stroke="black" fill="none" marker-end="url(#arrowhead)"/>
<path d="M 999.7277034094677 100 Q 975.7277034094677 80, 951.7277034094677 100" stroke="black" fill="none" marker-end="url(#arrowhead)"/>
<path d="M 1011.7277034094677 100 Q 1005.7277034094677 80, 999.7277034094677 100" stroke="black" fill="none" marker-end="url(#arrowhead)"/>
<path d="M 1011.7277034094677 100 Q 981.7277034094677 80, 951.7277034094677 100" stroke="black" fill="none" marker-end="url(#arrowhead)"/>
<path d="M 1023.7277034094677 100 Q 1017.7277034094677 80, 1011.7277034094677 100" stroke="black" fill="none" marker-end="url(#arrowhead)"/>
<path d="M 1047.7277034094677 100 Q 1035.7277034094677 80, 1023.7277034094677 100" stroke="black" fill="none" marker-end="url(#arrowhead)"/>
<path d="M 1059.7277034094677 100 Q 1041.7277034094677 80, 1023.7277034094677 100" stroke="black" fill="none" marker-end="url(#arrowhead)"/>
<path d="M 1071.7277034094677 100 Q 1059.7277034094677 80, 1047.7277034094677 100" stroke="black" fill="none" marker-end="url(#arrowhead)"/>
<path d="M 1071.7277034094677 100 Q 1065.7277034094677 80, 1059.7277034094677 100" stroke="black" fill="none" marker-end="url(#arrowhead)"/>
<path d="M 1071.7277034094677 100 Q 573.7277034094677 80, 75.7277034094678 100" stroke="black" fill="none" marker-end="url(#arrowhead)"/>
<path d="M 1083.7277034094677 100 Q 1077.7277034094677 80, 1071.7277034094677 100" stroke="black" fill="none" marker-end="url(#arrowhead)"/>
<path d="M 1095.7277034094677 100 Q 1071.7277034094677 80, 1047.7277034094677 100" stroke="black" fill="none" marker-end="url(#arrowhead)"/>
<path d="M 1095.7277034094677 100 Q 1047.7277034094677 80, 999.7277034094677 100" stroke="black" fill="none" marker-end="url(#arrowhead)"/>
<path d="M 1095.7277034094677 100 Q 585.7277034094677 80, 75.7277034094678 100" stroke="black" fill="none" marker-end="url(#arrowhead)"/>
<path d="M 1131.7277034094677 100 Q 1125.7277034094677 80, 1119.7277034094677 100" stroke="black" fill="none" marker-end="url(#arrowhead)"/>
<path d="M 1143.7277034094677 100 Q 1119.7277034094677 80, 1095.7277034094677 100" stroke="black" fill="none" marker-end="url(#arrowhead)"/>
<path d="M 1155.7277034094677 100 Q 1143.7277034094677 80, 1131.7277034094677 100" stroke="black" fill="none" marker-end="url(#arrowhead)"/>
<path d="M 1167.7277034094677 100 Q 1149.7277034094677 80, 1131.7277034094677 100" stroke="black" fill="none" marker-end="url(#arrowhead)"/>
<path d="M 1167.7277034094677 100 Q 825.7277034094677 80, 483.7277034094678 100" stroke="black" fill="none" marker-end="url(#arrowhead)"/>
<path d="M 1179.7277034094677 100 Q 1155.7277034094677 80, 1131.7277034094677 100" stroke="black" fill="none" marker-end="url(#arrowhead)"/>
<path d="M 1179.7277034094677 100 Q 831.7277034094677 80, 483.7277034094678 100" stroke="black" fill="none" marker-end="url(#arrowhead)"/>
<path d="M 1191.7277034094677 100 Q 1161.7277034094677 80, 1131.7277034094677 100" stroke="black" fill="none" marker-end="url(#arrowhead)"/>
<path d="M 1191.7277034094677 100 Q 837.7277034094677 80, 483.7277034094678 100" stroke="black" fill="none" marker-end="url(#arrowhead)"/>
<path d="M 1203.7277034094677 100 Q 1167.7277034094677 80, 1131.7277034094677 100" stroke="black" fill="none" marker-end="url(#arrowhead)"/>
<path d="M 1215.7277034094677 100 Q 1173.7277034094677 80, 1131.7277034094677 100" stroke="black" fill="none" marker-end="url(#arrowhead)"/>
<path d="M 1215.7277034094677 100 Q 849.7277034094677 80, 483.7277034094678 100" stroke="black" fill="none" marker-end="url(#arrowhead)"/>
<path d="M 1227.7277034094677 100 Q 1179.7277034094677 80, 1131.7277034094677 100" stroke="black" fill="none" marker-end="url(#arrowhead)"/>
<path d="M 1227.7277034094677 100 Q 855.7277034094677 80, 483.7277034094678 100" stroke="black" fill="none" marker-end="url(#arrowhead)"/>
<path d="M 1239.7277034094677 100 Q 1227.7277034094677 80, 1215.7277034094677 100" stroke="black" fill="none" marker-end="url(#arrowhead)"/>
<path d="M 1251.7277034094677 100 Q 1239.7277034094677 80, 1227.7277034094677 100" stroke="black" fill="none" marker-end="url(#arrowhead)"/>
<path d="M 1263.7277034094677 100 Q 1221.7277034094677 80, 1179.7277034094677 100" stroke="black" fill="none" marker-end="url(#arrowhead)"/>
<path d="M 1287.7277034094677 100 Q 1215.7277034094677 80, 1143.7277034094677 100" stroke="black" fill="none" marker-end="url(#arrowhead)"/>
<path d="M 1287.7277034094677 100 Q 681.7277034094677 80, 75.7277034094678 100" stroke="black" fill="none" marker-end="url(#arrowhead)"/>
<path d="M 1299.7277034094677 100 Q 1257.7277034094677 80, 1215.7277034094677 100" stroke="black" fill="none" marker-end="url(#arrowhead)"/>
<path d="M 1311.7277034094677 100 Q 1305.7277034094677 80, 1299.7277034094677 100" stroke="black" fill="none" marker-end="url(#arrowhead)"/>
<path d="M 1311.7277034094677 100 Q 897.7277034094677 80, 483.7277034094678 100" stroke="black" fill="none" marker-end="url(#arrowhead)"/>
<path d="M 1323.7277034094677 100 Q 1311.7277034094677 80, 1299.7277034094677 100" stroke="black" fill="none" marker-end="url(#arrowhead)"/>
<path d="M 1323.7277034094677 100 Q 903.7277034094677 80, 483.7277034094678 100" stroke="black" fill="none" marker-end="url(#arrowhead)"/>
<path d="M 1335.7277034094677 100 Q 1329.7277034094677 80, 1323.7277034094677 100" stroke="black" fill="none" marker-end="url(#arrowhead)"/>
<path d="M 1347.7277034094677 100 Q 1341.7277034094677 80, 1335.7277034094677 100" stroke="black" fill="none" marker-end="url(#arrowhead)"/>
<path d="M 1359.7277034094677 100 Q 1281.7277034094677 80, 1203.7277034094677 100" stroke="black" fill="none" marker-end="url(#arrowhead)"/>
<path d="M 1371.7277034094677 100 Q 1359.7277034094677 80, 1347.7277034094677 100" stroke="black" fill="none" marker-end="url(#arrowhead)"/>
<path d="M 1371.7277034094677 100 Q 723.7277034094677 80, 75.7277034094678 100" stroke="black" fill="none" marker-end="url(#arrowhead)"/>
<path d="M 1383.7277034094677 100 Q 1341.7277034094677 80, 1299.7277034094677 100" stroke="black" fill="none" marker-end="url(#arrowhead)"/>
<path d="M 1395.7277034094677 100 Q 1263.7277034094677 80, 1131.7277034094677 100" stroke="black" fill="none" marker-end="url(#arrowhead)"/>
<path d="M 1395.7277034094677 100 Q 939.7277034094677 80, 483.7277034094678 100" stroke="black" fill="none" marker-end="url(#arrowhead)"/>
<path d="M 1407.7277034094677 100 Q 1305.7277034094677 80, 1203.7277034094677 100" stroke="black" fill="none" marker-end="url(#arrowhead)"/>
<path d="M 1419.7277034094677 100 Q 999.7277034094677 80, 579.7277034094677 100" stroke="black" fill="none" marker-end="url(#arrowhead)"/>
<path d="M 1419.7277034094677 100 Q 747.7277034094677 80, 75.7277034094678 100" stroke="black" fill="none" marker-end="url(#arrowhead)"/>
<path d="M 1419.7277034094677 100 Q 1311.7277034094677 80, 1203.7277034094677 100" stroke="black" fill="none" marker-end="url(#arrowhead)"/>
<path d="M 1419.7277034094677 100 Q 1287.7277034094677 80, 1155.7277034094677 100" stroke="black" fill="none" marker-end="url(#arrowhead)"/>
<path d="M 1431.7277034094677 100 Q 1311.7277034094677 80, 1191.7277034094677 100" stroke="black" fill="none" marker-end="url(#arrowhead)"/>
<path d="M 1443.7277034094677 100 Q 1305.7277034094677 80, 1167.7277034094677 100" stroke="black" fill="none" marker-end="url(#arrowhead)"/>
<path d="M 1443.7277034094677 100 Q 1101.7277034094677 80, 759.7277034094677 100" stroke="black" fill="none" marker-end="url(#arrowhead)"/>
<path d="M 1443.7277034094677 100 Q 783.7277034094677 80, 123.7277034094678 100" stroke="black" fill="none" marker-end="url(#arrowhead)"/>
<path d="M 1455.7277034094677 100 Q 1437.7277034094677 80, 1419.7277034094677 100" stroke="black" fill="none" marker-end="url(#arrowhead)"/>
<path d="M 1455.7277034094677 100 Q 969.7277034094677 80, 483.7277034094678 100" stroke="black" fill="none" marker-end="url(#arrowhead)"/>
<path d="M 1467.7277034094677 100 Q 1443.7277034094677 80, 1419.7277034094677 100" stroke="black" fill="none" marker-end="url(#arrowhead)"/>
<path d="M 1479.7277034094677 100 Q 1395.7277034094677 80, 1311.7277034094677 100" stroke="black" fill="none" marker-end="url(#arrowhead)"/>
<path d="M 1479.7277034094677 100 Q 1431.7277034094677 80, 1383.7277034094677 100" stroke="black" fill="none" marker-end="url(#arrowhead)"/>
<path d="M 1479.7277034094677 100 Q 777.7277034094677 80, 75.7277034094678 100" stroke="black" fill="none" marker-end="url(#arrowhead)"/>
<path d="M 1491.7277034094677 100 Q 1485.7277034094677 80, 1479.7277034094677 100" stroke="black" fill="none" marker-end="url(#arrowhead)"/>
<path d="M 1503.7277034094677 100 Q 1305.7277034094677 80, 1107.7277034094677 100" stroke="black" fill="none" marker-end="url(#arrowhead)"/>
<path d="M 1503.7277034094677 100 Q 1269.7277034094677 80, 1035.7277034094677 100" stroke="black" fill="none" marker-end="url(#arrowhead)"/>
<path d="M 1515.7277034094677 100 Q 1509.7277034094677 80, 1503.7277034094677 100" stroke="black" fill="none" marker-end="url(#arrowhead)"/>
<path d="M 1527.7277034094677 100 Q 1521.7277034094677 80, 1515.7277034094677 100" stroke="black" fill="none" marker-end="url(#arrowhead)"/>
<path d="M 1539.7277034094677 100 Q 1533.7277034094677 80, 1527.7277034094677 100" stroke="black" fill="none" marker-end="url(#arrowhead)"/>
<path d="M 1551.7277034094677 100 Q 1485.7277034094677 80, 1419.7277034094677 100" stroke="black" fill="none" marker-end="url(#arrowhead)"/>
<path d="M 1551.7277034094677 100 Q 1017.7277034094677 80, 483.7277034094678 100" stroke="black" fill="none" marker-end="url(#arrowhead)"/>
<path d="M 1563.7277034094677 100 Q 1551.7277034094677 80, 1539.7277034094677 100" stroke="black" fill="none" marker-end="url(#arrowhead)"/>
<path d="M 1599.7277034094677 100 Q 1545.7277034094677 80, 1491.7277034094677 100" stroke="black" fill="none" marker-end="url(#arrowhead)"/>
<path d="M 1623.7277034094677 100 Q 1401.7277034094677 80, 1179.7277034094677 100" stroke="black" fill="none" marker-end="url(#arrowhead)"/>
<path d="M 1623.7277034094677 100 Q 1587.7277034094677 80, 1551.7277034094677 100" stroke="black" fill="none" marker-end="url(#arrowhead)"/>
<path d="M 1623.7277034094677 100 Q 1425.7277034094677 80, 1227.7277034094677 100" stroke="black" fill="none" marker-end="url(#arrowhead)"/>
<path d="M 1635.7277034094677 100 Q 1551.7277034094677 80, 1467.7277034094677 100" stroke="black" fill="none" marker-end="url(#arrowhead)"/>
<path d="M 1647.7277034094677 100 Q 1611.7277034094677 80, 1575.7277034094677 100" stroke="black" fill="none" marker-end="url(#arrowhead)"/>
<path d="M 1659.7277034094677 100 Q 1581.7277034094677 80, 1503.7277034094677 100" stroke="black" fill="none" marker-end="url(#arrowhead)"/>
<path d="M 1671.7277034094677 100 Q 1659.7277034094677 80, 1647.7277034094677 100" stroke="black" fill="none" marker-end="url(#arrowhead)"/>
<path d="M 1671.7277034094677 100 Q 873.7277034094677 80, 75.7277034094678 100" stroke="black" fill="none" marker-end="url(#arrowhead)"/>
<path d="M 1683.7277034094677 100 Q 1665.7277034094677 80, 1647.7277034094677 100" stroke="black" fill="none" marker-end="url(#arrowhead)"/>
<path d="M 1695.7277034094677 100 Q 1671.7277034094677 80, 1647.7277034094677 100" stroke="black" fill="none" marker-end="url(#arrowhead)"/>
<path d="M 1719.7277034094677 100 Q 1707.7277034094677 80, 1695.7277034094677 100" stroke="black" fill="none" marker-end="url(#arrowhead)"/>
<path d="M 1731.7277034094677 100 Q 1725.7277034094677 80, 1719.7277034094677 100" stroke="black" fill="none" marker-end="url(#arrowhead)"/>
<path d="M 1743.7277034094677 100 Q 1737.7277034094677 80, 1731.7277034094677 100" stroke="black" fill="none" marker-end="url(#arrowhead)"/>
<path d="M 1755.7277034094677 100 Q 1749.7277034094677 80, 1743.7277034094677 100" stroke="black" fill="none" marker-end="url(#arrowhead)"/>
<path d="M 1779.7277034094677 100 Q 1773.7277034094677 80, 1767.7277034094677 100" stroke="black" fill="none" marker-end="url(#arrowhead)"/>
<path d="M 1791.7277034094677 100 Q 1779.7277034094677 80, 1767.7277034094677 100" stroke="black" fill="none" marker-end="url(#arrowhead)"/>
<path d="M 1803.7277034094677 100 Q 1533.7277034094677 80, 1263.7277034094677 100" stroke="black" fill="none" marker-end="url(#arrowhead)"/>
<path d="M 1815.7277034094677 100 Q 1809.7277034094677 80, 1803.7277034094677 100" stroke="black" fill="none" marker-end="url(#arrowhead)"/>
<path d="M 1815.7277034094677 100 Q 1539.7277034094677 80, 1263.7277034094677 100" stroke="black" fill="none" marker-end="url(#arrowhead)"/>
<path d="M 1827.7277034094677 100 Q 1821.7277034094677 80, 1815.7277034094677 100" stroke="black" fill="none" marker-end="url(#arrowhead)"/>
<path d="M 1839.7277034094677 100 Q 1797.7277034094677 80, 1755.7277034094677 100" stroke="black" fill="none" marker-end="url(#arrowhead)"/>
<path d="M 1851.7277034094677 100 Q 1821.7277034094677 80, 1791.7277034094677 100" stroke="black" fill="none" marker-end="url(#arrowhead)"/>
<path d="M 1851.7277034094677 100 Q 963.7277034094677 80, 75.7277034094678 100" stroke="black" fill="none" marker-end="url(#arrowhead)"/>
<path d="M 1863.7277034094677 100 Q 1857.7277034094677 80, 1851.7277034094677 100" stroke="black" fill="none" marker-end="url(#arrowhead)"/>
<path d="M 1875.7277034094677 100 Q 1833.7277034094677 80, 1791.7277034094677 100" stroke="black" fill="none" marker-end="url(#arrowhead)"/>
<path d="M 1875.7277034094677 100 Q 975.7277034094677 80, 75.7277034094678 100" stroke="black" fill="none" marker-end="url(#arrowhead)"/>
<path d="M 1899.7277034094677 100 Q 1713.7277034094677 80, 1527.7277034094677 100" stroke="black" fill="none" marker-end="url(#arrowhead)"/>
<path d="M 1911.7277034094677 100 Q 1893.7277034094677 80, 1875.7277034094677 100" stroke="black" fill="none" marker-end="url(#arrowhead)"/>
<path d="M 1923.7277034094677 100 Q 1899.7277034094677 80, 1875.7277034094677 100" stroke="black" fill="none" marker-end="url(#arrowhead)"/>
<path d="M 1935.7277034094677 100 Q 1929.7277034094677 80, 1923.7277034094677 100" stroke="black" fill="none" marker-end="url(#arrowhead)"/>
<path d="M 1935.7277034094677 100 Q 1005.7277034094677 80, 75.7277034094678 100" stroke="black" fill="none" marker-end="url(#arrowhead)"/>
<path d="M 1947.7277034094677 100 Q 1941.7277034094677 80, 1935.7277034094677 100" stroke="black" fill="none" marker-end="url(#arrowhead)"/>
<path d="M 1959.7277034094677 100 Q 1953.7277034094677 80, 1947.7277034094677 100" stroke="black" fill="none" marker-end="url(#arrowhead)"/>
<path d="M 1971.7277034094677 100 Q 1965.7277034094677 80, 1959.7277034094677 100" stroke="black" fill="none" marker-end="url(#arrowhead)"/>
<path d="M 1983.7277034094677 100 Q 1977.7277034094677 80, 1971.7277034094677 100" stroke="black" fill="none" marker-end="url(#arrowhead)"/>
<path d="M 1995.7277034094677 100 Q 1989.7277034094677 80, 1983.7277034094677 100" stroke="black" fill="none" marker-end="url(#arrowhead)"/>
<path d="M 2007.7277034094677 100 Q 1995.7277034094677 80, 1983.7277034094677 100" stroke="black" fill="none" marker-end="url(#arrowhead)"/>
<path d="M 2019.7277034094677 100 Q 2007.7277034094677 80, 1995.7277034094677 100" stroke="black" fill="none" marker-end="url(#arrowhead)"/>
<path d="M 2043.7277034094677 100 Q 1491.7277034094677 80, 939.7277034094677 100" stroke="black" fill="none" marker-end="url(#arrowhead)"/>
<path d="M 2043.7277034094677 100 Q 2037.7277034094677 80, 2031.7277034094677 100" stroke="black" fill="none" marker-end="url(#arrowhead)"/>
<path d="M 2055.7277034094677 100 Q 2037.7277034094677 80, 2019.7277034094677 100" stroke="black" fill="none" marker-end="url(#arrowhead)"/>
<path d="M 2067.7277034094677 100 Q 2061.7277034094677 80, 2055.7277034094677 100" stroke="black" fill="none" marker-end="url(#arrowhead)"/>
<path d="M 2079.7277034094677 100 Q 2073.7277034094677 80, 2067.7277034094677 100" stroke="black" fill="none" marker-end="url(#arrowhead)"/>
<path d="M 2091.7277034094677 100 Q 2079.7277034094677 80, 2067.7277034094677 100" stroke="black" fill="none" marker-end="url(#arrowhead)"/>
<path d="M 2103.7277034094677 100 Q 2097.7277034094677 80, 2091.7277034094677 100" stroke="black" fill="none" marker-end="url(#arrowhead)"/>
<path d="M 2115.7277034094677 100 Q 2109.7277034094677 80, 2103.7277034094677 100" stroke="black" fill="none" marker-end="url(#arrowhead)"/>
<path d="M 2127.7277034094677 100 Q 2097.7277034094677 80, 2067.7277034094677 100" stroke="black" fill="none" marker-end="url(#arrowhead)"/>

<defs>
  <marker id="arrowhead" markerWidth="5" markerHeight="5" 
          refX="2" refY="2" orient="auto" fill="black">
    <path d="M0,0 L0,4 L4,2 z" />
  </marker>
</defs>

<circle cx="50.0" cy="100" r="6" fill="none" stroke="blue" stroke-width="2" />
<circle cx="50.0" cy="100" r="3" fill="blue" />
<circle cx="75.7277034094678" cy="100" r="4" fill="black" />
<circle cx="87.7277034094678" cy="100" r="6" fill="none" stroke="black" stroke-width="2" />
<circle cx="87.7277034094678" cy="100" r="3" fill="black" />
<circle cx="99.7277034094678" cy="100" r="4" fill="black" />
<circle cx="111.7277034094678" cy="100" r="6" fill="none" stroke="black" stroke-width="2" />
<circle cx="111.7277034094678" cy="100" r="3" fill="black" />
<circle cx="123.7277034094678" cy="100" r="4" fill="red" />
<circle cx="135.72770340946778" cy="100" r="6" fill="none" stroke="black" stroke-width="2" />
<circle cx="135.72770340946778" cy="100" r="3" fill="black" />
<circle cx="147.72770340946778" cy="100" r="4" fill="black" />
<circle cx="159.72770340946778" cy="100" r="6" fill="none" stroke="black" stroke-width="2" />
<circle cx="159.72770340946778" cy="100" r="3" fill="black" />
<circle cx="171.72770340946778" cy="100" r="4" fill="black" />
<circle cx="183.72770340946778" cy="100" r="6" fill="none" stroke="black" stroke-width="2" />
<circle cx="183.72770340946778" cy="100" r="3" fill="black" />
<circle cx="195.72770340946778" cy="100" r="4" fill="red" />
<circle cx="207.72770340946778" cy="100" r="4" fill="black" />
<circle cx="219.72770340946778" cy="100" r="4" fill="black" />
<circle cx="231.72770340946778" cy="100" r="4" fill="black" />
<circle cx="243.72770340946778" cy="100" r="4" fill="black" />
<circle cx="255.72770340946778" cy="100" r="4" fill="red" />
<circle cx="267.7277034094678" cy="100" r="4" fill="black" />
<circle cx="279.7277034094678" cy="100" r="4" fill="black" />
<circle cx="291.7277034094678" cy="100" r="6" fill="none" stroke="black" stroke-width="2" />
<circle cx="291.7277034094678" cy="100" r="3" fill="black" />
<circle cx="303.7277034094678" cy="100" r="6" fill="none" stroke="black" stroke-width="2" />
<circle cx="303.7277034094678" cy="100" r="3" fill="black" />
<circle cx="315.7277034094678" cy="100" r="4" fill="black" />
<circle cx="327.7277034094678" cy="100" r="4" fill="black" />
<circle cx="339.7277034094678" cy="100" r="6" fill="none" stroke="black" stroke-width="2" />
<circle cx="339.7277034094678" cy="100" r="3" fill="black" />
<circle cx="351.7277034094678" cy="100" r="4" fill="black" />
<circle cx="363.7277034094678" cy="100" r="4" fill="black" />
<circle cx="375.7277034094678" cy="100" r="4" fill="black" />
<circle cx="387.7277034094678" cy="100" r="6" fill="none" stroke="black" stroke-width="2" />
<circle cx="387.7277034094678" cy="100" r="3" fill="black" />
<circle cx="399.7277034094678" cy="100" r="4" fill="green" />
<circle cx="411.7277034094678" cy="100" r="4" fill="black" />
<circle cx="423.7277034094678" cy="100" r="6" fill="none" stroke="blue" stroke-width="2" />
<circle cx="423.7277034094678" cy="100" r="3" fill="blue" />
<circle cx="435.7277034094678" cy="100" r="6" fill="none" stroke="blue" stroke-width="2" />
<circle cx="435.7277034094678" cy="100" r="3" fill="blue" />
<circle cx="447.7277034094678" cy="100" r="4" fill="red" />
<circle cx="459.7277034094678" cy="100" r="6" fill="none" stroke="blue" stroke-width="2" />
<circle cx="459.7277034094678" cy="100" r="3" fill="blue" />
<circle cx="471.7277034094678" cy="100" r="4" fill="red" />
<circle cx="483.7277034094678" cy="100" r="6" fill="none" stroke="blue" stroke-width="2" />
<circle cx="483.7277034094678" cy="100" r="3" fill="blue" />
<circle cx="495.7277034094678" cy="100" r="6" fill="none" stroke="red" stroke-width="2" />
<circle cx="495.7277034094678" cy="100" r="3" fill="red" />
<circle cx="507.7277034094678" cy="100" r="4" fill="red" />
<circle cx="519.7277034094677" cy="100" r="4" fill="black" />
<circle cx="531.7277034094677" cy="100" r="4" fill="red" />
<circle cx="543.7277034094677" cy="100" r="6" fill="none" stroke="blue" stroke-width="2" />
<circle cx="543.7277034094677" cy="100" r="3" fill="blue" />
<circle cx="555.7277034094677" cy="100" r="4" fill="red" />
<circle cx="567.7277034094677" cy="100" r="4" fill="red" />
<circle cx="579.7277034094677" cy="100" r="4" fill="red" />
<circle cx="591.7277034094677" cy="100" r="4" fill="black" />
<circle cx="603.7277034094677" cy="100" r="6" fill="none" stroke="blue" stroke-width="2" />
<circle cx="603.7277034094677" cy="100" r="3" fill="blue" />
<circle cx="615.7277034094677" cy="100" r="4" fill="red" />
<circle cx="627.7277034094677" cy="100" r="4" fill="red" />
<circle cx="639.7277034094677" cy="100" r="4" fill="black" />
<circle cx="651.7277034094677" cy="100" r="4" fill="black" />
<circle cx="663.7277034094677" cy="100" r="4" fill="red" />
<circle cx="675.7277034094677" cy="100" r="4" fill="black" />
<circle cx="687.7277034094677" cy="100" r="4" fill="black" />
<circle cx="699.7277034094677" cy="100" r="6" fill="none" stroke="blue" stroke-width="2" />
<circle cx="699.7277034094677" cy="100" r="3" fill="blue" />
<circle cx="711.7277034094677" cy="100" r="6" fill="none" stroke="blue" stroke-width="2" />
<circle cx="711.7277034094677" cy="100" r="3" fill="blue" />
<circle cx="723.7277034094677" cy="100" r="6" fill="none" stroke="blue" stroke-width="2" />
<circle cx="723.7277034094677" cy="100" r="3" fill="blue" />
<circle cx="735.7277034094677" cy="100" r="4" fill="red" />
<circle cx="747.7277034094677" cy="100" r="6" fill="none" stroke="blue" stroke-width="2" />
<circle cx="747.7277034094677" cy="100" r="3" fill="blue" />
<circle cx="759.7277034094677" cy="100" r="4" fill="red" />
<circle cx="771.7277034094677" cy="100" r="6" fill="none" stroke="blue" stroke-width="2" />
<circle cx="771.7277034094677" cy="100" r="3" fill="blue" />
<circle cx="783.7277034094677" cy="100" r="4" fill="red" />
<circle cx="795.7277034094677" cy="100" r="6" fill="none" stroke="blue" stroke-width="2" />
<circle cx="795.7277034094677" cy="100" r="3" fill="blue" />
<circle cx="807.7277034094677" cy="100" r="4" fill="red" />
<circle cx="819.7277034094677" cy="100" r="6" fill="none" stroke="blue" stroke-width="2" />
<circle cx="819.7277034094677" cy="100" r="3" fill="blue" />
<circle cx="831.7277034094677" cy="100" r="4" fill="blue" />
<circle cx="843.7277034094677" cy="100" r="4" fill="red" />
<circle cx="855.7277034094677" cy="100" r="4" fill="black" />
<circle cx="867.7277034094677" cy="100" r="4" fill="red" />
<circle cx="879.7277034094677" cy="100" r="6" fill="none" stroke="blue" stroke-width="2" />
<circle cx="879.7277034094677" cy="100" r="3" fill="blue" />
<circle cx="891.7277034094677" cy="100" r="6" fill="none" stroke="red" stroke-width="2" />
<circle cx="891.7277034094677" cy="100" r="3" fill="red" />
<circle cx="903.7277034094677" cy="100" r="6" fill="none" stroke="blue" stroke-width="2" />
<circle cx="903.7277034094677" cy="100" r="3" fill="blue" />
<circle cx="915.7277034094677" cy="100" r="6" fill="none" stroke="blue" stroke-width="2" />
<circle cx="915.7277034094677" cy="100" r="3" fill="blue" />
<circle cx="927.7277034094677" cy="100" r="4" fill="blue" />
<circle cx="939.7277034094677" cy="100" r="4" fill="red" />
<circle cx="951.7277034094677" cy="100" r="6" fill="none" stroke="blue" stroke-width="2" />
<circle cx="951.7277034094677" cy="100" r="3" fill="blue" />
<circle cx="963.7277034094677" cy="100" r="4" fill="black" />
<circle cx="975.7277034094677" cy="100" r="4" fill="red" />
<circle cx="987.7277034094677" cy="100" r="4" fill="blue" />
<circle cx="999.7277034094677" cy="100" r="4" fill="blue" />
<circle cx="1011.7277034094677" cy="100" r="6" fill="none" stroke="red" stroke-width="2" />
<circle cx="1011.7277034094677" cy="100" r="3" fill="red" />
<circle cx="1023.7277034094677" cy="100" r="6" fill="none" stroke="blue" stroke-width="2" />
<circle cx="1023.7277034094677" cy="100" r="3" fill="blue" />
<circle cx="1035.7277034094677" cy="100" r="4" fill="blue" />
<circle cx="1047.7277034094677" cy="100" r="4" fill="red" />
<circle cx="1059.7277034094677" cy="100" r="4" fill="black" />
<circle cx="1071.7277034094677" cy="100" r="6" fill="none" stroke="black" stroke-width="2" />
<circle cx="1071.7277034094677" cy="100" r="3" fill="black" />
<circle cx="1083.7277034094677" cy="100" r="4" fill="green" />
<circle cx="1095.7277034094677" cy="100" r="6" fill="none" stroke="blue" stroke-width="2" />
<circle cx="1095.7277034094677" cy="100" r="3" fill="blue" />
<circle cx="1107.7277034094677" cy="100" r="4" fill="blue" />
<circle cx="1119.7277034094677" cy="100" r="4" fill="red" />
<circle cx="1131.7277034094677" cy="100" r="6" fill="none" stroke="blue" stroke-width="2" />
<circle cx="1131.7277034094677" cy="100" r="3" fill="blue" />
<circle cx="1143.7277034094677" cy="100" r="4" fill="black" />
<circle cx="1155.7277034094677" cy="100" r="4" fill="red" />
<circle cx="1167.7277034094677" cy="100" r="4" fill="red" />
<circle cx="1179.7277034094677" cy="100" r="4" fill="blue" />
<circle cx="1191.7277034094677" cy="100" r="4" fill="red" />
<circle cx="1203.7277034094677" cy="100" r="4" fill="red" />
<circle cx="1215.7277034094677" cy="100" r="4" fill="black" />
<circle cx="1227.7277034094677" cy="100" r="4" fill="red" />
<circle cx="1239.7277034094677" cy="100" r="4" fill="black" />
<circle cx="1251.7277034094677" cy="100" r="4" fill="red" />
<circle cx="1263.7277034094677" cy="100" r="4" fill="black" />
<circle cx="1275.7277034094677" cy="100" r="4" fill="black" />
<circle cx="1287.7277034094677" cy="100" r="4" fill="blue" />
<circle cx="1299.7277034094677" cy="100" r="6" fill="none" stroke="black" stroke-width="2" />
<circle cx="1299.7277034094677" cy="100" r="3" fill="black" />
<circle cx="1311.7277034094677" cy="100" r="4" fill="black" />
<circle cx="1323.7277034094677" cy="100" r="4" fill="black" />
<circle cx="1335.7277034094677" cy="100" r="6" fill="none" stroke="black" stroke-width="2" />
<circle cx="1335.7277034094677" cy="100" r="3" fill="black" />
<circle cx="1347.7277034094677" cy="100" r="4" fill="black" />
<circle cx="1359.7277034094677" cy="100" r="4" fill="black" />
<circle cx="1371.7277034094677" cy="100" r="6" fill="none" stroke="black" stroke-width="2" />
<circle cx="1371.7277034094677" cy="100" r="3" fill="black" />
<circle cx="1383.7277034094677" cy="100" r="4" fill="black" />
<circle cx="1395.7277034094677" cy="100" r="4" fill="red" />
<circle cx="1407.7277034094677" cy="100" r="4" fill="black" />
<circle cx="1419.7277034094677" cy="100" r="6" fill="none" stroke="blue" stroke-width="2" />
<circle cx="1419.7277034094677" cy="100" r="3" fill="blue" />
<circle cx="1431.7277034094677" cy="100" r="6" fill="none" stroke="blue" stroke-width="2" />
<circle cx="1431.7277034094677" cy="100" r="3" fill="blue" />
<circle cx="1443.7277034094677" cy="100" r="6" fill="none" stroke="red" stroke-width="2" />
<circle cx="1443.7277034094677" cy="100" r="3" fill="red" />
<circle cx="1455.7277034094677" cy="100" r="4" fill="red" />
<circle cx="1467.7277034094677" cy="100" r="4" fill="red" />
<circle cx="1479.7277034094677" cy="100" r="4" fill="black" />
<circle cx="1491.7277034094677" cy="100" r="4" fill="black" />
<circle cx="1503.7277034094677" cy="100" r="4" fill="black" />
<circle cx="1515.7277034094677" cy="100" r="4" fill="black" />
<circle cx="1527.7277034094677" cy="100" r="4" fill="black" />
<circle cx="1539.7277034094677" cy="100" r="6" fill="none" stroke="black" stroke-width="2" />
<circle cx="1539.7277034094677" cy="100" r="3" fill="black" />
<circle cx="1551.7277034094677" cy="100" r="4" fill="blue" />
<circle cx="1563.7277034094677" cy="100" r="4" fill="black" />
<circle cx="1575.7277034094677" cy="100" r="6" fill="none" stroke="black" stroke-width="2" />
<circle cx="1575.7277034094677" cy="100" r="3" fill="black" />
<circle cx="1587.7277034094677" cy="100" r="6" fill="none" stroke="black" stroke-width="2" />
<circle cx="1587.7277034094677" cy="100" r="3" fill="black" />
<circle cx="1599.7277034094677" cy="100" r="4" fill="black" />
<circle cx="1611.7277034094677" cy="100" r="6" fill="none" stroke="blue" stroke-width="2" />
<circle cx="1611.7277034094677" cy="100" r="3" fill="blue" />
<circle cx="1623.7277034094677" cy="100" r="6" fill="none" stroke="blue" stroke-width="2" />
<circle cx="1623.7277034094677" cy="100" r="3" fill="blue" />
<circle cx="1635.7277034094677" cy="100" r="6" fill="none" stroke="black" stroke-width="2" />
<circle cx="1635.7277034094677" cy="100" r="3" fill="black" />
<circle cx="1647.7277034094677" cy="100" r="4" fill="black" />
<circle cx="1659.7277034094677" cy="100" r="4" fill="black" />
<circle cx="1671.7277034094677" cy="100" r="6" fill="none" stroke="blue" stroke-width="2" />
<circle cx="1671.7277034094677" cy="100" r="3" fill="blue" />
<circle cx="1683.7277034094677" cy="100" r="4" fill="blue" />
<circle cx="1695.7277034094677" cy="100" r="4" fill="black" />
<circle cx="1707.7277034094677" cy="100" r="4" fill="black" />
<circle cx="1719.7277034094677" cy="100" r="4" fill="black" />
<circle cx="1731.7277034094677" cy="100" r="4" fill="black" />
<circle cx="1743.7277034094677" cy="100" r="4" fill="black" />
<circle cx="1755.7277034094677" cy="100" r="4" fill="black" />
<circle cx="1767.7277034094677" cy="100" r="6" fill="none" stroke="blue" stroke-width="2" />
<circle cx="1767.7277034094677" cy="100" r="3" fill="blue" />
<circle cx="1779.7277034094677" cy="100" r="6" fill="none" stroke="blue" stroke-width="2" />
<circle cx="1779.7277034094677" cy="100" r="3" fill="blue" />
<circle cx="1791.7277034094677" cy="100" r="4" fill="red" />
<circle cx="1803.7277034094677" cy="100" r="4" fill="black" />
<circle cx="1815.7277034094677" cy="100" r="4" fill="black" />
<circle cx="1827.7277034094677" cy="100" r="4" fill="green" />
<circle cx="1839.7277034094677" cy="100" r="4" fill="black" />
<circle cx="1851.7277034094677" cy="100" r="4" fill="red" />
<circle cx="1863.7277034094677" cy="100" r="4" fill="black" />
<circle cx="1875.7277034094677" cy="100" r="6" fill="none" stroke="blue" stroke-width="2" />
<circle cx="1875.7277034094677" cy="100" r="3" fill="blue" />
<circle cx="1887.7277034094677" cy="100" r="4" fill="black" />
<circle cx="1899.7277034094677" cy="100" r="4" fill="black" />
<circle cx="1911.7277034094677" cy="100" r="4" fill="red" />
<circle cx="1923.7277034094677" cy="100" r="6" fill="none" stroke="blue" stroke-width="2" />
<circle cx="1923.7277034094677" cy="100" r="3" fill="blue" />
<circle cx="1935.7277034094677" cy="100" r="6" fill="none" stroke="blue" stroke-width="2" />
<circle cx="1935.7277034094677" cy="100" r="3" fill="blue" />
<circle cx="1947.7277034094677" cy="100" r="4" fill="black" />
<circle cx="1959.7277034094677" cy="100" r="4" fill="black" />
<circle cx="1971.7277034094677" cy="100" r="4" fill="black" />
<circle cx="1983.7277034094677" cy="100" r="4" fill="black" />
<circle cx="1995.7277034094677" cy="100" r="4" fill="black" />
<circle cx="2007.7277034094677" cy="100" r="4" fill="black" />
<circle cx="2019.7277034094677" cy="100" r="4" fill="black" />
<circle cx="2031.7277034094677" cy="100" r="4" fill="red" />
<circle cx="2043.7277034094677" cy="100" r="6" fill="none" stroke="blue" stroke-width="2" />
<circle cx="2043.7277034094677" cy="100" r="3" fill="blue" />
<circle cx="2055.7277034094677" cy="100" r="4" fill="black" />
<circle cx="2067.7277034094677" cy="100" r="4" fill="red" />
<circle cx="2079.7277034094677" cy="100" r="4" fill="green" />
<circle cx="2091.7277034094677" cy="100" r="4" fill="black" />
<circle cx="2103.7277034094677" cy="100" r="4" fill="red" />
<circle cx="2115.7277034094677" cy="100" r="4" fill="green" />
<circle cx="2127.7277034094677" cy="100" r="6" fill="none" stroke="blue" stroke-width="2" />
<circle cx="2127.7277034094677" cy="100" r="3" fill="blue" />
<text x="50" y="125" fill="gray" style="font-size:12px;">2024-09-05T11:36:38+00:00</text>
<text x="900" y="125" fill="gray" style="font-size:12px;">2025-02-20T07:20:27+00:00</text>
</svg>