<svg xmlns="http://www.w3.org/2000/svg" width="1000" height="200" style="background-color: white; font-family: sans-serif;">
<line x1="50" y1="100" x2="950" y2="100" stroke="gray" stroke-width="1"/>
<path d="M 86.0 100 Q 80.0 80, 74.0 100" stroke="black" fill="none" marker-end="url(#arrowhead)"/>
<path d="M 98.0 100 Q 86.0 80, 74.0 100" stroke="black" fill="none" marker-end="url(#arrowhead)"/>
<path d="M 98.0 100 Q 92.0 80, 86.0 100" stroke="black" fill="none" marker-end="url(#arrowhead)"/>
<path d="M 142.15624365519608 100 Q 114.07812182759804 80, 86.0 100" stroke="black" fill="none" marker-end="url(#arrowhead)"/>
<path d="M 154.15624365519608 100 Q 148.15624365519608 80, 142.15624365519608 100" stroke="black" fill="none" marker-end="url(#arrowhead)"/>
<path d="M 166.15624365519608 100 Q 132.07812182759804 80, 98.0 100" stroke="black" fill="none" marker-end="url(#arrowhead)"/>
<path d="M 178.15624365519608 100 Q 172.15624365519608 80, 166.15624365519608 100" stroke="black" fill="none" marker-end="url(#arrowhead)"/>
<path d="M 190.15624365519608 100 Q 178.15624365519608 80, 166.15624365519608 100" stroke="black" fill="none" marker-end="url(#arrowhead)"/>
<path d="M 202.15624365519608 100 Q 184.15624365519608 80, 166.15624365519608 100" stroke="black" fill="none" marker-end="url(#arrowhead)"/>
<path d="M 202.15624365519608 100 Q 196.15624365519608 80, 190.15624365519608 100" stroke="black" fill="none" marker-end="url(#arrowhead)"/>
<path d="M 214.15624365519608 100 Q 208.15624365519608 80, 202.15624365519608 100" stroke="black" fill="none" marker-end="url(#arrowhead)"/>
<path d="M 226.15624365519608 100 Q 220.15624365519608 80, 214.15624365519608 100" stroke="black" fill="none" marker-end="url(#arrowhead)"/>
<path d="M 238.15624365519608 100 Q 232.15624365519608 80, 226.15624365519608 100" stroke="black" fill="none" marker-end="url(#arrowhead)"/>
<path d="M 250.15624365519608 100 Q 244.15624365519608 80, 238.15624365519608 100" stroke="black" fill="none" marker-end="url(#arrowhead)"/>
<path d="M 262.1562436551961 100 Q 250.15624365519608 80, 238.15624365519608 100" stroke="black" fill="none" marker-end="url(#arrowhead)"/>
<path d="M 274.1562436551961 100 Q 268.1562436551961 80, 262.1562436551961 100" stroke="black" fill="none" marker-end="url(#arrowhead)"/>
<path d="M 335.8860977965602 100 Q 311.02117072587816 80, 286.1562436551961 100" stroke="black" fill="none" marker-end="url(#arrowhead)"/>
<path d="M 412.17869629694235 100 Q 374.03239704675127 80, 335.8860977965602 100" stroke="black" fill="none" marker-end="url(#arrowhead)"/>
<path d="M 412.17869629694235 100 Q 349.16746997606924 80, 286.1562436551961 100" stroke="black" fill="none" marker-end="url(#arrowhead)"/>
<path d="M 424.17869629694235 100 Q 386.03239704675127 80, 347.8860977965602 100" stroke="black" fill="none" marker-end="url(#arrowhead)"/>

<defs>
  <marker id="arrowhead" markerWidth="5" markerHeight="5" 
          refX="2" refY="2" orient="auto" fill="black">
    <path d="M0,0 L0,4 L4,2 z" />
  </marker>
</defs>

<circle cx="50.0" cy="100" r="6" fill="none" stroke="blue" stroke-width="2" />
<circle cx="50.0" cy="100" r="3" fill="blue" />
<circle cx="62.0" cy="100" r="4" fill="black" />
<circle cx="74.0" cy="100" r="4" fill="black" />
<circle cx="86.0" cy="100" r="4" fill="black" />
<circle cx="98.0" cy="100" r="4" fill="blue" />
<circle cx="142.15624365519608" cy="100" r="4" fill="black" />
<circle cx="154.15624365519608" cy="100" r="4" fill="black" />
<circle cx="166.15624365519608" cy="100" r="4" fill="black" />
<circle cx="178.15624365519608" cy="100" r="4" fill="green" />
<circle cx="190.15624365519608" cy="100" r="4" fill="black" />
<circle cx="202.15624365519608" cy="100" r="4" fill="green" />
<circle cx="214.15624365519608" cy="100" r="4" fill="blue" />
<circle cx="226.15624365519608" cy="100" r="4" fill="red" />
<circle cx="238.15624365519608" cy="100" r="4" fill="black" />
<circle cx="250.15624365519608" cy="100" r="4" fill="black" />
<circle cx="262.1562436551961" cy="100" r="4" fill="black" />
<circle cx="274.1562436551961" cy="100" r="4" fill="green" />
<circle cx="286.1562436551961" cy="100" r="4" fill="red" />
<circle cx="335.8860977965602" cy="100" r="4" fill="black" />
<circle cx="347.8860977965602" cy="100" r="4" fill="blue" />
<circle cx="412.17869629694235" cy="100" r="4" fill="green" />
<circle cx="424.17869629694235" cy="100" r="4" fill="black" />
<circle cx="617.6800041229722" cy="100" r="4" fill="blue" />
<circle cx="950.0" cy="100" r="4" fill="blue" />
<text x="50" y="125" fill="gray" style="font-size:12px;">2025-01-09T11:22:05+00:00</text>
<text x="900" y="125" fill="gray" style="font-size:12px;">2025-02-19T08:19:18+00:00</text>
</svg>