<svg xmlns="http://www.w3.org/2000/svg" width="1000" height="400" style="background-color: white; font-family: sans-serif;">
<line x1="50" y1="200" x2="950" y2="200" stroke="gray" stroke-width="1"/>
<path d="M 189.44676106623564 200 Q 119.72338053311782 180, 50.0 200" stroke="black" fill="none" marker-end="url(#arrowhead)"/>
<path d="M 254.7151219766552 200 Q 222.08094152144542 180, 189.44676106623564 200" stroke="black" fill="none" marker-end="url(#arrowhead)"/>
<path d="M 266.7151219766552 200 Q 260.7151219766552 180, 254.7151219766552 200" stroke="black" fill="none" marker-end="url(#arrowhead)"/>
<path d="M 289.7741894422369 200 Q 278.2446557094461 180, 266.7151219766552 200" stroke="black" fill="none" marker-end="url(#arrowhead)"/>
<path d="M 315.49717736802796 200 Q 302.63568340513245 180, 289.7741894422369 200" stroke="black" fill="none" marker-end="url(#arrowhead)"/>
<path d="M 340.63357314075125 200 Q 334.63357314075125 180, 328.63357314075125 200" stroke="black" fill="none" marker-end="url(#arrowhead)"/>
<path d="M 352.63357314075125 200 Q 346.63357314075125 180, 340.63357314075125 200" stroke="black" fill="none" marker-end="url(#arrowhead)"/>
<path d="M 364.63357314075125 200 Q 352.63357314075125 180, 340.63357314075125 200" stroke="black" fill="none" marker-end="url(#arrowhead)"/>
<path d="M 364.63357314075125 200 Q 358.63357314075125 180, 352.63357314075125 200" stroke="black" fill="none" marker-end="url(#arrowhead)"/>
<path d="M 388.63357314075125 200 Q 382.63357314075125 180, 376.63357314075125 200" stroke="black" fill="none" marker-end="url(#arrowhead)"/>
<path d="M 412.63357314075125 200 Q 376.63357314075125 180, 340.63357314075125 200" stroke="black" fill="none" marker-end="url(#arrowhead)"/>
<path d="M 510.7055276351083 200 Q 449.6695503879298 180, 388.63357314075125 200" stroke="black" fill="none" marker-end="url(#arrowhead)"/>
<path d="M 522.7055276351083 200 Q 516.7055276351083 180, 510.7055276351083 200" stroke="black" fill="none" marker-end="url(#arrowhead)"/>
<path d="M 543.3403982203846 200 Q 533.0229629277464 180, 522.7055276351083 200" stroke="black" fill="none" marker-end="url(#arrowhead)"/>
<path d="M 561.7369653600715 200 Q 552.5386817902281 180, 543.3403982203846 200" stroke="black" fill="none" marker-end="url(#arrowhead)"/>
<path d="M 585.7369653600715 200 Q 579.7369653600715 180, 573.7369653600715 200" stroke="black" fill="none" marker-end="url(#arrowhead)"/>
<path d="M 642.26962308163 200 Q 614.0032942208508 180, 585.7369653600715 200" stroke="black" fill="none" marker-end="url(#arrowhead)"/>
<path d="M 654.26962308163 200 Q 648.26962308163 180, 642.26962308163 200" stroke="black" fill="none" marker-end="url(#arrowhead)"/>
<path d="M 825.6601860897384 200 Q 815.0211409843708 180, 804.3820958790033 200" stroke="black" fill="none" marker-end="url(#arrowhead)"/>
<path d="M 837.6601860897384 200 Q 690.5002921550615 180, 543.3403982203846 200" stroke="black" fill="none" marker-end="url(#arrowhead)"/>
<path d="M 850.8798391536859 200 Q 838.2700126217121 180, 825.6601860897384 200" stroke="black" fill="none" marker-end="url(#arrowhead)"/>
<path d="M 862.8798391536859 200 Q 856.8798391536859 180, 850.8798391536859 200" stroke="black" fill="none" marker-end="url(#arrowhead)"/>
<path d="M 884.8963501321216 200 Q 873.8880946429038 180, 862.8798391536859 200" stroke="black" fill="none" marker-end="url(#arrowhead)"/>
<path d="M 926.5654833747667 200 Q 894.7226612642263 180, 862.8798391536859 200" stroke="black" fill="none" marker-end="url(#arrowhead)"/>
<path d="M 926.5654833747667 200 Q 912.9832635790758 180, 899.401043783385 200" stroke="black" fill="none" marker-end="url(#arrowhead)"/>
<path d="M 950.0 200 Q 893.8300930448693 180, 837.6601860897384 200" stroke="black" fill="none" marker-end="url(#arrowhead)"/>

<defs>
  <marker id="arrowhead" markerWidth="5" markerHeight="5" 
          refX="2" refY="2" orient="auto" fill="black">
    <path d="M0,0 L0,4 L4,2 z" />
  </marker>
</defs>

<circle cx="50.0" cy="200" r="6" fill="none" stroke="blue" stroke-width="2" />
<circle cx="50.0" cy="200" r="3" fill="blue" />
<circle cx="189.44676106623564" cy="200" r="4" fill="red" />
<circle cx="254.7151219766552" cy="200" r="6" fill="none" stroke="blue" stroke-width="2" />
<circle cx="254.7151219766552" cy="200" r="3" fill="blue" />
<circle cx="266.7151219766552" cy="200" r="4" fill="red" />
<circle cx="289.7741894422369" cy="200" r="6" fill="none" stroke="blue" stroke-width="2" />
<circle cx="289.7741894422369" cy="200" r="3" fill="blue" />
<circle cx="315.49717736802796" cy="200" r="4" fill="blue" />
<circle cx="328.63357314075125" cy="200" r="6" fill="none" stroke="black" stroke-width="2" />
<circle cx="328.63357314075125" cy="200" r="3" fill="black" />
<circle cx="340.63357314075125" cy="200" r="4" fill="black" />
<circle cx="352.63357314075125" cy="200" r="6" fill="none" stroke="black" stroke-width="2" />
<circle cx="352.63357314075125" cy="200" r="3" fill="black" />
<circle cx="364.63357314075125" cy="200" r="4" fill="black" />
<circle cx="376.63357314075125" cy="200" r="6" fill="none" stroke="black" stroke-width="2" />
<circle cx="376.63357314075125" cy="200" r="3" fill="black" />
<circle cx="388.63357314075125" cy="200" r="4" fill="black" />
<circle cx="400.63357314075125" cy="200" r="6" fill="none" stroke="black" stroke-width="2" />
<circle cx="400.63357314075125" cy="200" r="3" fill="black" />
<circle cx="412.63357314075125" cy="200" r="4" fill="blue" />
<circle cx="510.7055276351083" cy="200" r="4" fill="blue" />
<circle cx="522.7055276351083" cy="200" r="4" fill="black" />
<circle cx="543.3403982203846" cy="200" r="4" fill="blue" />
<circle cx="561.7369653600715" cy="200" r="6" fill="none" stroke="black" stroke-width="2" />
<circle cx="561.7369653600715" cy="200" r="3" fill="black" />
<circle cx="573.7369653600715" cy="200" r="6" fill="none" stroke="red" stroke-width="2" />
<circle cx="573.7369653600715" cy="200" r="3" fill="red" />
<circle cx="585.7369653600715" cy="200" r="4" fill="red" />
<circle cx="642.26962308163" cy="200" r="6" fill="none" stroke="black" stroke-width="2" />
<circle cx="642.26962308163" cy="200" r="3" fill="black" />
<circle cx="654.26962308163" cy="200" r="4" fill="black" />
<circle cx="804.3820958790033" cy="200" r="6" fill="none" stroke="red" stroke-width="2" />
<circle cx="804.3820958790033" cy="200" r="3" fill="red" />
<circle cx="825.6601860897384" cy="200" r="4" fill="black" />
<circle cx="837.6601860897384" cy="200" r="4" fill="blue" />
<circle cx="850.8798391536859" cy="200" r="6" fill="none" stroke="blue" stroke-width="2" />
<circle cx="850.8798391536859" cy="200" r="3" fill="blue" />
<circle cx="862.8798391536859" cy="200" r="4" fill="red" />
<circle cx="884.8963501321216" cy="200" r="6" fill="none" stroke="blue" stroke-width="2" />
<circle cx="884.8963501321216" cy="200" r="3" fill="blue" />
<circle cx="899.401043783385" cy="200" r="4" fill="red" />
<circle cx="926.5654833747667" cy="200" r="6" fill="none" stroke="black" stroke-width="2" />
<circle cx="926.5654833747667" cy="200" r="3" fill="black" />
<circle cx="950.0" cy="200" r="4" fill="blue" />
<text x="50" y="225" fill="gray" style="font-size:12px;">2025-02-05T20:48:56+00:00</text>
<text x="900" y="225" fill="gray" style="font-size:12px;">2025-02-28T12:11:29+00:00</text>
</svg>