<svg xmlns="http://www.w3.org/2000/svg" width="1000" height="200" style="background-color: white; font-family: sans-serif;">
<line x1="50" y1="100" x2="950" y2="100" stroke="gray" stroke-width="1"/>
<path d="M 189.44676106623564 100 Q 119.72338053311782 80, 50.0 100" stroke="black" fill="none" marker-end="url(#arrowhead)"/>
<path d="M 254.7151219766552 100 Q 222.08094152144542 80, 189.44676106623564 100" stroke="black" fill="none" marker-end="url(#arrowhead)"/>
<path d="M 266.7151219766552 100 Q 260.7151219766552 80, 254.7151219766552 100" stroke="black" fill="none" marker-end="url(#arrowhead)"/>
<path d="M 289.7741894422369 100 Q 278.2446557094461 80, 266.7151219766552 100" stroke="black" fill="none" marker-end="url(#arrowhead)"/>
<path d="M 315.49717736802796 100 Q 302.63568340513245 80, 289.7741894422369 100" stroke="black" fill="none" marker-end="url(#arrowhead)"/>
<path d="M 340.63357314075125 100 Q 334.63357314075125 80, 328.63357314075125 100" stroke="black" fill="none" marker-end="url(#arrowhead)"/>
<path d="M 352.63357314075125 100 Q 346.63357314075125 80, 340.63357314075125 100" stroke="black" fill="none" marker-end="url(#arrowhead)"/>
<path d="M 364.63357314075125 100 Q 352.63357314075125 80, 340.63357314075125 100" stroke="black" fill="none" marker-end="url(#arrowhead)"/>
<path d="M 364.63357314075125 100 Q 358.63357314075125 80, 352.63357314075125 100" stroke="black" fill="none" marker-end="url(#arrowhead)"/>
<path d="M 388.63357314075125 100 Q 382.63357314075125 80, 376.63357314075125 100" stroke="black" fill="none" marker-end="url(#arrowhead)"/>
<path d="M 412.63357314075125 100 Q 376.63357314075125 80, 340.63357314075125 100" stroke="black" fill="none" marker-end="url(#arrowhead)"/>
<path d="M 510.7055276351083 100 Q 449.6695503879298 80, 388.63357314075125 100" stroke="black" fill="none" marker-end="url(#arrowhead)"/>
<path d="M 522.7055276351083 100 Q 516.7055276351083 80, 510.7055276351083 100" stroke="black" fill="none" marker-end="url(#arrowhead)"/>
<path d="M 543.3403982203846 100 Q 533.0229629277464 80, 522.7055276351083 100" stroke="black" fill="none" marker-end="url(#arrowhead)"/>
<path d="M 561.7369653600715 100 Q 552.5386817902281 80, 543.3403982203846 100" stroke="black" fill="none" marker-end="url(#arrowhead)"/>
<path d="M 585.7369653600715 100 Q 579.7369653600715 80, 573.7369653600715 100" stroke="black" fill="none" marker-end="url(#arrowhead)"/>
<path d="M 642.26962308163 100 Q 614.0032942208508 80, 585.7369653600715 100" stroke="black" fill="none" marker-end="url(#arrowhead)"/>
<path d="M 654.26962308163 100 Q 648.26962308163 80, 642.26962308163 100" stroke="black" fill="none" marker-end="url(#arrowhead)"/>
<path d="M 825.6601860897384 100 Q 815.0211409843708 80, 804.3820958790033 100" stroke="black" fill="none" marker-end="url(#arrowhead)"/>
<path d="M 837.6601860897384 100 Q 690.5002921550615 80, 543.3403982203846 100" stroke="black" fill="none" marker-end="url(#arrowhead)"/>
<path d="M 850.8798391536859 100 Q 838.2700126217121 80, 825.6601860897384 100" stroke="black" fill="none" marker-end="url(#arrowhead)"/>
<path d="M 862.8798391536859 100 Q 856.8798391536859 80, 850.8798391536859 100" stroke="black" fill="none" marker-end="url(#arrowhead)"/>
<path d="M 884.8963501321216 100 Q 873.8880946429038 80, 862.8798391536859 100" stroke="black" fill="none" marker-end="url(#arrowhead)"/>
<path d="M 926.5654833747667 100 Q 894.7226612642263 80, 862.8798391536859 100" stroke="black" fill="none" marker-end="url(#arrowhead)"/>
<path d="M 926.5654833747667 100 Q 912.9832635790758 80, 899.401043783385 100" stroke="black" fill="none" marker-end="url(#arrowhead)"/>
<path d="M 950.0 100 Q 893.8300930448693 80, 837.6601860897384 100" stroke="black" fill="none" marker-end="url(#arrowhead)"/>

<defs>
  <marker id="arrowhead" markerWidth="5" markerHeight="5" 
          refX="2" refY="2" orient="auto" fill="black">
    <path d="M0,0 L0,4 L4,2 z" />
  </marker>
</defs>

<circle cx="50.0" cy="100" r="6" fill="none" stroke="blue" stroke-width="2" />
<circle cx="50.0" cy="100" r="3" fill="blue" />
<circle cx="189.44676106623564" cy="100" r="4" fill="red" />
<circle cx="254.7151219766552" cy="100" r="6" fill="none" stroke="blue" stroke-width="2" />
<circle cx="254.7151219766552" cy="100" r="3" fill="blue" />
<circle cx="266.7151219766552" cy="100" r="4" fill="red" />
<circle cx="289.7741894422369" cy="100" r="6" fill="none" stroke="blue" stroke-width="2" />
<circle cx="289.7741894422369" cy="100" r="3" fill="blue" />
<circle cx="315.49717736802796" cy="100" r="4" fill="blue" />
<circle cx="328.63357314075125" cy="100" r="6" fill="none" stroke="black" stroke-width="2" />
<circle cx="328.63357314075125" cy="100" r="3" fill="black" />
<circle cx="340.63357314075125" cy="100" r="4" fill="black" />
<circle cx="352.63357314075125" cy="100" r="6" fill="none" stroke="black" stroke-width="2" />
<circle cx="352.63357314075125" cy="100" r="3" fill="black" />
<circle cx="364.63357314075125" cy="100" r="4" fill="black" />
<circle cx="376.63357314075125" cy="100" r="6" fill="none" stroke="black" stroke-width="2" />
<circle cx="376.63357314075125" cy="100" r="3" fill="black" />
<circle cx="388.63357314075125" cy="100" r="4" fill="black" />
<circle cx="400.63357314075125" cy="100" r="6" fill="none" stroke="black" stroke-width="2" />
<circle cx="400.63357314075125" cy="100" r="3" fill="black" />
<circle cx="412.63357314075125" cy="100" r="4" fill="blue" />
<circle cx="510.7055276351083" cy="100" r="4" fill="blue" />
<circle cx="522.7055276351083" cy="100" r="4" fill="black" />
<circle cx="543.3403982203846" cy="100" r="4" fill="blue" />
<circle cx="561.7369653600715" cy="100" r="6" fill="none" stroke="black" stroke-width="2" />
<circle cx="561.7369653600715" cy="100" r="3" fill="black" />
<circle cx="573.7369653600715" cy="100" r="6" fill="none" stroke="red" stroke-width="2" />
<circle cx="573.7369653600715" cy="100" r="3" fill="red" />
<circle cx="585.7369653600715" cy="100" r="4" fill="red" />
<circle cx="642.26962308163" cy="100" r="6" fill="none" stroke="black" stroke-width="2" />
<circle cx="642.26962308163" cy="100" r="3" fill="black" />
<circle cx="654.26962308163" cy="100" r="4" fill="black" />
<circle cx="804.3820958790033" cy="100" r="6" fill="none" stroke="red" stroke-width="2" />
<circle cx="804.3820958790033" cy="100" r="3" fill="red" />
<circle cx="825.6601860897384" cy="100" r="4" fill="black" />
<circle cx="837.6601860897384" cy="100" r="4" fill="blue" />
<circle cx="850.8798391536859" cy="100" r="6" fill="none" stroke="blue" stroke-width="2" />
<circle cx="850.8798391536859" cy="100" r="3" fill="blue" />
<circle cx="862.8798391536859" cy="100" r="4" fill="red" />
<circle cx="884.8963501321216" cy="100" r="6" fill="none" stroke="blue" stroke-width="2" />
<circle cx="884.8963501321216" cy="100" r="3" fill="blue" />
<circle cx="899.401043783385" cy="100" r="4" fill="red" />
<circle cx="926.5654833747667" cy="100" r="6" fill="none" stroke="black" stroke-width="2" />
<circle cx="926.5654833747667" cy="100" r="3" fill="black" />
<circle cx="950.0" cy="100" r="4" fill="blue" />
<text x="50" y="125" fill="gray" style="font-size:12px;">2025-02-05T20:48:56+00:00</text>
<text x="900" y="125" fill="gray" style="font-size:12px;">2025-02-28T12:11:29+00:00</text>
</svg>