<svg xmlns="http://www.w3.org/2000/svg" width="1000" height="200" style="background-color: white; font-family: sans-serif;">
<line x1="50" y1="100" x2="950" y2="100" stroke="gray" stroke-width="1"/>
<path d="M 62.0 100 Q 56.0 80, 50.0 100" stroke="black" fill="none" marker-end="url(#arrowhead)"/>
<path d="M 74.0 100 Q 62.0 80, 50.0 100" stroke="black" fill="none" marker-end="url(#arrowhead)"/>
<path d="M 86.0 100 Q 74.0 80, 62.0 100" stroke="black" fill="none" marker-end="url(#arrowhead)"/>
<path d="M 98.0 100 Q 86.0 80, 74.0 100" stroke="black" fill="none" marker-end="url(#arrowhead)"/>
<path d="M 110.0 100 Q 98.0 80, 86.0 100" stroke="black" fill="none" marker-end="url(#arrowhead)"/>
<path d="M 262.9980227856828 100 Q 162.4990113928414 80, 62.0 100" stroke="black" fill="none" marker-end="url(#arrowhead)"/>
<path d="M 262.9980227856828 100 Q 174.4990113928414 80, 86.0 100" stroke="black" fill="none" marker-end="url(#arrowhead)"/>
<path d="M 356.59621600926073 100 Q 309.79711939747176 80, 262.9980227856828 100" stroke="black" fill="none" marker-end="url(#arrowhead)"/>
<path d="M 396.6225115000668 100 Q 376.6093637546638 80, 356.59621600926073 100" stroke="black" fill="none" marker-end="url(#arrowhead)"/>
<path d="M 396.6225115000668 100 Q 329.8102671428748 80, 262.9980227856828 100" stroke="black" fill="none" marker-end="url(#arrowhead)"/>
<path d="M 631.5014253682997 100 Q 494.0488206887802 80, 356.59621600926073 100" stroke="black" fill="none" marker-end="url(#arrowhead)"/>
<path d="M 631.5014253682997 100 Q 514.0619684341832 80, 396.6225115000668 100" stroke="black" fill="none" marker-end="url(#arrowhead)"/>
<path d="M 631.5014253682997 100 Q 447.24972407699124 80, 262.9980227856828 100" stroke="black" fill="none" marker-end="url(#arrowhead)"/>
<path d="M 950.0 100 Q 653.2981080046304 80, 356.59621600926073 100" stroke="black" fill="none" marker-end="url(#arrowhead)"/>
<path d="M 950.0 100 Q 673.3112557500334 80, 396.6225115000668 100" stroke="black" fill="none" marker-end="url(#arrowhead)"/>
<path d="M 950.0 100 Q 790.7507126841499 80, 631.5014253682997 100" stroke="black" fill="none" marker-end="url(#arrowhead)"/>
<path d="M 950.0 100 Q 606.4990113928413 80, 262.9980227856828 100" stroke="black" fill="none" marker-end="url(#arrowhead)"/>

<defs>
  <marker id="arrowhead" markerWidth="5" markerHeight="5" 
          refX="2" refY="2" orient="auto" fill="black">
    <path d="M0,0 L0,4 L4,2 z" />
  </marker>
</defs>

<circle cx="50.0" cy="100" r="6" fill="none" stroke="black" stroke-width="2" />
<circle cx="50.0" cy="100" r="3" fill="black" />
<circle cx="62.0" cy="100" r="6" fill="none" stroke="black" stroke-width="2" />
<circle cx="62.0" cy="100" r="3" fill="black" />
<circle cx="74.0" cy="100" r="4" fill="red" />
<circle cx="86.0" cy="100" r="4" fill="black" />
<circle cx="98.0" cy="100" r="6" fill="none" stroke="blue" stroke-width="2" />
<circle cx="98.0" cy="100" r="3" fill="blue" />
<circle cx="110.0" cy="100" r="6" fill="none" stroke="red" stroke-width="2" />
<circle cx="110.0" cy="100" r="3" fill="red" />
<circle cx="262.9980227856828" cy="100" r="4" fill="blue" />
<circle cx="356.59621600926073" cy="100" r="4" fill="black" />
<circle cx="396.6225115000668" cy="100" r="4" fill="black" />
<circle cx="631.5014253682997" cy="100" r="4" fill="red" />
<circle cx="950.0" cy="100" r="4" fill="blue" />
<text x="50" y="125" fill="gray" style="font-size:12px;">2024-12-13T19:10:13+00:00</text>
<text x="900" y="125" fill="gray" style="font-size:12px;">2025-02-13T15:34:55+00:00</text>
</svg>