<svg xmlns="http://www.w3.org/2000/svg" width="1000" height="200" style="background-color: white; font-family: sans-serif;">
<line x1="50" y1="100" x2="950" y2="100" stroke="gray" stroke-width="1"/>
<path d="M 62.0 100 Q 56.0 80, 50.0 100" stroke="black" fill="none" marker-end="url(#arrowhead)"/>
<path d="M 74.0 100 Q 68.0 80, 62.0 100" stroke="black" fill="none" marker-end="url(#arrowhead)"/>
<path d="M 86.0 100 Q 80.0 80, 74.0 100" stroke="black" fill="none" marker-end="url(#arrowhead)"/>
<path d="M 98.0 100 Q 86.0 80, 74.0 100" stroke="black" fill="none" marker-end="url(#arrowhead)"/>
<path d="M 110.0 100 Q 80.0 80, 50.0 100" stroke="black" fill="none" marker-end="url(#arrowhead)"/>
<path d="M 122.0 100 Q 116.0 80, 110.0 100" stroke="black" fill="none" marker-end="url(#arrowhead)"/>
<path d="M 134.0 100 Q 110.0 80, 86.0 100" stroke="black" fill="none" marker-end="url(#arrowhead)"/>
<path d="M 630.920786661849 100 Q 624.920786661849 80, 618.920786661849 100" stroke="black" fill="none" marker-end="url(#arrowhead)"/>
<path d="M 642.920786661849 100 Q 346.4603933309245 80, 50.0 100" stroke="black" fill="none" marker-end="url(#arrowhead)"/>
<path d="M 654.920786661849 100 Q 648.920786661849 80, 642.920786661849 100" stroke="black" fill="none" marker-end="url(#arrowhead)"/>
<path d="M 666.920786661849 100 Q 648.920786661849 80, 630.920786661849 100" stroke="black" fill="none" marker-end="url(#arrowhead)"/>
<path d="M 678.920786661849 100 Q 364.4603933309245 80, 50.0 100" stroke="black" fill="none" marker-end="url(#arrowhead)"/>
<path d="M 690.920786661849 100 Q 684.920786661849 80, 678.920786661849 100" stroke="black" fill="none" marker-end="url(#arrowhead)"/>
<path d="M 702.920786661849 100 Q 678.920786661849 80, 654.920786661849 100" stroke="black" fill="none" marker-end="url(#arrowhead)"/>
<path d="M 950.0 100 Q 826.4603933309245 80, 702.920786661849 100" stroke="black" fill="none" marker-end="url(#arrowhead)"/>

<defs>
  <marker id="arrowhead" markerWidth="5" markerHeight="5" 
          refX="2" refY="2" orient="auto" fill="black">
    <path d="M0,0 L0,4 L4,2 z" />
  </marker>
</defs>

<circle cx="50.0" cy="100" r="6" fill="none" stroke="black" stroke-width="2" />
<circle cx="50.0" cy="100" r="3" fill="black" />
<circle cx="62.0" cy="100" r="4" fill="black" />
<circle cx="74.0" cy="100" r="6" fill="none" stroke="black" stroke-width="2" />
<circle cx="74.0" cy="100" r="3" fill="black" />
<circle cx="86.0" cy="100" r="4" fill="black" />
<circle cx="98.0" cy="100" r="4" fill="black" />
<circle cx="110.0" cy="100" r="4" fill="black" />
<circle cx="122.0" cy="100" r="4" fill="black" />
<circle cx="134.0" cy="100" r="4" fill="black" />
<circle cx="618.920786661849" cy="100" r="6" fill="none" stroke="blue" stroke-width="2" />
<circle cx="618.920786661849" cy="100" r="3" fill="blue" />
<circle cx="630.920786661849" cy="100" r="4" fill="red" />
<circle cx="642.920786661849" cy="100" r="4" fill="black" />
<circle cx="654.920786661849" cy="100" r="6" fill="none" stroke="black" stroke-width="2" />
<circle cx="654.920786661849" cy="100" r="3" fill="black" />
<circle cx="666.920786661849" cy="100" r="6" fill="none" stroke="black" stroke-width="2" />
<circle cx="666.920786661849" cy="100" r="3" fill="black" />
<circle cx="678.920786661849" cy="100" r="4" fill="black" />
<circle cx="690.920786661849" cy="100" r="6" fill="none" stroke="black" stroke-width="2" />
<circle cx="690.920786661849" cy="100" r="3" fill="black" />
<circle cx="702.920786661849" cy="100" r="6" fill="none" stroke="black" stroke-width="2" />
<circle cx="702.920786661849" cy="100" r="3" fill="black" />
<circle cx="950.0" cy="100" r="6" fill="none" stroke="blue" stroke-width="2" />
<circle cx="950.0" cy="100" r="3" fill="blue" />
<text x="50" y="125" fill="gray" style="font-size:12px;">2024-09-24T15:55:08+00:00</text>
<text x="900" y="125" fill="gray" style="font-size:12px;">2024-11-19T17:15:58+00:00</text>
</svg>