<svg xmlns="http://www.w3.org/2000/svg" width="1000" height="200" style="background-color: white; font-family: sans-serif;">
<line x1="50" y1="100" x2="950" y2="100" stroke="gray" stroke-width="1"/>
<path d="M 62.0 100 Q 56.0 80, 50.0 100" stroke="black" fill="none" marker-end="url(#arrowhead)"/>
<path d="M 882.0608982530541 100 Q 478.03044912652706 80, 74.0 100" stroke="black" fill="none" marker-end="url(#arrowhead)"/>
<path d="M 911.2858687860695 100 Q 902.9609474420365 80, 894.6360260980034 100" stroke="black" fill="none" marker-end="url(#arrowhead)"/>
<path d="M 950.0 100 Q 937.1271996510367 80, 924.2543993020734 100" stroke="black" fill="none" marker-end="url(#arrowhead)"/>

<defs>
  <marker id="arrowhead" markerWidth="5" markerHeight="5" 
          refX="2" refY="2" orient="auto" fill="black">
    <path d="M0,0 L0,4 L4,2 z" />
  </marker>
</defs>

<circle cx="50.0" cy="100" r="6" fill="none" stroke="black" stroke-width="2" />
<circle cx="50.0" cy="100" r="3" fill="black" />
<circle cx="62.0" cy="100" r="4" fill="green" />
<circle cx="74.0" cy="100" r="6" fill="none" stroke="blue" stroke-width="2" />
<circle cx="74.0" cy="100" r="3" fill="blue" />
<circle cx="882.0608982530541" cy="100" r="4" fill="red" />
<circle cx="894.6360260980034" cy="100" r="6" fill="none" stroke="blue" stroke-width="2" />
<circle cx="894.6360260980034" cy="100" r="3" fill="blue" />
<circle cx="911.2858687860695" cy="100" r="4" fill="red" />
<circle cx="924.2543993020734" cy="100" r="6" fill="none" stroke="blue" stroke-width="2" />
<circle cx="924.2543993020734" cy="100" r="3" fill="blue" />
<circle cx="950.0" cy="100" r="4" fill="red" />
<text x="50" y="125" fill="gray" style="font-size:12px;">2024-06-09T15:21:52+00:00</text>
<text x="900" y="125" fill="gray" style="font-size:12px;">2024-08-12T05:47:25+00:00</text>
</svg>