<svg xmlns="http://www.w3.org/2000/svg" width="1000" height="400" style="background-color: white; font-family: sans-serif;">
<line x1="50" y1="200" x2="950" y2="200" stroke="gray" stroke-width="1"/>
<path d="M 62.0 200 Q 56.0 180, 50.0 200" stroke="black" fill="none" marker-end="url(#arrowhead)"/>
<path d="M 937.0657383010739 200 Q 499.53286915053695 180, 62.0 200" stroke="black" fill="none" marker-end="url(#arrowhead)"/>
<path d="M 949.1440514896159 200 Q 943.1048948953448 180, 937.0657383010739 200" stroke="black" fill="none" marker-end="url(#arrowhead)"/>
<path d="M 961.1440514896159 200 Q 949.1048948953448 180, 937.0657383010739 200" stroke="black" fill="none" marker-end="url(#arrowhead)"/>
<path d="M 961.1440514896159 200 Q 955.1440514896159 180, 949.1440514896159 200" stroke="black" fill="none" marker-end="url(#arrowhead)"/>

<defs>
  <marker id="arrowhead" markerWidth="5" markerHeight="5" 
          refX="2" refY="2" orient="auto" fill="black">
    <path d="M0,0 L0,4 L4,2 z" />
  </marker>
</defs>

<circle cx="50.0" cy="200" r="6" fill="none" stroke="blue" stroke-width="2" />
<circle cx="50.0" cy="200" r="3" fill="blue" />
<circle cx="62.0" cy="200" r="4" fill="black" />
<circle cx="937.0657383010739" cy="200" r="4" fill="black" />
<circle cx="949.1440514896159" cy="200" r="4" fill="green" />
<circle cx="961.1440514896159" cy="200" r="4" fill="green" />
<text x="50" y="225" fill="gray" style="font-size:12px;">2025-02-07T07:04:45+00:00</text>
<text x="900" y="225" fill="gray" style="font-size:12px;">2025-02-23T12:24:48+00:00</text>
</svg>