<svg xmlns="http://www.w3.org/2000/svg" width="1000" height="400" style="background-color: white; font-family: sans-serif;">
<line x1="50" y1="200" x2="950" y2="200" stroke="gray" stroke-width="1"/>
<path d="M 62.0 200 Q 56.0 180, 50.0 200" stroke="black" fill="none" marker-end="url(#arrowhead)"/>
<path d="M 353.13836825059354 200 Q 207.56918412529677 180, 62.0 200" stroke="black" fill="none" marker-end="url(#arrowhead)"/>
<path d="M 353.13836825059354 200 Q 335.1725305861089 180, 317.2066929216243 200" stroke="black" fill="none" marker-end="url(#arrowhead)"/>
<path d="M 365.13836825059354 200 Q 359.13836825059354 180, 353.13836825059354 200" stroke="black" fill="none" marker-end="url(#arrowhead)"/>
<path d="M 377.13836825059354 200 Q 365.13836825059354 180, 353.13836825059354 200" stroke="black" fill="none" marker-end="url(#arrowhead)"/>
<path d="M 406.57688842280726 200 Q 361.8917906722158 180, 317.2066929216243 200" stroke="black" fill="none" marker-end="url(#arrowhead)"/>
<path d="M 406.57688842280726 200 Q 379.8576283367004 180, 353.13836825059354 200" stroke="black" fill="none" marker-end="url(#arrowhead)"/>
<path d="M 418.57688842280726 200 Q 385.8576283367004 180, 353.13836825059354 200" stroke="black" fill="none" marker-end="url(#arrowhead)"/>
<path d="M 418.57688842280726 200 Q 397.8576283367004 180, 377.13836825059354 200" stroke="black" fill="none" marker-end="url(#arrowhead)"/>
<path d="M 430.57688842280726 200 Q 412.57688842280726 180, 394.57688842280726 200" stroke="black" fill="none" marker-end="url(#arrowhead)"/>
<path d="M 430.57688842280726 200 Q 373.8917906722158 180, 317.2066929216243 200" stroke="black" fill="none" marker-end="url(#arrowhead)"/>
<path d="M 442.57688842280726 200 Q 436.57688842280726 180, 430.57688842280726 200" stroke="black" fill="none" marker-end="url(#arrowhead)"/>
<path d="M 454.57688842280726 200 Q 385.8917906722158 180, 317.2066929216243 200" stroke="black" fill="none" marker-end="url(#arrowhead)"/>
<path d="M 454.57688842280726 200 Q 442.57688842280726 180, 430.57688842280726 200" stroke="black" fill="none" marker-end="url(#arrowhead)"/>
<path d="M 454.57688842280726 200 Q 448.57688842280726 180, 442.57688842280726 200" stroke="black" fill="none" marker-end="url(#arrowhead)"/>
<path d="M 466.57688842280726 200 Q 430.57688842280726 180, 394.57688842280726 200" stroke="black" fill="none" marker-end="url(#arrowhead)"/>
<path d="M 466.57688842280726 200 Q 460.57688842280726 180, 454.57688842280726 200" stroke="black" fill="none" marker-end="url(#arrowhead)"/>
<path d="M 683.3412652242981 200 Q 538.9590768235527 180, 394.57688842280726 200" stroke="black" fill="none" marker-end="url(#arrowhead)"/>
<path d="M 683.3412652242981 200 Q 574.9590768235527 180, 466.57688842280726 200" stroke="black" fill="none" marker-end="url(#arrowhead)"/>
<path d="M 683.3412652242981 200 Q 562.9590768235527 180, 442.57688842280726 200" stroke="black" fill="none" marker-end="url(#arrowhead)"/>
<path d="M 740.0565033633808 200 Q 734.0565033633808 180, 728.0565033633808 200" stroke="black" fill="none" marker-end="url(#arrowhead)"/>
<path d="M 752.0565033633808 200 Q 746.0565033633808 180, 740.0565033633808 200" stroke="black" fill="none" marker-end="url(#arrowhead)"/>
<path d="M 764.6606157100467 200 Q 752.3585595367138 180, 740.0565033633808 200" stroke="black" fill="none" marker-end="url(#arrowhead)"/>
<path d="M 764.6606157100467 200 Q 758.3585595367138 180, 752.0565033633808 200" stroke="black" fill="none" marker-end="url(#arrowhead)"/>
<path d="M 776.6606157100467 200 Q 770.6606157100467 180, 764.6606157100467 200" stroke="black" fill="none" marker-end="url(#arrowhead)"/>
<path d="M 776.6606157100467 200 Q 758.3585595367138 180, 740.0565033633808 200" stroke="black" fill="none" marker-end="url(#arrowhead)"/>
<path d="M 776.6606157100467 200 Q 764.3585595367138 180, 752.0565033633808 200" stroke="black" fill="none" marker-end="url(#arrowhead)"/>
<path d="M 900.82920147581 200 Q 792.0852333500541 180, 683.3412652242981 200" stroke="black" fill="none" marker-end="url(#arrowhead)"/>
<path d="M 943.4116932414909 200 Q 937.4116932414909 180, 931.4116932414909 200" stroke="black" fill="none" marker-end="url(#arrowhead)"/>
<path d="M 955.4116932414909 200 Q 819.3764792328946 180, 683.3412652242981 200" stroke="black" fill="none" marker-end="url(#arrowhead)"/>
<path d="M 955.4116932414909 200 Q 928.1204473586504 180, 900.82920147581 200" stroke="black" fill="none" marker-end="url(#arrowhead)"/>
<path d="M 979.4116932414909 200 Q 940.1204473586504 180, 900.82920147581 200" stroke="black" fill="none" marker-end="url(#arrowhead)"/>
<path d="M 979.4116932414909 200 Q 967.4116932414909 180, 955.4116932414909 200" stroke="black" fill="none" marker-end="url(#arrowhead)"/>
<path d="M 991.4116932414909 200 Q 985.4116932414909 180, 979.4116932414909 200" stroke="black" fill="none" marker-end="url(#arrowhead)"/>
<path d="M 991.4116932414909 200 Q 946.1204473586504 180, 900.82920147581 200" stroke="black" fill="none" marker-end="url(#arrowhead)"/>
<path d="M 991.4116932414909 200 Q 973.4116932414909 180, 955.4116932414909 200" stroke="black" fill="none" marker-end="url(#arrowhead)"/>
<path d="M 1003.4116932414909 200 Q 952.1204473586504 180, 900.82920147581 200" stroke="black" fill="none" marker-end="url(#arrowhead)"/>
<path d="M 1003.4116932414909 200 Q 997.4116932414909 180, 991.4116932414909 200" stroke="black" fill="none" marker-end="url(#arrowhead)"/>
<path d="M 1003.4116932414909 200 Q 991.4116932414909 180, 979.4116932414909 200" stroke="black" fill="none" marker-end="url(#arrowhead)"/>
<path d="M 1003.4116932414909 200 Q 979.4116932414909 180, 955.4116932414909 200" stroke="black" fill="none" marker-end="url(#arrowhead)"/>
<path d="M 1015.4116932414909 200 Q 958.1204473586504 180, 900.82920147581 200" stroke="black" fill="none" marker-end="url(#arrowhead)"/>
<path d="M 1015.4116932414909 200 Q 985.4116932414909 180, 955.4116932414909 200" stroke="black" fill="none" marker-end="url(#arrowhead)"/>
<path d="M 1015.4116932414909 200 Q 1003.4116932414909 180, 991.4116932414909 200" stroke="black" fill="none" marker-end="url(#arrowhead)"/>
<path d="M 1015.4116932414909 200 Q 997.4116932414909 180, 979.4116932414909 200" stroke="black" fill="none" marker-end="url(#arrowhead)"/>
<path d="M 1015.4116932414909 200 Q 1009.4116932414909 180, 1003.4116932414909 200" stroke="black" fill="none" marker-end="url(#arrowhead)"/>

<defs>
  <marker id="arrowhead" markerWidth="5" markerHeight="5" 
          refX="2" refY="2" orient="auto" fill="black">
    <path d="M0,0 L0,4 L4,2 z" />
  </marker>
</defs>

<circle cx="50.0" cy="200" r="6" fill="none" stroke="blue" stroke-width="2" />
<circle cx="50.0" cy="200" r="3" fill="blue" />
<circle cx="62.0" cy="200" r="4" fill="black" />
<circle cx="317.2066929216243" cy="200" r="4" fill="red" />
<circle cx="353.13836825059354" cy="200" r="6" fill="none" stroke="blue" stroke-width="2" />
<circle cx="353.13836825059354" cy="200" r="3" fill="blue" />
<circle cx="365.13836825059354" cy="200" r="6" fill="none" stroke="blue" stroke-width="2" />
<circle cx="365.13836825059354" cy="200" r="3" fill="blue" />
<circle cx="377.13836825059354" cy="200" r="6" fill="none" stroke="blue" stroke-width="2" />
<circle cx="377.13836825059354" cy="200" r="3" fill="blue" />
<circle cx="394.57688842280726" cy="200" r="4" fill="black" />
<circle cx="406.57688842280726" cy="200" r="4" fill="red" />
<circle cx="418.57688842280726" cy="200" r="4" fill="red" />
<circle cx="430.57688842280726" cy="200" r="4" fill="black" />
<circle cx="442.57688842280726" cy="200" r="4" fill="blue" />
<circle cx="454.57688842280726" cy="200" r="4" fill="black" />
<circle cx="466.57688842280726" cy="200" r="4" fill="black" />
<circle cx="683.3412652242981" cy="200" r="6" fill="none" stroke="blue" stroke-width="2" />
<circle cx="683.3412652242981" cy="200" r="3" fill="blue" />
<circle cx="728.0565033633808" cy="200" r="4" fill="black" />
<circle cx="740.0565033633808" cy="200" r="4" fill="black" />
<circle cx="752.0565033633808" cy="200" r="4" fill="blue" />
<circle cx="764.6606157100467" cy="200" r="4" fill="black" />
<circle cx="776.6606157100467" cy="200" r="4" fill="black" />
<circle cx="900.82920147581" cy="200" r="4" fill="black" />
<circle cx="931.4116932414909" cy="200" r="6" fill="none" stroke="black" stroke-width="2" />
<circle cx="931.4116932414909" cy="200" r="3" fill="black" />
<circle cx="943.4116932414909" cy="200" r="4" fill="red" />
<circle cx="955.4116932414909" cy="200" r="4" fill="red" />
<circle cx="967.4116932414909" cy="200" r="6" fill="none" stroke="blue" stroke-width="2" />
<circle cx="967.4116932414909" cy="200" r="3" fill="blue" />
<circle cx="979.4116932414909" cy="200" r="4" fill="black" />
<circle cx="991.4116932414909" cy="200" r="4" fill="red" />
<circle cx="1003.4116932414909" cy="200" r="6" fill="none" stroke="blue" stroke-width="2" />
<circle cx="1003.4116932414909" cy="200" r="3" fill="blue" />
<circle cx="1015.4116932414909" cy="200" r="4" fill="black" />
<text x="50" y="225" fill="gray" style="font-size:12px;">2024-03-01T00:19:42+00:00</text>
<text x="900" y="225" fill="gray" style="font-size:12px;">2025-02-12T11:11:36+00:00</text>
</svg>