<svg xmlns="http://www.w3.org/2000/svg" width="1000" height="400" style="background-color: white; font-family: sans-serif;">
<line x1="50" y1="200" x2="950" y2="200" stroke="gray" stroke-width="1"/>
<path d="M 62.0 200 Q 56.0 180, 50.0 200" stroke="black" fill="none" marker-end="url(#arrowhead)"/>
<path d="M 74.0 200 Q 68.0 180, 62.0 200" stroke="black" fill="none" marker-end="url(#arrowhead)"/>
<path d="M 98.0 200 Q 74.0 180, 50.0 200" stroke="black" fill="none" marker-end="url(#arrowhead)"/>
<path d="M 122.0 200 Q 104.0 180, 86.0 200" stroke="black" fill="none" marker-end="url(#arrowhead)"/>
<path d="M 134.0 200 Q 128.0 180, 122.0 200" stroke="black" fill="none" marker-end="url(#arrowhead)"/>
<path d="M 146.0 200 Q 128.0 180, 110.0 200" stroke="black" fill="none" marker-end="url(#arrowhead)"/>
<path d="M 158.0 200 Q 152.0 180, 146.0 200" stroke="black" fill="none" marker-end="url(#arrowhead)"/>
<path d="M 170.0 200 Q 152.0 180, 134.0 200" stroke="black" fill="none" marker-end="url(#arrowhead)"/>
<path d="M 182.0 200 Q 170.0 180, 158.0 200" stroke="black" fill="none" marker-end="url(#arrowhead)"/>
<path d="M 199.92053703719031 200 Q 190.96026851859517 180, 182.0 200" stroke="black" fill="none" marker-end="url(#arrowhead)"/>
<path d="M 211.92053703719031 200 Q 205.92053703719031 180, 199.92053703719031 200" stroke="black" fill="none" marker-end="url(#arrowhead)"/>
<path d="M 223.92053703719031 200 Q 211.92053703719031 180, 199.92053703719031 200" stroke="black" fill="none" marker-end="url(#arrowhead)"/>
<path d="M 610.2187359949485 200 Q 529.9589559607273 180, 449.6991759265062 200" stroke="black" fill="none" marker-end="url(#arrowhead)"/>
<path d="M 622.2187359949485 200 Q 616.2187359949485 180, 610.2187359949485 200" stroke="black" fill="none" marker-end="url(#arrowhead)"/>
<path d="M 634.2187359949485 200 Q 628.2187359949485 180, 622.2187359949485 200" stroke="black" fill="none" marker-end="url(#arrowhead)"/>
<path d="M 646.2187359949485 200 Q 640.2187359949485 180, 634.2187359949485 200" stroke="black" fill="none" marker-end="url(#arrowhead)"/>
<path d="M 658.2187359949485 200 Q 652.2187359949485 180, 646.2187359949485 200" stroke="black" fill="none" marker-end="url(#arrowhead)"/>
<path d="M 700.8897013871726 200 Q 655.5542186910606 180, 610.2187359949485 200" stroke="black" fill="none" marker-end="url(#arrowhead)"/>
<path d="M 712.8897013871726 200 Q 692.7972642037089 180, 672.7048270202453 200" stroke="black" fill="none" marker-end="url(#arrowhead)"/>
<path d="M 724.8897013871726 200 Q 718.8897013871726 180, 712.8897013871726 200" stroke="black" fill="none" marker-end="url(#arrowhead)"/>
<path d="M 736.8897013871726 200 Q 704.7972642037089 180, 672.7048270202453 200" stroke="black" fill="none" marker-end="url(#arrowhead)"/>
<path d="M 760.8897013871726 200 Q 748.8897013871726 180, 736.8897013871726 200" stroke="black" fill="none" marker-end="url(#arrowhead)"/>
<path d="M 772.8897013871726 200 Q 760.8897013871726 180, 748.8897013871726 200" stroke="black" fill="none" marker-end="url(#arrowhead)"/>
<path d="M 784.8897013871726 200 Q 754.8897013871726 180, 724.8897013871726 200" stroke="black" fill="none" marker-end="url(#arrowhead)"/>
<path d="M 796.8897013871726 200 Q 778.8897013871726 180, 760.8897013871726 200" stroke="black" fill="none" marker-end="url(#arrowhead)"/>
<path d="M 808.8897013871726 200 Q 772.8897013871726 180, 736.8897013871726 200" stroke="black" fill="none" marker-end="url(#arrowhead)"/>
<path d="M 808.8897013871726 200 Q 784.8897013871726 180, 760.8897013871726 200" stroke="black" fill="none" marker-end="url(#arrowhead)"/>
<path d="M 820.8897013871726 200 Q 760.8897013871726 180, 700.8897013871726 200" stroke="black" fill="none" marker-end="url(#arrowhead)"/>
<path d="M 832.8897013871726 200 Q 826.8897013871726 180, 820.8897013871726 200" stroke="black" fill="none" marker-end="url(#arrowhead)"/>
<path d="M 844.8897013871726 200 Q 826.8897013871726 180, 808.8897013871726 200" stroke="black" fill="none" marker-end="url(#arrowhead)"/>
<path d="M 856.8897013871726 200 Q 826.8897013871726 180, 796.8897013871726 200" stroke="black" fill="none" marker-end="url(#arrowhead)"/>
<path d="M 868.8897013871726 200 Q 850.8897013871726 180, 832.8897013871726 200" stroke="black" fill="none" marker-end="url(#arrowhead)"/>
<path d="M 880.8897013871726 200 Q 874.8897013871726 180, 868.8897013871726 200" stroke="black" fill="none" marker-end="url(#arrowhead)"/>
<path d="M 892.8897013871726 200 Q 886.8897013871726 180, 880.8897013871726 200" stroke="black" fill="none" marker-end="url(#arrowhead)"/>
<path d="M 904.8897013871726 200 Q 898.8897013871726 180, 892.8897013871726 200" stroke="black" fill="none" marker-end="url(#arrowhead)"/>
<path d="M 916.8897013871726 200 Q 910.8897013871726 180, 904.8897013871726 200" stroke="black" fill="none" marker-end="url(#arrowhead)"/>
<path d="M 928.8897013871726 200 Q 892.8897013871726 180, 856.8897013871726 200" stroke="black" fill="none" marker-end="url(#arrowhead)"/>
<path d="M 940.8897013871726 200 Q 934.8897013871726 180, 928.8897013871726 200" stroke="black" fill="none" marker-end="url(#arrowhead)"/>
<path d="M 952.8897013871726 200 Q 946.8897013871726 180, 940.8897013871726 200" stroke="black" fill="none" marker-end="url(#arrowhead)"/>
<path d="M 976.8897013871726 200 Q 970.8897013871726 180, 964.8897013871726 200" stroke="black" fill="none" marker-end="url(#arrowhead)"/>
<path d="M 988.8897013871726 200 Q 976.8897013871726 180, 964.8897013871726 200" stroke="black" fill="none" marker-end="url(#arrowhead)"/>
<path d="M 1000.8897013871726 200 Q 994.8897013871726 180, 988.8897013871726 200" stroke="black" fill="none" marker-end="url(#arrowhead)"/>
<path d="M 1012.8897013871726 200 Q 994.8897013871726 180, 976.8897013871726 200" stroke="black" fill="none" marker-end="url(#arrowhead)"/>
<path d="M 1024.8897013871726 200 Q 1006.8897013871726 180, 988.8897013871726 200" stroke="black" fill="none" marker-end="url(#arrowhead)"/>
<path d="M 1036.8897013871726 200 Q 1030.8897013871726 180, 1024.8897013871726 200" stroke="black" fill="none" marker-end="url(#arrowhead)"/>
<path d="M 1048.8897013871726 200 Q 1018.8897013871726 180, 988.8897013871726 200" stroke="black" fill="none" marker-end="url(#arrowhead)"/>
<path d="M 1060.8897013871726 200 Q 1054.8897013871726 180, 1048.8897013871726 200" stroke="black" fill="none" marker-end="url(#arrowhead)"/>
<path d="M 1060.8897013871726 200 Q 886.8897013871726 180, 712.8897013871726 200" stroke="black" fill="none" marker-end="url(#arrowhead)"/>
<path d="M 1072.8897013871726 200 Q 1060.8897013871726 180, 1048.8897013871726 200" stroke="black" fill="none" marker-end="url(#arrowhead)"/>
<path d="M 1084.8897013871726 200 Q 1048.8897013871726 180, 1012.8897013871726 200" stroke="black" fill="none" marker-end="url(#arrowhead)"/>
<path d="M 1096.8897013871726 200 Q 1078.8897013871726 180, 1060.8897013871726 200" stroke="black" fill="none" marker-end="url(#arrowhead)"/>
<path d="M 1108.8897013871726 200 Q 1102.8897013871726 180, 1096.8897013871726 200" stroke="black" fill="none" marker-end="url(#arrowhead)"/>
<path d="M 1144.8897013871726 200 Q 1132.8897013871726 180, 1120.8897013871726 200" stroke="black" fill="none" marker-end="url(#arrowhead)"/>

<defs>
  <marker id="arrowhead" markerWidth="5" markerHeight="5" 
          refX="2" refY="2" orient="auto" fill="black">
    <path d="M0,0 L0,4 L4,2 z" />
  </marker>
</defs>

<circle cx="50.0" cy="200" r="6" fill="none" stroke="black" stroke-width="2" />
<circle cx="50.0" cy="200" r="3" fill="black" />
<circle cx="62.0" cy="200" r="4" fill="red" />
<circle cx="74.0" cy="200" r="6" fill="none" stroke="red" stroke-width="2" />
<circle cx="74.0" cy="200" r="3" fill="red" />
<circle cx="86.0" cy="200" r="4" fill="red" />
<circle cx="98.0" cy="200" r="4" fill="black" />
<circle cx="110.0" cy="200" r="6" fill="none" stroke="blue" stroke-width="2" />
<circle cx="110.0" cy="200" r="3" fill="blue" />
<circle cx="122.0" cy="200" r="6" fill="none" stroke="black" stroke-width="2" />
<circle cx="122.0" cy="200" r="3" fill="black" />
<circle cx="134.0" cy="200" r="4" fill="blue" />
<circle cx="146.0" cy="200" r="4" fill="red" />
<circle cx="158.0" cy="200" r="6" fill="none" stroke="red" stroke-width="2" />
<circle cx="158.0" cy="200" r="3" fill="red" />
<circle cx="170.0" cy="200" r="6" fill="none" stroke="green" stroke-width="2" />
<circle cx="170.0" cy="200" r="3" fill="green" />
<circle cx="182.0" cy="200" r="4" fill="red" />
<circle cx="199.92053703719031" cy="200" r="6" fill="none" stroke="black" stroke-width="2" />
<circle cx="199.92053703719031" cy="200" r="3" fill="black" />
<circle cx="211.92053703719031" cy="200" r="4" fill="black" />
<circle cx="223.92053703719031" cy="200" r="4" fill="green" />
<circle cx="449.6991759265062" cy="200" r="4" fill="black" />
<circle cx="610.2187359949485" cy="200" r="6" fill="none" stroke="black" stroke-width="2" />
<circle cx="610.2187359949485" cy="200" r="3" fill="black" />
<circle cx="622.2187359949485" cy="200" r="4" fill="red" />
<circle cx="634.2187359949485" cy="200" r="6" fill="none" stroke="black" stroke-width="2" />
<circle cx="634.2187359949485" cy="200" r="3" fill="black" />
<circle cx="646.2187359949485" cy="200" r="4" fill="green" />
<circle cx="658.2187359949485" cy="200" r="6" fill="none" stroke="black" stroke-width="2" />
<circle cx="658.2187359949485" cy="200" r="3" fill="black" />
<circle cx="672.7048270202453" cy="200" r="6" fill="none" stroke="blue" stroke-width="2" />
<circle cx="672.7048270202453" cy="200" r="3" fill="blue" />
<circle cx="700.8897013871726" cy="200" r="6" fill="none" stroke="black" stroke-width="2" />
<circle cx="700.8897013871726" cy="200" r="3" fill="black" />
<circle cx="712.8897013871726" cy="200" r="4" fill="red" />
<circle cx="724.8897013871726" cy="200" r="6" fill="none" stroke="red" stroke-width="2" />
<circle cx="724.8897013871726" cy="200" r="3" fill="red" />
<circle cx="736.8897013871726" cy="200" r="4" fill="blue" />
<circle cx="748.8897013871726" cy="200" r="4" fill="red" />
<circle cx="760.8897013871726" cy="200" r="6" fill="none" stroke="blue" stroke-width="2" />
<circle cx="760.8897013871726" cy="200" r="3" fill="blue" />
<circle cx="772.8897013871726" cy="200" r="6" fill="none" stroke="red" stroke-width="2" />
<circle cx="772.8897013871726" cy="200" r="3" fill="red" />
<circle cx="784.8897013871726" cy="200" r="4" fill="green" />
<circle cx="796.8897013871726" cy="200" r="4" fill="red" />
<circle cx="808.8897013871726" cy="200" r="4" fill="blue" />
<circle cx="820.8897013871726" cy="200" r="4" fill="black" />
<circle cx="832.8897013871726" cy="200" r="6" fill="none" stroke="black" stroke-width="2" />
<circle cx="832.8897013871726" cy="200" r="3" fill="black" />
<circle cx="844.8897013871726" cy="200" r="6" fill="none" stroke="red" stroke-width="2" />
<circle cx="844.8897013871726" cy="200" r="3" fill="red" />
<circle cx="856.8897013871726" cy="200" r="6" fill="none" stroke="red" stroke-width="2" />
<circle cx="856.8897013871726" cy="200" r="3" fill="red" />
<circle cx="868.8897013871726" cy="200" r="4" fill="black" />
<circle cx="880.8897013871726" cy="200" r="6" fill="none" stroke="black" stroke-width="2" />
<circle cx="880.8897013871726" cy="200" r="3" fill="black" />
<circle cx="892.8897013871726" cy="200" r="4" fill="blue" />
<circle cx="904.8897013871726" cy="200" r="6" fill="none" stroke="black" stroke-width="2" />
<circle cx="904.8897013871726" cy="200" r="3" fill="black" />
<circle cx="916.8897013871726" cy="200" r="4" fill="black" />
<circle cx="928.8897013871726" cy="200" r="4" fill="red" />
<circle cx="940.8897013871726" cy="200" r="6" fill="none" stroke="black" stroke-width="2" />
<circle cx="940.8897013871726" cy="200" r="3" fill="black" />
<circle cx="952.8897013871726" cy="200" r="4" fill="green" />
<circle cx="964.8897013871726" cy="200" r="6" fill="none" stroke="blue" stroke-width="2" />
<circle cx="964.8897013871726" cy="200" r="3" fill="blue" />
<circle cx="976.8897013871726" cy="200" r="4" fill="black" />
<circle cx="988.8897013871726" cy="200" r="4" fill="red" />
<circle cx="1000.8897013871726" cy="200" r="6" fill="none" stroke="red" stroke-width="2" />
<circle cx="1000.8897013871726" cy="200" r="3" fill="red" />
<circle cx="1012.8897013871726" cy="200" r="6" fill="none" stroke="black" stroke-width="2" />
<circle cx="1012.8897013871726" cy="200" r="3" fill="black" />
<circle cx="1024.8897013871726" cy="200" r="4" fill="black" />
<circle cx="1036.8897013871726" cy="200" r="4" fill="green" />
<circle cx="1048.8897013871726" cy="200" r="6" fill="none" stroke="red" stroke-width="2" />
<circle cx="1048.8897013871726" cy="200" r="3" fill="red" />
<circle cx="1060.8897013871726" cy="200" r="4" fill="red" />
<circle cx="1072.8897013871726" cy="200" r="4" fill="black" />
<circle cx="1084.8897013871726" cy="200" r="4" fill="black" />
<circle cx="1096.8897013871726" cy="200" r="6" fill="none" stroke="black" stroke-width="2" />
<circle cx="1096.8897013871726" cy="200" r="3" fill="black" />
<circle cx="1108.8897013871726" cy="200" r="4" fill="black" />
<circle cx="1120.8897013871726" cy="200" r="6" fill="none" stroke="blue" stroke-width="2" />
<circle cx="1120.8897013871726" cy="200" r="3" fill="blue" />
<circle cx="1132.8897013871726" cy="200" r="6" fill="none" stroke="black" stroke-width="2" />
<circle cx="1132.8897013871726" cy="200" r="3" fill="black" />
<circle cx="1144.8897013871726" cy="200" r="6" fill="none" stroke="black" stroke-width="2" />
<circle cx="1144.8897013871726" cy="200" r="3" fill="black" />
<text x="50" y="225" fill="gray" style="font-size:12px;">2024-09-01T06:27:50+00:00</text>
<text x="900" y="225" fill="gray" style="font-size:12px;">2025-02-24T10:50:56+00:00</text>
</svg>