<svg xmlns="http://www.w3.org/2000/svg" width="1000" height="200" style="background-color: white; font-family: sans-serif;">
<line x1="50" y1="100" x2="950" y2="100" stroke="gray" stroke-width="1"/>
<path d="M 62.0 100 Q 56.0 80, 50.0 100" stroke="black" fill="none" marker-end="url(#arrowhead)"/>
<path d="M 74.0 100 Q 68.0 80, 62.0 100" stroke="black" fill="none" marker-end="url(#arrowhead)"/>
<path d="M 86.0 100 Q 74.0 80, 62.0 100" stroke="black" fill="none" marker-end="url(#arrowhead)"/>
<path d="M 130.00289212047088 100 Q 90.00144606023544 80, 50.0 100" stroke="black" fill="none" marker-end="url(#arrowhead)"/>
<path d="M 142.00289212047088 100 Q 96.00144606023544 80, 50.0 100" stroke="black" fill="none" marker-end="url(#arrowhead)"/>
<path d="M 142.00289212047088 100 Q 136.00289212047088 80, 130.00289212047088 100" stroke="black" fill="none" marker-end="url(#arrowhead)"/>
<path d="M 154.00289212047088 100 Q 148.00289212047088 80, 142.00289212047088 100" stroke="black" fill="none" marker-end="url(#arrowhead)"/>
<path d="M 154.00289212047088 100 Q 142.00289212047088 80, 130.00289212047088 100" stroke="black" fill="none" marker-end="url(#arrowhead)"/>
<path d="M 166.00289212047088 100 Q 126.00144606023544 80, 86.0 100" stroke="black" fill="none" marker-end="url(#arrowhead)"/>
<path d="M 950.0 100 Q 854.0067424510503 80, 758.0134849021006 100" stroke="black" fill="none" marker-end="url(#arrowhead)"/>

<defs>
  <marker id="arrowhead" markerWidth="5" markerHeight="5" 
          refX="2" refY="2" orient="auto" fill="black">
    <path d="M0,0 L0,4 L4,2 z" />
  </marker>
</defs>

<circle cx="50.0" cy="100" r="6" fill="none" stroke="blue" stroke-width="2" />
<circle cx="50.0" cy="100" r="3" fill="blue" />
<circle cx="62.0" cy="100" r="4" fill="red" />
<circle cx="74.0" cy="100" r="4" fill="black" />
<circle cx="86.0" cy="100" r="6" fill="none" stroke="red" stroke-width="2" />
<circle cx="86.0" cy="100" r="3" fill="red" />
<circle cx="130.00289212047088" cy="100" r="4" fill="black" />
<circle cx="142.00289212047088" cy="100" r="4" fill="black" />
<circle cx="154.00289212047088" cy="100" r="4" fill="black" />
<circle cx="166.00289212047088" cy="100" r="6" fill="none" stroke="blue" stroke-width="2" />
<circle cx="166.00289212047088" cy="100" r="3" fill="blue" />
<circle cx="758.0134849021006" cy="100" r="4" fill="red" />
<circle cx="770.0134849021006" cy="100" r="4" fill="black" />
<circle cx="950.0" cy="100" r="6" fill="none" stroke="blue" stroke-width="2" />
<circle cx="950.0" cy="100" r="3" fill="blue" />
<text x="50" y="125" fill="gray" style="font-size:12px;">2024-10-06T15:36:49+00:00</text>
<text x="900" y="125" fill="gray" style="font-size:12px;">2025-01-25T19:46:58+00:00</text>
</svg>