<svg xmlns="http://www.w3.org/2000/svg" width="1000" height="400" style="background-color: white; font-family: sans-serif;">
<line x1="50" y1="200" x2="950" y2="200" stroke="gray" stroke-width="1"/>
<path d="M 117.52952856789712 200 Q 83.76476428394855 180, 50.0 200" stroke="black" fill="none" marker-end="url(#arrowhead)"/>
<path d="M 129.5295285678971 200 Q 123.5295285678971 180, 117.52952856789712 200" stroke="black" fill="none" marker-end="url(#arrowhead)"/>
<path d="M 169.81795489670782 200 Q 109.90897744835391 180, 50.0 200" stroke="black" fill="none" marker-end="url(#arrowhead)"/>
<path d="M 276.718907327426 200 Q 223.2684311120669 180, 169.81795489670782 200" stroke="black" fill="none" marker-end="url(#arrowhead)"/>
<path d="M 293.99992764822565 200 Q 211.76472810806138 180, 129.5295285678971 200" stroke="black" fill="none" marker-end="url(#arrowhead)"/>
<path d="M 362.8271656795339 200 Q 328.41354666387974 180, 293.99992764822565 200" stroke="black" fill="none" marker-end="url(#arrowhead)"/>
<path d="M 840.9385431970239 200 Q 601.8828544382789 180, 362.8271656795339 200" stroke="black" fill="none" marker-end="url(#arrowhead)"/>
<path d="M 864.1803448365955 200 Q 852.5594440168097 180, 840.9385431970239 200" stroke="black" fill="none" marker-end="url(#arrowhead)"/>
<path d="M 922.5519475690809 200 Q 881.7452453830524 180, 840.9385431970239 200" stroke="black" fill="none" marker-end="url(#arrowhead)"/>
<path d="M 922.5519475690809 200 Q 893.3661462028382 180, 864.1803448365955 200" stroke="black" fill="none" marker-end="url(#arrowhead)"/>

<defs>
  <marker id="arrowhead" markerWidth="5" markerHeight="5" 
          refX="2" refY="2" orient="auto" fill="black">
    <path d="M0,0 L0,4 L4,2 z" />
  </marker>
</defs>

<circle cx="50.0" cy="200" r="6" fill="none" stroke="blue" stroke-width="2" />
<circle cx="50.0" cy="200" r="3" fill="blue" />
<circle cx="117.52952856789712" cy="200" r="6" fill="none" stroke="blue" stroke-width="2" />
<circle cx="117.52952856789712" cy="200" r="3" fill="blue" />
<circle cx="129.5295285678971" cy="200" r="4" fill="red" />
<circle cx="169.81795489670782" cy="200" r="4" fill="red" />
<circle cx="276.718907327426" cy="200" r="6" fill="none" stroke="black" stroke-width="2" />
<circle cx="276.718907327426" cy="200" r="3" fill="black" />
<circle cx="293.99992764822565" cy="200" r="6" fill="none" stroke="red" stroke-width="2" />
<circle cx="293.99992764822565" cy="200" r="3" fill="red" />
<circle cx="362.8271656795339" cy="200" r="6" fill="none" stroke="blue" stroke-width="2" />
<circle cx="362.8271656795339" cy="200" r="3" fill="blue" />
<circle cx="840.9385431970239" cy="200" r="4" fill="red" />
<circle cx="864.1803448365955" cy="200" r="6" fill="none" stroke="black" stroke-width="2" />
<circle cx="864.1803448365955" cy="200" r="3" fill="black" />
<circle cx="922.5519475690809" cy="200" r="4" fill="black" />
<circle cx="950.0" cy="200" r="6" fill="none" stroke="black" stroke-width="2" />
<circle cx="950.0" cy="200" r="3" fill="black" />
<text x="50" y="225" fill="gray" style="font-size:12px;">2024-12-27T03:32:25+00:00</text>
<text x="900" y="225" fill="gray" style="font-size:12px;">2025-02-16T23:27:46+00:00</text>
</svg>