<svg xmlns="http://www.w3.org/2000/svg" width="1000" height="200" style="background-color: white; font-family: sans-serif;">
<line x1="50" y1="100" x2="950" y2="100" stroke="gray" stroke-width="1"/>
<path d="M 117.52952856789712 100 Q 83.76476428394855 80, 50.0 100" stroke="black" fill="none" marker-end="url(#arrowhead)"/>
<path d="M 129.5295285678971 100 Q 123.5295285678971 80, 117.52952856789712 100" stroke="black" fill="none" marker-end="url(#arrowhead)"/>
<path d="M 169.81795489670782 100 Q 109.90897744835391 80, 50.0 100" stroke="black" fill="none" marker-end="url(#arrowhead)"/>
<path d="M 276.718907327426 100 Q 223.2684311120669 80, 169.81795489670782 100" stroke="black" fill="none" marker-end="url(#arrowhead)"/>
<path d="M 293.99992764822565 100 Q 211.76472810806138 80, 129.5295285678971 100" stroke="black" fill="none" marker-end="url(#arrowhead)"/>
<path d="M 362.8271656795339 100 Q 328.41354666387974 80, 293.99992764822565 100" stroke="black" fill="none" marker-end="url(#arrowhead)"/>
<path d="M 840.9385431970239 100 Q 601.8828544382789 80, 362.8271656795339 100" stroke="black" fill="none" marker-end="url(#arrowhead)"/>
<path d="M 864.1803448365955 100 Q 852.5594440168097 80, 840.9385431970239 100" stroke="black" fill="none" marker-end="url(#arrowhead)"/>
<path d="M 922.5519475690809 100 Q 881.7452453830524 80, 840.9385431970239 100" stroke="black" fill="none" marker-end="url(#arrowhead)"/>
<path d="M 922.5519475690809 100 Q 893.3661462028382 80, 864.1803448365955 100" stroke="black" fill="none" marker-end="url(#arrowhead)"/>

<defs>
  <marker id="arrowhead" markerWidth="5" markerHeight="5" 
          refX="2" refY="2" orient="auto" fill="black">
    <path d="M0,0 L0,4 L4,2 z" />
  </marker>
</defs>

<circle cx="50.0" cy="100" r="6" fill="none" stroke="blue" stroke-width="2" />
<circle cx="50.0" cy="100" r="3" fill="blue" />
<circle cx="117.52952856789712" cy="100" r="6" fill="none" stroke="blue" stroke-width="2" />
<circle cx="117.52952856789712" cy="100" r="3" fill="blue" />
<circle cx="129.5295285678971" cy="100" r="4" fill="red" />
<circle cx="169.81795489670782" cy="100" r="4" fill="red" />
<circle cx="276.718907327426" cy="100" r="6" fill="none" stroke="black" stroke-width="2" />
<circle cx="276.718907327426" cy="100" r="3" fill="black" />
<circle cx="293.99992764822565" cy="100" r="6" fill="none" stroke="red" stroke-width="2" />
<circle cx="293.99992764822565" cy="100" r="3" fill="red" />
<circle cx="362.8271656795339" cy="100" r="6" fill="none" stroke="blue" stroke-width="2" />
<circle cx="362.8271656795339" cy="100" r="3" fill="blue" />
<circle cx="840.9385431970239" cy="100" r="4" fill="red" />
<circle cx="864.1803448365955" cy="100" r="6" fill="none" stroke="black" stroke-width="2" />
<circle cx="864.1803448365955" cy="100" r="3" fill="black" />
<circle cx="922.5519475690809" cy="100" r="4" fill="black" />
<circle cx="950.0" cy="100" r="6" fill="none" stroke="black" stroke-width="2" />
<circle cx="950.0" cy="100" r="3" fill="black" />
<text x="50" y="125" fill="gray" style="font-size:12px;">2024-12-27T03:32:25+00:00</text>
<text x="900" y="125" fill="gray" style="font-size:12px;">2025-02-16T23:27:46+00:00</text>
</svg>