<svg xmlns="http://www.w3.org/2000/svg" width="1000" height="400" style="background-color: white; font-family: sans-serif;">
<line x1="50" y1="200" x2="950" y2="200" stroke="gray" stroke-width="1"/>
<path d="M 62.0 200 Q 56.0 180, 50.0 200" stroke="black" fill="none" marker-end="url(#arrowhead)"/>
<path d="M 74.0 200 Q 68.0 180, 62.0 200" stroke="black" fill="none" marker-end="url(#arrowhead)"/>
<path d="M 86.0 200 Q 74.0 180, 62.0 200" stroke="black" fill="none" marker-end="url(#arrowhead)"/>
<path d="M 86.0 200 Q 80.0 180, 74.0 200" stroke="black" fill="none" marker-end="url(#arrowhead)"/>
<path d="M 357.47106278498774 200 Q 209.73553139249387 180, 62.0 200" stroke="black" fill="none" marker-end="url(#arrowhead)"/>
<path d="M 357.47106278498774 200 Q 215.73553139249387 180, 74.0 200" stroke="black" fill="none" marker-end="url(#arrowhead)"/>
<path d="M 357.47106278498774 200 Q 221.73553139249387 180, 86.0 200" stroke="black" fill="none" marker-end="url(#arrowhead)"/>
<path d="M 369.47106278498774 200 Q 363.47106278498774 180, 357.47106278498774 200" stroke="black" fill="none" marker-end="url(#arrowhead)"/>
<path d="M 381.47106278498774 200 Q 369.47106278498774 180, 357.47106278498774 200" stroke="black" fill="none" marker-end="url(#arrowhead)"/>
<path d="M 381.47106278498774 200 Q 375.47106278498774 180, 369.47106278498774 200" stroke="black" fill="none" marker-end="url(#arrowhead)"/>
<path d="M 393.47106278498774 200 Q 381.47106278498774 180, 369.47106278498774 200" stroke="black" fill="none" marker-end="url(#arrowhead)"/>
<path d="M 393.47106278498774 200 Q 387.47106278498774 180, 381.47106278498774 200" stroke="black" fill="none" marker-end="url(#arrowhead)"/>
<path d="M 410.95531622496566 200 Q 396.2131895049767 180, 381.47106278498774 200" stroke="black" fill="none" marker-end="url(#arrowhead)"/>
<path d="M 470.2770382551995 200 Q 456.16723496501083 180, 442.05743167482217 200" stroke="black" fill="none" marker-end="url(#arrowhead)"/>

<defs>
  <marker id="arrowhead" markerWidth="5" markerHeight="5" 
          refX="2" refY="2" orient="auto" fill="black">
    <path d="M0,0 L0,4 L4,2 z" />
  </marker>
</defs>

<circle cx="50.0" cy="200" r="6" fill="none" stroke="blue" stroke-width="2" />
<circle cx="50.0" cy="200" r="3" fill="blue" />
<circle cx="62.0" cy="200" r="4" fill="green" />
<circle cx="74.0" cy="200" r="6" fill="none" stroke="black" stroke-width="2" />
<circle cx="74.0" cy="200" r="3" fill="black" />
<circle cx="86.0" cy="200" r="4" fill="green" />
<circle cx="357.47106278498774" cy="200" r="6" fill="none" stroke="black" stroke-width="2" />
<circle cx="357.47106278498774" cy="200" r="3" fill="black" />
<circle cx="369.47106278498774" cy="200" r="4" fill="black" />
<circle cx="381.47106278498774" cy="200" r="6" fill="none" stroke="black" stroke-width="2" />
<circle cx="381.47106278498774" cy="200" r="3" fill="black" />
<circle cx="393.47106278498774" cy="200" r="6" fill="none" stroke="blue" stroke-width="2" />
<circle cx="393.47106278498774" cy="200" r="3" fill="blue" />
<circle cx="410.95531622496566" cy="200" r="4" fill="black" />
<circle cx="442.05743167482217" cy="200" r="6" fill="none" stroke="blue" stroke-width="2" />
<circle cx="442.05743167482217" cy="200" r="3" fill="blue" />
<circle cx="470.2770382551995" cy="200" r="4" fill="blue" />
<circle cx="950.0" cy="200" r="6" fill="none" stroke="black" stroke-width="2" />
<circle cx="950.0" cy="200" r="3" fill="black" />
<text x="50" y="225" fill="gray" style="font-size:12px;">2025-01-15T02:45:12+00:00</text>
<text x="900" y="225" fill="gray" style="font-size:12px;">2025-01-17T03:03:43+00:00</text>
</svg>