<svg xmlns="http://www.w3.org/2000/svg" width="1000" height="200" style="background-color: white; font-family: sans-serif;">
<line x1="50" y1="100" x2="950" y2="100" stroke="gray" stroke-width="1"/>
<path d="M 62.0 100 Q 56.0 80, 50.0 100" stroke="black" fill="none" marker-end="url(#arrowhead)"/>
<path d="M 74.0 100 Q 68.0 80, 62.0 100" stroke="black" fill="none" marker-end="url(#arrowhead)"/>
<path d="M 86.0 100 Q 74.0 80, 62.0 100" stroke="black" fill="none" marker-end="url(#arrowhead)"/>
<path d="M 86.0 100 Q 80.0 80, 74.0 100" stroke="black" fill="none" marker-end="url(#arrowhead)"/>
<path d="M 357.47106278498774 100 Q 209.73553139249387 80, 62.0 100" stroke="black" fill="none" marker-end="url(#arrowhead)"/>
<path d="M 357.47106278498774 100 Q 215.73553139249387 80, 74.0 100" stroke="black" fill="none" marker-end="url(#arrowhead)"/>
<path d="M 357.47106278498774 100 Q 221.73553139249387 80, 86.0 100" stroke="black" fill="none" marker-end="url(#arrowhead)"/>
<path d="M 369.47106278498774 100 Q 363.47106278498774 80, 357.47106278498774 100" stroke="black" fill="none" marker-end="url(#arrowhead)"/>
<path d="M 381.47106278498774 100 Q 369.47106278498774 80, 357.47106278498774 100" stroke="black" fill="none" marker-end="url(#arrowhead)"/>
<path d="M 381.47106278498774 100 Q 375.47106278498774 80, 369.47106278498774 100" stroke="black" fill="none" marker-end="url(#arrowhead)"/>
<path d="M 393.47106278498774 100 Q 381.47106278498774 80, 369.47106278498774 100" stroke="black" fill="none" marker-end="url(#arrowhead)"/>
<path d="M 393.47106278498774 100 Q 387.47106278498774 80, 381.47106278498774 100" stroke="black" fill="none" marker-end="url(#arrowhead)"/>
<path d="M 410.95531622496566 100 Q 396.2131895049767 80, 381.47106278498774 100" stroke="black" fill="none" marker-end="url(#arrowhead)"/>
<path d="M 470.2770382551995 100 Q 456.16723496501083 80, 442.05743167482217 100" stroke="black" fill="none" marker-end="url(#arrowhead)"/>

<defs>
  <marker id="arrowhead" markerWidth="5" markerHeight="5" 
          refX="2" refY="2" orient="auto" fill="black">
    <path d="M0,0 L0,4 L4,2 z" />
  </marker>
</defs>

<circle cx="50.0" cy="100" r="6" fill="none" stroke="blue" stroke-width="2" />
<circle cx="50.0" cy="100" r="3" fill="blue" />
<circle cx="62.0" cy="100" r="4" fill="green" />
<circle cx="74.0" cy="100" r="6" fill="none" stroke="black" stroke-width="2" />
<circle cx="74.0" cy="100" r="3" fill="black" />
<circle cx="86.0" cy="100" r="4" fill="green" />
<circle cx="357.47106278498774" cy="100" r="6" fill="none" stroke="black" stroke-width="2" />
<circle cx="357.47106278498774" cy="100" r="3" fill="black" />
<circle cx="369.47106278498774" cy="100" r="4" fill="black" />
<circle cx="381.47106278498774" cy="100" r="6" fill="none" stroke="black" stroke-width="2" />
<circle cx="381.47106278498774" cy="100" r="3" fill="black" />
<circle cx="393.47106278498774" cy="100" r="6" fill="none" stroke="blue" stroke-width="2" />
<circle cx="393.47106278498774" cy="100" r="3" fill="blue" />
<circle cx="410.95531622496566" cy="100" r="4" fill="black" />
<circle cx="442.05743167482217" cy="100" r="6" fill="none" stroke="blue" stroke-width="2" />
<circle cx="442.05743167482217" cy="100" r="3" fill="blue" />
<circle cx="470.2770382551995" cy="100" r="4" fill="blue" />
<circle cx="950.0" cy="100" r="6" fill="none" stroke="black" stroke-width="2" />
<circle cx="950.0" cy="100" r="3" fill="black" />
<text x="50" y="125" fill="gray" style="font-size:12px;">2025-01-15T02:45:12+00:00</text>
<text x="900" y="125" fill="gray" style="font-size:12px;">2025-01-17T03:03:43+00:00</text>
</svg>