<svg xmlns="http://www.w3.org/2000/svg" width="1000" height="400" style="background-color: white; font-family: sans-serif;">
<line x1="50" y1="200" x2="950" y2="200" stroke="gray" stroke-width="1"/>
<path d="M 462.76309614547915 200 Q 256.3815480727396 180, 50.0 200" stroke="black" fill="none" marker-end="url(#arrowhead)"/>
<path d="M 486.76309614547915 200 Q 480.76309614547915 180, 474.76309614547915 200" stroke="black" fill="none" marker-end="url(#arrowhead)"/>
<path d="M 699.7434916141694 200 Q 593.2532938798242 180, 486.76309614547915 200" stroke="black" fill="none" marker-end="url(#arrowhead)"/>
<path d="M 711.7434916141694 200 Q 587.2532938798242 180, 462.76309614547915 200" stroke="black" fill="none" marker-end="url(#arrowhead)"/>
<path d="M 723.7434916141694 200 Q 717.7434916141694 180, 711.7434916141694 200" stroke="black" fill="none" marker-end="url(#arrowhead)"/>
<path d="M 950.0 200 Q 824.8717458070847 180, 699.7434916141694 200" stroke="black" fill="none" marker-end="url(#arrowhead)"/>

<defs>
  <marker id="arrowhead" markerWidth="5" markerHeight="5" 
          refX="2" refY="2" orient="auto" fill="black">
    <path d="M0,0 L0,4 L4,2 z" />
  </marker>
</defs>

<circle cx="50.0" cy="200" r="6" fill="none" stroke="blue" stroke-width="2" />
<circle cx="50.0" cy="200" r="3" fill="blue" />
<circle cx="462.76309614547915" cy="200" r="6" fill="none" stroke="blue" stroke-width="2" />
<circle cx="462.76309614547915" cy="200" r="3" fill="blue" />
<circle cx="474.76309614547915" cy="200" r="4" fill="red" />
<circle cx="486.76309614547915" cy="200" r="6" fill="none" stroke="black" stroke-width="2" />
<circle cx="486.76309614547915" cy="200" r="3" fill="black" />
<circle cx="699.7434916141694" cy="200" r="4" fill="red" />
<circle cx="711.7434916141694" cy="200" r="4" fill="red" />
<circle cx="723.7434916141694" cy="200" r="6" fill="none" stroke="blue" stroke-width="2" />
<circle cx="723.7434916141694" cy="200" r="3" fill="blue" />
<circle cx="950.0" cy="200" r="4" fill="green" />
<text x="50" y="225" fill="gray" style="font-size:12px;">2025-02-06T10:27:17+00:00</text>
<text x="900" y="225" fill="gray" style="font-size:12px;">2025-02-17T06:18:04+00:00</text>
</svg>