<svg xmlns="http://www.w3.org/2000/svg" width="1000" height="400" style="background-color: white; font-family: sans-serif;">
<line x1="50" y1="200" x2="950" y2="200" stroke="gray" stroke-width="1"/>
<path d="M 270.79897519768934 200 Q 160.39948759884467 180, 50.0 200" stroke="black" fill="none" marker-end="url(#arrowhead)"/>
<path d="M 312.4919937319481 200 Q 291.64548446481876 180, 270.79897519768934 200" stroke="black" fill="none" marker-end="url(#arrowhead)"/>
<path d="M 324.4919937319481 200 Q 297.64548446481876 180, 270.79897519768934 200" stroke="black" fill="none" marker-end="url(#arrowhead)"/>
<path d="M 538.9249646515711 200 Q 431.70847919175964 180, 324.4919937319481 200" stroke="black" fill="none" marker-end="url(#arrowhead)"/>
<path d="M 574.2045092912992 200 Q 449.3482515116237 180, 324.4919937319481 200" stroke="black" fill="none" marker-end="url(#arrowhead)"/>
<path d="M 885.1872963185266 200 Q 598.8396450252374 180, 312.4919937319481 200" stroke="black" fill="none" marker-end="url(#arrowhead)"/>
<path d="M 924.9443086008469 200 Q 905.0658024596867 180, 885.1872963185266 200" stroke="black" fill="none" marker-end="url(#arrowhead)"/>
<path d="M 950.0 200 Q 917.5936481592632 180, 885.1872963185266 200" stroke="black" fill="none" marker-end="url(#arrowhead)"/>

<defs>
  <marker id="arrowhead" markerWidth="5" markerHeight="5" 
          refX="2" refY="2" orient="auto" fill="black">
    <path d="M0,0 L0,4 L4,2 z" />
  </marker>
</defs>

<circle cx="50.0" cy="200" r="6" fill="none" stroke="blue" stroke-width="2" />
<circle cx="50.0" cy="200" r="3" fill="blue" />
<circle cx="270.79897519768934" cy="200" r="4" fill="red" />
<circle cx="312.4919937319481" cy="200" r="6" fill="none" stroke="blue" stroke-width="2" />
<circle cx="312.4919937319481" cy="200" r="3" fill="blue" />
<circle cx="324.4919937319481" cy="200" r="4" fill="black" />
<circle cx="538.9249646515711" cy="200" r="4" fill="black" />
<circle cx="574.2045092912992" cy="200" r="6" fill="none" stroke="black" stroke-width="2" />
<circle cx="574.2045092912992" cy="200" r="3" fill="black" />
<circle cx="629.5220811865793" cy="200" r="4" fill="green" />
<circle cx="885.1872963185266" cy="200" r="4" fill="red" />
<circle cx="924.9443086008469" cy="200" r="4" fill="black" />
<circle cx="950.0" cy="200" r="6" fill="none" stroke="black" stroke-width="2" />
<circle cx="950.0" cy="200" r="3" fill="black" />
<text x="50" y="225" fill="gray" style="font-size:12px;">2025-02-25T13:42:08+00:00</text>
<text x="900" y="225" fill="gray" style="font-size:12px;">2025-02-28T10:39:31+00:00</text>
</svg>