<svg xmlns="http://www.w3.org/2000/svg" width="1000" height="400" style="background-color: white; font-family: sans-serif;">
<line x1="50" y1="200" x2="950" y2="200" stroke="gray" stroke-width="1"/>
<path d="M 62.0 200 Q 56.0 180, 50.0 200" stroke="black" fill="none" marker-end="url(#arrowhead)"/>
<path d="M 74.0 200 Q 68.0 180, 62.0 200" stroke="black" fill="none" marker-end="url(#arrowhead)"/>
<path d="M 86.0 200 Q 80.0 180, 74.0 200" stroke="black" fill="none" marker-end="url(#arrowhead)"/>
<path d="M 98.0 200 Q 92.0 180, 86.0 200" stroke="black" fill="none" marker-end="url(#arrowhead)"/>
<path d="M 110.0 200 Q 104.0 180, 98.0 200" stroke="black" fill="none" marker-end="url(#arrowhead)"/>
<path d="M 122.0 200 Q 116.0 180, 110.0 200" stroke="black" fill="none" marker-end="url(#arrowhead)"/>
<path d="M 134.0 200 Q 122.0 180, 110.0 200" stroke="black" fill="none" marker-end="url(#arrowhead)"/>
<path d="M 134.0 200 Q 128.0 180, 122.0 200" stroke="black" fill="none" marker-end="url(#arrowhead)"/>
<path d="M 146.0 200 Q 140.0 180, 134.0 200" stroke="black" fill="none" marker-end="url(#arrowhead)"/>
<path d="M 158.0 200 Q 146.0 180, 134.0 200" stroke="black" fill="none" marker-end="url(#arrowhead)"/>
<path d="M 158.0 200 Q 152.0 180, 146.0 200" stroke="black" fill="none" marker-end="url(#arrowhead)"/>
<path d="M 170.0 200 Q 164.0 180, 158.0 200" stroke="black" fill="none" marker-end="url(#arrowhead)"/>
<path d="M 182.0 200 Q 176.0 180, 170.0 200" stroke="black" fill="none" marker-end="url(#arrowhead)"/>
<path d="M 194.0 200 Q 188.0 180, 182.0 200" stroke="black" fill="none" marker-end="url(#arrowhead)"/>
<path d="M 194.0 200 Q 128.0 180, 62.0 200" stroke="black" fill="none" marker-end="url(#arrowhead)"/>
<path d="M 206.0 200 Q 200.0 180, 194.0 200" stroke="black" fill="none" marker-end="url(#arrowhead)"/>
<path d="M 218.0 200 Q 206.0 180, 194.0 200" stroke="black" fill="none" marker-end="url(#arrowhead)"/>
<path d="M 230.0 200 Q 224.0 180, 218.0 200" stroke="black" fill="none" marker-end="url(#arrowhead)"/>
<path d="M 242.0 200 Q 224.0 180, 206.0 200" stroke="black" fill="none" marker-end="url(#arrowhead)"/>
<path d="M 254.0 200 Q 242.0 180, 230.0 200" stroke="black" fill="none" marker-end="url(#arrowhead)"/>
<path d="M 266.0 200 Q 242.0 180, 218.0 200" stroke="black" fill="none" marker-end="url(#arrowhead)"/>
<path d="M 266.0 200 Q 248.0 180, 230.0 200" stroke="black" fill="none" marker-end="url(#arrowhead)"/>
<path d="M 278.0 200 Q 272.0 180, 266.0 200" stroke="black" fill="none" marker-end="url(#arrowhead)"/>
<path d="M 290.0 200 Q 272.0 180, 254.0 200" stroke="black" fill="none" marker-end="url(#arrowhead)"/>
<path d="M 302.0 200 Q 296.0 180, 290.0 200" stroke="black" fill="none" marker-end="url(#arrowhead)"/>
<path d="M 314.0 200 Q 308.0 180, 302.0 200" stroke="black" fill="none" marker-end="url(#arrowhead)"/>
<path d="M 314.0 200 Q 182.0 180, 50.0 200" stroke="black" fill="none" marker-end="url(#arrowhead)"/>
<path d="M 326.0 200 Q 308.0 180, 290.0 200" stroke="black" fill="none" marker-end="url(#arrowhead)"/>
<path d="M 326.0 200 Q 320.0 180, 314.0 200" stroke="black" fill="none" marker-end="url(#arrowhead)"/>
<path d="M 338.0 200 Q 332.0 180, 326.0 200" stroke="black" fill="none" marker-end="url(#arrowhead)"/>
<path d="M 350.0 200 Q 344.0 180, 338.0 200" stroke="black" fill="none" marker-end="url(#arrowhead)"/>
<path d="M 350.0 200 Q 320.0 180, 290.0 200" stroke="black" fill="none" marker-end="url(#arrowhead)"/>
<path d="M 362.0 200 Q 350.0 180, 338.0 200" stroke="black" fill="none" marker-end="url(#arrowhead)"/>
<path d="M 362.0 200 Q 326.0 180, 290.0 200" stroke="black" fill="none" marker-end="url(#arrowhead)"/>
<path d="M 374.0 200 Q 368.0 180, 362.0 200" stroke="black" fill="none" marker-end="url(#arrowhead)"/>
<path d="M 386.0 200 Q 338.0 180, 290.0 200" stroke="black" fill="none" marker-end="url(#arrowhead)"/>
<path d="M 386.0 200 Q 380.0 180, 374.0 200" stroke="black" fill="none" marker-end="url(#arrowhead)"/>
<path d="M 398.0 200 Q 392.0 180, 386.0 200" stroke="black" fill="none" marker-end="url(#arrowhead)"/>
<path d="M 410.0 200 Q 350.0 180, 290.0 200" stroke="black" fill="none" marker-end="url(#arrowhead)"/>
<path d="M 410.0 200 Q 404.0 180, 398.0 200" stroke="black" fill="none" marker-end="url(#arrowhead)"/>
<path d="M 422.0 200 Q 416.0 180, 410.0 200" stroke="black" fill="none" marker-end="url(#arrowhead)"/>
<path d="M 434.0 200 Q 428.0 180, 422.0 200" stroke="black" fill="none" marker-end="url(#arrowhead)"/>
<path d="M 434.0 200 Q 362.0 180, 290.0 200" stroke="black" fill="none" marker-end="url(#arrowhead)"/>
<path d="M 446.0 200 Q 428.0 180, 410.0 200" stroke="black" fill="none" marker-end="url(#arrowhead)"/>
<path d="M 458.0 200 Q 446.0 180, 434.0 200" stroke="black" fill="none" marker-end="url(#arrowhead)"/>
<path d="M 470.0 200 Q 380.0 180, 290.0 200" stroke="black" fill="none" marker-end="url(#arrowhead)"/>
<path d="M 470.0 200 Q 422.0 180, 374.0 200" stroke="black" fill="none" marker-end="url(#arrowhead)"/>
<path d="M 470.0 200 Q 464.0 180, 458.0 200" stroke="black" fill="none" marker-end="url(#arrowhead)"/>
<path d="M 494.0 200 Q 488.0 180, 482.0 200" stroke="black" fill="none" marker-end="url(#arrowhead)"/>
<path d="M 506.0 200 Q 500.0 180, 494.0 200" stroke="black" fill="none" marker-end="url(#arrowhead)"/>
<path d="M 518.0 200 Q 494.0 180, 470.0 200" stroke="black" fill="none" marker-end="url(#arrowhead)"/>
<path d="M 530.0 200 Q 524.0 180, 518.0 200" stroke="black" fill="none" marker-end="url(#arrowhead)"/>
<path d="M 542.0 200 Q 536.0 180, 530.0 200" stroke="black" fill="none" marker-end="url(#arrowhead)"/>
<path d="M 554.0 200 Q 548.0 180, 542.0 200" stroke="black" fill="none" marker-end="url(#arrowhead)"/>
<path d="M 566.0 200 Q 560.0 180, 554.0 200" stroke="black" fill="none" marker-end="url(#arrowhead)"/>
<path d="M 578.0 200 Q 572.0 180, 566.0 200" stroke="black" fill="none" marker-end="url(#arrowhead)"/>
<path d="M 590.0 200 Q 584.0 180, 578.0 200" stroke="black" fill="none" marker-end="url(#arrowhead)"/>
<path d="M 590.0 200 Q 554.0 180, 518.0 200" stroke="black" fill="none" marker-end="url(#arrowhead)"/>
<path d="M 640.3258981834643 200 Q 615.1629490917321 180, 590.0 200" stroke="black" fill="none" marker-end="url(#arrowhead)"/>
<path d="M 846.2745026852291 200 Q 743.3002004343467 180, 640.3258981834643 200" stroke="black" fill="none" marker-end="url(#arrowhead)"/>
<path d="M 950.0 200 Q 898.1372513426145 180, 846.2745026852291 200" stroke="black" fill="none" marker-end="url(#arrowhead)"/>

<defs>
  <marker id="arrowhead" markerWidth="5" markerHeight="5" 
          refX="2" refY="2" orient="auto" fill="black">
    <path d="M0,0 L0,4 L4,2 z" />
  </marker>
</defs>

<circle cx="50.0" cy="200" r="6" fill="none" stroke="blue" stroke-width="2" />
<circle cx="50.0" cy="200" r="3" fill="blue" />
<circle cx="62.0" cy="200" r="4" fill="red" />
<circle cx="74.0" cy="200" r="6" fill="none" stroke="black" stroke-width="2" />
<circle cx="74.0" cy="200" r="3" fill="black" />
<circle cx="86.0" cy="200" r="4" fill="blue" />
<circle cx="98.0" cy="200" r="6" fill="none" stroke="black" stroke-width="2" />
<circle cx="98.0" cy="200" r="3" fill="black" />
<circle cx="110.0" cy="200" r="6" fill="none" stroke="blue" stroke-width="2" />
<circle cx="110.0" cy="200" r="3" fill="blue" />
<circle cx="122.0" cy="200" r="6" fill="none" stroke="blue" stroke-width="2" />
<circle cx="122.0" cy="200" r="3" fill="blue" />
<circle cx="134.0" cy="200" r="4" fill="blue" />
<circle cx="146.0" cy="200" r="6" fill="none" stroke="blue" stroke-width="2" />
<circle cx="146.0" cy="200" r="3" fill="blue" />
<circle cx="158.0" cy="200" r="4" fill="blue" />
<circle cx="170.0" cy="200" r="6" fill="none" stroke="black" stroke-width="2" />
<circle cx="170.0" cy="200" r="3" fill="black" />
<circle cx="182.0" cy="200" r="4" fill="red" />
<circle cx="194.0" cy="200" r="6" fill="none" stroke="blue" stroke-width="2" />
<circle cx="194.0" cy="200" r="3" fill="blue" />
<circle cx="206.0" cy="200" r="4" fill="green" />
<circle cx="218.0" cy="200" r="4" fill="red" />
<circle cx="230.0" cy="200" r="6" fill="none" stroke="red" stroke-width="2" />
<circle cx="230.0" cy="200" r="3" fill="red" />
<circle cx="242.0" cy="200" r="6" fill="none" stroke="green" stroke-width="2" />
<circle cx="242.0" cy="200" r="3" fill="green" />
<circle cx="254.0" cy="200" r="6" fill="none" stroke="blue" stroke-width="2" />
<circle cx="254.0" cy="200" r="3" fill="blue" />
<circle cx="266.0" cy="200" r="4" fill="red" />
<circle cx="278.0" cy="200" r="6" fill="none" stroke="blue" stroke-width="2" />
<circle cx="278.0" cy="200" r="3" fill="blue" />
<circle cx="290.0" cy="200" r="4" fill="blue" />
<circle cx="302.0" cy="200" r="6" fill="none" stroke="black" stroke-width="2" />
<circle cx="302.0" cy="200" r="3" fill="black" />
<circle cx="314.0" cy="200" r="4" fill="black" />
<circle cx="326.0" cy="200" r="6" fill="none" stroke="black" stroke-width="2" />
<circle cx="326.0" cy="200" r="3" fill="black" />
<circle cx="338.0" cy="200" r="4" fill="red" />
<circle cx="350.0" cy="200" r="6" fill="none" stroke="blue" stroke-width="2" />
<circle cx="350.0" cy="200" r="3" fill="blue" />
<circle cx="362.0" cy="200" r="6" fill="none" stroke="blue" stroke-width="2" />
<circle cx="362.0" cy="200" r="3" fill="blue" />
<circle cx="374.0" cy="200" r="4" fill="red" />
<circle cx="386.0" cy="200" r="6" fill="none" stroke="black" stroke-width="2" />
<circle cx="386.0" cy="200" r="3" fill="black" />
<circle cx="398.0" cy="200" r="4" fill="black" />
<circle cx="410.0" cy="200" r="6" fill="none" stroke="black" stroke-width="2" />
<circle cx="410.0" cy="200" r="3" fill="black" />
<circle cx="422.0" cy="200" r="4" fill="black" />
<circle cx="434.0" cy="200" r="6" fill="none" stroke="black" stroke-width="2" />
<circle cx="434.0" cy="200" r="3" fill="black" />
<circle cx="446.0" cy="200" r="6" fill="none" stroke="blue" stroke-width="2" />
<circle cx="446.0" cy="200" r="3" fill="blue" />
<circle cx="458.0" cy="200" r="4" fill="red" />
<circle cx="470.0" cy="200" r="6" fill="none" stroke="black" stroke-width="2" />
<circle cx="470.0" cy="200" r="3" fill="black" />
<circle cx="482.0" cy="200" r="4" fill="black" />
<circle cx="494.0" cy="200" r="4" fill="black" />
<circle cx="506.0" cy="200" r="4" fill="black" />
<circle cx="518.0" cy="200" r="6" fill="none" stroke="blue" stroke-width="2" />
<circle cx="518.0" cy="200" r="3" fill="blue" />
<circle cx="530.0" cy="200" r="6" fill="none" stroke="black" stroke-width="2" />
<circle cx="530.0" cy="200" r="3" fill="black" />
<circle cx="542.0" cy="200" r="6" fill="none" stroke="blue" stroke-width="2" />
<circle cx="542.0" cy="200" r="3" fill="blue" />
<circle cx="554.0" cy="200" r="6" fill="none" stroke="blue" stroke-width="2" />
<circle cx="554.0" cy="200" r="3" fill="blue" />
<circle cx="566.0" cy="200" r="6" fill="none" stroke="blue" stroke-width="2" />
<circle cx="566.0" cy="200" r="3" fill="blue" />
<circle cx="578.0" cy="200" r="6" fill="none" stroke="blue" stroke-width="2" />
<circle cx="578.0" cy="200" r="3" fill="blue" />
<circle cx="590.0" cy="200" r="6" fill="none" stroke="blue" stroke-width="2" />
<circle cx="590.0" cy="200" r="3" fill="blue" />
<circle cx="640.3258981834643" cy="200" r="6" fill="none" stroke="blue" stroke-width="2" />
<circle cx="640.3258981834643" cy="200" r="3" fill="blue" />
<circle cx="846.2745026852291" cy="200" r="6" fill="none" stroke="blue" stroke-width="2" />
<circle cx="846.2745026852291" cy="200" r="3" fill="blue" />
<circle cx="950.0" cy="200" r="6" fill="none" stroke="blue" stroke-width="2" />
<circle cx="950.0" cy="200" r="3" fill="blue" />
<text x="50" y="225" fill="gray" style="font-size:12px;">2024-04-22T08:45:19+00:00</text>
<text x="900" y="225" fill="gray" style="font-size:12px;">2025-02-04T13:24:03+00:00</text>
</svg>