<svg xmlns="http://www.w3.org/2000/svg" width="1000" height="400" style="background-color: white; font-family: sans-serif;">
<line x1="50" y1="200" x2="950" y2="200" stroke="gray" stroke-width="1"/>
<path d="M 86.82456803555054 200 Q 74.41228401777528 180, 62.0 200" stroke="black" fill="none" marker-end="url(#arrowhead)"/>
<path d="M 98.82456803555054 200 Q 92.82456803555054 180, 86.82456803555054 200" stroke="black" fill="none" marker-end="url(#arrowhead)"/>
<path d="M 110.82456803555054 200 Q 104.82456803555054 180, 98.82456803555054 200" stroke="black" fill="none" marker-end="url(#arrowhead)"/>
<path d="M 122.82456803555054 200 Q 104.82456803555054 180, 86.82456803555054 200" stroke="black" fill="none" marker-end="url(#arrowhead)"/>
<path d="M 134.82456803555056 200 Q 122.82456803555056 180, 110.82456803555054 200" stroke="black" fill="none" marker-end="url(#arrowhead)"/>
<path d="M 146.82456803555056 200 Q 122.82456803555056 180, 98.82456803555054 200" stroke="black" fill="none" marker-end="url(#arrowhead)"/>
<path d="M 146.82456803555056 200 Q 140.82456803555056 180, 134.82456803555056 200" stroke="black" fill="none" marker-end="url(#arrowhead)"/>
<path d="M 158.82456803555056 200 Q 122.82456803555056 180, 86.82456803555054 200" stroke="black" fill="none" marker-end="url(#arrowhead)"/>
<path d="M 170.82456803555056 200 Q 164.82456803555056 180, 158.82456803555056 200" stroke="black" fill="none" marker-end="url(#arrowhead)"/>
<path d="M 182.82456803555056 200 Q 164.82456803555056 180, 146.82456803555056 200" stroke="black" fill="none" marker-end="url(#arrowhead)"/>
<path d="M 194.82456803555056 200 Q 170.82456803555056 180, 146.82456803555056 200" stroke="black" fill="none" marker-end="url(#arrowhead)"/>
<path d="M 206.82456803555056 200 Q 200.82456803555056 180, 194.82456803555056 200" stroke="black" fill="none" marker-end="url(#arrowhead)"/>
<path d="M 218.82456803555056 200 Q 212.82456803555056 180, 206.82456803555056 200" stroke="black" fill="none" marker-end="url(#arrowhead)"/>
<path d="M 230.82456803555056 200 Q 224.82456803555056 180, 218.82456803555056 200" stroke="black" fill="none" marker-end="url(#arrowhead)"/>
<path d="M 242.82456803555056 200 Q 146.41228401777528 180, 50.0 200" stroke="black" fill="none" marker-end="url(#arrowhead)"/>
<path d="M 254.82456803555056 200 Q 248.82456803555056 180, 242.82456803555056 200" stroke="black" fill="none" marker-end="url(#arrowhead)"/>
<path d="M 266.82456803555056 200 Q 254.82456803555056 180, 242.82456803555056 200" stroke="black" fill="none" marker-end="url(#arrowhead)"/>
<path d="M 266.82456803555056 200 Q 260.82456803555056 180, 254.82456803555056 200" stroke="black" fill="none" marker-end="url(#arrowhead)"/>
<path d="M 278.82456803555056 200 Q 272.82456803555056 180, 266.82456803555056 200" stroke="black" fill="none" marker-end="url(#arrowhead)"/>
<path d="M 339.72325307894585 200 Q 309.2739105572482 180, 278.82456803555056 200" stroke="black" fill="none" marker-end="url(#arrowhead)"/>
<path d="M 464.5270226678506 200 Q 402.1251378733982 180, 339.72325307894585 200" stroke="black" fill="none" marker-end="url(#arrowhead)"/>
<path d="M 464.5270226678506 200 Q 257.2635113339253 180, 50.0 200" stroke="black" fill="none" marker-end="url(#arrowhead)"/>
<path d="M 484.791952054129 200 Q 474.65948736098983 180, 464.5270226678506 200" stroke="black" fill="none" marker-end="url(#arrowhead)"/>
<path d="M 707.078895064385 200 Q 595.9354235592571 180, 484.791952054129 200" stroke="black" fill="none" marker-end="url(#arrowhead)"/>
<path d="M 719.078895064385 200 Q 456.9517315499678 180, 194.82456803555056 200" stroke="black" fill="none" marker-end="url(#arrowhead)"/>
<path d="M 719.078895064385 200 Q 713.078895064385 180, 707.078895064385 200" stroke="black" fill="none" marker-end="url(#arrowhead)"/>
<path d="M 731.078895064385 200 Q 719.078895064385 180, 707.078895064385 200" stroke="black" fill="none" marker-end="url(#arrowhead)"/>
<path d="M 743.078895064385 200 Q 737.078895064385 180, 731.078895064385 200" stroke="black" fill="none" marker-end="url(#arrowhead)"/>
<path d="M 743.078895064385 200 Q 420.9517315499678 180, 98.82456803555054 200" stroke="black" fill="none" marker-end="url(#arrowhead)"/>
<path d="M 755.078895064385 200 Q 749.078895064385 180, 743.078895064385 200" stroke="black" fill="none" marker-end="url(#arrowhead)"/>
<path d="M 807.3007413618121 200 Q 775.1898182130985 180, 743.078895064385 200" stroke="black" fill="none" marker-end="url(#arrowhead)"/>
<path d="M 819.3007413618121 200 Q 459.06265469868134 180, 98.82456803555054 200" stroke="black" fill="none" marker-end="url(#arrowhead)"/>
<path d="M 819.3007413618121 200 Q 813.3007413618121 180, 807.3007413618121 200" stroke="black" fill="none" marker-end="url(#arrowhead)"/>
<path d="M 831.3007413618121 200 Q 825.3007413618121 180, 819.3007413618121 200" stroke="black" fill="none" marker-end="url(#arrowhead)"/>
<path d="M 843.3007413618121 200 Q 837.3007413618121 180, 831.3007413618121 200" stroke="black" fill="none" marker-end="url(#arrowhead)"/>
<path d="M 843.3007413618121 200 Q 471.06265469868134 180, 98.82456803555054 200" stroke="black" fill="none" marker-end="url(#arrowhead)"/>
<path d="M 950.0 200 Q 896.650370680906 180, 843.3007413618121 200" stroke="black" fill="none" marker-end="url(#arrowhead)"/>

<defs>
  <marker id="arrowhead" markerWidth="5" markerHeight="5" 
          refX="2" refY="2" orient="auto" fill="black">
    <path d="M0,0 L0,4 L4,2 z" />
  </marker>
</defs>

<circle cx="50.0" cy="200" r="6" fill="none" stroke="blue" stroke-width="2" />
<circle cx="50.0" cy="200" r="3" fill="blue" />
<circle cx="62.0" cy="200" r="4" fill="red" />
<circle cx="86.82456803555054" cy="200" r="6" fill="none" stroke="black" stroke-width="2" />
<circle cx="86.82456803555054" cy="200" r="3" fill="black" />
<circle cx="98.82456803555054" cy="200" r="4" fill="black" />
<circle cx="110.82456803555054" cy="200" r="6" fill="none" stroke="black" stroke-width="2" />
<circle cx="110.82456803555054" cy="200" r="3" fill="black" />
<circle cx="122.82456803555054" cy="200" r="6" fill="none" stroke="blue" stroke-width="2" />
<circle cx="122.82456803555054" cy="200" r="3" fill="blue" />
<circle cx="134.82456803555056" cy="200" r="4" fill="red" />
<circle cx="146.82456803555056" cy="200" r="4" fill="red" />
<circle cx="158.82456803555056" cy="200" r="4" fill="black" />
<circle cx="170.82456803555056" cy="200" r="6" fill="none" stroke="black" stroke-width="2" />
<circle cx="170.82456803555056" cy="200" r="3" fill="black" />
<circle cx="182.82456803555056" cy="200" r="6" fill="none" stroke="black" stroke-width="2" />
<circle cx="182.82456803555056" cy="200" r="3" fill="black" />
<circle cx="194.82456803555056" cy="200" r="4" fill="black" />
<circle cx="206.82456803555056" cy="200" r="6" fill="none" stroke="black" stroke-width="2" />
<circle cx="206.82456803555056" cy="200" r="3" fill="black" />
<circle cx="218.82456803555056" cy="200" r="4" fill="black" />
<circle cx="230.82456803555056" cy="200" r="6" fill="none" stroke="black" stroke-width="2" />
<circle cx="230.82456803555056" cy="200" r="3" fill="black" />
<circle cx="242.82456803555056" cy="200" r="4" fill="red" />
<circle cx="254.82456803555056" cy="200" r="6" fill="none" stroke="black" stroke-width="2" />
<circle cx="254.82456803555056" cy="200" r="3" fill="black" />
<circle cx="266.82456803555056" cy="200" r="4" fill="black" />
<circle cx="278.82456803555056" cy="200" r="6" fill="none" stroke="black" stroke-width="2" />
<circle cx="278.82456803555056" cy="200" r="3" fill="black" />
<circle cx="339.72325307894585" cy="200" r="6" fill="none" stroke="blue" stroke-width="2" />
<circle cx="339.72325307894585" cy="200" r="3" fill="blue" />
<circle cx="464.5270226678506" cy="200" r="6" fill="none" stroke="blue" stroke-width="2" />
<circle cx="464.5270226678506" cy="200" r="3" fill="blue" />
<circle cx="484.791952054129" cy="200" r="6" fill="none" stroke="blue" stroke-width="2" />
<circle cx="484.791952054129" cy="200" r="3" fill="blue" />
<circle cx="707.078895064385" cy="200" r="6" fill="none" stroke="blue" stroke-width="2" />
<circle cx="707.078895064385" cy="200" r="3" fill="blue" />
<circle cx="719.078895064385" cy="200" r="6" fill="none" stroke="black" stroke-width="2" />
<circle cx="719.078895064385" cy="200" r="3" fill="black" />
<circle cx="731.078895064385" cy="200" r="4" fill="black" />
<circle cx="743.078895064385" cy="200" r="6" fill="none" stroke="black" stroke-width="2" />
<circle cx="743.078895064385" cy="200" r="3" fill="black" />
<circle cx="755.078895064385" cy="200" r="4" fill="green" />
<circle cx="807.3007413618121" cy="200" r="4" fill="black" />
<circle cx="819.3007413618121" cy="200" r="6" fill="none" stroke="black" stroke-width="2" />
<circle cx="819.3007413618121" cy="200" r="3" fill="black" />
<circle cx="831.3007413618121" cy="200" r="4" fill="black" />
<circle cx="843.3007413618121" cy="200" r="6" fill="none" stroke="black" stroke-width="2" />
<circle cx="843.3007413618121" cy="200" r="3" fill="black" />
<circle cx="950.0" cy="200" r="6" fill="none" stroke="black" stroke-width="2" />
<circle cx="950.0" cy="200" r="3" fill="black" />
<text x="50" y="225" fill="gray" style="font-size:12px;">2024-05-25T07:52:02+00:00</text>
<text x="900" y="225" fill="gray" style="font-size:12px;">2025-01-03T16:18:37+00:00</text>
</svg>