<svg xmlns="http://www.w3.org/2000/svg" width="1000" height="400" style="background-color: white; font-family: sans-serif;">
<line x1="50" y1="200" x2="950" y2="200" stroke="gray" stroke-width="1"/>
<path d="M 62.0 200 Q 56.0 180, 50.0 200" stroke="black" fill="none" marker-end="url(#arrowhead)"/>
<path d="M 74.0 200 Q 68.0 180, 62.0 200" stroke="black" fill="none" marker-end="url(#arrowhead)"/>
<path d="M 86.0 200 Q 74.0 180, 62.0 200" stroke="black" fill="none" marker-end="url(#arrowhead)"/>
<path d="M 86.0 200 Q 80.0 180, 74.0 200" stroke="black" fill="none" marker-end="url(#arrowhead)"/>
<path d="M 98.0 200 Q 80.0 180, 62.0 200" stroke="black" fill="none" marker-end="url(#arrowhead)"/>
<path d="M 98.0 200 Q 86.0 180, 74.0 200" stroke="black" fill="none" marker-end="url(#arrowhead)"/>
<path d="M 110.0 200 Q 86.0 180, 62.0 200" stroke="black" fill="none" marker-end="url(#arrowhead)"/>
<path d="M 122.0 200 Q 104.0 180, 86.0 200" stroke="black" fill="none" marker-end="url(#arrowhead)"/>
<path d="M 134.0 200 Q 116.0 180, 98.0 200" stroke="black" fill="none" marker-end="url(#arrowhead)"/>
<path d="M 146.0 200 Q 98.0 180, 50.0 200" stroke="black" fill="none" marker-end="url(#arrowhead)"/>
<path d="M 158.0 200 Q 134.0 180, 110.0 200" stroke="black" fill="none" marker-end="url(#arrowhead)"/>
<path d="M 170.0 200 Q 158.0 180, 146.0 200" stroke="black" fill="none" marker-end="url(#arrowhead)"/>
<path d="M 182.0 200 Q 146.0 180, 110.0 200" stroke="black" fill="none" marker-end="url(#arrowhead)"/>
<path d="M 194.0 200 Q 176.0 180, 158.0 200" stroke="black" fill="none" marker-end="url(#arrowhead)"/>
<path d="M 206.0 200 Q 194.0 180, 182.0 200" stroke="black" fill="none" marker-end="url(#arrowhead)"/>
<path d="M 218.0 200 Q 212.0 180, 206.0 200" stroke="black" fill="none" marker-end="url(#arrowhead)"/>
<path d="M 218.0 200 Q 182.0 180, 146.0 200" stroke="black" fill="none" marker-end="url(#arrowhead)"/>
<path d="M 218.0 200 Q 200.0 180, 182.0 200" stroke="black" fill="none" marker-end="url(#arrowhead)"/>
<path d="M 230.0 200 Q 218.0 180, 206.0 200" stroke="black" fill="none" marker-end="url(#arrowhead)"/>
<path d="M 242.0 200 Q 224.0 180, 206.0 200" stroke="black" fill="none" marker-end="url(#arrowhead)"/>
<path d="M 242.0 200 Q 236.0 180, 230.0 200" stroke="black" fill="none" marker-end="url(#arrowhead)"/>
<path d="M 254.0 200 Q 248.0 180, 242.0 200" stroke="black" fill="none" marker-end="url(#arrowhead)"/>
<path d="M 266.0 200 Q 254.0 180, 242.0 200" stroke="black" fill="none" marker-end="url(#arrowhead)"/>
<path d="M 266.0 200 Q 260.0 180, 254.0 200" stroke="black" fill="none" marker-end="url(#arrowhead)"/>
<path d="M 278.0 200 Q 236.0 180, 194.0 200" stroke="black" fill="none" marker-end="url(#arrowhead)"/>
<path d="M 290.0 200 Q 272.0 180, 254.0 200" stroke="black" fill="none" marker-end="url(#arrowhead)"/>
<path d="M 302.0 200 Q 254.0 180, 206.0 200" stroke="black" fill="none" marker-end="url(#arrowhead)"/>
<path d="M 302.0 200 Q 224.0 180, 146.0 200" stroke="black" fill="none" marker-end="url(#arrowhead)"/>
<path d="M 314.0 200 Q 194.0 180, 74.0 200" stroke="black" fill="none" marker-end="url(#arrowhead)"/>
<path d="M 314.0 200 Q 242.0 180, 170.0 200" stroke="black" fill="none" marker-end="url(#arrowhead)"/>
<path d="M 326.0 200 Q 320.0 180, 314.0 200" stroke="black" fill="none" marker-end="url(#arrowhead)"/>
<path d="M 338.0 200 Q 332.0 180, 326.0 200" stroke="black" fill="none" marker-end="url(#arrowhead)"/>
<path d="M 350.0 200 Q 338.0 180, 326.0 200" stroke="black" fill="none" marker-end="url(#arrowhead)"/>
<path d="M 350.0 200 Q 344.0 180, 338.0 200" stroke="black" fill="none" marker-end="url(#arrowhead)"/>
<path d="M 362.0 200 Q 356.0 180, 350.0 200" stroke="black" fill="none" marker-end="url(#arrowhead)"/>
<path d="M 374.0 200 Q 356.0 180, 338.0 200" stroke="black" fill="none" marker-end="url(#arrowhead)"/>
<path d="M 386.0 200 Q 368.0 180, 350.0 200" stroke="black" fill="none" marker-end="url(#arrowhead)"/>
<path d="M 398.0 200 Q 392.0 180, 386.0 200" stroke="black" fill="none" marker-end="url(#arrowhead)"/>
<path d="M 410.0 200 Q 404.0 180, 398.0 200" stroke="black" fill="none" marker-end="url(#arrowhead)"/>
<path d="M 422.0 200 Q 416.0 180, 410.0 200" stroke="black" fill="none" marker-end="url(#arrowhead)"/>
<path d="M 434.0 200 Q 428.0 180, 422.0 200" stroke="black" fill="none" marker-end="url(#arrowhead)"/>
<path d="M 446.0 200 Q 440.0 180, 434.0 200" stroke="black" fill="none" marker-end="url(#arrowhead)"/>
<path d="M 458.0 200 Q 452.0 180, 446.0 200" stroke="black" fill="none" marker-end="url(#arrowhead)"/>
<path d="M 495.1492885413614 200 Q 476.57464427068066 180, 458.0 200" stroke="black" fill="none" marker-end="url(#arrowhead)"/>
<path d="M 495.1492885413614 200 Q 284.57464427068066 180, 74.0 200" stroke="black" fill="none" marker-end="url(#arrowhead)"/>
<path d="M 704.1972405939456 200 Q 698.1972405939456 180, 692.1972405939456 200" stroke="black" fill="none" marker-end="url(#arrowhead)"/>
<path d="M 716.1972405939456 200 Q 710.1972405939456 180, 704.1972405939456 200" stroke="black" fill="none" marker-end="url(#arrowhead)"/>
<path d="M 728.1972405939456 200 Q 716.1972405939456 180, 704.1972405939456 200" stroke="black" fill="none" marker-end="url(#arrowhead)"/>
<path d="M 728.1972405939456 200 Q 722.1972405939456 180, 716.1972405939456 200" stroke="black" fill="none" marker-end="url(#arrowhead)"/>
<path d="M 740.1972405939456 200 Q 734.1972405939456 180, 728.1972405939456 200" stroke="black" fill="none" marker-end="url(#arrowhead)"/>
<path d="M 752.1972405939456 200 Q 746.1972405939456 180, 740.1972405939456 200" stroke="black" fill="none" marker-end="url(#arrowhead)"/>
<path d="M 752.1972405939456 200 Q 722.1972405939456 180, 692.1972405939456 200" stroke="black" fill="none" marker-end="url(#arrowhead)"/>
<path d="M 764.1972405939456 200 Q 758.1972405939456 180, 752.1972405939456 200" stroke="black" fill="none" marker-end="url(#arrowhead)"/>
<path d="M 764.1972405939456 200 Q 419.0986202969728 180, 74.0 200" stroke="black" fill="none" marker-end="url(#arrowhead)"/>
<path d="M 776.1972405939456 200 Q 770.1972405939456 180, 764.1972405939456 200" stroke="black" fill="none" marker-end="url(#arrowhead)"/>
<path d="M 788.1972405939456 200 Q 782.1972405939456 180, 776.1972405939456 200" stroke="black" fill="none" marker-end="url(#arrowhead)"/>
<path d="M 800.1972405939456 200 Q 770.1972405939456 180, 740.1972405939456 200" stroke="black" fill="none" marker-end="url(#arrowhead)"/>
<path d="M 812.1972405939456 200 Q 806.1972405939456 180, 800.1972405939456 200" stroke="black" fill="none" marker-end="url(#arrowhead)"/>
<path d="M 824.1972405939456 200 Q 812.1972405939456 180, 800.1972405939456 200" stroke="black" fill="none" marker-end="url(#arrowhead)"/>
<path d="M 836.1972405939456 200 Q 830.1972405939456 180, 824.1972405939456 200" stroke="black" fill="none" marker-end="url(#arrowhead)"/>
<path d="M 836.1972405939456 200 Q 818.1972405939456 180, 800.1972405939456 200" stroke="black" fill="none" marker-end="url(#arrowhead)"/>
<path d="M 848.1972405939456 200 Q 842.1972405939456 180, 836.1972405939456 200" stroke="black" fill="none" marker-end="url(#arrowhead)"/>
<path d="M 872.1972405939456 200 Q 866.1972405939456 180, 860.1972405939456 200" stroke="black" fill="none" marker-end="url(#arrowhead)"/>
<path d="M 920.1972405939456 200 Q 908.1972405939456 180, 896.1972405939456 200" stroke="black" fill="none" marker-end="url(#arrowhead)"/>
<path d="M 932.1972405939456 200 Q 926.1972405939456 180, 920.1972405939456 200" stroke="black" fill="none" marker-end="url(#arrowhead)"/>
<path d="M 944.1972405939456 200 Q 938.1972405939456 180, 932.1972405939456 200" stroke="black" fill="none" marker-end="url(#arrowhead)"/>
<path d="M 968.1972405939456 200 Q 962.1972405939456 180, 956.1972405939456 200" stroke="black" fill="none" marker-end="url(#arrowhead)"/>
<path d="M 980.1972405939456 200 Q 968.1972405939456 180, 956.1972405939456 200" stroke="black" fill="none" marker-end="url(#arrowhead)"/>
<path d="M 980.1972405939456 200 Q 974.1972405939456 180, 968.1972405939456 200" stroke="black" fill="none" marker-end="url(#arrowhead)"/>
<path d="M 992.1972405939456 200 Q 986.1972405939456 180, 980.1972405939456 200" stroke="black" fill="none" marker-end="url(#arrowhead)"/>
<path d="M 1004.1972405939456 200 Q 992.1972405939456 180, 980.1972405939456 200" stroke="black" fill="none" marker-end="url(#arrowhead)"/>
<path d="M 1004.1972405939456 200 Q 998.1972405939456 180, 992.1972405939456 200" stroke="black" fill="none" marker-end="url(#arrowhead)"/>
<path d="M 1016.1972405939456 200 Q 1010.1972405939456 180, 1004.1972405939456 200" stroke="black" fill="none" marker-end="url(#arrowhead)"/>
<path d="M 1028.1972405939455 200 Q 1022.1972405939455 180, 1016.1972405939456 200" stroke="black" fill="none" marker-end="url(#arrowhead)"/>
<path d="M 1040.1972405939455 200 Q 1034.1972405939455 180, 1028.1972405939455 200" stroke="black" fill="none" marker-end="url(#arrowhead)"/>

<defs>
  <marker id="arrowhead" markerWidth="5" markerHeight="5" 
          refX="2" refY="2" orient="auto" fill="black">
    <path d="M0,0 L0,4 L4,2 z" />
  </marker>
</defs>

<circle cx="50.0" cy="200" r="6" fill="none" stroke="blue" stroke-width="2" />
<circle cx="50.0" cy="200" r="3" fill="blue" />
<circle cx="62.0" cy="200" r="4" fill="black" />
<circle cx="74.0" cy="200" r="6" fill="none" stroke="black" stroke-width="2" />
<circle cx="74.0" cy="200" r="3" fill="black" />
<circle cx="86.0" cy="200" r="4" fill="black" />
<circle cx="98.0" cy="200" r="4" fill="red" />
<circle cx="110.0" cy="200" r="4" fill="black" />
<circle cx="122.0" cy="200" r="6" fill="none" stroke="black" stroke-width="2" />
<circle cx="122.0" cy="200" r="3" fill="black" />
<circle cx="134.0" cy="200" r="6" fill="none" stroke="black" stroke-width="2" />
<circle cx="134.0" cy="200" r="3" fill="black" />
<circle cx="146.0" cy="200" r="4" fill="red" />
<circle cx="158.0" cy="200" r="6" fill="none" stroke="red" stroke-width="2" />
<circle cx="158.0" cy="200" r="3" fill="red" />
<circle cx="170.0" cy="200" r="6" fill="none" stroke="black" stroke-width="2" />
<circle cx="170.0" cy="200" r="3" fill="black" />
<circle cx="182.0" cy="200" r="6" fill="none" stroke="blue" stroke-width="2" />
<circle cx="182.0" cy="200" r="3" fill="blue" />
<circle cx="194.0" cy="200" r="4" fill="black" />
<circle cx="206.0" cy="200" r="4" fill="black" />
<circle cx="218.0" cy="200" r="4" fill="black" />
<circle cx="230.0" cy="200" r="4" fill="black" />
<circle cx="242.0" cy="200" r="4" fill="red" />
<circle cx="254.0" cy="200" r="4" fill="green" />
<circle cx="266.0" cy="200" r="4" fill="black" />
<circle cx="278.0" cy="200" r="6" fill="none" stroke="black" stroke-width="2" />
<circle cx="278.0" cy="200" r="3" fill="black" />
<circle cx="290.0" cy="200" r="6" fill="none" stroke="black" stroke-width="2" />
<circle cx="290.0" cy="200" r="3" fill="black" />
<circle cx="302.0" cy="200" r="6" fill="none" stroke="black" stroke-width="2" />
<circle cx="302.0" cy="200" r="3" fill="black" />
<circle cx="314.0" cy="200" r="6" fill="none" stroke="blue" stroke-width="2" />
<circle cx="314.0" cy="200" r="3" fill="blue" />
<circle cx="326.0" cy="200" r="6" fill="none" stroke="black" stroke-width="2" />
<circle cx="326.0" cy="200" r="3" fill="black" />
<circle cx="338.0" cy="200" r="6" fill="none" stroke="blue" stroke-width="2" />
<circle cx="338.0" cy="200" r="3" fill="blue" />
<circle cx="350.0" cy="200" r="4" fill="red" />
<circle cx="362.0" cy="200" r="6" fill="none" stroke="red" stroke-width="2" />
<circle cx="362.0" cy="200" r="3" fill="red" />
<circle cx="374.0" cy="200" r="4" fill="blue" />
<circle cx="386.0" cy="200" r="4" fill="red" />
<circle cx="398.0" cy="200" r="6" fill="none" stroke="black" stroke-width="2" />
<circle cx="398.0" cy="200" r="3" fill="black" />
<circle cx="410.0" cy="200" r="6" fill="none" stroke="blue" stroke-width="2" />
<circle cx="410.0" cy="200" r="3" fill="blue" />
<circle cx="422.0" cy="200" r="6" fill="none" stroke="blue" stroke-width="2" />
<circle cx="422.0" cy="200" r="3" fill="blue" />
<circle cx="434.0" cy="200" r="6" fill="none" stroke="blue" stroke-width="2" />
<circle cx="434.0" cy="200" r="3" fill="blue" />
<circle cx="446.0" cy="200" r="4" fill="red" />
<circle cx="458.0" cy="200" r="6" fill="none" stroke="red" stroke-width="2" />
<circle cx="458.0" cy="200" r="3" fill="red" />
<circle cx="495.1492885413614" cy="200" r="6" fill="none" stroke="blue" stroke-width="2" />
<circle cx="495.1492885413614" cy="200" r="3" fill="blue" />
<circle cx="692.1972405939456" cy="200" r="4" fill="red" />
<circle cx="704.1972405939456" cy="200" r="6" fill="none" stroke="blue" stroke-width="2" />
<circle cx="704.1972405939456" cy="200" r="3" fill="blue" />
<circle cx="716.1972405939456" cy="200" r="6" fill="none" stroke="blue" stroke-width="2" />
<circle cx="716.1972405939456" cy="200" r="3" fill="blue" />
<circle cx="728.1972405939456" cy="200" r="4" fill="green" />
<circle cx="740.1972405939456" cy="200" r="4" fill="red" />
<circle cx="752.1972405939456" cy="200" r="6" fill="none" stroke="black" stroke-width="2" />
<circle cx="752.1972405939456" cy="200" r="3" fill="black" />
<circle cx="764.1972405939456" cy="200" r="4" fill="black" />
<circle cx="776.1972405939456" cy="200" r="6" fill="none" stroke="blue" stroke-width="2" />
<circle cx="776.1972405939456" cy="200" r="3" fill="blue" />
<circle cx="788.1972405939456" cy="200" r="4" fill="green" />
<circle cx="800.1972405939456" cy="200" r="4" fill="red" />
<circle cx="812.1972405939456" cy="200" r="4" fill="green" />
<circle cx="824.1972405939456" cy="200" r="6" fill="none" stroke="blue" stroke-width="2" />
<circle cx="824.1972405939456" cy="200" r="3" fill="blue" />
<circle cx="836.1972405939456" cy="200" r="4" fill="black" />
<circle cx="848.1972405939456" cy="200" r="6" fill="none" stroke="blue" stroke-width="2" />
<circle cx="848.1972405939456" cy="200" r="3" fill="blue" />
<circle cx="860.1972405939456" cy="200" r="4" fill="red" />
<circle cx="872.1972405939456" cy="200" r="6" fill="none" stroke="blue" stroke-width="2" />
<circle cx="872.1972405939456" cy="200" r="3" fill="blue" />
<circle cx="884.1972405939456" cy="200" r="4" fill="red" />
<circle cx="896.1972405939456" cy="200" r="4" fill="blue" />
<circle cx="908.1972405939456" cy="200" r="4" fill="red" />
<circle cx="920.1972405939456" cy="200" r="6" fill="none" stroke="blue" stroke-width="2" />
<circle cx="920.1972405939456" cy="200" r="3" fill="blue" />
<circle cx="932.1972405939456" cy="200" r="4" fill="red" />
<circle cx="944.1972405939456" cy="200" r="6" fill="none" stroke="blue" stroke-width="2" />
<circle cx="944.1972405939456" cy="200" r="3" fill="blue" />
<circle cx="956.1972405939456" cy="200" r="4" fill="green" />
<circle cx="968.1972405939456" cy="200" r="6" fill="none" stroke="blue" stroke-width="2" />
<circle cx="968.1972405939456" cy="200" r="3" fill="blue" />
<circle cx="980.1972405939456" cy="200" r="4" fill="blue" />
<circle cx="992.1972405939456" cy="200" r="6" fill="none" stroke="blue" stroke-width="2" />
<circle cx="992.1972405939456" cy="200" r="3" fill="blue" />
<circle cx="1004.1972405939456" cy="200" r="4" fill="green" />
<circle cx="1016.1972405939456" cy="200" r="6" fill="none" stroke="black" stroke-width="2" />
<circle cx="1016.1972405939456" cy="200" r="3" fill="black" />
<circle cx="1028.1972405939455" cy="200" r="4" fill="green" />
<circle cx="1040.1972405939455" cy="200" r="6" fill="none" stroke="green" stroke-width="2" />
<circle cx="1040.1972405939455" cy="200" r="3" fill="green" />
<circle cx="1052.1972405939455" cy="200" r="4" fill="black" />
<text x="50" y="225" fill="gray" style="font-size:12px;">2024-06-10T06:05:13+00:00</text>
<text x="900" y="225" fill="gray" style="font-size:12px;">2025-02-14T20:54:33+00:00</text>
</svg>