<svg xmlns="http://www.w3.org/2000/svg" width="1000" height="400" style="background-color: white; font-family: sans-serif;">
<line x1="50" y1="200" x2="950" y2="200" stroke="gray" stroke-width="1"/>
<path d="M 64.09080141683305 200 Q 57.04540070841652 180, 50.0 200" stroke="black" fill="none" marker-end="url(#arrowhead)"/>
<path d="M 146.39044170442787 200 Q 98.19522085221394 180, 50.0 200" stroke="black" fill="none" marker-end="url(#arrowhead)"/>
<path d="M 158.39044170442787 200 Q 152.39044170442787 180, 146.39044170442787 200" stroke="black" fill="none" marker-end="url(#arrowhead)"/>
<path d="M 170.39044170442787 200 Q 158.39044170442787 180, 146.39044170442787 200" stroke="black" fill="none" marker-end="url(#arrowhead)"/>
<path d="M 170.39044170442787 200 Q 164.39044170442787 180, 158.39044170442787 200" stroke="black" fill="none" marker-end="url(#arrowhead)"/>
<path d="M 170.39044170442787 200 Q 110.19522085221394 180, 50.0 200" stroke="black" fill="none" marker-end="url(#arrowhead)"/>
<path d="M 194.39044170442787 200 Q 188.39044170442787 180, 182.39044170442787 200" stroke="black" fill="none" marker-end="url(#arrowhead)"/>
<path d="M 206.39044170442787 200 Q 182.39044170442787 180, 158.39044170442787 200" stroke="black" fill="none" marker-end="url(#arrowhead)"/>
<path d="M 218.39044170442787 200 Q 212.39044170442787 180, 206.39044170442787 200" stroke="black" fill="none" marker-end="url(#arrowhead)"/>
<path d="M 230.39044170442787 200 Q 200.39044170442787 180, 170.39044170442787 200" stroke="black" fill="none" marker-end="url(#arrowhead)"/>
<path d="M 242.39044170442787 200 Q 236.39044170442787 180, 230.39044170442787 200" stroke="black" fill="none" marker-end="url(#arrowhead)"/>
<path d="M 242.39044170442787 200 Q 206.39044170442787 180, 170.39044170442787 200" stroke="black" fill="none" marker-end="url(#arrowhead)"/>
<path d="M 266.3904417044279 200 Q 260.3904417044279 180, 254.39044170442787 200" stroke="black" fill="none" marker-end="url(#arrowhead)"/>
<path d="M 278.3904417044279 200 Q 272.3904417044279 180, 266.3904417044279 200" stroke="black" fill="none" marker-end="url(#arrowhead)"/>
<path d="M 290.3904417044279 200 Q 278.3904417044279 180, 266.3904417044279 200" stroke="black" fill="none" marker-end="url(#arrowhead)"/>
<path d="M 290.3904417044279 200 Q 284.3904417044279 180, 278.3904417044279 200" stroke="black" fill="none" marker-end="url(#arrowhead)"/>
<path d="M 302.3904417044279 200 Q 278.3904417044279 180, 254.39044170442787 200" stroke="black" fill="none" marker-end="url(#arrowhead)"/>
<path d="M 314.3904417044279 200 Q 290.3904417044279 180, 266.3904417044279 200" stroke="black" fill="none" marker-end="url(#arrowhead)"/>
<path d="M 314.3904417044279 200 Q 308.3904417044279 180, 302.3904417044279 200" stroke="black" fill="none" marker-end="url(#arrowhead)"/>
<path d="M 314.3904417044279 200 Q 284.3904417044279 180, 254.39044170442787 200" stroke="black" fill="none" marker-end="url(#arrowhead)"/>
<path d="M 326.3904417044279 200 Q 320.3904417044279 180, 314.3904417044279 200" stroke="black" fill="none" marker-end="url(#arrowhead)"/>
<path d="M 350.3904417044279 200 Q 344.3904417044279 180, 338.3904417044279 200" stroke="black" fill="none" marker-end="url(#arrowhead)"/>
<path d="M 362.3904417044279 200 Q 356.3904417044279 180, 350.3904417044279 200" stroke="black" fill="none" marker-end="url(#arrowhead)"/>
<path d="M 374.3904417044279 200 Q 368.3904417044279 180, 362.3904417044279 200" stroke="black" fill="none" marker-end="url(#arrowhead)"/>
<path d="M 452.22200985047084 200 Q 413.30622577744936 180, 374.3904417044279 200" stroke="black" fill="none" marker-end="url(#arrowhead)"/>
<path d="M 585.4787016150923 200 Q 518.8503557327815 180, 452.22200985047084 200" stroke="black" fill="none" marker-end="url(#arrowhead)"/>
<path d="M 597.4787016150923 200 Q 591.4787016150923 180, 585.4787016150923 200" stroke="black" fill="none" marker-end="url(#arrowhead)"/>
<path d="M 659.1950733155728 200 Q 628.3368874653326 180, 597.4787016150923 200" stroke="black" fill="none" marker-end="url(#arrowhead)"/>
<path d="M 782.9451444534249 200 Q 721.0701088844988 180, 659.1950733155728 200" stroke="black" fill="none" marker-end="url(#arrowhead)"/>
<path d="M 794.9451444534249 200 Q 788.9451444534249 180, 782.9451444534249 200" stroke="black" fill="none" marker-end="url(#arrowhead)"/>
<path d="M 935.8790384379415 200 Q 865.4120914456832 180, 794.9451444534249 200" stroke="black" fill="none" marker-end="url(#arrowhead)"/>
<path d="M 950.0 200 Q 942.9395192189708 180, 935.8790384379415 200" stroke="black" fill="none" marker-end="url(#arrowhead)"/>

<defs>
  <marker id="arrowhead" markerWidth="5" markerHeight="5" 
          refX="2" refY="2" orient="auto" fill="black">
    <path d="M0,0 L0,4 L4,2 z" />
  </marker>
</defs>

<circle cx="50.0" cy="200" r="6" fill="none" stroke="blue" stroke-width="2" />
<circle cx="50.0" cy="200" r="3" fill="blue" />
<circle cx="64.09080141683305" cy="200" r="6" fill="none" stroke="blue" stroke-width="2" />
<circle cx="64.09080141683305" cy="200" r="3" fill="blue" />
<circle cx="146.39044170442787" cy="200" r="4" fill="red" />
<circle cx="158.39044170442787" cy="200" r="4" fill="black" />
<circle cx="170.39044170442787" cy="200" r="6" fill="none" stroke="blue" stroke-width="2" />
<circle cx="170.39044170442787" cy="200" r="3" fill="blue" />
<circle cx="182.39044170442787" cy="200" r="4" fill="red" />
<circle cx="194.39044170442787" cy="200" r="6" fill="none" stroke="blue" stroke-width="2" />
<circle cx="194.39044170442787" cy="200" r="3" fill="blue" />
<circle cx="206.39044170442787" cy="200" r="4" fill="red" />
<circle cx="218.39044170442787" cy="200" r="6" fill="none" stroke="black" stroke-width="2" />
<circle cx="218.39044170442787" cy="200" r="3" fill="black" />
<circle cx="230.39044170442787" cy="200" r="4" fill="black" />
<circle cx="242.39044170442787" cy="200" r="6" fill="none" stroke="blue" stroke-width="2" />
<circle cx="242.39044170442787" cy="200" r="3" fill="blue" />
<circle cx="254.39044170442787" cy="200" r="4" fill="red" />
<circle cx="266.3904417044279" cy="200" r="6" fill="none" stroke="black" stroke-width="2" />
<circle cx="266.3904417044279" cy="200" r="3" fill="black" />
<circle cx="278.3904417044279" cy="200" r="4" fill="red" />
<circle cx="290.3904417044279" cy="200" r="6" fill="none" stroke="red" stroke-width="2" />
<circle cx="290.3904417044279" cy="200" r="3" fill="red" />
<circle cx="302.3904417044279" cy="200" r="6" fill="none" stroke="blue" stroke-width="2" />
<circle cx="302.3904417044279" cy="200" r="3" fill="blue" />
<circle cx="314.3904417044279" cy="200" r="6" fill="none" stroke="black" stroke-width="2" />
<circle cx="314.3904417044279" cy="200" r="3" fill="black" />
<circle cx="326.3904417044279" cy="200" r="4" fill="red" />
<circle cx="338.3904417044279" cy="200" r="6" fill="none" stroke="black" stroke-width="2" />
<circle cx="338.3904417044279" cy="200" r="3" fill="black" />
<circle cx="350.3904417044279" cy="200" r="6" fill="none" stroke="black" stroke-width="2" />
<circle cx="350.3904417044279" cy="200" r="3" fill="black" />
<circle cx="362.3904417044279" cy="200" r="6" fill="none" stroke="blue" stroke-width="2" />
<circle cx="362.3904417044279" cy="200" r="3" fill="blue" />
<circle cx="374.3904417044279" cy="200" r="6" fill="none" stroke="blue" stroke-width="2" />
<circle cx="374.3904417044279" cy="200" r="3" fill="blue" />
<circle cx="452.22200985047084" cy="200" r="6" fill="none" stroke="blue" stroke-width="2" />
<circle cx="452.22200985047084" cy="200" r="3" fill="blue" />
<circle cx="585.4787016150923" cy="200" r="6" fill="none" stroke="blue" stroke-width="2" />
<circle cx="585.4787016150923" cy="200" r="3" fill="blue" />
<circle cx="597.4787016150923" cy="200" r="6" fill="none" stroke="blue" stroke-width="2" />
<circle cx="597.4787016150923" cy="200" r="3" fill="blue" />
<circle cx="659.1950733155728" cy="200" r="6" fill="none" stroke="blue" stroke-width="2" />
<circle cx="659.1950733155728" cy="200" r="3" fill="blue" />
<circle cx="782.9451444534249" cy="200" r="4" fill="black" />
<circle cx="794.9451444534249" cy="200" r="6" fill="none" stroke="blue" stroke-width="2" />
<circle cx="794.9451444534249" cy="200" r="3" fill="blue" />
<circle cx="935.8790384379415" cy="200" r="6" fill="none" stroke="blue" stroke-width="2" />
<circle cx="935.8790384379415" cy="200" r="3" fill="blue" />
<circle cx="950.0" cy="200" r="6" fill="none" stroke="blue" stroke-width="2" />
<circle cx="950.0" cy="200" r="3" fill="blue" />
<text x="50" y="225" fill="gray" style="font-size:12px;">2023-12-01T05:00:54+00:00</text>
<text x="900" y="225" fill="gray" style="font-size:12px;">2025-02-25T07:25:37+00:00</text>
</svg>