<svg xmlns="http://www.w3.org/2000/svg" width="1000" height="200" style="background-color: white; font-family: sans-serif;">
<line x1="50" y1="100" x2="950" y2="100" stroke="gray" stroke-width="1"/>
<path d="M 62.0 100 Q 56.0 80, 50.0 100" stroke="black" fill="none" marker-end="url(#arrowhead)"/>
<path d="M 74.0 100 Q 68.0 80, 62.0 100" stroke="black" fill="none" marker-end="url(#arrowhead)"/>
<path d="M 283.86302384748416 100 Q 178.93151192374208 80, 74.0 100" stroke="black" fill="none" marker-end="url(#arrowhead)"/>
<path d="M 498.53921716003373 100 Q 486.53921716003373 80, 474.53921716003373 100" stroke="black" fill="none" marker-end="url(#arrowhead)"/>
<path d="M 498.53921716003373 100 Q 492.53921716003373 80, 486.53921716003373 100" stroke="black" fill="none" marker-end="url(#arrowhead)"/>
<path d="M 855.5398243007555 100 Q 677.0395207303947 80, 498.53921716003373 100" stroke="black" fill="none" marker-end="url(#arrowhead)"/>
<path d="M 855.5398243007555 100 Q 855.5398243007555 120, 855.5398243007555 100" stroke="black" fill="none" marker-end="url(#arrowhead)"/>
<path d="M 950.0 100 Q 616.931511923742 80, 283.86302384748416 100" stroke="black" fill="none" marker-end="url(#arrowhead)"/>

<defs>
  <marker id="arrowhead" markerWidth="5" markerHeight="5" 
          refX="2" refY="2" orient="auto" fill="black">
    <path d="M0,0 L0,4 L4,2 z" />
  </marker>
</defs>

<circle cx="50.0" cy="100" r="6" fill="none" stroke="black" stroke-width="2" />
<circle cx="50.0" cy="100" r="3" fill="black" />
<circle cx="62.0" cy="100" r="4" fill="black" />
<circle cx="74.0" cy="100" r="4" fill="black" />
<circle cx="283.86302384748416" cy="100" r="4" fill="blue" />
<circle cx="474.53921716003373" cy="100" r="4" fill="black" />
<circle cx="486.53921716003373" cy="100" r="4" fill="black" />
<circle cx="498.53921716003373" cy="100" r="4" fill="black" />
<circle cx="510.53921716003373" cy="100" r="4" fill="black" />
<circle cx="522.5392171600338" cy="100" r="4" fill="blue" />
<circle cx="855.5398243007555" cy="100" r="4" fill="red" />
<circle cx="950.0" cy="100" r="4" fill="black" />
<text x="50" y="125" fill="gray" style="font-size:12px;">2023-12-01T05:13:25+00:00</text>
<text x="900" y="125" fill="gray" style="font-size:12px;">2024-12-03T09:43:31+00:00</text>
</svg>