<svg xmlns="http://www.w3.org/2000/svg" width="1000" height="400" style="background-color: white; font-family: sans-serif;">
<line x1="50" y1="200" x2="950" y2="200" stroke="gray" stroke-width="1"/>
<path d="M 62.0 200 Q 56.0 180, 50.0 200" stroke="black" fill="none" marker-end="url(#arrowhead)"/>
<path d="M 74.0 200 Q 68.0 180, 62.0 200" stroke="black" fill="none" marker-end="url(#arrowhead)"/>
<path d="M 283.86302384748416 200 Q 178.93151192374208 180, 74.0 200" stroke="black" fill="none" marker-end="url(#arrowhead)"/>
<path d="M 498.53921716003373 200 Q 486.53921716003373 180, 474.53921716003373 200" stroke="black" fill="none" marker-end="url(#arrowhead)"/>
<path d="M 498.53921716003373 200 Q 492.53921716003373 180, 486.53921716003373 200" stroke="black" fill="none" marker-end="url(#arrowhead)"/>
<path d="M 855.5398243007555 200 Q 677.0395207303947 180, 498.53921716003373 200" stroke="black" fill="none" marker-end="url(#arrowhead)"/>
<path d="M 855.5398243007555 200 Q 855.5398243007555 220, 855.5398243007555 200" stroke="black" fill="none" marker-end="url(#arrowhead)"/>
<path d="M 950.0 200 Q 616.931511923742 180, 283.86302384748416 200" stroke="black" fill="none" marker-end="url(#arrowhead)"/>

<defs>
  <marker id="arrowhead" markerWidth="5" markerHeight="5" 
          refX="2" refY="2" orient="auto" fill="black">
    <path d="M0,0 L0,4 L4,2 z" />
  </marker>
</defs>

<circle cx="50.0" cy="200" r="6" fill="none" stroke="black" stroke-width="2" />
<circle cx="50.0" cy="200" r="3" fill="black" />
<circle cx="62.0" cy="200" r="4" fill="black" />
<circle cx="74.0" cy="200" r="4" fill="black" />
<circle cx="283.86302384748416" cy="200" r="4" fill="blue" />
<circle cx="474.53921716003373" cy="200" r="4" fill="black" />
<circle cx="486.53921716003373" cy="200" r="4" fill="black" />
<circle cx="498.53921716003373" cy="200" r="4" fill="black" />
<circle cx="510.53921716003373" cy="200" r="4" fill="black" />
<circle cx="522.5392171600338" cy="200" r="4" fill="blue" />
<circle cx="855.5398243007555" cy="200" r="4" fill="red" />
<circle cx="950.0" cy="200" r="4" fill="black" />
<text x="50" y="225" fill="gray" style="font-size:12px;">2023-12-01T05:13:25+00:00</text>
<text x="900" y="225" fill="gray" style="font-size:12px;">2024-12-03T09:43:31+00:00</text>
</svg>