<svg xmlns="http://www.w3.org/2000/svg" width="1000" height="200" style="background-color: white; font-family: sans-serif;">
<line x1="50" y1="100" x2="950" y2="100" stroke="gray" stroke-width="1"/>
<path d="M 135.80349967374408 100 Q 92.90174983687204 80, 50.0 100" stroke="black" fill="none" marker-end="url(#arrowhead)"/>
<path d="M 147.80349967374408 100 Q 98.90174983687204 80, 50.0 100" stroke="black" fill="none" marker-end="url(#arrowhead)"/>
<path d="M 159.80349967374408 100 Q 104.90174983687204 80, 50.0 100" stroke="black" fill="none" marker-end="url(#arrowhead)"/>
<path d="M 159.80349967374408 100 Q 147.80349967374408 80, 135.80349967374408 100" stroke="black" fill="none" marker-end="url(#arrowhead)"/>
<path d="M 171.80349967374408 100 Q 110.90174983687204 80, 50.0 100" stroke="black" fill="none" marker-end="url(#arrowhead)"/>
<path d="M 171.80349967374408 100 Q 159.80349967374408 80, 147.80349967374408 100" stroke="black" fill="none" marker-end="url(#arrowhead)"/>
<path d="M 961.5205195879505 100 Q 505.76025979397525 80, 50.0 100" stroke="black" fill="none" marker-end="url(#arrowhead)"/>
<path d="M 973.5205195879505 100 Q 967.5205195879505 80, 961.5205195879505 100" stroke="black" fill="none" marker-end="url(#arrowhead)"/>
<path d="M 985.5205195879505 100 Q 973.5205195879505 80, 961.5205195879505 100" stroke="black" fill="none" marker-end="url(#arrowhead)"/>
<path d="M 985.5205195879505 100 Q 979.5205195879505 80, 973.5205195879505 100" stroke="black" fill="none" marker-end="url(#arrowhead)"/>
<path d="M 997.5205195879505 100 Q 991.5205195879505 80, 985.5205195879505 100" stroke="black" fill="none" marker-end="url(#arrowhead)"/>
<path d="M 1009.5205195879505 100 Q 997.5205195879505 80, 985.5205195879505 100" stroke="black" fill="none" marker-end="url(#arrowhead)"/>
<path d="M 1009.5205195879505 100 Q 1003.5205195879505 80, 997.5205195879505 100" stroke="black" fill="none" marker-end="url(#arrowhead)"/>

<defs>
  <marker id="arrowhead" markerWidth="5" markerHeight="5" 
          refX="2" refY="2" orient="auto" fill="black">
    <path d="M0,0 L0,4 L4,2 z" />
  </marker>
</defs>

<circle cx="50.0" cy="100" r="6" fill="none" stroke="blue" stroke-width="2" />
<circle cx="50.0" cy="100" r="3" fill="blue" />
<circle cx="135.80349967374408" cy="100" r="4" fill="red" />
<circle cx="147.80349967374408" cy="100" r="4" fill="black" />
<circle cx="159.80349967374408" cy="100" r="6" fill="none" stroke="black" stroke-width="2" />
<circle cx="159.80349967374408" cy="100" r="3" fill="black" />
<circle cx="171.80349967374408" cy="100" r="6" fill="none" stroke="black" stroke-width="2" />
<circle cx="171.80349967374408" cy="100" r="3" fill="black" />
<circle cx="253.5850975395509" cy="100" r="6" fill="none" stroke="blue" stroke-width="2" />
<circle cx="253.5850975395509" cy="100" r="3" fill="blue" />
<circle cx="949.5205195879505" cy="100" r="6" fill="none" stroke="blue" stroke-width="2" />
<circle cx="949.5205195879505" cy="100" r="3" fill="blue" />
<circle cx="961.5205195879505" cy="100" r="4" fill="red" />
<circle cx="973.5205195879505" cy="100" r="4" fill="black" />
<circle cx="985.5205195879505" cy="100" r="6" fill="none" stroke="blue" stroke-width="2" />
<circle cx="985.5205195879505" cy="100" r="3" fill="blue" />
<circle cx="997.5205195879505" cy="100" r="4" fill="black" />
<circle cx="1009.5205195879505" cy="100" r="6" fill="none" stroke="green" stroke-width="2" />
<circle cx="1009.5205195879505" cy="100" r="3" fill="green" />
<text x="50" y="125" fill="gray" style="font-size:12px;">2024-11-06T22:07:35+00:00</text>
<text x="900" y="125" fill="gray" style="font-size:12px;">2025-02-28T20:51:27+00:00</text>
</svg>