<svg xmlns="http://www.w3.org/2000/svg" width="1000" height="400" style="background-color: white; font-family: sans-serif;">
<line x1="50" y1="200" x2="950" y2="200" stroke="gray" stroke-width="1"/>
<path d="M 128.27193482589996 200 Q 89.13596741294998 180, 50.0 200" stroke="black" fill="none" marker-end="url(#arrowhead)"/>
<path d="M 161.68080276645446 200 Q 105.84040138322723 180, 50.0 200" stroke="black" fill="none" marker-end="url(#arrowhead)"/>
<path d="M 161.68080276645446 200 Q 144.9763687961772 180, 128.27193482589996 200" stroke="black" fill="none" marker-end="url(#arrowhead)"/>
<path d="M 960.284894868351 200 Q 954.284894868351 180, 948.284894868351 200" stroke="black" fill="none" marker-end="url(#arrowhead)"/>
<path d="M 972.284894868351 200 Q 966.284894868351 180, 960.284894868351 200" stroke="black" fill="none" marker-end="url(#arrowhead)"/>
<path d="M 984.284894868351 200 Q 978.284894868351 180, 972.284894868351 200" stroke="black" fill="none" marker-end="url(#arrowhead)"/>

<defs>
  <marker id="arrowhead" markerWidth="5" markerHeight="5" 
          refX="2" refY="2" orient="auto" fill="black">
    <path d="M0,0 L0,4 L4,2 z" />
  </marker>
</defs>

<circle cx="50.0" cy="200" r="6" fill="none" stroke="blue" stroke-width="2" />
<circle cx="50.0" cy="200" r="3" fill="blue" />
<circle cx="128.27193482589996" cy="200" r="4" fill="red" />
<circle cx="161.68080276645446" cy="200" r="6" fill="none" stroke="blue" stroke-width="2" />
<circle cx="161.68080276645446" cy="200" r="3" fill="blue" />
<circle cx="948.284894868351" cy="200" r="6" fill="none" stroke="black" stroke-width="2" />
<circle cx="948.284894868351" cy="200" r="3" fill="black" />
<circle cx="960.284894868351" cy="200" r="4" fill="black" />
<circle cx="972.284894868351" cy="200" r="6" fill="none" stroke="black" stroke-width="2" />
<circle cx="972.284894868351" cy="200" r="3" fill="black" />
<circle cx="984.284894868351" cy="200" r="4" fill="black" />
<text x="50" y="225" fill="gray" style="font-size:12px;">2024-11-21T18:00:37+00:00</text>
<text x="900" y="225" fill="gray" style="font-size:12px;">2025-02-17T21:54:56+00:00</text>
</svg>